# Blender 5.1.2
# www.blender.org
mtllib -0.2.mtl
o RenderMesh_130977117519788
v -0.326102 -0.303282 0.280749
v -0.194206 -0.567433 0.244151
v -0.277498 -0.287879 0.324776
v 0.334204 0.240419 -0.324024
v 0.313899 0.191986 -0.370864
v 0.121156 0.258971 -0.378027
v -0.358566 0.199806 -0.268261
v -0.305924 0.251538 -0.281677
v -0.317520 0.224761 -0.350483
v 0.291098 -0.395751 0.271431
v 0.369196 -0.357102 0.140303
v 0.334345 -0.297253 0.305991
v 0.330751 0.243414 0.295849
v 0.047378 0.294252 0.293745
v 0.059087 0.229699 0.333203
v -0.354312 0.223427 -0.091052
v -0.305924 0.251538 -0.281677
v -0.358566 0.199806 -0.268261
v -0.326102 -0.303282 0.280749
v -0.277498 -0.287879 0.324776
v -0.332577 -0.125179 0.286063
v -0.305740 0.265335 -0.117839
v -0.305924 0.251538 -0.281677
v -0.354312 0.223427 -0.091052
v 0.047378 0.294252 0.293745
v -0.112098 0.210965 0.335514
v 0.059087 0.229699 0.333203
v 0.294432 0.132254 0.334472
v 0.365551 0.100408 0.267654
v 0.330751 0.243414 0.295849
v -0.322366 0.237245 0.303796
v -0.312257 0.253171 0.126840
v -0.354312 0.223427 -0.091052
v -0.305924 0.251538 -0.281677
v -0.141445 0.240682 -0.381974
v -0.317520 0.224761 -0.350483
v -0.077637 0.304316 -0.301554
v -0.257522 0.261705 0.312909
v -0.112098 0.210965 0.335514
v 0.047378 0.294252 0.293745
v -0.315560 -0.086727 -0.350186
v -0.290120 -0.217563 -0.362962
v -0.313623 -0.367212 -0.307702
v 0.124454 0.296661 -0.287443
v 0.334204 0.240419 -0.324024
v 0.121156 0.258971 -0.378027
v 0.124454 0.296661 -0.287443
v 0.001185 0.261376 -0.340450
v -0.077637 0.304316 -0.301554
v -0.141445 0.240682 -0.381974
v -0.077637 0.304316 -0.301554
v 0.001185 0.261376 -0.340450
v -0.263801 0.014495 -0.374153
v -0.315560 -0.086727 -0.350186
v -0.317520 0.224761 -0.350483
v -0.353055 -0.015289 -0.293095
v -0.317520 0.224761 -0.350483
v 0.312167 0.259741 -0.194325
v 0.343015 0.242338 0.043433
v 0.350659 0.207180 -0.231405
v -0.322366 0.237245 0.303796
v -0.332577 -0.125179 0.286063
v -0.210524 0.065467 0.359170
v -0.247618 -0.358026 -0.335052
v -0.290120 -0.217563 -0.362962
v -0.114946 -0.482731 -0.351008
v 0.019505 0.067126 0.388311
v 0.059087 0.229699 0.333203
v -0.112098 0.210965 0.335514
v 0.312167 0.259741 -0.194325
v 0.282355 0.280378 -0.003419
v 0.343015 0.242338 0.043433
v -0.357138 0.047857 0.221667
v -0.332577 -0.125179 0.286063
v -0.322366 0.237245 0.303796
v -0.290120 -0.217563 -0.362962
v -0.247618 -0.358026 -0.335052
v -0.313623 -0.367212 -0.307702
v 0.019505 0.067126 0.388311
v -0.112098 0.210965 0.335514
v -0.210524 0.065467 0.359170
v -0.210524 0.065467 0.359170
v -0.112098 0.210965 0.335514
v -0.322366 0.237245 0.303796
v -0.312257 0.253171 0.126840
v -0.322366 0.237245 0.303796
v -0.257522 0.261705 0.312909
v -0.315560 -0.086727 -0.350186
v -0.263801 0.014495 -0.374153
v -0.290120 -0.217563 -0.362962
v -0.326102 -0.303282 0.280749
v -0.369196 -0.269715 0.036506
v -0.241718 -0.387175 0.124888
v -0.306921 -0.371622 0.014307
v -0.369196 -0.269715 0.036506
v 0.203019 -0.383264 0.265571
v 0.151408 -0.251035 0.338502
v 0.144342 -0.507198 0.257985
v 0.121156 0.258971 -0.378027
v 0.001185 0.261376 -0.340450
v 0.124454 0.296661 -0.287443
v 0.312167 0.259741 -0.194325
v 0.350659 0.207180 -0.231405
v 0.334204 0.240419 -0.324024
v -0.275600 0.249460 -0.002963
v -0.305740 0.265335 -0.117839
v -0.354312 0.223427 -0.091052
v 0.019505 0.067126 0.388311
v 0.193475 0.147747 0.307789
v 0.059087 0.229699 0.333203
v 0.279189 -0.222643 -0.388311
v 0.318389 -0.119481 -0.328852
v 0.343212 -0.311293 -0.320681
v 0.368662 0.170957 0.118337
v 0.340771 0.278261 0.119676
v 0.330751 0.243414 0.295849
v -0.163768 0.286033 0.233098
v -0.257522 0.261705 0.312909
v 0.047378 0.294252 0.293745
v 0.334345 -0.297253 0.305991
v 0.151408 -0.251035 0.338502
v 0.203019 -0.383264 0.265571
v 0.330751 0.243414 0.295849
v 0.365551 0.100408 0.267654
v 0.368662 0.170957 0.118337
v 0.343212 -0.311293 -0.320681
v 0.205160 -0.320347 -0.337929
v 0.279189 -0.222643 -0.388311
v -0.306921 -0.371622 0.014307
v -0.369196 -0.269715 0.036506
v -0.348337 -0.254183 -0.115234
v 0.340771 0.278261 0.119676
v 0.343015 0.242338 0.043433
v 0.282355 0.280378 -0.003419
v -0.077637 0.304316 -0.301554
v -0.305924 0.251538 -0.281677
v -0.305740 0.265335 -0.117839
v 0.318389 -0.119481 -0.328852
v 0.313396 0.008229 -0.359626
v 0.354897 -0.155724 -0.250229
v -0.277498 -0.287879 0.324776
v -0.194206 -0.567433 0.244151
v -0.119289 -0.315605 0.317776
v -0.072204 -0.152924 0.352071
v -0.210524 0.065467 0.359170
v -0.332577 -0.125179 0.286063
v 0.019505 0.067126 0.388311
v -0.210524 0.065467 0.359170
v -0.072204 -0.152924 0.352071
v 0.294432 0.132254 0.334472
v 0.332645 -0.015417 0.256580
v 0.365551 0.100408 0.267654
v 0.046510 -0.404751 0.283416
v 0.144342 -0.507198 0.257985
v 0.151408 -0.251035 0.338502
v 0.313396 0.008229 -0.359626
v 0.337596 0.104983 -0.298577
v 0.354897 -0.155724 -0.250229
v -0.163768 0.286033 0.233098
v -0.312257 0.253171 0.126840
v -0.257522 0.261705 0.312909
v 0.343212 -0.311293 -0.320681
v 0.342436 -0.294288 -0.118146
v 0.317717 -0.330415 -0.035316
v 0.010500 0.299458 0.087077
v 0.047378 0.294252 0.293745
v 0.340771 0.278261 0.119676
v 0.330751 0.243414 0.295849
v 0.313899 0.191986 -0.370864
v 0.337596 0.104983 -0.298577
v 0.313396 0.008229 -0.359626
v 0.343015 0.242338 0.043433
v 0.340771 0.278261 0.119676
v 0.368662 0.170957 0.118337
v 0.313899 0.191986 -0.370864
v 0.350659 0.207180 -0.231405
v 0.337596 0.104983 -0.298577
v -0.320208 -0.357681 -0.115985
v -0.306921 -0.371622 0.014307
v -0.348337 -0.254183 -0.115234
v -0.112098 0.210965 0.335514
v -0.257522 0.261705 0.312909
v -0.322366 0.237245 0.303796
v 0.318389 -0.119481 -0.328852
v 0.354897 -0.155724 -0.250229
v 0.343212 -0.311293 -0.320681
v 0.347479 0.148941 -0.120139
v 0.343015 0.242338 0.043433
v 0.368662 0.170957 0.118337
v -0.313623 -0.367212 -0.307702
v -0.353055 -0.015289 -0.293095
v -0.315560 -0.086727 -0.350186
v -0.320208 -0.357681 -0.115985
v -0.353055 -0.015289 -0.293095
v -0.358566 0.199806 -0.268261
v -0.317520 0.224761 -0.350483
v -0.347228 0.108290 -0.080250
v 0.019505 0.067126 0.388311
v -0.072204 -0.152924 0.352071
v 0.104554 -0.108912 0.326733
v -0.119289 -0.315605 0.317776
v -0.277498 -0.287879 0.324776
v 0.046510 -0.404751 0.283416
v 0.162539 0.030260 -0.366797
v 0.318389 -0.119481 -0.328852
v 0.279189 -0.222643 -0.388311
v -0.072204 -0.152924 0.352071
v -0.332577 -0.125179 0.286063
v -0.277498 -0.287879 0.324776
v 0.205354 0.266962 -0.172536
v 0.334204 0.240419 -0.324024
v 0.124454 0.296661 -0.287443
v 0.312167 0.259741 -0.194325
v 0.047378 0.294252 0.293745
v 0.010500 0.299458 0.087077
v -0.163768 0.286033 0.233098
v -0.326102 -0.303282 0.280749
v -0.340393 -0.110358 0.130290
v -0.369196 -0.269715 0.036506
v -0.312257 0.253171 0.126840
v -0.275600 0.249460 -0.002963
v -0.354312 0.223427 -0.091052
v 0.294432 0.132254 0.334472
v 0.330751 0.243414 0.295849
v 0.193475 0.147747 0.307789
v 0.059087 0.229699 0.333203
v 0.104554 -0.108912 0.326733
v -0.072204 -0.152924 0.352071
v 0.046510 -0.404751 0.283416
v 0.340771 0.278261 0.119676
v 0.033610 0.297966 -0.019918
v 0.010500 0.299458 0.087077
v 0.330285 -0.147066 0.290259
v 0.151408 -0.251035 0.338502
v 0.334345 -0.297253 0.305991
v 0.340771 0.278261 0.119676
v 0.282355 0.280378 -0.003419
v 0.033610 0.297966 -0.019918
v 0.251755 -0.359745 -0.192478
v 0.343212 -0.311293 -0.320681
v 0.317717 -0.330415 -0.035316
v -0.294923 -0.557094 -0.212352
v -0.320208 -0.357681 -0.115985
v -0.313623 -0.367212 -0.307702
v 0.193475 0.147747 0.307789
v 0.019505 0.067126 0.388311
v 0.104554 -0.108912 0.326733
v -0.332577 -0.125179 0.286063
v -0.340393 -0.110358 0.130290
v -0.326102 -0.303282 0.280749
v 0.151408 -0.251035 0.338502
v 0.330285 -0.147066 0.290259
v 0.104554 -0.108912 0.326733
v -0.332577 -0.125179 0.286063
v -0.357138 0.047857 0.221667
v -0.340393 -0.110358 0.130290
v 0.205354 0.266962 -0.172536
v 0.282355 0.280378 -0.003419
v 0.312167 0.259741 -0.194325
v -0.187640 -0.334533 -0.177894
v -0.124114 -0.338855 -0.255891
v -0.087136 -0.402357 -0.145503
v -0.076438 -0.355756 0.248427
v 0.046510 -0.404751 0.283416
v -0.119289 -0.315605 0.317776
v 0.294432 0.132254 0.334472
v 0.104554 -0.108912 0.326733
v 0.332645 -0.015417 0.256580
v -0.357138 0.047857 0.221667
v -0.322366 0.237245 0.303796
v -0.316712 0.127759 0.052866
v 0.203019 -0.383264 0.265571
v 0.291098 -0.395751 0.271431
v 0.334345 -0.297253 0.305991
v -0.100895 0.261024 -0.002288
v 0.033610 0.297966 -0.019918
v -0.058016 0.289330 -0.178497
v 0.104554 -0.108912 0.326733
v 0.330285 -0.147066 0.290259
v 0.332645 -0.015417 0.256580
v 0.010500 0.299458 0.087077
v 0.033610 0.297966 -0.019918
v -0.100895 0.261024 -0.002288
v 0.033610 0.297966 -0.019918
v 0.205354 0.266962 -0.172536
v -0.058016 0.289330 -0.178497
v 0.282355 0.280378 -0.003419
v 0.205354 0.266962 -0.172536
v -0.100895 0.261024 -0.002288
v -0.275600 0.249460 -0.002963
v -0.312257 0.253171 0.126840
v -0.100895 0.261024 -0.002288
v 0.205160 -0.320347 -0.337929
v 0.076396 -0.261383 -0.342475
v 0.279189 -0.222643 -0.388311
v 0.343212 -0.311293 -0.320681
v 0.354897 -0.155724 -0.250229
v 0.342436 -0.294288 -0.118146
v -0.104664 -0.401984 -0.037337
v -0.306921 -0.371622 0.014307
v -0.320208 -0.357681 -0.115985
v -0.275600 0.249460 -0.002963
v -0.058016 0.289330 -0.178497
v -0.077637 0.304316 -0.301554
v 0.251755 -0.359745 -0.192478
v 0.205160 -0.320347 -0.337929
v 0.343212 -0.311293 -0.320681
v -0.317520 0.224761 -0.350483
v -0.038727 0.178648 -0.350261
v -0.263801 0.014495 -0.374153
v -0.163768 0.286033 0.233098
v 0.010500 0.299458 0.087077
v -0.100895 0.261024 -0.002288
v 0.343947 -0.145116 0.111693
v 0.332645 -0.015417 0.256580
v 0.330285 -0.147066 0.290259
v -0.058016 0.289330 -0.178497
v 0.124454 0.296661 -0.287443
v -0.077637 0.304316 -0.301554
v -0.104664 -0.401984 -0.037337
v -0.187640 -0.334533 -0.177894
v -0.087136 -0.402357 -0.145503
v 0.334345 -0.297253 0.305991
v 0.343947 -0.145116 0.111693
v 0.330285 -0.147066 0.290259
v -0.354312 0.223427 -0.091052
v -0.347228 0.108290 -0.080250
v -0.316712 0.127759 0.052866
v -0.358566 0.199806 -0.268261
v -0.163768 0.286033 0.233098
v -0.100895 0.261024 -0.002288
v -0.312257 0.253171 0.126840
v -0.305740 0.265335 -0.117839
v -0.275600 0.249460 -0.002963
v -0.077637 0.304316 -0.301554
v 0.100691 -0.353953 -0.229233
v 0.001114 -0.329614 -0.338937
v 0.076396 -0.261383 -0.342475
v 0.369196 -0.357102 0.140303
v 0.345297 -0.064811 -0.001951
v 0.343947 -0.145116 0.111693
v 0.334345 -0.297253 0.305991
v 0.347479 0.148941 -0.120139
v 0.326136 0.053697 0.096218
v 0.345297 -0.064811 -0.001951
v 0.345297 -0.064811 -0.001951
v 0.326136 0.053697 0.096218
v 0.343947 -0.145116 0.111693
v -0.021664 -0.131601 -0.362340
v 0.076396 -0.261383 -0.342475
v 0.001114 -0.329614 -0.338937
v 0.350659 0.207180 -0.231405
v 0.343015 0.242338 0.043433
v 0.347479 0.148941 -0.120139
v -0.263801 0.014495 -0.374153
v -0.021664 -0.131601 -0.362340
v -0.290120 -0.217563 -0.362962
v -0.290120 -0.217563 -0.362962
v -0.021664 -0.131601 -0.362340
v -0.114946 -0.482731 -0.351008
v 0.314766 -0.492628 0.044885
v 0.317717 -0.330415 -0.035316
v 0.369196 -0.357102 0.140303
v -0.316712 0.127759 0.052866
v -0.340393 -0.110358 0.130290
v -0.357138 0.047857 0.221667
v -0.322048 -0.113788 -0.090669
v 0.100691 -0.353953 -0.229233
v 0.205160 -0.320347 -0.337929
v 0.251755 -0.359745 -0.192478
v 0.143040 0.181786 -0.357861
v 0.313899 0.191986 -0.370864
v 0.162539 0.030260 -0.366797
v 0.313396 0.008229 -0.359626
v -0.322048 -0.113788 -0.090669
v -0.353055 -0.015289 -0.293095
v -0.320208 -0.357681 -0.115985
v -0.369196 -0.269715 0.036506
v -0.322048 -0.113788 -0.090669
v -0.348337 -0.254183 -0.115234
v 0.326136 0.053697 0.096218
v 0.332645 -0.015417 0.256580
v 0.343947 -0.145116 0.111693
v -0.316712 0.127759 0.052866
v -0.347228 0.108290 -0.080250
v -0.322048 -0.113788 -0.090669
v -0.353055 -0.015289 -0.293095
v -0.340393 -0.110358 0.130290
v -0.322048 -0.113788 -0.090669
v -0.369196 -0.269715 0.036506
v 0.350659 0.207180 -0.231405
v 0.313899 0.191986 -0.370864
v 0.334204 0.240419 -0.324024
v 0.205354 0.266962 -0.172536
v 0.124454 0.296661 -0.287443
v -0.058016 0.289330 -0.178497
v 0.104554 -0.108912 0.326733
v 0.294432 0.132254 0.334472
v 0.193475 0.147747 0.307789
v 0.001114 -0.329614 -0.338937
v -0.114946 -0.482731 -0.351008
v -0.021664 -0.131601 -0.362340
v 0.342436 -0.294288 -0.118146
v 0.345297 -0.064811 -0.001951
v 0.317717 -0.330415 -0.035316
v 0.342436 -0.294288 -0.118146
v 0.288395 0.040102 -0.189983
v -0.095970 0.023594 -0.342647
v 0.024589 0.027746 -0.334000
v -0.021664 -0.131601 -0.362340
v -0.326102 -0.303282 0.280749
v -0.241718 -0.387175 0.124888
v -0.194206 -0.567433 0.244151
v 0.317717 -0.330415 -0.035316
v 0.345297 -0.064811 -0.001951
v 0.369196 -0.357102 0.140303
v -0.320208 -0.357681 -0.115985
v -0.187640 -0.334533 -0.177894
v -0.104664 -0.401984 -0.037337
v 0.162539 0.030260 -0.366797
v 0.313396 0.008229 -0.359626
v 0.318389 -0.119481 -0.328852
v -0.263801 0.014495 -0.374153
v -0.095970 0.023594 -0.342647
v -0.021664 -0.131601 -0.362340
v -0.021664 -0.131601 -0.362340
v 0.024589 0.027746 -0.334000
v 0.076396 -0.261383 -0.342475
v 0.143040 0.181786 -0.357861
v 0.024589 0.027746 -0.334000
v -0.038727 0.178648 -0.350261
v 0.162539 0.030260 -0.366797
v 0.143040 0.181786 -0.357861
v -0.038727 0.178648 -0.350261
v 0.001185 0.261376 -0.340450
v 0.121156 0.258971 -0.378027
v 0.046510 -0.404751 0.283416
v 0.151408 -0.251035 0.338502
v 0.104554 -0.108912 0.326733
v 0.100691 -0.353953 -0.229233
v 0.076396 -0.261383 -0.342475
v 0.205160 -0.320347 -0.337929
v -0.038727 0.178648 -0.350261
v 0.024589 0.027746 -0.334000
v -0.095970 0.023594 -0.342647
v 0.076396 -0.261383 -0.342475
v 0.162539 0.030260 -0.366797
v 0.279189 -0.222643 -0.388311
v 0.076396 -0.261383 -0.342475
v 0.024589 0.027746 -0.334000
v 0.162539 0.030260 -0.366797
v -0.038727 0.178648 -0.350261
v -0.141445 0.240682 -0.381974
v 0.001185 0.261376 -0.340450
v -0.143854 -0.325272 0.053197
v -0.104664 -0.401984 -0.037337
v -0.028105 -0.362926 0.042636
v -0.322366 0.237245 0.303796
v -0.354312 0.223427 -0.091052
v -0.316712 0.127759 0.052866
v 0.016296 -0.330204 0.157664
v -0.028105 -0.362926 0.042636
v 0.121593 -0.323208 -0.007355
v -0.263801 0.014495 -0.374153
v -0.038727 0.178648 -0.350261
v -0.095970 0.023594 -0.342647
v 0.144342 -0.507198 0.257985
v 0.046510 -0.404751 0.283416
v 0.041971 -0.439053 0.135522
v 0.347479 0.148941 -0.120139
v 0.345297 -0.064811 -0.001951
v 0.288395 0.040102 -0.189983
v 0.368662 0.170957 0.118337
v 0.326136 0.053697 0.096218
v -0.050126 -0.502305 0.118529
v -0.076438 -0.355756 0.248427
v -0.143854 -0.325272 0.053197
v 0.121593 -0.323208 -0.007355
v 0.003225 -0.318569 -0.161987
v 0.109708 -0.299112 -0.108885
v 0.213734 -0.330204 0.134861
v 0.314766 -0.492628 0.044885
v 0.369196 -0.357102 0.140303
v 0.016296 -0.330204 0.157664
v 0.121593 -0.323208 -0.007355
v 0.213734 -0.330204 0.134861
v 0.326136 0.053697 0.096218
v 0.365551 0.100408 0.267654
v 0.332645 -0.015417 0.256580
v -0.313623 -0.367212 -0.307702
v -0.247618 -0.358026 -0.335052
v -0.124114 -0.338855 -0.255891
v -0.306921 -0.371622 0.014307
v -0.104664 -0.401984 -0.037337
v -0.143854 -0.325272 0.053197
v 0.326136 0.053697 0.096218
v 0.368662 0.170957 0.118337
v 0.365551 0.100408 0.267654
v 0.121156 0.258971 -0.378027
v 0.313899 0.191986 -0.370864
v 0.143040 0.181786 -0.357861
v 0.003225 -0.318569 -0.161987
v -0.124114 -0.338855 -0.255891
v 0.001114 -0.329614 -0.338937
v 0.350659 0.207180 -0.231405
v 0.347479 0.148941 -0.120139
v 0.288395 0.040102 -0.189983
v 0.354897 -0.155724 -0.250229
v 0.288395 0.040102 -0.189983
v 0.342436 -0.294288 -0.118146
v -0.087136 -0.402357 -0.145503
v -0.124114 -0.338855 -0.255891
v 0.003225 -0.318569 -0.161987
v -0.076438 -0.355756 0.248427
v -0.119289 -0.315605 0.317776
v -0.194206 -0.567433 0.244151
v -0.076438 -0.355756 0.248427
v -0.050126 -0.502305 0.118529
v 0.016296 -0.330204 0.157664
v -0.187640 -0.334533 -0.177894
v -0.313623 -0.367212 -0.307702
v -0.124114 -0.338855 -0.255891
v 0.001114 -0.329614 -0.338937
v 0.100691 -0.353953 -0.229233
v 0.003225 -0.318569 -0.161987
v 0.109708 -0.299112 -0.108885
v 0.337596 0.104983 -0.298577
v 0.350659 0.207180 -0.231405
v 0.288395 0.040102 -0.189983
v 0.337596 0.104983 -0.298577
v 0.288395 0.040102 -0.189983
v 0.354897 -0.155724 -0.250229
v 0.109708 -0.299112 -0.108885
v 0.251755 -0.359745 -0.192478
v 0.317717 -0.330415 -0.035316
v 0.007341 -0.704316 -0.022771
v -0.104664 -0.401984 -0.037337
v 0.003225 -0.318569 -0.161987
v 0.213734 -0.330204 0.134861
v 0.203019 -0.383264 0.265571
v 0.041971 -0.439053 0.135522
v 0.144342 -0.507198 0.257985
v 0.314766 -0.492628 0.044885
v 0.121593 -0.323208 -0.007355
v 0.317717 -0.330415 -0.035316
v 0.109708 -0.299112 -0.108885
v 0.109708 -0.299112 -0.108885
v 0.100691 -0.353953 -0.229233
v 0.251755 -0.359745 -0.192478
v -0.104664 -0.401984 -0.037337
v -0.087136 -0.402357 -0.145503
v 0.003225 -0.318569 -0.161987
v 0.203019 -0.383264 0.265571
v 0.213734 -0.330204 0.134861
v 0.291098 -0.395751 0.271431
v 0.213734 -0.330204 0.134861
v 0.369196 -0.357102 0.140303
v 0.291098 -0.395751 0.271431
v -0.241718 -0.387175 0.124888
v -0.306921 -0.371622 0.014307
v -0.143854 -0.325272 0.053197
v -0.076438 -0.355756 0.248427
v -0.241718 -0.387175 0.124888
v -0.143854 -0.325272 0.053197
v -0.028105 -0.362926 0.042636
v -0.104664 -0.401984 -0.037337
v 0.007341 -0.704316 -0.022771
v -0.076438 -0.355756 0.248427
v 0.016296 -0.330204 0.157664
v 0.046510 -0.404751 0.283416
v 0.121593 -0.323208 -0.007355
v 0.007341 -0.704316 -0.022771
v 0.003225 -0.318569 -0.161987
v -0.317520 0.224761 -0.350483
v -0.141445 0.240682 -0.381974
v -0.038727 0.178648 -0.350261
v 0.213734 -0.330204 0.134861
v 0.121593 -0.323208 -0.007355
v 0.314766 -0.492628 0.044885
v -0.028105 -0.362926 0.042636
v 0.007341 -0.704316 -0.022771
v 0.121593 -0.323208 -0.007355
v 0.046510 -0.404751 0.283416
v 0.016296 -0.330204 0.157664
v 0.041971 -0.439053 0.135522
v -0.143854 -0.325272 0.053197
v -0.028105 -0.362926 0.042636
v -0.050126 -0.502305 0.118529
v -0.124114 -0.338855 -0.255891
v -0.247618 -0.358026 -0.335052
v -0.114946 -0.482731 -0.351008
v 0.016296 -0.330204 0.157664
v -0.050126 -0.502305 0.118529
v -0.028105 -0.362926 0.042636
v -0.187640 -0.334533 -0.177894
v -0.294923 -0.557094 -0.212352
v -0.313623 -0.367212 -0.307702
v -0.348337 -0.254183 -0.115234
v -0.322048 -0.113788 -0.090669
v -0.320208 -0.357681 -0.115985
v -0.114946 -0.482731 -0.351008
v 0.001114 -0.329614 -0.338937
v -0.124114 -0.338855 -0.255891
v -0.187640 -0.334533 -0.177894
v -0.320208 -0.357681 -0.115985
v -0.294923 -0.557094 -0.212352
v -0.076438 -0.355756 0.248427
v -0.194206 -0.567433 0.244151
v -0.241718 -0.387175 0.124888
v 0.041971 -0.439053 0.135522
v 0.016296 -0.330204 0.157664
v 0.213734 -0.330204 0.134861
vn -0.6072 -0.2451 0.7558
vn -0.5525 -0.3788 0.7425
vn -0.3537 -0.1631 0.9210
vn 0.2282 0.8942 -0.3851
vn 0.2428 0.6198 -0.7463
vn 0.0641 0.9000 -0.4311
vn -0.7104 0.6963 -0.1021
vn -0.7053 0.7010 -0.1050
vn -0.7121 0.6865 -0.1471
vn 0.8102 -0.4758 0.3423
vn 0.9901 -0.1329 -0.0445
vn 0.9726 -0.1046 0.2076
vn 0.0436 0.1922 0.9804
vn 0.0251 0.5086 0.8606
vn 0.0642 0.3925 0.9175
vn -0.6299 0.7720 0.0853
vn -0.7053 0.7011 -0.1049
vn -0.7104 0.6964 -0.1021
vn -0.6073 -0.2450 0.7558
vn -0.3215 -0.0313 0.9464
vn -0.6284 0.7746 0.0718
vn -0.7053 0.7011 -0.1050
vn -0.6299 0.7720 0.0854
vn -0.0550 0.3340 0.9410
vn 0.0641 0.3925 0.9175
vn 0.6149 -0.1299 0.7778
vn 0.6372 -0.1592 0.7541
vn 0.6906 0.0255 0.7228
vn -0.3977 0.9156 0.0600
vn -0.3858 0.9222 -0.0249
vn -0.6710 0.7409 0.0287
vn -0.2210 0.9394 -0.2622
vn -0.1331 0.8583 -0.4956
vn -0.2043 0.8794 -0.4300
vn -0.0384 0.9688 -0.2447
vn -0.1115 0.1200 0.9865
vn -0.0550 0.3339 0.9410
vn 0.0251 0.5086 0.8607
vn -0.6868 -0.0343 -0.7260
vn -0.4378 -0.0967 -0.8939
vn -0.9902 -0.1104 -0.0854
vn 0.0896 0.9874 -0.1304
vn 0.0642 0.9001 -0.4310
vn 0.0368 0.7955 -0.6048
vn -0.1330 0.8583 -0.4956
vn -0.0383 0.9688 -0.2447
vn -0.1457 0.0224 -0.9891
vn -0.6868 -0.0343 -0.7261
vn -0.0403 0.1014 -0.9940
vn -0.9685 -0.0460 -0.2445
vn -0.9823 -0.0118 -0.1870
vn 0.7693 0.6386 -0.0191
vn 0.8610 0.4901 -0.1362
vn 0.9689 0.2469 0.0152
vn -0.2151 0.1082 0.9706
vn -0.2738 0.0194 0.9616
vn -0.3614 -0.2860 -0.8875
vn -0.4377 -0.0968 -0.8939
vn -0.0101 -0.1046 -0.9945
vn 0.1461 0.0390 0.9885
vn -0.0549 0.3339 0.9410
vn 0.7693 0.6387 -0.0190
vn 0.5767 0.8122 -0.0874
vn -0.9938 0.0536 0.0972
vn -0.9949 -0.0665 0.0757
vn -0.9272 0.0078 0.3746
vn -0.3613 -0.2860 -0.8875
vn -0.3343 -0.2804 -0.8998
vn -0.2737 0.0195 0.9616
vn -0.2150 0.1083 0.9706
vn -0.3858 0.9222 -0.0248
vn -0.3976 0.9156 0.0600
vn -0.2522 0.9647 0.0757
vn -0.4377 -0.0967 -0.8939
vn -0.7835 -0.6144 -0.0932
vn -0.7247 -0.6719 0.1528
vn -0.8236 -0.5656 -0.0425
vn -0.7551 -0.5420 0.3688
vn -0.7248 -0.6718 0.1529
vn 0.2575 -0.3378 0.9053
vn 0.1804 -0.0889 0.9796
vn 0.4743 -0.2755 0.8362
vn 0.0641 0.9001 -0.4310
vn 0.0368 0.7956 -0.6047
vn 0.0895 0.9874 -0.1304
vn 0.7693 0.6386 -0.0190
vn 0.8238 0.5642 0.0561
vn -0.5478 0.7972 0.2539
vn -0.6298 0.7720 0.0855
vn 0.1462 0.0390 0.9885
vn 0.0798 0.1132 0.9904
vn 0.7127 0.1268 -0.6899
vn 0.7742 0.1083 -0.6236
vn 0.9750 -0.0626 -0.2133
vn 0.9995 0.0185 -0.0239
vn 0.9201 0.3854 -0.0697
vn 0.9665 0.2304 0.1128
vn -0.1320 0.9907 0.0337
vn 0.0339 0.9958 0.0845
vn 0.0837 -0.2110 0.9739
vn 0.1803 -0.0889 0.9796
vn 0.2573 -0.3378 0.9053
vn 0.9917 -0.1172 -0.0522
vn 0.1392 -0.5351 -0.8332
vn -0.0178 -0.4474 -0.8941
vn -0.0979 -0.2666 -0.9588
vn -0.9213 -0.3849 -0.0552
vn -0.9967 -0.0685 -0.0445
vn -0.9912 -0.0919 -0.0952
vn 0.9201 0.3855 -0.0698
vn 0.8609 0.4901 -0.1362
vn 0.5768 0.8122 -0.0874
vn -0.0384 0.9689 -0.2446
vn -0.2210 0.9394 -0.2621
vn -0.1068 0.9913 0.0776
vn 0.9302 -0.0147 -0.3667
vn 0.9940 0.1074 -0.0229
vn -0.3536 -0.1631 0.9211
vn -0.0062 -0.2793 0.9602
vn 0.0309 -0.2383 0.9707
vn -0.0062 -0.1456 0.9893
vn -0.3214 -0.0313 0.9464
vn -0.2737 0.0194 0.9616
vn -0.0062 -0.1455 0.9893
vn 0.6149 -0.1300 0.7778
vn 0.3843 -0.1602 0.9092
vn -0.1086 -0.2685 0.9571
vn -0.0641 -0.2976 0.9525
vn -0.3528 -0.0929 0.9311
vn 0.9302 -0.0147 -0.3666
vn 0.9471 -0.0020 -0.3209
vn 0.9940 0.1074 -0.0230
vn -0.1321 0.9907 0.0337
vn -0.3858 0.9223 -0.0249
vn 0.9750 -0.0626 -0.2134
vn 0.9682 -0.2325 0.0922
vn 0.9522 -0.2502 0.1753
vn -0.0628 0.9978 -0.0210
vn 0.0945 0.9941 0.0542
vn 0.1111 0.9891 0.0962
vn 0.9626 -0.0391 -0.2681
vn 0.9471 -0.0020 -0.3208
vn 0.9303 -0.0147 -0.3666
vn 0.9201 0.3854 -0.0698
vn 0.9673 -0.0401 -0.2504
vn -0.9626 -0.2619 0.0699
vn -0.9213 -0.3849 -0.0551
vn -0.1116 0.1200 0.9865
vn -0.2150 0.1082 0.9706
vn 0.7742 0.1084 -0.6236
vn 0.9940 0.1073 -0.0230
vn 0.9750 -0.0625 -0.2133
vn 0.9825 -0.1562 -0.1010
vn -0.9686 -0.0460 -0.2445
vn -0.9952 -0.0977 -0.0044
vn -0.9980 -0.0216 -0.0600
vn -0.9921 -0.0723 0.1020
vn 0.1462 0.0389 0.9885
vn -0.0061 -0.1455 0.9893
vn 0.2409 -0.1915 0.9515
vn 0.0310 -0.2382 0.9707
vn -0.3536 -0.1631 0.9210
vn 0.1237 -0.2060 0.9707
vn 0.4821 0.2930 -0.8257
vn 0.7126 0.1269 -0.6900
vn 0.1100 0.9935 -0.0298
vn 0.1384 0.9895 -0.0425
vn 0.0339 0.9959 0.0845
vn -0.9906 0.0302 0.1333
vn -0.9991 0.0370 -0.0190
vn -0.9967 -0.0685 -0.0444
vn -0.1214 0.9926 -0.0024
vn -0.2207 0.9712 -0.0902
vn -0.0921 0.1152 0.9891
vn 0.0798 0.1131 0.9904
vn 0.2408 -0.1914 0.9515
vn 0.0944 0.9941 0.0542
vn -0.0540 0.9979 -0.0356
vn 0.1922 0.1748 0.9657
vn 0.0837 -0.2109 0.9739
vn 0.0700 0.9959 -0.0581
vn 0.4459 -0.8949 -0.0201
vn -0.9935 -0.1105 -0.0288
vn -0.9949 -0.0664 0.0756
vn 0.2477 0.0536 0.9673
vn -0.9938 0.0536 0.0971
vn -0.4858 -0.8383 -0.2477
vn -0.4550 -0.8292 -0.3246
vn -0.5175 -0.8414 -0.1557
vn -0.4186 -0.8739 0.2473
vn 0.2478 0.0536 0.9673
vn -0.9988 0.0312 -0.0366
vn -0.9986 -0.0450 0.0278
vn 0.2574 -0.3378 0.9054
vn -0.1042 -0.2882 0.9519
vn 0.0836 -0.2110 0.9739
vn -0.1585 0.9874 0.0005
vn -0.0365 0.9950 0.0933
vn 0.2478 0.0537 0.9673
vn -0.0364 0.9950 0.0932
vn -0.0364 0.9950 0.0933
vn -0.1213 0.9926 -0.0024
vn -0.0179 -0.4474 -0.8942
vn -0.1907 -0.1563 -0.9691
vn -0.0979 -0.2665 -0.9588
vn 0.9750 -0.0626 -0.2132
vn 0.9940 0.1073 -0.0229
vn 0.9682 -0.2324 0.0923
vn -0.1008 -0.9595 -0.2630
vn -0.1702 -0.9815 -0.0874
vn -0.1125 -0.9653 -0.2357
vn 0.0602 -0.9585 -0.2786
vn 0.0671 -0.9575 -0.2806
vn 0.0986 -0.9521 -0.2895
vn 0.0271 -0.0244 -0.9993
vn -0.1321 0.9907 0.0336
vn -0.1585 0.9874 0.0004
vn 0.9914 0.0945 0.0903
vn 0.9984 -0.0460 -0.0317
vn 0.9934 0.0526 0.1020
vn 0.0896 0.9874 -0.1303
vn -0.5382 -0.8386 -0.0844
vn -0.4858 -0.8383 -0.2476
vn -0.5176 -0.8414 -0.1556
vn 0.9914 0.0946 0.0903
vn -0.9884 -0.1045 0.1099
vn -0.9986 -0.0450 0.0279
vn -0.1067 0.9912 0.0777
vn 0.5193 -0.6036 -0.6050
vn 0.9901 -0.1329 -0.0444
vn 0.9962 0.0722 0.0494
vn 0.9726 -0.1045 0.2076
vn 0.9927 -0.1192 -0.0161
vn 0.9962 0.0722 0.0493
vn 0.1569 0.0370 -0.9869
vn 0.0934 -0.0811 -0.9923
vn 0.1832 -0.0948 -0.9785
vn 0.9689 0.2468 0.0151
vn 0.1570 0.0370 -0.9869
vn -0.0100 -0.1045 -0.9945
vn 0.9393 -0.1661 -0.3003
vn 0.9501 -0.1026 -0.2945
vn -0.9991 0.0370 -0.0191
vn -0.9990 0.0361 0.0249
vn 0.0288 -0.9625 -0.2699
vn 0.0670 -0.9575 -0.2806
vn -0.0862 -0.1006 -0.9912
vn -0.0296 -0.0811 -0.9963
vn -0.1067 -0.0509 -0.9930
vn -0.0013 -0.1387 -0.9903
vn -0.9990 0.0360 0.0249
vn -0.9967 -0.0684 -0.0445
vn -0.9912 -0.0918 -0.0952
vn 0.9984 -0.0459 -0.0317
vn -0.9921 -0.0723 0.1021
vn -0.9686 -0.0459 -0.2445
vn 0.9626 -0.0392 -0.2681
vn 0.9565 -0.1759 -0.2327
vn 0.1100 0.9935 -0.0297
vn -0.2309 0.1509 0.9612
vn -0.0922 0.1152 0.9891
vn 0.0797 0.1132 0.9904
vn -0.0100 -0.1046 -0.9945
vn 0.9731 0.0135 -0.2299
vn 0.9522 -0.2501 0.1754
vn 0.9966 -0.0674 0.0464
vn 0.9731 0.0136 -0.2299
vn 0.1364 0.0409 -0.9898
vn -0.0452 0.0019 -0.9990
vn -0.7835 -0.6143 -0.0933
vn -0.8782 -0.4025 -0.2584
vn -0.0353 -0.9090 -0.4154
vn 0.0123 -0.2336 -0.9723
vn 0.1364 0.0410 -0.9898
vn 0.1570 0.0371 -0.9869
vn 0.0935 -0.0811 -0.9923
vn -0.0452 0.0018 -0.9990
vn 0.0270 -0.0245 -0.9993
vn -0.1068 -0.0509 -0.9930
vn -0.0862 -0.1007 -0.9912
vn 0.0085 -0.0391 -0.9992
vn -0.1165 -0.1250 -0.9853
vn -0.1087 -0.2685 0.9571
vn -0.3528 -0.0928 0.9311
vn -0.3990 -0.0557 0.9153
vn -0.3301 -0.7643 -0.5539
vn 0.0271 -0.0245 -0.9993
vn -0.0979 -0.2665 -0.9589
vn 0.2828 -0.0225 -0.9589
vn 0.0086 -0.0391 -0.9992
vn -0.0492 -0.7724 0.6332
vn -0.0746 -0.7766 0.6256
vn -0.2036 -0.7887 0.5801
vn -0.9988 0.0311 -0.0366
vn -0.9884 -0.1046 0.1098
vn -0.9986 -0.0451 0.0279
vn 0.1560 -0.9861 0.0571
vn 0.3005 -0.9416 0.1519
vn 0.1111 -0.9934 0.0288
vn -0.1457 0.0223 -0.9891
vn 0.1365 0.0409 -0.9898
vn -0.6878 -0.7021 0.1841
vn -0.8392 -0.5236 0.1470
vn -0.8518 -0.5040 0.1431
vn 0.9825 -0.1563 -0.1011
vn 0.9731 0.0135 -0.2300
vn 0.9966 -0.0675 0.0464
vn 0.9825 -0.1563 -0.1010
vn 0.9995 0.0184 -0.0239
vn -0.8910 -0.3801 0.2483
vn 0.2946 -0.9215 -0.2532
vn -0.1223 -0.5378 0.8342
vn 0.1559 -0.9861 0.0571
vn 0.1110 -0.9934 0.0288
vn -0.0053 -0.9989 -0.0457
vn 0.9927 -0.1193 -0.0161
vn 0.9917 -0.1173 -0.0522
vn 0.9984 -0.0460 -0.0318
vn 0.1286 -0.9891 0.0718
vn 0.1439 -0.9895 0.0151
vn 0.1159 -0.9864 0.1167
vn 0.0554 -0.7498 0.6594
vn -0.0745 -0.7766 0.6256
vn -0.0491 -0.7724 0.6332
vn 0.9917 -0.1173 -0.0523
vn -0.1164 -0.1250 -0.9853
vn -0.0296 -0.0812 -0.9963
vn -0.0989 -0.9802 0.1713
vn 0.1129 -0.9917 0.0611
vn -0.0198 -0.9913 0.1304
vn 0.5113 -0.6597 -0.5508
vn 0.6688 -0.3849 0.6361
vn 0.6941 -0.4034 0.5962
vn 0.1082 -0.9838 0.1427
vn -0.0199 -0.9913 0.1304
vn -0.1741 -0.9391 0.2962
vn -0.0989 -0.9802 0.1714
vn -0.1898 -0.9338 0.3033
vn 0.9314 -0.1583 0.3276
vn 0.9689 0.2469 0.0151
vn 0.9314 -0.1583 0.3277
vn -0.1994 -0.9225 0.3304
vn -0.2365 -0.9323 0.2738
vn -0.6319 -0.2697 -0.7266
vn 0.6186 -0.5976 -0.5101
vn 0.6187 -0.5976 -0.5101
vn 0.6187 -0.5975 -0.5101
vn -0.1263 -0.6953 -0.7075
vn -0.1262 -0.6954 -0.7074
vn -0.1897 -0.9338 0.3033
vn -0.1740 -0.9391 0.2963
vn 0.6866 -0.7181 0.1137
vn -0.1047 -0.9186 -0.3811
vn -0.1321 -0.9209 -0.3667
vn -0.1263 -0.9201 -0.3707
vn -0.1468 -0.9218 -0.3589
vn -0.1263 -0.9201 -0.3706
vn 0.3472 -0.8904 -0.2943
vn 0.3287 -0.8890 -0.3189
vn 0.3531 -0.8903 -0.2875
vn 0.3687 -0.8907 -0.2661
vn 0.3473 -0.8904 -0.2943
vn -0.6541 -0.2070 0.7275
vn -0.2126 -0.8621 -0.4600
vn 0.7739 -0.2080 -0.5981
vn -0.0940 -0.5721 -0.8148
vn -0.6633 -0.6334 0.3986
vn 0.3472 -0.1416 0.9271
vn -0.8392 -0.5235 0.1470
vn -0.9656 -0.2454 0.0865
vn -0.8518 -0.5039 0.1430
vn -0.2222 -0.4389 -0.8706
vn -0.4007 -0.5226 0.7526
vn 0.9172 -0.2921 -0.2709
vn 0.7254 -0.2500 -0.6413
vn 0.3412 0.0993 -0.9348
vn 0.5166 -0.4490 0.7290
vn 0.4460 -0.3430 0.8267
vn 0.6053 -0.3221 -0.7279
vn -0.1126 0.1726 -0.9785
vt 0.384394 0.513526
vt 0.319922 0.526221
vt 0.355013 0.505078
vt 0.617351 0.987359
vt 0.578126 0.992882
vt 0.601673 0.915567
vt 0.579367 0.713538
vt 0.627945 0.720749
vt 0.603663 0.756138
vt 0.375000 0.218229
vt 0.392955 0.181417
vt 0.396326 0.250807
vt 0.610095 0.260330
vt 0.624224 0.370617
vt 0.584210 0.350342
vt 0.594971 0.644129
vt 0.391073 0.476111
vt 0.452754 0.505868
vt 0.639062 0.661616
vt 0.581216 0.416158
vt 0.542828 0.278729
vt 0.521779 0.225748
vt 0.617375 0.234710
vt 0.600879 0.512251
vt 0.628472 0.572640
vt 0.680078 0.750000
vt 0.623689 0.747652
vt 0.714285 0.729759
vt 0.615827 0.473696
vt 0.458216 0.757443
vt 0.415659 0.774401
vt 0.361022 0.723417
vt 0.784807 0.724442
vt 0.869862 0.733657
vt 0.811367 0.749074
vt 0.763295 0.747063
vt 0.597841 0.823723
vt 0.626413 0.841545
vt 0.611361 0.871124
vt 0.507976 0.783772
vt 0.493875 0.723284
vt 0.622403 0.061889
vt 0.608230 0.141319
vt 0.584781 0.047272
vt 0.502277 0.445233
vt 0.372163 0.792746
vt 0.378913 0.824996
vt 0.508415 0.372945
vt 0.625000 0.119723
vt 0.504570 0.550364
vt 0.654598 0.504274
vt 0.405718 0.605044
vt 0.345506 0.570959
vt 0.363579 0.612208
vt 0.180078 0.514803
vt 0.203385 0.500000
vt 0.203385 0.535041
vt 0.611984 0.009374
vt 0.640409 0.618884
vt 0.551891 0.306796
vt 0.416769 0.966527
vt 0.438953 0.996927
vt 0.390561 0.994478
vt 0.550936 0.178263
vt 0.613393 0.172841
vt 0.691577 0.538454
vt 0.759372 0.510305
vt 0.406169 0.318403
vt 0.384911 0.305078
vt 0.375837 0.944922
vt 0.409677 0.658563
vt 0.865266 0.576546
vt 0.875000 0.601693
vt 0.847360 0.623031
vt 0.449800 0.007393
vt 0.484548 0.000000
vt 0.441854 0.037679
vt 0.285190 0.501374
vt 0.454076 0.404891
vt 0.476693 0.232217
vt 0.234683 0.519598
vt 0.535882 0.019653
vt 0.139838 0.737236
vt 0.125000 0.654289
vt 0.134699 0.628414
vt 0.750132 0.579359
vt 0.847811 0.525800
vt 0.536041 1.000000
vt 0.488003 0.987246
vt 0.583164 0.000393
vt 0.366898 0.653660
vt 0.380973 0.018516
vt 0.540919 0.091583
vt 0.527409 0.651233
vt 0.459955 0.337078
vt 0.382249 0.419410
vt 0.375930 0.359709
vt 0.502275 0.940826
vt 0.816311 0.672021
vt 0.863121 0.688111
vt 0.461059 0.576117
vt 0.761972 0.629525
vt 0.441110 0.247590
vt 0.158987 0.685262
vt 0.369380 0.694922
vt 0.324674 0.684107
vt 0.296545 0.714952
vt 0.286863 0.671615
vt 0.280208 0.531072
vt 0.541612 0.593177
vt 0.375000 0.281771
vt 0.706365 0.617904
vt 0.727037 0.675887
vt 0.396046 0.903550
vt 0.391182 0.094515
vt 0.290814 0.629527
vt 0.180078 0.743801
vt 0.557051 0.857119
vt 0.362626 0.182546
vt 0.212136 0.715083
vt 0.248861 0.742142
vt 0.220850 0.747404
vt 0.467113 0.134752
vt 0.508506 0.165016
vt 0.450855 0.862586
vt 0.375229 0.870101
vt 0.436452 0.166458
vt 0.377365 0.125000
vt 0.459166 0.650093
vt 0.554834 0.922238
vt 0.495959 0.054022
vt 0.501109 0.829450
vt 0.517747 0.880499
vt 0.311143 0.598563
vt 0.262683 0.601693
vt 0.245046 0.562478
vt 0.202827 0.620266
vt 0.218717 0.555078
vt 0.273307 0.571755
vt 0.254506 0.677828
vt 0.202467 0.664769
vt 0.171874 0.570059
vt 0.131417 0.588743
vt 0.128785 0.555078
vt 0.333481 0.742189
vt 0.250000 0.625000
vt 0.141394 0.528629
vt 0.296615 0.745158
s 1
f 1/1/1 2/2/2 3/3/3
f 4/4/4 5/5/5 6/6/6
f 7/7/7 8/8/8 9/9/9
f 10/10/10 11/11/11 12/12/12
f 13/13/13 14/14/14 15/15/15
f 16/16/16 17/8/17 18/7/18
f 19/1/19 20/17/3 21/18/20
f 22/19/21 23/8/22 24/16/23
f 25/14/14 26/20/24 27/15/25
f 28/21/26 29/22/27 30/23/28
f 31/24/29 32/25/30 33/16/31
f 34/8/32 35/26/33 36/27/34
f 35/26/33 34/8/32 37/28/35
f 38/29/36 39/20/37 40/14/38
f 41/30/39 42/31/40 43/32/41
f 44/33/42 45/34/4 46/35/43
f 47/33/42 48/36/44 49/28/35
f 50/37/45 51/38/46 52/39/44
f 53/40/47 54/30/48 55/9/49
f 54/30/39 56/41/50 57/9/51
f 58/42/52 59/43/53 60/44/54
f 61/24/55 62/18/20 63/45/56
f 64/46/57 65/31/58 66/47/59
f 67/48/60 68/15/25 69/20/61
f 70/42/62 71/49/63 72/43/53
f 73/50/64 74/18/65 75/24/66
f 76/31/58 77/46/67 78/32/68
f 79/48/60 80/20/37 81/45/69
f 82/45/69 83/20/37 84/24/70
f 85/25/71 86/24/72 87/51/73
f 88/30/48 89/40/47 90/31/74
f 91/1/75 92/52/76 93/53/77
f 94/54/78 93/53/77 95/52/79
f 96/55/80 97/56/81 98/57/82
f 99/35/83 100/36/84 101/33/85
f 102/42/86 103/44/54 104/58/87
f 105/59/88 106/19/21 107/16/89
f 108/48/90 109/60/91 110/15/15
f 111/61/92 112/62/93 113/63/94
f 114/64/95 115/65/96 116/23/97
f 117/66/98 118/51/73 119/67/99
f 120/12/100 121/68/101 122/69/102
f 123/23/97 124/22/103 125/64/95
f 126/63/104 127/70/105 128/61/106
f 129/54/107 130/52/108 131/71/109
f 132/72/110 133/73/111 134/74/112
f 135/28/113 136/8/114 137/19/115
f 138/75/93 139/76/116 140/77/117
f 141/3/118 142/2/119 143/78/120
f 144/79/121 145/45/56 146/18/122
f 147/48/60 148/45/123 149/79/124
f 150/21/125 151/80/126 152/22/27
f 153/81/127 154/57/128 155/56/129
f 156/76/130 157/82/131 158/77/132
f 159/66/133 160/25/134 161/51/73
f 162/83/135 163/84/136 164/85/137
f 165/86/138 166/67/99 167/72/139
f 167/72/139 166/67/99 168/87/140
f 169/5/141 170/88/142 171/89/143
f 172/43/53 173/65/144 174/64/95
f 175/90/141 176/44/145 177/82/142
f 178/91/146 179/54/147 180/71/109
f 181/20/37 182/29/148 183/24/149
f 184/75/150 185/77/151 186/92/152
f 187/93/153 188/43/53 189/64/95
f 190/32/41 191/41/154 192/30/39
f 191/41/154 190/32/41 193/91/155
f 194/41/154 195/7/156 196/9/51
f 195/7/156 194/41/154 197/94/157
f 198/48/158 199/79/159 200/95/160
f 201/96/161 199/79/159 202/17/162
f 199/79/159 201/96/161 203/97/163
f 204/98/164 205/62/93 206/61/165
f 207/79/124 208/18/122 209/17/118
f 210/99/166 211/34/4 212/33/42
f 211/34/4 210/99/166 213/100/167
f 214/67/168 215/86/138 216/66/98
f 217/1/169 218/101/170 219/52/171
f 220/25/134 221/59/172 222/16/173
f 223/21/174 224/23/13 225/60/175
f 224/23/13 226/15/15 225/60/175
f 227/95/176 228/79/159 229/97/163
f 230/72/177 231/102/178 232/86/138
f 233/103/179 234/68/101 235/12/180
f 236/72/177 237/74/181 238/102/178
f 239/104/182 240/83/182 241/85/182
f 242/105/183 243/91/155 244/32/41
f 245/60/91 246/48/90 247/95/160
f 248/18/184 249/101/170 250/1/169
f 251/68/101 252/103/179 253/95/185
f 254/18/65 255/50/186 256/101/170
f 257/99/166 258/74/181 259/100/167
f 260/106/187 261/107/188 262/108/189
f 263/109/190 264/81/190 265/78/190
f 266/21/125 267/95/191 268/80/126
f 269/50/186 270/24/192 271/110/193
f 272/69/194 273/111/195 274/12/196
f 275/112/197 276/102/178 277/113/198
f 278/95/199 279/103/179 280/80/126
f 281/86/138 282/102/178 283/112/197
f 284/102/178 285/99/166 286/113/200
f 287/74/181 288/99/166 284/102/178
f 289/112/197 286/113/201 290/59/202
f 291/25/134 292/112/197 290/59/202
f 293/70/203 294/114/204 295/61/205
f 296/92/206 297/77/207 298/115/208
f 299/116/209 300/54/210 301/91/211
f 302/59/202 303/113/201 304/28/113
f 305/104/212 306/117/213 307/83/214
f 308/9/49 309/118/215 310/40/47
f 311/66/216 312/86/138 313/112/217
f 314/119/218 315/80/219 316/103/220
f 317/113/201 318/33/221 319/28/113
f 320/116/222 321/106/223 322/108/224
f 323/12/12 324/119/225 325/103/220
f 326/16/226 327/94/157 328/110/227
f 327/94/157 326/16/226 329/7/156
f 330/66/216 331/112/197 332/25/134
f 333/19/228 334/59/202 335/28/113
f 336/120/229 337/121/229 338/122/229
f 339/11/230 340/123/231 341/119/225
f 341/119/225 342/12/232 339/11/230
f 343/93/153 344/124/233 345/123/234
f 346/123/234 347/124/233 348/119/225
f 349/125/235 350/114/236 351/126/237
f 352/44/238 353/43/53 354/93/153
f 355/40/47 356/125/239 357/31/58
f 358/31/58 359/125/235 360/47/240
f 361/127/241 362/128/242 363/11/11
f 364/110/193 365/101/243 366/50/186
f 365/101/243 364/110/193 367/129/244
f 368/120/245 369/117/246 370/104/212
f 371/130/247 372/5/248 373/98/249
f 372/5/248 374/89/250 373/98/249
f 375/129/251 376/41/154 377/91/155
f 378/52/252 379/129/244 380/71/253
f 381/124/233 382/80/254 383/119/225
f 384/110/227 385/94/255 386/129/251
f 386/129/251 385/94/255 387/41/256
f 388/101/170 389/129/244 390/52/252
f 391/44/145 392/90/257 393/58/258
f 394/99/259 395/33/42 396/113/201
f 397/95/260 398/21/261 399/60/262
f 400/126/237 401/47/263 402/125/239
f 403/115/208 404/123/264 405/128/265
f 406/115/136 407/131/266 404/123/267
f 408/132/268 409/133/269 410/125/235
f 411/1/270 412/53/77 413/2/271
f 414/128/242 415/123/234 416/11/11
f 417/91/211 418/106/272 419/116/209
f 420/98/249 421/89/250 422/62/273
f 423/40/47 424/132/274 425/125/275
f 426/125/239 427/133/269 428/114/276
f 429/130/247 430/133/277 431/118/278
f 430/133/277 429/130/247 432/98/279
f 433/130/280 434/118/278 435/39/281
f 433/130/280 435/39/281 436/6/282
f 437/97/283 438/68/284 439/95/285
f 440/120/286 441/122/286 442/117/286
f 443/118/287 444/133/269 445/132/268
f 446/114/204 447/98/279 448/61/288
f 449/114/204 450/133/269 451/98/279
f 452/118/287 453/37/289 454/39/290
f 455/134/291 456/116/292 457/135/293
f 458/24/294 459/16/295 460/110/296
f 461/136/297 462/135/298 463/137/299
f 464/40/300 465/118/287 466/132/301
f 467/57/302 468/81/303 469/138/304
f 470/93/305 471/123/306 472/131/307
f 470/93/308 473/64/309 474/124/233
f 475/139/310 476/109/310 477/134/310
f 478/137/311 479/140/311 480/141/311
f 481/142/312 482/143/312 483/144/312
f 484/136/313 485/137/314 486/142/315
f 487/124/316 488/22/317 489/80/318
f 490/32/319 491/145/320 492/107/321
f 493/54/322 494/116/323 495/134/324
f 496/124/233 497/64/309 498/22/325
f 499/6/326 500/5/327 501/130/280
f 502/140/328 503/107/329 504/121/330
f 505/44/54 506/93/308 507/131/307
f 508/77/117 509/131/266 510/115/208
f 511/108/331 512/107/331 513/140/331
f 514/109/332 515/78/332 516/2/332
f 517/109/333 518/139/333 519/136/333
f 520/106/334 521/32/319 522/107/321
f 523/121/335 524/120/336 525/140/337
f 524/120/336 526/141/338 525/140/337
f 527/82/339 528/44/340 529/131/307
f 530/82/341 531/131/266 532/77/207
f 533/141/338 534/104/342 535/85/343
f 536/146/344 537/116/344 538/140/344
f 539/142/345 540/55/346 541/138/346
f 541/138/346 540/55/346 542/57/347
f 543/143/348 544/137/349 545/85/348
f 546/141/348 545/85/348 544/137/349
f 547/141/350 548/120/351 549/104/342
f 550/116/352 551/108/352 552/140/352
f 553/55/353 554/142/354 555/147/355
f 556/142/354 557/144/356 558/147/357
f 559/53/358 560/54/359 561/134/360
f 562/109/361 563/53/362 564/134/360
f 565/135/363 566/116/363 567/146/363
f 568/109/364 569/136/364 570/81/364
f 571/137/365 572/146/365 573/140/365
f 574/9/366 575/37/366 576/118/366
f 577/142/367 578/137/367 579/143/367
f 580/135/368 581/146/368 582/137/368
f 583/81/369 584/136/370 585/138/371
f 586/134/372 587/135/372 588/139/372
f 589/107/373 590/145/373 591/148/373
f 592/136/374 593/139/374 594/135/374
f 595/106/375 596/105/375 597/32/375
f 598/71/376 599/129/376 600/91/376
f 601/148/377 602/121/377 603/107/377
f 604/106/378 605/91/378 606/105/378
f 607/109/379 608/2/379 609/53/379
f 610/138/380 611/136/380 612/142/380
