# Blender 5.2.0 LTS
# www.blender.org
mtllib chud handgun.mtl
o RenderMesh_109743624139976_5607a5de29ffce61
v 0.270692 0.064690 -0.064348
v 0.256164 0.070707 -0.064348
v 0.285220 0.070707 -0.064348
v 0.285220 0.099764 -0.064348
v 0.291238 0.085236 -0.064348
v 0.256164 0.099764 -0.064348
v 0.270692 0.105782 -0.064348
v 0.250146 0.085236 -0.064348
v 0.285220 0.070707 0.064348
v 0.256164 0.070707 0.064348
v 0.270692 0.064690 0.064348
v 0.285220 0.099764 0.064348
v 0.291238 0.085236 0.064348
v 0.256164 0.099764 0.064348
v 0.270692 0.105782 0.064348
v 0.250146 0.085236 0.064348
v -0.202780 0.099764 -0.064348
v -0.202780 0.070707 -0.064348
v -0.231836 0.070707 -0.064348
v -0.217308 0.064690 -0.064348
v -0.196762 0.085236 -0.064348
v -0.231836 0.099764 -0.064348
v -0.217308 0.105782 -0.064348
v -0.237854 0.085236 -0.064348
v -0.202780 0.070707 0.064348
v -0.231836 0.070707 0.064348
v -0.217308 0.064690 0.064348
v -0.202780 0.099764 0.064348
v -0.196762 0.085236 0.064348
v -0.231836 0.099764 0.064348
v -0.217308 0.105782 0.064348
v -0.237854 0.085236 0.064348
v 0.270692 0.105782 0.064348
v 0.270692 0.105782 -0.064348
v 0.256164 0.099764 -0.064348
v 0.285220 0.099764 0.064348
v 0.256164 0.099764 0.064348
v 0.285220 0.099764 -0.064348
v 0.250146 0.085236 -0.064348
v 0.291238 0.085236 0.064348
v 0.250146 0.085236 0.064348
v 0.291238 0.085236 -0.064348
v 0.256164 0.070707 -0.064348
v 0.285220 0.070707 0.064348
v 0.256164 0.070707 0.064348
v 0.285220 0.070707 -0.064348
v 0.270692 0.064690 -0.064348
v 0.270692 0.064690 0.064348
v -0.217308 0.105782 0.064348
v -0.217308 0.105782 -0.064348
v -0.231836 0.099764 -0.064348
v -0.202780 0.099764 0.064348
v -0.231836 0.099764 0.064348
v -0.202780 0.099764 -0.064348
v -0.237854 0.085236 -0.064348
v -0.196762 0.085236 0.064348
v -0.237854 0.085236 0.064348
v -0.196762 0.085236 -0.064348
v -0.231836 0.070707 -0.064348
v -0.202780 0.070707 0.064348
v -0.231836 0.070707 0.064348
v -0.202780 0.070707 -0.064348
v -0.217308 0.064690 -0.064348
v -0.217308 0.064690 0.064348
vn 0.0005 0.0005 -1.0000
vn 0.0005 0.0005 1.0000
vn 0.0005 1.0000 0.0005
vn -0.7071 0.7071 -0.0000
vn 0.7071 0.7071 -0.0000
vn -1.0000 0.0005 0.0005
vn 1.0000 0.0005 0.0005
vn -0.7071 -0.7071 -0.0000
vn 0.7071 -0.7071 -0.0000
vn 0.0005 -1.0000 0.0005
vt 0.000000 0.000000
s 1
f 1/1/1 2/1/1 3/1/1
f 4/1/1 3/1/1 2/1/1
f 3/1/1 4/1/1 5/1/1
f 6/1/1 4/1/1 2/1/1
f 4/1/1 6/1/1 7/1/1
f 6/1/1 2/1/1 8/1/1
f 9/1/2 10/1/2 11/1/2
f 10/1/2 9/1/2 12/1/2
f 12/1/2 9/1/2 13/1/2
f 10/1/2 12/1/2 14/1/2
f 14/1/2 12/1/2 15/1/2
f 10/1/2 14/1/2 16/1/2
f 17/1/1 18/1/1 19/1/1
f 18/1/1 20/1/1 19/1/1
f 18/1/1 17/1/1 21/1/1
f 22/1/1 17/1/1 19/1/1
f 17/1/1 22/1/1 23/1/1
f 22/1/1 19/1/1 24/1/1
f 25/1/2 26/1/2 27/1/2
f 26/1/2 25/1/2 28/1/2
f 28/1/2 25/1/2 29/1/2
f 26/1/2 28/1/2 30/1/2
f 30/1/2 28/1/2 31/1/2
f 26/1/2 30/1/2 32/1/2
f 33/1/3 34/1/3 35/1/4
f 34/1/3 33/1/3 36/1/5
f 35/1/4 37/1/4 33/1/3
f 36/1/5 38/1/5 34/1/3
f 37/1/4 35/1/4 39/1/6
f 38/1/5 36/1/5 40/1/7
f 39/1/6 41/1/6 37/1/4
f 40/1/7 42/1/7 38/1/5
f 41/1/6 39/1/6 43/1/8
f 42/1/7 40/1/7 44/1/9
f 43/1/8 45/1/8 41/1/6
f 44/1/9 46/1/9 42/1/7
f 45/1/8 43/1/8 47/1/10
f 46/1/9 44/1/9 48/1/10
f 47/1/10 48/1/10 45/1/8
f 48/1/10 47/1/10 46/1/9
f 49/1/3 50/1/3 51/1/4
f 50/1/3 49/1/3 52/1/5
f 51/1/4 53/1/4 49/1/3
f 52/1/5 54/1/5 50/1/3
f 53/1/4 51/1/4 55/1/6
f 54/1/5 52/1/5 56/1/7
f 55/1/6 57/1/6 53/1/4
f 56/1/7 58/1/7 54/1/5
f 57/1/6 55/1/6 59/1/8
f 58/1/7 56/1/7 60/1/9
f 59/1/8 61/1/8 57/1/6
f 60/1/9 62/1/9 58/1/7
f 61/1/8 59/1/8 63/1/10
f 62/1/9 60/1/9 64/1/10
f 63/1/10 64/1/10 61/1/8
f 64/1/10 63/1/10 62/1/9
o RenderMesh_85251698339738_63d7739ccd8bf9b5
v 0.457579 0.105666 -0.059270
v 0.425138 0.053271 0.059270
v 0.425138 0.053271 -0.059270
v 0.457579 0.105666 0.059270
v 0.457579 0.140186 -0.042336
v 0.457579 0.140186 0.042336
v 0.457579 0.208199 0.042336
v 0.457579 0.208199 -0.042336
v -0.457579 -0.124424 -0.047375
v -0.412024 -0.205094 -0.047375
v -0.457579 -0.124424 0.047375
v -0.412024 -0.205094 0.047375
v -0.444255 0.105666 0.059270
v -0.444255 0.105666 -0.059270
v -0.411813 0.053271 -0.059270
v -0.411813 0.053271 0.059270
v -0.444255 0.140186 -0.042336
v -0.444255 0.140186 0.042336
v -0.444255 0.184199 -0.000000
v -0.444255 0.184199 0.042336
v -0.444255 0.184199 -0.042336
v -0.383675 0.034105 -0.047375
v -0.383675 0.034105 0.047375
v -0.401027 0.064323 -0.047375
v -0.401027 0.064323 0.047375
v -0.396963 0.081820 0.047375
v -0.396963 0.081820 -0.047375
v -0.383675 0.034105 -0.047375
v -0.457579 -0.124424 -0.047375
v -0.457579 -0.124424 0.047375
v -0.383675 0.034105 0.047375
v 0.234090 0.208199 -0.042336
v 0.147586 0.208199 -0.042336
v 0.147586 0.208199 0.042336
v 0.234090 0.208199 0.042336
v 0.457579 0.208199 -0.042336
v 0.405400 0.208199 -0.042336
v 0.457579 0.208199 0.042336
v 0.405400 0.208199 0.042336
v -0.180766 0.192199 0.042336
v -0.094262 0.183511 -0.000000
v -0.180766 0.183511 -0.000000
v -0.094262 0.192199 0.042336
v -0.094262 0.192199 -0.042336
v -0.180766 0.192199 -0.042336
v -0.444255 0.184199 -0.042336
v -0.392076 0.184199 -0.000000
v -0.392076 0.184199 -0.042336
v -0.444255 0.184199 -0.000000
v -0.392076 0.184199 0.042336
v -0.444255 0.184199 0.042336
v -0.160978 -0.198774 -0.047375
v -0.089735 0.030222 -0.047375
v -0.089734 0.030222 0.047375
v -0.085670 0.079719 -0.047375
v -0.085670 0.079719 0.047375
v -0.160978 -0.198774 0.047375
v -0.224098 -0.225124 0.047375
v -0.224098 -0.225124 -0.047375
v -0.412024 -0.205094 -0.047375
v -0.412024 -0.205094 0.047375
v 0.234090 0.208199 -0.042336
v 0.234090 0.208199 0.042336
v 0.234090 0.166303 -0.042336
v 0.234090 0.166303 0.042336
v 0.295544 0.105666 0.059270
v 0.295544 0.105666 -0.059270
v 0.370440 0.105666 0.059270
v 0.370440 0.105666 -0.059270
v 0.405400 0.140186 -0.042336
v 0.405400 0.140186 0.042336
v 0.405400 0.208199 0.042336
v 0.405400 0.208199 -0.042336
v -0.180766 0.166303 -0.042336
v -0.180766 0.183511 -0.000000
v -0.180766 0.192199 -0.042336
v -0.180766 0.166303 -0.000000
v -0.180766 0.166303 0.042336
v -0.180766 0.192199 0.042336
v -0.242220 0.105666 -0.000000
v -0.242220 0.105666 -0.059270
v -0.242220 0.105666 0.059270
v -0.357116 0.105666 -0.059270
v -0.357116 0.105666 -0.000000
v -0.357116 0.105666 0.059270
v -0.392076 0.140186 -0.042336
v -0.392076 0.140186 0.042336
v -0.392076 0.140186 -0.000000
v -0.392076 0.184199 -0.042336
v -0.392076 0.184199 -0.000000
v -0.392076 0.184199 0.042336
v -0.094262 0.192199 -0.042336
v -0.180766 0.166303 -0.042336
v -0.180766 0.192199 -0.042336
v -0.094262 0.166303 -0.042336
v -0.149306 0.105666 -0.059270
v -0.242220 0.105666 -0.059270
v -0.194649 0.053271 -0.059270
v -0.357116 0.105666 -0.059270
v -0.411813 0.053271 -0.059270
v -0.444255 0.105666 -0.059270
v -0.392076 0.140186 -0.042336
v -0.444255 0.140186 -0.042336
v -0.444255 0.184199 -0.042336
v -0.392076 0.184199 -0.042336
v -0.194649 0.053271 0.059270
v -0.357116 0.105666 0.059270
v -0.411813 0.053271 0.059270
v -0.444255 0.105666 0.059270
v -0.242220 0.105666 0.059270
v -0.392076 0.140186 0.042336
v -0.149306 0.105666 0.059270
v -0.444255 0.140186 0.042336
v -0.392076 0.184199 0.042336
v -0.444255 0.184199 0.042336
v -0.180766 0.166303 0.042336
v -0.094262 0.166303 0.042336
v -0.180766 0.192199 0.042336
v -0.094262 0.192199 0.042336
v 0.234090 0.208199 0.042336
v 0.147586 0.208199 0.042336
v 0.234090 0.166303 0.042336
v 0.147586 0.166303 0.042336
v 0.202630 0.105666 0.059270
v 0.295544 0.105666 0.059270
v 0.247973 0.053271 0.059270
v 0.370440 0.105666 0.059270
v 0.425138 0.053271 0.059270
v 0.457579 0.105666 0.059270
v 0.405400 0.140186 0.042336
v 0.457579 0.140186 0.042336
v 0.457579 0.208199 0.042336
v 0.405400 0.208199 0.042336
v 0.234090 0.208199 -0.042336
v 0.147586 0.166303 -0.042336
v 0.147586 0.208199 -0.042336
v 0.234090 0.166303 -0.042336
v 0.202630 0.105666 -0.059270
v 0.295544 0.105666 -0.059270
v 0.247973 0.053271 -0.059270
v 0.370440 0.105666 -0.059270
v 0.425138 0.053271 -0.059270
v 0.457579 0.105666 -0.059270
v 0.405400 0.140186 -0.042336
v 0.457579 0.140186 -0.042336
v 0.405400 0.208199 -0.042336
v 0.457579 0.208199 -0.042336
v 0.245782 0.107215 0.050380
v -0.201258 0.107215 0.050380
v 0.245782 0.060175 0.050380
v -0.201258 0.060175 0.050380
v 0.245782 0.107215 -0.050380
v -0.201258 0.060175 -0.050380
v -0.201258 0.107215 -0.050380
v 0.245782 0.060175 -0.050380
v -0.204962 -0.142900 -0.047375
v -0.159348 -0.017263 -0.047375
v -0.160978 -0.198774 -0.047375
v -0.089735 0.030222 -0.047375
v -0.224098 -0.225124 -0.047375
v -0.176998 0.014655 -0.047375
v -0.241892 -0.163342 -0.047375
v -0.085670 0.079719 -0.047375
v -0.287644 -0.151044 -0.047375
v -0.285906 0.027539 -0.047375
v -0.412024 -0.205094 -0.047375
v -0.378115 -0.119237 -0.047375
v -0.457579 -0.124424 -0.047375
v -0.396963 0.081820 -0.047375
v -0.383675 0.034105 -0.047375
v -0.401027 0.064323 -0.047375
v -0.324206 0.005326 -0.047375
v -0.412024 -0.205094 0.047375
v -0.224098 -0.225124 0.047375
v -0.287644 -0.151044 0.047375
v -0.241892 -0.163342 0.047375
v -0.378115 -0.119237 0.047375
v -0.204962 -0.142900 0.047375
v -0.457579 -0.124424 0.047375
v -0.160978 -0.198774 0.047375
v -0.159348 -0.017263 0.047375
v -0.089734 0.030222 0.047375
v -0.176998 0.014655 0.047375
v -0.085670 0.079719 0.047375
v -0.285906 0.027539 0.047375
v -0.396963 0.081820 0.047375
v -0.383675 0.034105 0.047375
v -0.401027 0.064323 0.047375
v -0.324206 0.005326 0.047375
v 0.245782 0.107215 -0.050380
v -0.201258 0.107215 -0.050380
v -0.201258 0.107215 0.050380
v 0.245782 0.107215 0.050380
v 0.425138 0.053271 -0.059270
v 0.425138 0.053271 0.059270
v 0.247973 0.053271 -0.059270
v 0.247973 0.053271 0.059270
v -0.411813 0.053271 -0.059270
v -0.194649 0.053271 -0.059270
v -0.194649 0.053271 0.059270
v -0.411813 0.053271 0.059270
v -0.396963 0.081820 0.047375
v -0.085670 0.079719 0.047375
v -0.396963 0.081820 -0.047375
v -0.085670 0.079719 -0.047375
v -0.201258 0.060175 -0.050380
v 0.245782 0.060175 -0.050380
v 0.245782 0.060175 0.050380
v -0.201258 0.060175 0.050380
v -0.176998 0.014655 -0.047375
v -0.285906 0.027539 0.047375
v -0.285906 0.027539 -0.047375
v -0.176998 0.014655 0.047375
v -0.324206 0.005326 0.047375
v -0.159348 -0.017263 0.047375
v -0.324206 0.005326 -0.047375
v -0.378115 -0.119237 -0.047375
v -0.378115 -0.119237 0.047375
v -0.159348 -0.017263 -0.047375
v -0.204962 -0.142900 -0.047375
v -0.204962 -0.142900 0.047375
v -0.241892 -0.163342 0.047375
v -0.241892 -0.163342 -0.047375
v -0.287644 -0.151044 0.047375
v -0.287644 -0.151044 -0.047375
v -0.378115 -0.119237 -0.047375
v -0.378115 -0.119237 0.047375
v -0.149306 0.105666 -0.059270
v -0.194649 0.053271 0.059270
v -0.194649 0.053271 -0.059270
v -0.149306 0.105666 0.059270
v -0.094262 0.166303 -0.000000
v -0.094262 0.166303 -0.042336
v -0.094262 0.166303 0.042336
v -0.094262 0.183511 -0.000000
v -0.094262 0.192199 -0.042336
v -0.094262 0.192199 0.042336
v 0.147586 0.166303 -0.042336
v 0.147586 0.166303 0.042336
v 0.147586 0.208199 -0.042336
v 0.147586 0.208199 0.042336
v 0.202630 0.105666 0.059270
v 0.202630 0.105666 -0.059270
v 0.247973 0.053271 0.059270
v 0.247973 0.053271 -0.059270
vn 0.9475 -0.3198 -0.0000
vn 0.8502 -0.5264 -0.0000
vn 0.9474 -0.3201 0.0006
vn 1.0000 0.0005 0.0005
vn -0.8708 -0.4917 -0.0000
vn -0.9474 -0.3200 0.0004
vn -0.9475 -0.3198 -0.0000
vn -0.8503 -0.5263 0.0003
vn -0.8502 -0.5264 -0.0000
vn -1.0000 0.0005 0.0005
vn -0.8672 -0.4980 -0.0000
vn -0.8672 -0.4979 0.0005
vn -0.9893 -0.1460 -0.0000
vn -0.9741 0.2263 0.0005
vn -0.9063 0.4226 0.0007
vn -0.9063 0.4226 0.0008
vn -0.9064 0.4225 -0.0000
vn 0.0005 1.0000 0.0005
vn -0.0000 0.9796 -0.2010
vn 0.0003 0.9796 -0.2009
vn -0.0000 0.9796 0.2010
vn 0.7392 -0.6735 0.0003
vn 0.9817 -0.1906 -0.0000
vn 0.9816 -0.1911 0.0005
vn 0.9966 -0.0818 -0.0000
vn 0.9967 -0.0815 0.0007
vn 0.7390 -0.6737 0.0005
vn 0.1441 -0.9896 -0.0000
vn -0.1060 -0.9944 0.0005
vn 0.9130 0.4080 0.0005
vn 0.3545 0.9350 -0.0000
vn 0.3542 0.9352 0.0003
vn -0.3345 0.9424 -0.0000
vn -0.9062 0.4228 0.0007
vn -0.9063 0.4226 0.0005
vn -0.9130 0.4079 0.0006
vn -0.9226 0.3858 -0.0000
vn -0.9130 0.4079 0.0007
vn -0.3797 0.9251 0.0007
vn -0.3541 0.9352 0.0004
vn -0.3545 0.9350 -0.0000
vn 0.3345 0.9424 -0.0000
vn 0.3797 0.9251 0.0005
vn 0.9063 0.4226 0.0005
vn 0.9227 0.3855 0.0003
vn 0.0005 0.0005 -1.0000
vn 0.0003 0.1626 -0.9867
vn 0.0005 0.0953 -0.9954
vn -0.0000 0.1971 -0.9804
vn 0.0005 0.0552 -0.9985
vn -0.0000 0.0939 -0.9956
vn -0.0000 0.2742 -0.9617
vn 0.0005 0.2692 -0.9631
vn -0.0000 0.2261 -0.9741
vn 0.0005 0.0005 1.0000
vn -0.0000 0.0939 0.9956
vn -0.0000 0.2742 0.9617
vn 0.0005 0.0552 0.9985
vn 0.0005 0.2692 0.9631
vn -0.0000 0.1971 0.9804
vn -0.0000 0.2261 0.9741
vn -0.0000 0.1625 0.9867
vn 0.0005 0.0953 0.9955
vn 0.0005 0.0953 0.9954
vn 0.0003 0.2740 0.9617
vn 0.0003 0.2691 0.9631
vn 0.0004 0.0953 -0.9954
vn -0.0000 0.1625 -0.9867
vn 0.0003 0.2740 -0.9617
vn 0.0004 0.2691 -0.9631
vn -0.0000 -0.0000 -1.0000
vn -0.0000 -0.0000 1.0000
vn 0.0005 -1.0000 0.0005
vn 0.0064 1.0000 0.0004
vn 0.0067 1.0000 -0.0000
vn -0.5574 -0.8302 0.0006
vn 0.2025 -0.9793 -0.0000
vn -0.5578 -0.8300 -0.0000
vn 0.7470 -0.6648 0.0003
vn -0.9969 -0.0786 0.0004
vn 0.7471 -0.6647 0.0002
vn 0.9177 -0.3972 -0.0000
vn 0.9178 -0.3971 0.0007
vn -0.9969 -0.0784 -0.0000
vn -0.7606 0.6492 0.0007
vn -0.7605 0.6494 -0.0000
vn -0.1212 0.9926 -0.0000
vn -0.1214 0.9926 0.0002
vn 0.2957 0.9553 0.0004
vn 0.2957 0.9553 0.0003
vn 0.3317 0.9434 0.0010
vn 0.3317 0.9434 -0.0000
vn 0.7486 -0.6630 0.0003
vn 0.7484 -0.6633 0.0005
vn 0.7485 -0.6631 0.0003
vn 0.9348 -0.3553 0.0005
vn 0.9264 -0.3765 0.0005
vn -0.9264 -0.3765 0.0005
vn -0.9264 -0.3766 0.0005
vn -0.7485 -0.6631 0.0003
vn -0.7489 -0.6627 -0.0000
vn -0.7484 -0.6633 0.0005
vt 0.000000 0.000000
s 1
f 65/2/11 66/2/12 67/2/12
f 66/2/12 65/2/11 68/2/13
f 69/2/14 68/2/13 65/2/11
f 68/2/13 69/2/14 70/2/14
f 70/2/14 69/2/14 71/2/14
f 72/2/14 71/2/14 69/2/14
f 73/2/15 74/2/15 75/2/15
f 74/2/15 76/2/15 75/2/15
f 77/2/16 78/2/17 79/2/18
f 79/2/18 80/2/19 77/2/16
f 77/2/16 81/2/20 78/2/17
f 81/2/20 77/2/16 82/2/20
f 81/2/20 82/2/20 83/2/20
f 83/2/20 82/2/20 84/2/20
f 83/2/20 85/2/20 81/2/20
f 86/2/21 87/2/22 88/2/23
f 88/2/23 87/2/22 89/2/23
f 88/2/23 89/2/23 90/2/24
f 90/2/24 91/2/24 88/2/23
f 92/2/25 93/2/25 94/2/26
f 92/2/25 94/2/26 95/2/27
f 96/2/28 97/2/28 98/2/28
f 96/2/28 98/2/28 99/2/28
f 100/2/28 101/2/28 102/2/28
f 101/2/28 103/2/28 102/2/28
f 104/2/29 105/2/28 106/2/28
f 105/2/28 104/2/29 107/2/30
f 108/2/31 106/2/28 105/2/28
f 106/2/28 108/2/31 109/2/31
f 110/2/28 111/2/28 112/2/28
f 111/2/28 110/2/28 113/2/28
f 113/2/28 114/2/28 111/2/28
f 114/2/28 113/2/28 115/2/28
f 116/2/32 117/2/33 118/2/34
f 119/2/35 118/2/34 117/2/33
f 118/2/34 119/2/35 120/2/36
f 116/2/32 118/2/34 121/2/37
f 122/2/38 116/2/32 121/2/37
f 116/2/32 122/2/38 123/2/38
f 124/2/39 123/2/38 122/2/38
f 124/2/39 122/2/38 125/2/39
f 126/2/14 127/2/14 128/2/40
f 128/2/40 127/2/14 129/2/40
f 128/2/40 129/2/40 130/2/41
f 130/2/41 131/2/42 128/2/40
f 131/2/42 130/2/41 132/2/43
f 133/2/43 131/2/42 132/2/43
f 132/2/43 134/2/44 133/2/43
f 134/2/44 132/2/43 135/2/45
f 134/2/44 135/2/45 136/2/20
f 137/2/20 134/2/44 136/2/20
f 138/2/46 139/2/20 140/2/20
f 139/2/20 138/2/46 141/2/47
f 141/2/47 142/2/48 139/2/20
f 142/2/48 143/2/20 139/2/20
f 138/2/46 144/2/49 141/2/47
f 144/2/49 142/2/48 141/2/47
f 144/2/49 138/2/46 145/2/50
f 142/2/48 144/2/49 146/2/51
f 147/2/52 144/2/49 145/2/50
f 148/2/53 146/2/51 144/2/49
f 144/2/49 147/2/52 148/2/53
f 146/2/51 148/2/53 149/2/52
f 150/2/54 148/2/53 147/2/52
f 148/2/53 151/2/54 149/2/52
f 148/2/53 150/2/54 152/2/55
f 151/2/54 148/2/53 152/2/55
f 153/2/14 152/2/55 150/2/54
f 152/2/55 153/2/14 154/2/14
f 154/2/14 151/2/54 152/2/55
f 151/2/54 154/2/14 155/2/14
f 156/2/56 157/2/57 158/2/56
f 157/2/57 156/2/56 159/2/58
f 159/2/58 160/2/59 157/2/57
f 157/2/57 160/2/59 161/2/60
f 160/2/59 162/2/56 161/2/60
f 162/2/56 163/2/61 161/2/60
f 164/2/56 163/2/61 162/2/56
f 163/2/61 164/2/56 165/2/62
f 165/2/62 166/2/63 163/2/61
f 166/2/63 165/2/62 167/2/64
f 168/2/56 166/2/63 167/2/64
f 168/2/56 169/2/56 166/2/63
f 170/2/65 171/2/66 172/2/65
f 171/2/66 173/2/67 172/2/65
f 171/2/66 170/2/65 174/2/68
f 175/2/69 173/2/67 171/2/66
f 176/2/70 174/2/68 170/2/65
f 173/2/67 175/2/69 177/2/71
f 175/2/69 178/2/65 177/2/71
f 177/2/71 178/2/65 179/2/65
f 176/2/70 180/2/72 174/2/68
f 180/2/72 176/2/70 181/2/73
f 180/2/72 181/2/73 182/2/65
f 183/2/65 182/2/65 181/2/73
f 184/2/65 185/2/65 186/2/72
f 187/2/74 186/2/72 185/2/65
f 186/2/72 187/2/74 188/2/70
f 189/2/68 186/2/72 188/2/70
f 190/2/65 189/2/68 188/2/70
f 190/2/65 191/2/66 189/2/68
f 192/2/65 191/2/66 190/2/65
f 191/2/66 192/2/65 193/2/75
f 193/2/75 194/2/76 191/2/66
f 194/2/76 193/2/75 195/2/71
f 196/2/65 194/2/76 195/2/71
f 194/2/76 196/2/65 197/2/65
f 198/2/56 199/2/77 200/2/56
f 199/2/77 198/2/56 201/2/78
f 201/2/78 202/2/59 199/2/77
f 202/2/59 201/2/78 203/2/60
f 203/2/60 204/2/56 202/2/59
f 205/2/61 204/2/56 203/2/60
f 204/2/56 205/2/61 206/2/56
f 207/2/79 206/2/56 205/2/61
f 207/2/79 205/2/61 208/2/80
f 208/2/80 209/2/64 207/2/79
f 210/2/56 209/2/64 208/2/80
f 210/2/56 211/2/56 209/2/64
f 212/2/65 213/2/65 214/2/65
f 215/2/65 214/2/65 213/2/65
f 216/2/56 217/2/56 218/2/56
f 217/2/56 216/2/56 219/2/56
f 220/2/56 221/2/56 222/2/56
f 223/2/56 222/2/56 221/2/56
f 224/2/56 220/2/56 222/2/56
f 225/2/56 223/2/56 221/2/56
f 220/2/56 224/2/56 226/2/56
f 225/2/56 227/2/56 223/2/56
f 224/2/56 228/2/56 226/2/56
f 227/2/56 225/2/56 229/2/56
f 230/2/56 228/2/56 224/2/56
f 228/2/56 230/2/56 231/2/56
f 232/2/56 231/2/56 230/2/56
f 233/2/56 227/2/56 229/2/56
f 232/2/56 234/2/81 231/2/56
f 229/2/56 234/2/81 233/2/56
f 233/2/56 234/2/81 235/2/56
f 234/2/81 229/2/56 236/2/56
f 236/2/56 231/2/56 234/2/81
f 237/2/65 238/2/65 239/2/65
f 239/2/65 238/2/65 240/2/65
f 237/2/65 239/2/65 241/2/65
f 238/2/65 242/2/65 240/2/65
f 243/2/65 237/2/65 241/2/65
f 242/2/65 238/2/65 244/2/65
f 244/2/65 245/2/65 242/2/65
f 245/2/65 244/2/65 246/2/65
f 246/2/65 247/2/65 245/2/65
f 248/2/65 247/2/65 246/2/65
f 247/2/65 248/2/65 249/2/65
f 248/2/65 250/2/65 249/2/65
f 241/2/65 251/2/82 243/2/65
f 251/2/82 249/2/65 250/2/65
f 251/2/82 250/2/65 252/2/65
f 251/2/82 241/2/65 253/2/65
f 249/2/65 251/2/82 253/2/65
f 254/2/28 255/2/28 256/2/28
f 254/2/28 256/2/28 257/2/28
f 258/2/83 259/2/83 260/2/83
f 260/2/83 259/2/83 261/2/83
f 262/2/83 263/2/83 264/2/83
f 262/2/83 264/2/83 265/2/83
f 266/2/84 267/2/85 268/2/85
f 269/2/84 268/2/85 267/2/85
f 270/2/83 271/2/83 272/2/83
f 270/2/83 272/2/83 273/2/83
f 274/2/86 275/2/87 276/2/87
f 275/2/87 274/2/86 277/2/88
f 278/2/89 276/2/87 275/2/87
f 274/2/86 279/2/90 277/2/88
f 276/2/87 278/2/89 280/2/91
f 281/2/92 280/2/91 278/2/89
f 281/2/92 278/2/89 282/2/93
f 283/2/94 279/2/90 274/2/86
f 284/2/95 279/2/90 283/2/94
f 279/2/90 284/2/95 285/2/96
f 284/2/95 286/2/97 285/2/96
f 287/2/98 286/2/97 284/2/95
f 287/2/98 288/2/99 286/2/97
f 289/2/100 288/2/99 287/2/98
f 290/2/101 288/2/99 289/2/100
f 288/2/99 290/2/101 291/2/102
f 292/2/103 293/2/104 294/2/104
f 292/2/103 295/2/105 293/2/104
f 295/2/105 292/2/103 296/2/106
f 292/2/103 297/2/107 296/2/106
f 295/2/105 296/2/106 298/2/107
f 297/2/107 299/2/14 296/2/106
f 299/2/14 298/2/107 296/2/106
f 300/2/14 299/2/14 297/2/107
f 298/2/107 299/2/14 301/2/14
f 302/2/108 303/2/109 304/2/20
f 304/2/20 303/2/109 305/2/20
f 302/2/108 306/2/110 303/2/109
f 306/2/110 302/2/108 307/2/111
f 307/2/111 308/2/112 306/2/110
f 309/2/112 308/2/112 307/2/111
