# Blender 5.2.0 LTS
# www.blender.org
mtllib chud handgun magazine.mtl
o RenderMesh_92176646335348_96be2f987861b0c2
v 0.166267 0.154632 -0.040414
v -0.069486 0.154632 -0.040414
v -0.069486 0.154632 0.040414
v 0.166267 0.154632 0.040414
v -0.152172 -0.178377 -0.042264
v -0.165468 -0.135749 0.048078
v -0.165468 -0.135749 -0.048078
v -0.152172 -0.178377 0.042264
v 0.113928 -0.160193 -0.048078
v 0.113928 -0.160193 0.048078
v 0.093433 -0.199864 -0.042264
v 0.093433 -0.199864 0.042264
v -0.144326 -0.121125 0.040414
v -0.069486 0.154632 0.040414
v -0.144326 -0.121125 -0.040414
v -0.069486 0.154632 -0.040414
v 0.166267 0.154632 -0.040414
v 0.090530 -0.141672 0.040414
v 0.090530 -0.141672 -0.040414
v 0.166267 0.154632 0.040414
v 0.093433 -0.199864 0.042264
v -0.152172 -0.178377 -0.042264
v 0.093433 -0.199864 -0.042264
v -0.152172 -0.178377 0.042264
v -0.165468 -0.135749 -0.048078
v 0.093433 -0.199864 -0.042264
v -0.152172 -0.178377 -0.042264
v 0.113928 -0.160193 -0.048078
v 0.113928 -0.160193 0.048078
v -0.165468 -0.135749 0.048078
v 0.093433 -0.199864 0.042264
v -0.152172 -0.178377 0.042264
v -0.144326 -0.121125 0.040414
v -0.144326 -0.121125 -0.040414
v -0.165468 -0.135749 -0.048078
v -0.165468 -0.135749 0.048078
v 0.166267 0.154632 -0.040414
v 0.090530 -0.141672 -0.040414
v -0.069486 0.154632 -0.040414
v -0.144326 -0.121125 -0.040414
v 0.090530 -0.141672 0.040414
v -0.069486 0.154632 0.040414
v -0.144326 -0.121125 0.040414
v 0.166267 0.154632 0.040414
v 0.090530 -0.141672 -0.040414
v 0.113928 -0.160193 0.048078
v 0.113928 -0.160193 -0.048078
v 0.090530 -0.141672 0.040414
v -0.165468 -0.135749 -0.048078
v 0.090530 -0.141672 -0.040414
v 0.113928 -0.160193 -0.048078
v -0.144326 -0.121125 -0.040414
v 0.090530 -0.141672 0.040414
v -0.144326 -0.121125 0.040414
v -0.165468 -0.135749 0.048078
v 0.113928 -0.160193 0.048078
vn -0.0000 1.0000 -0.0000
vn -0.9546 -0.2978 -0.0000
vn -0.9547 -0.2977 0.0003
vn -0.9547 -0.2977 0.0005
vn 0.8885 -0.4589 0.0003
vn 0.8884 -0.4590 -0.0000
vn -0.9650 0.2622 0.0005
vn -0.9650 0.2622 0.0004
vn -0.9651 0.2619 -0.0000
vn -0.9650 0.2621 0.0003
vn 0.9689 -0.2476 -0.0000
vn 0.9688 -0.2478 0.0003
vn -0.0869 -0.9962 0.0003
vn -0.0123 -0.1391 -0.9902
vn -0.0125 -0.1393 -0.9902
vn -0.0124 -0.1393 -0.9902
vn -0.0125 -0.1393 0.9902
vn -0.0123 -0.1391 0.9902
vn -0.5689 0.8224 -0.0000
vn -0.0000 -0.0000 -1.0000
vn -0.0000 -0.0000 1.0000
vn 0.6207 0.7841 0.0005
vn 0.6207 0.7840 0.0005
vn 0.6207 0.7841 -0.0000
vn 0.6207 0.7841 0.0003
vn 0.0369 0.4215 -0.9061
vn 0.0369 0.4215 0.9061
vt 0.000000 0.000000
s 1
f 1/1/1 2/1/1 3/1/1
f 1/1/1 3/1/1 4/1/1
f 5/1/2 6/1/3 7/1/2
f 6/1/3 5/1/2 8/1/4
f 9/1/5 10/1/6 11/1/6
f 11/1/6 10/1/6 12/1/6
f 13/1/7 14/1/8 15/1/9
f 16/1/10 15/1/9 14/1/8
f 17/1/11 18/1/11 19/1/11
f 18/1/11 17/1/11 20/1/12
f 21/1/13 22/1/13 23/1/13
f 22/1/13 21/1/13 24/1/13
f 25/1/14 26/1/15 27/1/16
f 26/1/15 25/1/14 28/1/15
f 29/1/17 30/1/18 31/1/17
f 31/1/17 30/1/18 32/1/17
f 33/1/19 34/1/19 35/1/19
f 35/1/19 36/1/19 33/1/19
f 37/1/20 38/1/20 39/1/20
f 38/1/20 40/1/20 39/1/20
f 41/1/21 42/1/21 43/1/21
f 42/1/21 41/1/21 44/1/21
f 45/1/22 46/1/23 47/1/24
f 46/1/23 45/1/22 48/1/25
f 49/1/26 50/1/26 51/1/26
f 50/1/26 49/1/26 52/1/26
f 53/1/27 54/1/27 55/1/27
f 55/1/27 56/1/27 53/1/27
