# Blender 5.2.0 LTS
# www.blender.org
mtllib chud handgun slide.mtl
o RenderMesh_100760723336125_81f305d2fd7ff9bc
v -0.441714 -0.009379 -0.073674
v -0.447571 0.001995 0.078160
v -0.447571 0.001995 -0.078160
v -0.441714 -0.009379 0.073674
v -0.447571 0.001995 -0.078160
v -0.441714 0.013369 0.073674
v -0.441714 0.013369 -0.073674
v -0.447571 0.001995 0.078160
v -0.374706 0.001995 0.078160
v -0.447571 0.001995 0.078160
v -0.441714 -0.009379 0.073674
v -0.380563 -0.009379 0.073674
v -0.441714 0.013369 0.073674
v -0.380563 0.013369 0.073674
v -0.374706 0.001995 -0.078160
v -0.441714 -0.009379 -0.073674
v -0.447571 0.001995 -0.078160
v -0.380563 -0.009379 -0.073674
v -0.441714 0.013369 -0.073674
v -0.380563 0.013369 -0.073674
v -0.109680 0.017081 0.015171
v -0.078683 0.020874 0.018964
v -0.078683 0.001910 0.026819
v -0.078683 0.028729 -0.000000
v -0.109680 0.001910 0.021455
v -0.109680 0.023365 -0.000000
v -0.109680 -0.013261 0.015171
v -0.109680 0.017081 -0.015171
v -0.078683 -0.017054 0.018964
v -0.078683 0.020874 -0.018964
v -0.078683 -0.024909 -0.000000
v -0.078682 0.001910 -0.026819
v -0.109680 -0.019545 -0.000000
v -0.109680 0.001910 -0.021455
v -0.109680 -0.013261 -0.015171
v -0.078682 -0.017054 -0.018964
v -0.441714 0.013369 -0.073674
v -0.380563 0.013369 0.073674
v -0.380563 0.013369 -0.073674
v -0.441714 0.013369 0.073674
v -0.380563 -0.009379 -0.073674
v -0.441714 -0.009379 0.073674
v -0.441714 -0.009379 -0.073674
v -0.380563 -0.009379 0.073674
v -0.109680 0.023365 -0.000000
v -0.109680 0.001910 0.021455
v -0.109680 0.001910 -0.021455
v -0.109680 0.017081 0.015171
v -0.109680 0.017081 -0.015171
v -0.109680 -0.019545 -0.000000
v -0.109680 -0.013261 -0.015171
v -0.109680 -0.013261 0.015171
v -0.380563 -0.009379 0.073674
v -0.380563 -0.009379 -0.073674
v -0.374706 0.001995 -0.078160
v -0.374706 0.001995 0.078160
v -0.374706 0.001995 0.078160
v -0.374706 0.001995 -0.078160
v -0.380563 0.013369 -0.073674
v -0.380563 0.013369 0.073674
v 0.114765 0.001910 -0.025960
v 0.145762 0.001910 -0.020768
v 0.145762 0.016596 -0.014686
v 0.145762 -0.012775 -0.014686
v 0.114765 0.020267 -0.018357
v 0.114765 -0.016447 -0.018357
v 0.114765 0.027870 -0.000000
v 0.114765 -0.024050 -0.000000
v 0.145762 0.022678 -0.000000
v 0.145762 -0.018858 -0.000000
v 0.145762 0.016596 0.014686
v 0.145762 -0.012775 0.014686
v 0.114765 0.020267 0.018357
v 0.114765 -0.016447 0.018357
v 0.114765 0.001910 0.025960
v 0.145762 0.001910 0.020768
v 0.145762 0.022678 -0.000000
v 0.145762 0.001910 0.020768
v 0.145762 0.016596 0.014686
v 0.145762 -0.018858 -0.000000
v 0.145762 -0.012775 0.014686
v 0.145762 0.001910 -0.020768
v 0.145762 -0.012775 -0.014686
v 0.145762 0.016596 -0.014686
vn -0.8890 -0.4579 0.0005
vn -0.8890 -0.4579 0.0003
vn -0.8890 -0.4578 -0.0000
vn -0.8890 -0.4579 0.0006
vn -0.8890 0.4580 0.0005
vn -0.8890 0.4579 0.0005
vn -0.8890 0.4578 -0.0000
vn -0.8890 0.4579 0.0003
vn 0.0005 0.0005 1.0000
vn 0.0003 -0.3668 0.9303
vn 0.0010 -0.3668 0.9303
vn 0.0003 0.3668 0.9303
vn 0.0006 0.3667 0.9303
vn 0.0005 0.0005 -1.0000
vn 0.0006 -0.3667 -0.9303
vn -0.0000 -0.3669 -0.9303
vn 0.0005 0.3667 -0.9303
vn 0.0006 0.3667 -0.9303
vn 0.1705 -0.6968 -0.6968
vn 0.1705 0.0005 -0.9854
vn 0.1705 -0.9854 0.0005
vn 0.1705 -0.0000 -0.9854
vn 0.1698 0.6968 -0.6968
vn 0.1705 -0.6968 0.6968
vn 0.1705 0.6968 -0.6968
vn 0.1705 -0.6967 0.6968
vn 0.1705 0.9854 0.0003
vn 0.1705 -0.0000 0.9854
vn 0.1705 0.9854 0.0007
vn 0.1705 0.6968 0.6968
vn 0.1705 0.6967 0.6968
vn 0.0005 1.0000 0.0005
vn 0.0005 -1.0000 0.0005
vn 1.0000 0.0005 0.0005
vn 0.8890 -0.4579 0.0005
vn 0.8891 -0.4578 -0.0000
vn 0.8890 -0.4579 0.0003
vn 0.8891 0.4578 -0.0000
vn 0.8890 0.4579 0.0005
vn 0.8890 0.4579 0.0003
vn -0.1656 0.0005 0.9862
vn -0.1652 -0.6974 0.6974
vn -0.1657 0.6973 0.6973
vn -0.1657 -0.6973 0.6973
vn -0.1656 -0.9862 0.0005
vn -0.1656 0.9862 0.0005
vn -0.1652 -0.9863 -0.0000
vn -0.1652 0.9863 -0.0000
vn -0.1660 -0.6973 -0.6973
vn -0.1652 0.6974 -0.6974
vn -0.1659 -0.6973 -0.6973
vn -0.1657 0.6973 -0.6973
vn -0.1656 0.0005 -0.9862
vn -1.0000 0.0005 0.0005
vt 0.000000 0.000000
s 1
f 1/1/1 2/1/2 3/1/3
f 2/1/2 1/1/1 4/1/4
f 5/1/5 6/1/6 7/1/7
f 5/1/5 8/1/8 6/1/6
f 9/1/9 10/1/9 11/1/10
f 9/1/9 11/1/10 12/1/11
f 9/1/9 13/1/12 10/1/9
f 13/1/12 9/1/9 14/1/13
f 15/1/14 16/1/15 17/1/14
f 16/1/15 15/1/14 18/1/16
f 19/1/17 15/1/14 17/1/14
f 19/1/17 20/1/18 15/1/14
f 21/1/19 22/1/19 23/1/20
f 21/1/19 24/1/21 22/1/19
f 21/1/19 23/1/20 25/1/22
f 24/1/21 21/1/19 26/1/21
f 23/1/20 27/1/23 25/1/22
f 28/1/24 24/1/21 26/1/21
f 27/1/23 23/1/20 29/1/25
f 28/1/24 30/1/26 24/1/21
f 31/1/27 27/1/23 29/1/25
f 28/1/24 32/1/28 30/1/26
f 31/1/27 33/1/29 27/1/23
f 32/1/28 28/1/24 34/1/28
f 31/1/27 35/1/30 33/1/29
f 35/1/30 32/1/28 34/1/28
f 35/1/30 31/1/27 36/1/31
f 35/1/30 36/1/31 32/1/28
f 37/1/32 38/1/32 39/1/32
f 38/1/32 37/1/32 40/1/32
f 41/1/33 42/1/33 43/1/33
f 42/1/33 41/1/33 44/1/33
f 45/1/34 46/1/34 47/1/34
f 46/1/34 45/1/34 48/1/34
f 45/1/34 47/1/34 49/1/34
f 46/1/34 50/1/34 47/1/34
f 47/1/34 50/1/34 51/1/34
f 50/1/34 46/1/34 52/1/34
f 53/1/35 54/1/36 55/1/35
f 55/1/35 56/1/37 53/1/35
f 57/1/38 58/1/39 59/1/40
f 57/1/38 59/1/40 60/1/40
f 61/1/41 62/1/41 63/1/42
f 61/1/41 64/1/43 62/1/41
f 61/1/41 63/1/42 65/1/44
f 64/1/43 61/1/41 66/1/43
f 63/1/42 67/1/45 65/1/44
f 64/1/43 66/1/43 68/1/46
f 67/1/45 63/1/42 69/1/47
f 64/1/43 68/1/46 70/1/48
f 67/1/45 69/1/47 71/1/49
f 68/1/46 72/1/50 70/1/48
f 67/1/45 71/1/49 73/1/51
f 72/1/50 68/1/46 74/1/52
f 71/1/49 75/1/53 73/1/51
f 75/1/53 72/1/50 74/1/52
f 75/1/53 71/1/49 76/1/53
f 75/1/53 76/1/53 72/1/50
f 77/1/54 78/1/54 79/1/54
f 80/1/54 78/1/54 77/1/54
f 78/1/54 80/1/54 81/1/54
f 77/1/54 82/1/54 80/1/54
f 80/1/54 82/1/54 83/1/54
f 82/1/54 77/1/54 84/1/54
o RenderMesh_102404438643136_59223335dc1ea71b
v 0.119774 0.043759 -0.000000
v 0.119774 -0.050665 -0.000000
v 0.119774 0.029932 0.033384
v 0.119774 -0.036838 0.033384
v 0.119774 -0.003454 0.047213
v 0.119774 -0.003454 -0.047213
v 0.119774 0.029932 -0.033385
v 0.119774 -0.036838 -0.033385
v 0.480409 0.029932 0.033384
v 0.486258 0.019821 0.023274
v 0.480409 0.036845 0.016692
v 0.486258 0.024641 0.011637
v 0.480409 -0.003454 0.047213
v 0.486258 -0.003454 0.032914
v 0.486258 -0.026727 0.023274
v 0.480409 -0.036838 0.033384
v 0.480409 -0.043752 0.016692
v 0.486258 -0.031547 0.011637
v 0.486258 0.019821 -0.023274
v 0.480409 -0.003454 -0.047213
v 0.480409 0.029932 -0.033385
v 0.480409 0.036845 -0.016692
v 0.486258 0.024641 -0.011637
v 0.486258 -0.003454 -0.032914
v 0.486258 -0.026727 -0.023274
v 0.480409 -0.036838 -0.033385
v 0.480409 -0.043752 -0.016692
v 0.486258 -0.031547 -0.011637
v 0.473365 -0.034895 -0.000000
v 0.471115 -0.043752 -0.014045
v 0.473365 -0.030290 -0.009354
v 0.471115 -0.050665 -0.000000
v 0.471115 -0.043752 0.014045
v 0.473365 -0.030290 0.009354
v 0.471115 0.036845 0.014045
v 0.473365 0.027988 -0.000000
v 0.471115 0.043759 -0.000000
v 0.473365 0.023384 0.009354
v 0.471115 0.036845 -0.014045
v 0.473365 0.023384 -0.009354
v 0.463668 0.015383 -0.018837
v 0.473365 0.023384 -0.009354
v 0.463668 0.023185 -0.000000
v 0.473365 0.027988 -0.000000
v 0.473365 0.023384 0.009354
v 0.486258 0.019821 -0.023274
v 0.486258 0.024641 -0.011637
v 0.486258 -0.003454 -0.032914
v 0.463668 -0.003454 -0.026639
v 0.463668 -0.022289 -0.018837
v 0.463668 0.015383 0.018837
v 0.486258 -0.026727 -0.023274
v 0.473365 -0.030290 -0.009354
v 0.486258 -0.031547 -0.011637
v 0.463668 -0.030091 -0.000000
v 0.473365 -0.034895 -0.000000
v 0.473365 -0.030290 0.009354
v 0.463668 -0.022289 0.018837
v 0.486258 -0.026727 0.023274
v 0.486258 -0.031547 0.011637
v 0.486258 -0.003454 0.032914
v 0.463668 -0.003454 0.026639
v 0.486258 0.019821 0.023274
v 0.486258 0.024641 0.011637
v 0.463668 -0.022289 -0.018837
v 0.463668 0.023185 -0.000000
v 0.463668 -0.030091 -0.000000
v 0.463668 -0.022289 0.018837
v 0.463668 0.015383 -0.018837
v 0.463668 -0.003454 -0.026639
v 0.463668 0.015383 0.018837
v 0.463668 -0.003454 0.026639
v 0.480409 0.036845 0.016692
v 0.473365 0.023384 0.009354
v 0.471115 0.036845 0.014045
v 0.486258 0.024641 0.011637
v 0.480409 0.036845 -0.016692
v 0.473365 0.023384 -0.009354
v 0.486258 0.024641 -0.011637
v 0.471115 0.036845 -0.014045
v 0.480409 -0.043752 -0.016692
v 0.473365 -0.030290 -0.009354
v 0.471115 -0.043752 -0.014045
v 0.486258 -0.031547 -0.011637
v 0.480409 -0.043752 0.016692
v 0.473365 -0.030290 0.009354
v 0.486258 -0.031547 0.011637
v 0.471115 -0.043752 0.014045
v 0.480409 -0.003454 0.047213
v 0.119774 0.029932 0.033384
v 0.119774 -0.003454 0.047213
v 0.480409 -0.036838 0.033384
v 0.480409 0.029932 0.033384
v 0.119774 -0.036838 0.033384
v 0.471115 0.036845 0.014045
v 0.480409 0.036845 0.016692
v 0.119774 0.043759 -0.000000
v 0.471115 0.043759 -0.000000
v 0.471115 0.036845 -0.014045
v 0.471115 -0.043752 0.014045
v 0.480409 -0.043752 0.016692
v 0.119774 -0.050665 -0.000000
v 0.471115 -0.050665 -0.000000
v 0.471115 -0.043752 -0.014045
v 0.119774 0.029932 -0.033385
v 0.119774 -0.036838 -0.033385
v 0.480409 0.029932 -0.033385
v 0.480409 0.036845 -0.016692
v 0.119774 -0.003454 -0.047213
v 0.480409 -0.003454 -0.047213
v 0.480409 -0.036838 -0.033385
v 0.480409 -0.043752 -0.016692
vn -1.0000 -0.0005 0.0005
vn 0.9258 0.2673 0.2673
vn 0.9257 0.2674 0.2674
vn 0.9144 0.3741 0.1549
vn 0.9145 0.3737 0.1549
vn 0.9256 -0.0006 0.3785
vn 0.9258 -0.2673 0.2673
vn 0.9144 -0.3740 0.1549
vn 0.9257 0.2674 -0.2674
vn 0.9256 -0.0000 -0.3786
vn 0.9258 0.2673 -0.2673
vn 0.9144 0.3741 -0.1549
vn 0.9256 -0.0006 -0.3785
vn 0.9258 -0.2673 -0.2673
vn 0.9258 -0.2674 -0.2674
vn 0.9144 -0.3740 -0.1549
vn 0.9900 -0.1412 -0.0000
vn 0.9900 -0.1411 0.0004
vn 0.9900 -0.1411 0.0005
vn 0.9900 -0.1411 0.0006
vn 0.9900 0.1411 0.0005
vn 0.9900 0.1412 -0.0000
vn 0.9900 0.1411 0.0003
vn 0.9900 0.1411 0.0004
vn 0.2857 -0.6598 0.6950
vn 0.2867 -0.8669 0.4078
vn 0.3143 -0.9493 0.0005
vn 0.3142 -0.9493 0.0005
vn 0.2867 -0.8669 -0.4078
vn 0.2672 -0.0005 0.9636
vn 0.2671 -0.0007 0.9637
vn 0.2857 0.6598 0.6950
vn 0.2857 -0.6598 -0.6950
vn 0.2867 0.8669 0.4078
vn 0.3142 0.9494 0.0005
vn 0.3142 0.9493 0.0005
vn 0.2867 0.8669 -0.4078
vn 0.2857 0.6598 -0.6950
vn 0.2672 -0.0005 -0.9636
vn 0.2671 -0.0007 -0.9637
vn 1.0000 -0.0005 0.0005
vn 0.1773 0.3980 -0.9001
vn 0.1773 0.3980 0.9001
vn 0.1773 -0.3980 0.9001
vn 0.1773 -0.3980 -0.9001
vn 0.0005 -0.0005 1.0000
vn 0.0006 0.7072 0.7070
vn 0.0005 -0.7071 0.7071
vn 0.0005 0.7071 0.7071
vn 0.0006 -0.7071 0.7071
vn 0.0005 0.9239 0.3826
vn 0.0005 1.0000 0.0005
vn 0.0005 0.9239 -0.3826
vn 0.0005 -0.9239 0.3826
vn 0.0005 -1.0000 0.0005
vn 0.0005 -0.9239 -0.3826
vn 0.0006 0.7072 -0.7070
vn 0.0005 -0.7071 -0.7071
vn 0.0005 0.7071 -0.7071
vn 0.0005 -0.0005 -1.0000
vt 0.000000 0.000000
s 1
f 85/2/55 86/2/55 87/2/55
f 88/2/55 87/2/55 86/2/55
f 87/2/55 88/2/55 89/2/55
f 86/2/55 85/2/55 90/2/55
f 90/2/55 85/2/55 91/2/55
f 86/2/55 90/2/55 92/2/55
f 93/2/56 94/2/57 95/2/58
f 95/2/58 94/2/57 96/2/59
f 97/2/60 94/2/57 93/2/56
f 94/2/57 97/2/60 98/2/60
f 99/2/61 98/2/60 97/2/60
f 97/2/60 100/2/61 99/2/61
f 101/2/62 99/2/61 100/2/61
f 99/2/61 101/2/62 102/2/62
f 103/2/63 104/2/64 105/2/65
f 106/2/66 103/2/63 105/2/65
f 103/2/63 106/2/66 107/2/66
f 104/2/64 103/2/63 108/2/67
f 109/2/68 104/2/64 108/2/67
f 104/2/64 109/2/68 110/2/69
f 111/2/70 110/2/69 109/2/68
f 109/2/68 112/2/70 111/2/70
f 113/2/71 114/2/72 115/2/73
f 114/2/72 113/2/71 116/2/74
f 116/2/74 113/2/71 117/2/73
f 117/2/73 113/2/71 118/2/73
f 119/2/75 120/2/76 121/2/77
f 120/2/76 119/2/75 122/2/75
f 120/2/76 123/2/75 121/2/77
f 123/2/75 120/2/76 124/2/78
f 125/2/79 126/2/80 127/2/81
f 126/2/80 128/2/82 127/2/81
f 129/2/83 127/2/81 128/2/82
f 130/2/79 126/2/80 125/2/79
f 126/2/80 130/2/79 131/2/80
f 132/2/84 130/2/79 125/2/79
f 133/2/85 132/2/84 125/2/79
f 134/2/86 132/2/84 133/2/85
f 135/2/87 127/2/81 129/2/83
f 132/2/84 134/2/86 136/2/86
f 136/2/86 134/2/86 137/2/88
f 136/2/86 137/2/88 138/2/88
f 137/2/88 134/2/86 139/2/89
f 139/2/89 140/2/90 137/2/88
f 139/2/89 141/2/91 140/2/90
f 139/2/89 142/2/92 141/2/91
f 143/2/92 141/2/91 142/2/92
f 141/2/91 143/2/92 144/2/91
f 145/2/93 143/2/92 142/2/92
f 146/2/94 145/2/93 142/2/92
f 135/2/87 145/2/93 146/2/94
f 145/2/93 135/2/87 147/2/87
f 129/2/83 147/2/87 135/2/87
f 147/2/87 129/2/83 148/2/83
f 149/2/95 150/2/95 151/2/95
f 151/2/95 150/2/95 152/2/95
f 150/2/95 149/2/95 153/2/95
f 153/2/95 149/2/95 154/2/95
f 155/2/95 152/2/95 150/2/95
f 152/2/95 155/2/95 156/2/95
f 157/2/96 158/2/96 159/2/96
f 158/2/96 157/2/96 160/2/96
f 161/2/97 162/2/97 163/2/97
f 162/2/97 161/2/97 164/2/97
f 165/2/98 166/2/98 167/2/98
f 166/2/98 165/2/98 168/2/98
f 169/2/99 170/2/99 171/2/99
f 170/2/99 169/2/99 172/2/99
f 173/2/100 174/2/101 175/2/100
f 175/2/100 176/2/102 173/2/100
f 174/2/101 173/2/100 177/2/103
f 176/2/102 175/2/100 178/2/104
f 177/2/103 179/2/105 174/2/101
f 179/2/105 177/2/103 180/2/105
f 174/2/101 179/2/105 181/2/106
f 182/2/106 181/2/106 179/2/105
f 183/2/107 181/2/106 182/2/106
f 184/2/108 176/2/102 178/2/104
f 176/2/102 184/2/108 185/2/108
f 186/2/109 184/2/108 178/2/104
f 184/2/108 186/2/109 187/2/109
f 186/2/109 188/2/110 187/2/109
f 181/2/106 183/2/107 189/2/111
f 190/2/112 188/2/110 186/2/109
f 191/2/113 189/2/111 183/2/107
f 191/2/113 183/2/107 192/2/107
f 191/2/113 193/2/114 189/2/111
f 193/2/114 191/2/113 194/2/114
f 194/2/114 190/2/112 193/2/114
f 190/2/112 194/2/114 195/2/112
f 195/2/112 188/2/110 190/2/112
f 188/2/110 195/2/112 196/2/110
o RenderMesh_116069560918732_fce505bbe51f84ea
v 0.473838 0.067720 -0.000000
v 0.473838 0.000114 -0.067606
v 0.473838 0.047919 -0.047805
v 0.473838 -0.067492 -0.000000
v 0.473838 -0.047691 -0.047805
v 0.473838 -0.047691 0.047805
v 0.473838 0.000114 0.067606
v 0.473838 0.047919 0.047805
v 0.473838 0.047919 0.047805
v 0.473838 0.067720 -0.000000
v 0.458333 0.072226 -0.000000
v 0.473838 0.047919 -0.047805
v 0.458332 0.051105 0.050991
v 0.458333 0.051105 -0.050990
v 0.458332 0.000114 0.072112
v 0.458333 0.000114 -0.072112
v 0.473838 0.000114 0.067606
v 0.473838 0.000114 -0.067606
v 0.473838 -0.047691 0.047805
v 0.473838 -0.047691 -0.047805
v 0.458332 -0.050878 0.050991
v 0.458333 -0.050878 -0.050990
v 0.458333 -0.071998 -0.000000
v 0.473838 -0.067492 -0.000000
v -0.468152 0.060692 -0.000000
v -0.468152 0.000114 -0.060578
v -0.468152 -0.042721 -0.042835
v -0.468152 0.042949 -0.042835
v -0.468152 -0.042721 0.042835
v -0.468152 -0.060464 -0.000000
v -0.468152 0.000114 0.060578
v -0.468152 0.042949 0.042835
v -0.468152 -0.042721 0.042835
v -0.452152 0.000114 0.075722
v -0.468152 0.000114 0.060578
v -0.468152 0.042949 0.042835
v -0.452152 -0.053429 0.053543
v -0.452152 0.053658 0.053543
v -0.452152 -0.075607 -0.000000
v -0.452152 0.075837 -0.000000
v -0.468152 -0.060464 -0.000000
v -0.468152 0.060692 -0.000000
v -0.468152 -0.042721 -0.042835
v -0.468152 0.042949 -0.042835
v -0.452152 -0.053429 -0.053543
v -0.452152 0.053658 -0.053543
v -0.452152 0.000114 -0.075722
v -0.468152 0.000114 -0.060578
v 0.123110 0.050415 -0.000000
v 0.123110 0.031873 -0.044765
v 0.123110 0.044879 -0.044765
v 0.123110 0.063421 -0.000000
v 0.123110 0.044879 0.044765
v 0.123110 0.031873 0.044765
v 0.123110 -0.049302 -0.000000
v 0.123110 -0.043766 0.044765
v 0.123110 -0.062309 -0.000000
v 0.123110 -0.030759 0.044765
v 0.123110 -0.043766 -0.044765
v 0.123110 -0.030759 -0.044765
v -0.204421 -0.044505 0.044620
v -0.204421 -0.062987 -0.000000
v -0.191037 -0.076076 -0.000000
v -0.204421 -0.044505 -0.044620
v -0.191037 -0.053761 0.053875
v -0.191037 -0.053761 -0.053875
v -0.191038 0.000114 0.076191
v -0.191037 0.000114 -0.076191
v -0.204422 0.000114 0.063102
v -0.204421 0.000114 -0.063102
v -0.204421 0.044734 0.044620
v -0.204421 0.044734 -0.044620
v -0.191038 0.053989 0.053875
v -0.191037 0.053989 -0.053875
v -0.191037 0.076305 -0.000000
v -0.204421 0.063216 -0.000000
v 0.123110 0.063421 -0.000000
v -0.087633 0.063421 -0.000000
v -0.087633 0.044879 0.044765
v 0.123110 0.044879 0.044765
v 0.123110 0.044879 -0.044765
v -0.087633 0.044879 -0.044765
v 0.123110 -0.062309 -0.000000
v -0.087633 -0.043766 -0.044765
v 0.123110 -0.043766 -0.044765
v -0.087633 -0.062309 -0.000000
v 0.123110 -0.043766 0.044765
v -0.087633 -0.043766 0.044765
v -0.087633 0.031873 0.044765
v 0.123110 0.031873 0.044765
v 0.123110 0.044879 0.044765
v -0.087633 0.044879 0.044765
v -0.087633 0.044879 -0.044765
v 0.123110 0.044879 -0.044765
v 0.123110 0.031873 -0.044765
v -0.087633 0.031873 -0.044765
v -0.087633 -0.030759 -0.044765
v 0.123110 -0.030759 -0.044765
v 0.123110 -0.043766 -0.044765
v -0.087633 -0.043766 -0.044765
v -0.087633 -0.043766 0.044765
v 0.123110 -0.043766 0.044765
v 0.123110 -0.030759 0.044765
v -0.087633 -0.030759 0.044765
v -0.087633 0.050415 -0.000000
v -0.087633 0.044879 -0.044765
v -0.087633 0.031873 -0.044765
v -0.087633 0.063421 -0.000000
v -0.087633 0.044879 0.044765
v -0.087633 0.031873 0.044765
v -0.087633 -0.043766 0.044765
v -0.087633 -0.049302 -0.000000
v -0.087633 -0.062309 -0.000000
v -0.087633 -0.030759 0.044765
v -0.087633 -0.043766 -0.044765
v -0.087633 -0.030759 -0.044765
v -0.191037 -0.053761 0.053875
v -0.091888 -0.053761 0.053875
v -0.091888 0.000114 0.076191
v -0.091888 -0.076076 -0.000000
v -0.191038 0.000114 0.076191
v -0.191037 -0.076076 -0.000000
v -0.091888 0.053989 0.053875
v -0.191037 -0.053761 -0.053875
v -0.191038 0.053989 0.053875
v -0.091887 -0.053761 -0.053875
v -0.191037 0.076305 -0.000000
v -0.191037 0.000114 -0.076191
v -0.091888 0.076305 -0.000000
v -0.091887 0.000114 -0.076191
v -0.191037 0.053989 -0.053875
v -0.091888 0.053989 -0.053875
v -0.452152 0.000114 -0.075722
v -0.369118 0.000114 -0.075722
v -0.452152 -0.053429 -0.053543
v -0.369118 -0.053429 -0.053543
v -0.369118 0.053658 -0.053543
v -0.452152 -0.075607 -0.000000
v -0.452152 0.053658 -0.053543
v -0.369118 -0.075607 -0.000000
v -0.369118 0.075837 -0.000000
v -0.452152 -0.053429 0.053543
v -0.452152 0.075837 -0.000000
v -0.369118 -0.053429 0.053543
v -0.369119 0.053658 0.053543
v -0.452152 0.000114 0.075722
v -0.452152 0.053658 0.053543
v -0.369118 0.000114 0.075722
v 0.138944 0.072226 -0.000000
v 0.458332 0.051105 0.050991
v 0.458333 0.072226 -0.000000
v 0.138944 0.051105 0.050991
v 0.138944 0.051105 -0.050990
v 0.458332 0.000114 0.072112
v 0.458333 0.051105 -0.050990
v 0.138944 0.000114 0.072112
v 0.138944 0.000114 -0.072112
v 0.458332 -0.050878 0.050991
v 0.458333 0.000114 -0.072112
v 0.138944 -0.050878 0.050991
v 0.138944 -0.050878 -0.050990
v 0.138944 -0.071998 -0.000000
v 0.458333 -0.050878 -0.050990
v 0.458333 -0.071998 -0.000000
v -0.204421 -0.044505 -0.044620
v -0.353118 -0.044505 -0.044620
v -0.204421 0.000114 -0.063102
v -0.353118 0.000114 -0.063102
v -0.353118 -0.062987 -0.000000
v -0.204421 0.044734 -0.044620
v -0.204421 -0.062987 -0.000000
v -0.353118 0.044734 -0.044620
v -0.353118 -0.044505 0.044620
v -0.204421 0.063216 -0.000000
v -0.204421 -0.044505 0.044620
v -0.353118 0.063216 -0.000000
v -0.204422 0.000114 0.063102
v -0.204421 0.044734 0.044620
v -0.353119 0.000114 0.063102
v -0.353119 0.044734 0.044620
v -0.078504 0.067162 -0.000000
v -0.078504 0.019078 0.018964
v -0.078504 0.026933 -0.000000
v -0.078504 0.019078 -0.018964
v -0.078504 0.047525 0.047410
v -0.078504 0.047525 -0.047410
v -0.078504 0.000114 0.067048
v -0.078503 0.000114 -0.067048
v -0.078504 0.000114 0.026819
v -0.078503 0.000114 -0.026819
v -0.078504 -0.047295 0.047410
v -0.078503 -0.047295 -0.047410
v -0.078504 -0.018850 0.018964
v -0.078503 -0.018850 -0.018964
v -0.078504 -0.066935 -0.000000
v -0.078504 -0.026705 -0.000000
v -0.078504 0.047525 0.047410
v -0.078504 0.067162 -0.000000
v -0.091888 0.076305 -0.000000
v -0.078504 0.047525 -0.047410
v -0.091888 0.053989 0.053875
v -0.091888 0.053989 -0.053875
v -0.091888 0.000114 0.076191
v -0.091887 0.000114 -0.076191
v -0.078504 0.000114 0.067048
v -0.078503 0.000114 -0.067048
v -0.078504 -0.047295 0.047410
v -0.078503 -0.047295 -0.047410
v -0.091888 -0.053761 0.053875
v -0.091887 -0.053761 -0.053875
v -0.091888 -0.076076 -0.000000
v -0.078504 -0.066935 -0.000000
v -0.087633 -0.030759 0.044765
v 0.123110 -0.030759 0.044765
v -0.087633 -0.049302 -0.000000
v 0.123110 -0.049302 -0.000000
v -0.087633 -0.030759 -0.044765
v 0.123110 -0.030759 -0.044765
v 0.123110 0.031873 -0.044765
v -0.087633 0.050415 -0.000000
v -0.087633 0.031873 -0.044765
v 0.123110 0.050415 -0.000000
v -0.087633 0.031873 0.044765
v 0.123110 0.031873 0.044765
v 0.114944 0.018471 -0.018357
v 0.114944 0.046006 -0.045892
v 0.114944 0.000114 -0.064901
v 0.114944 0.065014 -0.000000
v 0.114944 0.000114 -0.025960
v 0.114944 0.026074 -0.000000
v 0.114944 -0.018243 -0.018357
v 0.114944 0.018471 0.018357
v 0.114944 -0.045778 -0.045892
v 0.114944 0.046006 0.045892
v 0.114944 -0.064787 -0.000000
v 0.114944 0.000114 0.064901
v 0.114944 -0.025846 -0.000000
v 0.114944 0.000114 0.025960
v 0.114944 -0.018243 0.018357
v 0.114944 -0.045778 0.045892
v 0.114944 -0.045778 0.045892
v 0.138944 0.000114 0.072112
v 0.114944 0.000114 0.064901
v 0.114944 0.046006 0.045892
v 0.138944 -0.050878 0.050991
v 0.138944 0.051105 0.050991
v 0.138944 -0.071998 -0.000000
v 0.138944 0.072226 -0.000000
v 0.114944 -0.064787 -0.000000
v 0.114944 0.065014 -0.000000
v 0.114944 -0.045778 -0.045892
v 0.114944 0.046006 -0.045892
v 0.138944 -0.050878 -0.050990
v 0.138944 0.051105 -0.050990
v 0.138944 0.000114 -0.072112
v 0.114944 0.000114 -0.064901
v -0.369118 -0.075607 -0.000000
v -0.353118 -0.044505 0.044620
v -0.369118 -0.053429 0.053543
v -0.369118 0.000114 0.075722
v -0.353118 -0.062987 -0.000000
v -0.353119 0.000114 0.063102
v -0.353118 -0.044505 -0.044620
v -0.353119 0.044734 0.044620
v -0.369118 -0.053429 -0.053543
v -0.369119 0.053658 0.053543
v -0.369118 0.000114 -0.075722
v -0.369118 0.075837 -0.000000
v -0.353118 0.000114 -0.063102
v -0.353118 0.063216 -0.000000
v -0.353118 0.044734 -0.044620
v -0.369118 0.053658 -0.053543
vn 1.0000 0.0005 0.0005
vn 0.2790 0.6790 0.6790
vn 0.2791 0.9603 -0.0000
vn 0.2790 0.9603 0.0005
vn 0.2790 0.6790 -0.6790
vn 0.2791 -0.0000 0.9603
vn 0.2791 -0.0000 -0.9603
vn 0.2790 0.0005 0.9603
vn 0.2791 -0.6790 0.6790
vn 0.2791 -0.6790 -0.6790
vn 0.2791 -0.9603 -0.0000
vn -1.0000 -0.0000 -0.0000
vn -1.0000 0.0005 0.0005
vn -0.6874 -0.5136 0.5136
vn -0.6873 0.0005 0.7264
vn -0.6874 -0.0000 0.7263
vn -0.6874 0.5135 0.5136
vn -0.6874 0.5135 0.5135
vn -0.6873 -0.7264 0.0009
vn -0.6873 0.7264 0.0008
vn -0.6873 -0.7264 0.0005
vn -0.6873 0.7264 0.0007
vn -0.6874 -0.5136 -0.5136
vn -0.6874 0.5135 -0.5136
vn -0.6874 0.5135 -0.5135
vn -0.6873 0.0005 -0.7264
vn -0.6874 -0.0000 -0.7263
vn -0.6992 -0.5055 0.5055
vn -0.6992 -0.7149 0.0003
vn -0.6992 -0.7149 0.0005
vn -0.6988 -0.5058 -0.5058
vn -0.6992 -0.5055 -0.5055
vn -0.6992 0.0005 0.7149
vn -0.6992 -0.0000 -0.7149
vn -0.6992 -0.0000 0.7149
vn -0.6992 0.5055 0.5055
vn -0.6992 0.5055 -0.5055
vn -0.6992 0.7149 0.0005
vn -0.6992 0.7149 0.0003
vn 0.0005 1.0000 0.0005
vn -0.0000 0.9239 0.3827
vn 0.0005 0.9239 0.3826
vn -0.0000 0.9239 -0.3827
vn 0.0007 0.9239 -0.3826
vn 0.0005 -1.0000 0.0005
vn 0.0005 -0.9239 -0.3826
vn -0.0000 -0.9239 -0.3827
vn 0.0005 -0.9239 0.3826
vn 0.0003 -0.9239 0.3826
vn 0.0005 0.0005 1.0000
vn 0.0005 0.0005 -1.0000
vn 0.0005 -0.7071 0.7071
vn -0.0000 0.7071 0.7071
vn -0.0000 -0.7071 -0.7071
vn -0.0000 0.7071 -0.7071
vn -0.0000 -0.7071 0.7071
vn 0.0006 -0.7071 0.7071
vn 0.5640 0.5839 0.5839
vn 0.5641 0.8257 -0.0000
vn 0.5639 0.8258 0.0005
vn 0.5645 0.5837 -0.5837
vn 0.5640 0.5839 -0.5839
vn 0.5640 0.0007 0.8258
vn 0.5641 -0.0000 -0.8257
vn 0.5640 0.0006 0.8258
vn 0.5641 -0.5839 0.5839
vn 0.5641 -0.5839 -0.5839
vn 0.5641 -0.5839 -0.5838
vn 0.5640 -0.8258 -0.0000
vn 0.5640 -0.8258 0.0005
vn 0.0003 0.9239 -0.3826
vn 0.0006 0.9239 -0.3826
vn 0.0007 0.9239 0.3826
vn 0.0006 0.9239 0.3826
vn 0.0007 -0.9239 -0.3826
vn -0.2878 -0.6772 0.6772
vn -0.2877 0.0005 0.9577
vn -0.2878 0.6772 0.6772
vn -0.2877 -0.9577 0.0003
vn -0.2877 0.9577 0.0007
vn -0.2877 -0.9577 0.0006
vn -0.2877 0.9577 0.0006
vn -0.2878 -0.6772 -0.6772
vn -0.2877 0.6772 -0.6772
vn -0.2877 -0.0000 -0.9577
vn -0.2877 0.0005 -0.9577
vn 0.6192 -0.7852 0.0003
vn 0.6193 -0.5552 0.5552
vn 0.6191 0.0004 0.7853
vn 0.6193 -0.7852 -0.0000
vn 0.6193 -0.0000 0.7851
vn 0.6193 -0.5552 -0.5552
vn 0.6193 0.5552 0.5552
vn 0.6192 0.0003 -0.7853
vn 0.6191 0.7853 0.0007
vn 0.6193 -0.0000 -0.7852
vn 0.6191 0.7853 0.0006
vn 0.6189 0.5554 -0.5554
vn 0.6193 0.5552 -0.5552
vt 0.000000 0.000000
s 1
f 197/3/115 198/3/115 199/3/115
f 198/3/115 200/3/115 201/3/115
f 198/3/115 202/3/115 200/3/115
f 198/3/115 197/3/115 202/3/115
f 197/3/115 203/3/115 202/3/115
f 203/3/115 197/3/115 204/3/115
f 205/3/116 206/3/117 207/3/118
f 208/3/119 207/3/118 206/3/117
f 207/3/118 209/3/116 205/3/116
f 207/3/118 208/3/119 210/3/119
f 211/3/120 205/3/116 209/3/116
f 208/3/119 212/3/121 210/3/119
f 205/3/116 211/3/120 213/3/122
f 212/3/121 208/3/119 214/3/121
f 211/3/120 215/3/123 213/3/122
f 216/3/124 212/3/121 214/3/121
f 215/3/123 211/3/120 217/3/123
f 212/3/121 216/3/124 218/3/124
f 219/3/125 215/3/123 217/3/123
f 216/3/124 219/3/125 218/3/124
f 215/3/123 219/3/125 220/3/125
f 219/3/125 216/3/124 220/3/125
f 221/3/126 222/3/127 223/3/127
f 222/3/127 221/3/126 224/3/127
f 225/3/127 221/3/126 223/3/127
f 225/3/127 223/3/127 226/3/127
f 221/3/126 225/3/127 227/3/127
f 221/3/126 227/3/127 228/3/127
f 229/3/128 230/3/129 231/3/130
f 232/3/131 231/3/130 230/3/129
f 230/3/129 229/3/128 233/3/128
f 230/3/129 234/3/132 232/3/131
f 235/3/133 233/3/128 229/3/128
f 236/3/134 232/3/131 234/3/132
f 229/3/128 237/3/135 235/3/133
f 232/3/131 236/3/134 238/3/136
f 239/3/137 235/3/133 237/3/135
f 236/3/134 240/3/138 238/3/136
f 235/3/133 239/3/137 241/3/137
f 240/3/138 236/3/134 242/3/139
f 243/3/140 241/3/137 239/3/137
f 243/3/140 240/3/138 242/3/139
f 239/3/137 244/3/141 243/3/140
f 240/3/138 243/3/140 244/3/141
f 245/3/115 246/3/115 247/3/115
f 247/3/115 248/3/115 245/3/115
f 249/3/115 245/3/115 248/3/115
f 245/3/115 249/3/115 250/3/115
f 251/3/115 252/3/115 253/3/115
f 252/3/115 251/3/115 254/3/115
f 255/3/115 251/3/115 253/3/115
f 251/3/115 255/3/115 256/3/115
f 257/3/142 258/3/143 259/3/144
f 260/3/145 259/3/144 258/3/143
f 259/3/144 261/3/142 257/3/142
f 259/3/144 260/3/145 262/3/146
f 263/3/147 257/3/142 261/3/142
f 264/3/148 262/3/146 260/3/145
f 257/3/142 263/3/147 265/3/149
f 260/3/145 266/3/148 264/3/148
f 267/3/150 265/3/149 263/3/147
f 268/3/151 264/3/148 266/3/148
f 263/3/147 269/3/150 267/3/150
f 264/3/148 268/3/151 270/3/151
f 271/3/152 267/3/150 269/3/150
f 268/3/151 271/3/152 270/3/151
f 267/3/150 271/3/152 272/3/153
f 271/3/152 268/3/151 272/3/153
f 273/3/154 274/3/154 275/3/155
f 273/3/154 275/3/155 276/3/156
f 277/3/157 274/3/154 273/3/154
f 277/3/157 278/3/158 274/3/154
f 279/3/159 280/3/160 281/3/161
f 280/3/160 279/3/159 282/3/159
f 283/3/162 282/3/159 279/3/159
f 282/3/159 283/3/162 284/3/163
f 285/3/164 286/3/164 287/3/164
f 285/3/164 287/3/164 288/3/164
f 289/3/165 290/3/165 291/3/165
f 289/3/165 291/3/165 292/3/165
f 293/3/165 294/3/165 295/3/165
f 293/3/165 295/3/165 296/3/165
f 297/3/164 298/3/164 299/3/164
f 297/3/164 299/3/164 300/3/164
f 301/3/127 302/3/127 303/3/127
f 302/3/127 301/3/127 304/3/127
f 301/3/127 305/3/127 304/3/127
f 305/3/127 301/3/127 306/3/127
f 307/3/127 308/3/127 309/3/127
f 308/3/127 307/3/127 310/3/127
f 311/3/127 309/3/127 308/3/127
f 308/3/127 312/3/127 311/3/127
f 313/3/166 314/3/166 315/3/164
f 314/3/166 313/3/166 316/3/159
f 313/3/166 315/3/164 317/3/164
f 318/3/159 316/3/159 313/3/166
f 317/3/164 315/3/164 319/3/167
f 320/3/168 316/3/159 318/3/159
f 317/3/164 319/3/167 321/3/167
f 320/3/168 322/3/168 316/3/159
f 319/3/167 323/3/154 321/3/167
f 324/3/165 322/3/168 320/3/168
f 323/3/154 319/3/167 325/3/154
f 324/3/165 326/3/165 322/3/168
f 325/3/154 327/3/169 323/3/154
f 324/3/165 328/3/169 326/3/165
f 327/3/169 325/3/154 328/3/169
f 328/3/169 324/3/165 327/3/169
f 329/3/165 330/3/165 331/3/168
f 330/3/165 332/3/168 331/3/168
f 333/3/169 330/3/165 329/3/165
f 331/3/168 332/3/168 334/3/159
f 335/3/169 333/3/169 329/3/165
f 332/3/168 336/3/159 334/3/159
f 335/3/169 337/3/154 333/3/169
f 334/3/159 336/3/159 338/3/170
f 337/3/154 335/3/169 339/3/154
f 336/3/159 340/3/170 338/3/170
f 339/3/154 341/3/167 337/3/154
f 338/3/170 340/3/170 342/3/164
f 341/3/167 339/3/154 343/3/167
f 342/3/164 341/3/167 343/3/167
f 340/3/170 344/3/164 342/3/164
f 341/3/167 342/3/164 344/3/164
f 345/3/154 346/3/167 347/3/154
f 346/3/167 345/3/154 348/3/167
f 347/3/154 349/3/169 345/3/154
f 346/3/167 348/3/167 350/3/164
f 349/3/169 347/3/154 351/3/169
f 352/3/164 350/3/164 348/3/167
f 349/3/169 351/3/169 353/3/165
f 350/3/164 352/3/164 354/3/171
f 355/3/165 353/3/165 351/3/169
f 356/3/166 354/3/171 352/3/164
f 353/3/165 355/3/165 357/3/168
f 358/3/159 354/3/171 356/3/166
f 359/3/168 357/3/168 355/3/165
f 357/3/168 359/3/168 358/3/159
f 354/3/171 358/3/159 360/3/159
f 360/3/159 358/3/159 359/3/168
f 361/3/168 362/3/168 363/3/165
f 364/3/165 363/3/165 362/3/168
f 362/3/168 361/3/168 365/3/159
f 363/3/165 364/3/165 366/3/169
f 367/3/159 365/3/159 361/3/168
f 368/3/169 366/3/169 364/3/165
f 365/3/159 367/3/159 369/3/170
f 368/3/169 370/3/154 366/3/169
f 371/3/170 369/3/170 367/3/159
f 370/3/154 368/3/169 372/3/154
f 373/3/164 369/3/170 371/3/170
f 372/3/154 374/3/167 370/3/154
f 369/3/170 373/3/164 375/3/164
f 374/3/167 372/3/154 376/3/167
f 375/3/164 373/3/164 376/3/167
f 374/3/167 376/3/167 373/3/164
f 377/3/115 378/3/115 379/3/115
f 380/3/115 377/3/115 379/3/115
f 378/3/115 377/3/115 381/3/115
f 377/3/115 380/3/115 382/3/115
f 383/3/115 378/3/115 381/3/115
f 380/3/115 384/3/115 382/3/115
f 378/3/115 383/3/115 385/3/115
f 384/3/115 380/3/115 386/3/115
f 387/3/115 385/3/115 383/3/115
f 386/3/115 388/3/115 384/3/115
f 385/3/115 387/3/115 389/3/115
f 388/3/115 386/3/115 390/3/115
f 387/3/115 391/3/115 389/3/115
f 390/3/115 391/3/115 388/3/115
f 389/3/115 391/3/115 392/3/115
f 391/3/115 390/3/115 392/3/115
f 393/3/172 394/3/173 395/3/174
f 396/3/175 395/3/174 394/3/173
f 395/3/174 397/3/172 393/3/172
f 395/3/174 396/3/175 398/3/176
f 399/3/177 393/3/172 397/3/172
f 396/3/175 400/3/178 398/3/176
f 393/3/172 399/3/177 401/3/179
f 400/3/178 396/3/175 402/3/178
f 399/3/177 403/3/180 401/3/179
f 404/3/181 400/3/178 402/3/178
f 403/3/180 399/3/177 405/3/180
f 400/3/178 404/3/181 406/3/182
f 407/3/183 403/3/180 405/3/180
f 404/3/181 407/3/183 406/3/182
f 403/3/180 407/3/183 408/3/184
f 407/3/183 404/3/181 408/3/184
f 409/3/185 410/3/186 411/3/154
f 412/3/154 411/3/154 410/3/186
f 411/3/154 412/3/154 413/3/187
f 414/3/188 413/3/187 412/3/154
f 415/3/162 416/3/159 417/3/163
f 416/3/159 415/3/162 418/3/159
f 418/3/159 419/3/189 416/3/159
f 419/3/189 418/3/159 420/3/160
f 421/3/127 422/3/127 423/3/127
f 421/3/127 424/3/127 422/3/127
f 421/3/127 423/3/127 425/3/127
f 424/3/127 421/3/127 426/3/127
f 423/3/127 427/3/127 425/3/127
f 428/3/127 424/3/127 426/3/127
f 427/3/127 423/3/127 429/3/127
f 430/3/127 424/3/127 428/3/127
f 431/3/127 427/3/127 429/3/127
f 428/3/127 432/3/127 430/3/127
f 427/3/127 431/3/127 433/3/127
f 432/3/127 428/3/127 434/3/127
f 431/3/127 435/3/127 433/3/127
f 435/3/127 432/3/127 434/3/127
f 435/3/127 431/3/127 436/3/127
f 432/3/127 435/3/127 436/3/127
f 437/3/190 438/3/191 439/3/191
f 440/3/192 439/3/191 438/3/191
f 438/3/191 437/3/190 441/3/190
f 438/3/191 442/3/192 440/3/192
f 443/3/193 441/3/190 437/3/190
f 444/3/194 440/3/192 442/3/192
f 437/3/190 445/3/195 443/3/193
f 440/3/192 444/3/194 446/3/196
f 447/3/197 443/3/193 445/3/195
f 444/3/194 448/3/198 446/3/196
f 443/3/193 447/3/197 449/3/197
f 448/3/198 444/3/194 450/3/198
f 451/3/199 449/3/197 447/3/197
f 451/3/199 448/3/198 450/3/198
f 447/3/197 452/3/200 451/3/199
f 448/3/198 451/3/199 452/3/200
f 453/3/201 454/3/202 455/3/202
f 456/3/203 455/3/202 454/3/202
f 454/3/202 453/3/201 457/3/204
f 454/3/202 458/3/205 456/3/203
f 459/3/206 457/3/204 453/3/201
f 460/3/207 456/3/203 458/3/205
f 453/3/201 461/3/206 459/3/206
f 456/3/203 460/3/207 462/3/207
f 463/3/208 459/3/206 461/3/206
f 464/3/209 462/3/207 460/3/207
f 459/3/206 463/3/208 465/3/210
f 464/3/209 460/3/207 466/3/211
f 467/3/212 465/3/210 463/3/208
f 467/3/212 464/3/209 466/3/211
f 463/3/208 468/3/213 467/3/212
f 464/3/209 467/3/212 468/3/213
o RenderMesh_131023252186281_7a3e992fd8917175
v -0.105812 0.036652 0.041616
v -0.468261 -0.004964 0.058854
v -0.468261 0.036652 0.041616
v -0.105812 -0.004964 0.058854
v -0.105812 0.053890 -0.000000
v -0.468261 -0.046580 0.041616
v -0.468261 0.053890 -0.000000
v -0.105812 -0.046580 0.041616
v -0.105812 0.036652 -0.041616
v -0.468261 -0.063817 -0.000000
v -0.468261 0.036652 -0.041616
v -0.105812 -0.063817 -0.000000
v -0.105812 -0.004964 -0.058854
v -0.468261 -0.046580 -0.041616
v -0.468261 -0.004964 -0.058854
v -0.105812 -0.046580 -0.041616
vn -0.0000 -0.7071 -0.7071
vn -0.0000 0.0005 -1.0000
vn -0.0000 -1.0000 0.0005
vn -0.0000 0.7071 -0.7071
vn -0.0000 -0.7071 0.7071
vn -0.0000 1.0000 0.0005
vn -0.0000 0.0005 1.0000
vn -0.0000 0.7071 0.7071
vt 0.000000 0.000000
s 1
f 469/4/214 470/4/215 471/4/214
f 470/4/215 469/4/214 472/4/215
f 471/4/214 473/4/216 469/4/214
f 472/4/215 474/4/217 470/4/215
f 473/4/216 471/4/214 475/4/216
f 474/4/217 472/4/215 476/4/217
f 475/4/216 477/4/218 473/4/216
f 474/4/217 476/4/217 478/4/219
f 477/4/218 475/4/216 479/4/218
f 480/4/219 478/4/219 476/4/217
f 479/4/218 481/4/220 477/4/218
f 478/4/219 480/4/219 482/4/221
f 481/4/220 479/4/218 483/4/220
f 484/4/221 482/4/221 480/4/219
f 483/4/220 484/4/221 481/4/220
f 484/4/221 483/4/220 482/4/221
o RenderMesh_138871468910177_834f651311a4271d
v -0.343395 0.086216 -0.044959
v -0.343395 0.039656 -0.044959
v -0.343395 0.039656 -0.020402
v -0.343395 0.086216 -0.020402
v -0.343395 0.039656 0.016691
v -0.331090 0.119178 -0.020402
v -0.331090 0.119178 -0.044959
v -0.343395 0.086216 0.016691
v -0.343395 0.039656 0.041249
v -0.343395 0.086216 0.041249
v -0.331090 0.119178 0.041249
v -0.331090 0.119178 0.016691
v 0.449061 0.102547 0.000942
v 0.462867 0.055791 -0.024462
v 0.449061 0.102547 -0.004653
v 0.462867 0.055791 0.020750
v 0.394138 0.040581 0.055252
v 0.382420 -0.002432 -0.078235
v 0.394138 0.040581 -0.058963
v 0.382420 -0.002432 0.074525
v 0.370702 -0.045446 0.055252
v 0.382420 -0.002432 0.074525
v 0.370702 -0.045446 -0.058963
v 0.339454 0.040581 0.055252
v 0.327737 -0.002432 -0.078235
v 0.339454 0.040581 -0.058963
v 0.327737 -0.002432 0.074525
v 0.316019 -0.045446 0.055252
v 0.327737 -0.002432 0.074525
v 0.316019 -0.045446 -0.058963
v 0.284771 0.040581 0.055252
v 0.273054 -0.002432 -0.078235
v 0.284771 0.040581 -0.058963
v 0.273054 -0.002432 0.074525
v 0.261336 -0.045446 0.055252
v 0.273054 -0.002432 0.074525
v 0.261336 -0.045446 -0.058963
v 0.241768 -0.002432 0.074525
v 0.230050 -0.045446 0.055252
v 0.261336 -0.045446 0.055252
v 0.273054 -0.002432 0.074525
v 0.296450 -0.002432 0.074525
v 0.284733 -0.045446 0.055252
v 0.316019 -0.045446 0.055252
v 0.327737 -0.002432 0.074525
v 0.351134 -0.002432 0.074525
v 0.339416 -0.045446 0.055252
v 0.370702 -0.045446 0.055252
v 0.382420 -0.002432 0.074525
v 0.261336 -0.045446 -0.058963
v 0.241767 -0.002432 -0.078235
v 0.273054 -0.002432 -0.078235
v 0.230050 -0.045446 -0.058963
v 0.316019 -0.045446 -0.058963
v 0.296450 -0.002432 -0.078235
v 0.327737 -0.002432 -0.078235
v 0.284733 -0.045446 -0.058963
v 0.370702 -0.045446 -0.058963
v 0.351134 -0.002432 -0.078235
v 0.382420 -0.002432 -0.078235
v 0.339416 -0.045446 -0.058963
v 0.316019 -0.045446 -0.058963
v 0.316019 -0.045446 0.055252
v 0.284733 -0.045446 -0.058963
v 0.284733 -0.045446 0.055252
v 0.370702 -0.045446 0.055252
v 0.339416 -0.045446 -0.058963
v 0.370702 -0.045446 -0.058963
v 0.339416 -0.045446 0.055252
v 0.261336 -0.045446 -0.058963
v 0.261336 -0.045446 0.055252
v 0.230050 -0.045446 -0.058963
v 0.230050 -0.045446 0.055252
v 0.449061 0.102547 -0.004653
v 0.401698 0.102547 -0.004653
v 0.401698 0.102547 0.000942
v 0.449061 0.102547 0.000942
v 0.308169 0.040581 0.055252
v 0.296450 -0.002432 0.074525
v 0.327737 -0.002432 0.074525
v 0.339454 0.040581 0.055252
v 0.362852 0.040581 0.055252
v 0.351134 -0.002432 0.074525
v 0.382420 -0.002432 0.074525
v 0.394138 0.040581 0.055252
v 0.253486 0.040581 0.055252
v 0.241768 -0.002432 0.074525
v 0.273054 -0.002432 0.074525
v 0.284771 0.040581 0.055252
v 0.327737 -0.002432 -0.078235
v 0.308169 0.040581 -0.058963
v 0.339454 0.040581 -0.058963
v 0.296450 -0.002432 -0.078235
v 0.382420 -0.002432 -0.078235
v 0.362852 0.040581 -0.058963
v 0.394138 0.040581 -0.058963
v 0.351134 -0.002432 -0.078235
v 0.273054 -0.002432 -0.078235
v 0.253486 0.040581 -0.058963
v 0.284771 0.040581 -0.058963
v 0.241767 -0.002432 -0.078235
v -0.343395 0.086216 0.016691
v -0.210422 0.086216 -0.020402
v -0.343395 0.086216 -0.020402
v -0.210422 0.086216 0.016691
v -0.210422 0.086216 0.041249
v -0.343395 0.086216 0.041249
v -0.210422 0.039656 0.041249
v -0.343395 0.039656 0.041249
v -0.222728 0.105993 0.041249
v -0.331090 0.119178 0.041249
v -0.210422 0.086216 0.041249
v -0.210422 0.086216 -0.044959
v -0.343395 0.039656 -0.044959
v -0.343395 0.086216 -0.044959
v -0.210422 0.039656 -0.044959
v -0.222728 0.105993 -0.044959
v -0.331090 0.119178 -0.044959
v -0.210422 0.086216 -0.044959
v 0.318975 0.055791 0.020750
v 0.462867 0.055791 0.020750
v 0.401698 0.102547 0.000942
v 0.449061 0.102547 0.000942
v -0.222728 0.105993 0.016691
v -0.331090 0.119178 0.016691
v -0.331090 0.119178 0.041249
v -0.222728 0.105993 0.041249
v -0.222728 0.105993 -0.044959
v -0.331090 0.119178 -0.044959
v -0.331090 0.119178 -0.020402
v -0.222728 0.105993 -0.020402
v 0.462867 0.055791 -0.024462
v 0.401698 0.102547 -0.004653
v 0.449061 0.102547 -0.004653
v 0.318975 0.055791 -0.024462
v 0.308169 0.040581 0.055252
v 0.339454 0.040581 -0.058963
v 0.308169 0.040581 -0.058963
v 0.339454 0.040581 0.055252
v 0.362852 0.040581 0.055252
v 0.394138 0.040581 -0.058963
v 0.362852 0.040581 -0.058963
v 0.394138 0.040581 0.055252
v 0.253486 0.040581 0.055252
v 0.284771 0.040581 -0.058963
v 0.253486 0.040581 -0.058963
v 0.284771 0.040581 0.055252
v -0.343395 0.086216 -0.020402
v -0.210422 0.086216 -0.020402
v -0.222728 0.105993 -0.020402
v -0.331090 0.119178 -0.020402
v -0.343395 0.086216 0.016691
v -0.222728 0.105993 0.016691
v -0.210422 0.086216 0.016691
v -0.331090 0.119178 0.016691
v 0.318975 0.055791 -0.024462
v 0.462867 0.055791 -0.024462
v 0.462867 0.055791 0.020750
v 0.318975 0.055791 0.020750
v 0.318975 0.055791 -0.024462
v 0.401698 0.102547 0.000942
v 0.401698 0.102547 -0.004653
v 0.318975 0.055791 0.020750
v 0.241767 -0.002432 -0.078235
v 0.253486 0.040581 0.055252
v 0.253486 0.040581 -0.058963
v 0.241768 -0.002432 0.074525
v 0.230050 -0.045446 0.055252
v 0.241768 -0.002432 0.074525
v 0.230050 -0.045446 -0.058963
v 0.296450 -0.002432 -0.078235
v 0.308169 0.040581 0.055252
v 0.308169 0.040581 -0.058963
v 0.296450 -0.002432 0.074525
v 0.284733 -0.045446 0.055252
v 0.296450 -0.002432 0.074525
v 0.284733 -0.045446 -0.058963
v 0.351134 -0.002432 -0.078235
v 0.362852 0.040581 0.055252
v 0.362852 0.040581 -0.058963
v 0.351134 -0.002432 0.074525
v 0.339416 -0.045446 0.055252
v 0.351134 -0.002432 0.074525
v 0.339416 -0.045446 -0.058963
v -0.210422 0.039656 0.016691
v -0.210422 0.086216 0.016691
v -0.210422 0.086216 0.041249
v -0.210422 0.039656 0.041249
v -0.210422 0.039656 -0.020402
v -0.222728 0.105993 0.016691
v -0.222728 0.105993 0.041249
v -0.210422 0.086216 -0.020402
v -0.210422 0.039656 -0.044959
v -0.210422 0.086216 -0.044959
v -0.222728 0.105993 -0.044959
v -0.222728 0.105993 -0.020402
vn -0.9831 0.1832 0.0005
vn -1.0000 0.0005 0.0005
vn -0.9923 0.1236 0.0005
vn -0.9368 0.3497 -0.0000
vn -0.9366 0.3505 0.0006
vn -0.9366 0.3503 0.0004
vn 0.9591 0.2832 -0.0000
vn 0.9591 0.2829 0.0004
vn 0.9649 -0.2625 0.0004
vn 0.9649 -0.2626 0.0002
vn 0.9650 -0.2624 0.0004
vn 0.9650 -0.2624 0.0005
vn 0.9648 -0.2628 -0.0000
vn 0.9649 -0.2625 0.0003
vn 0.0005 -0.0122 0.9999
vn -0.0000 -0.4089 0.9126
vn 0.0005 0.0122 0.9999
vn 0.0005 -0.4087 -0.9127
vn 0.0005 -0.0123 -0.9999
vn 0.0005 0.0122 -0.9999
vn -0.0000 -0.4089 -0.9126
vn 0.0005 -1.0000 0.0005
vn 0.0005 1.0000 0.0005
vn -0.0000 0.4089 0.9126
vn 0.0004 0.0122 0.9999
vn -0.0000 0.4089 -0.9126
vn 0.0005 -0.0122 -0.9999
vn 0.0005 0.0123 -0.9999
vn 0.0005 0.4087 -0.9127
vn 0.0005 0.0005 1.0000
vn 0.0005 0.0005 -1.0000
vn 0.0006 0.3903 0.9207
vn -0.0000 0.3901 0.9208
vn 0.0005 0.3902 0.9207
vn 0.1208 0.9927 -0.0000
vn -0.0000 0.3901 -0.9208
vn 0.0005 0.3902 -0.9207
vn -0.4918 0.8707 0.0004
vn -0.4921 0.8706 -0.0000
vn -0.9650 0.2624 0.0005
vn -0.9649 0.2625 0.0004
vn -0.9650 0.2622 0.0004
vn -0.9649 0.2625 0.0003
vn -0.9648 0.2629 -0.0000
vn -0.9649 0.2626 0.0004
vn -0.9650 0.2623 0.0005
vn -0.9648 0.2628 -0.0000
vn -0.9650 0.2624 0.0004
vn -0.9650 0.2623 0.0006
vn 1.0000 0.0005 0.0005
vn 0.9792 0.2027 0.0005
vn 0.9550 0.2965 0.0005
vn 0.8491 0.5283 -0.0000
vn 0.8493 0.5279 0.0005
vt 0.625000 0.250000
vt 0.375000 0.250000
vt 0.375000 0.166667
vt 0.625000 0.166667
vt 0.375000 0.083333
vt 0.625000 0.083333
vt 0.375000 0.000000
vt 0.625000 0.000000
vt 0.625000 0.750000
vt 0.500000 0.500000
vt 0.625000 0.500000
vt 0.500000 0.750000
vt 0.375000 0.750000
vt 0.375000 0.500000
vt 0.500000 1.000000
vt 0.375000 1.000000
vt 0.500000 0.250000
vt 0.125000 0.500000
vt 0.125000 0.750000
vt 0.875000 0.750000
vt 0.875000 0.500000
vt 0.625000 1.000000
vt 0.875000 0.666667
vt 0.625000 0.583333
vt 0.875000 0.583333
vt 0.625000 0.666667
vt 0.500000 0.000000
vt 0.375000 0.666667
vt 0.375000 0.583333
s 1
f 485/5/222 486/6/223 487/7/223
f 485/5/222 487/7/223 488/8/224
f 488/8/224 487/7/223 489/9/223
f 485/5/222 488/8/224 490/8/225
f 491/5/226 485/5/222 490/8/225
f 488/8/224 489/9/223 492/10/224
f 492/10/224 489/9/223 493/11/223
f 492/10/224 493/11/223 494/12/222
f 492/10/224 494/12/222 495/12/225
f 496/10/227 492/10/224 495/12/225
f 497/5/228 498/11/228 499/12/228
f 498/11/228 497/5/228 500/6/229
f 501/13/230 502/14/231 503/15/230
f 504/16/232 502/14/231 501/13/230
f 505/17/233 502/14/234 506/16/232
f 502/14/234 505/17/233 507/18/235
f 508/13/232 509/14/230 510/15/235
f 511/16/235 509/14/230 508/13/232
f 512/17/234 509/14/235 513/16/232
f 509/14/235 512/17/234 514/18/234
f 515/13/234 516/14/233 517/15/233
f 518/16/230 516/14/233 515/13/234
f 519/17/230 516/14/232 520/16/232
f 516/14/232 519/17/230 521/18/235
f 522/19/236 523/20/237 524/17/237
f 524/17/237 525/16/238 522/19/236
f 526/19/236 527/20/237 528/17/237
f 528/17/237 529/16/238 526/19/236
f 530/19/236 531/20/237 532/17/237
f 532/17/237 533/16/238 530/19/236
f 534/18/239 535/21/240 536/14/241
f 535/21/240 534/18/239 537/6/242
f 538/18/242 539/21/240 540/14/241
f 539/21/240 538/18/242 541/6/242
f 542/18/242 543/21/240 544/14/241
f 543/21/240 542/18/242 545/6/242
f 546/18/243 547/17/243 548/22/243
f 548/22/243 547/17/243 549/23/243
f 550/17/243 551/22/243 552/18/243
f 551/22/243 550/17/243 553/23/243
f 554/18/243 555/17/243 556/22/243
f 556/22/243 555/17/243 557/23/243
f 558/24/244 559/13/244 560/15/244
f 558/24/244 560/15/244 561/25/244
f 562/26/245 563/19/236 564/16/246
f 564/16/246 565/13/245 562/26/245
f 566/26/245 567/19/236 568/16/246
f 568/16/246 569/13/245 566/26/245
f 570/26/245 571/19/236 572/16/246
f 572/16/246 573/13/245 570/26/245
f 574/14/241 575/5/247 576/15/247
f 575/5/247 574/14/241 577/21/248
f 578/14/249 579/5/250 580/15/247
f 579/5/250 578/14/249 581/21/248
f 582/14/249 583/5/247 584/15/247
f 583/5/247 582/14/249 585/21/248
f 586/27/244 587/28/244 588/29/244
f 587/28/244 586/27/244 589/30/244
f 590/13/251 591/26/251 592/17/251
f 593/20/251 592/17/251 591/26/251
f 591/26/251 594/13/251 595/26/251
f 591/26/251 596/13/251 594/13/251
f 597/15/252 598/6/252 599/5/252
f 598/6/252 597/15/252 600/18/252
f 601/15/252 599/5/252 602/5/252
f 599/5/252 601/15/252 603/15/252
f 604/18/253 605/6/254 606/15/254
f 605/6/254 607/5/255 606/15/254
f 608/30/256 609/27/256 610/24/256
f 608/30/256 610/24/256 611/13/256
f 612/15/256 613/25/256 614/29/256
f 612/15/256 614/29/256 615/28/256
f 616/20/257 617/13/257 618/26/258
f 617/13/257 616/20/257 619/17/257
f 620/24/244 621/15/244 622/25/244
f 621/15/244 620/24/244 623/13/244
f 624/24/244 625/15/244 626/25/244
f 625/15/244 624/24/244 627/13/244
f 628/24/244 629/15/244 630/25/244
f 629/15/244 628/24/244 631/13/244
f 632/29/251 633/28/251 634/28/251
f 632/29/251 634/28/251 635/29/251
f 636/27/252 637/30/252 638/30/252
f 637/30/252 636/27/252 639/27/252
f 640/17/243 641/23/243 642/22/243
f 640/17/243 642/22/243 643/18/243
f 644/17/259 645/15/259 646/13/259
f 645/15/259 644/17/259 647/18/260
f 648/21/261 649/12/262 650/5/262
f 649/12/262 648/21/261 651/31/262
f 648/21/261 652/11/261 653/31/263
f 654/6/264 652/11/261 648/21/261
f 655/21/265 656/12/266 657/5/265
f 656/12/266 655/21/265 658/31/267
f 655/21/264 659/11/268 660/31/267
f 661/6/269 659/11/268 655/21/264
f 662/21/270 663/12/262 664/5/264
f 663/12/262 662/21/270 665/31/269
f 662/21/269 666/11/262 667/31/262
f 668/6/269 666/11/262 662/21/269
f 669/32/271 670/30/272 671/13/273
f 669/32/271 671/13/273 672/17/271
f 673/33/271 670/30/272 669/32/271
f 674/30/274 671/13/273 670/30/272
f 671/13/273 674/30/274 675/13/275
f 676/28/272 670/30/272 673/33/271
f 677/18/271 676/28/272 673/33/271
f 677/18/271 678/15/273 676/28/272
f 679/15/274 676/28/272 678/15/273
f 676/28/272 679/15/274 680/28/274
