# Blender 5.2.0 LTS
# www.blender.org
mtllib ducky mag.mtl
o RenderMesh_87363170616741
v -0.209390 0.452714 0.033132
v -0.209390 -0.335121 0.033132
v -0.192213 -0.335121 0.076656
v -0.192213 0.452714 0.076656
v -0.003248 -0.335121 0.076656
v -0.209390 0.452714 -0.033132
v -0.003248 0.452714 0.076656
v 0.013929 -0.335121 0.033132
v 0.013929 0.452714 0.033132
v 0.013929 -0.335121 -0.033133
v -0.209390 -0.335121 -0.033132
v 0.013929 0.452714 -0.033133
v -0.003248 -0.335121 -0.076657
v -0.192213 0.452714 -0.076656
v -0.192213 -0.335121 -0.076656
v -0.003248 0.452714 -0.076657
v -0.128288 -0.316359 -0.084711
v -0.075503 -0.305280 -0.084711
v -0.067173 -0.316359 -0.084711
v -0.119958 -0.305280 -0.084711
v -0.104024 -0.291909 -0.084711
v -0.091437 -0.291909 -0.084711
v -0.097731 -0.288663 -0.084711
v -0.097731 -0.366229 -0.084711
v -0.055328 -0.323617 -0.084711
v -0.140134 -0.323617 -0.084711
v -0.046964 -0.323617 -0.084711
v -0.148497 -0.323617 -0.084711
v 0.000784 -0.366229 -0.084711
v -0.196245 -0.366229 -0.084711
v -0.035487 -0.318268 -0.084711
v -0.159974 -0.318268 -0.084711
v 0.017438 -0.331364 -0.084711
v -0.212900 -0.331364 -0.084711
v 0.003745 -0.311010 -0.084711
v -0.019323 -0.307381 -0.084711
v -0.007140 -0.306617 -0.084711
v -0.199207 -0.311010 -0.084711
v -0.176138 -0.307381 -0.084711
v -0.188322 -0.306617 -0.084711
v -0.091437 -0.291909 0.084710
v -0.097731 -0.288663 0.084710
v -0.104024 -0.291909 0.084711
v -0.075503 -0.305280 0.084710
v -0.119958 -0.305280 0.084711
v -0.128288 -0.316359 0.084711
v -0.067173 -0.316359 0.084710
v -0.097731 -0.366229 0.084710
v -0.055328 -0.323617 0.084710
v -0.140134 -0.323617 0.084711
v -0.046964 -0.323617 0.084710
v -0.148497 -0.323617 0.084711
v 0.000784 -0.366229 0.084710
v -0.196245 -0.366229 0.084711
v -0.035487 -0.318268 0.084710
v -0.159974 -0.318268 0.084711
v 0.017438 -0.331364 0.084710
v -0.212900 -0.331364 0.084711
v 0.003746 -0.311010 0.084710
v -0.019323 -0.307381 0.084710
v -0.007140 -0.306617 0.084710
v -0.199207 -0.311010 0.084711
v -0.176138 -0.307381 0.084711
v -0.188321 -0.306617 0.084711
v -0.199207 -0.311010 0.084711
v -0.189551 -0.302127 0.079492
v -0.203544 -0.307802 0.079494
v -0.188321 -0.306617 0.084711
v -0.176138 -0.307381 0.084711
v -0.212900 -0.331364 0.084711
v -0.173745 -0.303167 0.079495
v -0.159974 -0.318268 0.084711
v -0.192094 -0.293830 0.000001
v -0.156352 -0.314603 0.079594
v -0.148497 -0.323617 0.084711
v -0.168850 -0.295418 0.000001
v -0.218811 -0.330304 0.079460
v -0.199916 -0.369472 0.079495
v -0.196245 -0.366229 0.084711
v -0.230780 -0.329799 0.000000
v -0.212323 -0.302019 0.000000
v -0.203544 -0.307802 -0.079493
v -0.097731 -0.370815 0.079478
v -0.097731 -0.366229 0.084710
v 0.000784 -0.366229 0.084710
v -0.206981 -0.376331 0.000001
v 0.004454 -0.369472 0.079494
v -0.097731 -0.379304 0.000000
v 0.017438 -0.331364 0.084710
v -0.199916 -0.369472 -0.079494
v 0.011519 -0.376331 -0.000001
v -0.218811 -0.330304 -0.079459
v -0.212900 -0.331364 -0.084711
v -0.196245 -0.366229 -0.084711
v -0.199207 -0.311010 -0.084711
v -0.097731 -0.370815 -0.079478
v -0.097731 -0.366229 -0.084711
v 0.000784 -0.366229 -0.084711
v 0.004454 -0.369472 -0.079496
v 0.017438 -0.331364 -0.084711
v 0.023349 -0.330304 -0.079461
v 0.035318 -0.329799 -0.000001
v 0.008083 -0.307802 -0.079494
v 0.023350 -0.330304 0.079459
v 0.003745 -0.311010 -0.084711
v 0.008083 -0.307802 0.079492
v 0.016862 -0.302019 -0.000001
v 0.003746 -0.311010 0.084710
v -0.003367 -0.293830 -0.000001
v -0.005911 -0.302127 -0.079492
v -0.007140 -0.306617 -0.084711
v -0.019323 -0.307381 -0.084711
v -0.005910 -0.302127 0.079490
v -0.007140 -0.306617 0.084710
v -0.019323 -0.307381 0.084710
v -0.021717 -0.303167 -0.079496
v -0.035487 -0.318268 -0.084711
v -0.021716 -0.303167 0.079494
v -0.035487 -0.318268 0.084710
v -0.026611 -0.295418 -0.000001
v -0.039109 -0.314603 -0.079594
v -0.046964 -0.323617 -0.084711
v -0.039109 -0.314603 0.079592
v -0.046964 -0.323617 0.084710
v -0.046602 -0.307974 -0.000001
v -0.048624 -0.319230 -0.079685
v -0.052336 -0.311156 -0.000001
v -0.048624 -0.319230 0.079683
v -0.053311 -0.319321 -0.079730
v -0.053311 -0.319321 0.079728
v -0.055328 -0.323617 -0.084711
v -0.049161 -0.311357 -0.000001
v -0.055328 -0.323617 0.084710
v -0.053082 -0.308203 -0.000001
v -0.062553 -0.313410 -0.079640
v -0.067173 -0.316359 -0.084711
v -0.070583 -0.302602 -0.079544
v -0.075503 -0.305280 -0.084711
v -0.062553 -0.313410 0.079638
v -0.067173 -0.316359 0.084710
v -0.070583 -0.302602 0.079543
v -0.075503 -0.305280 0.084710
v -0.060638 -0.297861 -0.000001
v -0.079687 -0.281984 -0.000001
v -0.087461 -0.288448 0.079509
v -0.091437 -0.291909 0.084710
v -0.087461 -0.288448 -0.079511
v -0.091437 -0.291909 -0.084711
v -0.097731 -0.275587 0.000000
v -0.097731 -0.284076 0.079477
v -0.097731 -0.288663 0.084710
v -0.104024 -0.291909 0.084711
v -0.097731 -0.284076 -0.079477
v -0.097731 -0.288663 -0.084711
v -0.104024 -0.291909 -0.084711
v -0.108000 -0.288448 0.079511
v -0.119958 -0.305280 0.084711
v -0.108000 -0.288448 -0.079510
v -0.119958 -0.305280 -0.084711
v -0.115775 -0.281984 0.000000
v -0.124878 -0.302602 0.079544
v -0.124878 -0.302602 -0.079543
v -0.128288 -0.316359 -0.084711
v -0.134823 -0.297861 0.000000
v -0.128288 -0.316359 0.084711
v -0.142379 -0.308203 0.000000
v -0.132908 -0.313410 -0.079639
v -0.140134 -0.323617 -0.084711
v -0.132908 -0.313410 0.079640
v -0.140134 -0.323617 0.084711
v -0.142150 -0.319321 -0.079729
v -0.148497 -0.323617 -0.084711
v -0.146301 -0.311357 0.000001
v -0.142150 -0.319321 0.079730
v -0.146838 -0.319230 -0.079683
v -0.146838 -0.319230 0.079684
v -0.148859 -0.307974 0.000001
v -0.143125 -0.311156 0.000001
v -0.156352 -0.314603 -0.079592
v -0.159974 -0.318268 -0.084711
v -0.173745 -0.303167 -0.079494
v -0.176138 -0.307381 -0.084711
v -0.189551 -0.302127 -0.079491
v -0.188322 -0.306617 -0.084711
vn -0.6243 0.7745 0.1021
vn -0.9868 0.0005 0.1618
vn -0.7236 0.0005 0.6902
vn -0.3027 0.9083 0.2888
vn 0.7238 -0.0000 0.6900
vn -0.6243 0.7745 -0.1021
vn 0.3031 0.9082 0.2887
vn 0.9868 0.0005 0.1617
vn 0.6246 0.7742 0.1021
vn 0.9868 0.0005 -0.1617
vn -0.9868 0.0005 -0.1617
vn 0.6246 0.7742 -0.1021
vn 0.7238 0.0005 -0.6900
vn -0.3027 0.9083 -0.2887
vn -0.7236 -0.0000 -0.6902
vn 0.3031 0.9082 -0.2887
vn 0.0002 0.0003 -1.0000
vn -0.0000 -0.0000 -1.0000
vn 0.0001 0.0001 1.0000
vn 0.0001 0.0002 1.0000
vn 0.0002 0.0005 1.0000
vn 0.0002 0.0003 1.0000
vn -0.0000 -0.0000 1.0000
vn 0.0001 0.0003 1.0000
vn -0.4355 0.5563 0.7077
vn -0.1454 0.9553 0.2575
vn -0.5793 0.7608 0.2927
vn -0.1170 0.7402 0.6621
vn 0.2259 0.6981 0.6795
vn -0.6681 -0.0064 0.7440
vn 0.2864 0.9207 0.2652
vn 0.3530 0.6326 0.6893
vn -0.1512 0.9885 0.0005
vn 0.4704 0.8235 0.3172
vn 0.1517 0.7187 0.6786
vn 0.2983 0.9545 0.0005
vn -0.9398 0.0777 0.3328
vn -0.4511 -0.8521 0.2652
vn -0.3359 -0.6356 0.6951
vn -0.9973 0.0728 0.0005
vn -0.6073 0.7945 0.0005
vn -0.5793 0.7608 -0.2927
vn 0.0002 -0.9650 0.2624
vn 0.0002 -0.7997 0.6004
vn 0.3354 -0.6357 0.6953
vn -0.4601 -0.8879 0.0005
vn 0.4506 -0.8524 0.2653
vn -0.0000 -1.0000 -0.0000
vn 0.6683 -0.0064 0.7438
vn -0.4510 -0.8522 -0.2652
vn 0.4605 -0.8877 0.0005
vn -0.9398 0.0777 -0.3327
vn -0.6681 -0.0064 -0.7440
vn -0.3359 -0.6356 -0.6952
vn -0.4354 0.5563 -0.7077
vn 0.0002 -0.9650 -0.2624
vn 0.0002 -0.7997 -0.6004
vn 0.3354 -0.6357 -0.6953
vn 0.4506 -0.8524 -0.2653
vn 0.6683 -0.0064 -0.7438
vn 0.9399 0.0776 -0.3326
vn 0.9973 0.0728 0.0005
vn 0.5796 0.7606 -0.2926
vn 0.9399 0.0777 0.3326
vn 0.4358 0.5562 -0.7076
vn 0.5796 0.7606 0.2926
vn 0.6069 0.7948 0.0005
vn 0.4358 0.5562 0.7076
vn 0.1507 0.9886 0.0005
vn 0.1458 0.9552 -0.2575
vn 0.1175 0.7402 -0.6620
vn -0.2255 0.6981 -0.6796
vn 0.1458 0.9552 0.2576
vn 0.1175 0.7402 0.6620
vn -0.2255 0.6981 0.6795
vn -0.2869 0.9205 -0.2652
vn -0.3534 0.6325 -0.6892
vn -0.2869 0.9205 0.2652
vn -0.3534 0.6325 0.6892
vn -0.2988 0.9543 0.0005
vn -0.4708 0.8233 -0.3171
vn -0.1522 0.7186 -0.6786
vn -0.4708 0.8233 0.3171
vn -0.1522 0.7186 0.6786
vn -0.4981 0.8671 0.0005
vn -0.2733 0.9051 -0.3258
vn -0.3300 0.9440 0.0005
vn -0.2733 0.9051 0.3258
vn 0.1927 0.9140 -0.3571
vn 0.1927 0.9140 0.3571
vn 0.1820 0.7031 -0.6874
vn 0.2133 0.9770 0.0005
vn 0.1820 0.7031 0.6874
vn 0.6902 0.7237 0.0005
vn 0.6391 0.6823 -0.3551
vn 0.4602 0.5230 -0.7174
vn 0.6841 0.6521 -0.3268
vn 0.5005 0.4754 -0.7235
vn 0.6390 0.6823 0.3551
vn 0.4602 0.5230 0.7174
vn 0.6841 0.6521 0.3268
vn 0.5005 0.4754 0.7235
vn 0.7253 0.6884 0.0005
vn 0.4978 0.8673 0.0005
vn 0.4810 0.8271 0.2908
vn 0.3860 0.6188 0.6842
vn 0.4810 0.8271 -0.2909
vn 0.3860 0.6188 -0.6842
vn -0.0000 1.0000 -0.0000
vn 0.0002 0.9696 0.2447
vn 0.0002 0.7264 0.6873
vn -0.3865 0.6186 0.6841
vn 0.0002 0.9696 -0.2448
vn 0.0002 0.7264 -0.6873
vn -0.3865 0.6186 -0.6841
vn -0.4814 0.8269 0.2906
vn -0.5009 0.4752 0.7234
vn -0.4814 0.8269 -0.2906
vn -0.5009 0.4753 -0.7234
vn -0.4980 0.8672 0.0005
vn -0.6838 0.6523 0.3269
vn -0.6838 0.6523 -0.3270
vn -0.4599 0.5231 -0.7175
vn -0.7251 0.6887 0.0005
vn -0.4599 0.5231 0.7175
vn -0.6899 0.7239 -0.0000
vn -0.6388 0.6825 -0.3552
vn -0.1816 0.7031 -0.6875
vn -0.6388 0.6825 0.3552
vn -0.1816 0.7031 0.6875
vn -0.1923 0.9141 -0.3571
vn 0.1517 0.7187 -0.6786
vn -0.2138 0.9769 0.0005
vn -0.1923 0.9141 0.3571
vn 0.2737 0.9050 -0.3258
vn 0.2737 0.9050 0.3258
vn 0.4977 0.8674 0.0005
vn 0.3304 0.9438 0.0005
vn 0.4704 0.8235 -0.3172
vn 0.3529 0.6327 -0.6893
vn 0.2864 0.9207 -0.2652
vn 0.2259 0.6980 -0.6795
vn -0.1454 0.9553 -0.2575
vn -0.1170 0.7402 -0.6621
vt 0.000000 0.000000
s 1
f 1/1/1 2/1/2 3/1/3
f 1/1/1 3/1/3 4/1/4
f 4/1/4 3/1/3 5/1/5
f 6/1/6 2/1/2 1/1/1
f 5/1/5 7/1/7 4/1/4
f 7/1/7 1/1/1 4/1/4
f 8/1/8 7/1/7 5/1/5
f 9/1/9 1/1/1 7/1/7
f 8/1/8 9/1/9 7/1/7
f 9/1/9 6/1/6 1/1/1
f 10/1/10 9/1/9 8/1/8
f 6/1/6 11/1/11 2/1/2
f 10/1/10 12/1/12 9/1/9
f 6/1/6 9/1/9 12/1/12
f 13/1/13 12/1/12 10/1/10
f 14/1/14 11/1/11 6/1/6
f 6/1/6 12/1/12 14/1/14
f 14/1/14 15/1/15 11/1/11
f 13/1/13 16/1/16 12/1/12
f 14/1/14 12/1/12 16/1/16
f 15/1/15 16/1/16 13/1/13
f 16/1/16 15/1/15 14/1/14
f 17/1/17 18/1/17 19/1/17
f 18/1/17 17/1/17 20/1/17
f 21/1/17 18/1/17 20/1/17
f 18/1/17 21/1/17 22/1/17
f 22/1/17 21/1/17 23/1/17
f 17/1/17 19/1/17 24/1/18
f 24/1/18 19/1/17 25/1/17
f 24/1/18 26/1/17 17/1/17
f 24/1/18 25/1/17 27/1/17
f 24/1/18 28/1/17 26/1/17
f 27/1/17 29/1/17 24/1/18
f 30/1/17 28/1/17 24/1/18
f 31/1/17 29/1/17 27/1/17
f 28/1/17 30/1/17 32/1/17
f 29/1/17 31/1/17 33/1/17
f 34/1/17 32/1/17 30/1/17
f 33/1/17 31/1/17 35/1/17
f 36/1/17 35/1/17 31/1/17
f 35/1/17 36/1/17 37/1/17
f 38/1/17 32/1/17 34/1/17
f 32/1/17 38/1/17 39/1/17
f 39/1/17 38/1/17 40/1/17
f 41/1/19 42/1/20 43/1/21
f 44/1/21 41/1/19 43/1/21
f 45/1/22 44/1/21 43/1/21
f 46/1/22 44/1/21 45/1/22
f 44/1/21 46/1/22 47/1/22
f 48/1/23 47/1/22 46/1/22
f 47/1/22 48/1/23 49/1/22
f 48/1/23 46/1/22 50/1/24
f 48/1/23 51/1/22 49/1/22
f 52/1/24 48/1/23 50/1/24
f 53/1/22 51/1/22 48/1/23
f 48/1/23 52/1/24 54/1/22
f 53/1/22 55/1/22 51/1/22
f 56/1/22 54/1/22 52/1/24
f 57/1/22 55/1/22 53/1/22
f 56/1/22 58/1/22 54/1/22
f 55/1/22 57/1/22 59/1/22
f 59/1/22 60/1/22 55/1/22
f 60/1/22 59/1/22 61/1/22
f 58/1/22 56/1/22 62/1/22
f 63/1/22 62/1/22 56/1/22
f 62/1/22 63/1/22 64/1/24
f 65/1/25 66/1/26 67/1/27
f 66/1/26 65/1/25 68/1/28
f 68/1/28 69/1/29 66/1/26
f 67/1/27 70/1/30 65/1/25
f 71/1/31 66/1/26 69/1/29
f 72/1/32 71/1/31 69/1/29
f 73/1/33 66/1/26 71/1/31
f 73/1/33 67/1/27 66/1/26
f 71/1/31 72/1/32 74/1/34
f 72/1/32 75/1/35 74/1/34
f 76/1/36 71/1/31 74/1/34
f 71/1/31 76/1/36 73/1/33
f 70/1/30 67/1/27 77/1/37
f 77/1/37 78/1/38 70/1/30
f 79/1/39 70/1/30 78/1/38
f 80/1/40 77/1/37 67/1/27
f 80/1/40 78/1/38 77/1/37
f 67/1/27 73/1/33 81/1/41
f 67/1/27 81/1/41 80/1/40
f 82/1/42 81/1/41 73/1/33
f 82/1/42 80/1/40 81/1/41
f 83/1/43 79/1/39 78/1/38
f 79/1/39 83/1/43 84/1/44
f 83/1/43 85/1/45 84/1/44
f 78/1/38 80/1/40 86/1/46
f 85/1/45 83/1/43 87/1/47
f 78/1/38 88/1/48 83/1/43
f 88/1/48 78/1/38 86/1/46
f 88/1/48 87/1/47 83/1/43
f 87/1/47 89/1/49 85/1/45
f 80/1/40 90/1/50 86/1/46
f 90/1/50 88/1/48 86/1/46
f 91/1/51 87/1/47 88/1/48
f 90/1/50 80/1/40 92/1/52
f 80/1/40 82/1/42 92/1/52
f 93/1/53 90/1/50 92/1/52
f 92/1/52 82/1/42 93/1/53
f 90/1/50 93/1/53 94/1/54
f 95/1/55 93/1/53 82/1/42
f 94/1/54 96/1/56 90/1/50
f 96/1/56 88/1/48 90/1/50
f 94/1/54 97/1/57 96/1/56
f 98/1/58 96/1/56 97/1/57
f 99/1/59 88/1/48 96/1/56
f 96/1/56 98/1/58 99/1/59
f 88/1/48 99/1/59 91/1/51
f 100/1/60 99/1/59 98/1/58
f 101/1/61 99/1/59 100/1/60
f 99/1/59 102/1/62 91/1/51
f 102/1/62 99/1/59 101/1/61
f 87/1/47 91/1/51 102/1/62
f 100/1/60 103/1/63 101/1/61
f 103/1/63 102/1/62 101/1/61
f 102/1/62 104/1/64 87/1/47
f 89/1/49 87/1/47 104/1/64
f 103/1/63 100/1/60 105/1/65
f 106/1/66 89/1/49 104/1/64
f 102/1/62 106/1/66 104/1/64
f 102/1/62 103/1/63 107/1/67
f 106/1/66 102/1/62 107/1/67
f 89/1/49 106/1/66 108/1/68
f 103/1/63 109/1/69 107/1/67
f 109/1/69 106/1/66 107/1/67
f 105/1/65 110/1/70 103/1/63
f 109/1/69 103/1/63 110/1/70
f 110/1/70 105/1/65 111/1/71
f 112/1/72 110/1/70 111/1/71
f 106/1/66 113/1/73 108/1/68
f 106/1/66 109/1/69 113/1/73
f 108/1/68 113/1/73 114/1/74
f 113/1/73 115/1/75 114/1/74
f 110/1/70 112/1/72 116/1/76
f 116/1/76 109/1/69 110/1/70
f 117/1/77 116/1/76 112/1/72
f 115/1/75 113/1/73 118/1/78
f 109/1/69 118/1/78 113/1/73
f 118/1/78 119/1/79 115/1/75
f 109/1/69 116/1/76 120/1/80
f 118/1/78 109/1/69 120/1/80
f 121/1/81 116/1/76 117/1/77
f 121/1/81 120/1/80 116/1/76
f 121/1/81 117/1/77 122/1/82
f 119/1/79 118/1/78 123/1/83
f 120/1/80 123/1/83 118/1/78
f 123/1/83 124/1/84 119/1/79
f 120/1/80 121/1/81 125/1/85
f 123/1/83 120/1/80 125/1/85
f 126/1/86 121/1/81 122/1/82
f 126/1/86 125/1/85 121/1/81
f 125/1/85 126/1/86 127/1/87
f 128/1/88 125/1/85 127/1/87
f 125/1/85 128/1/88 123/1/83
f 124/1/84 123/1/83 128/1/88
f 122/1/82 129/1/89 126/1/86
f 130/1/90 124/1/84 128/1/88
f 129/1/89 122/1/82 131/1/91
f 129/1/89 132/1/92 126/1/86
f 132/1/92 130/1/90 128/1/88
f 124/1/84 130/1/90 133/1/93
f 129/1/89 134/1/94 132/1/92
f 134/1/94 130/1/90 132/1/92
f 131/1/91 135/1/95 129/1/89
f 134/1/94 129/1/89 135/1/95
f 135/1/95 131/1/91 136/1/96
f 136/1/96 137/1/97 135/1/95
f 137/1/97 134/1/94 135/1/95
f 137/1/97 136/1/96 138/1/98
f 139/1/99 133/1/93 130/1/90
f 130/1/90 134/1/94 139/1/99
f 140/1/100 133/1/93 139/1/99
f 141/1/101 140/1/100 139/1/99
f 134/1/94 141/1/101 139/1/99
f 140/1/100 141/1/101 142/1/102
f 134/1/94 137/1/97 143/1/103
f 141/1/101 134/1/94 143/1/103
f 137/1/97 144/1/104 143/1/103
f 144/1/104 141/1/101 143/1/103
f 145/1/105 142/1/102 141/1/101
f 141/1/101 144/1/104 145/1/105
f 146/1/106 142/1/102 145/1/105
f 138/1/98 147/1/107 137/1/97
f 144/1/104 137/1/97 147/1/107
f 147/1/107 138/1/98 148/1/108
f 149/1/109 145/1/105 144/1/104
f 147/1/107 149/1/109 144/1/104
f 145/1/105 150/1/110 146/1/106
f 145/1/105 149/1/109 150/1/110
f 146/1/106 150/1/110 151/1/111
f 150/1/110 152/1/112 151/1/111
f 148/1/108 153/1/113 147/1/107
f 149/1/109 147/1/107 153/1/113
f 153/1/113 148/1/108 154/1/114
f 154/1/114 155/1/115 153/1/113
f 152/1/112 150/1/110 156/1/116
f 149/1/109 156/1/116 150/1/110
f 156/1/116 157/1/117 152/1/112
f 155/1/115 158/1/118 153/1/113
f 149/1/109 153/1/113 158/1/118
f 155/1/115 159/1/119 158/1/118
f 156/1/116 149/1/109 160/1/120
f 158/1/118 160/1/120 149/1/109
f 157/1/117 156/1/116 161/1/121
f 160/1/120 161/1/121 156/1/116
f 162/1/122 158/1/118 159/1/119
f 160/1/120 158/1/118 162/1/122
f 159/1/119 163/1/123 162/1/122
f 162/1/122 164/1/124 160/1/120
f 161/1/121 160/1/120 164/1/124
f 161/1/121 165/1/125 157/1/117
f 162/1/122 166/1/126 164/1/124
f 161/1/121 164/1/124 166/1/126
f 167/1/127 162/1/122 163/1/123
f 166/1/126 162/1/122 167/1/127
f 163/1/123 168/1/128 167/1/127
f 165/1/125 161/1/121 169/1/129
f 166/1/126 169/1/129 161/1/121
f 169/1/129 170/1/130 165/1/125
f 167/1/127 168/1/128 171/1/131
f 166/1/126 167/1/127 171/1/131
f 168/1/128 172/1/132 171/1/131
f 171/1/131 173/1/133 166/1/126
f 170/1/130 169/1/129 174/1/134
f 166/1/126 174/1/134 169/1/129
f 174/1/134 166/1/126 173/1/133
f 174/1/134 75/1/35 170/1/130
f 173/1/133 171/1/131 175/1/135
f 172/1/132 175/1/135 171/1/131
f 174/1/134 173/1/133 176/1/136
f 75/1/35 174/1/134 176/1/136
f 74/1/34 75/1/35 176/1/136
f 177/1/137 74/1/34 176/1/136
f 176/1/136 178/1/138 177/1/137
f 175/1/135 177/1/137 178/1/138
f 74/1/34 177/1/137 76/1/36
f 172/1/132 179/1/139 175/1/135
f 177/1/137 175/1/135 179/1/139
f 179/1/139 76/1/36 177/1/137
f 179/1/139 172/1/132 180/1/140
f 76/1/36 179/1/139 181/1/141
f 180/1/140 181/1/141 179/1/139
f 181/1/141 73/1/33 76/1/36
f 181/1/141 180/1/140 182/1/142
f 73/1/33 181/1/141 183/1/143
f 182/1/142 183/1/143 181/1/141
f 73/1/33 183/1/143 82/1/42
f 183/1/143 182/1/142 184/1/144
f 82/1/42 183/1/143 95/1/55
f 184/1/144 95/1/55 183/1/143
