# Blender 5.2.0 LTS
# www.blender.org
mtllib ducky.mtl
o RenderMesh_112114178426793
v 0.571477 0.212225 -0.095657
v 0.571533 0.068369 -0.049587
v 0.571477 0.114439 -0.095657
v 0.571652 0.068369 0.048199
v 0.571708 0.212225 0.094269
v 0.571708 0.114439 0.094269
v 0.571533 0.258295 -0.049587
v 0.571652 0.258295 0.048199
v -0.915593 0.091892 0.026949
v -0.915624 0.091346 0.001111
v -0.915624 0.081190 0.001111
v -0.915656 0.091892 -0.024727
v -0.915602 0.099074 0.019767
v -0.915647 0.099074 -0.017546
v -0.915592 0.117730 0.027495
v -0.915669 0.117730 -0.035430
v -0.915580 0.117730 0.037651
v -0.915656 0.117730 -0.025274
v -0.915593 0.143568 0.026949
v -0.915656 0.143568 -0.024727
v -0.915602 0.136387 0.019767
v -0.915647 0.136387 -0.017546
v -0.915624 0.154271 0.001111
v -0.915624 0.144115 0.001111
v -0.884711 0.150448 -0.090234
v -0.905789 0.146247 -0.044580
v -0.903947 0.173932 -0.058863
v -0.886262 0.127395 -0.065146
v -0.915533 0.153025 -0.024900
v -0.860125 0.137153 -0.080057
v -0.914015 0.185645 -0.025978
v -0.860869 0.116519 -0.056763
v -0.835264 0.137566 -0.068458
v -0.835515 0.119737 -0.048390
v -0.913949 0.185645 0.028196
v -0.915470 0.153025 0.027122
v -0.903802 0.173932 0.061057
v -0.905678 0.146247 0.046778
v -0.884489 0.150448 0.092382
v -0.886101 0.127395 0.067298
v -0.859928 0.137153 0.082145
v -0.860728 0.116519 0.058853
v -0.835095 0.137566 0.070486
v -0.835395 0.119737 0.050418
v 0.449286 0.301804 0.049322
v 0.449165 0.301804 -0.050414
v 0.438518 0.319758 0.049335
v 0.438397 0.319758 -0.050401
v 0.243313 -0.451929 0.092306
v 0.282705 -0.439414 0.050698
v 0.258345 -0.439414 0.102576
v 0.008467 -0.439414 0.102880
v 0.267756 -0.451929 0.040451
v 0.023473 -0.451929 0.092573
v -0.016020 -0.439414 0.051060
v 0.282581 -0.439414 -0.051384
v -0.001097 -0.451929 0.040778
v -0.001195 -0.451929 -0.040775
v -0.016144 -0.439414 -0.051020
v 0.267657 -0.451929 -0.041102
v 0.243088 -0.451929 -0.092896
v 0.258093 -0.439414 -0.103203
v 0.023248 -0.451929 -0.092629
v 0.008217 -0.439414 -0.102900
v 0.400134 0.303096 0.014977
v 0.400116 0.324143 -0.000527
v 0.400134 0.327201 0.014977
v 0.400097 0.303096 -0.016032
v 0.400097 0.327201 -0.016032
v 0.400136 0.368588 0.015911
v 0.400116 0.375380 -0.000486
v 0.400143 0.374446 0.021769
v 0.400116 0.383665 -0.000486
v 0.400154 0.352191 0.030987
v 0.400096 0.368588 -0.016884
v 0.400144 0.352191 0.022703
v 0.400089 0.374446 -0.022742
v 0.400136 0.335794 0.015911
v 0.400077 0.352191 -0.031960
v 0.400143 0.329936 0.021769
v 0.400088 0.352191 -0.023676
v 0.400116 0.329002 -0.000486
v 0.400096 0.335794 -0.016884
v 0.400116 0.320717 -0.000486
v 0.400089 0.329936 -0.022742
v -0.905678 0.090599 0.046778
v -0.903802 0.062914 0.061057
v -0.884489 0.086398 0.092382
v -0.886101 0.109451 0.067298
v -0.915470 0.083821 0.027122
v -0.859928 0.099693 0.082145
v -0.913949 0.051200 0.028196
v -0.860728 0.120327 0.058853
v -0.835095 0.099280 0.070486
v -0.835395 0.117108 0.050418
v -0.914015 0.051200 -0.025978
v -0.915533 0.083821 -0.024900
v -0.903947 0.062914 -0.058863
v -0.905789 0.090599 -0.044580
v -0.884711 0.086398 -0.090234
v -0.886262 0.109451 -0.065146
v -0.860125 0.099693 -0.080057
v -0.860869 0.120327 -0.056763
v -0.835264 0.099280 -0.068458
v -0.835515 0.117108 -0.048390
v -0.654998 0.104186 0.049941
v -0.655117 0.104186 -0.048351
v -0.655058 0.083829 0.000795
v -0.654998 0.202478 0.049941
v -0.654973 0.153332 0.070298
v -0.655117 0.202478 -0.048351
v -0.655142 0.153332 -0.068708
v -0.655058 0.222835 0.000795
v -0.655117 0.104186 -0.048351
v -0.655142 0.153332 -0.068708
v -0.641171 0.153332 -0.085825
v -0.655117 0.202478 -0.048351
v -0.641140 0.092094 -0.060460
v -0.641140 0.214570 -0.060460
v -0.655058 0.083829 0.000795
v -0.641066 0.239935 0.000778
v -0.641066 0.066728 0.000778
v -0.655058 0.222835 0.000795
v -0.640991 0.092094 0.062016
v -0.654998 0.202478 0.049941
v -0.654998 0.104186 0.049941
v -0.640991 0.214570 0.062016
v -0.640960 0.153332 0.087381
v -0.654973 0.153332 0.070298
v -0.641140 0.092094 -0.060460
v -0.594625 0.153332 -0.097131
v -0.594593 0.084139 -0.068471
v -0.594509 0.055479 0.000722
v -0.641171 0.153332 -0.085825
v -0.641066 0.066728 0.000778
v -0.641140 0.214570 -0.060460
v -0.640991 0.092094 0.062016
v -0.594593 0.222525 -0.068471
v -0.594423 0.084139 0.069915
v -0.594509 0.251185 0.000722
v -0.594390 0.153332 0.098575
v -0.641066 0.239935 0.000778
v -0.640960 0.153332 0.087381
v -0.640991 0.214570 0.062016
v -0.594423 0.222525 0.069915
v -0.492843 0.353827 -0.000592
v -0.499928 0.314809 0.008890
v -0.492840 0.353827 0.001786
v -0.499948 0.314809 -0.007678
v -0.517711 0.221355 0.116643
v -0.517685 0.188385 0.138147
v -0.517698 0.221355 0.127450
v -0.517711 0.085309 0.116643
v -0.517685 0.118279 0.138147
v -0.517698 0.085309 0.127450
v 0.124283 0.055875 -0.148410
v 0.081332 0.033212 -0.128890
v 0.080242 0.050244 -0.148557
v 0.132396 0.041263 -0.128948
v 0.157106 0.081548 -0.128981
v 0.141089 0.076857 -0.148411
v 0.121044 0.091789 -0.128942
v 0.116520 0.082041 -0.148485
v 0.103712 0.099967 -0.129182
v 0.091949 0.092778 -0.148558
v 0.083600 0.106017 -0.148717
v 0.100417 0.114699 -0.148621
v 0.116928 0.103315 -0.148484
v 0.120348 0.089922 -0.128918
v 0.155414 0.099261 -0.148561
v 0.156479 0.084390 -0.128962
v 0.178919 0.105214 -0.148465
v 0.187451 0.093233 -0.129000
v 0.212442 0.142627 -0.129030
v 0.198974 0.136910 -0.148435
v 0.173990 0.152791 -0.128983
v 0.159171 0.144055 -0.148464
v 0.131871 0.157572 -0.129132
v 0.119368 0.151201 -0.148495
v 0.115422 0.164116 -0.148696
v 0.167145 0.165454 -0.148617
v 0.173974 0.150799 -0.129002
v -0.447711 0.221355 0.116558
v -0.447685 0.188385 0.138062
v -0.447698 0.221355 0.127365
v -0.447711 0.085309 0.116558
v -0.447685 0.118279 0.138062
v -0.447698 0.085309 0.127365
v 0.081644 0.033212 0.128692
v 0.124643 0.055875 0.148108
v 0.080602 0.050244 0.148361
v 0.132708 0.041263 0.128626
v 0.157418 0.081548 0.128599
v 0.141449 0.076857 0.148068
v 0.121356 0.091789 0.128648
v 0.116880 0.082041 0.148201
v 0.104026 0.099967 0.128930
v 0.092309 0.092778 0.148334
v 0.083960 0.106017 0.148513
v 0.100777 0.114699 0.148377
v 0.117288 0.103315 0.148200
v 0.120660 0.089922 0.128626
v 0.155774 0.099261 0.148183
v 0.156791 0.084390 0.128582
v 0.179279 0.105214 0.148031
v 0.187763 0.093233 0.128544
v 0.212754 0.142627 0.128514
v 0.199334 0.136910 0.147951
v 0.174302 0.152791 0.128561
v 0.159531 0.144055 0.148077
v 0.132184 0.157572 0.128812
v 0.119728 0.151201 0.148205
v 0.115782 0.164116 0.148416
v 0.167505 0.165454 0.148211
v 0.174286 0.150799 0.128580
v 0.453756 0.355203 -0.036711
v 0.453756 0.300940 -0.036711
v 0.448485 0.353590 -0.074215
v 0.448832 0.300967 -0.072009
v 0.427018 0.378292 -0.075822
v 0.429680 0.383907 -0.036682
v 0.360096 0.383907 -0.036597
v 0.362661 0.378292 -0.075744
v 0.336019 0.355203 -0.036568
v 0.341198 0.353590 -0.074085
v 0.336019 0.300940 -0.036568
v 0.340856 0.300967 -0.071878
v 0.448664 0.353590 0.073122
v 0.449005 0.300967 0.070915
v 0.453844 0.300940 0.035605
v 0.453844 0.355203 0.035605
v 0.427203 0.378292 0.074782
v 0.429768 0.383907 0.035634
v 0.362844 0.378292 0.074860
v 0.360184 0.383907 0.035719
v 0.336107 0.355203 0.035748
v 0.341378 0.353590 0.073253
v 0.336107 0.300940 0.035748
v 0.341031 0.300967 0.071046
v -0.490462 0.353827 0.001783
v -0.490465 0.353827 -0.000595
v -0.492840 0.353827 0.001786
v -0.492843 0.353827 -0.000592
v -0.870679 0.133519 0.037777
v -0.835395 0.119737 0.050418
v -0.860728 0.116519 0.058853
v -0.835252 0.134435 0.033139
v -0.886101 0.127395 0.067298
v -0.835114 0.140111 0.019398
v -0.905678 0.146247 0.046778
v -0.875764 0.139336 0.022021
v -0.915470 0.153025 0.027122
v -0.915533 0.153025 -0.024900
v -0.875815 0.139336 -0.019895
v -0.835159 0.140111 -0.017370
v -0.905789 0.146247 -0.044580
v -0.870768 0.133519 -0.035663
v -0.835330 0.134435 -0.031111
v -0.886262 0.127395 -0.065146
v -0.835515 0.119737 -0.048390
v -0.860869 0.116519 -0.056763
v -0.486098 0.372842 -0.026094
v -0.461101 0.341263 -0.026124
v -0.490271 0.367886 -0.055976
v -0.468601 0.339908 -0.054426
v -0.500290 0.368191 -0.056317
v -0.468295 0.315860 -0.052633
v -0.506170 0.372842 -0.026070
v -0.515740 0.357618 -0.055969
v -0.521867 0.361727 -0.026051
v -0.521867 0.315846 -0.026051
v -0.514713 0.315868 -0.052629
v -0.514748 0.299780 -0.052554
v -0.521867 0.299780 -0.026051
v -0.521835 0.315846 0.000632
v -0.521835 0.299780 0.000632
v -0.521802 0.299780 0.027315
v -0.521802 0.315846 0.027315
v -0.514618 0.299780 0.053803
v -0.514584 0.315868 0.053878
v -0.515603 0.357618 0.057220
v -0.521802 0.361727 0.027315
v -0.506105 0.372842 0.027296
v -0.500152 0.368191 0.057530
v -0.486033 0.372842 0.027272
v -0.490134 0.367886 0.057165
v -0.461036 0.341263 0.027242
v -0.468468 0.339908 0.055563
v -0.468166 0.315860 0.053768
v -0.461036 0.315846 0.027242
v -0.468157 0.299780 0.053746
v -0.461036 0.299780 0.027242
v -0.461069 0.299780 0.000559
v -0.461069 0.315846 0.000559
v -0.461101 0.315846 -0.026124
v -0.461101 0.299780 -0.026124
v -0.468286 0.299780 -0.052611
v 0.400116 0.324143 -0.000527
v 0.389067 0.327201 0.014991
v 0.400134 0.327201 0.014977
v 0.389048 0.324143 -0.000513
v 0.400097 0.327201 -0.016032
v 0.389048 0.324143 -0.000513
v 0.400116 0.324143 -0.000527
v 0.389029 0.327201 -0.016018
v 0.355164 0.319758 0.049436
v 0.438518 0.319758 0.049335
v 0.355043 0.319758 -0.050300
v 0.438397 0.319758 -0.050401
v -0.461069 0.315846 0.000559
v -0.521867 0.315846 -0.026051
v -0.521835 0.315846 0.000632
v -0.461101 0.315846 -0.026124
v -0.521802 0.315846 0.027315
v -0.461036 0.315846 0.027242
v 0.100417 0.114699 -0.148621
v 0.115422 0.164116 -0.148696
v 0.119368 0.151201 -0.148495
v 0.116928 0.103315 -0.148484
v 0.159171 0.144055 -0.148464
v 0.155414 0.099261 -0.148561
v 0.178919 0.105214 -0.148465
v 0.198974 0.136910 -0.148435
v 0.083600 0.106017 -0.148717
v 0.045969 0.218318 -0.148340
v 0.167145 0.165454 -0.148617
v 0.246587 0.218318 -0.148527
v 0.218868 0.166792 -0.148539
v 0.236675 0.179870 -0.148557
v -0.008575 0.184178 -0.148340
v -0.028636 0.139496 -0.148366
v -0.029857 0.111056 -0.148380
v -0.002424 0.064179 -0.148420
v -0.021603 0.081636 -0.148337
v 0.025553 0.050574 -0.148422
v 0.080242 0.050244 -0.148557
v 0.091949 0.092778 -0.148558
v 0.116520 0.082041 -0.148485
v 0.124283 0.055875 -0.148410
v 0.141089 0.076857 -0.148411
v 0.351769 0.303439 -0.084035
v 0.457944 0.303439 -0.061999
v 0.434628 0.303439 -0.084136
v 0.328507 0.303439 -0.061842
v 0.328656 0.303439 0.061044
v 0.458093 0.303439 0.060887
v 0.351972 0.303439 0.083181
v 0.434831 0.303439 0.083080
v -0.435603 0.303439 -0.079519
v -0.541726 0.303439 -0.058169
v -0.412289 0.303439 -0.058327
v -0.518463 0.303439 -0.079419
v -0.541583 0.303439 0.059484
v -0.412146 0.303439 0.059327
v -0.435409 0.303439 0.080577
v -0.518268 0.303439 0.080677
v 0.159531 0.144055 0.148077
v 0.179279 0.105214 0.148031
v 0.199334 0.136910 0.147951
v 0.155774 0.099261 0.148183
v 0.117288 0.103315 0.148200
v 0.119728 0.151201 0.148205
v 0.100777 0.114699 0.148377
v 0.115782 0.164116 0.148416
v 0.083960 0.106017 0.148513
v 0.046329 0.218318 0.148228
v 0.167505 0.165454 0.148211
v 0.246947 0.218318 0.147928
v 0.219228 0.166792 0.148007
v 0.237035 0.179870 0.147982
v -0.008215 0.184178 0.148360
v -0.028276 0.139496 0.148435
v -0.029497 0.111056 0.148452
v -0.002064 0.064179 0.148426
v -0.021243 0.081636 0.148389
v 0.025913 0.050574 0.148360
v 0.080602 0.050244 0.148361
v 0.092309 0.092778 0.148334
v 0.116880 0.082041 0.148201
v 0.124643 0.055875 0.148108
v 0.141449 0.076857 0.148068
v -0.420654 0.301131 0.056545
v 0.331683 0.301131 -0.056437
v -0.420790 0.301131 -0.055523
v -0.444363 0.301131 -0.034236
v -0.444278 0.301131 0.035314
v 0.331819 0.301131 0.055631
v 0.355309 0.301131 -0.035206
v 0.355393 0.301131 0.034344
v -0.475855 0.118279 0.138096
v -0.517685 0.118279 0.138147
v -0.517698 0.085309 0.127450
v -0.475868 0.085309 0.127399
v -0.517685 0.188385 0.138147
v -0.475855 0.188385 0.138096
v -0.475868 0.221355 0.127399
v -0.517698 0.221355 0.127450
v -0.405855 0.118279 0.138011
v -0.447685 0.118279 0.138062
v -0.447698 0.085309 0.127365
v -0.405868 0.085309 0.127314
v -0.447685 0.188385 0.138062
v -0.405855 0.188385 0.138011
v -0.405868 0.221355 0.127314
v -0.447698 0.221355 0.127365
v 0.351972 0.303439 0.083181
v 0.328656 0.303439 0.061044
v 0.334176 0.268040 0.090641
v 0.310861 0.268040 0.068505
v 0.452646 0.268040 0.090498
v 0.310694 0.268040 -0.069259
v 0.434831 0.303439 0.083080
v 0.328507 0.303439 -0.061842
v 0.458093 0.303439 0.060887
v 0.333955 0.268040 -0.091452
v 0.475906 0.268040 0.068304
v 0.351769 0.303439 -0.084035
v 0.457944 0.303439 -0.061999
v 0.434628 0.303439 -0.084136
v 0.475739 0.268040 -0.069460
v 0.452425 0.268040 -0.091596
v -0.518268 0.303439 0.080677
v -0.541583 0.303439 0.059484
v -0.536065 0.268040 0.087821
v -0.559379 0.268040 0.066628
v -0.417596 0.268040 0.087677
v -0.541726 0.303439 -0.058169
v -0.435409 0.303439 0.080577
v -0.559539 0.268040 -0.065270
v -0.412146 0.303439 0.059327
v -0.536276 0.268040 -0.086519
v -0.394334 0.268040 0.066428
v -0.518463 0.303439 -0.079419
v -0.394494 0.268040 -0.065470
v -0.435603 0.303439 -0.079519
v -0.412289 0.303439 -0.058327
v -0.417808 0.268040 -0.086663
v -0.420654 0.301131 0.056545
v -0.444278 0.301131 0.035314
v -0.438449 0.268040 0.063688
v 0.331819 0.301131 0.055631
v -0.462076 0.268040 0.042458
v 0.349632 0.268040 0.062732
v -0.444363 0.301131 -0.034236
v 0.355393 0.301131 0.034344
v -0.462178 0.268040 -0.041336
v 0.373208 0.268040 0.041444
v -0.438602 0.268040 -0.062624
v 0.373106 0.268040 -0.042350
v -0.420790 0.301131 -0.055523
v 0.355309 0.301131 -0.035206
v 0.331683 0.301131 -0.056437
v 0.349479 0.268040 -0.063580
v -0.870768 0.103327 -0.035663
v -0.835330 0.102411 -0.031111
v -0.835515 0.117108 -0.048390
v -0.860869 0.120327 -0.056763
v -0.886262 0.109451 -0.065146
v -0.835159 0.096734 -0.017370
v -0.905789 0.090599 -0.044580
v -0.875815 0.097509 -0.019895
v -0.915533 0.083821 -0.024900
v -0.915470 0.083821 0.027122
v -0.875764 0.097509 0.022021
v -0.835114 0.096734 0.019398
v -0.905678 0.090599 0.046778
v -0.870679 0.103327 0.037777
v -0.835252 0.102411 0.033139
v -0.886101 0.109451 0.067298
v -0.835395 0.117108 0.050418
v -0.860728 0.120327 0.058853
v 0.246587 0.218318 -0.148527
v 0.041453 0.230866 -0.128837
v 0.259942 0.230866 -0.129104
v 0.250473 0.170392 -0.129089
v 0.045969 0.218318 -0.148340
v 0.236675 0.179870 -0.148557
v -0.008575 0.184178 -0.148340
v 0.224339 0.150976 -0.129058
v -0.021240 0.195280 -0.128763
v 0.218868 0.166792 -0.148539
v -0.045103 0.143422 -0.128736
v -0.028636 0.139496 -0.148366
v -0.046700 0.109087 -0.128734
v -0.029857 0.111056 -0.148380
v -0.021603 0.081636 -0.148337
v -0.035951 0.072775 -0.128746
v -0.011948 0.050118 -0.128777
v -0.002424 0.064179 -0.148420
v 0.021723 0.034083 -0.128818
v 0.025553 0.050574 -0.148422
v -0.475868 0.085309 0.127399
v -0.517698 0.085309 0.127450
v -0.517711 0.085309 0.116643
v -0.475881 0.085309 0.116592
v -0.405868 0.085309 0.127314
v -0.447698 0.085309 0.127365
v -0.447711 0.085309 0.116558
v -0.405881 0.085309 0.116507
v 0.448832 0.300967 -0.072009
v 0.341198 0.353590 -0.074085
v 0.448485 0.353590 -0.074215
v 0.340856 0.300967 -0.071878
v 0.427018 0.378292 -0.075822
v 0.362661 0.378292 -0.075744
v 0.246947 0.218318 0.147928
v 0.041765 0.230866 0.128736
v 0.046329 0.218318 0.148228
v -0.008215 0.184178 0.148360
v 0.260255 0.230866 0.128472
v -0.020928 0.195280 0.128815
v 0.250786 0.170392 0.128481
v -0.044791 0.143422 0.128845
v 0.237035 0.179870 0.147982
v -0.028276 0.139496 0.148435
v 0.224651 0.150976 0.128513
v -0.046388 0.109087 0.128847
v 0.219228 0.166792 0.148007
v -0.029497 0.111056 0.148452
v -0.021243 0.081636 0.148389
v -0.035639 0.072775 0.128833
v -0.011636 0.050118 0.128805
v -0.002064 0.064179 0.148426
v 0.022035 0.034083 0.128765
v 0.025913 0.050574 0.148360
v -0.517698 0.221355 0.127450
v -0.475868 0.221355 0.127399
v -0.475881 0.221355 0.116592
v -0.517711 0.221355 0.116643
v -0.447698 0.221355 0.127365
v -0.405868 0.221355 0.127314
v -0.405881 0.221355 0.116507
v -0.447711 0.221355 0.116558
v 0.341378 0.353590 0.073253
v 0.449005 0.300967 0.070915
v 0.448664 0.353590 0.073122
v 0.341031 0.300967 0.071046
v 0.427203 0.378292 0.074782
v 0.362844 0.378292 0.074860
v -0.468286 0.299780 -0.052611
v -0.514713 0.315868 -0.052629
v -0.468295 0.315860 -0.052633
v -0.514748 0.299780 -0.052554
v -0.468601 0.339908 -0.054426
v -0.515740 0.357618 -0.055969
v -0.490271 0.367886 -0.055976
v -0.500290 0.368191 -0.056317
v -0.483380 0.314809 -0.007698
v -0.492843 0.353827 -0.000592
v -0.490465 0.353827 -0.000595
v -0.499948 0.314809 -0.007678
v -0.915647 0.099074 -0.017546
v -0.835111 0.099074 -0.017643
v -0.915656 0.117730 -0.025274
v -0.835120 0.117730 -0.025371
v -0.835088 0.091346 0.001013
v -0.915647 0.136387 -0.017546
v -0.915624 0.091346 0.001111
v -0.835111 0.136387 -0.017643
v -0.835066 0.099074 0.019670
v -0.835088 0.144115 0.001013
v -0.915602 0.099074 0.019767
v -0.915624 0.144115 0.001111
v -0.835056 0.117730 0.027398
v -0.835066 0.136387 0.019670
v -0.915592 0.117730 0.027495
v -0.915602 0.136387 0.019767
v 0.508950 0.068369 -0.049511
v 0.508894 0.114439 -0.095581
v 0.540235 0.052606 -0.056078
v 0.540368 0.052606 0.054766
v 0.509069 0.068369 0.048275
v 0.571652 0.068369 0.048199
v 0.571533 0.068369 -0.049587
v 0.571708 0.114439 0.094269
v 0.540166 0.107910 -0.111382
v 0.571477 0.114439 -0.095657
v 0.571477 0.212225 -0.095657
v 0.540437 0.107910 0.110070
v 0.509125 0.114439 0.094345
v 0.509125 0.212225 0.094345
v 0.540437 0.218754 0.110070
v 0.571708 0.212225 0.094269
v 0.540368 0.274057 0.054766
v 0.509069 0.258295 0.048275
v 0.571652 0.258295 0.048199
v 0.508950 0.258295 -0.049511
v 0.540235 0.274057 -0.056078
v 0.571533 0.258295 -0.049587
v 0.508894 0.212225 -0.095581
v 0.540166 0.218754 -0.111382
v -0.514584 0.315868 0.053878
v -0.468157 0.299780 0.053746
v -0.468166 0.315860 0.053768
v -0.514618 0.299780 0.053803
v -0.468468 0.339908 0.055563
v -0.515603 0.357618 0.057220
v -0.490134 0.367886 0.057165
v -0.500152 0.368191 0.057530
v -0.483360 0.314809 0.008870
v -0.492840 0.353827 0.001786
v -0.499928 0.314809 0.008890
v -0.490462 0.353827 0.001783
v 0.400097 0.327201 -0.016032
v 0.400097 0.303096 -0.016032
v 0.389029 0.303096 -0.016018
v 0.389029 0.327201 -0.016018
v 0.389067 0.327201 0.014991
v 0.400134 0.303096 0.014977
v 0.400134 0.327201 0.014977
v 0.389067 0.303096 0.014991
v -0.746666 0.143568 -0.024933
v -0.915656 0.143568 -0.024727
v -0.746634 0.154271 0.000905
v -0.915624 0.154271 0.001111
v -0.915669 0.117730 -0.035430
v -0.746603 0.143568 0.026743
v -0.746679 0.117730 -0.035635
v -0.915593 0.143568 0.026949
v -0.915656 0.091892 -0.024727
v -0.746590 0.117730 0.037446
v -0.746666 0.091892 -0.024933
v -0.915580 0.117730 0.037651
v -0.746634 0.081190 0.000905
v -0.746603 0.091892 0.026743
v -0.915624 0.081190 0.001111
v -0.915593 0.091892 0.026949
v -0.486033 0.372842 0.027272
v -0.521802 0.361727 0.027315
v -0.506105 0.372842 0.027296
v -0.461036 0.341263 0.027242
v -0.521802 0.315846 0.027315
v -0.461036 0.315846 0.027242
v 0.453844 0.300940 0.035605
v 0.336107 0.300940 0.035748
v 0.336107 0.355203 0.035748
v 0.453844 0.355203 0.035605
v 0.360184 0.383907 0.035719
v 0.429768 0.383907 0.035634
v -0.521867 0.361727 -0.026051
v -0.461101 0.341263 -0.026124
v -0.486098 0.372842 -0.026094
v -0.506170 0.372842 -0.026070
v -0.521867 0.315846 -0.026051
v -0.461101 0.315846 -0.026124
v 0.453756 0.300940 -0.036711
v 0.336019 0.355203 -0.036568
v 0.336019 0.300940 -0.036568
v 0.453756 0.355203 -0.036711
v 0.360096 0.383907 -0.036597
v 0.429680 0.383907 -0.036682
v 0.389086 0.352191 0.031001
v 0.389075 0.329936 0.021783
v 0.400154 0.352191 0.030987
v 0.400143 0.329936 0.021769
v 0.400143 0.374446 0.021769
v 0.389048 0.320717 -0.000472
v 0.389075 0.374446 0.021783
v 0.400116 0.320717 -0.000486
v 0.400116 0.383665 -0.000486
v 0.389021 0.329936 -0.022728
v 0.389048 0.383665 -0.000472
v 0.400089 0.329936 -0.022742
v 0.400089 0.374446 -0.022742
v 0.389010 0.352191 -0.031946
v 0.389021 0.374446 -0.022728
v 0.400077 0.352191 -0.031960
v -0.884711 0.086398 -0.090234
v -0.868944 0.078613 -0.051714
v -0.903947 0.062914 -0.058863
v -0.860125 0.099693 -0.080057
v -0.835264 0.099280 -0.068458
v -0.835349 0.081327 -0.044286
v -0.873601 0.068091 -0.022747
v -0.914015 0.051200 -0.025978
v -0.835637 0.071660 -0.019619
v -0.913949 0.051200 0.028196
v -0.835587 0.071660 0.021647
v -0.873544 0.068091 0.024867
v -0.903802 0.062914 0.061057
v -0.835239 0.081327 0.046314
v -0.868816 0.078613 0.053824
v -0.884489 0.086398 0.092382
v -0.835095 0.099280 0.070486
v -0.859928 0.099693 0.082145
v 0.389068 0.335794 0.015925
v 0.389076 0.352191 0.022717
v 0.400136 0.335794 0.015911
v 0.389048 0.329002 -0.000472
v 0.400144 0.352191 0.022703
v 0.400116 0.329002 -0.000486
v 0.389068 0.368588 0.015925
v 0.389028 0.335794 -0.016870
v 0.400136 0.368588 0.015911
v 0.400096 0.335794 -0.016884
v 0.389048 0.375380 -0.000472
v 0.389020 0.352191 -0.023662
v 0.400116 0.375380 -0.000486
v 0.400088 0.352191 -0.023676
v 0.389028 0.368588 -0.016870
v 0.400096 0.368588 -0.016884
v -0.405881 0.085309 0.116507
v -0.405855 0.118279 0.138011
v -0.405868 0.085309 0.127314
v -0.405855 0.188385 0.138011
v -0.405881 0.221355 0.116507
v -0.405868 0.221355 0.127314
v -0.859928 0.137153 0.082145
v -0.868816 0.158232 0.053824
v -0.884489 0.150448 0.092382
v -0.835095 0.137566 0.070486
v -0.903802 0.173932 0.061057
v -0.835239 0.155519 0.046314
v -0.873544 0.168755 0.024867
v -0.913949 0.185645 0.028196
v -0.835587 0.165186 0.021647
v -0.914015 0.185645 -0.025978
v -0.835637 0.165186 -0.019619
v -0.873601 0.168755 -0.022747
v -0.903947 0.173932 -0.058863
v -0.835349 0.155519 -0.044286
v -0.868944 0.158232 -0.051714
v -0.884711 0.150448 -0.090234
v -0.835264 0.137566 -0.068458
v -0.860125 0.137153 -0.080057
v -0.490462 0.353827 0.001783
v -0.483360 0.314809 0.008870
v -0.483380 0.314809 -0.007698
v -0.490465 0.353827 -0.000595
v -0.475881 0.085309 0.116592
v -0.475855 0.118279 0.138096
v -0.475868 0.085309 0.127399
v -0.475855 0.188385 0.138096
v -0.475881 0.221355 0.116592
v -0.475868 0.221355 0.127399
v 0.355164 0.319758 0.049436
v 0.355043 0.319758 -0.050300
v 0.344397 0.301804 0.049449
v 0.344276 0.301804 -0.050287
v -0.594509 0.055479 0.000722
v -0.594509 0.251185 0.000722
v -0.594390 0.153332 0.098575
v -0.594423 0.222525 0.069915
v -0.594423 0.084139 0.069915
v -0.594625 0.153332 -0.097131
v -0.594593 0.084139 -0.068471
v -0.594593 0.222525 -0.068471
v -0.016144 -0.394166 -0.050913
v 0.022102 -0.386955 -0.085768
v 0.008272 -0.394166 -0.102900
v -0.002545 -0.386955 -0.033685
v 0.244249 -0.386955 -0.086039
v -0.002463 -0.386955 0.033691
v 0.258039 -0.394166 -0.103203
v -0.016020 -0.394166 0.050953
v 0.282581 -0.394166 -0.051277
v 0.022311 -0.386955 0.085715
v 0.269022 -0.386955 -0.034015
v 0.008522 -0.394166 0.102880
v 0.269106 -0.386955 0.033361
v 0.244457 -0.386955 0.085445
v 0.282705 -0.394166 0.050591
v 0.258289 -0.394166 0.102577
v 0.389067 0.327201 0.014991
v 0.389048 0.324143 -0.000513
v 0.389067 0.303096 0.014991
v 0.389029 0.303096 -0.016018
v 0.389029 0.327201 -0.016018
v 0.389028 0.368588 -0.016870
v 0.389048 0.383665 -0.000472
v 0.389021 0.374446 -0.022728
v 0.389010 0.352191 -0.031946
v 0.389048 0.375380 -0.000472
v 0.389020 0.352191 -0.023662
v 0.389075 0.374446 0.021783
v 0.389028 0.335794 -0.016870
v 0.389068 0.368588 0.015925
v 0.389021 0.329936 -0.022728
v 0.389086 0.352191 0.031001
v 0.389048 0.320717 -0.000472
v 0.389076 0.352191 0.022717
v 0.389048 0.329002 -0.000472
v 0.389068 0.335794 0.015925
v 0.389075 0.329936 0.021783
v 0.282581 -0.439414 -0.051384
v 0.258039 -0.394166 -0.103203
v 0.282581 -0.394166 -0.051277
v 0.258093 -0.439414 -0.103203
v 0.282705 -0.439414 0.050698
v 0.008272 -0.394166 -0.102900
v 0.282705 -0.394166 0.050591
v 0.008217 -0.439414 -0.102900
v 0.258289 -0.394166 0.102577
v -0.016144 -0.439414 -0.051020
v 0.258345 -0.439414 0.102576
v -0.016144 -0.394166 -0.050913
v 0.008467 -0.439414 0.102880
v -0.016020 -0.394166 0.050953
v 0.008522 -0.394166 0.102880
v -0.016020 -0.439414 0.051060
vn 1.0000 0.0005 -0.0017
vn -1.0000 0.0005 0.0007
vn -0.6079 -0.5272 -0.5937
vn -0.9093 -0.1548 -0.3862
vn -0.5064 -0.5907 -0.6282
vn -0.9829 0.0034 -0.1840
vn 0.0477 -0.7435 -0.6671
vn -0.9875 0.0093 -0.1575
vn 0.1433 -0.7391 -0.6582
vn 0.3019 -0.7167 -0.6287
vn 0.3015 -0.7165 -0.6290
vn -0.9871 0.0093 0.1599
vn -0.9825 0.0034 0.1864
vn -0.9084 -0.1548 0.3884
vn -0.6065 -0.5271 0.5953
vn -0.5049 -0.5907 0.6294
vn 0.0493 -0.7435 0.6670
vn 0.1449 -0.7391 0.6578
vn 0.3034 -0.7167 0.6280
vn 0.3031 -0.7165 0.6283
vn 0.8576 0.5143 -0.0010
vn 0.8575 0.5145 -0.0015
vn 0.8575 0.5145 -0.0013
vn 0.1631 -0.8990 0.4065
vn 0.5718 -0.8065 0.1502
vn 0.3545 -0.8090 0.4688
vn -0.3533 -0.8092 0.4695
vn 0.3536 -0.9335 0.0599
vn -0.1620 -0.8990 0.4068
vn -0.5711 -0.8067 0.1518
vn 0.5711 -0.8067 -0.1517
vn -0.3535 -0.9335 0.0608
vn -0.3536 -0.9335 -0.0599
vn -0.5718 -0.8065 -0.1502
vn 0.3530 -0.9337 -0.0605
vn 0.1617 -0.8992 -0.4066
vn 0.3534 -0.8090 -0.4697
vn -0.1631 -0.8989 -0.4066
vn -0.3545 -0.8091 -0.4687
vn -0.9084 0.1548 0.3884
vn -0.6065 0.5272 0.5952
vn -0.5049 0.5907 0.6294
vn -0.9825 -0.0034 0.1864
vn 0.0493 0.7435 0.6670
vn -0.9871 -0.0093 0.1600
vn 0.1449 0.7391 0.6578
vn 0.3031 0.7165 0.6282
vn 0.3031 0.7165 0.6283
vn -0.9875 -0.0093 -0.1575
vn -0.9829 -0.0034 -0.1840
vn -0.9093 0.1548 -0.3862
vn -0.6079 0.5271 -0.5938
vn -0.5065 0.5907 -0.6282
vn 0.0479 0.7436 -0.6669
vn 0.1433 0.7391 -0.6582
vn 0.3019 0.7167 -0.6287
vn 0.3015 0.7165 -0.6290
vn -0.7745 -0.4478 -0.4468
vn -0.7747 0.0005 -0.6324
vn -0.7747 -0.0000 -0.6323
vn -0.7745 0.4478 -0.4468
vn -0.7740 -0.6332 0.0009
vn -0.7739 0.6333 0.0009
vn -0.7739 -0.6333 0.0005
vn -0.7739 0.6333 0.0005
vn -0.7734 -0.4478 0.4487
vn -0.7734 0.4478 0.4487
vn -0.7732 -0.0000 0.6342
vn -0.7731 0.0005 0.6342
vn -0.2357 -0.6873 -0.6870
vn -0.2361 -0.0000 -0.9717
vn -0.2349 -0.9720 0.0003
vn -0.2362 0.0005 -0.9717
vn -0.2349 -0.9720 -0.0000
vn -0.2357 0.6873 -0.6870
vn -0.2340 -0.6873 0.6876
vn -0.2349 0.9720 0.0003
vn -0.2338 0.0003 0.9723
vn -0.2337 -0.0000 0.9723
vn -0.2340 0.6873 0.6876
vn -0.9838 0.1794 0.0007
vn -0.9838 0.1793 0.0008
vn -0.9838 0.1792 0.0009
vn -0.9838 0.1791 0.0009
vn 0.4249 -0.6505 -0.6295
vn 0.0505 -0.7614 -0.6463
vn 0.4120 -0.6571 -0.6312
vn 0.6632 0.2487 -0.7059
vn 0.6466 0.2966 -0.7029
vn 0.2901 0.8348 -0.4679
vn 0.2950 0.8320 -0.4698
vn 0.1430 -0.0982 -0.9848
vn 0.5646 0.6063 -0.5601
vn 0.6552 -0.1860 -0.7322
vn -0.0002 -0.8039 -0.5947
vn -0.3343 -0.7900 -0.5140
vn -0.2542 -0.8027 -0.5395
vn 0.0545 -0.8065 -0.5887
vn 0.5149 -0.6359 -0.5749
vn 0.5049 -0.6424 -0.5766
vn 0.6718 0.3063 -0.6744
vn 0.6679 0.3150 -0.6743
vn 0.1717 0.8744 -0.4538
vn 0.1504 0.8823 -0.4460
vn 0.2464 -0.0259 -0.9688
vn 0.5714 0.5741 -0.5865
vn 0.5721 -0.3757 -0.7291
vn -0.0246 -0.8518 -0.5233
vn -0.0129 -0.8321 -0.5545
vn 0.0521 -0.7614 0.6462
vn 0.4265 -0.6505 0.6285
vn 0.0521 -0.7614 0.6461
vn 0.4136 -0.6571 0.6302
vn 0.6649 0.2487 0.7043
vn 0.6483 0.2966 0.7013
vn 0.2913 0.8348 0.4672
vn 0.2962 0.8320 0.4691
vn 0.1454 -0.0982 0.9845
vn 0.5659 0.6063 0.5587
vn 0.6570 -0.1860 0.7306
vn 0.0012 -0.8039 0.5947
vn -0.3331 -0.7900 0.5148
vn -0.2529 -0.8027 0.5401
vn 0.0559 -0.8065 0.5886
vn 0.0559 -0.8065 0.5885
vn 0.5163 -0.6359 0.5737
vn 0.5063 -0.6424 0.5754
vn 0.6734 0.3063 0.6728
vn 0.6695 0.3150 0.6727
vn 0.1729 0.8744 0.4533
vn 0.1514 0.8823 0.4456
vn 0.2488 -0.0259 0.9682
vn 0.5728 0.5741 0.5851
vn 0.5739 -0.3757 0.7277
vn -0.0234 -0.8518 0.5234
vn -0.0115 -0.8321 0.5545
vn 0.9291 0.3393 -0.1473
vn 0.9904 0.0004 -0.1386
vn 0.9243 0.3521 -0.1471
vn 0.9904 0.0005 -0.1384
vn 0.4086 0.8996 -0.1541
vn 0.4155 0.8964 -0.1544
vn -0.4159 0.8964 -0.1534
vn -0.4091 0.8995 -0.1533
vn -0.9294 0.3393 -0.1449
vn -0.9247 0.3522 -0.1448
vn -0.9907 0.0005 -0.1361
vn -0.9907 0.0004 -0.1362
vn 0.9247 0.3521 0.1449
vn 0.9907 0.0007 0.1358
vn 0.9907 0.0004 0.1362
vn 0.9294 0.3393 0.1449
vn 0.4090 0.8996 0.1531
vn 0.4159 0.8964 0.1534
vn -0.4088 0.8994 0.1545
vn -0.4155 0.8964 0.1544
vn -0.9291 0.3394 0.1471
vn -0.9243 0.3521 0.1471
vn -0.9904 0.0005 0.1386
vn -0.9904 0.0006 0.1384
vn -0.0005 1.0000 -0.0005
vn -0.2354 -0.8873 -0.3967
vn -0.0813 -0.7782 -0.6227
vn -0.2406 -0.8107 -0.5338
vn -0.0451 -0.8722 -0.4871
vn -0.4311 -0.8118 -0.3939
vn 0.0032 -0.9845 -0.1754
vn -0.3857 -0.8875 -0.2520
vn -0.1932 -0.9725 -0.1302
vn -0.3416 -0.9366 -0.0782
vn -0.3414 -0.9366 0.0791
vn -0.1928 -0.9725 0.1307
vn 0.0036 -0.9845 0.1754
vn -0.3851 -0.8875 0.2530
vn -0.2344 -0.8872 0.3973
vn -0.0439 -0.8722 0.4872
vn -0.4301 -0.8118 0.3949
vn -0.0798 -0.7782 0.6229
vn -0.2394 -0.8107 0.5344
vn 0.4458 0.8703 -0.2092
vn 0.9180 0.3055 -0.2528
vn 0.4116 0.8875 -0.2071
vn 0.9093 0.3319 -0.2509
vn -0.2634 0.9438 -0.1994
vn 0.9654 -0.0014 -0.2606
vn -0.3123 0.9275 -0.2052
vn -0.8586 0.4440 -0.2563
vn -0.8579 0.4452 -0.2565
vn -0.9865 -0.0063 -0.1634
vn -0.9698 -0.0103 -0.2435
vn -0.9657 0.0006 -0.2597
vn -0.9915 0.0004 -0.1302
vn -0.9912 -0.0000 0.1326
vn -0.9861 -0.0063 0.1658
vn -0.9652 0.0005 0.2616
vn -0.9692 -0.0103 0.2459
vn -0.8579 0.4441 0.2584
vn -0.8573 0.4452 0.2585
vn -0.3118 0.9275 0.2060
vn -0.2630 0.9438 0.2000
vn 0.4463 0.8703 0.2081
vn 0.4121 0.8875 0.2061
vn 0.9186 0.3055 0.2506
vn 0.9099 0.3319 0.2487
vn 0.9661 -0.0014 0.2583
vn 0.9849 -0.0014 0.1733
vn 0.9657 0.0001 0.2595
vn 0.9915 0.0004 0.1302
vn 0.9844 -0.0014 -0.1757
vn 0.9912 -0.0000 -0.1327
vn 0.9652 0.0004 -0.2615
vn -0.0005 0.9811 -0.1937
vn -0.0006 0.9810 -0.1938
vn -0.0008 0.9810 -0.1939
vn -0.0003 0.9810 0.1939
vn -0.0003 0.9810 0.1938
vn -0.0002 0.9810 0.1939
vn -0.0002 0.9811 0.1938
vn -0.0007 0.0015 -1.0000
vn -0.0007 0.0014 -1.0000
vn -0.0005 0.0015 -1.0000
vn -0.0008 0.0015 -1.0000
vn 0.0018 0.0015 1.0000
vn 0.0017 0.0015 1.0000
vn 0.0017 0.0014 1.0000
vn 0.0019 0.0015 1.0000
vn 0.0009 -0.1560 0.9878
vn 0.0008 -0.1559 0.9878
vn 0.0009 -0.3084 0.9512
vn 0.0007 -0.3083 0.9513
vn 0.0012 0.1562 0.9877
vn 0.0008 0.3084 0.9513
vn 0.0009 0.3084 0.9512
vn 0.0012 -0.1562 0.9877
vn 0.0008 0.1559 0.9878
vn 0.0007 0.3084 0.9513
vn -0.2666 0.3253 0.9073
vn -0.8062 0.4781 0.3484
vn -0.4045 0.3788 0.8324
vn -0.8070 0.4783 0.3463
vn 0.4069 0.3785 0.8314
vn -0.8077 0.4786 -0.3443
vn 0.2692 0.3248 0.9066
vn -0.8070 0.4782 -0.3464
vn 0.8069 0.4786 0.3461
vn -0.4065 0.3788 -0.8314
vn 0.8077 0.4786 0.3443
vn -0.2694 0.3247 -0.9066
vn 0.8061 0.4786 -0.3481
vn 0.2671 0.3248 -0.9073
vn 0.8069 0.4786 -0.3462
vn 0.4045 0.3788 -0.8324
vn -0.2590 0.3145 0.9133
vn -0.8021 0.4760 0.3605
vn -0.3971 0.3692 0.8403
vn -0.8053 0.4761 0.3533
vn 0.3992 0.3689 0.8394
vn -0.8027 0.4762 -0.3590
vn 0.2612 0.3145 0.9126
vn -0.8061 0.4761 -0.3513
vn 0.8030 0.4760 0.3586
vn -0.3991 0.3692 -0.8393
vn 0.8060 0.4764 0.3512
vn -0.2612 0.3145 -0.9126
vn 0.8053 0.4761 -0.3533
vn 0.2590 0.3145 -0.9133
vn 0.8019 0.4762 -0.3609
vn 0.3971 0.3692 -0.8403
vn -0.2501 0.3309 0.9099
vn -0.7882 0.5006 0.3580
vn -0.3935 0.3912 0.8319
vn 0.2523 0.3309 0.9093
vn -0.7916 0.5012 0.3495
vn 0.3956 0.3912 0.8309
vn -0.7891 0.5006 -0.3560
vn 0.7891 0.5006 0.3560
vn -0.7926 0.5010 -0.3475
vn 0.7924 0.5012 0.3476
vn -0.3956 0.3912 -0.8309
vn 0.7916 0.5012 -0.3495
vn -0.2523 0.3309 -0.9093
vn 0.7880 0.5010 -0.3577
vn 0.2501 0.3309 -0.9099
vn 0.3935 0.3912 -0.8319
vn -0.2344 0.8873 0.3973
vn -0.0439 0.8722 0.4872
vn -0.0798 0.7782 0.6230
vn -0.2392 0.8107 0.5344
vn -0.4303 0.8117 0.3949
vn 0.0036 0.9845 0.1754
vn -0.3851 0.8875 0.2530
vn -0.1929 0.9725 0.1307
vn -0.3414 0.9366 0.0790
vn -0.3416 0.9366 -0.0782
vn -0.1932 0.9725 -0.1302
vn 0.0032 0.9845 -0.1754
vn -0.3857 0.8875 -0.2520
vn -0.2354 0.8873 -0.3967
vn -0.0451 0.8722 -0.4871
vn -0.4312 0.8118 -0.3939
vn -0.0814 0.7782 -0.6227
vn -0.2405 0.8107 -0.5338
vn 0.5448 0.4313 -0.7192
vn -0.2182 0.7814 -0.5846
vn 0.5204 0.4617 -0.7183
vn 0.6618 -0.4165 -0.6233
vn -0.2063 0.7857 -0.5832
vn 0.6680 -0.4089 -0.6217
vn -0.5708 0.5183 -0.6368
vn 0.2439 -0.7254 -0.6437
vn -0.5717 0.5162 -0.6377
vn 0.2428 -0.7260 -0.6434
vn -0.7376 0.1771 -0.6516
vn -0.7379 0.1773 -0.6512
vn -0.7544 -0.0894 -0.6503
vn -0.7544 -0.0904 -0.6501
vn -0.6423 -0.3942 -0.6573
vn -0.6423 -0.3943 -0.6573
vn -0.4291 -0.6276 -0.6496
vn -0.1723 -0.7332 -0.6578
vn -0.0005 -1.0000 -0.0005
vn -0.0017 -0.0483 -0.9988
vn -0.0017 -0.0484 -0.9988
vn 0.5465 0.4313 0.7178
vn -0.2168 0.7814 0.5852
vn -0.2049 0.7857 0.5837
vn -0.5693 0.5183 0.6382
vn 0.5222 0.4617 0.7171
vn -0.5701 0.5162 0.6391
vn 0.6634 -0.4165 0.6217
vn -0.7363 0.1773 0.6530
vn 0.6695 -0.4089 0.6201
vn 0.2455 -0.7254 0.6431
vn -0.7529 -0.0894 0.6521
vn 0.2444 -0.7260 0.6428
vn -0.7529 -0.0904 0.6519
vn -0.6407 -0.3943 0.6588
vn -0.6407 -0.3943 0.6589
vn -0.4276 -0.6276 0.6506
vn -0.4275 -0.6276 0.6506
vn -0.1707 -0.7333 0.6582
vn -0.1707 -0.7332 0.6582
vn 0.0007 -0.0484 0.9988
vn 0.0007 -0.0483 0.9988
vn -0.0007 -0.0034 -1.0000
vn 0.0022 -0.0367 -0.9993
vn 0.0022 -0.0366 -0.9993
vn 0.0063 -0.0699 -0.9975
vn 0.0061 -0.0699 -0.9975
vn -0.0016 0.1793 -0.9838
vn -0.0017 0.1794 -0.9838
vn 0.0009 0.7071 0.7071
vn 0.0007 0.0005 1.0000
vn 0.0004 -0.7071 0.7071
vn 0.0005 -0.7071 0.7071
vn -0.0009 0.7071 -0.7071
vn -0.0017 0.0005 -1.0000
vn -0.0014 -0.7071 -0.7071
vn -0.0013 -0.7071 -0.7071
vn -0.4789 -0.8113 -0.3352
vn -0.4792 -0.3357 -0.8110
vn -0.0008 -0.9239 -0.3826
vn -0.0000 -0.9239 0.3826
vn -0.4783 -0.8111 0.3366
vn 0.4789 -0.8113 0.3352
vn 0.4778 -0.8116 -0.3362
vn 0.4793 -0.3356 0.8109
vn -0.0015 -0.3826 -0.9239
vn 0.4774 -0.3357 -0.8121
vn 0.4773 0.3357 -0.8121
vn 0.0006 -0.3825 0.9239
vn -0.4774 -0.3357 0.8120
vn -0.4774 0.3357 0.8120
vn 0.0008 0.3826 0.9239
vn 0.4794 0.3357 0.8108
vn 0.0005 0.9239 0.3827
vn -0.4778 0.8116 0.3362
vn 0.4788 0.8114 0.3351
vn -0.4791 0.8112 -0.3354
vn -0.0009 0.9239 -0.3826
vn 0.4781 0.8113 -0.3364
vn -0.4794 0.3357 -0.8108
vn -0.0015 0.3826 -0.9239
vn 0.0046 -0.0366 0.9993
vn 0.0017 -0.0034 1.0000
vn 0.0087 -0.0699 0.9975
vn 0.0085 -0.0699 0.9975
vn 0.0086 -0.0699 0.9975
vn 0.0007 0.1794 0.9838
vn -0.0018 0.0005 -1.0000
vn 0.0005 0.7071 0.7071
vn -0.0012 -0.7071 -0.7071
vn -0.0009 -0.7071 -0.7071
vn 0.0009 -0.7071 0.7071
vn 0.4906 -0.7932 -0.3608
vn 0.3284 -0.8664 -0.3762
vn 0.4436 -0.8534 -0.2736
vn 0.3537 -0.8087 -0.4700
vn 0.2138 -0.8007 -0.5597
vn 0.1710 -0.8799 -0.4433
vn 0.2722 -0.9516 -0.1425
vn 0.4000 -0.9110 -0.1006
vn 0.1136 -0.9796 -0.1658
vn 0.4001 -0.9110 0.0996
vn 0.1140 -0.9796 0.1655
vn 0.2726 -0.9516 0.1419
vn 0.4443 -0.8534 0.2725
vn 0.1720 -0.8799 0.4429
vn 0.3294 -0.8664 0.3754
vn 0.4916 -0.7931 0.3596
vn 0.2152 -0.8007 0.5591
vn 0.3549 -0.8087 0.4692
vn -0.0013 0.7071 -0.7071
vn 0.0003 -0.7071 0.7071
vn 1.0000 0.0005 -0.0018
vn 0.3549 0.8087 0.4692
vn 0.3294 0.8664 0.3754
vn 0.4915 0.7932 0.3596
vn 0.2152 0.8007 0.5591
vn 0.4443 0.8534 0.2726
vn 0.1720 0.8799 0.4429
vn 0.2726 0.9516 0.1419
vn 0.4002 0.9110 0.0996
vn 0.1140 0.9796 0.1655
vn 0.3999 0.9110 -0.1006
vn 0.1137 0.9796 -0.1658
vn 0.2722 0.9516 -0.1425
vn 0.4436 0.8534 -0.2736
vn 0.1709 0.8799 -0.4433
vn 0.3284 0.8664 -0.3762
vn 0.4906 0.7932 -0.3608
vn 0.2138 0.8007 -0.5596
vn 0.3537 0.8087 -0.4700
vn 0.9838 0.1792 -0.0016
vn 0.9838 0.1791 -0.0014
vn 0.9838 0.1794 -0.0017
vn -0.8575 0.5145 0.0006
vn -0.8575 0.5144 0.0007
vn -0.8576 0.5143 0.0010
vn -0.3545 0.9288 -0.1077
vn -0.1503 0.9485 -0.2788
vn -0.1746 0.9497 -0.2599
vn -0.4209 0.9059 -0.0470
vn 0.1497 0.9485 -0.2791
vn -0.4207 0.9059 0.0480
vn 0.1738 0.9498 -0.2602
vn -0.3541 0.9289 0.1084
vn 0.3542 0.9289 -0.1085
vn -0.1497 0.9485 0.2791
vn 0.4207 0.9059 -0.0480
vn -0.1739 0.9497 0.2604
vn 0.4209 0.9059 0.0470
vn 0.1503 0.9486 0.2786
vn 0.3545 0.9288 0.1077
vn 0.1745 0.9498 0.2598
vn 0.9755 0.0005 -0.2199
vn 0.5339 0.0005 -0.8455
vn 0.9755 0.0005 -0.2198
vn 0.5349 0.0006 -0.8449
vn 0.9761 0.0005 0.2175
vn -0.5360 0.0005 -0.8442
vn 0.9761 0.0005 0.2173
vn -0.5366 0.0004 -0.8438
vn 0.5360 0.0005 0.8442
vn -0.9761 0.0005 -0.2175
vn 0.5370 0.0007 0.8436
vn -0.9761 0.0005 -0.2174
vn -0.5349 0.0007 0.8449
vn -0.9755 0.0005 0.2198
vn -0.5338 0.0005 0.8456
vn -0.9755 0.0005 0.2199
vt 0.000000 0.000000
s 1
f 1/1/1 2/1/1 3/1/1
f 1/1/1 4/1/1 2/1/1
f 4/1/1 1/1/1 5/1/1
f 4/1/1 5/1/1 6/1/1
f 5/1/1 1/1/1 7/1/1
f 5/1/1 7/1/1 8/1/1
f 9/1/2 10/1/2 11/1/2
f 10/1/2 12/1/2 11/1/2
f 10/1/2 9/1/2 13/1/2
f 12/1/2 10/1/2 14/1/2
f 15/1/2 13/1/2 9/1/2
f 16/1/2 12/1/2 14/1/2
f 9/1/2 17/1/2 15/1/2
f 14/1/2 18/1/2 16/1/2
f 19/1/2 15/1/2 17/1/2
f 18/1/2 20/1/2 16/1/2
f 15/1/2 19/1/2 21/1/2
f 20/1/2 18/1/2 22/1/2
f 23/1/2 21/1/2 19/1/2
f 24/1/2 20/1/2 22/1/2
f 21/1/2 23/1/2 24/1/2
f 20/1/2 24/1/2 23/1/2
f 25/1/3 26/1/4 27/1/4
f 26/1/4 25/1/3 28/1/5
f 29/1/6 27/1/4 26/1/4
f 25/1/3 30/1/7 28/1/5
f 31/1/8 27/1/4 29/1/6
f 32/1/9 28/1/5 30/1/7
f 30/1/7 33/1/10 32/1/9
f 34/1/11 32/1/9 33/1/10
f 29/1/6 35/1/12 31/1/8
f 35/1/12 29/1/6 36/1/13
f 36/1/13 37/1/14 35/1/12
f 37/1/14 36/1/13 38/1/14
f 38/1/14 39/1/15 37/1/14
f 39/1/15 38/1/14 40/1/16
f 40/1/16 41/1/17 39/1/15
f 41/1/17 40/1/16 42/1/18
f 42/1/18 43/1/19 41/1/17
f 43/1/19 42/1/18 44/1/20
f 45/1/21 46/1/22 47/1/21
f 47/1/21 46/1/22 48/1/23
f 49/1/24 50/1/25 51/1/26
f 52/1/27 49/1/24 51/1/26
f 50/1/25 49/1/24 53/1/28
f 49/1/24 52/1/27 54/1/29
f 54/1/29 53/1/28 49/1/24
f 55/1/30 54/1/29 52/1/27
f 53/1/28 56/1/31 50/1/25
f 54/1/29 55/1/30 57/1/32
f 57/1/32 53/1/28 54/1/29
f 58/1/33 57/1/32 55/1/30
f 58/1/33 53/1/28 57/1/32
f 55/1/30 59/1/34 58/1/33
f 56/1/31 53/1/28 60/1/35
f 58/1/33 60/1/35 53/1/28
f 61/1/36 56/1/31 60/1/35
f 60/1/35 58/1/33 61/1/36
f 56/1/31 61/1/36 62/1/37
f 59/1/34 63/1/38 58/1/33
f 61/1/36 58/1/33 63/1/38
f 63/1/38 59/1/34 64/1/39
f 64/1/39 62/1/37 61/1/36
f 64/1/39 61/1/36 63/1/38
f 65/1/1 66/1/1 67/1/1
f 66/1/1 65/1/1 68/1/1
f 68/1/1 69/1/1 66/1/1
f 70/1/1 71/1/1 72/1/1
f 73/1/1 72/1/1 71/1/1
f 74/1/1 70/1/1 72/1/1
f 75/1/1 73/1/1 71/1/1
f 70/1/1 74/1/1 76/1/1
f 73/1/1 75/1/1 77/1/1
f 74/1/1 78/1/1 76/1/1
f 75/1/1 79/1/1 77/1/1
f 74/1/1 80/1/1 78/1/1
f 79/1/1 75/1/1 81/1/1
f 80/1/1 82/1/1 78/1/1
f 83/1/1 79/1/1 81/1/1
f 82/1/1 80/1/1 84/1/1
f 84/1/1 83/1/1 82/1/1
f 79/1/1 83/1/1 85/1/1
f 83/1/1 84/1/1 85/1/1
f 86/1/40 87/1/40 88/1/41
f 86/1/40 88/1/41 89/1/42
f 87/1/40 86/1/40 90/1/43
f 91/1/44 89/1/42 88/1/41
f 90/1/43 92/1/45 87/1/40
f 89/1/42 91/1/44 93/1/46
f 94/1/47 93/1/46 91/1/44
f 93/1/46 94/1/47 95/1/48
f 90/1/43 96/1/49 92/1/45
f 96/1/49 90/1/43 97/1/50
f 97/1/50 98/1/51 96/1/49
f 98/1/51 97/1/50 99/1/51
f 99/1/51 100/1/52 98/1/51
f 100/1/52 99/1/51 101/1/53
f 101/1/53 102/1/54 100/1/52
f 102/1/54 101/1/53 103/1/55
f 103/1/55 104/1/56 102/1/54
f 104/1/56 103/1/55 105/1/57
f 106/1/2 107/1/2 108/1/2
f 107/1/2 106/1/2 109/1/2
f 109/1/2 106/1/2 110/1/2
f 111/1/2 107/1/2 109/1/2
f 107/1/2 111/1/2 112/1/2
f 111/1/2 109/1/2 113/1/2
f 114/1/58 115/1/59 116/1/60
f 117/1/61 116/1/60 115/1/59
f 116/1/60 118/1/58 114/1/58
f 116/1/60 117/1/61 119/1/61
f 118/1/58 120/1/62 114/1/58
f 121/1/63 119/1/61 117/1/61
f 120/1/62 118/1/58 122/1/64
f 121/1/63 117/1/61 123/1/65
f 124/1/66 120/1/62 122/1/64
f 125/1/67 121/1/63 123/1/65
f 120/1/62 124/1/66 126/1/66
f 121/1/63 125/1/67 127/1/67
f 128/1/68 126/1/66 124/1/66
f 125/1/67 128/1/68 127/1/67
f 126/1/66 128/1/68 129/1/69
f 128/1/68 125/1/67 129/1/69
f 130/1/70 131/1/71 132/1/70
f 133/1/72 130/1/70 132/1/70
f 131/1/71 130/1/70 134/1/73
f 133/1/72 135/1/74 130/1/70
f 131/1/71 134/1/73 136/1/75
f 133/1/72 137/1/76 135/1/74
f 131/1/71 136/1/75 138/1/75
f 137/1/76 133/1/72 139/1/76
f 136/1/75 140/1/77 138/1/75
f 141/1/78 137/1/76 139/1/76
f 140/1/77 136/1/75 142/1/77
f 141/1/78 143/1/79 137/1/76
f 144/1/80 140/1/77 142/1/77
f 141/1/78 144/1/80 143/1/79
f 145/1/80 140/1/77 144/1/80
f 144/1/80 141/1/78 145/1/80
f 146/1/81 147/1/82 148/1/83
f 147/1/82 146/1/81 149/1/84
f 150/1/2 151/1/2 152/1/2
f 151/1/2 150/1/2 153/1/2
f 151/1/2 153/1/2 154/1/2
f 154/1/2 153/1/2 155/1/2
f 156/1/85 157/1/86 158/1/86
f 157/1/86 156/1/85 159/1/87
f 159/1/87 156/1/85 160/1/88
f 160/1/88 156/1/85 161/1/89
f 160/1/88 161/1/89 162/1/90
f 162/1/90 161/1/89 163/1/91
f 162/1/90 163/1/91 164/1/92
f 164/1/92 163/1/91 165/1/93
f 164/1/92 165/1/93 166/1/94
f 164/1/92 166/1/94 167/1/95
f 168/1/96 164/1/92 167/1/95
f 164/1/92 168/1/96 169/1/97
f 170/1/98 169/1/97 168/1/96
f 169/1/97 170/1/98 171/1/98
f 172/1/99 171/1/98 170/1/98
f 171/1/98 172/1/99 173/1/100
f 172/1/99 174/1/101 173/1/100
f 174/1/101 172/1/99 175/1/102
f 174/1/101 175/1/102 176/1/103
f 176/1/103 175/1/102 177/1/104
f 176/1/103 177/1/104 178/1/105
f 178/1/105 177/1/104 179/1/106
f 178/1/105 179/1/106 180/1/107
f 181/1/108 178/1/105 180/1/107
f 178/1/105 181/1/108 182/1/109
f 183/1/2 184/1/2 185/1/2
f 184/1/2 183/1/2 186/1/2
f 184/1/2 186/1/2 187/1/2
f 187/1/2 186/1/2 188/1/2
f 189/1/110 190/1/111 191/1/112
f 190/1/111 189/1/110 192/1/113
f 193/1/114 190/1/111 192/1/113
f 190/1/111 193/1/114 194/1/115
f 195/1/116 194/1/115 193/1/114
f 194/1/115 195/1/116 196/1/117
f 197/1/118 196/1/117 195/1/116
f 198/1/119 196/1/117 197/1/118
f 197/1/118 199/1/120 198/1/119
f 197/1/118 200/1/121 199/1/120
f 197/1/118 201/1/122 200/1/121
f 201/1/122 197/1/118 202/1/123
f 202/1/123 203/1/124 201/1/122
f 203/1/124 202/1/123 204/1/125
f 204/1/125 205/1/126 203/1/124
f 205/1/126 204/1/125 206/1/127
f 207/1/128 205/1/126 206/1/127
f 205/1/126 207/1/128 208/1/129
f 209/1/130 208/1/129 207/1/128
f 210/1/131 208/1/129 209/1/130
f 211/1/132 210/1/131 209/1/130
f 212/1/133 210/1/131 211/1/132
f 211/1/132 213/1/134 212/1/133
f 211/1/132 214/1/135 213/1/134
f 214/1/135 211/1/132 215/1/136
f 216/1/137 217/1/138 218/1/139
f 217/1/138 219/1/140 218/1/139
f 220/1/141 216/1/137 218/1/139
f 216/1/137 220/1/141 221/1/142
f 220/1/141 222/1/143 221/1/142
f 222/1/143 220/1/141 223/1/144
f 223/1/144 224/1/145 222/1/143
f 224/1/145 223/1/144 225/1/146
f 225/1/146 226/1/147 224/1/145
f 226/1/147 225/1/146 227/1/148
f 228/1/149 229/1/150 230/1/151
f 228/1/149 230/1/151 231/1/152
f 231/1/152 232/1/153 228/1/149
f 232/1/153 231/1/152 233/1/154
f 232/1/153 233/1/154 234/1/155
f 234/1/155 233/1/154 235/1/156
f 236/1/157 234/1/155 235/1/156
f 234/1/155 236/1/157 237/1/158
f 238/1/159 237/1/158 236/1/157
f 237/1/158 238/1/159 239/1/160
f 240/1/161 241/1/161 242/1/161
f 242/1/161 241/1/161 243/1/161
f 244/1/162 245/1/163 246/1/164
f 245/1/163 244/1/162 247/1/165
f 248/1/166 244/1/162 246/1/164
f 244/1/162 249/1/167 247/1/165
f 244/1/162 248/1/166 250/1/168
f 250/1/168 251/1/169 244/1/162
f 249/1/167 244/1/162 251/1/169
f 251/1/169 250/1/168 252/1/170
f 251/1/169 252/1/170 253/1/171
f 249/1/167 251/1/169 254/1/172
f 251/1/169 253/1/171 254/1/172
f 249/1/167 254/1/172 255/1/173
f 254/1/172 253/1/171 256/1/174
f 255/1/173 254/1/172 257/1/175
f 256/1/174 257/1/175 254/1/172
f 255/1/173 257/1/175 258/1/176
f 256/1/174 259/1/177 257/1/175
f 257/1/175 260/1/178 258/1/176
f 259/1/177 261/1/179 257/1/175
f 260/1/178 257/1/175 261/1/179
f 262/1/180 263/1/181 264/1/182
f 263/1/181 265/1/183 264/1/182
f 266/1/184 262/1/180 264/1/182
f 263/1/181 267/1/185 265/1/183
f 262/1/180 266/1/184 268/1/186
f 269/1/187 268/1/186 266/1/184
f 268/1/186 269/1/187 270/1/188
f 269/1/187 271/1/189 270/1/188
f 271/1/189 269/1/187 272/1/190
f 273/1/191 271/1/189 272/1/190
f 271/1/189 273/1/191 274/1/192
f 274/1/192 275/1/2 271/1/189
f 275/1/2 274/1/192 276/1/2
f 277/1/193 275/1/2 276/1/2
f 275/1/2 277/1/193 278/1/194
f 279/1/195 278/1/194 277/1/193
f 278/1/194 279/1/195 280/1/196
f 281/1/197 278/1/194 280/1/196
f 278/1/194 281/1/197 282/1/198
f 281/1/197 283/1/199 282/1/198
f 283/1/199 281/1/197 284/1/200
f 284/1/200 285/1/201 283/1/199
f 285/1/201 284/1/200 286/1/202
f 287/1/203 285/1/201 286/1/202
f 286/1/202 288/1/204 287/1/203
f 289/1/205 287/1/203 288/1/204
f 287/1/203 289/1/205 290/1/206
f 291/1/207 290/1/206 289/1/205
f 290/1/206 291/1/207 292/1/208
f 293/1/1 290/1/206 292/1/208
f 290/1/206 293/1/1 294/1/1
f 293/1/1 295/1/209 294/1/1
f 295/1/209 293/1/1 296/1/210
f 296/1/210 297/1/211 295/1/209
f 295/1/209 297/1/211 267/1/185
f 267/1/185 263/1/181 295/1/209
f 298/1/212 299/1/213 300/1/214
f 299/1/213 298/1/212 301/1/214
f 302/1/215 303/1/216 304/1/217
f 303/1/216 302/1/215 305/1/218
f 306/1/161 307/1/161 308/1/161
f 307/1/161 309/1/161 308/1/161
f 310/1/161 311/1/161 312/1/161
f 311/1/161 310/1/161 313/1/161
f 314/1/161 310/1/161 312/1/161
f 314/1/161 315/1/161 310/1/161
f 316/1/219 317/1/219 318/1/219
f 318/1/219 319/1/219 316/1/219
f 320/1/219 319/1/219 318/1/219
f 319/1/219 320/1/219 321/1/219
f 320/1/219 322/1/219 321/1/219
f 322/1/219 320/1/219 323/1/220
f 324/1/220 317/1/219 316/1/219
f 317/1/219 324/1/220 325/1/219
f 325/1/219 326/1/219 317/1/219
f 326/1/219 325/1/219 327/1/221
f 327/1/221 328/1/219 326/1/219
f 328/1/219 327/1/221 329/1/222
f 324/1/220 330/1/222 325/1/219
f 330/1/222 324/1/220 331/1/219
f 331/1/219 324/1/220 332/1/219
f 333/1/219 332/1/219 324/1/220
f 332/1/219 333/1/219 334/1/219
f 324/1/220 335/1/219 333/1/219
f 335/1/219 324/1/220 336/1/219
f 336/1/219 324/1/220 337/1/219
f 338/1/219 336/1/219 337/1/219
f 336/1/219 338/1/219 339/1/219
f 339/1/219 338/1/219 340/1/219
f 341/1/161 342/1/161 343/1/161
f 344/1/161 342/1/161 341/1/161
f 345/1/161 342/1/161 344/1/161
f 345/1/161 346/1/161 342/1/161
f 347/1/161 346/1/161 345/1/161
f 346/1/161 347/1/161 348/1/161
f 349/1/161 350/1/161 351/1/161
f 350/1/161 349/1/161 352/1/161
f 353/1/161 351/1/161 350/1/161
f 353/1/161 354/1/161 351/1/161
f 354/1/161 353/1/161 355/1/161
f 355/1/161 353/1/161 356/1/161
f 357/1/223 358/1/224 359/1/225
f 358/1/224 357/1/223 360/1/224
f 357/1/223 361/1/223 360/1/224
f 361/1/223 357/1/223 362/1/224
f 362/1/224 363/1/224 361/1/223
f 363/1/224 362/1/224 364/1/224
f 364/1/224 365/1/225 363/1/224
f 366/1/224 365/1/225 364/1/224
f 364/1/224 367/1/224 366/1/224
f 367/1/224 368/1/226 366/1/224
f 369/1/224 368/1/226 367/1/224
f 368/1/226 369/1/224 370/1/224
f 365/1/225 366/1/224 371/1/224
f 372/1/224 365/1/225 371/1/224
f 373/1/224 365/1/225 372/1/224
f 374/1/224 365/1/225 373/1/224
f 374/1/224 373/1/224 375/1/224
f 376/1/224 365/1/225 374/1/224
f 377/1/224 365/1/225 376/1/224
f 365/1/225 377/1/224 378/1/224
f 378/1/224 377/1/224 379/1/224
f 380/1/224 379/1/224 377/1/224
f 381/1/224 379/1/224 380/1/224
f 382/1/161 383/1/161 384/1/161
f 382/1/161 384/1/161 385/1/161
f 382/1/161 385/1/161 386/1/161
f 387/1/161 383/1/161 382/1/161
f 383/1/161 387/1/161 388/1/161
f 388/1/161 387/1/161 389/1/161
f 390/1/227 391/1/228 392/1/229
f 390/1/227 392/1/229 393/1/230
f 390/1/227 394/1/231 391/1/228
f 394/1/231 390/1/227 395/1/231
f 396/1/232 394/1/231 395/1/231
f 397/1/233 394/1/231 396/1/232
f 398/1/228 399/1/234 400/1/229
f 398/1/228 400/1/229 401/1/229
f 398/1/228 402/1/231 399/1/234
f 402/1/231 398/1/228 403/1/235
f 404/1/233 402/1/231 403/1/235
f 402/1/231 404/1/233 405/1/236
f 406/1/237 407/1/238 408/1/239
f 408/1/239 407/1/238 409/1/240
f 410/1/241 406/1/237 408/1/239
f 407/1/238 411/1/242 409/1/240
f 406/1/237 410/1/241 412/1/243
f 411/1/242 407/1/238 413/1/244
f 410/1/241 414/1/245 412/1/243
f 413/1/244 415/1/246 411/1/242
f 414/1/245 410/1/241 416/1/247
f 415/1/246 413/1/244 417/1/248
f 416/1/247 418/1/249 414/1/245
f 419/1/250 415/1/246 417/1/248
f 418/1/249 416/1/247 420/1/251
f 421/1/252 415/1/246 419/1/250
f 418/1/249 421/1/252 419/1/250
f 420/1/251 421/1/252 418/1/249
f 422/1/253 423/1/254 424/1/255
f 424/1/255 423/1/254 425/1/256
f 426/1/257 422/1/253 424/1/255
f 427/1/258 425/1/256 423/1/254
f 422/1/253 426/1/257 428/1/259
f 425/1/256 427/1/258 429/1/260
f 426/1/257 430/1/261 428/1/259
f 427/1/258 431/1/262 429/1/260
f 430/1/261 426/1/257 432/1/263
f 431/1/262 427/1/258 433/1/264
f 432/1/263 434/1/265 430/1/261
f 435/1/266 431/1/262 433/1/264
f 430/1/261 434/1/265 436/1/267
f 437/1/268 431/1/262 435/1/266
f 434/1/265 437/1/268 436/1/267
f 436/1/267 437/1/268 435/1/266
f 438/1/269 439/1/270 440/1/271
f 440/1/271 441/1/272 438/1/269
f 440/1/271 439/1/270 442/1/273
f 441/1/272 440/1/271 443/1/274
f 444/1/275 442/1/273 439/1/270
f 443/1/274 445/1/276 441/1/272
f 442/1/273 444/1/275 446/1/277
f 445/1/276 443/1/274 447/1/278
f 444/1/275 448/1/279 446/1/277
f 447/1/278 449/1/280 445/1/276
f 448/1/279 444/1/275 450/1/281
f 445/1/276 449/1/280 451/1/282
f 452/1/283 448/1/279 450/1/281
f 449/1/280 453/1/284 451/1/282
f 453/1/284 448/1/279 452/1/283
f 451/1/282 453/1/284 452/1/283
f 454/1/285 455/1/286 456/1/287
f 454/1/285 456/1/287 457/1/288
f 458/1/289 454/1/285 457/1/288
f 454/1/285 459/1/290 455/1/286
f 454/1/285 458/1/289 460/1/291
f 460/1/291 461/1/292 454/1/285
f 459/1/290 454/1/285 461/1/292
f 461/1/292 460/1/291 462/1/293
f 463/1/294 461/1/292 462/1/293
f 464/1/295 459/1/290 461/1/292
f 461/1/292 463/1/294 464/1/295
f 459/1/290 464/1/295 465/1/296
f 466/1/297 464/1/295 463/1/294
f 467/1/298 465/1/296 464/1/295
f 464/1/295 466/1/297 467/1/298
f 465/1/296 467/1/298 468/1/299
f 469/1/300 467/1/298 466/1/297
f 467/1/298 470/1/301 468/1/299
f 467/1/298 469/1/300 471/1/302
f 470/1/301 467/1/298 471/1/302
f 472/1/303 473/1/304 474/1/305
f 475/1/306 472/1/303 474/1/305
f 473/1/304 472/1/303 476/1/307
f 472/1/303 475/1/306 477/1/308
f 478/1/309 473/1/304 476/1/307
f 479/1/310 477/1/308 475/1/306
f 473/1/304 478/1/309 480/1/311
f 477/1/308 479/1/310 481/1/312
f 482/1/313 480/1/311 478/1/309
f 182/1/109 481/1/312 479/1/310
f 482/1/313 478/1/309 483/1/314
f 481/1/312 182/1/109 181/1/108
f 482/1/313 483/1/314 484/1/315
f 484/1/315 483/1/314 485/1/316
f 486/1/317 484/1/315 485/1/316
f 484/1/315 486/1/317 487/1/318
f 486/1/317 488/1/319 487/1/318
f 488/1/319 486/1/317 489/1/319
f 488/1/319 489/1/319 490/1/320
f 490/1/320 489/1/319 491/1/320
f 491/1/320 157/1/86 490/1/320
f 157/1/86 491/1/320 158/1/86
f 492/1/321 493/1/321 494/1/321
f 492/1/321 494/1/321 495/1/321
f 496/1/321 497/1/321 498/1/321
f 496/1/321 498/1/321 499/1/321
f 500/1/322 501/1/323 502/1/323
f 501/1/323 500/1/322 503/1/322
f 501/1/323 504/1/323 502/1/323
f 504/1/323 501/1/323 505/1/323
f 506/1/324 507/1/325 508/1/326
f 507/1/325 509/1/327 508/1/326
f 507/1/325 506/1/324 510/1/328
f 509/1/327 507/1/325 511/1/329
f 506/1/324 512/1/330 510/1/328
f 513/1/331 509/1/327 511/1/329
f 512/1/330 506/1/324 514/1/332
f 509/1/327 513/1/331 515/1/331
f 514/1/332 516/1/333 512/1/330
f 517/1/334 515/1/331 513/1/331
f 516/1/333 514/1/332 518/1/335
f 515/1/331 517/1/334 519/1/336
f 518/1/335 215/1/136 516/1/333
f 517/1/334 520/1/337 519/1/336
f 215/1/136 518/1/335 214/1/135
f 520/1/337 517/1/334 521/1/338
f 521/1/338 522/1/339 520/1/337
f 523/1/340 520/1/337 522/1/339
f 524/1/341 523/1/340 522/1/339
f 523/1/340 524/1/341 525/1/342
f 189/1/110 525/1/342 524/1/341
f 525/1/342 189/1/110 191/1/112
f 526/1/161 527/1/161 528/1/161
f 526/1/161 528/1/161 529/1/161
f 530/1/161 531/1/161 532/1/161
f 530/1/161 532/1/161 533/1/161
f 534/1/343 535/1/344 536/1/343
f 535/1/344 534/1/343 537/1/344
f 538/1/343 534/1/343 536/1/343
f 534/1/343 538/1/343 539/1/343
f 540/1/345 541/1/346 542/1/347
f 541/1/346 540/1/345 543/1/345
f 541/1/346 544/1/348 542/1/347
f 544/1/348 541/1/346 545/1/349
f 545/1/349 546/1/349 544/1/348
f 546/1/349 545/1/349 547/1/349
f 548/1/350 549/1/351 550/1/350
f 549/1/351 548/1/350 551/1/350
f 552/1/352 553/1/352 554/1/353
f 555/1/353 554/1/353 553/1/352
f 552/1/352 556/1/161 553/1/352
f 554/1/353 555/1/353 557/1/354
f 556/1/161 552/1/352 558/1/161
f 559/1/355 557/1/354 555/1/353
f 558/1/161 560/1/356 556/1/161
f 561/1/321 557/1/354 559/1/355
f 560/1/356 558/1/161 562/1/356
f 557/1/354 561/1/321 563/1/321
f 560/1/356 562/1/356 564/1/357
f 565/1/358 563/1/321 561/1/321
f 566/1/357 564/1/357 562/1/356
f 564/1/357 566/1/357 565/1/358
f 563/1/321 565/1/358 567/1/359
f 567/1/359 565/1/358 566/1/357
f 568/1/360 569/1/361 570/1/362
f 571/1/363 568/1/360 570/1/362
f 572/1/364 568/1/360 571/1/363
f 571/1/363 570/1/362 573/1/365
f 573/1/365 570/1/362 574/1/366
f 575/1/367 571/1/363 573/1/365
f 570/1/362 576/1/368 574/1/366
f 576/1/368 570/1/362 569/1/361
f 574/1/366 576/1/368 577/1/369
f 578/1/370 577/1/369 576/1/368
f 579/1/371 572/1/364 571/1/363
f 575/1/367 579/1/371 571/1/363
f 579/1/371 580/1/372 572/1/364
f 579/1/371 581/1/373 580/1/372
f 575/1/367 582/1/374 579/1/371
f 581/1/373 579/1/371 582/1/374
f 582/1/374 575/1/367 583/1/375
f 581/1/373 582/1/374 584/1/376
f 583/1/375 584/1/376 582/1/374
f 581/1/373 584/1/376 585/1/377
f 584/1/376 583/1/375 586/1/378
f 584/1/376 587/1/379 585/1/377
f 586/1/378 588/1/380 584/1/376
f 587/1/379 584/1/376 588/1/380
f 588/1/380 586/1/378 589/1/381
f 589/1/381 578/1/370 588/1/380
f 588/1/380 590/1/382 587/1/379
f 591/1/383 588/1/380 578/1/370
f 590/1/382 588/1/380 591/1/383
f 576/1/368 591/1/383 578/1/370
f 569/1/361 590/1/382 591/1/383
f 591/1/383 576/1/368 569/1/361
f 592/1/384 593/1/385 594/1/384
f 593/1/385 592/1/384 595/1/385
f 596/1/386 592/1/384 594/1/384
f 596/1/386 597/1/387 592/1/384
f 598/1/387 597/1/387 596/1/386
f 597/1/387 598/1/387 599/1/388
f 600/1/389 601/1/389 602/1/389
f 601/1/389 600/1/389 603/1/389
f 604/1/357 605/1/390 606/1/357
f 606/1/357 607/1/390 604/1/357
f 608/1/353 609/1/353 610/1/353
f 609/1/353 608/1/353 611/1/353
f 612/1/356 613/1/356 614/1/161
f 615/1/161 614/1/161 613/1/356
f 612/1/356 616/1/357 613/1/356
f 614/1/161 615/1/161 617/1/352
f 616/1/357 612/1/356 618/1/357
f 619/1/391 617/1/352 615/1/161
f 618/1/357 620/1/392 616/1/357
f 619/1/391 621/1/353 617/1/352
f 620/1/392 618/1/357 622/1/393
f 621/1/353 619/1/391 623/1/353
f 624/1/321 620/1/392 622/1/393
f 623/1/353 625/1/354 621/1/353
f 620/1/392 624/1/321 626/1/321
f 625/1/354 626/1/321 624/1/321
f 625/1/354 623/1/353 627/1/394
f 626/1/321 625/1/354 627/1/394
f 628/1/357 629/1/357 630/1/357
f 631/1/357 629/1/357 628/1/357
f 629/1/357 631/1/357 632/1/357
f 632/1/357 631/1/357 633/1/357
f 634/1/357 635/1/357 636/1/357
f 634/1/357 636/1/357 637/1/357
f 638/1/357 637/1/357 636/1/357
f 637/1/357 638/1/357 639/1/357
f 640/1/353 641/1/353 642/1/353
f 640/1/353 642/1/353 643/1/353
f 644/1/353 641/1/353 640/1/353
f 641/1/353 644/1/353 645/1/353
f 646/1/353 647/1/353 648/1/353
f 649/1/353 647/1/353 646/1/353
f 649/1/353 650/1/353 647/1/353
f 650/1/353 649/1/353 651/1/353
f 652/1/353 653/1/394 654/1/353
f 654/1/353 653/1/394 655/1/394
f 656/1/352 652/1/353 654/1/353
f 653/1/394 657/1/321 655/1/394
f 658/1/352 652/1/353 656/1/352
f 655/1/394 657/1/321 659/1/321
f 656/1/352 660/1/161 658/1/352
f 657/1/321 661/1/393 659/1/321
f 658/1/352 660/1/161 662/1/161
f 659/1/321 661/1/393 663/1/393
f 660/1/161 664/1/356 662/1/161
f 661/1/393 665/1/357 663/1/393
f 662/1/161 664/1/356 666/1/356
f 663/1/393 665/1/357 667/1/357
f 667/1/357 666/1/356 664/1/356
f 665/1/357 666/1/356 667/1/357
f 668/1/395 669/1/396 670/1/397
f 669/1/396 668/1/395 671/1/398
f 672/1/399 669/1/396 671/1/398
f 669/1/396 672/1/399 673/1/400
f 674/1/401 670/1/397 669/1/396
f 673/1/400 674/1/401 669/1/396
f 670/1/397 674/1/401 675/1/402
f 674/1/401 673/1/400 676/1/403
f 674/1/401 677/1/404 675/1/402
f 678/1/405 674/1/401 676/1/403
f 677/1/404 674/1/401 679/1/406
f 679/1/406 674/1/401 678/1/405
f 679/1/406 680/1/407 677/1/404
f 681/1/408 679/1/406 678/1/405
f 680/1/407 679/1/406 682/1/409
f 682/1/409 679/1/406 681/1/408
f 682/1/409 683/1/410 680/1/407
f 684/1/411 682/1/409 681/1/408
f 683/1/410 682/1/409 685/1/412
f 684/1/411 685/1/412 682/1/409
f 686/1/413 687/1/357 688/1/413
f 688/1/413 689/1/161 686/1/413
f 688/1/413 687/1/357 690/1/357
f 689/1/161 688/1/413 691/1/161
f 687/1/357 692/1/392 690/1/357
f 691/1/161 693/1/352 689/1/161
f 690/1/357 692/1/392 694/1/393
f 693/1/352 691/1/161 695/1/352
f 692/1/392 696/1/321 694/1/393
f 697/1/353 693/1/352 695/1/352
f 694/1/393 696/1/321 698/1/321
f 699/1/353 697/1/353 695/1/352
f 696/1/321 700/1/394 698/1/321
f 700/1/394 697/1/353 699/1/353
f 698/1/321 700/1/394 701/1/414
f 701/1/414 700/1/394 699/1/353
f 702/1/1 703/1/1 704/1/415
f 703/1/1 702/1/1 705/1/1
f 705/1/1 702/1/1 706/1/1
f 705/1/1 706/1/1 707/1/415
f 708/1/416 709/1/417 710/1/418
f 711/1/419 709/1/417 708/1/416
f 709/1/417 712/1/420 710/1/418
f 709/1/417 711/1/419 713/1/421
f 712/1/420 709/1/417 714/1/422
f 713/1/421 714/1/422 709/1/417
f 714/1/422 715/1/423 712/1/420
f 714/1/422 713/1/421 716/1/424
f 714/1/422 717/1/425 715/1/423
f 714/1/422 716/1/424 718/1/426
f 717/1/425 714/1/422 719/1/427
f 714/1/422 718/1/426 719/1/427
f 719/1/427 720/1/428 717/1/425
f 719/1/427 718/1/426 721/1/429
f 720/1/428 719/1/427 722/1/430
f 719/1/427 721/1/429 722/1/430
f 722/1/430 723/1/431 720/1/428
f 722/1/430 721/1/429 724/1/432
f 723/1/431 722/1/430 725/1/433
f 722/1/430 724/1/432 725/1/433
f 726/1/434 727/1/435 728/1/436
f 726/1/434 728/1/436 729/1/434
f 730/1/1 731/1/1 732/1/415
f 731/1/1 730/1/1 733/1/1
f 733/1/1 730/1/1 734/1/1
f 733/1/1 734/1/1 735/1/415
f 736/1/437 737/1/438 738/1/438
f 738/1/438 737/1/438 739/1/439
f 740/1/1 741/1/1 742/1/1
f 742/1/1 741/1/1 743/1/1
f 740/1/1 742/1/1 744/1/1
f 741/1/1 740/1/1 745/1/1
f 745/1/1 740/1/1 746/1/1
f 741/1/1 745/1/1 747/1/1
f 748/1/440 749/1/441 750/1/442
f 749/1/441 748/1/440 751/1/443
f 752/1/444 750/1/442 749/1/441
f 748/1/440 753/1/445 751/1/443
f 750/1/442 752/1/444 754/1/446
f 748/1/440 755/1/447 753/1/445
f 752/1/444 756/1/448 754/1/446
f 755/1/447 757/1/449 753/1/445
f 756/1/448 752/1/444 758/1/450
f 757/1/449 755/1/447 759/1/451
f 760/1/452 756/1/448 758/1/450
f 759/1/451 761/1/453 757/1/449
f 756/1/448 760/1/452 762/1/454
f 760/1/452 761/1/453 762/1/454
f 759/1/451 763/1/455 761/1/453
f 763/1/455 762/1/454 761/1/453
f 764/1/2 765/1/2 766/1/2
f 765/1/2 767/1/2 766/1/2
f 767/1/2 765/1/2 768/1/2
f 769/1/2 770/1/2 771/1/2
f 772/1/2 769/1/2 771/1/2
f 770/1/2 769/1/2 773/1/2
f 769/1/2 772/1/2 774/1/2
f 775/1/2 770/1/2 773/1/2
f 772/1/2 776/1/2 774/1/2
f 775/1/2 773/1/2 777/1/2
f 776/1/2 772/1/2 778/1/2
f 779/1/2 775/1/2 777/1/2
f 780/1/2 776/1/2 778/1/2
f 779/1/2 777/1/2 781/1/2
f 776/1/2 780/1/2 782/1/2
f 783/1/2 779/1/2 781/1/2
f 784/1/2 782/1/2 780/1/2
f 784/1/2 779/1/2 783/1/2
f 782/1/2 784/1/2 783/1/2
f 785/1/456 786/1/457 787/1/458
f 786/1/457 785/1/456 788/1/459
f 787/1/458 789/1/460 785/1/456
f 788/1/459 790/1/461 786/1/457
f 789/1/460 787/1/458 791/1/462
f 788/1/459 792/1/463 790/1/461
f 793/1/464 789/1/460 791/1/462
f 794/1/465 790/1/461 792/1/463
f 789/1/460 793/1/464 795/1/466
f 796/1/467 790/1/461 794/1/465
f 793/1/464 797/1/468 795/1/466
f 798/1/469 796/1/467 794/1/465
f 793/1/464 799/1/470 797/1/468
f 794/1/465 800/1/471 798/1/469
f 799/1/470 800/1/471 797/1/468
f 800/1/471 799/1/470 798/1/469
o RenderMesh_122275727563804
v -0.806202 0.216740 0.085335
v -0.770694 0.202571 0.087615
v -0.798855 0.214089 0.068436
v -0.827675 0.192967 0.064346
v -0.831160 0.198448 0.081792
v -0.831733 0.170180 0.094859
v -0.828334 0.160327 0.079434
v -0.800173 0.148809 0.098611
v -0.826168 0.199373 0.099703
v -0.826497 0.183053 0.107247
v -0.811757 0.209934 0.101748
v -0.807344 0.160205 0.111467
v -0.814032 0.195496 0.113278
v -0.812417 0.177294 0.116836
v -0.797677 0.204175 0.111337
v -0.798007 0.187855 0.118881
v -0.781815 0.206765 0.101943
v -0.782386 0.178498 0.115010
v -0.771354 0.169931 0.102701
v -0.770905 0.202571 -0.085743
v -0.806407 0.216740 -0.083377
v -0.799018 0.214089 -0.066496
v -0.827828 0.192967 -0.062336
v -0.831356 0.198448 -0.079774
v -0.831960 0.170180 -0.092839
v -0.828525 0.160327 -0.077422
v -0.800410 0.148809 -0.096668
v -0.826407 0.199373 -0.097697
v -0.826755 0.183053 -0.105240
v -0.812002 0.209934 -0.099777
v -0.814305 0.195496 -0.111302
v -0.797945 0.204175 -0.109400
v -0.782060 0.206765 -0.100045
v -0.798294 0.187855 -0.116943
v -0.812698 0.177294 -0.114864
v -0.807613 0.160205 -0.109507
v -0.782663 0.178498 -0.113110
v -0.771601 0.169931 -0.100828
vn -0.1723 0.9849 0.0155
vn 0.6693 0.6688 0.3235
vn -0.0869 0.9778 -0.1908
vn -0.8608 0.4102 -0.3012
vn -0.8809 0.4656 -0.0850
vn -0.8971 -0.3368 0.2859
vn -0.8787 -0.4659 0.1044
vn -0.1222 -0.7756 0.6193
vn -0.7722 0.5029 0.3884
vn -0.7824 -0.0040 0.6227
vn -0.3246 0.8309 0.4520
vn -0.2048 -0.6200 0.7574
vn -0.4037 0.3906 0.8273
vn -0.3451 -0.1829 0.9206
vn 0.1124 0.6523 0.7496
vn 0.1021 0.1448 0.9842
vn 0.5200 0.7017 0.4870
vn 0.5038 -0.1007 0.8580
vn 0.6518 -0.2083 0.7292
vn 0.6686 0.6688 -0.3252
vn -0.1722 0.9849 -0.0148
vn -0.0863 0.9777 0.1913
vn -0.8601 0.4102 0.3033
vn -0.8807 0.4656 0.0872
vn -0.8976 -0.3371 -0.2841
vn -0.8789 -0.4659 -0.1022
vn -0.1239 -0.7757 -0.6189
vn -0.7731 0.5029 -0.3865
vn -0.7839 -0.0040 -0.6208
vn -0.3257 0.8309 -0.4512
vn -0.4057 0.3906 -0.8264
vn 0.1106 0.6523 -0.7498
vn 0.5186 0.7016 -0.4887
vn 0.0998 0.1449 -0.9844
vn -0.3473 -0.1829 -0.9197
vn -0.2066 -0.6200 -0.7569
vn 0.5017 -0.1007 -0.8592
vn 0.6501 -0.2083 -0.7308
vt 0.000000 0.000000
s 1
f 801/2/472 802/2/473 803/2/474
f 804/2/475 801/2/472 803/2/474
f 801/2/472 804/2/475 805/2/476
f 804/2/475 806/2/477 805/2/476
f 806/2/477 804/2/475 807/2/478
f 807/2/478 808/2/479 806/2/477
f 806/2/477 809/2/480 805/2/476
f 809/2/480 801/2/472 805/2/476
f 809/2/480 806/2/477 810/2/481
f 801/2/472 809/2/480 811/2/482
f 806/2/477 808/2/479 812/2/483
f 810/2/481 813/2/484 809/2/480
f 809/2/480 813/2/484 811/2/482
f 806/2/477 814/2/485 810/2/481
f 814/2/485 806/2/477 812/2/483
f 814/2/485 813/2/484 810/2/481
f 815/2/486 801/2/472 811/2/482
f 811/2/482 813/2/484 815/2/486
f 816/2/487 813/2/484 814/2/485
f 812/2/483 816/2/487 814/2/485
f 815/2/486 813/2/484 816/2/487
f 817/2/488 801/2/472 815/2/486
f 816/2/487 817/2/488 815/2/486
f 802/2/473 801/2/472 817/2/488
f 816/2/487 812/2/483 818/2/489
f 818/2/489 817/2/488 816/2/487
f 818/2/489 802/2/473 817/2/488
f 808/2/479 818/2/489 812/2/483
f 802/2/473 818/2/489 819/2/490
f 818/2/489 808/2/479 819/2/490
f 820/2/491 821/2/492 822/2/493
f 821/2/492 823/2/494 822/2/493
f 823/2/494 821/2/492 824/2/495
f 825/2/496 823/2/494 824/2/495
f 823/2/494 825/2/496 826/2/497
f 827/2/498 826/2/497 825/2/496
f 825/2/496 824/2/495 828/2/499
f 821/2/492 828/2/499 824/2/495
f 829/2/500 825/2/496 828/2/499
f 828/2/499 821/2/492 830/2/501
f 829/2/500 828/2/499 831/2/502
f 828/2/499 830/2/501 831/2/502
f 821/2/492 832/2/503 830/2/501
f 830/2/501 832/2/503 831/2/502
f 832/2/503 821/2/492 833/2/504
f 821/2/492 820/2/491 833/2/504
f 832/2/503 834/2/505 831/2/502
f 833/2/504 834/2/505 832/2/503
f 835/2/506 829/2/500 831/2/502
f 835/2/506 825/2/496 829/2/500
f 834/2/505 835/2/506 831/2/502
f 825/2/496 835/2/506 836/2/507
f 834/2/505 836/2/507 835/2/506
f 825/2/496 836/2/507 827/2/498
f 834/2/505 833/2/504 837/2/508
f 836/2/507 834/2/505 837/2/508
f 820/2/491 837/2/508 833/2/504
f 837/2/508 827/2/498 836/2/507
f 837/2/508 820/2/491 838/2/509
f 827/2/498 837/2/508 838/2/509
o RenderMesh_75159681114774
v -0.831528 0.080572 -0.065979
v -0.784302 0.146551 -0.116162
v -0.784302 0.064412 -0.082139
v -0.732515 0.146551 -0.119407
v -0.732515 0.062118 -0.084433
v -0.732515 0.027145 0.000000
v -0.687463 0.073608 -0.072944
v -0.784302 0.030389 0.000000
v -0.831528 0.053242 0.000000
v -0.831528 0.080572 0.065979
v -0.867797 0.093472 0.000000
v -0.867797 0.109019 -0.037533
v -0.831528 0.146551 -0.093309
v -0.867797 0.146551 -0.053079
v -0.878291 0.146551 0.000000
v -0.867797 0.184084 -0.037533
v -0.831528 0.212531 -0.065979
v -0.784302 0.228690 -0.082139
v -0.867797 0.199630 0.000000
v -0.867797 0.109019 0.037533
v -0.867797 0.146551 0.053079
v -0.831528 0.239860 0.000000
v -0.867797 0.184084 0.037533
v -0.831528 0.146551 0.093309
v -0.831528 0.212531 0.065979
v -0.784302 0.262713 0.000000
v -0.784302 0.146551 0.116162
v -0.784302 0.228690 0.082139
v -0.732515 0.265958 0.000000
v -0.732515 0.230985 -0.084433
v -0.784302 0.064412 0.082139
v -0.732515 0.146551 0.119407
v -0.732515 0.062118 0.084433
v -0.687463 0.073608 0.072944
v -0.732515 0.230985 0.084433
v -0.687463 0.219495 0.072944
v -0.687463 0.146551 0.103158
v -0.687463 0.249709 0.000000
v -0.687463 0.043393 0.000000
v -0.651253 0.091374 0.055177
v -0.651253 0.201729 0.055177
v -0.651253 0.146551 0.078033
v -0.619464 0.102164 0.044388
v -0.619464 0.146551 0.062774
v -0.619464 0.190939 0.044388
v -0.651253 0.068519 0.000000
v -0.619464 0.083778 0.000000
v -0.619464 0.102164 -0.044388
v -0.651253 0.224584 0.000000
v -0.619464 0.209325 0.000000
v -0.619464 0.190939 -0.044388
v -0.651253 0.091374 -0.055177
v -0.651253 0.201729 -0.055177
v -0.651253 0.146551 -0.078033
v -0.619464 0.146551 -0.062774
v -0.687463 0.146551 -0.103158
v -0.687463 0.219495 -0.072944
v 0.318618 -0.273463 -0.054128
v 0.272246 -0.137620 -0.088484
v 0.292969 -0.137016 -0.054128
v 0.252335 -0.001502 -0.088484
v 0.297688 -0.273288 -0.088484
v 0.272969 -0.001502 -0.054128
v 0.255405 -0.393735 -0.088484
v 0.276388 -0.393735 -0.054128
v 0.276389 -0.393735 0.054128
v 0.318618 -0.273463 0.054128
v 0.255406 -0.393735 0.088484
v 0.297688 -0.273288 0.088484
v 0.272246 -0.137620 0.088484
v 0.292969 -0.137016 0.054128
v 0.252335 -0.001502 0.088484
v 0.272969 -0.001502 0.054128
v 0.493315 0.041439 -0.105429
v 0.525997 0.118715 -0.126664
v 0.550678 0.098457 -0.105425
v 0.554245 0.212311 -0.105261
v 0.525997 0.199106 -0.126664
v 0.488886 0.264291 -0.105053
v 0.478460 0.237799 -0.126664
v 0.473181 0.065890 -0.126664
v 0.321890 0.037869 -0.105265
v -0.522155 0.237799 -0.126664
v -0.542176 0.264068 -0.105503
v 0.308209 0.065890 -0.126664
v -0.111336 0.046672 -0.126664
v -0.595392 0.210270 -0.105277
v 0.263988 0.010061 -0.126664
v 0.277555 -0.017976 -0.105413
v -0.090793 -0.018421 -0.105387
v -0.078170 0.010061 -0.126664
v -0.123907 0.018186 -0.105457
v -0.299523 0.046672 -0.126664
v -0.293197 0.019665 -0.099934
v -0.320067 0.042568 -0.099441
v -0.321131 0.068459 -0.126664
v -0.527283 0.068459 -0.126664
v -0.547390 0.039142 -0.105385
v -0.595399 0.088255 -0.105423
v -0.571940 0.187379 -0.126664
v -0.571940 0.114241 -0.126664
v -0.522155 0.237799 0.126664
v -0.111336 0.046672 0.126664
v 0.478460 0.237799 0.126664
v 0.488886 0.264291 0.104069
v -0.542176 0.264068 0.104519
v -0.595392 0.210270 0.104293
v 0.525997 0.199106 0.126664
v 0.554245 0.212311 0.104278
v 0.525997 0.118715 0.126664
v 0.550678 0.098457 0.104441
v 0.493315 0.041439 0.104445
v 0.473181 0.065890 0.126664
v 0.321890 0.037869 0.104281
v 0.308209 0.065890 0.126664
v 0.263988 0.010061 0.126664
v 0.277555 -0.017976 0.104429
v -0.090793 -0.018421 0.104403
v -0.078170 0.010061 0.126664
v -0.123889 0.018190 0.104517
v -0.299523 0.046672 0.126664
v -0.301550 0.015946 0.106700
v -0.328486 0.038930 0.107155
v -0.321131 0.068459 0.126664
v -0.527559 0.068459 0.126664
v -0.547557 0.039175 0.105399
v -0.595405 0.088272 0.104439
v -0.571940 0.187379 0.126664
v -0.571940 0.114241 0.126664
v 0.025343 -0.393735 -0.088483
v 0.025343 -0.001502 -0.088483
v 0.272246 -0.137620 -0.088484
v 0.252335 -0.001502 -0.088484
v 0.297688 -0.273288 -0.088484
v 0.255405 -0.393735 -0.088484
v 0.025343 -0.393735 0.088484
v 0.272246 -0.137620 0.088484
v 0.025343 -0.001502 0.088484
v 0.252335 -0.001502 0.088484
v 0.297688 -0.273288 0.088484
v 0.255406 -0.393735 0.088484
v 0.512932 0.101685 0.019331
v 0.558063 0.153751 0.067836
v 0.595111 0.196108 0.010893
v 0.586292 0.079752 0.005128
v 0.629189 0.143038 0.001534
v 0.602077 0.116943 0.045328
v 0.602077 0.116943 0.045328
v 0.608021 0.068736 0.000414
v 0.638288 0.092251 0.041391
v 0.638288 0.092251 0.041391
v 0.669284 0.116662 0.000232
v 0.648507 0.030598 -0.000014
v 0.676320 0.068074 0.048309
v 0.676320 0.068074 0.048309
v 0.703770 0.101897 0.000026
v 0.704482 0.012214 -0.000000
v 0.717800 0.054108 0.047903
v 0.717800 0.054108 0.047903
v 0.732332 0.090346 -0.000000
v 0.746566 0.051884 0.035758
v 0.742761 0.020170 -0.000000
v 0.776143 0.044361 -0.000000
v 0.746566 0.051884 0.035758
v 0.753220 0.079386 -0.000000
v 0.776143 0.044361 -0.000000
v 0.561936 0.107919 0.027271
v 0.538743 0.185593 0.070292
v 0.523687 0.243041 0.007952
v 0.607022 0.244121 0.000593
v 0.635846 0.147748 0.000095
v 0.620839 0.195010 0.062746
v 0.620839 0.195010 0.062746
v 0.684467 0.258936 0.000038
v 0.692038 0.207380 0.058903
v 0.692038 0.207380 0.058903
v 0.698807 0.155344 -0.000034
v 0.737469 0.277288 0.000001
v 0.760433 0.219166 0.070369
v 0.760433 0.219166 0.070369
v 0.784943 0.156367 -0.000000
v 0.782602 0.291395 -0.000000
v 0.817119 0.243779 0.064559
v 0.817119 0.243779 0.064559
v 0.854210 0.194956 -0.000000
v 0.819281 0.296775 -0.000000
v 0.845802 0.266667 0.044331
v 0.878291 0.283679 -0.000000
v 0.875624 0.237457 -0.000000
v 0.845802 0.266667 0.044331
v 0.878291 0.283679 -0.000000
v 0.552872 0.214993 0.024538
v 0.534319 0.082219 0.009552
v 0.541553 0.140195 0.071555
v 0.616297 0.141216 0.055385
v 0.616297 0.141216 0.055385
v 0.629708 0.186405 0.001662
v 0.610116 0.100313 0.000467
v 0.679487 0.133053 0.053303
v 0.664370 0.088330 0.000095
v 0.693883 0.177852 0.000005
v 0.679487 0.133053 0.053303
v 0.740469 0.125035 0.062535
v 0.737307 0.066879 0.000002
v 0.744126 0.178689 -0.000001
v 0.740469 0.125035 0.062535
v 0.785888 0.178851 -0.000000
v 0.796661 0.130548 0.058125
v 0.796661 0.130548 0.058125
v 0.810794 0.078302 -0.000000
v 0.829829 0.142322 0.041612
v 0.818280 0.175363 -0.000000
v 0.864377 0.148123 -0.000000
v 0.844820 0.108482 -0.000000
v 0.829829 0.142322 0.041612
v 0.864377 0.148123 -0.000000
v 0.025343 -0.393735 0.088484
v 0.025343 -0.001502 0.088484
v 0.004821 -0.001502 0.036484
v 0.004821 -0.393735 0.036484
v 0.004821 -0.001502 -0.036483
v 0.004821 -0.393735 -0.036483
v 0.025343 -0.001502 -0.088483
v 0.025343 -0.393735 -0.088483
v 0.277555 -0.017976 0.104429
v 0.330091 0.020948 -0.000000
v 0.321890 0.037869 0.104281
v 0.493315 0.041439 0.104445
v 0.285757 -0.034936 -0.000000
v -0.098426 -0.035637 0.000000
v -0.090793 -0.018421 0.104403
v 0.277555 -0.017976 -0.105413
v 0.321890 0.037869 -0.105265
v -0.090793 -0.018421 -0.105387
v 0.493315 0.041439 -0.105429
v -0.131532 0.000947 0.000000
v -0.123889 0.018190 0.104517
v -0.123907 0.018186 -0.105457
v -0.301550 0.015946 0.106700
v -0.293197 0.019665 -0.099934
v 0.508686 0.028328 -0.000000
v 0.550678 0.098457 -0.105425
v 0.550678 0.098457 0.104441
v -0.299377 -0.003131 0.003043
v -0.320067 0.042568 -0.099441
v -0.331476 0.020994 0.003627
v -0.328486 0.038930 0.107155
v -0.547390 0.039142 -0.105385
v -0.547557 0.039175 0.105399
v -0.562907 0.020994 0.000585
v -0.607409 0.066776 0.000000
v -0.595399 0.088255 -0.105423
v -0.595405 0.088272 0.104439
v -0.607354 0.228571 0.000000
v -0.595392 0.210270 -0.105277
v -0.595392 0.210270 0.104293
v -0.542176 0.264068 -0.105503
v -0.542176 0.264068 0.104519
v -0.557550 0.278990 0.000000
v 0.495236 0.278990 -0.000000
v 0.488886 0.264291 -0.105053
v 0.488886 0.264291 0.104069
v 0.554245 0.212311 -0.105261
v 0.554245 0.212311 0.104278
v 0.571262 0.220309 -0.000000
v 0.564059 0.083056 -0.000000
v 0.534245 0.204638 -0.077337
v 0.607022 0.244121 0.000593
v 0.621309 0.195001 -0.063321
v 0.684467 0.258936 0.000038
v 0.692051 0.207311 -0.058903
v 0.737469 0.277288 0.000001
v 0.760433 0.219165 -0.070368
v 0.782602 0.291395 -0.000000
v 0.817119 0.243779 -0.064559
v 0.819281 0.296775 -0.000000
v 0.845802 0.266667 -0.044331
v 0.878291 0.283679 -0.000000
v 0.621309 0.195001 -0.063321
v 0.635846 0.147748 0.000095
v 0.692051 0.207311 -0.058903
v 0.698807 0.155344 -0.000034
v 0.760433 0.219165 -0.070368
v 0.784943 0.156367 -0.000000
v 0.817119 0.243779 -0.064559
v 0.854210 0.194956 -0.000000
v 0.875624 0.237457 -0.000000
v 0.845802 0.266667 -0.044331
v 0.878291 0.283679 -0.000000
v 0.539371 0.125298 -0.070886
v 0.610116 0.100313 0.000467
v 0.621367 0.139356 -0.057657
v 0.664370 0.088330 0.000095
v 0.679533 0.133113 -0.053232
v 0.737307 0.066879 0.000002
v 0.740474 0.125039 -0.062523
v 0.796656 0.130548 -0.058115
v 0.810794 0.078302 -0.000000
v 0.844820 0.108482 -0.000000
v 0.829827 0.142320 -0.041610
v 0.864377 0.148123 -0.000000
v 0.621367 0.139356 -0.057657
v 0.629708 0.186405 0.001662
v 0.679533 0.133113 -0.053232
v 0.693883 0.177852 0.000005
v 0.740474 0.125039 -0.062523
v 0.744126 0.178689 -0.000001
v 0.785888 0.178851 -0.000000
v 0.796656 0.130548 -0.058115
v 0.829827 0.142320 -0.041610
v 0.818280 0.175363 -0.000000
v 0.864377 0.148123 -0.000000
v 0.561785 0.162000 -0.059176
v 0.586292 0.079752 0.005128
v 0.616117 0.112379 -0.049227
v 0.608021 0.068736 0.000414
v 0.638481 0.092335 -0.039902
v 0.648507 0.030598 -0.000014
v 0.676319 0.068030 -0.048333
v 0.704482 0.012214 -0.000000
v 0.717809 0.054103 -0.047930
v 0.746575 0.051883 -0.035770
v 0.742761 0.020170 -0.000000
v 0.776143 0.044361 -0.000000
v 0.629189 0.143038 0.001534
v 0.616117 0.112379 -0.049227
v 0.669284 0.116662 0.000232
v 0.638481 0.092335 -0.039902
v 0.676319 0.068030 -0.048333
v 0.703770 0.101897 0.000026
v 0.717809 0.054103 -0.047930
v 0.732332 0.090346 -0.000000
v 0.746575 0.051883 -0.035770
v 0.753220 0.079386 -0.000000
v 0.776143 0.044361 -0.000000
vn -0.5787 -0.5767 -0.5767
vn -0.2430 -0.0000 -0.9700
vn -0.2430 -0.6859 -0.6859
vn 0.1347 -0.0003 -0.9909
vn 0.1347 -0.7003 -0.7010
vn 0.1349 -0.9909 -0.0000
vn 0.4462 -0.6330 -0.6326
vn -0.2430 -0.9700 -0.0000
vn -0.5785 -0.8157 -0.0003
vn -0.5787 -0.5767 0.5767
vn -0.8675 -0.4974 -0.0004
vn -0.8674 -0.3519 -0.3519
vn -0.5787 -0.0000 -0.8156
vn -0.8674 -0.0000 -0.4977
vn -1.0000 -0.0000 -0.0000
vn -0.8674 0.3519 -0.3519
vn -0.5787 0.5767 -0.5767
vn -0.2430 0.6859 -0.6859
vn -0.8672 0.4980 -0.0007
vn -0.8674 -0.3519 0.3519
vn -0.8674 -0.0000 0.4977
vn -0.5787 0.8156 -0.0000
vn -0.8674 0.3519 0.3519
vn -0.5787 -0.0000 0.8156
vn -0.5787 0.5767 0.5767
vn -0.2432 0.9700 -0.0004
vn -0.2430 -0.0000 0.9700
vn -0.2430 0.6859 0.6859
vn 0.1348 0.9909 -0.0006
vn 0.1348 0.7003 -0.7011
vn -0.2430 -0.6859 0.6859
vn 0.1349 -0.0000 0.9909
vn 0.1349 -0.7007 0.7006
vn 0.4461 -0.6329 0.6329
vn 0.1348 0.7004 0.7009
vn 0.4466 0.6329 0.6324
vn 0.4461 -0.0000 0.8950
vn 0.4463 0.8949 -0.0002
vn 0.4462 -0.8949 -0.0003
vn 0.5117 -0.6075 0.6075
vn 0.5117 0.6075 0.6075
vn 0.5117 -0.0000 0.8592
vn 0.4327 -0.6375 0.6375
vn 0.4327 -0.0000 0.9015
vn 0.4327 0.6375 0.6375
vn 0.5117 -0.8592 -0.0000
vn 0.4327 -0.9015 -0.0000
vn 0.4330 -0.6370 -0.6377
vn 0.5117 0.8592 -0.0000
vn 0.4327 0.9015 -0.0006
vn 0.4327 0.6375 -0.6375
vn 0.5117 -0.6075 -0.6075
vn 0.5117 0.6075 -0.6075
vn 0.5117 -0.0000 -0.8592
vn 0.4327 -0.0000 -0.9015
vn 0.4461 -0.0000 -0.8950
vn 0.4465 0.6329 -0.6325
vn 0.9633 -0.0712 -0.2588
vn 0.8471 0.1406 -0.5125
vn 0.9506 0.1592 -0.2663
vn 0.8497 0.1249 -0.5123
vn 0.8517 -0.0706 -0.5192
vn 0.9519 0.1406 -0.2721
vn 0.8175 -0.2870 -0.4993
vn 0.9080 -0.3188 -0.2719
vn 0.9080 -0.3188 0.2719
vn 0.9633 -0.0711 0.2588
vn 0.8175 -0.2870 0.4993
vn 0.8517 -0.0706 0.5192
vn 0.8471 0.1406 0.5125
vn 0.9506 0.1592 0.2664
vn 0.8497 0.1249 0.5123
vn 0.9520 0.1406 0.2720
vn 0.2414 -0.5025 -0.8302
vn 0.3431 -0.1165 -0.9320
vn 0.5022 -0.2425 -0.8301
vn 0.5246 0.2451 -0.8153
vn 0.3421 0.1592 -0.9261
vn 0.2012 0.5656 -0.7998
vn 0.1212 0.3555 -0.9268
vn 0.1153 -0.3441 -0.9318
vn 0.2502 -0.5201 -0.8166
vn -0.1133 0.3408 -0.9333
vn -0.2336 0.4982 -0.8350
vn 0.1338 -0.2777 -0.9513
vn -0.1261 -0.2913 -0.9483
vn -0.5102 0.2452 -0.8244
vn 0.1601 -0.3303 -0.9302
vn 0.2461 -0.5060 -0.8267
vn -0.2277 -0.5169 -0.8252
vn -0.1467 -0.3322 -0.9317
vn -0.2356 -0.5446 -0.8049
vn -0.2463 -0.4341 -0.8665
vn -0.2268 -0.6707 -0.7062
vn -0.3410 -0.6733 -0.6560
vn -0.1280 -0.3810 -0.9157
vn -0.1065 -0.3479 -0.9315
vn -0.2110 -0.5090 -0.8345
vn -0.4910 -0.2415 -0.8370
vn -0.3649 0.1055 -0.9251
vn -0.3615 -0.0957 -0.9274
vn -0.1173 0.3516 0.9288
vn -0.1231 -0.2737 0.9539
vn 0.1251 0.3663 0.9220
vn 0.2062 0.5813 0.7871
vn -0.2405 0.5140 0.8234
vn -0.5256 0.2529 0.8123
vn 0.3528 0.1641 0.9212
vn 0.5404 0.2520 0.8028
vn 0.3536 -0.1213 0.9275
vn 0.5177 -0.2502 0.8182
vn 0.2481 -0.5189 0.8180
vn 0.1191 -0.3547 0.9274
vn 0.2578 -0.5354 0.8043
vn 0.1377 -0.2873 0.9479
vn 0.1660 -0.3411 0.9253
vn 0.2540 -0.5219 0.8143
vn -0.2348 -0.5327 0.8131
vn -0.1515 -0.3440 0.9267
vn -0.2306 -0.5130 0.8268
vn -0.1515 -0.3324 0.9309
vn -0.1660 -0.5421 0.8237
vn -0.2229 -0.5202 0.8245
vn -0.1016 -0.2815 0.9542
vn -0.1154 -0.3100 0.9437
vn -0.2257 -0.4631 0.8571
vn -0.5072 -0.2416 0.8273
vn -0.3752 0.1093 0.9205
vn -0.3724 -0.0969 0.9230
vn -0.0000 -0.0000 -1.0000
vn -0.0001 -0.0003 -1.0000
vn -0.0000 -0.0000 1.0000
vn -0.0001 -0.0003 1.0000
vn -0.9086 -0.3958 0.1334
vn -0.2785 0.3213 0.9051
vn 0.2043 0.9713 0.1217
vn -0.2149 -0.6711 0.7095
vn 0.5601 0.4857 0.6711
vn -0.1867 -0.6706 0.7179
vn 0.5839 0.4578 0.6704
vn -0.3940 -0.6131 0.6848
vn 0.3886 0.6424 0.6606
vn -0.4134 -0.5992 0.6856
vn 0.3684 0.6556 0.6592
vn -0.3683 -0.6242 0.6890
vn 0.2903 0.7046 0.6475
vn -0.3468 -0.6371 0.6883
vn 0.2863 0.7073 0.6464
vn -0.0509 -0.7408 0.6698
vn 0.2962 0.7143 0.6340
vn -0.0372 -0.7431 0.6682
vn 0.3019 0.7131 0.6327
vn 0.2843 -0.7396 0.6100
vn 0.3019 -0.7358 0.6062
vn 0.4907 -0.6771 0.5483
vn 0.4750 0.6459 0.5977
vn 0.5059 0.6298 0.5894
vn 0.7248 0.4743 0.4997
vn -0.2775 -0.9449 0.1734
vn -0.5257 -0.0128 0.8506
vn -0.7007 0.7064 0.1002
vn -0.0518 0.7589 0.6491
vn 0.2315 -0.6674 0.7078
vn -0.0557 0.7583 0.6495
vn 0.2500 -0.6479 0.7195
vn -0.1819 0.7330 0.6554
vn 0.0693 -0.7524 0.6550
vn -0.1798 0.7337 0.6552
vn 0.0703 -0.7523 0.6550
vn -0.2364 0.7131 0.6600
vn 0.1816 -0.7034 0.6872
vn 0.1944 -0.6998 0.6874
vn -0.1945 0.7377 0.6465
vn 0.4991 -0.5227 0.6911
vn -0.1925 0.7393 0.6452
vn 0.5189 -0.5054 0.6894
vn -0.0274 0.8124 0.5825
vn -0.0196 0.8150 0.5791
vn 0.1915 0.8615 0.4703
vn 0.7434 -0.2200 0.6316
vn 0.7297 -0.2473 0.6374
vn 0.8139 -0.0471 0.5791
vn -0.3879 0.9074 0.1617
vn -0.5698 -0.8152 0.1041
vn -0.4768 -0.0636 0.8767
vn 0.2237 0.6543 0.7224
vn 0.0458 -0.7730 0.6327
vn 0.2024 0.6744 0.7101
vn 0.0459 -0.7731 0.6326
vn 0.0596 0.7546 0.6535
vn -0.1593 -0.7428 0.6503
vn 0.0497 0.7558 0.6529
vn -0.1652 -0.7398 0.6522
vn -0.0099 0.7630 0.6463
vn -0.0419 -0.7308 0.6813
vn -0.0098 0.7630 0.6463
vn -0.0381 -0.7309 0.6814
vn 0.0176 0.7713 0.6362
vn 0.2941 -0.6752 0.6765
vn 0.0166 0.7709 0.6367
vn 0.3059 -0.6706 0.6758
vn 0.1983 0.7873 0.5838
vn 0.2042 0.7873 0.5818
vn 0.4472 0.7568 0.4768
vn 0.6086 -0.4965 0.6189
vn 0.5874 -0.5142 0.6250
vn 0.7406 -0.3654 0.5639
vn -0.9302 -0.0000 0.3671
vn -0.9824 -0.0000 0.1868
vn -0.9824 -0.0000 -0.1868
vn -0.9302 -0.0000 -0.3671
vn 0.4289 -0.8856 0.1783
vn 0.4494 -0.8933 0.0005
vn 0.4415 -0.8813 0.1685
vn 0.3702 -0.9115 0.1792
vn 0.4358 -0.9000 0.0008
vn -0.4047 -0.9144 0.0007
vn -0.3987 -0.8998 0.1774
vn 0.4288 -0.8860 -0.1767
vn 0.4417 -0.8816 -0.1666
vn -0.3988 -0.9001 -0.1756
vn 0.3703 -0.9118 -0.1774
vn -0.4005 -0.9163 -0.0054
vn -0.3880 -0.9032 0.1833
vn -0.4014 -0.8958 -0.1909
vn -0.3341 -0.9281 0.1646
vn -0.3214 -0.9223 -0.2144
vn 0.4124 -0.9110 0.0005
vn 0.9077 -0.3803 -0.1772
vn 0.9076 -0.3803 0.1782
vn -0.3155 -0.9486 -0.0230
vn -0.3233 -0.9221 -0.2125
vn -0.3272 -0.9447 -0.0239
vn -0.3195 -0.9330 0.1656
vn -0.3605 -0.9068 -0.2184
vn -0.3644 -0.9071 0.2106
vn -0.4017 -0.9158 -0.0034
vn -0.9140 -0.4058 -0.0000
vn -0.9248 -0.3381 -0.1742
vn -0.9248 -0.3374 0.1757
vn -0.9146 0.4043 0.0008
vn -0.9229 0.3478 -0.1653
vn -0.9227 0.3477 0.1667
vn -0.3596 0.9153 -0.1813
vn -0.3597 0.9149 0.1835
vn -0.4026 0.9154 0.0004
vn 0.3283 0.9446 0.0005
vn 0.3195 0.9350 -0.1539
vn 0.3195 0.9349 0.1548
vn 0.8959 0.4122 -0.1656
vn 0.8956 0.4120 0.1675
vn 0.9079 0.4192 0.0005
vn 0.9071 -0.4210 0.0005
vn -0.5160 0.0839 -0.8525
vn -0.0215 0.8226 -0.5682
vn -0.0342 0.8155 -0.5778
vn -0.1837 0.7346 -0.6531
vn -0.1817 0.7353 -0.6529
vn -0.2365 0.7131 -0.6600
vn -0.2364 0.7131 -0.6600
vn -0.1945 0.7377 -0.6465
vn -0.1925 0.7394 -0.6452
vn -0.0274 0.8124 -0.5825
vn -0.0196 0.8150 -0.5791
vn 0.1915 0.8615 -0.4703
vn 0.1065 -0.7514 -0.6512
vn 0.1085 -0.7518 -0.6504
vn 0.0713 -0.7532 -0.6539
vn 0.0713 -0.7537 -0.6534
vn 0.1818 -0.7034 -0.6872
vn 0.1944 -0.6998 -0.6874
vn 0.4991 -0.5227 -0.6911
vn 0.5189 -0.5054 -0.6894
vn 0.7434 -0.2200 -0.6316
vn 0.7297 -0.2473 -0.6374
vn 0.8139 -0.0471 -0.5791
vn -0.4975 -0.1301 -0.8576
vn 0.0595 -0.8342 -0.5483
vn 0.0342 -0.8281 -0.5596
vn -0.1535 -0.7516 -0.6415
vn -0.1602 -0.7472 -0.6450
vn -0.0430 -0.7307 -0.6813
vn -0.0381 -0.7309 -0.6814
vn 0.2940 -0.6752 -0.6765
vn 0.3059 -0.6706 -0.6758
vn 0.6086 -0.4966 -0.6189
vn 0.5873 -0.5142 -0.6250
vn 0.7406 -0.3654 -0.5640
vn 0.0625 0.7530 -0.6550
vn 0.0635 0.7535 -0.6544
vn 0.0547 0.7620 -0.6453
vn 0.0459 0.7623 -0.6456
vn -0.0098 0.7630 -0.6463
vn -0.0098 0.7630 -0.6464
vn 0.0176 0.7709 -0.6367
vn 0.0166 0.7709 -0.6367
vn 0.1983 0.7873 -0.5838
vn 0.2042 0.7873 -0.5818
vn 0.4474 0.7570 -0.4763
vn -0.3304 0.3918 -0.8587
vn -0.3858 -0.6448 -0.6598
vn -0.3869 -0.6460 -0.6580
vn -0.4399 -0.6043 -0.6643
vn -0.4525 -0.5885 -0.6700
vn -0.3751 -0.6166 -0.6922
vn -0.3517 -0.6323 -0.6903
vn -0.0508 -0.7412 -0.6693
vn -0.0371 -0.7435 -0.6677
vn 0.2843 -0.7396 -0.6100
vn 0.3018 -0.7358 -0.6062
vn 0.4908 -0.6773 -0.5481
vn 0.5918 0.5692 -0.5708
vn 0.5821 0.5732 -0.5767
vn 0.3940 0.6588 -0.6409
vn 0.4271 0.6439 -0.6348
vn 0.2825 0.7076 -0.6477
vn 0.2795 0.7101 -0.6463
vn 0.2951 0.7151 -0.6337
vn 0.3019 0.7131 -0.6327
vn 0.4747 0.6465 -0.5973
vn 0.5059 0.6298 -0.5894
vn 0.7249 0.4744 -0.4994
vt 0.000000 0.000000
s 1
f 839/3/510 840/3/511 841/3/512
f 842/3/513 841/3/512 840/3/511
f 841/3/512 842/3/513 843/3/514
f 844/3/515 841/3/512 843/3/514
f 845/3/516 843/3/514 842/3/513
f 845/3/516 844/3/515 843/3/514
f 846/3/517 839/3/510 841/3/512
f 844/3/515 846/3/517 841/3/512
f 846/3/517 847/3/518 839/3/510
f 846/3/517 848/3/519 847/3/518
f 849/3/520 839/3/510 847/3/518
f 849/3/520 847/3/518 848/3/519
f 839/3/510 849/3/520 850/3/521
f 850/3/521 851/3/522 839/3/510
f 840/3/511 839/3/510 851/3/522
f 851/3/522 850/3/521 852/3/523
f 853/3/524 850/3/521 849/3/520
f 853/3/524 852/3/523 850/3/521
f 852/3/523 854/3/525 851/3/522
f 853/3/524 854/3/525 852/3/523
f 840/3/511 851/3/522 855/3/526
f 854/3/525 855/3/526 851/3/522
f 840/3/511 855/3/526 856/3/527
f 853/3/524 857/3/528 854/3/525
f 842/3/513 840/3/511 856/3/527
f 853/3/524 849/3/520 858/3/529
f 849/3/520 848/3/519 858/3/529
f 853/3/524 858/3/529 859/3/530
f 860/3/531 854/3/525 857/3/528
f 854/3/525 860/3/531 855/3/526
f 853/3/524 861/3/532 857/3/528
f 853/3/524 859/3/530 861/3/532
f 861/3/532 860/3/531 857/3/528
f 858/3/529 862/3/533 859/3/530
f 862/3/533 861/3/532 859/3/530
f 848/3/519 862/3/533 858/3/529
f 863/3/534 860/3/531 861/3/532
f 861/3/532 862/3/533 863/3/534
f 864/3/535 855/3/526 860/3/531
f 863/3/534 864/3/535 860/3/531
f 855/3/526 864/3/535 856/3/527
f 865/3/536 863/3/534 862/3/533
f 865/3/536 862/3/533 848/3/519
f 866/3/537 864/3/535 863/3/534
f 863/3/534 865/3/536 866/3/537
f 867/3/538 856/3/527 864/3/535
f 866/3/537 867/3/538 864/3/535
f 856/3/527 867/3/538 868/3/539
f 842/3/513 856/3/527 868/3/539
f 865/3/536 848/3/519 869/3/540
f 848/3/519 846/3/517 869/3/540
f 844/3/515 869/3/540 846/3/517
f 870/3/541 865/3/536 869/3/540
f 870/3/541 866/3/537 865/3/536
f 869/3/540 844/3/515 871/3/542
f 870/3/541 869/3/540 871/3/542
f 872/3/543 871/3/542 844/3/515
f 872/3/543 870/3/541 871/3/542
f 866/3/537 870/3/541 873/3/544
f 873/3/544 867/3/538 866/3/537
f 874/3/545 873/3/544 870/3/541
f 874/3/545 867/3/538 873/3/544
f 874/3/545 870/3/541 875/3/546
f 870/3/541 872/3/543 875/3/546
f 867/3/538 874/3/545 876/3/547
f 872/3/543 844/3/515 877/3/548
f 844/3/515 845/3/516 877/3/548
f 878/3/549 875/3/546 872/3/543
f 878/3/549 872/3/543 877/3/548
f 879/3/550 874/3/545 875/3/546
f 879/3/550 876/3/547 874/3/545
f 875/3/546 878/3/549 880/3/551
f 879/3/550 875/3/546 880/3/551
f 880/3/551 878/3/549 881/3/552
f 882/3/553 880/3/551 881/3/552
f 883/3/554 880/3/551 882/3/553
f 880/3/551 883/3/554 879/3/550
f 884/3/555 881/3/552 878/3/549
f 878/3/549 877/3/548 884/3/555
f 881/3/552 884/3/555 885/3/556
f 885/3/556 884/3/555 886/3/557
f 883/3/554 887/3/558 879/3/550
f 876/3/547 879/3/550 887/3/558
f 887/3/558 883/3/554 888/3/559
f 889/3/560 887/3/558 888/3/559
f 877/3/548 890/3/561 884/3/555
f 884/3/555 890/3/561 886/3/557
f 890/3/561 877/3/548 845/3/516
f 887/3/558 891/3/562 876/3/547
f 887/3/558 889/3/560 891/3/562
f 892/3/563 886/3/557 890/3/561
f 892/3/563 891/3/562 889/3/560
f 886/3/557 892/3/563 893/3/564
f 893/3/564 892/3/563 889/3/560
f 890/3/561 845/3/516 894/3/565
f 890/3/561 894/3/565 892/3/563
f 894/3/565 891/3/562 892/3/563
f 845/3/516 842/3/513 894/3/565
f 895/3/566 876/3/547 891/3/562
f 891/3/562 894/3/565 895/3/566
f 842/3/513 895/3/566 894/3/565
f 876/3/547 895/3/566 867/3/538
f 895/3/566 842/3/513 868/3/539
f 867/3/538 895/3/566 868/3/539
f 896/3/567 897/3/568 898/3/569
f 899/3/570 898/3/569 897/3/568
f 897/3/568 896/3/567 900/3/571
f 898/3/569 899/3/570 901/3/572
f 896/3/567 902/3/573 900/3/571
f 896/3/567 903/3/574 902/3/573
f 896/3/567 904/3/575 903/3/574
f 904/3/575 896/3/567 905/3/576
f 898/3/569 905/3/576 896/3/567
f 905/3/576 906/3/577 904/3/575
f 906/3/577 905/3/576 907/3/578
f 908/3/579 907/3/578 905/3/576
f 905/3/576 898/3/569 909/3/580
f 908/3/579 905/3/576 909/3/580
f 909/3/580 898/3/569 901/3/572
f 910/3/581 908/3/579 909/3/580
f 911/3/582 909/3/580 901/3/572
f 910/3/581 909/3/580 911/3/582
f 912/3/583 913/3/584 914/3/585
f 915/3/586 914/3/585 913/3/584
f 915/3/586 913/3/584 916/3/587
f 917/3/588 915/3/586 916/3/587
f 913/3/584 918/3/589 916/3/587
f 917/3/588 916/3/587 918/3/589
f 913/3/584 912/3/583 919/3/590
f 919/3/590 918/3/589 913/3/584
f 920/3/591 919/3/590 912/3/583
f 921/3/592 917/3/588 918/3/589
f 917/3/588 921/3/592 922/3/593
f 919/3/590 923/3/594 918/3/589
f 919/3/590 920/3/591 923/3/594
f 923/3/594 924/3/595 918/3/589
f 924/3/595 921/3/592 918/3/589
f 921/3/592 925/3/596 922/3/593
f 920/3/591 926/3/597 923/3/594
f 926/3/597 920/3/591 927/3/598
f 928/3/599 926/3/597 927/3/598
f 929/3/600 923/3/594 926/3/597
f 926/3/597 928/3/599 929/3/600
f 924/3/595 923/3/594 929/3/600
f 930/3/601 929/3/600 928/3/599
f 929/3/600 930/3/601 924/3/595
f 931/3/602 924/3/595 930/3/601
f 930/3/601 932/3/603 931/3/602
f 933/3/604 931/3/602 932/3/603
f 934/3/605 924/3/595 931/3/602
f 931/3/602 933/3/604 934/3/605
f 934/3/605 921/3/592 924/3/595
f 933/3/604 935/3/606 934/3/605
f 935/3/606 921/3/592 934/3/605
f 933/3/604 936/3/607 935/3/606
f 935/3/606 936/3/607 937/3/608
f 921/3/592 935/3/606 938/3/609
f 939/3/610 935/3/606 937/3/608
f 938/3/609 935/3/606 939/3/610
f 925/3/596 939/3/610 937/3/608
f 925/3/596 921/3/592 938/3/609
f 939/3/610 925/3/596 938/3/609
f 940/3/611 941/3/612 942/3/613
f 943/3/614 940/3/611 942/3/613
f 943/3/614 944/3/615 940/3/611
f 940/3/611 944/3/615 945/3/616
f 946/3/617 943/3/614 942/3/613
f 943/3/614 946/3/617 947/3/618
f 948/3/619 947/3/618 946/3/617
f 942/3/613 948/3/619 946/3/617
f 947/3/618 948/3/619 949/3/620
f 948/3/619 950/3/621 949/3/620
f 950/3/621 948/3/619 951/3/622
f 948/3/619 942/3/613 951/3/622
f 951/3/622 952/3/623 950/3/621
f 951/3/622 942/3/613 953/3/624
f 951/3/622 953/3/624 952/3/623
f 942/3/613 941/3/612 953/3/624
f 954/3/625 952/3/623 953/3/624
f 952/3/623 954/3/625 955/3/626
f 954/3/625 956/3/627 955/3/626
f 953/3/624 957/3/628 954/3/625
f 954/3/625 957/3/628 956/3/627
f 957/3/628 953/3/624 941/3/612
f 958/3/629 956/3/627 957/3/628
f 957/3/628 941/3/612 958/3/629
f 959/3/630 958/3/629 941/3/612
f 958/3/629 959/3/630 960/3/631
f 960/3/631 959/3/630 961/3/632
f 962/3/633 959/3/630 941/3/612
f 959/3/630 962/3/633 961/3/632
f 941/3/612 940/3/611 962/3/633
f 963/3/634 961/3/632 962/3/633
f 940/3/611 963/3/634 962/3/633
f 961/3/632 963/3/634 964/3/635
f 963/3/634 965/3/636 964/3/635
f 963/3/634 940/3/611 966/3/637
f 965/3/636 963/3/634 967/3/638
f 963/3/634 966/3/637 967/3/638
f 966/3/637 940/3/611 945/3/616
f 945/3/616 965/3/636 967/3/638
f 945/3/616 967/3/638 966/3/637
f 968/3/639 969/3/639 970/3/639
f 970/3/639 969/3/639 971/3/639
f 972/3/639 968/3/639 970/3/639
f 968/3/639 972/3/639 973/3/640
f 974/3/641 975/3/641 976/3/641
f 976/3/641 975/3/641 977/3/642
f 975/3/641 974/3/641 978/3/641
f 978/3/641 974/3/641 979/3/641
f 980/3/643 981/3/644 982/3/645
f 983/3/646 981/3/644 980/3/643
f 984/3/647 982/3/645 981/3/644
f 981/3/644 983/3/646 985/3/648
f 986/3/649 984/3/647 981/3/644
f 987/3/650 985/3/648 983/3/646
f 988/3/651 984/3/647 986/3/649
f 987/3/650 989/3/652 985/3/648
f 988/3/651 990/3/653 984/3/647
f 991/3/654 989/3/652 987/3/650
f 988/3/651 992/3/655 990/3/653
f 991/3/654 993/3/656 989/3/652
f 990/3/653 992/3/655 994/3/657
f 993/3/656 991/3/654 995/3/658
f 992/3/655 996/3/659 994/3/657
f 995/3/658 997/3/660 993/3/656
f 994/3/657 996/3/659 998/3/661
f 995/3/658 999/3/662 997/3/660
f 999/3/662 995/3/658 1000/3/663
f 999/3/662 1000/3/663 1001/3/664
f 1002/3/665 998/3/661 996/3/659
f 998/3/661 1002/3/665 1003/3/666
f 1003/3/666 1002/3/665 1004/3/667
f 1005/3/668 1006/3/669 1007/3/670
f 1008/3/671 1007/3/670 1006/3/669
f 1006/3/669 1005/3/668 1009/3/672
f 1006/3/669 1010/3/673 1008/3/671
f 1006/3/669 1009/3/672 1011/3/674
f 1010/3/673 1012/3/675 1008/3/671
f 1009/3/672 1013/3/676 1011/3/674
f 1012/3/675 1010/3/673 1014/3/677
f 1013/3/676 1009/3/672 1015/3/678
f 1014/3/677 1016/3/679 1012/3/675
f 1015/3/678 1017/3/680 1013/3/676
f 1016/3/679 1014/3/677 1018/3/679
f 1017/3/680 1015/3/678 1019/3/681
f 1018/3/679 1020/3/682 1016/3/679
f 1019/3/681 1021/3/683 1017/3/680
f 1020/3/682 1018/3/679 1022/3/684
f 1021/3/683 1019/3/681 1023/3/685
f 1022/3/684 1024/3/686 1020/3/682
f 1024/3/686 1022/3/684 1025/3/687
f 1024/3/686 1025/3/687 1026/3/688
f 1021/3/683 1023/3/685 1027/3/689
f 1021/3/683 1027/3/689 1028/3/690
f 1028/3/690 1027/3/689 1029/3/691
f 1030/3/692 1031/3/693 1032/3/694
f 1033/3/695 1030/3/692 1032/3/694
f 1031/3/693 1034/3/696 1032/3/694
f 1030/3/692 1033/3/695 1035/3/697
f 1034/3/696 1031/3/693 1036/3/698
f 1037/3/699 1035/3/697 1033/3/695
f 1034/3/696 1036/3/698 1038/3/700
f 1035/3/697 1037/3/699 1039/3/701
f 1040/3/702 1034/3/696 1038/3/700
f 1041/3/703 1039/3/701 1037/3/699
f 1040/3/702 1038/3/700 1042/3/704
f 1039/3/701 1041/3/703 1043/3/705
f 1044/3/706 1040/3/702 1042/3/704
f 1041/3/703 1045/3/707 1043/3/705
f 1042/3/704 1046/3/708 1044/3/706
f 1045/3/707 1041/3/703 1047/3/709
f 1046/3/708 1042/3/704 1048/3/710
f 1049/3/711 1045/3/707 1047/3/709
f 1045/3/707 1049/3/711 1050/3/712
f 1050/3/712 1049/3/711 1051/3/713
f 1048/3/710 1052/3/714 1046/3/708
f 1046/3/708 1052/3/714 1053/3/715
f 1053/3/715 1052/3/714 1054/3/716
f 1055/3/717 1056/3/717 1057/3/718
f 1055/3/717 1057/3/718 1058/3/718
f 1058/3/718 1057/3/718 1059/3/719
f 1058/3/718 1059/3/719 1060/3/719
f 1060/3/719 1059/3/719 1061/3/720
f 1060/3/719 1061/3/720 1062/3/720
f 1063/3/721 1064/3/722 1065/3/723
f 1065/3/723 1064/3/722 1066/3/724
f 1064/3/722 1063/3/721 1067/3/725
f 1063/3/721 1068/3/726 1067/3/725
f 1063/3/721 1069/3/727 1068/3/726
f 1068/3/726 1070/3/728 1067/3/725
f 1067/3/725 1070/3/728 1064/3/722
f 1070/3/728 1071/3/729 1064/3/722
f 1070/3/728 1068/3/726 1072/3/730
f 1073/3/731 1064/3/722 1071/3/729
f 1069/3/727 1074/3/732 1068/3/726
f 1074/3/732 1072/3/730 1068/3/726
f 1075/3/733 1074/3/732 1069/3/727
f 1072/3/730 1074/3/732 1076/3/734
f 1077/3/735 1074/3/732 1075/3/733
f 1074/3/732 1078/3/736 1076/3/734
f 1064/3/722 1073/3/731 1079/3/737
f 1066/3/724 1064/3/722 1079/3/737
f 1079/3/737 1073/3/731 1080/3/738
f 1079/3/737 1081/3/739 1066/3/724
f 1074/3/732 1082/3/740 1078/3/736
f 1074/3/732 1077/3/735 1082/3/740
f 1082/3/740 1083/3/741 1078/3/736
f 1077/3/735 1084/3/742 1082/3/740
f 1083/3/741 1082/3/740 1084/3/742
f 1085/3/743 1084/3/742 1077/3/735
f 1084/3/742 1086/3/744 1083/3/741
f 1087/3/745 1084/3/742 1085/3/743
f 1084/3/742 1088/3/746 1086/3/744
f 1084/3/742 1087/3/745 1088/3/746
f 1089/3/747 1086/3/744 1088/3/746
f 1087/3/745 1089/3/747 1088/3/746
f 1086/3/744 1089/3/747 1090/3/748
f 1089/3/747 1087/3/745 1091/3/749
f 1092/3/750 1090/3/748 1089/3/747
f 1091/3/749 1092/3/750 1089/3/747
f 1090/3/748 1092/3/750 1093/3/751
f 1094/3/752 1092/3/750 1091/3/749
f 1092/3/750 1095/3/753 1093/3/751
f 1092/3/750 1094/3/752 1096/3/754
f 1095/3/753 1092/3/750 1097/3/755
f 1096/3/754 1097/3/755 1092/3/750
f 1098/3/756 1095/3/753 1097/3/755
f 1096/3/754 1098/3/756 1097/3/755
f 1095/3/753 1098/3/756 1099/3/757
f 1096/3/754 1100/3/758 1098/3/756
f 1098/3/756 1101/3/759 1099/3/757
f 1102/3/760 1098/3/756 1100/3/758
f 1103/3/761 1101/3/759 1098/3/756
f 1098/3/756 1102/3/760 1103/3/761
f 1103/3/761 1080/3/738 1101/3/759
f 1081/3/739 1103/3/761 1102/3/760
f 1103/3/761 1104/3/762 1080/3/738
f 1103/3/761 1081/3/739 1104/3/762
f 1080/3/738 1104/3/762 1079/3/737
f 1081/3/739 1079/3/737 1104/3/762
f 1105/3/763 1005/3/668 1007/3/670
f 1106/3/764 1105/3/763 1007/3/670
f 1105/3/763 1106/3/764 1107/3/765
f 1108/3/766 1107/3/765 1106/3/764
f 1107/3/765 1108/3/766 1109/3/767
f 1110/3/768 1109/3/767 1108/3/766
f 1109/3/767 1110/3/768 1111/3/769
f 1112/3/770 1111/3/769 1110/3/768
f 1111/3/769 1112/3/770 1113/3/771
f 1112/3/770 1114/3/772 1113/3/771
f 1113/3/771 1114/3/772 1115/3/773
f 1115/3/773 1114/3/772 1116/3/774
f 1117/3/775 1005/3/668 1105/3/763
f 1005/3/668 1117/3/775 1118/3/776
f 1118/3/776 1117/3/775 1119/3/777
f 1120/3/778 1118/3/776 1119/3/777
f 1120/3/778 1119/3/777 1121/3/779
f 1122/3/780 1120/3/778 1121/3/779
f 1123/3/781 1122/3/780 1121/3/779
f 1123/3/781 1124/3/782 1122/3/780
f 1123/3/781 1125/3/783 1124/3/782
f 1125/3/783 1123/3/781 1126/3/784
f 1125/3/783 1126/3/784 1127/3/785
f 1030/3/692 1128/3/786 1031/3/693
f 1129/3/787 1031/3/693 1128/3/786
f 1128/3/786 1130/3/788 1129/3/787
f 1130/3/788 1131/3/789 1129/3/787
f 1131/3/789 1130/3/788 1132/3/790
f 1132/3/790 1133/3/791 1131/3/789
f 1133/3/791 1132/3/790 1134/3/792
f 1133/3/791 1134/3/792 1135/3/793
f 1136/3/794 1133/3/791 1135/3/793
f 1135/3/793 1137/3/795 1136/3/794
f 1137/3/795 1135/3/793 1138/3/796
f 1137/3/795 1138/3/796 1139/3/797
f 1030/3/692 1140/3/798 1128/3/786
f 1140/3/798 1030/3/692 1141/3/799
f 1141/3/799 1142/3/800 1140/3/798
f 1142/3/800 1141/3/799 1143/3/801
f 1143/3/801 1144/3/802 1142/3/800
f 1144/3/802 1143/3/801 1145/3/803
f 1146/3/804 1144/3/802 1145/3/803
f 1144/3/802 1146/3/804 1147/3/805
f 1146/3/804 1148/3/806 1147/3/805
f 1148/3/806 1146/3/804 1149/3/807
f 1148/3/806 1149/3/807 1150/3/808
f 1151/3/809 980/3/643 982/3/645
f 980/3/643 1151/3/809 1152/3/810
f 1151/3/809 1153/3/811 1152/3/810
f 1153/3/811 1154/3/812 1152/3/810
f 1154/3/812 1153/3/811 1155/3/813
f 1155/3/813 1156/3/814 1154/3/812
f 1156/3/814 1155/3/813 1157/3/815
f 1157/3/815 1158/3/816 1156/3/814
f 1158/3/816 1157/3/815 1159/3/817
f 1158/3/816 1159/3/817 1160/3/818
f 1161/3/819 1158/3/816 1160/3/818
f 1161/3/819 1160/3/818 1162/3/820
f 1163/3/821 1151/3/809 982/3/645
f 1151/3/809 1163/3/821 1164/3/822
f 1163/3/821 1165/3/823 1164/3/822
f 1164/3/822 1165/3/823 1166/3/824
f 1165/3/823 1167/3/825 1166/3/824
f 1167/3/825 1165/3/823 1168/3/826
f 1168/3/826 1169/3/827 1167/3/825
f 1169/3/827 1168/3/826 1170/3/828
f 1170/3/828 1171/3/829 1169/3/827
f 1171/3/829 1170/3/828 1172/3/830
f 1171/3/829 1172/3/830 1173/3/831
