# Blender 5.2.0 LTS
# www.blender.org
mtllib glorious  bolt.mtl
o RenderMesh_112271047371977
v -0.084461 0.000032 0.112163
v -0.111841 -0.034192 0.112163
v -0.084461 -0.034192 0.128429
v -0.057081 -0.034192 0.112163
v -0.084461 0.000032 0.112163
v -0.084461 -0.034192 0.128429
v -0.084461 -0.068417 0.112163
v -0.057081 -0.034192 0.112163
v -0.084461 -0.034192 0.128429
v -0.111841 -0.034192 0.112163
v -0.084461 -0.068417 0.112163
v -0.084461 -0.034192 0.128429
vn -0.4728 0.3783 0.7959
vn 0.4728 0.3783 0.7959
vn 0.4728 -0.3782 0.7959
vn -0.4728 -0.3782 0.7959
vt 0.000000 0.000000
s 1
f 1/1/1 2/1/1 3/1/1
f 4/1/2 5/1/2 6/1/2
f 7/1/3 8/1/3 9/1/3
f 10/1/4 11/1/4 12/1/4
o RenderMesh_117950705298542
v -0.111778 -0.030018 -0.079879
v -0.111778 -0.030018 0.076676
v -0.104066 -0.011399 0.076676
v -0.104066 -0.048637 -0.079879
v -0.104066 -0.011399 -0.079879
v -0.104066 -0.048637 0.076676
v -0.085446 -0.003686 0.076676
v -0.085446 -0.056349 -0.079879
v -0.085446 -0.003686 -0.079879
v -0.085446 -0.056349 0.076676
v -0.066828 -0.011399 -0.079879
v -0.066828 -0.048637 -0.079879
v -0.066827 -0.011399 0.076676
v -0.066827 -0.048637 0.076675
v -0.059115 -0.030018 0.076676
v -0.059115 -0.030018 -0.079879
v -0.057911 -0.065717 0.094221
v -0.020082 -0.034192 0.094221
v -0.053500 -0.034192 0.111851
v -0.071278 -0.049007 0.111851
v -0.083130 -0.071230 0.111851
v -0.083130 -0.113002 0.094221
v -0.083130 -0.113002 0.094221
v -0.083130 -0.071230 0.111851
v -0.108349 -0.065717 0.094222
v -0.094982 -0.049007 0.111851
v -0.112760 -0.034192 0.111853
v -0.146178 -0.034192 0.094222
v -0.083130 0.002845 0.111851
v -0.071278 -0.019378 0.111851
v -0.057911 -0.002669 0.094222
v -0.083130 0.044617 0.094222
v -0.053500 -0.034192 0.111851
v -0.020082 -0.034192 0.094221
v -0.108349 -0.002669 0.094222
v -0.146178 -0.034192 0.094222
v -0.112760 -0.034192 0.111853
v -0.094982 -0.019378 0.111851
v -0.083130 0.002845 0.111851
v -0.083130 0.044617 0.094222
v -0.083130 -0.034193 0.052924
v -0.020082 -0.034192 0.094221
v -0.057911 -0.065717 0.094221
v -0.083130 -0.113002 0.094221
v -0.083130 -0.034193 0.052924
v -0.083130 -0.113002 0.094221
v -0.108349 -0.065717 0.094222
v -0.146178 -0.034192 0.094222
v -0.083130 -0.034193 0.052924
v -0.083130 0.044617 0.094222
v -0.057911 -0.002669 0.094222
v -0.020082 -0.034192 0.094221
v -0.094982 -0.019378 0.111851
v -0.112760 -0.034192 0.111853
v -0.108021 -0.034192 0.108969
v -0.093086 -0.021747 0.108969
v -0.083130 -0.003079 0.108969
v -0.083130 0.002845 0.111851
v -0.146178 -0.034192 0.094222
v -0.108349 -0.002669 0.094222
v -0.083130 -0.034193 0.052924
v -0.083130 0.044617 0.094222
v -0.083130 -0.003079 0.108969
v -0.073173 -0.021747 0.108969
v -0.071278 -0.019378 0.111851
v -0.083130 0.002845 0.111851
v -0.058239 -0.034192 0.108969
v -0.053500 -0.034192 0.111851
v -0.094982 -0.049007 0.111851
v -0.083130 -0.071230 0.111851
v -0.083130 -0.065306 0.108969
v -0.093086 -0.046638 0.108969
v -0.108021 -0.034192 0.108969
v -0.112760 -0.034192 0.111853
v -0.058239 -0.034192 0.108969
v -0.073173 -0.046638 0.108969
v -0.071278 -0.049007 0.111851
v -0.053500 -0.034192 0.111851
v -0.083130 -0.065306 0.108969
v -0.083130 -0.071230 0.111851
vn -1.0000 -0.0000 -0.0000
vn -0.5905 0.8071 -0.0000
vn -0.5904 -0.8071 -0.0000
vn -0.0000 1.0000 -0.0000
vn -0.0000 -1.0000 -0.0000
vn 0.5904 0.8071 -0.0000
vn 0.5904 -0.8071 -0.0000
vn 0.5905 0.8071 0.0001
vn 1.0000 -0.0000 -0.0000
vn 0.5307 -0.3766 0.7593
vn 0.4071 -0.4885 0.7717
vn 0.4481 -0.4541 0.7701
vn 0.5891 -0.3142 0.7445
vn -0.5891 -0.3142 0.7445
vn -0.5307 -0.3766 0.7593
vn -0.4481 -0.4541 0.7701
vn -0.4071 -0.4886 0.7717
vn 0.5891 0.3142 0.7445
vn 0.4481 0.4541 0.7701
vn 0.5307 0.3766 0.7593
vn 0.4071 0.4886 0.7717
vn -0.5307 0.3766 0.7593
vn -0.4071 0.4886 0.7717
vn -0.4481 0.4541 0.7701
vn -0.5891 0.3142 0.7445
vn 0.5274 -0.4886 -0.6950
vn 0.4578 -0.5494 -0.6990
vn 0.5873 -0.4292 -0.6862
vn 0.6565 -0.3501 -0.6682
vn -0.5274 -0.4886 -0.6950
vn -0.6565 -0.3501 -0.6682
vn -0.5873 -0.4292 -0.6862
vn -0.4578 -0.5494 -0.6990
vn 0.5274 0.4886 -0.6950
vn 0.6565 0.3501 -0.6682
vn 0.5873 0.4292 -0.6862
vn 0.4578 0.5494 -0.6990
vn 0.5688 -0.4116 0.7121
vn 0.4411 -0.5293 0.7248
vn 0.4886 -0.4887 0.7228
vn 0.6343 -0.3383 0.6951
vn -0.4578 0.5494 -0.6990
vn -0.5873 0.4292 -0.6862
vn -0.5274 0.4886 -0.6950
vn -0.6565 0.3501 -0.6682
vn -0.6343 -0.3383 0.6951
vn -0.4886 -0.4887 0.7228
vn -0.5688 -0.4116 0.7121
vn -0.4410 -0.5292 0.7249
vn 0.5688 0.4116 0.7121
vn 0.6343 0.3383 0.6951
vn 0.4890 0.4891 0.7223
vn 0.4411 0.5293 0.7248
vn -0.4410 0.5296 0.7246
vn -0.4886 0.4887 0.7228
vn -0.5688 0.4116 0.7121
vn -0.4410 0.5292 0.7249
vn -0.6343 0.3383 0.6951
vt 0.000000 0.000000
s 1
f 13/2/5 14/2/5 15/2/6
f 14/2/5 13/2/5 16/2/7
f 15/2/6 17/2/6 13/2/5
f 16/2/7 18/2/7 14/2/5
f 17/2/6 15/2/6 19/2/8
f 18/2/7 16/2/7 20/2/9
f 19/2/8 21/2/8 17/2/6
f 20/2/9 22/2/9 18/2/7
f 19/2/8 23/2/10 21/2/8
f 22/2/9 20/2/9 24/2/11
f 23/2/10 19/2/8 25/2/12
f 24/2/11 26/2/11 22/2/9
f 23/2/10 25/2/12 27/2/13
f 26/2/11 24/2/11 28/2/13
f 27/2/13 28/2/13 23/2/10
f 28/2/13 27/2/13 26/2/11
f 29/2/14 30/2/15 31/2/15
f 29/2/14 31/2/15 32/2/16
f 33/2/17 29/2/14 32/2/16
f 29/2/14 33/2/17 34/2/17
f 35/2/18 36/2/18 37/2/19
f 37/2/19 36/2/18 38/2/20
f 39/2/21 37/2/19 38/2/20
f 37/2/19 39/2/21 40/2/21
f 41/2/22 42/2/23 43/2/24
f 43/2/24 44/2/22 41/2/22
f 45/2/25 43/2/24 42/2/23
f 43/2/24 45/2/25 46/2/25
f 47/2/26 48/2/27 49/2/27
f 47/2/26 49/2/27 50/2/28
f 51/2/29 47/2/26 50/2/28
f 47/2/26 51/2/29 52/2/29
f 53/2/30 54/2/31 55/2/32
f 53/2/30 55/2/32 56/2/33
f 57/2/34 58/2/35 59/2/36
f 57/2/34 59/2/36 60/2/37
f 61/2/38 62/2/39 63/2/40
f 61/2/38 63/2/40 64/2/41
f 65/2/42 66/2/43 67/2/43
f 65/2/42 67/2/43 68/2/44
f 69/2/45 65/2/42 68/2/44
f 65/2/42 69/2/45 70/2/45
f 71/2/46 72/2/47 73/2/48
f 72/2/47 74/2/49 73/2/48
f 75/2/50 76/2/51 77/2/52
f 77/2/52 78/2/50 75/2/50
f 79/2/53 77/2/52 76/2/51
f 77/2/52 79/2/53 80/2/53
f 81/2/54 82/2/55 83/2/55
f 81/2/54 83/2/55 84/2/56
f 85/2/57 81/2/54 84/2/56
f 81/2/54 85/2/57 86/2/57
f 87/2/58 88/2/59 89/2/60
f 89/2/60 90/2/61 87/2/58
f 91/2/62 89/2/60 88/2/59
f 89/2/60 91/2/62 92/2/62
