# Blender 5.2.0 LTS
# www.blender.org
mtllib glowy thing.mtl
o RenderMesh_17773029366_71dd254c2f920a28
v -0.251454 0.013976 -0.058806
v -0.525246 -0.027606 -0.041582
v -0.525247 0.013976 -0.058806
v -0.525246 0.055558 -0.041582
v -0.251454 -0.027606 -0.041582
v -0.251454 0.055558 -0.041582
v -0.251454 -0.044830 0.000000
v -0.251454 0.072782 -0.000000
v -0.525247 -0.044830 0.000000
v -0.525246 0.072782 -0.000000
v -0.525247 -0.027606 0.041582
v -0.251454 0.055558 0.041582
v -0.251454 -0.027606 0.041582
v -0.525247 0.055558 0.041582
v -0.525246 0.013976 0.058806
v -0.251454 0.013976 0.058806
vn -0.0000 0.0005 -1.0000
vn -0.0000 -0.7254 -0.6883
vn -0.0000 0.7254 -0.6883
vn -0.0000 -1.0000 0.0005
vn -0.0000 1.0000 0.0005
vn -0.0000 -0.7254 0.6883
vn -0.0000 0.7254 0.6883
vn -0.0000 0.0005 1.0000
vt 0.000000 0.000000
s 1
f 1/1/1 2/1/2 3/1/1
f 4/1/3 1/1/1 3/1/1
f 2/1/2 1/1/1 5/1/2
f 1/1/1 4/1/3 6/1/3
f 7/1/4 2/1/2 5/1/2
f 6/1/3 4/1/3 8/1/5
f 2/1/2 7/1/4 9/1/4
f 10/1/5 8/1/5 4/1/3
f 7/1/4 11/1/6 9/1/4
f 8/1/5 10/1/5 12/1/7
f 11/1/6 7/1/4 13/1/6
f 14/1/7 12/1/7 10/1/5
f 13/1/6 15/1/8 11/1/6
f 15/1/8 12/1/7 14/1/7
f 15/1/8 13/1/6 16/1/8
f 12/1/7 15/1/8 16/1/8
