# Blender 5.2.0 LTS
# www.blender.org
mtllib jingle grenade.mtl
o RenderMesh_83022326848791
v -0.062856 -0.095782 0.062856
v 0.000000 -0.095782 0.088892
v -0.058071 -0.061765 0.058071
v -0.058071 -0.129800 0.058071
v -0.088892 -0.095782 0.000000
v 0.000000 -0.061765 0.082125
v -0.044446 -0.032926 0.044446
v -0.082125 -0.061765 0.000000
v 0.000000 -0.032926 0.062856
v -0.062856 -0.032926 0.000000
v -0.024054 -0.013657 0.024054
v 0.000000 -0.013657 0.034017
v -0.034017 -0.013657 0.000000
v 0.024054 -0.013657 0.024054
v -0.024054 -0.013657 -0.024054
v 0.044446 -0.032926 0.044446
v 0.058071 -0.061765 0.058071
v 0.062856 -0.032926 0.000000
v 0.034017 -0.013657 0.000000
v 0.024054 -0.013657 -0.024054
v 0.082125 -0.061765 0.000000
v 0.044446 -0.032926 -0.044446
v 0.062856 -0.095782 0.062856
v 0.000000 -0.032926 -0.062856
v 0.000000 -0.013657 -0.034017
v 0.088892 -0.095782 0.000000
v 0.058071 -0.129800 0.058071
v -0.044446 -0.032926 -0.044446
v 0.000000 -0.061765 -0.082125
v -0.058071 -0.061765 -0.058071
v 0.058071 -0.061765 -0.058071
v 0.000000 -0.095782 -0.088892
v 0.062856 -0.095782 -0.062856
v -0.062856 -0.095782 -0.062856
v -0.058071 -0.129800 -0.058071
v 0.058071 -0.129800 -0.058071
v 0.082125 -0.129800 0.000000
v 0.000000 -0.129800 -0.082125
v 0.044446 -0.158638 -0.044446
v 0.044446 -0.158638 0.044446
v 0.062856 -0.158638 0.000000
v 0.000000 -0.129800 0.082125
v 0.000000 -0.158638 0.062856
v -0.044446 -0.158638 0.044446
v -0.082125 -0.129800 0.000000
v 0.024054 -0.177908 0.024054
v 0.000000 -0.177908 0.034017
v 0.034017 -0.177908 0.000000
v -0.024054 -0.177908 0.024054
v 0.000000 -0.184674 0.000000
v 0.024054 -0.177908 -0.024054
v -0.034017 -0.177908 0.000000
v -0.062856 -0.158638 0.000000
v 0.000000 -0.177908 -0.034017
v -0.024054 -0.177908 -0.024054
v 0.000000 -0.158638 -0.062856
v -0.044446 -0.158638 -0.044446
v 0.340917 -0.085983 0.000000
v 0.241065 -0.085982 0.241065
v 0.222305 -0.098162 0.222305
v 0.000000 -0.085982 0.340917
v 0.314386 -0.098163 0.000000
v 0.000000 -0.098162 0.314386
v 0.222305 -0.098163 -0.222305
v -0.222305 -0.098162 0.222305
v 0.241065 -0.085983 -0.241065
v -0.241065 -0.085982 0.241065
v 0.000000 -0.085983 -0.340917
v -0.340917 -0.085983 0.000000
v 0.000000 -0.098163 -0.314386
v -0.314386 -0.098163 0.000000
v -0.222305 -0.098163 -0.222305
v -0.241065 -0.085983 -0.241065
v 0.000000 0.598446 -0.000000
v -0.088437 0.555739 0.026437
v 0.000000 0.572612 0.026490
v 0.088437 0.555739 0.026437
v -0.104641 0.575248 -0.000000
v 0.104641 0.575248 -0.000000
v -0.122430 0.515880 0.026496
v 0.122430 0.515880 0.026496
v -0.146920 0.523920 -0.000000
v 0.146920 0.523920 -0.000000
v -0.157776 0.484715 -0.000000
v 0.157776 0.484715 -0.000000
v -0.132585 0.488407 0.026460
v -0.091222 0.288232 0.026468
v -0.114744 0.278499 -0.000000
v 0.132585 0.488407 0.026460
v 0.091222 0.288232 0.026468
v 0.114744 0.278499 -0.000000
v -0.104641 0.575248 -0.000000
v -0.122430 0.515880 -0.026496
v -0.146920 0.523920 -0.000000
v -0.157776 0.484715 -0.000000
v -0.088437 0.555739 -0.026437
v -0.132585 0.488407 -0.026460
v -0.091222 0.288232 -0.026468
v -0.114744 0.278499 -0.000000
v 0.000000 0.598446 -0.000000
v 0.000000 0.572612 -0.026490
v 0.088437 0.555739 -0.026437
v 0.104641 0.575248 -0.000000
v 0.122430 0.515880 -0.026496
v 0.146920 0.523920 -0.000000
v 0.157776 0.484715 -0.000000
v 0.132585 0.488407 -0.026460
v 0.091222 0.288232 -0.026468
v 0.114744 0.278499 -0.000000
v 0.362938 -0.020373 0.000000
v 0.241065 0.045237 0.241065
v 0.256636 -0.020372 0.256636
v 0.340917 0.045237 0.000000
v 0.241065 0.045237 -0.241065
v 0.000000 -0.020372 0.362938
v 0.000000 0.045238 0.340917
v 0.241065 -0.085982 0.241065
v 0.340917 -0.085983 0.000000
v 0.000000 -0.085982 0.340917
v 0.241065 -0.085983 -0.241065
v -0.241065 0.045237 0.241065
v -0.241065 -0.085982 0.241065
v -0.256636 -0.020372 0.256636
v 0.256636 -0.020373 -0.256636
v 0.000000 -0.020373 -0.362938
v 0.000000 -0.085983 -0.340917
v 0.000000 0.045237 -0.340917
v -0.241065 -0.085983 -0.241065
v -0.241065 0.045237 -0.241065
v -0.256636 -0.020373 -0.256636
v -0.362938 -0.020373 0.000000
v -0.340917 -0.085983 0.000000
v -0.340917 0.045237 0.000000
v 0.000000 0.305209 -0.034017
v 0.000000 -0.013657 -0.034017
v -0.024054 0.305209 -0.024054
v -0.024054 -0.013657 -0.024054
v 0.024054 -0.013657 -0.024054
v -0.034017 0.305209 -0.000000
v 0.024054 0.305209 -0.024054
v -0.034017 -0.013657 0.000000
v 0.034017 -0.013657 0.000000
v -0.024054 0.305209 0.024054
v 0.034017 0.305209 -0.000000
v -0.024054 -0.013657 0.024054
v 0.024054 -0.013657 0.024054
v 0.000000 0.305209 0.034017
v 0.024054 0.305209 0.024054
v 0.000000 -0.013657 0.034017
v 0.340917 0.045237 0.000000
v 0.222305 0.057417 0.222305
v 0.241065 0.045237 0.241065
v 0.000000 0.045238 0.340917
v 0.314386 0.057417 0.000000
v 0.000000 0.057418 0.314386
v 0.222305 0.057417 -0.222305
v -0.222305 0.057417 0.222305
v 0.241065 0.045237 -0.241065
v -0.241065 0.045237 0.241065
v 0.000000 0.045237 -0.340917
v -0.340917 0.045237 0.000000
v 0.000000 0.057417 -0.314386
v -0.314386 0.057417 0.000000
v -0.222305 0.057417 -0.222305
v -0.241065 0.045237 -0.241065
v -0.088437 0.555739 0.026437
v -0.097259 0.506616 -0.000000
v -0.071943 0.533804 -0.000000
v -0.122430 0.515880 0.026496
v 0.000000 0.572612 0.026490
v -0.105560 0.490909 -0.000000
v 0.000000 0.545407 -0.000000
v -0.132585 0.488407 0.026460
v -0.065941 0.298329 -0.000000
v -0.091222 0.288232 0.026468
v 0.071943 0.533804 -0.000000
v 0.088437 0.555739 0.026437
v 0.097259 0.506616 -0.000000
v 0.122430 0.515880 0.026496
v 0.105560 0.490909 -0.000000
v 0.132585 0.488407 0.026460
v 0.065941 0.298329 -0.000000
v 0.091222 0.288232 0.026468
v -0.088437 0.555739 -0.026437
v -0.097259 0.506616 -0.000000
v -0.122430 0.515880 -0.026496
v -0.105560 0.490909 -0.000000
v -0.071943 0.533804 -0.000000
v -0.132585 0.488407 -0.026460
v -0.065941 0.298329 -0.000000
v -0.091222 0.288232 -0.026468
v 0.000000 0.572612 -0.026490
v 0.000000 0.545407 -0.000000
v 0.071943 0.533804 -0.000000
v 0.088437 0.555739 -0.026437
v 0.097259 0.506616 -0.000000
v 0.122430 0.515880 -0.026496
v 0.105560 0.490909 -0.000000
v 0.132585 0.488407 -0.026460
v 0.065941 0.298329 -0.000000
v 0.091222 0.288232 -0.026468
vn -0.7071 0.0005 0.7071
vn 0.0003 0.0003 1.0000
vn -0.6578 0.3668 0.6578
vn -0.6578 -0.3668 0.6578
vn -1.0000 0.0003 0.0003
vn 0.0003 0.3668 0.9303
vn -0.5163 0.6833 0.5163
vn -0.9303 0.3667 0.0006
vn -0.0000 0.6839 0.7296
vn -0.7297 0.6838 0.0005
vn -0.3928 0.8315 0.3928
vn 0.0006 0.8317 0.5552
vn -0.5552 0.8317 0.0006
vn 0.3928 0.8315 0.3928
vn -0.3928 0.8315 -0.3928
vn 0.5163 0.6834 0.5163
vn 0.6578 0.3668 0.6578
vn 0.7297 0.6838 0.0005
vn 0.5552 0.8317 0.0006
vn 0.3928 0.8315 -0.3928
vn 0.9303 0.3667 0.0006
vn 0.5163 0.6833 -0.5163
vn 0.7071 0.0005 0.7071
vn -0.0000 0.6839 -0.7296
vn 0.0006 0.8317 -0.5552
vn 1.0000 0.0003 0.0003
vn 0.6578 -0.3668 0.6578
vn -0.5163 0.6833 -0.5163
vn 0.0006 0.3667 -0.9303
vn -0.6578 0.3668 -0.6578
vn 0.6578 0.3668 -0.6578
vn 0.0003 0.0003 -1.0000
vn 0.7071 0.0003 -0.7071
vn -0.7071 0.0005 -0.7071
vn -0.6578 -0.3668 -0.6578
vn 0.6578 -0.3668 -0.6578
vn 0.9303 -0.3668 0.0005
vn -0.0000 -0.3668 -0.9303
vn 0.5163 -0.6834 -0.5163
vn 0.5163 -0.6833 0.5163
vn 0.7297 -0.6838 0.0005
vn 0.0005 -0.3668 0.9303
vn 0.0005 -0.6838 0.7297
vn -0.5163 -0.6833 0.5163
vn -0.9303 -0.3668 0.0005
vn 0.2988 -0.9063 0.2988
vn 0.0005 -0.9063 0.4226
vn 0.4226 -0.9063 0.0006
vn -0.2988 -0.9063 0.2988
vn 0.0003 -1.0000 0.0003
vn 0.2988 -0.9063 -0.2988
vn -0.4226 -0.9063 0.0006
vn -0.7297 -0.6838 0.0003
vn 0.0007 -0.9063 -0.4226
vn -0.2988 -0.9063 -0.2988
vn -0.0000 -0.6839 -0.7296
vn -0.5163 -0.6833 -0.5163
vn 0.4174 -0.9087 0.0004
vn 0.2946 -0.9091 0.2946
vn 0.0005 -0.9087 0.4175
vn 0.4175 -0.9087 0.0004
vn 0.0004 -0.9087 0.4175
vn 0.2946 -0.9091 -0.2946
vn -0.2946 -0.9091 0.2946
vn 0.0005 -0.9087 -0.4175
vn -0.4174 -0.9087 0.0004
vn 0.0004 -0.9087 -0.4175
vn -0.4175 -0.9087 0.0004
vn -0.2946 -0.9091 -0.2946
vn 0.0005 0.7358 0.6772
vn -0.3552 0.6259 0.6943
vn 0.3552 0.6259 0.6943
vn -0.3834 0.6081 0.6951
vn 0.3834 0.6081 0.6951
vn -0.6336 0.3610 0.6843
vn 0.6336 0.3610 0.6843
vn -0.6447 0.3397 0.6848
vn 0.6447 0.3397 0.6848
vn -0.7176 0.0211 0.6961
vn 0.7176 0.0210 0.6961
vn -0.7177 0.0533 0.6943
vn -0.7091 -0.1471 0.6895
vn 0.7177 0.0533 0.6943
vn 0.7091 -0.1471 0.6896
vn -0.3834 0.6081 -0.6951
vn -0.6336 0.3610 -0.6843
vn -0.6447 0.3397 -0.6848
vn -0.7176 0.0210 -0.6961
vn -0.3552 0.6259 -0.6943
vn -0.7177 0.0533 -0.6943
vn -0.7091 -0.1471 -0.6896
vn 0.0005 0.7358 -0.6772
vn 0.3552 0.6259 -0.6943
vn 0.3834 0.6081 -0.6951
vn 0.6336 0.3610 -0.6843
vn 0.6447 0.3397 -0.6848
vn 0.7176 0.0211 -0.6961
vn 0.7177 0.0533 -0.6943
vn 0.7091 -0.1471 -0.6896
vn 0.6704 0.3179 0.6704
vn 0.9480 0.3182 -0.0000
vn 0.6704 0.3182 -0.6704
vn 0.0005 0.3180 0.9481
vn 0.6704 -0.3179 0.6704
vn 0.9480 -0.3182 -0.0000
vn 0.0005 -0.3180 0.9481
vn 0.6704 -0.3182 -0.6704
vn -0.6704 0.3182 0.6704
vn -0.6704 -0.3182 0.6704
vn 0.7071 0.0005 -0.7071
vn 0.0005 -0.3180 -0.9481
vn 0.0005 0.3180 -0.9481
vn -0.6704 -0.3182 -0.6704
vn -0.6704 0.3182 -0.6704
vn -0.9480 -0.3182 -0.0000
vn -0.9480 0.3182 -0.0000
vn 0.0005 0.0005 -1.0000
vn -0.7071 -0.0000 -0.7071
vn 0.7071 -0.0000 -0.7071
vn -1.0000 0.0005 0.0005
vn 1.0000 0.0005 0.0005
vn -0.7071 -0.0000 0.7071
vn 0.7071 -0.0000 0.7071
vn 0.0005 0.0005 1.0000
vn 0.4174 0.9087 0.0004
vn 0.2946 0.9091 0.2946
vn 0.0003 0.9087 0.4174
vn 0.4175 0.9087 0.0004
vn 0.0004 0.9087 0.4175
vn 0.2946 0.9091 -0.2946
vn -0.2946 0.9091 0.2946
vn 0.0004 0.9087 -0.4174
vn -0.4174 0.9087 0.0004
vn 0.0004 0.9087 -0.4175
vn -0.4175 0.9087 0.0004
vn -0.2946 0.9091 -0.2946
vn 0.3531 -0.5993 0.7185
vn 0.5964 -0.3912 0.7009
vn 0.3270 -0.6144 0.7180
vn 0.6092 -0.3727 0.7000
vn 0.0005 -0.7129 0.7012
vn 0.6903 -0.0923 0.7176
vn 0.0005 -0.7130 0.7012
vn 0.6922 -0.0542 0.7196
vn 0.6871 0.1421 0.7125
vn -0.3270 -0.6144 0.7180
vn -0.3531 -0.5993 0.7185
vn -0.5964 -0.3912 0.7009
vn -0.6092 -0.3727 0.7000
vn -0.6903 -0.0923 0.7176
vn -0.6923 -0.0542 0.7196
vn -0.6871 0.1421 0.7125
vn -0.6871 0.1421 0.7126
vn 0.3531 -0.5993 -0.7185
vn 0.5964 -0.3912 -0.7009
vn 0.6092 -0.3727 -0.7000
vn 0.6903 -0.0923 -0.7176
vn 0.3270 -0.6144 -0.7180
vn 0.6922 -0.0542 -0.7196
vn 0.6871 0.1421 -0.7125
vn 0.0005 -0.7129 -0.7012
vn 0.0005 -0.7130 -0.7012
vn -0.3270 -0.6144 -0.7180
vn -0.3531 -0.5993 -0.7185
vn -0.5964 -0.3912 -0.7009
vn -0.6092 -0.3727 -0.7000
vn -0.6903 -0.0923 -0.7176
vn -0.6922 -0.0542 -0.7196
vn -0.6871 0.1421 -0.7125
vn -0.6871 0.1421 -0.7126
vt 0.000000 0.000000
s 1
f 1/1/1 2/1/2 3/1/3
f 4/1/4 2/1/2 1/1/1
f 3/1/3 5/1/5 1/1/1
f 5/1/5 4/1/4 1/1/1
f 2/1/2 6/1/6 3/1/3
f 3/1/3 6/1/6 7/1/7
f 5/1/5 3/1/3 8/1/8
f 7/1/7 8/1/8 3/1/3
f 6/1/6 9/1/9 7/1/7
f 8/1/8 7/1/7 10/1/10
f 9/1/9 11/1/11 7/1/7
f 11/1/11 10/1/10 7/1/7
f 11/1/11 9/1/9 12/1/12
f 10/1/10 11/1/11 13/1/13
f 9/1/9 14/1/14 12/1/12
f 15/1/15 10/1/10 13/1/13
f 6/1/6 16/1/16 9/1/9
f 14/1/14 9/1/9 16/1/16
f 16/1/16 6/1/6 17/1/17
f 2/1/2 17/1/17 6/1/6
f 16/1/16 18/1/18 14/1/14
f 14/1/14 18/1/18 19/1/19
f 18/1/18 20/1/20 19/1/19
f 18/1/18 16/1/16 21/1/21
f 17/1/17 21/1/21 16/1/16
f 20/1/20 18/1/18 22/1/22
f 21/1/21 22/1/22 18/1/18
f 17/1/17 2/1/2 23/1/23
f 22/1/22 24/1/24 20/1/20
f 20/1/20 24/1/24 25/1/25
f 24/1/24 15/1/15 25/1/25
f 26/1/26 17/1/17 23/1/23
f 17/1/17 26/1/26 21/1/21
f 23/1/23 2/1/2 27/1/27
f 27/1/27 26/1/26 23/1/23
f 15/1/15 24/1/24 28/1/28
f 10/1/10 15/1/15 28/1/28
f 28/1/28 8/1/8 10/1/10
f 29/1/29 28/1/28 24/1/24
f 22/1/22 29/1/29 24/1/24
f 28/1/28 30/1/30 8/1/8
f 28/1/28 29/1/29 30/1/30
f 30/1/30 5/1/5 8/1/8
f 29/1/29 22/1/22 31/1/31
f 22/1/22 21/1/21 31/1/31
f 26/1/26 31/1/31 21/1/21
f 31/1/31 32/1/32 29/1/29
f 32/1/32 30/1/30 29/1/29
f 31/1/31 26/1/26 33/1/33
f 32/1/32 31/1/31 33/1/33
f 34/1/34 5/1/5 30/1/30
f 30/1/30 32/1/32 34/1/34
f 35/1/35 5/1/5 34/1/34
f 32/1/32 35/1/35 34/1/34
f 33/1/33 26/1/26 36/1/36
f 36/1/36 32/1/32 33/1/33
f 36/1/36 26/1/26 37/1/37
f 26/1/26 27/1/27 37/1/37
f 32/1/32 36/1/36 38/1/38
f 35/1/35 32/1/32 38/1/38
f 36/1/36 37/1/37 39/1/39
f 39/1/39 38/1/38 36/1/36
f 40/1/40 37/1/37 27/1/27
f 39/1/39 37/1/37 41/1/41
f 37/1/37 40/1/40 41/1/41
f 40/1/40 27/1/27 42/1/42
f 42/1/42 27/1/27 2/1/2
f 2/1/2 4/1/4 42/1/42
f 43/1/43 40/1/40 42/1/42
f 44/1/44 42/1/42 4/1/4
f 42/1/42 44/1/44 43/1/43
f 45/1/45 44/1/44 4/1/4
f 5/1/5 45/1/45 4/1/4
f 5/1/5 35/1/35 45/1/45
f 46/1/46 40/1/40 43/1/43
f 46/1/46 41/1/41 40/1/40
f 43/1/43 47/1/47 46/1/46
f 41/1/41 46/1/46 48/1/48
f 43/1/43 49/1/49 47/1/47
f 49/1/49 43/1/43 44/1/44
f 50/1/50 46/1/46 47/1/47
f 50/1/50 47/1/47 49/1/49
f 50/1/50 48/1/48 46/1/46
f 51/1/51 41/1/41 48/1/48
f 50/1/50 51/1/51 48/1/48
f 39/1/39 41/1/41 51/1/51
f 50/1/50 49/1/49 52/1/52
f 53/1/53 49/1/49 44/1/44
f 49/1/49 53/1/53 52/1/52
f 45/1/45 53/1/53 44/1/44
f 50/1/50 54/1/54 51/1/51
f 50/1/50 52/1/52 55/1/55
f 50/1/50 55/1/55 54/1/54
f 53/1/53 55/1/55 52/1/52
f 56/1/56 51/1/51 54/1/54
f 51/1/51 56/1/56 39/1/39
f 55/1/55 56/1/56 54/1/54
f 38/1/38 39/1/39 56/1/56
f 55/1/55 53/1/53 57/1/57
f 45/1/45 57/1/57 53/1/53
f 57/1/57 56/1/56 55/1/55
f 57/1/57 38/1/38 56/1/56
f 57/1/57 45/1/45 35/1/35
f 35/1/35 38/1/38 57/1/57
f 58/1/58 59/1/59 60/1/59
f 61/1/60 60/1/59 59/1/59
f 58/1/58 60/1/59 62/1/61
f 60/1/59 61/1/60 63/1/62
f 64/1/63 58/1/58 62/1/61
f 61/1/60 65/1/64 63/1/62
f 58/1/58 64/1/63 66/1/63
f 65/1/64 61/1/60 67/1/64
f 68/1/65 66/1/63 64/1/63
f 69/1/66 65/1/64 67/1/64
f 68/1/65 64/1/63 70/1/67
f 65/1/64 69/1/66 71/1/68
f 72/1/69 68/1/65 70/1/67
f 72/1/69 71/1/68 69/1/66
f 68/1/65 72/1/69 73/1/69
f 69/1/66 73/1/69 72/1/69
f 74/1/70 75/1/71 76/1/70
f 77/1/72 74/1/70 76/1/70
f 75/1/71 74/1/70 78/1/73
f 74/1/70 77/1/72 79/1/74
f 78/1/73 80/1/75 75/1/71
f 81/1/76 79/1/74 77/1/72
f 80/1/75 78/1/73 82/1/77
f 79/1/74 81/1/76 83/1/78
f 84/1/79 80/1/75 82/1/77
f 85/1/80 83/1/78 81/1/76
f 80/1/75 84/1/79 86/1/81
f 84/1/79 87/1/82 86/1/81
f 87/1/82 84/1/79 88/1/82
f 85/1/80 81/1/76 89/1/83
f 90/1/84 85/1/80 89/1/83
f 85/1/80 90/1/84 91/1/84
f 92/1/85 93/1/86 94/1/87
f 93/1/86 95/1/88 94/1/87
f 93/1/86 92/1/85 96/1/89
f 95/1/88 93/1/86 97/1/90
f 98/1/91 95/1/88 97/1/90
f 95/1/88 98/1/91 99/1/91
f 100/1/92 96/1/89 92/1/85
f 96/1/89 100/1/92 101/1/92
f 100/1/92 102/1/93 101/1/92
f 102/1/93 100/1/92 103/1/94
f 103/1/94 104/1/95 102/1/93
f 103/1/94 105/1/96 104/1/95
f 106/1/97 104/1/95 105/1/96
f 104/1/95 106/1/97 107/1/98
f 108/1/99 107/1/98 106/1/97
f 106/1/97 109/1/99 108/1/99
f 110/1/26 111/1/100 112/1/23
f 111/1/100 110/1/26 113/1/101
f 110/1/26 114/1/102 113/1/101
f 111/1/100 115/1/2 112/1/23
f 115/1/2 111/1/100 116/1/103
f 117/1/104 110/1/26 112/1/23
f 115/1/2 117/1/104 112/1/23
f 110/1/26 117/1/104 118/1/105
f 117/1/104 115/1/2 119/1/106
f 120/1/107 110/1/26 118/1/105
f 121/1/108 115/1/2 116/1/103
f 122/1/109 119/1/106 115/1/2
f 115/1/2 121/1/108 123/1/1
f 122/1/109 115/1/2 123/1/1
f 110/1/26 120/1/107 124/1/110
f 114/1/102 110/1/26 124/1/110
f 125/1/32 124/1/110 120/1/107
f 125/1/32 114/1/102 124/1/110
f 125/1/32 120/1/107 126/1/111
f 114/1/102 125/1/32 127/1/112
f 128/1/113 125/1/32 126/1/111
f 129/1/114 127/1/112 125/1/32
f 125/1/32 128/1/113 130/1/34
f 125/1/32 130/1/34 129/1/114
f 131/1/5 130/1/34 128/1/113
f 131/1/5 129/1/114 130/1/34
f 128/1/113 132/1/115 131/1/5
f 122/1/109 131/1/5 132/1/115
f 131/1/5 122/1/109 123/1/1
f 131/1/5 123/1/1 121/1/108
f 129/1/114 131/1/5 133/1/116
f 121/1/108 133/1/116 131/1/5
f 134/1/117 135/1/117 136/1/118
f 136/1/118 135/1/117 137/1/118
f 134/1/117 138/1/119 135/1/117
f 136/1/118 137/1/118 139/1/120
f 140/1/119 138/1/119 134/1/117
f 141/1/120 139/1/120 137/1/118
f 140/1/119 142/1/121 138/1/119
f 139/1/120 141/1/120 143/1/122
f 142/1/121 140/1/119 144/1/121
f 145/1/122 143/1/122 141/1/120
f 144/1/121 146/1/123 142/1/121
f 145/1/122 147/1/124 143/1/122
f 146/1/123 144/1/121 148/1/123
f 149/1/124 147/1/124 145/1/122
f 146/1/123 148/1/123 149/1/124
f 149/1/124 148/1/123 147/1/124
f 150/1/125 151/1/126 152/1/126
f 153/1/127 152/1/126 151/1/126
f 151/1/126 150/1/125 154/1/128
f 151/1/126 155/1/129 153/1/127
f 150/1/125 156/1/130 154/1/128
f 157/1/131 153/1/127 155/1/129
f 150/1/125 158/1/130 156/1/130
f 153/1/127 157/1/131 159/1/131
f 160/1/132 156/1/130 158/1/130
f 161/1/133 159/1/131 157/1/131
f 156/1/130 160/1/132 162/1/134
f 157/1/131 163/1/135 161/1/133
f 160/1/132 164/1/136 162/1/134
f 164/1/136 161/1/133 163/1/135
f 164/1/136 160/1/132 165/1/136
f 161/1/133 164/1/136 165/1/136
f 166/1/137 167/1/138 168/1/139
f 167/1/138 166/1/137 169/1/140
f 170/1/141 166/1/137 168/1/139
f 169/1/140 171/1/142 167/1/138
f 168/1/139 172/1/143 170/1/141
f 171/1/142 169/1/140 173/1/144
f 173/1/144 174/1/145 171/1/142
f 174/1/145 173/1/144 175/1/145
f 176/1/146 170/1/141 172/1/143
f 170/1/141 176/1/146 177/1/147
f 178/1/148 177/1/147 176/1/146
f 177/1/147 178/1/148 179/1/149
f 180/1/150 179/1/149 178/1/148
f 179/1/149 180/1/150 181/1/151
f 182/1/152 181/1/151 180/1/150
f 181/1/151 182/1/152 183/1/153
f 184/1/154 185/1/155 186/1/156
f 187/1/157 186/1/156 185/1/155
f 185/1/155 184/1/154 188/1/158
f 186/1/156 187/1/157 189/1/159
f 187/1/157 190/1/160 189/1/159
f 191/1/160 189/1/159 190/1/160
f 184/1/154 192/1/161 188/1/158
f 188/1/158 192/1/161 193/1/162
f 192/1/161 194/1/163 193/1/162
f 192/1/161 195/1/164 194/1/163
f 195/1/164 196/1/165 194/1/163
f 195/1/164 197/1/166 196/1/165
f 196/1/165 197/1/166 198/1/167
f 197/1/166 199/1/168 198/1/167
f 200/1/169 198/1/167 199/1/168
f 199/1/168 201/1/170 200/1/169
o RenderMesh_135207395523007
v 0.144570 -0.279544 -0.108833
v 0.131224 -0.318584 0.000000
v 0.099594 -0.317110 -0.081688
v 0.098034 -0.318584 -0.080128
v 0.017906 -0.341124 0.000000
v 0.098034 -0.318584 0.080128
v 0.099594 -0.317110 0.081688
v 0.144570 -0.279544 0.108833
v 0.242470 -0.244251 0.000000
v 0.187755 -0.244251 -0.132095
v 0.187755 -0.244251 0.132095
v 0.196330 -0.230806 -0.133080
v 0.196330 -0.230806 0.133080
v 0.220925 -0.194993 -0.131476
v 0.220925 -0.194993 0.131476
v 0.316803 -0.133005 0.000000
v 0.239665 -0.139087 -0.176415
v 0.239665 -0.139087 0.176415
v 0.237673 -0.133005 -0.191035
v 0.237673 -0.133005 0.191035
v 0.342905 -0.001781 0.000000
v 0.092789 0.315022 0.092789
v 0.000000 0.341124 -0.000000
v 0.000000 0.315022 0.131224
v -0.092789 0.315022 0.092789
v 0.171452 0.240689 0.171452
v 0.000000 0.240689 0.242470
v -0.171452 0.240689 0.171452
v -0.131224 0.315022 -0.000000
v 0.131224 0.315022 -0.000000
v -0.092789 0.315022 -0.092789
v 0.092789 0.315022 -0.092789
v 0.000000 0.315022 -0.131224
v 0.171452 0.240689 -0.171452
v 0.242470 0.240689 -0.000000
v -0.171452 0.240689 -0.171452
v 0.000000 0.240689 -0.242470
v 0.316803 0.129443 -0.000000
v 0.000000 0.129443 -0.316803
v -0.242470 0.240689 -0.000000
v -0.316803 0.129443 -0.000000
v -0.224013 0.129443 -0.224013
v -0.224013 0.129443 0.224013
v 0.224013 0.129443 -0.224013
v 0.000000 -0.001781 -0.342905
v -0.342905 -0.001781 0.000000
v 0.000000 0.129443 0.316803
v 0.224013 0.129443 0.224013
v 0.000000 -0.001781 0.342905
v 0.242470 -0.001781 0.242470
v -0.242470 -0.001781 0.242470
v 0.191035 -0.133005 0.237673
v 0.226415 -0.115930 0.226415
v -0.191035 -0.133005 0.237673
v -0.226415 -0.115930 0.226415
v -0.237673 -0.133005 0.191035
v 0.000000 -0.133005 0.316803
v -0.176415 -0.139087 0.239665
v 0.176415 -0.139087 0.239665
v -0.131476 -0.194993 0.220925
v 0.131476 -0.194993 0.220925
v 0.000000 -0.244251 0.242470
v -0.133080 -0.230806 0.196330
v 0.133080 -0.230806 0.196330
v -0.132095 -0.244251 0.187755
v 0.132095 -0.244251 0.187755
v -0.108833 -0.279544 0.144570
v 0.108833 -0.279544 0.144570
v 0.000000 -0.318584 0.131224
v -0.081688 -0.317110 0.099594
v 0.081688 -0.317110 0.099594
v -0.080128 -0.318584 0.098034
v 0.080128 -0.318584 0.098034
v 0.000000 -0.341124 0.017906
v -0.242470 -0.244251 0.000000
v -0.144570 -0.279544 0.108833
v -0.187755 -0.244251 0.132095
v -0.196330 -0.230806 0.133080
v -0.220925 -0.194993 0.131476
v -0.131224 -0.318584 0.000000
v -0.099594 -0.317110 0.081688
v -0.098034 -0.318584 0.080128
v -0.017906 -0.341124 0.000000
v -0.098034 -0.318584 -0.080128
v -0.099594 -0.317110 -0.081688
v -0.144570 -0.279544 -0.108833
v -0.187755 -0.244251 -0.132095
v -0.196330 -0.230806 -0.133080
v -0.220925 -0.194993 -0.131476
v -0.316803 -0.133005 0.000000
v -0.239665 -0.139087 -0.176415
v -0.239665 -0.139087 0.176415
v -0.237673 -0.133005 -0.191035
v -0.242470 -0.001781 -0.242470
v -0.226415 -0.115930 -0.226415
v -0.191035 -0.133005 -0.237673
v 0.000000 -0.133005 -0.316803
v -0.176415 -0.139087 -0.239665
v -0.131476 -0.194993 -0.220925
v 0.191035 -0.133005 -0.237673
v 0.176415 -0.139087 -0.239665
v 0.131476 -0.194993 -0.220925
v 0.242470 -0.001781 -0.242470
v 0.226415 -0.115930 -0.226415
v 0.000000 -0.244251 -0.242470
v 0.133080 -0.230806 -0.196330
v -0.133080 -0.230806 -0.196330
v 0.132095 -0.244251 -0.187755
v -0.132095 -0.244251 -0.187755
v 0.108833 -0.279544 -0.144570
v -0.108833 -0.279544 -0.144570
v 0.000000 -0.318584 -0.131224
v 0.081688 -0.317110 -0.099594
v -0.081688 -0.317110 -0.099594
v 0.080128 -0.318584 -0.098034
v -0.080128 -0.318584 -0.098034
v 0.000000 -0.341124 -0.017906
v -0.217326 -0.124889 -0.192856
v -0.221976 -0.139087 -0.158726
v -0.239665 -0.139087 -0.176415
v -0.220925 -0.194993 -0.131476
v -0.237673 -0.133005 -0.191035
v -0.211419 -0.115930 -0.211419
v -0.226415 -0.115930 -0.226415
v -0.203236 -0.194993 -0.113787
v -0.196330 -0.230806 -0.133080
v -0.179706 -0.229255 -0.115322
v -0.177733 -0.230806 -0.114483
v -0.187755 -0.244251 -0.132095
v -0.144570 -0.279544 -0.108833
v -0.118097 -0.279544 -0.082360
v -0.099594 -0.317110 -0.081688
v -0.094814 -0.298991 -0.068308
v -0.027885 -0.317110 -0.009979
v -0.098034 -0.318584 -0.080128
v -0.017906 -0.341124 0.000000
v -0.017906 -0.319917 0.000000
v -0.192856 -0.124889 0.217326
v -0.176415 -0.139087 0.239665
v -0.191035 -0.133005 0.237673
v -0.211419 -0.115930 0.211419
v -0.226415 -0.115930 0.226415
v -0.158726 -0.139087 0.221976
v -0.131476 -0.194993 0.220925
v -0.113787 -0.194993 0.203236
v -0.133080 -0.230806 0.196330
v -0.115322 -0.229255 0.179706
v -0.114483 -0.230806 0.177733
v -0.132095 -0.244251 0.187755
v -0.108833 -0.279544 0.144570
v -0.082360 -0.279544 0.118097
v -0.081688 -0.317110 0.099594
v -0.068308 -0.298991 0.094814
v -0.009979 -0.317110 0.027885
v -0.080128 -0.318584 0.098034
v 0.000000 -0.341124 0.017906
v 0.000000 -0.319917 0.017906
v -0.220925 -0.194993 0.131476
v -0.196330 -0.230806 0.133080
v -0.203236 -0.194993 0.113787
v -0.179706 -0.229255 0.115322
v -0.221976 -0.139087 0.158726
v -0.177733 -0.230806 0.114483
v -0.239665 -0.139087 0.176415
v -0.187755 -0.244251 0.132095
v -0.217326 -0.124889 0.192856
v -0.144570 -0.279544 0.108833
v -0.237673 -0.133005 0.191035
v -0.211419 -0.115930 0.211419
v -0.226415 -0.115930 0.226415
v -0.118097 -0.279544 0.082360
v -0.099594 -0.317110 0.081688
v -0.094814 -0.298991 0.068308
v -0.027885 -0.317110 0.009979
v -0.098034 -0.318584 0.080128
v -0.017906 -0.341124 0.000000
v -0.017906 -0.319917 0.000000
v 0.158726 -0.139087 0.221976
v 0.192856 -0.124889 0.217326
v 0.176415 -0.139087 0.239665
v 0.191035 -0.133005 0.237673
v 0.131476 -0.194993 0.220925
v 0.211419 -0.115930 0.211419
v 0.113787 -0.194993 0.203236
v 0.226415 -0.115930 0.226415
v 0.133080 -0.230806 0.196330
v 0.237673 -0.133005 0.191035
v 0.115322 -0.229255 0.179706
v 0.217326 -0.124889 0.192856
v 0.114483 -0.230806 0.177733
v 0.239665 -0.139087 0.176415
v 0.132095 -0.244251 0.187755
v 0.221976 -0.139087 0.158726
v 0.108833 -0.279544 0.144570
v 0.220925 -0.194993 0.131476
v 0.082360 -0.279544 0.118097
v 0.203236 -0.194993 0.113787
v 0.081688 -0.317110 0.099594
v 0.196330 -0.230806 0.133080
v 0.068308 -0.298991 0.094814
v 0.179706 -0.229255 0.115322
v 0.009979 -0.317110 0.027885
v 0.177733 -0.230806 0.114483
v 0.080128 -0.318584 0.098034
v 0.000000 -0.341124 0.017906
v 0.000000 -0.319917 0.017906
v 0.187755 -0.244251 0.132095
v 0.144570 -0.279544 0.108833
v 0.118097 -0.279544 0.082360
v 0.099594 -0.317110 0.081688
v 0.094814 -0.298991 0.068308
v 0.027885 -0.317110 0.009979
v 0.098034 -0.318584 0.080128
v 0.017906 -0.341124 0.000000
v 0.017906 -0.319917 0.000000
v 0.217326 -0.124889 -0.192856
v 0.239665 -0.139087 -0.176415
v 0.221976 -0.139087 -0.158726
v 0.220925 -0.194993 -0.131476
v 0.237673 -0.133005 -0.191035
v 0.203236 -0.194993 -0.113787
v 0.211419 -0.115930 -0.211419
v 0.196330 -0.230806 -0.133080
v 0.226415 -0.115930 -0.226415
v 0.179706 -0.229255 -0.115322
v 0.191035 -0.133005 -0.237673
v 0.177733 -0.230806 -0.114483
v 0.192856 -0.124889 -0.217326
v 0.187755 -0.244251 -0.132095
v 0.176415 -0.139087 -0.239665
v 0.144570 -0.279544 -0.108833
v 0.158726 -0.139087 -0.221976
v 0.118097 -0.279544 -0.082360
v 0.131476 -0.194993 -0.220925
v 0.099594 -0.317110 -0.081688
v 0.113787 -0.194993 -0.203236
v 0.094814 -0.298991 -0.068308
v 0.133080 -0.230806 -0.196330
v 0.027885 -0.317110 -0.009979
v 0.115322 -0.229255 -0.179706
v 0.098034 -0.318584 -0.080128
v 0.017906 -0.341124 0.000000
v 0.017906 -0.319917 0.000000
v 0.114483 -0.230806 -0.177733
v 0.132095 -0.244251 -0.187755
v 0.108833 -0.279544 -0.144570
v 0.082360 -0.279544 -0.118097
v 0.081688 -0.317110 -0.099594
v 0.068308 -0.298991 -0.094814
v 0.009979 -0.317110 -0.027885
v 0.080128 -0.318584 -0.098034
v 0.000000 -0.341124 -0.017906
v 0.000000 -0.319917 -0.017906
v 0.000000 0.225693 -0.227474
v 0.087051 0.295429 -0.087051
v 0.000000 0.295429 -0.123108
v -0.087051 0.295429 -0.087051
v 0.160849 0.225693 -0.160849
v 0.227474 0.225693 -0.000000
v -0.160849 0.225693 -0.160849
v -0.227474 0.225693 -0.000000
v 0.000000 0.121327 -0.297210
v 0.297210 0.121327 -0.000000
v 0.160849 0.225693 0.160849
v 0.210159 0.121327 -0.210159
v -0.297210 0.121327 -0.000000
v -0.160849 0.225693 0.160849
v -0.210159 0.121327 -0.210159
v 0.000000 -0.001781 -0.321697
v 0.321697 -0.001781 0.000000
v -0.210159 0.121327 0.210159
v 0.000000 0.121327 0.297210
v -0.321697 -0.001781 0.000000
v 0.210159 0.121327 0.210159
v 0.000000 -0.001781 0.321697
v -0.227474 -0.001781 0.227474
v -0.217326 -0.124889 0.192856
v -0.211419 -0.115930 0.211419
v -0.192856 -0.124889 0.217326
v -0.297210 -0.124889 0.000000
v -0.221976 -0.139087 0.158726
v -0.203236 -0.194993 0.113787
v 0.000000 -0.124889 0.297210
v -0.158726 -0.139087 0.221976
v -0.113787 -0.194993 0.203236
v 0.192856 -0.124889 0.217326
v 0.158726 -0.139087 0.221976
v 0.113787 -0.194993 0.203236
v 0.227474 -0.001781 0.227474
v 0.211419 -0.115930 0.211419
v 0.217326 -0.124889 0.192856
v 0.000000 -0.229255 0.227474
v 0.115322 -0.229255 0.179706
v -0.115322 -0.229255 0.179706
v 0.114483 -0.230806 0.177733
v -0.114483 -0.230806 0.177733
v 0.082360 -0.279544 0.118097
v -0.082360 -0.279544 0.118097
v 0.000000 -0.298991 0.123108
v 0.068308 -0.298991 0.094814
v -0.068308 -0.298991 0.094814
v 0.009979 -0.317110 0.027885
v -0.009979 -0.317110 0.027885
v 0.000000 -0.319917 0.017906
v 0.000000 -0.124889 -0.297210
v -0.192856 -0.124889 -0.217326
v -0.158726 -0.139087 -0.221976
v -0.113787 -0.194993 -0.203236
v 0.000000 -0.229255 -0.227474
v -0.115322 -0.229255 -0.179706
v -0.114483 -0.230806 -0.177733
v -0.082360 -0.279544 -0.118097
v 0.192856 -0.124889 -0.217326
v 0.158726 -0.139087 -0.221976
v 0.113787 -0.194993 -0.203236
v 0.115322 -0.229255 -0.179706
v 0.114483 -0.230806 -0.177733
v 0.082360 -0.279544 -0.118097
v 0.227474 -0.001781 -0.227474
v 0.211419 -0.115930 -0.211419
v 0.217326 -0.124889 -0.192856
v 0.000000 -0.298991 -0.123108
v 0.068308 -0.298991 -0.094814
v -0.068308 -0.298991 -0.094814
v 0.009979 -0.317110 -0.027885
v -0.009979 -0.317110 -0.027885
v 0.000000 -0.319917 -0.017906
v 0.297210 -0.124889 0.000000
v 0.221976 -0.139087 -0.158726
v 0.221976 -0.139087 0.158726
v 0.203236 -0.194993 -0.113787
v 0.203236 -0.194993 0.113787
v 0.227474 -0.229255 0.000000
v 0.179706 -0.229255 -0.115322
v 0.179706 -0.229255 0.115322
v 0.177733 -0.230806 -0.114483
v 0.177733 -0.230806 0.114483
v 0.118097 -0.279544 -0.082360
v 0.118097 -0.279544 0.082360
v 0.123108 -0.298991 0.000000
v 0.094814 -0.298991 -0.068308
v 0.094814 -0.298991 0.068308
v 0.027885 -0.317110 -0.009979
v 0.027885 -0.317110 0.009979
v 0.017906 -0.319917 0.000000
v -0.227474 -0.229255 0.000000
v -0.177733 -0.230806 0.114483
v -0.118097 -0.279544 0.082360
v -0.179706 -0.229255 0.115322
v -0.203236 -0.194993 -0.113787
v -0.221976 -0.139087 -0.158726
v -0.217326 -0.124889 -0.192856
v -0.179706 -0.229255 -0.115322
v -0.177733 -0.230806 -0.114483
v -0.118097 -0.279544 -0.082360
v -0.227474 -0.001781 -0.227474
v -0.211419 -0.115930 -0.211419
v -0.123108 -0.298991 0.000000
v -0.094814 -0.298991 -0.068308
v -0.094814 -0.298991 0.068308
v -0.027885 -0.317110 -0.009979
v -0.027885 -0.317110 0.009979
v -0.017906 -0.319917 0.000000
v -0.226415 -0.115930 -0.226415
v -0.191035 -0.133005 -0.237673
v -0.176415 -0.139087 -0.239665
v -0.158726 -0.139087 -0.221976
v -0.131476 -0.194993 -0.220925
v -0.113787 -0.194993 -0.203236
v -0.133080 -0.230806 -0.196330
v -0.115322 -0.229255 -0.179706
v -0.114483 -0.230806 -0.177733
v -0.132095 -0.244251 -0.187755
v -0.108833 -0.279544 -0.144570
v -0.082360 -0.279544 -0.118097
v -0.081688 -0.317110 -0.099594
v -0.068308 -0.298991 -0.094814
v -0.009979 -0.317110 -0.027885
v -0.080128 -0.318584 -0.098034
v 0.000000 -0.341124 -0.017906
v 0.000000 -0.319917 -0.017906
v 0.087051 0.295429 0.087051
v 0.000000 0.295429 0.123108
v 0.000000 0.319916 -0.000000
v -0.087051 0.295429 0.087051
v 0.000000 0.225693 0.227474
v 0.123108 0.295429 -0.000000
v -0.123108 0.295429 -0.000000
vn 0.5414 -0.8103 -0.2243
vn 0.4226 -0.9063 0.0005
vn 0.5417 -0.8102 -0.2241
vn 0.4168 -0.8925 -0.1725
vn 0.1950 -0.9808 0.0003
vn 0.4167 -0.8926 0.1724
vn 0.5418 -0.8101 0.2241
vn 0.5414 -0.8103 0.2243
vn 0.7297 -0.6837 0.0006
vn 0.6736 -0.6844 -0.2789
vn 0.6736 -0.6844 0.2789
vn 0.7862 -0.5253 -0.3256
vn 0.7862 -0.5253 0.3256
vn 0.7861 -0.5253 -0.3256
vn 0.7861 -0.5253 0.3256
vn 0.9303 -0.3667 0.0006
vn 0.8985 -0.2331 -0.3719
vn 0.8985 -0.2331 0.3719
vn 1.0000 0.0003 0.0003
vn 0.2985 0.9065 0.2985
vn 0.0003 1.0000 0.0003
vn 0.0005 0.9063 0.4226
vn -0.2985 0.9065 0.2985
vn 0.5162 0.6834 0.5162
vn 0.0006 0.6837 0.7297
vn -0.5162 0.6834 0.5162
vn -0.4226 0.9063 0.0005
vn 0.4226 0.9063 0.0005
vn -0.2985 0.9065 -0.2985
vn 0.2986 0.9065 -0.2986
vn 0.0005 0.9063 -0.4226
vn 0.5162 0.6834 -0.5162
vn 0.7297 0.6838 0.0005
vn -0.5162 0.6834 -0.5162
vn 0.0006 0.6837 -0.7297
vn 0.9303 0.3667 0.0006
vn 0.0003 0.3668 -0.9303
vn -0.7297 0.6838 0.0005
vn -0.9303 0.3667 0.0006
vn -0.6578 0.3668 -0.6578
vn -0.6578 0.3668 0.6578
vn 0.6578 0.3668 -0.6578
vn 0.0003 0.0003 -1.0000
vn -1.0000 0.0003 0.0003
vn 0.0006 0.3667 0.9303
vn 0.6578 0.3668 0.6578
vn 0.0003 0.0003 1.0000
vn 0.7071 0.0004 0.7071
vn -0.7071 0.0004 0.7071
vn 0.3721 -0.2333 0.8984
vn 0.6935 -0.1951 0.6935
vn -0.3721 -0.2333 0.8984
vn -0.6935 -0.1951 0.6935
vn -0.8985 -0.2331 0.3719
vn 0.0007 -0.3667 0.9303
vn -0.3256 -0.5253 0.7862
vn 0.3256 -0.5253 0.7862
vn -0.3256 -0.5253 0.7861
vn 0.3256 -0.5253 0.7861
vn 0.0005 -0.6838 0.7297
vn -0.2789 -0.6844 0.6736
vn 0.2790 -0.6844 0.6737
vn -0.2243 -0.8103 0.5414
vn 0.2243 -0.8103 0.5414
vn 0.0006 -0.9063 0.4226
vn -0.1725 -0.8925 0.4168
vn 0.1724 -0.8926 0.4166
vn -0.0000 -0.9808 0.1951
vn -0.7297 -0.6837 0.0006
vn -0.5414 -0.8103 0.2243
vn -0.6736 -0.6844 0.2789
vn -0.7862 -0.5253 0.3256
vn -0.7861 -0.5253 0.3256
vn -0.4226 -0.9063 0.0005
vn -0.5417 -0.8102 0.2241
vn -0.4166 -0.8926 0.1724
vn -0.1950 -0.9808 0.0003
vn -0.4168 -0.8925 -0.1725
vn -0.5418 -0.8101 -0.2241
vn -0.5418 -0.8101 -0.2240
vn -0.6737 -0.6844 -0.2790
vn -0.7862 -0.5253 -0.3256
vn -0.7861 -0.5252 -0.3259
vn -0.9303 -0.3667 0.0006
vn -0.8986 -0.2330 -0.3718
vn -0.7071 0.0003 -0.7071
vn -0.6935 -0.1951 -0.6935
vn -0.3721 -0.2333 -0.8984
vn 0.0007 -0.3667 -0.9303
vn -0.3256 -0.5253 -0.7862
vn -0.3256 -0.5253 -0.7861
vn 0.3721 -0.2333 -0.8984
vn 0.3256 -0.5253 -0.7862
vn 0.3256 -0.5253 -0.7861
vn 0.7071 0.0003 -0.7071
vn 0.6935 -0.1951 -0.6935
vn 0.0007 -0.6837 -0.7297
vn 0.2789 -0.6844 -0.6736
vn -0.2789 -0.6844 -0.6736
vn 0.2243 -0.8103 -0.5414
vn -0.2243 -0.8103 -0.5414
vn 0.0006 -0.9063 -0.4226
vn 0.1724 -0.8926 -0.4166
vn -0.1724 -0.8926 -0.4166
vn -0.0000 -0.9808 -0.1951
vn 0.3251 -0.8880 -0.3251
vn 0.6031 -0.5221 -0.6031
vn 0.4558 -0.7645 -0.4558
vn 0.7063 -0.0485 -0.7063
vn 0.6886 0.2275 -0.6886
vn 0.6393 0.4273 -0.6393
vn 0.6279 0.4597 -0.6279
vn 0.6508 0.3911 -0.6508
vn 0.6567 0.3707 -0.6567
vn 0.6598 0.3597 -0.6598
vn 0.6676 0.3296 -0.6676
vn 0.6828 0.2597 -0.6828
vn 0.6704 0.3182 -0.6704
vn 0.7069 0.0220 -0.7069
vn 0.7071 0.0005 -0.7071
vn -0.3251 -0.8880 -0.3251
vn -0.4559 -0.7644 -0.4559
vn -0.6031 -0.5221 -0.6031
vn -0.7063 -0.0485 -0.7063
vn -0.6886 0.2275 -0.6886
vn -0.6393 0.4273 -0.6393
vn -0.6279 0.4598 -0.6279
vn -0.6508 0.3911 -0.6508
vn -0.6569 0.3703 -0.6568
vn -0.6597 0.3600 -0.6597
vn -0.6676 0.3296 -0.6676
vn -0.6829 0.2592 -0.6829
vn -0.6704 0.3182 -0.6704
vn -0.7069 0.0220 -0.7069
vn -0.7071 0.0005 -0.7071
vn 0.7063 -0.0485 0.7063
vn 0.6393 0.4273 0.6393
vn 0.6886 0.2275 0.6886
vn 0.6279 0.4597 0.6279
vn 0.6031 -0.5221 0.6031
vn 0.6508 0.3911 0.6508
vn 0.4559 -0.7644 0.4559
vn 0.6567 0.3707 0.6567
vn 0.3251 -0.8880 0.3251
vn 0.6598 0.3597 0.6598
vn 0.6676 0.3296 0.6676
vn 0.6828 0.2597 0.6828
vn 0.6704 0.3182 0.6704
vn 0.7069 0.0220 0.7069
vn 0.7071 0.0005 0.7071
vn 0.7071 0.0003 0.7071
vn 0.4559 -0.7644 -0.4559
vn 0.0005 -1.0000 0.0005
vn -0.3251 -0.8880 0.3251
vn 0.6279 0.4598 -0.6279
vn -0.4559 -0.7644 0.4559
vn -0.6031 -0.5221 0.6031
vn -0.7063 -0.0485 0.7063
vn -0.6886 0.2275 0.6886
vn 0.6829 0.2596 -0.6829
vn -0.6393 0.4273 0.6393
vn -0.6279 0.4597 0.6279
vn -0.6508 0.3911 0.6508
vn -0.6567 0.3707 0.6567
vn -0.6598 0.3597 0.6598
vn -0.6676 0.3296 0.6676
vn -0.6829 0.2592 0.6829
vn -0.6704 0.3182 0.6704
vn -0.7069 0.0220 0.7069
vn -0.7071 0.0003 0.7071
vn -0.6886 0.2272 -0.6886
vn -0.6279 0.4597 -0.6279
vn -0.6567 0.3707 -0.6567
vn 0.4558 -0.7645 0.4558
vn -0.6598 0.3597 -0.6598
vn -0.6828 0.2597 -0.6828
vn -0.7069 0.0218 -0.7069
vn 0.6279 0.4598 0.6279
vn 0.6569 0.3703 0.6568
vn 0.6597 0.3600 0.6597
vn 0.6829 0.2592 0.6829
vn -0.0000 -0.6839 0.7296
vn -0.2988 -0.9063 0.2988
vn 0.2988 -0.9063 0.2988
vn -0.5163 -0.6833 0.5163
vn -0.7296 -0.6839 -0.0000
vn 0.5163 -0.6833 0.5163
vn 0.7297 -0.6838 0.0005
vn 0.0003 -0.3668 0.9303
vn -0.9303 -0.3668 0.0005
vn -0.5163 -0.6833 -0.5163
vn -0.6578 -0.3668 0.6578
vn 0.9303 -0.3668 0.0005
vn 0.5163 -0.6833 -0.5163
vn 0.6578 -0.3668 0.6578
vn 0.6578 -0.3668 -0.6578
vn 0.0003 -0.3668 -0.9303
vn -0.6578 -0.3668 -0.6578
vn 0.8984 0.2333 -0.3721
vn 0.6935 0.1951 -0.6935
vn 0.3721 0.2333 -0.8984
vn 0.9303 0.3667 0.0007
vn 0.7861 0.5253 -0.3256
vn 0.0007 0.3667 -0.9303
vn 0.3256 0.5253 -0.7861
vn -0.3719 0.2331 -0.8985
vn -0.3256 0.5253 -0.7861
vn -0.6935 0.1951 -0.6935
vn -0.8984 0.2333 -0.3721
vn 0.0005 0.6838 -0.7297
vn -0.2761 0.6933 -0.6657
vn 0.2760 0.6932 -0.6658
vn -0.2243 0.8102 -0.5415
vn 0.2243 0.8102 -0.5415
vn -0.2243 0.8103 -0.5414
vn 0.2243 0.8103 -0.5414
vn -0.1666 0.9003 -0.4022
vn 0.1666 0.9005 -0.4018
vn -0.0805 0.9776 -0.1945
vn 0.0805 0.9776 -0.1945
vn -0.0000 0.9808 -0.1951
vn 0.0007 0.3667 0.9303
vn 0.0474 -0.4500 0.8918
vn 0.3256 0.5253 0.7861
vn 0.0005 0.6838 0.7297
vn 0.2759 0.6930 0.6660
vn 0.2243 0.8102 0.5415
vn 0.2243 0.8103 0.5414
vn -0.3721 0.2333 0.8984
vn -0.3256 0.5253 0.7861
vn -0.2760 0.6932 0.6658
vn -0.2243 0.8102 0.5415
vn -0.2243 0.8103 0.5414
vn -0.7071 0.0005 0.7071
vn -0.6935 0.1951 0.6935
vn -0.8984 0.2333 0.3721
vn -0.1666 0.9005 0.4018
vn 0.1666 0.9005 0.4018
vn -0.0805 0.9776 0.1945
vn 0.0805 0.9776 0.1945
vn -0.0000 0.9808 0.1951
vn -0.9303 0.3667 0.0007
vn -0.7861 0.5253 0.3256
vn -0.7861 0.5253 -0.3256
vn -0.7297 0.6837 0.0006
vn -0.6658 0.6932 0.2760
vn -0.6660 0.6930 -0.2759
vn -0.5415 0.8102 0.2243
vn -0.5415 0.8102 -0.2243
vn -0.5414 0.8103 0.2243
vn -0.5414 0.8103 -0.2243
vn -0.4022 0.9003 0.1666
vn -0.4022 0.9003 -0.1666
vn -0.1949 0.9775 0.0806
vn -0.1948 0.9775 -0.0806
vn -0.1950 0.9808 0.0003
vn 0.5415 0.8102 -0.2243
vn 0.5414 0.8103 -0.2243
vn 0.6658 0.6932 -0.2760
vn 0.7861 0.5252 0.3259
vn 0.7861 0.5253 0.3256
vn 0.8986 0.2330 0.3717
vn 0.6658 0.6932 0.2760
vn 0.5415 0.8102 0.2243
vn 0.5414 0.8103 0.2243
vn 0.5029 -0.2537 0.8263
vn 0.4022 0.9003 0.1666
vn 0.4022 0.9003 -0.1666
vn 0.1948 0.9775 0.0806
vn 0.1948 0.9775 -0.0806
vn 0.1950 0.9808 0.0003
vn -0.6279 0.4598 0.6279
vn -0.6828 0.2597 0.6828
vn -0.2988 -0.9063 -0.2988
vn 0.0004 -1.0000 0.0004
vn 0.2988 -0.9063 -0.2988
vn 0.0003 -0.6838 -0.7297
vn -0.4226 -0.9063 0.0007
vn 0.4226 -0.9063 0.0007
vt 0.000000 0.000000
s 1
f 202/2/171 203/2/172 204/2/173
f 204/2/173 203/2/172 205/2/174
f 205/2/174 203/2/172 206/2/175
f 203/2/172 207/2/176 206/2/175
f 203/2/172 208/2/177 207/2/176
f 208/2/177 203/2/172 209/2/178
f 203/2/172 202/2/171 210/2/179
f 210/2/179 209/2/178 203/2/172
f 211/2/180 210/2/179 202/2/171
f 210/2/179 212/2/181 209/2/178
f 213/2/182 210/2/179 211/2/180
f 210/2/179 214/2/183 212/2/181
f 210/2/179 213/2/182 215/2/184
f 210/2/179 216/2/185 214/2/183
f 215/2/184 217/2/186 210/2/179
f 216/2/185 210/2/179 217/2/186
f 217/2/186 215/2/184 218/2/182
f 217/2/186 219/2/183 216/2/185
f 220/2/187 217/2/186 218/2/182
f 217/2/186 221/2/188 219/2/183
f 220/2/187 222/2/189 217/2/186
f 222/2/189 221/2/188 217/2/186
f 223/2/190 224/2/191 225/2/192
f 225/2/192 224/2/191 226/2/193
f 225/2/192 227/2/194 223/2/190
f 227/2/194 225/2/192 228/2/195
f 229/2/196 225/2/192 226/2/193
f 225/2/192 229/2/196 228/2/195
f 224/2/191 230/2/197 226/2/193
f 229/2/196 226/2/193 230/2/197
f 231/2/198 224/2/191 223/2/190
f 227/2/194 231/2/198 223/2/190
f 224/2/191 232/2/199 230/2/197
f 231/2/198 233/2/200 224/2/191
f 234/2/201 232/2/199 224/2/191
f 233/2/200 234/2/201 224/2/191
f 231/2/198 235/2/202 233/2/200
f 235/2/202 234/2/201 233/2/200
f 231/2/198 227/2/194 236/2/203
f 235/2/202 231/2/198 236/2/203
f 237/2/204 230/2/197 232/2/199
f 234/2/201 237/2/204 232/2/199
f 234/2/201 235/2/202 238/2/205
f 238/2/205 237/2/204 234/2/201
f 239/2/206 235/2/202 236/2/203
f 236/2/203 227/2/194 239/2/206
f 235/2/202 240/2/207 238/2/205
f 240/2/207 237/2/204 238/2/205
f 230/2/197 237/2/204 241/2/208
f 241/2/208 229/2/196 230/2/197
f 237/2/204 242/2/209 241/2/208
f 242/2/209 229/2/196 241/2/208
f 237/2/204 243/2/210 242/2/209
f 237/2/204 240/2/207 243/2/210
f 229/2/196 242/2/209 244/2/211
f 240/2/207 235/2/202 245/2/212
f 235/2/202 239/2/206 245/2/212
f 246/2/213 243/2/210 240/2/207
f 245/2/212 246/2/213 240/2/207
f 243/2/210 247/2/214 242/2/209
f 247/2/214 244/2/211 242/2/209
f 244/2/211 248/2/215 229/2/196
f 248/2/215 228/2/195 229/2/196
f 248/2/215 227/2/194 228/2/195
f 227/2/194 248/2/215 249/2/216
f 249/2/216 239/2/206 227/2/194
f 250/2/217 248/2/215 244/2/211
f 250/2/217 249/2/216 248/2/215
f 249/2/216 222/2/189 239/2/206
f 222/2/189 245/2/212 239/2/206
f 249/2/216 250/2/217 251/2/218
f 222/2/189 249/2/216 251/2/218
f 252/2/219 250/2/217 244/2/211
f 244/2/211 247/2/214 252/2/219
f 253/2/220 251/2/218 250/2/217
f 251/2/218 253/2/220 254/2/221
f 221/2/188 251/2/218 254/2/221
f 222/2/189 251/2/218 221/2/188
f 255/2/222 250/2/217 252/2/219
f 255/2/222 252/2/219 256/2/223
f 252/2/219 257/2/224 256/2/223
f 257/2/224 252/2/219 247/2/214
f 250/2/217 255/2/222 258/2/225
f 253/2/220 250/2/217 258/2/225
f 258/2/225 255/2/222 259/2/226
f 253/2/220 258/2/225 260/2/227
f 258/2/225 259/2/226 261/2/228
f 258/2/225 262/2/229 260/2/227
f 261/2/228 263/2/230 258/2/225
f 263/2/230 262/2/229 258/2/225
f 263/2/230 261/2/228 264/2/226
f 262/2/229 263/2/230 265/2/227
f 263/2/230 264/2/226 266/2/231
f 265/2/227 263/2/230 267/2/232
f 268/2/233 263/2/230 266/2/231
f 269/2/234 267/2/232 263/2/230
f 263/2/230 268/2/233 270/2/235
f 270/2/235 269/2/234 263/2/230
f 270/2/235 268/2/233 271/2/233
f 269/2/234 270/2/235 272/2/234
f 270/2/235 271/2/233 273/2/236
f 272/2/234 270/2/235 274/2/237
f 275/2/238 270/2/235 273/2/236
f 274/2/237 270/2/235 275/2/238
f 276/2/239 277/2/240 278/2/241
f 279/2/242 276/2/239 278/2/241
f 280/2/243 276/2/239 279/2/242
f 281/2/244 277/2/240 276/2/239
f 277/2/240 281/2/244 282/2/245
f 282/2/245 281/2/244 283/2/246
f 284/2/247 283/2/246 281/2/244
f 284/2/247 281/2/244 285/2/248
f 281/2/244 286/2/249 285/2/248
f 286/2/249 281/2/244 287/2/250
f 287/2/250 281/2/244 276/2/239
f 287/2/250 276/2/239 288/2/251
f 276/2/239 289/2/252 288/2/251
f 289/2/252 276/2/239 290/2/253
f 290/2/253 276/2/239 291/2/254
f 276/2/239 280/2/243 291/2/254
f 290/2/253 291/2/254 292/2/252
f 293/2/242 291/2/254 280/2/243
f 257/2/224 291/2/254 293/2/242
f 291/2/254 294/2/255 292/2/252
f 257/2/224 247/2/214 291/2/254
f 247/2/214 294/2/255 291/2/254
f 295/2/256 294/2/255 247/2/214
f 294/2/255 295/2/256 296/2/257
f 295/2/256 247/2/214 243/2/210
f 295/2/256 297/2/258 296/2/257
f 243/2/210 246/2/213 295/2/256
f 246/2/213 297/2/258 295/2/256
f 297/2/258 246/2/213 298/2/259
f 297/2/258 298/2/259 299/2/260
f 299/2/260 298/2/259 300/2/261
f 246/2/213 301/2/262 298/2/259
f 298/2/259 301/2/262 302/2/263
f 303/2/264 298/2/259 302/2/263
f 304/2/265 301/2/262 246/2/213
f 301/2/262 304/2/265 305/2/266
f 246/2/213 245/2/212 304/2/265
f 304/2/265 220/2/187 305/2/266
f 245/2/212 222/2/189 304/2/265
f 222/2/189 220/2/187 304/2/265
f 298/2/259 303/2/264 306/2/267
f 306/2/267 300/2/261 298/2/259
f 307/2/263 306/2/267 303/2/264
f 300/2/261 306/2/267 308/2/260
f 306/2/267 307/2/263 309/2/268
f 308/2/260 306/2/267 310/2/269
f 311/2/270 306/2/267 309/2/268
f 310/2/269 306/2/267 312/2/271
f 306/2/267 311/2/270 313/2/272
f 313/2/272 312/2/271 306/2/267
f 313/2/272 311/2/270 314/2/270
f 312/2/271 313/2/272 315/2/271
f 313/2/272 314/2/270 316/2/273
f 315/2/271 313/2/272 317/2/274
f 313/2/272 316/2/273 318/2/275
f 313/2/272 318/2/275 317/2/274
f 319/2/276 320/2/277 321/2/278
f 320/2/277 322/2/279 321/2/278
f 319/2/276 321/2/278 323/2/276
f 323/2/276 324/2/276 319/2/276
f 324/2/276 323/2/276 325/2/276
f 322/2/279 320/2/277 326/2/280
f 326/2/280 327/2/281 322/2/279
f 327/2/281 326/2/280 328/2/282
f 329/2/283 327/2/281 328/2/282
f 330/2/284 327/2/281 329/2/283
f 329/2/283 331/2/285 330/2/284
f 331/2/285 329/2/283 332/2/286
f 332/2/286 333/2/287 331/2/285
f 333/2/287 332/2/286 334/2/288
f 334/2/288 335/2/289 333/2/287
f 335/2/289 336/2/290 333/2/287
f 336/2/290 335/2/289 337/2/290
f 337/2/290 335/2/289 338/2/265
f 339/2/291 340/2/292 341/2/291
f 341/2/291 342/2/291 339/2/291
f 342/2/291 341/2/291 343/2/291
f 340/2/292 339/2/291 344/2/293
f 344/2/293 345/2/294 340/2/292
f 345/2/294 344/2/293 346/2/295
f 346/2/295 347/2/296 345/2/294
f 347/2/296 346/2/295 348/2/297
f 349/2/298 347/2/296 348/2/297
f 349/2/298 350/2/299 347/2/296
f 349/2/298 351/2/300 350/2/299
f 351/2/300 349/2/298 352/2/301
f 352/2/301 353/2/302 351/2/300
f 353/2/302 352/2/301 354/2/303
f 354/2/303 355/2/304 353/2/302
f 355/2/304 356/2/256 353/2/302
f 356/2/256 355/2/304 357/2/305
f 358/2/305 357/2/305 355/2/304
f 359/2/306 360/2/307 361/2/308
f 361/2/308 360/2/307 362/2/309
f 359/2/306 361/2/308 363/2/310
f 360/2/307 364/2/311 362/2/309
f 365/2/312 359/2/306 363/2/310
f 366/2/313 364/2/311 360/2/307
f 367/2/314 365/2/312 363/2/310
f 368/2/315 364/2/311 366/2/313
f 365/2/312 367/2/314 369/2/314
f 370/2/314 369/2/314 367/2/314
f 369/2/314 370/2/314 371/2/314
f 364/2/311 368/2/315 372/2/316
f 368/2/315 373/2/317 372/2/316
f 372/2/316 373/2/317 374/2/318
f 373/2/317 375/2/319 374/2/318
f 375/2/319 373/2/317 376/2/320
f 376/2/320 377/2/320 375/2/319
f 375/2/319 377/2/320 378/2/321
f 379/2/277 380/2/276 381/2/322
f 380/2/276 382/2/276 381/2/322
f 381/2/322 383/2/279 379/2/277
f 384/2/323 382/2/276 380/2/276
f 379/2/277 383/2/279 385/2/280
f 382/2/276 384/2/323 386/2/323
f 387/2/281 385/2/280 383/2/279
f 384/2/323 388/2/324 386/2/323
f 385/2/280 387/2/281 389/2/325
f 388/2/324 384/2/323 390/2/324
f 387/2/281 391/2/283 389/2/325
f 390/2/324 392/2/326 388/2/324
f 393/2/284 391/2/283 387/2/281
f 392/2/326 390/2/324 394/2/327
f 391/2/283 393/2/284 395/2/285
f 394/2/327 396/2/328 392/2/326
f 397/2/286 391/2/283 395/2/285
f 396/2/328 394/2/327 398/2/329
f 399/2/330 397/2/286 395/2/285
f 398/2/329 400/2/331 396/2/328
f 397/2/286 399/2/330 401/2/288
f 400/2/331 398/2/329 402/2/332
f 403/2/289 401/2/288 399/2/330
f 404/2/333 400/2/331 402/2/332
f 403/2/289 399/2/330 405/2/265
f 405/2/265 406/2/290 403/2/289
f 406/2/290 407/2/265 403/2/289
f 404/2/333 408/2/334 400/2/331
f 409/2/335 408/2/334 404/2/333
f 404/2/333 410/2/336 409/2/335
f 410/2/336 411/2/337 409/2/335
f 411/2/337 410/2/336 412/2/338
f 413/2/339 411/2/337 412/2/338
f 411/2/337 413/2/339 414/2/340
f 415/2/340 414/2/340 413/2/339
f 415/2/340 413/2/339 416/2/340
f 417/2/291 418/2/292 419/2/293
f 420/2/294 419/2/293 418/2/292
f 418/2/292 417/2/291 421/2/291
f 419/2/293 420/2/294 422/2/341
f 423/2/323 421/2/291 417/2/291
f 420/2/294 424/2/296 422/2/341
f 421/2/291 423/2/323 425/2/323
f 426/2/342 422/2/341 424/2/296
f 423/2/323 427/2/314 425/2/323
f 424/2/296 428/2/298 426/2/342
f 427/2/314 423/2/323 429/2/314
f 430/2/343 428/2/298 424/2/296
f 429/2/314 431/2/344 427/2/314
f 432/2/345 428/2/298 430/2/343
f 429/2/314 433/2/310 431/2/344
f 428/2/298 432/2/345 434/2/301
f 433/2/310 435/2/306 431/2/344
f 436/2/346 434/2/301 432/2/345
f 435/2/306 433/2/310 437/2/308
f 434/2/301 436/2/346 438/2/303
f 437/2/308 439/2/307 435/2/306
f 436/2/346 440/2/347 438/2/303
f 439/2/307 437/2/308 441/2/348
f 440/2/347 436/2/346 442/2/305
f 443/2/256 440/2/347 442/2/305
f 440/2/347 443/2/256 444/2/256
f 445/2/311 439/2/307 441/2/348
f 445/2/311 446/2/349 439/2/307
f 445/2/311 447/2/350 446/2/349
f 447/2/350 445/2/311 448/2/316
f 448/2/316 449/2/351 447/2/350
f 449/2/351 448/2/316 450/2/318
f 451/2/319 449/2/351 450/2/318
f 451/2/319 452/2/321 449/2/351
f 452/2/321 451/2/319 453/2/320
f 453/2/320 451/2/319 454/2/321
f 455/2/352 456/2/353 457/2/235
f 458/2/354 455/2/352 457/2/235
f 455/2/352 459/2/355 456/2/353
f 460/2/356 456/2/353 459/2/355
f 455/2/352 458/2/354 461/2/357
f 458/2/354 462/2/358 461/2/357
f 463/2/359 459/2/355 455/2/352
f 461/2/357 463/2/359 455/2/352
f 459/2/355 464/2/360 460/2/356
f 464/2/360 465/2/361 460/2/356
f 459/2/355 463/2/359 466/2/362
f 466/2/362 464/2/360 459/2/355
f 467/2/363 461/2/357 462/2/358
f 468/2/364 467/2/363 462/2/358
f 463/2/359 461/2/357 469/2/365
f 461/2/357 467/2/363 469/2/365
f 470/2/217 466/2/362 463/2/359
f 469/2/365 470/2/217 463/2/359
f 466/2/362 471/2/214 464/2/360
f 467/2/363 468/2/364 472/2/366
f 468/2/364 473/2/367 472/2/366
f 474/2/189 469/2/365 467/2/363
f 472/2/366 474/2/189 467/2/363
f 465/2/361 464/2/360 475/2/368
f 473/2/367 465/2/361 475/2/368
f 471/2/214 475/2/368 464/2/360
f 476/2/213 472/2/366 473/2/367
f 475/2/368 476/2/213 473/2/367
f 474/2/189 472/2/366 477/2/290
f 472/2/366 476/2/213 477/2/290
f 477/2/290 478/2/369 474/2/189
f 478/2/369 477/2/290 479/2/370
f 477/2/290 480/2/371 479/2/370
f 476/2/213 480/2/371 477/2/290
f 481/2/372 474/2/189 478/2/369
f 481/2/372 478/2/369 482/2/373
f 483/2/373 481/2/372 482/2/373
f 480/2/371 476/2/213 484/2/374
f 480/2/371 484/2/374 485/2/375
f 485/2/375 484/2/374 486/2/375
f 476/2/213 487/2/376 484/2/374
f 484/2/374 487/2/376 488/2/377
f 489/2/377 484/2/374 488/2/377
f 476/2/213 490/2/305 487/2/376
f 487/2/376 490/2/305 491/2/378
f 476/2/213 475/2/368 490/2/305
f 491/2/378 490/2/305 492/2/379
f 475/2/368 471/2/214 490/2/305
f 471/2/214 492/2/379 490/2/305
f 484/2/374 489/2/377 493/2/380
f 493/2/380 486/2/375 484/2/374
f 494/2/381 493/2/380 489/2/377
f 486/2/375 493/2/380 495/2/382
f 496/2/383 493/2/380 494/2/381
f 495/2/382 493/2/380 497/2/384
f 498/2/385 493/2/380 496/2/383
f 499/2/386 497/2/384 493/2/380
f 493/2/380 498/2/385 500/2/201
f 500/2/201 499/2/386 493/2/380
f 500/2/201 498/2/385 501/2/387
f 499/2/386 500/2/201 502/2/388
f 501/2/387 503/2/389 500/2/201
f 500/2/201 504/2/390 502/2/388
f 505/2/391 500/2/201 503/2/389
f 504/2/390 500/2/201 505/2/391
f 506/2/392 507/2/393 508/2/394
f 509/2/394 506/2/392 508/2/394
f 470/2/217 507/2/393 506/2/392
f 506/2/392 509/2/394 510/2/395
f 510/2/395 509/2/394 511/2/396
f 510/2/395 511/2/396 512/2/397
f 513/2/398 510/2/395 512/2/397
f 514/2/399 470/2/217 506/2/392
f 514/2/399 506/2/392 515/2/400
f 515/2/400 506/2/392 516/2/400
f 510/2/395 516/2/400 506/2/392
f 516/2/400 510/2/395 517/2/401
f 517/2/401 510/2/395 518/2/402
f 510/2/395 519/2/403 518/2/402
f 514/2/399 520/2/404 470/2/217
f 466/2/362 470/2/217 520/2/404
f 520/2/404 514/2/399 521/2/405
f 520/2/404 471/2/214 466/2/362
f 522/2/406 520/2/404 521/2/405
f 522/2/406 471/2/214 520/2/404
f 519/2/403 510/2/395 523/2/192
f 510/2/395 513/2/398 523/2/192
f 523/2/192 524/2/407 519/2/403
f 525/2/408 523/2/192 513/2/398
f 523/2/192 526/2/409 524/2/407
f 527/2/410 523/2/192 525/2/408
f 526/2/409 523/2/192 528/2/411
f 528/2/411 523/2/192 527/2/410
f 471/2/214 522/2/406 529/2/412
f 529/2/412 522/2/406 530/2/413
f 471/2/214 529/2/412 492/2/379
f 492/2/379 529/2/412 531/2/414
f 529/2/412 530/2/413 532/2/413
f 529/2/412 533/2/414 531/2/414
f 532/2/413 534/2/415 529/2/412
f 529/2/412 534/2/415 533/2/414
f 534/2/415 532/2/413 535/2/416
f 533/2/414 534/2/415 536/2/417
f 537/2/418 534/2/415 535/2/416
f 534/2/415 538/2/419 536/2/417
f 534/2/415 537/2/418 539/2/420
f 534/2/415 540/2/421 538/2/419
f 539/2/420 541/2/197 534/2/415
f 534/2/415 541/2/197 540/2/421
f 541/2/197 539/2/420 542/2/422
f 540/2/421 541/2/197 543/2/423
f 541/2/197 542/2/422 544/2/424
f 541/2/197 545/2/425 543/2/423
f 541/2/197 544/2/424 546/2/426
f 545/2/425 541/2/197 546/2/426
f 547/2/203 548/2/427 549/2/428
f 548/2/427 547/2/203 550/2/429
f 547/2/203 483/2/373 550/2/429
f 481/2/372 483/2/373 547/2/203
f 551/2/430 481/2/372 547/2/203
f 552/2/431 481/2/372 551/2/430
f 553/2/432 481/2/372 552/2/431
f 547/2/203 554/2/433 551/2/430
f 553/2/432 474/2/189 481/2/372
f 554/2/433 547/2/203 555/2/434
f 555/2/434 547/2/203 556/2/435
f 474/2/189 553/2/432 557/2/320
f 469/2/365 474/2/189 557/2/320
f 557/2/320 553/2/432 558/2/436
f 470/2/217 469/2/365 557/2/320
f 556/2/435 547/2/203 559/2/198
f 547/2/203 549/2/428 559/2/198
f 559/2/198 560/2/437 556/2/435
f 549/2/428 561/2/438 559/2/198
f 559/2/198 562/2/439 560/2/437
f 561/2/438 563/2/440 559/2/198
f 562/2/439 559/2/198 564/2/441
f 564/2/441 559/2/198 563/2/440
f 507/2/393 557/2/320 558/2/436
f 557/2/320 507/2/393 470/2/217
f 565/2/324 566/2/324 558/2/436
f 558/2/436 566/2/324 507/2/393
f 567/2/326 507/2/393 566/2/324
f 507/2/393 567/2/326 568/2/327
f 569/2/328 568/2/327 567/2/326
f 568/2/327 569/2/328 570/2/329
f 570/2/329 569/2/328 571/2/331
f 570/2/329 571/2/331 572/2/442
f 571/2/331 573/2/333 572/2/442
f 574/2/334 573/2/333 571/2/331
f 574/2/334 575/2/335 573/2/333
f 576/2/336 573/2/333 575/2/335
f 576/2/336 575/2/335 577/2/443
f 576/2/336 577/2/443 578/2/338
f 577/2/443 579/2/339 578/2/338
f 579/2/339 577/2/443 580/2/340
f 580/2/340 581/2/404 579/2/339
f 579/2/339 581/2/404 582/2/404
f 583/2/444 584/2/272 585/2/445
f 584/2/272 586/2/446 585/2/445
f 583/2/444 587/2/447 584/2/272
f 587/2/447 586/2/446 584/2/272
f 588/2/448 583/2/444 585/2/445
f 586/2/446 587/2/447 468/2/364
f 460/2/356 583/2/444 588/2/448
f 587/2/447 583/2/444 465/2/361
f 465/2/361 583/2/444 460/2/356
f 465/2/361 473/2/367 587/2/447
f 473/2/367 468/2/364 587/2/447
f 456/2/353 460/2/356 588/2/448
f 588/2/448 585/2/445 456/2/353
f 585/2/445 586/2/446 589/2/449
f 456/2/353 585/2/445 457/2/235
f 586/2/446 462/2/358 589/2/449
f 462/2/358 586/2/446 468/2/364
f 585/2/445 589/2/449 458/2/354
f 462/2/358 458/2/354 589/2/449
f 457/2/235 585/2/445 458/2/354
