# Blender 5.2.0 LTS
# www.blender.org
mtllib left.mtl
o masunya
v -1.942202 0.022457 -0.012046
v -1.919469 0.201834 0.169395
v -1.765831 0.217769 -0.184699
v -1.743098 0.397146 -0.003258
v -1.364286 -0.018410 0.241993
v -1.696055 0.105299 0.223653
v -2.005013 0.192095 0.142267
v -2.052405 0.152313 0.093349
v -2.018500 0.085671 0.034618
v -1.871413 0.205951 -0.165647
v -1.958752 0.162027 -0.122496
v -1.976054 0.090074 -0.063212
v -1.943339 0.302507 0.155167
v -1.924372 0.387603 0.109178
v -1.838698 0.418386 0.052732
v -1.802916 0.415895 -0.055570
v -1.837384 0.390425 -0.117138
v -1.816403 0.309471 -0.163219
v -1.158301 0.145999 -0.174624
v -1.518801 0.179480 -0.179329
v -1.611638 -0.094442 0.017899
v -1.265389 -0.193610 -0.015448
v -1.603218 0.379220 0.026425
v -1.257197 0.321198 0.075327
v -1.308919 -0.200599 0.066071
v -1.347016 -0.167528 0.143970
v -1.362986 -0.104816 0.206815
v -1.665728 -0.082875 0.089305
v -1.713012 -0.036793 0.153799
v -1.712311 0.027347 0.202843
v -2.112618 0.226905 -0.008826
v -2.157733 0.309990 0.049425
v -2.098243 0.340327 0.105903
v -2.106550 0.315299 -0.068538
v -2.152799 0.407466 -0.010326
v -2.091403 0.434814 0.052353
v -2.001096 0.350403 -0.117996
v -2.040220 0.440123 -0.065611
v -1.986722 0.463825 -0.003268
v -1.658049 0.349145 0.097081
v -1.707267 0.286369 0.159616
v -1.709277 0.197991 0.205914
v -1.301428 0.270090 0.149067
v -1.341380 0.186676 0.206426
v -1.359975 0.084424 0.240183
v -1.601870 -0.056149 -0.055876
v -1.592078 0.013817 -0.121140
v -1.550641 0.095005 -0.164710
v -1.233200 -0.140163 -0.089828
v -1.205292 -0.054410 -0.147827
v -1.174655 0.045503 -0.173455
v -1.547608 0.265649 -0.161638
v -1.586334 0.336979 -0.115324
v -1.594191 0.375869 -0.048100
v -1.171643 0.234744 -0.147576
v -1.199656 0.299793 -0.085371
v -1.225710 0.330526 -0.006832
v 2.168283 -0.309578 0.117151
v 2.133838 -0.251162 0.180551
v 2.107255 -0.166581 0.216007
v 2.090638 0.129264 0.122223
v 2.118529 0.188220 0.047711
v 2.271093 -0.260209 -0.118965
v 2.227892 0.120216 -0.177294
v 2.213442 -0.334549 0.038420
v 2.252853 -0.319098 -0.043953
v 2.075880 0.039411 0.180208
v 2.084473 -0.064721 0.214238
v 2.276196 -0.170425 -0.177450
v 2.277256 -0.066224 -0.210980
v 2.264127 0.035703 -0.212249
v 2.183793 0.178565 -0.114394
v 2.148288 0.203604 -0.035162
v -0.834905 -0.227156 0.189881
v -0.868483 -0.169011 0.253003
v -0.894238 -0.084822 0.288320
v -0.911480 0.209587 0.194965
v -0.883019 0.268261 0.120839
v -0.731889 -0.178003 -0.045077
v -0.774887 0.200595 -0.103115
v -0.789267 -0.251992 0.111565
v -0.749346 -0.236600 0.029619
v -0.926868 0.120172 0.252637
v -0.917615 0.016548 0.286531
v -0.727505 -0.088665 -0.103319
v -0.725756 0.015035 -0.136642
v -0.738128 0.116483 -0.137861
v -0.819469 0.258663 -0.040563
v -0.854102 0.283576 0.038323
v 0.561880 -0.347389 0.169586
v 0.601545 -0.331967 0.087426
v 0.424298 0.025674 0.311016
v 0.433221 -0.078205 0.344977
v 0.624137 -0.183663 -0.045791
v 0.625543 -0.079712 -0.079218
v 0.612792 0.021975 -0.080462
v 0.531955 0.164496 0.017115
v 0.496885 0.189472 0.096174
v 0.516481 -0.322485 0.248109
v 0.482469 -0.264205 0.311370
v 0.456302 -0.179820 0.346757
v 0.439370 0.115307 0.253187
v 0.467547 0.174122 0.178868
v 0.619394 -0.273224 0.012572
v 0.576295 0.106288 -0.045611
v -0.159212 -0.285897 0.228337
v -0.193007 -0.227685 0.291529
v -0.218969 -0.143398 0.326880
v -0.236055 0.151370 0.233418
v -0.207736 0.210115 0.159196
v -0.056248 -0.236691 -0.006910
v -0.099296 0.142365 -0.065021
v -0.113694 -0.310767 0.149917
v -0.073900 -0.295360 0.067865
v -0.251286 0.061846 0.291168
v -0.242196 -0.041905 0.325096
v -0.051684 -0.147241 -0.065213
v -0.050107 -0.043415 -0.098588
v -0.062667 0.058152 -0.099820
v -0.143758 0.200503 -0.002382
v -0.178609 0.225447 0.076590
v 1.387662 -0.359958 0.107897
v 1.427200 -0.344522 0.025631
v 1.250089 0.013554 0.249506
v 1.258847 -0.090452 0.283502
v 1.450167 -0.196033 -0.107727
v 1.451399 -0.091957 -0.141205
v 1.438459 0.009850 -0.142462
v 1.357875 0.152541 -0.044745
v 1.322586 0.177549 0.034400
v 1.342381 -0.335021 0.186524
v 1.308154 -0.276672 0.249855
v 1.281778 -0.192189 0.285276
v 1.265004 0.103296 0.191599
v 1.293039 0.162182 0.117184
v 1.445244 -0.285706 -0.049303
v 1.402093 0.094263 -0.107558
vn -0.0957 -0.9946 0.0408
vn -0.1254 -0.8722 0.4728
vn -0.2080 -0.8524 0.4797
vn -0.1953 -0.9804 0.0276
vn -0.1246 -0.5816 0.8039
vn -0.1777 -0.5577 0.8108
vn -0.3538 -0.7240 0.5922
vn -0.3623 -0.9090 0.2060
vn -0.2657 -0.4058 0.8745
vn -0.0983 -0.1931 0.9762
vn -0.1170 -0.1696 0.9786
vn -0.1484 -0.0394 0.9881
vn -0.2442 0.0134 0.9696
vn -0.4169 -0.1908 0.8887
vn -0.6312 -0.5440 0.5529
vn -0.6330 -0.7692 0.0877
vn -0.3113 -0.8955 -0.3180
vn -0.4160 -0.8518 -0.3183
vn -0.1428 -0.8935 -0.4257
vn -0.0488 -0.9062 -0.4201
vn -0.8224 -0.4532 -0.3438
vn -0.9178 -0.1001 0.3842
vn -0.7073 0.6620 -0.2481
vn -0.6192 -0.0437 -0.7840
vn -0.3793 0.3046 0.8737
vn -0.2437 0.7941 0.5568
vn -0.1890 0.7637 -0.6172
vn -0.2738 0.2668 -0.9240
vn -0.0091 0.9985 0.0532
vn -0.4375 -0.6280 -0.6436
vn -0.1287 0.3213 0.9382
vn -0.0042 0.6358 0.7718
vn 0.1496 0.8836 0.4436
vn 0.2010 0.9718 0.1236
vn 0.1756 0.9492 -0.2611
vn 0.0382 0.6762 -0.7357
vn -0.0509 0.3292 -0.9429
vn -0.2142 -0.1597 -0.9636
vn -0.0523 -0.0026 -0.9986
vn -0.3554 -0.3963 -0.8466
vn 0.1128 0.7770 0.6193
vn 0.0411 0.5380 0.8419
vn -0.0012 0.4658 0.8849
vn 0.0420 0.7031 0.7099
vn -0.0623 0.2654 0.9621
vn -0.0491 0.1938 0.9798
vn 0.1452 0.9563 0.2536
vn 0.0947 0.9203 0.3796
vn -0.2318 -0.6966 -0.6790
vn -0.1709 -0.4983 -0.8500
vn -0.0410 -0.4413 -0.8964
vn -0.0893 -0.6830 -0.7250
vn -0.0867 -0.2824 -0.9554
vn 0.0083 -0.1842 -0.9829
vn 0.0022 0.0203 -0.9998
vn 0.0572 0.1190 -0.9912
vn 0.0748 0.4133 -0.9075
vn 0.1321 0.7368 -0.6631
vn 0.1348 0.8263 -0.5468
vn 0.1029 0.4966 -0.8619
vn 0.1596 0.9650 -0.2082
vn 0.1353 0.9851 -0.1059
vn 0.0772 0.6904 0.7193
vn 0.0485 0.4756 0.8783
vn 0.2584 0.3131 0.9139
vn 0.3634 0.6040 0.7093
vn 0.0614 0.2413 0.9685
vn 0.2666 0.0939 0.9592
vn 0.0744 -0.0930 0.9929
vn 0.2849 -0.1682 0.9437
vn 0.0470 0.9117 0.4081
vn 0.3490 0.8321 0.4310
vn -0.0521 -0.6190 -0.7837
vn -0.0354 -0.4209 -0.9064
vn 0.2979 -0.5303 -0.7937
vn 0.2578 -0.6964 -0.6698
vn -0.0425 -0.1661 -0.9852
vn 0.2857 -0.2658 -0.9207
vn -0.0468 0.1529 -0.9871
vn 0.2913 0.0768 -0.9535
vn -0.0239 -0.8810 -0.4725
vn 0.3210 -0.8936 -0.3138
vn -0.0788 0.5808 -0.8102
vn -0.0400 0.8458 -0.5320
vn 0.3230 0.8448 -0.4266
vn 0.2613 0.6261 -0.7347
vn -0.0199 0.9975 -0.0674
vn 0.3124 0.9464 0.0816
vn 0.1174 0.5788 -0.8069
vn 0.0858 0.1882 -0.9784
vn 0.0626 0.8946 0.4424
vn 0.1067 0.9941 -0.0201
vn 0.1248 0.8774 -0.4632
vn -0.0026 -0.6789 -0.7342
vn 0.0571 -0.1545 -0.9863
vn 0.0309 -0.4285 -0.9030
vn 0.0141 0.6645 0.7472
vn -0.0616 0.1585 0.9854
vn -0.0251 0.4261 0.9043
vn -0.0463 -0.9079 -0.4166
vn -0.0759 -0.9969 0.0202
vn -0.0799 -0.5714 0.8168
vn -0.0666 -0.2042 0.9767
vn -0.0826 -0.8716 0.4833
vn 0.3930 -0.3666 0.8433
vn 0.4083 -0.7202 0.5609
vn 0.4094 -0.9042 0.1219
vn 0.0107 -0.9957 0.0916
vn 0.0397 -0.8513 0.5232
vn -0.0152 -0.8678 0.4966
vn -0.0223 -0.9982 0.0556
vn 0.0666 -0.5857 0.8078
vn 0.0113 -0.5688 0.8224
vn 0.0360 -0.1909 0.9809
vn -0.0263 -0.9057 -0.4231
vn 0.0532 0.2186 -0.9744
vn 0.0847 0.5868 -0.8053
vn 0.0027 0.5354 -0.8446
vn -0.0407 0.1800 -0.9828
vn 0.0728 0.9972 -0.0151
vn 0.0499 0.8995 0.4341
vn 0.0268 0.8925 0.4502
vn 0.0351 0.9994 -0.0054
vn 0.0814 0.8852 -0.4581
vn 0.0129 0.8745 -0.4849
vn -0.0062 -0.6747 -0.7380
vn -0.0431 -0.7087 -0.7042
vn 0.0295 -0.1381 -0.9900
vn -0.0518 -0.1631 -0.9852
vn 0.0077 -0.4094 -0.9123
vn -0.0572 -0.4283 -0.9018
vn 0.0176 0.6770 0.7358
vn 0.0190 0.6476 0.7617
vn -0.0243 0.1404 0.9898
vn 0.0162 0.1191 0.9927
vn -0.0026 0.4079 0.9130
vn 0.0255 0.3772 0.9258
vt 0.575175 0.968310
vt 0.574309 0.978037
vt 0.572267 0.978060
vt 0.573157 0.968380
vt 0.574849 0.988030
vt 0.572832 0.988004
vt 0.557140 0.978366
vt 0.558524 0.969532
vt 0.558228 0.987427
vt 0.576376 0.996608
vt 0.574381 0.996540
vt 0.560288 0.995039
vt 0.551444 0.993120
vt 0.547603 0.987259
vt 0.545764 0.978845
vt 0.547879 0.970572
vt 0.560825 0.962610
vt 0.551910 0.964994
vt 0.574975 0.960645
vt 0.576973 0.960538
vt 0.071030 0.293332
vt 0.070251 0.302179
vt 0.060472 0.301584
vt 0.061804 0.292292
vt 0.069950 0.311162
vt 0.060667 0.311080
vt 0.052220 0.301192
vt 0.053919 0.292396
vt 0.052839 0.310225
vt 0.079350 0.288823
vt 0.080011 0.294537
vt 0.073006 0.286337
vt 0.080011 0.302891
vt 0.078998 0.311266
vt 0.077642 0.317020
vt 0.071049 0.318648
vt 0.626219 0.763795
vt 0.627036 0.756045
vt 0.635422 0.757825
vt 0.635132 0.766377
vt 0.643768 0.756174
vt 0.644050 0.763933
vt 0.979499 0.815502
vt 0.986717 0.822919
vt 0.984077 0.827402
vt 0.978185 0.824223
vt 0.970590 0.812884
vt 0.969765 0.822488
vt 0.961747 0.815052
vt 0.961529 0.823801
vt 0.601864 0.660433
vt 0.603121 0.652394
vt 0.610340 0.659904
vt 0.607744 0.663828
vt 0.593445 0.658653
vt 0.594210 0.649787
vt 0.585195 0.660205
vt 0.585356 0.652151
vt 0.644592 0.743592
vt 0.635660 0.744311
vt 0.635846 0.727693
vt 0.645635 0.727575
vt 0.626649 0.743453
vt 0.625958 0.727423
vt 0.649463 0.752804
vt 0.651751 0.742851
vt 0.621262 0.752586
vt 0.619235 0.742600
vt 0.617649 0.727297
vt 0.653641 0.727575
vt 0.584101 0.672947
vt 0.592906 0.672348
vt 0.592569 0.689033
vt 0.582921 0.689019
vt 0.601976 0.673192
vt 0.602524 0.689287
vt 0.579649 0.663444
vt 0.577241 0.673451
vt 0.609635 0.673894
vt 0.611114 0.689242
vt 0.575258 0.688752
vt 0.960400 0.836845
vt 0.969187 0.836530
vt 0.968831 0.853244
vt 0.959204 0.852923
vt 0.978262 0.837298
vt 0.978792 0.853420
vt 0.956003 0.826690
vt 0.953581 0.836757
vt 0.985951 0.837578
vt 0.987415 0.852902
vt 0.951586 0.851994
vt 0.645750 0.723833
vt 0.635877 0.723900
vt 0.635882 0.723358
vt 0.645766 0.723299
vt 0.625904 0.723680
vt 0.625896 0.723145
vt 0.617524 0.723604
vt 0.617506 0.723076
vt 0.653823 0.723884
vt 0.653850 0.723357
vt 0.582796 0.692759
vt 0.592527 0.692825
vt 0.592521 0.693367
vt 0.582778 0.693293
vt 0.602568 0.693030
vt 0.602574 0.693564
vt 0.611231 0.692933
vt 0.611248 0.693460
vt 0.575068 0.692438
vt 0.575041 0.692965
vt 0.959077 0.856626
vt 0.968787 0.857000
vt 0.968781 0.857536
vt 0.959059 0.857155
vt 0.978834 0.857127
vt 0.978840 0.857656
vt 0.987531 0.856555
vt 0.987548 0.857076
vt 0.951395 0.855638
vt 0.951368 0.856159
vt 0.959131 0.855039
vt 0.951477 0.854076
vt 0.987482 0.854989
vt 0.978816 0.855538
vt 0.968806 0.855390
vt 0.582850 0.691156
vt 0.575149 0.690858
vt 0.611181 0.691351
vt 0.602549 0.691426
vt 0.592545 0.691200
vt 0.645701 0.725437
vt 0.653745 0.725466
vt 0.617578 0.725186
vt 0.625927 0.725284
vt 0.635864 0.725526
vt 0.577473 0.960510
vt 0.575679 0.968292
vt 0.575353 0.988037
vt 0.576875 0.996625
vt 0.574820 0.978031
vt 0.576865 0.988057
vt 0.576351 0.978014
vt 0.577193 0.968239
vt 0.578971 0.960430
vt 0.576688 0.968257
vt 0.575841 0.978020
vt 0.575330 0.978025
vt 0.576184 0.968275
vt 0.576361 0.988050
vt 0.575857 0.988043
vt 0.577873 0.996659
vt 0.577374 0.996642
vt 0.578472 0.960457
vt 0.577972 0.960484
vt 0.951450 0.854597
vt 0.959113 0.855568
vt 0.959095 0.856097
vt 0.951422 0.855118
vt 0.978822 0.856068
vt 0.987498 0.855511
vt 0.987515 0.856033
vt 0.978828 0.856597
vt 0.968800 0.855927
vt 0.968793 0.856463
vt 0.575122 0.691385
vt 0.582832 0.691690
vt 0.582814 0.692225
vt 0.575095 0.691911
vt 0.602555 0.691960
vt 0.611198 0.691879
vt 0.611215 0.692406
vt 0.602562 0.692495
vt 0.592539 0.691742
vt 0.592533 0.692283
vt 0.653771 0.724938
vt 0.645717 0.724902
vt 0.645734 0.724368
vt 0.653797 0.724411
vt 0.625919 0.724749
vt 0.617560 0.724659
vt 0.617542 0.724131
vt 0.625911 0.724215
vt 0.635868 0.724984
vt 0.635873 0.724442
vt 0.578372 0.996675
s 1
usemtl Material.004
f 81/1/1 74/2/2 26/3/3 25/4/4
f 74/2/2 75/5/5 27/6/6 26/3/3
f 25/4/4 26/3/3 29/7/7 28/8/8
f 26/3/3 27/6/6 30/9/9 29/7/7
f 75/5/5 76/10/10 5/11/11 27/6/6
f 27/6/6 5/11/11 6/12/12 30/9/9
f 30/9/9 6/12/12 2/13/13 7/14/14
f 29/7/7 30/9/9 7/14/14 8/15/15
f 28/8/8 29/7/7 8/15/15 9/16/16
f 21/17/17 28/8/8 9/16/16 1/18/18
f 22/19/19 25/4/4 28/8/8 21/17/17
f 82/20/20 81/1/1 25/4/4 22/19/19
f 31/21/21 32/22/22 35/23/23 34/24/24
f 32/22/22 33/25/25 36/26/26 35/23/23
f 34/24/24 35/23/23 38/27/27 37/28/28
f 35/23/23 36/26/26 39/29/29 38/27/27
f 1/30/18 9/31/16 31/21/21 12/32/30
f 9/31/16 8/33/15 32/22/22 31/21/21
f 8/33/15 7/34/14 33/25/25 32/22/22
f 7/34/14 2/35/13 13/36/31 33/25/25
f 33/37/25 13/38/31 14/39/32 36/40/26
f 36/40/26 14/39/32 15/41/33 39/42/29
f 39/43/29 15/44/33 4/45/34 16/46/35
f 38/47/27 39/43/29 16/46/35 17/48/36
f 37/49/28 38/47/27 17/48/36 18/50/37
f 10/51/38 37/52/28 18/53/37 3/54/39
f 11/55/40 34/56/24 37/52/28 10/51/38
f 12/57/30 31/58/21 34/56/24 11/55/40
f 40/59/41 41/60/42 44/61/43 43/62/44
f 41/60/42 42/63/45 45/64/46 44/61/43
f 4/65/34 15/41/33 40/59/41 23/66/47
f 15/41/33 14/39/32 41/60/42 40/59/41
f 14/39/32 13/38/31 42/63/45 41/60/42
f 13/38/31 2/67/13 6/68/12 42/63/45
f 42/63/45 6/68/12 5/69/11 45/64/46
f 23/66/47 40/59/41 43/62/44 24/70/48
f 46/71/49 47/72/50 50/73/51 49/74/52
f 47/72/50 48/75/53 51/76/54 50/73/51
f 1/77/18 12/57/30 46/71/49 21/78/17
f 12/57/30 11/55/40 47/72/50 46/71/49
f 11/55/40 10/51/38 48/75/53 47/72/50
f 10/51/38 3/54/39 20/79/55 48/75/53
f 48/75/53 20/79/55 19/80/56 51/76/54
f 21/78/17 46/71/49 49/74/52 22/81/19
f 52/82/57 53/83/58 56/84/59 55/85/60
f 53/83/58 54/86/61 57/87/62 56/84/59
f 3/88/39 18/50/37 52/82/57 20/89/55
f 18/50/37 17/48/36 53/83/58 52/82/57
f 17/48/36 16/46/35 54/86/61 53/83/58
f 16/46/35 4/45/34 23/90/47 54/86/61
f 54/86/61 23/90/47 24/91/48 57/87/62
f 20/89/55 52/82/57 55/85/60 19/92/56
f 134/93/63 124/94/64 67/95/65 61/96/66
f 124/94/64 125/97/67 68/98/68 67/95/65
f 125/97/67 133/99/69 60/100/70 68/98/68
f 135/101/71 134/93/63 61/96/66 62/102/72
f 136/103/73 126/104/74 69/105/75 63/106/76
f 126/104/74 127/107/77 70/108/78 69/105/75
f 127/107/77 128/109/79 71/110/80 70/108/78
f 123/111/81 136/103/73 63/106/76 66/112/82
f 137/113/83 129/114/84 72/115/85 64/116/86
f 129/114/84 130/117/87 73/118/88 72/115/85
f 130/117/87 135/119/71 62/120/72 73/118/88
f 128/121/79 137/113/83 64/116/86 71/122/80
f 19/92/56 55/85/60 80/123/89 87/124/90
f 57/87/62 24/91/48 78/125/91 89/126/92
f 56/84/59 57/87/62 89/126/92 88/127/93
f 55/85/60 56/84/59 88/127/93 80/123/89
f 22/81/19 49/74/52 79/128/94 82/129/20
f 51/76/54 19/80/56 87/130/90 86/131/95
f 50/73/51 51/76/54 86/131/95 85/132/96
f 49/74/52 50/73/51 85/132/96 79/128/94
f 24/70/48 43/62/44 77/133/97 78/134/91
f 45/64/46 5/69/11 76/135/10 84/136/98
f 44/61/43 45/64/46 84/136/98 83/137/99
f 43/62/44 44/61/43 83/137/99 77/133/97
f 114/138/100 113/139/101 81/1/1 82/20/20
f 107/140/102 108/141/103 76/10/10 75/5/5
f 106/142/104 107/140/102 75/5/5 74/2/2
f 113/139/101 106/142/104 74/2/2 81/1/1
f 67/95/65 68/98/68 60/100/70 59/143/105 58/144/106 65/145/107 66/146/82 63/106/76 69/105/75 70/108/78 71/110/80 64/116/86 72/115/85 73/118/88 62/120/72 61/96/66
f 122/147/108 131/148/109 99/149/110 90/150/111
f 131/148/109 132/151/112 100/152/113 99/149/110
f 132/151/112 133/153/69 101/154/114 100/152/113
f 123/155/81 122/147/108 90/150/111 91/156/115
f 119/157/116 112/158/117 105/159/118 96/160/119
f 121/161/120 110/162/121 103/163/122 98/164/123
f 120/165/124 121/161/120 98/164/123 97/166/125
f 112/158/117 120/165/124 97/166/125 105/159/118
f 114/167/100 111/168/126 104/169/127 91/170/115
f 118/171/128 119/172/116 96/173/119 95/174/129
f 117/175/130 118/171/128 95/174/129 94/176/131
f 111/168/126 117/175/130 94/176/131 104/169/127
f 110/177/121 109/178/132 102/179/133 103/180/122
f 116/181/134 108/182/103 101/183/114 93/184/135
f 115/185/136 116/181/134 93/184/135 92/186/137
f 109/178/132 115/185/136 92/186/137 102/179/133
f 77/133/97 83/137/99 115/185/136 109/178/132
f 83/137/99 84/136/98 116/181/134 115/185/136
f 84/136/98 76/135/10 108/182/103 116/181/134
f 78/134/91 77/133/97 109/178/132 110/177/121
f 79/128/94 85/132/96 117/175/130 111/168/126
f 85/132/96 86/131/95 118/171/128 117/175/130
f 86/131/95 87/130/90 119/172/116 118/171/128
f 82/129/20 79/128/94 111/168/126 114/167/100
f 80/123/89 88/127/93 120/165/124 112/158/117
f 88/127/93 89/126/92 121/161/120 120/165/124
f 89/126/92 78/125/91 110/162/121 121/161/120
f 87/124/90 80/123/89 112/158/117 119/157/116
f 90/150/111 99/149/110 106/142/104 113/139/101
f 99/149/110 100/152/113 107/140/102 106/142/104
f 100/152/113 101/154/114 108/141/103 107/140/102
f 91/156/115 90/150/111 113/139/101 114/138/100
f 66/146/82 65/145/107 122/147/108 123/155/81
f 59/143/105 60/187/70 133/153/69 132/151/112
f 58/144/106 59/143/105 132/151/112 131/148/109
f 65/145/107 58/144/106 131/148/109 122/147/108
f 96/160/119 105/159/118 137/113/83 128/121/79
f 98/164/123 103/163/122 135/119/71 130/117/87
f 97/166/125 98/164/123 130/117/87 129/114/84
f 105/159/118 97/166/125 129/114/84 137/113/83
f 91/170/115 104/169/127 136/103/73 123/111/81
f 95/174/129 96/173/119 128/109/79 127/107/77
f 94/176/131 95/174/129 127/107/77 126/104/74
f 104/169/127 94/176/131 126/104/74 136/103/73
f 103/180/122 102/179/133 134/93/63 135/101/71
f 93/184/135 101/183/114 133/99/69 125/97/67
f 92/186/137 93/184/135 125/97/67 124/94/64
f 102/179/133 92/186/137 124/94/64 134/93/63
