# Blender 5.2.0 LTS
# www.blender.org
mtllib light fifty mag.mtl
o Cube_025_Cube_045_126589845375906
v 0.061766 -0.318589 -0.082723
v 0.061766 -0.318589 0.082723
v 0.016163 -0.311923 -0.082723
v 0.016163 -0.311923 0.082723
v -0.131854 0.088651 -0.082723
v -0.131854 0.088651 0.082723
v -0.086251 0.081985 -0.082723
v -0.086251 0.081985 0.082723
v -0.271855 0.108651 -0.082723
v -0.271855 0.108651 0.082723
v -0.226251 0.101985 -0.082723
v -0.226251 0.101985 0.082723
v -0.226251 -0.275256 -0.082723
v -0.226251 -0.275256 0.082723
v -0.271855 -0.268589 -0.082723
v -0.271855 -0.268589 0.082723
v -0.086251 -0.295256 -0.082723
v -0.086251 -0.295256 0.082723
v -0.131854 -0.288589 -0.082723
v -0.131854 -0.288589 0.082723
v 0.016163 0.065318 -0.082723
v 0.016163 0.065318 0.082723
v 0.061766 0.058651 -0.082723
v 0.061766 0.058651 0.082723
v 0.061766 -0.318589 -0.082723
v 0.061766 0.058651 -0.082723
v 0.061766 0.058651 0.082723
v 0.061766 -0.318589 0.082723
v -0.271855 0.108651 -0.082723
v -0.271855 -0.268589 -0.082723
v -0.271855 -0.268589 0.082723
v -0.271855 0.108651 0.082723
v -0.226251 0.101985 -0.082723
v -0.271855 -0.268589 -0.082723
v -0.271855 0.108651 -0.082723
v -0.226251 -0.275256 -0.082723
v 0.016163 -0.311923 0.082723
v 0.061766 0.058651 0.082723
v 0.016163 0.065318 0.082723
v 0.061766 -0.318589 0.082723
v 0.061766 0.058651 -0.082723
v 0.016163 -0.311923 -0.082723
v 0.016163 0.065318 -0.082723
v 0.061766 -0.318589 -0.082723
v -0.271855 -0.268589 0.082723
v -0.226251 0.101985 0.082723
v -0.271855 0.108651 0.082723
v -0.226251 -0.275256 0.082723
v -0.086251 0.081985 -0.082723
v -0.131854 -0.288589 -0.082723
v -0.131854 0.088651 -0.082723
v -0.086251 -0.295256 -0.082723
v -0.131854 -0.288589 0.082723
v -0.086251 0.081985 0.082723
v -0.131854 0.088651 0.082723
v -0.086251 -0.295256 0.082723
v -0.131854 0.088651 -0.082723
v -0.131854 -0.288589 -0.082723
v -0.131854 -0.288589 0.082723
v -0.131854 0.088651 0.082723
v -0.086251 0.081985 0.082723
v -0.086251 -0.295256 0.082723
v -0.086251 0.081985 -0.082723
v -0.086251 -0.295256 -0.082723
v -0.226251 0.101985 0.082723
v -0.226251 -0.275256 0.082723
v -0.226251 0.101985 -0.082723
v -0.226251 -0.275256 -0.082723
v 0.016163 0.065318 -0.082723
v 0.016163 -0.311923 -0.082723
v 0.016163 -0.311923 0.082723
v 0.016163 0.065318 0.082723
vn -0.1450 -0.9894 0.0004
vn 0.1451 0.9894 0.0004
vn 0.1451 0.9894 0.0005
vn 0.1450 0.9894 0.0004
vn -0.1452 -0.9894 0.0006
vn -0.1451 -0.9894 0.0005
vn 1.0000 -0.0000 -0.0000
vn 1.0000 0.0003 0.0005
vn -1.0000 -0.0000 -0.0000
vn -1.0000 0.0003 0.0005
vn 0.0003 0.0002 -1.0000
vn 0.0003 0.0002 1.0000
vn 0.0004 0.0002 -1.0000
vn 0.0004 0.0002 1.0000
vn -1.0000 0.0002 0.0004
vt 0.187500 0.750000
vt 0.187500 0.500000
vt 0.208333 0.750000
vt 0.208333 0.500000
vt 0.687500 0.750000
vt 0.687500 0.500000
vt 0.708333 0.750000
vt 0.708333 0.500000
vt 0.291667 0.750000
vt 0.291667 0.500000
vt 0.312500 0.750000
vt 0.312500 0.500000
vt 0.791667 0.750000
vt 0.791667 0.500000
vt 0.812500 0.750000
vt 0.812500 0.500000
vt 0.375000 0.937500
vt 0.625000 0.937500
vt 0.375000 0.312500
vt 0.625000 0.812500
vt 0.625000 0.833333
vt 0.375000 0.812500
vt 0.375000 0.833333
vt 0.375000 0.333333
vt 0.625000 0.312500
vt 0.625000 0.333333
vt 0.375000 0.916667
vt 0.625000 0.916667
vt 0.375000 0.437500
vt 0.625000 0.416667
vt 0.625000 0.437500
vt 0.375000 0.416667
s 1
f 1/1/1 2/2/1 3/3/1
f 3/3/1 2/2/1 4/4/1
f 5/5/2 6/6/3 7/7/3
f 7/7/3 6/6/3 8/8/2
f 9/5/3 10/6/3 11/7/4
f 11/7/4 10/6/3 12/8/4
f 13/9/5 14/10/5 15/11/6
f 15/11/6 14/10/5 16/12/6
f 17/9/5 18/10/1 19/11/1
f 19/11/1 18/10/1 20/12/5
f 21/13/4 22/14/4 23/15/3
f 23/15/3 22/14/4 24/16/4
f 25/17/7 26/18/8 27/16/7
f 25/17/7 27/16/7 28/19/8
f 29/20/9 30/11/10 31/12/9
f 29/20/9 31/12/9 32/6/10
f 33/21/11 34/22/11 35/20/11
f 34/22/11 33/21/11 36/23/11
f 37/24/12 38/25/12 39/26/12
f 38/25/12 37/24/12 40/19/12
f 41/18/11 42/27/11 43/28/11
f 42/27/11 41/18/11 44/17/11
f 45/29/12 46/30/12 47/31/12
f 46/30/12 45/29/12 48/32/12
f 49/21/11 50/22/11 51/20/11
f 50/22/11 49/21/11 52/23/13
f 53/29/12 54/30/12 55/31/12
f 54/30/12 53/29/12 56/32/14
f 57/20/9 58/11/15 59/12/9
f 57/20/9 59/12/9 60/6/15
f 61/30/7 62/10/7 63/21/7
f 64/23/7 63/21/7 62/10/7
f 65/30/7 66/10/7 67/21/7
f 68/23/7 67/21/7 66/10/7
f 69/28/9 70/27/9 71/4/9
f 69/28/9 71/4/9 72/26/9
o Cube_Cube_84400213566758
v 0.161443 0.057944 -0.079122
v -0.385797 0.137944 -0.079122
v -0.385797 0.137944 0.079122
v 0.161443 0.057944 0.079122
v -0.385797 0.137944 -0.079122
v -0.385797 -0.319296 -0.079122
v -0.385797 -0.319296 0.079122
v -0.385797 0.137944 0.079122
v -0.399656 -0.343278 -0.083129
v -0.399656 -0.343278 0.083129
v -0.385797 -0.319296 -0.079122
v -0.399656 -0.398778 -0.083129
v -0.399656 -0.343278 0.083129
v -0.399656 -0.398778 0.083129
v 0.161443 0.057944 0.079122
v 0.161443 -0.399296 -0.079122
v 0.161443 0.057944 -0.079122
v 0.161443 -0.399296 0.079122
v 0.161443 -0.399296 0.079122
v 0.175302 -0.427330 0.083129
v 0.175302 -0.427330 -0.083129
v 0.175302 -0.427330 -0.083129
v 0.175302 -0.482830 0.083129
v 0.175302 -0.482830 -0.083129
v -0.399656 -0.398778 -0.083129
v 0.175302 -0.482830 -0.083129
v 0.175302 -0.482830 0.083129
v -0.399656 -0.398778 0.083129
v -0.399656 -0.398778 0.083129
v 0.175302 -0.482830 0.083129
v 0.175302 -0.427330 0.083129
v -0.399656 -0.343278 0.083129
v 0.175302 -0.427330 -0.083129
v -0.399656 -0.398778 -0.083129
v -0.399656 -0.343278 -0.083129
v 0.175302 -0.482830 -0.083129
v -0.385797 -0.319296 0.079122
v 0.161443 0.057944 0.079122
v -0.385797 0.137944 0.079122
v 0.161443 -0.399296 0.079122
v 0.161443 0.057944 -0.079122
v -0.385797 -0.319296 -0.079122
v -0.385797 0.137944 -0.079122
v 0.161443 -0.399296 -0.079122
v 0.161443 -0.399296 -0.079122
v -0.399656 -0.343278 -0.083129
v -0.385797 -0.319296 -0.079122
v 0.175302 -0.427330 -0.083129
v -0.399656 -0.343278 0.083129
v 0.175302 -0.427330 0.083129
v 0.161443 -0.399296 0.079122
v -0.385797 -0.319296 0.079122
vn 0.1451 0.9894 0.0005
vn -1.0000 -0.0000 -0.0000
vn -0.9604 0.2785 0.0005
vn -0.9604 0.2785 -0.0000
vn -0.9604 0.2787 0.0005
vn -0.9718 0.2359 0.0005
vn -0.9718 0.2357 0.0005
vn 1.0000 -0.0000 -0.0000
vn 0.9701 0.2426 -0.0000
vn 0.9701 0.2426 0.0005
vn 0.9701 0.2427 0.0005
vn 0.9778 0.2094 0.0005
vn -0.1452 -0.9894 0.0006
vn -0.1451 -0.9894 0.0005
vn 0.0003 0.0002 1.0000
vn 0.0083 0.0550 0.9985
vn 0.0102 0.0686 0.9976
vn 0.0083 0.0550 -0.9985
vn 0.0003 0.0002 -1.0000
vn 0.0102 0.0686 -0.9976
vn 0.0112 0.0803 0.9967
vn 0.0132 0.0911 0.9958
vn 0.0112 0.0803 -0.9967
vn 0.0132 0.0911 -0.9958
vn 0.0103 0.0687 -0.9976
vn 0.0103 0.0687 0.9976
vn 0.0112 0.0804 0.9967
vt 0.875000 0.750000
vt 0.625000 0.750000
vt 0.625000 0.500000
vt 0.875000 0.500000
vt 0.375000 0.750000
vt 0.375000 0.500000
vt 0.625000 0.250000
vt 0.375000 0.000000
vt 0.625000 0.000000
vt 0.375000 0.250000
vt 0.125000 0.750000
vt 0.125000 0.500000
vt 0.375000 1.000000
vt 0.625000 1.000000
s 1
f 73/33/16 74/34/16 75/35/16
f 73/33/16 75/35/16 76/36/16
f 77/34/17 78/37/18 79/38/19
f 77/34/17 79/38/19 80/35/17
f 79/38/20 81/37/21 82/38/21
f 81/37/21 79/38/20 83/37/20
f 84/37/17 85/38/22 81/37/22
f 85/38/22 84/37/17 86/38/17
f 87/39/23 88/40/24 89/41/23
f 88/40/24 87/39/23 90/42/25
f 88/40/26 91/42/26 92/42/27
f 92/42/27 93/40/27 88/40/26
f 94/40/27 92/42/27 95/42/23
f 95/42/23 96/40/23 94/40/27
f 97/37/28 98/43/29 99/44/28
f 97/37/28 99/44/28 100/38/28
f 101/38/30 102/42/30 103/42/31
f 101/38/30 103/42/31 104/38/32
f 105/45/33 106/37/34 107/37/35
f 106/37/34 105/45/33 108/45/34
f 109/38/36 110/39/30 111/35/30
f 110/39/30 109/38/36 112/42/37
f 113/46/34 114/37/38 115/34/34
f 114/37/38 113/46/34 116/45/39
f 117/45/39 118/37/40 119/37/38
f 118/37/40 117/45/39 120/45/33
f 121/38/41 122/42/31 123/42/37
f 121/38/41 123/42/37 124/38/42
