# Blender 5.2.0 LTS
# www.blender.org
mtllib light fifty bolt.mtl
o Cube_003_Cube_065_106224044037880
v 0.416460 -0.024927 0.082887
v 0.416460 -0.065048 0.100523
v 0.416460 -0.065048 0.086897
v 0.416460 -0.024927 0.069260
v 0.390063 0.009835 0.096896
v 0.416460 -0.024927 0.082887
v 0.390063 0.009835 0.083271
v 0.416460 -0.024927 0.069260
v -0.543540 0.049835 0.099031
v -0.543540 -0.024927 0.069338
v -0.543540 -0.024927 0.082935
v -0.543540 0.049835 0.112656
v -0.543540 -0.065048 0.086897
v -0.543540 -0.024927 0.082935
v -0.543540 -0.024927 0.069338
v -0.543540 -0.065048 0.100523
v -0.510250 0.035143 -0.059315
v -0.510250 -0.012312 -0.087831
v -0.510250 -0.011614 -0.037082
v -0.510250 0.040454 -0.023213
v -0.510250 -0.011614 -0.037082
v -0.510250 0.022590 0.010946
v -0.510250 -0.011048 0.004116
v -0.510250 -0.058965 -0.058020
v -0.510250 -0.011614 -0.037082
v -0.510250 -0.012312 -0.087831
v -0.510250 -0.063281 -0.021786
v -0.510250 -0.011614 -0.037082
v -0.510250 -0.044483 0.011868
v -0.510250 -0.011048 0.004116
v -0.510250 -0.011048 0.004116
v -0.510250 -0.024950 0.079932
v -0.510250 0.022590 0.010946
v -0.510250 0.022590 0.093660
v -0.510250 -0.044483 0.011868
v -0.510250 -0.044483 0.088380
v 0.005902 0.049835 0.099031
v 0.156163 0.009835 0.096896
v 0.156163 0.009835 0.083271
v 0.005902 0.049835 0.112656
v -0.466830 0.035143 -0.059315
v -0.488540 -0.012479 -0.099973
v -0.488540 0.045256 -0.066036
v -0.466830 -0.012312 -0.087831
v -0.510250 0.035143 -0.059315
v -0.510250 -0.012312 -0.087831
v -0.510250 -0.058965 -0.058020
v -0.510250 -0.012312 -0.087831
v -0.488540 -0.069259 -0.064459
v -0.466830 -0.058965 -0.058020
v -0.466830 -0.012312 -0.087831
v 0.005902 0.049835 0.099031
v -0.543540 0.049835 0.099031
v -0.543540 0.049835 0.112656
v 0.005902 0.049835 0.112656
v -0.543540 -0.065048 0.086897
v 0.005902 -0.065048 0.086897
v 0.005902 -0.065048 0.100523
v -0.543540 -0.065048 0.100523
v 0.156163 -0.065048 0.100523
v 0.156163 -0.065048 0.086897
v 0.416460 -0.065048 0.100523
v 0.416460 -0.065048 0.086897
v -0.488540 0.045256 -0.066036
v -0.488540 0.052423 -0.021171
v -0.466830 0.035143 -0.059315
v -0.466830 0.040454 -0.023213
v -0.510250 0.035143 -0.059315
v -0.488540 0.052423 -0.021171
v -0.510250 0.040454 -0.023213
v -0.488540 0.052423 -0.021171
v -0.466830 0.022590 0.010946
v -0.488540 0.034379 0.013851
v -0.488540 0.052423 -0.021171
v -0.510250 0.022590 0.010946
v -0.510250 0.022590 0.010946
v -0.510250 0.022590 0.093660
v -0.488540 0.034379 0.013851
v -0.488540 0.034731 0.093667
v -0.466830 0.022590 0.093660
v -0.466830 0.022590 0.010946
v -0.488540 -0.069259 -0.064459
v -0.488540 -0.075189 -0.019416
v -0.510250 -0.058965 -0.058020
v -0.510250 -0.063281 -0.021786
v -0.466830 -0.058965 -0.058020
v -0.488540 -0.075189 -0.019416
v -0.466830 -0.063281 -0.021786
v -0.488540 -0.075189 -0.019416
v -0.510250 -0.044483 0.011868
v -0.488540 -0.056231 0.014935
v -0.488540 -0.075189 -0.019416
v -0.466830 -0.044483 0.011868
v -0.466830 -0.044483 0.011868
v -0.466830 -0.044483 0.088380
v -0.488540 -0.056231 0.014935
v -0.488540 -0.056624 0.088389
v -0.510250 -0.044483 0.088380
v -0.510250 -0.044483 0.011868
v 0.390063 0.009835 0.083271
v 0.156163 0.009835 0.083271
v 0.156163 0.009835 0.096896
v 0.390063 0.009835 0.096896
v 0.156163 0.009835 0.083271
v 0.005902 -0.024927 0.069338
v 0.005902 0.049835 0.099031
v -0.543540 -0.024927 0.069338
v -0.543540 0.049835 0.099031
v -0.543540 -0.065048 0.086897
v 0.005902 -0.065048 0.086897
v 0.156163 -0.024927 0.069390
v 0.156163 -0.065048 0.086897
v 0.416460 -0.024927 0.069260
v 0.416460 -0.065048 0.086897
v 0.390063 0.009835 0.083271
v 0.156163 -0.024927 0.069390
v 0.416460 -0.024927 0.069260
v -0.466830 -0.058965 -0.058020
v -0.466830 -0.012312 -0.087831
v -0.466830 -0.011614 -0.037082
v -0.466830 -0.063281 -0.021786
v -0.466830 -0.011614 -0.037082
v -0.466830 -0.044483 0.011868
v -0.466830 -0.011048 0.004116
v -0.466830 0.035143 -0.059315
v -0.466830 -0.011614 -0.037082
v -0.466830 -0.012312 -0.087831
v -0.466830 0.040454 -0.023213
v -0.466830 0.022590 0.010946
v -0.466830 -0.011614 -0.037082
v -0.466830 -0.011048 0.004116
v -0.466830 0.022590 0.010946
v -0.466830 -0.024950 0.079932
v -0.466830 -0.011048 0.004116
v -0.466830 0.022590 0.093660
v -0.466830 -0.044483 0.011868
v -0.466830 -0.044483 0.088380
vn 0.9836 0.1803 -0.0004
vn 0.9259 -0.3777 -0.0004
vn 0.9729 -0.2311 -0.0004
vn 0.9732 0.2298 -0.0004
vn 0.5164 0.8563 -0.0004
vn 0.5536 0.8328 -0.0004
vn 0.9732 0.2300 -0.0004
vn -1.0000 0.0004 -0.0003
vn -1.0000 0.0003 -0.0003
vn 0.1334 0.9911 -0.0004
vn 0.1306 0.9914 -0.0004
vn 0.4871 0.7236 -0.4890
vn 0.0005 -0.0142 -0.9999
vn 0.0005 0.8290 -0.5593
vn 0.4986 -0.0122 -0.8667
vn -0.4871 0.7236 -0.4890
vn -0.4986 -0.0122 -0.8667
vn -0.4871 -0.7364 -0.4695
vn -0.4986 -0.0122 -0.8668
vn 0.0005 -0.8437 -0.5368
vn 0.4874 -0.7367 -0.4688
vn 0.1333 0.9911 -0.0004
vn 0.0004 1.0000 -0.0003
vn 0.1305 0.9915 -0.0004
vn 0.0004 -1.0000 -0.0003
vn 0.9259 -0.3778 -0.0004
vn 0.9729 -0.2312 -0.0004
vn 0.0005 0.9867 0.1628
vn 0.4862 0.8624 0.1413
vn -0.4862 0.8624 0.1412
vn 0.4890 0.8476 0.2058
vn 0.4861 0.8624 0.1415
vn 0.0005 0.9717 0.2361
vn -0.4861 0.8624 0.1415
vn -0.4890 0.8476 0.2058
vn 0.0005 0.9718 0.2360
vn -0.4890 0.8477 0.2057
vn -0.4823 0.8760 -0.0024
vn 0.0005 0.9718 0.2359
vn 0.0005 1.0000 -0.0024
vn 0.4823 0.8760 -0.0024
vn 0.4890 0.8477 0.2057
vn 0.0006 -0.8437 -0.5368
vn 0.0005 -0.9818 0.1902
vn -0.4872 -0.7364 -0.4695
vn -0.4859 -0.8582 0.1655
vn 0.4874 -0.7367 -0.4687
vn 0.0005 -0.9817 0.1902
vn 0.4860 -0.8581 0.1655
vn -0.4898 -0.8443 0.2174
vn -0.4860 -0.8581 0.1657
vn 0.0005 -0.9683 0.2496
vn 0.4860 -0.8581 0.1657
vn 0.4898 -0.8443 0.2174
vn 0.4823 -0.8760 -0.0024
vn 0.0005 -0.9684 0.2495
vn 0.0005 -1.0000 -0.0024
vn -0.4822 -0.8760 -0.0023
vn 0.5535 0.8328 -0.0004
vn 0.1333 0.9911 -0.0000
vn 0.5164 0.8564 -0.0004
vn 0.0005 0.3708 -0.9287
vn 0.0003 -0.0172 -0.9999
vn 0.0004 0.3694 -0.9293
vn -0.0000 0.3691 -0.9294
vn 0.0006 -0.4012 -0.9160
vn 0.0005 -0.4011 -0.9160
vn 0.0005 -0.0161 -0.9999
vn 0.0005 -0.4012 -0.9160
vn -0.0005 -0.2565 -0.9665
vn -0.0005 -0.4011 -0.9160
vn -0.0005 0.3725 -0.9280
vn 0.0003 0.3708 -0.9287
vn -0.0004 -0.2565 -0.9665
vn 1.0000 0.0004 -0.0003
vn 1.0000 0.0003 -0.0003
vt 0.622903 0.250000
vt 0.375000 0.250000
vt 0.375000 0.000000
vt 0.622903 0.000000
vt 0.625000 0.253084
vt 0.625000 0.000000
vt 0.625000 0.750000
vt 0.500000 0.750000
vt 0.500000 0.500000
vt 0.625000 0.500000
vt 0.375000 0.750000
vt 0.375000 0.500000
vt 0.500000 0.625000
vt 0.625000 0.625000
vt 0.625000 0.562500
vt 0.500000 0.562500
vt 0.375000 0.625000
vt 0.375000 0.562500
vt 0.783748 0.750000
vt 0.818856 0.500000
vt 0.818856 0.750000
vt 0.783748 0.500000
vt 0.625000 1.000000
vt 0.500000 0.875000
vt 0.625000 0.875000
vt 0.500000 1.000000
vt 0.375000 0.875000
vt 0.375000 1.000000
vt 0.216252 0.750000
vt 0.216252 0.500000
vt 0.181144 0.500000
vt 0.181144 0.750000
vt 0.125000 0.500000
vt 0.125000 0.750000
vt 0.750000 0.750000
vt 0.750000 0.625000
vt 0.875000 0.750000
vt 0.875000 0.625000
vt 0.875000 0.562500
vt 0.750000 0.562500
vt 0.250000 0.750000
vt 0.250000 0.625000
vt 0.125000 0.625000
vt 0.250000 0.562500
vt 0.125000 0.562500
vt 0.868832 0.750000
vt 0.868832 0.500000
vt 0.625000 0.943856
vt 0.500000 0.908748
vt 0.625000 0.908748
vt 0.375000 0.908748
vt 0.500000 0.943856
vt 0.375000 0.943856
vt 0.622903 1.000000
vt 0.625000 0.993832
vt 0.500000 0.000000
vt 0.500000 0.125000
vt 0.375000 0.125000
vt 0.375000 0.187500
vt 0.500000 0.187500
vt 0.625000 0.125000
vt 0.625000 0.187500
s 1
f 1/1/1 2/2/2 3/3/3
f 3/3/3 4/4/4 1/1/1
f 5/5/5 6/1/1 7/6/6
f 8/4/7 7/6/6 6/1/1
f 9/7/8 10/8/8 11/9/8
f 9/7/8 11/9/8 12/10/8
f 13/11/8 14/9/8 15/8/8
f 14/9/8 13/11/8 16/12/9
f 17/7/8 18/8/8 19/13/8
f 19/13/8 20/14/9 17/7/8
f 21/13/8 22/15/8 20/14/8
f 22/15/8 21/13/8 23/16/8
f 24/11/8 25/13/8 26/8/9
f 25/13/8 24/11/8 27/17/8
f 28/13/8 27/17/8 29/18/8
f 28/13/8 29/18/8 30/16/8
f 31/16/8 32/16/8 33/15/8
f 33/15/8 32/16/8 34/15/8
f 35/18/8 32/16/8 31/16/8
f 32/16/8 35/18/8 36/18/8
f 37/19/10 38/20/10 39/21/11
f 38/20/10 37/19/10 40/22/11
f 41/23/12 42/24/13 43/25/14
f 42/24/13 41/23/12 44/26/15
f 42/24/13 45/7/16 43/25/14
f 45/7/16 42/24/13 46/8/17
f 42/24/13 47/11/18 48/8/19
f 42/24/13 49/27/20 47/11/18
f 42/24/13 50/28/21 49/27/20
f 50/28/21 42/24/13 51/26/15
f 52/19/22 53/7/23 54/10/23
f 52/19/22 54/10/23 55/22/24
f 56/11/25 57/29/25 58/30/25
f 56/11/25 58/30/25 59/12/25
f 57/29/25 60/31/25 58/30/25
f 57/29/25 61/32/25 60/31/25
f 61/32/25 62/33/26 60/31/25
f 61/32/25 63/34/27 62/33/26
f 64/35/14 65/36/28 66/37/12
f 66/37/12 65/36/28 67/38/29
f 68/7/16 69/36/28 64/35/14
f 69/36/28 68/7/16 70/14/30
f 71/36/28 72/39/31 67/38/32
f 72/39/31 71/36/28 73/40/33
f 74/36/28 70/14/34 75/15/35
f 74/36/28 75/15/35 73/40/36
f 76/15/37 77/15/38 78/40/39
f 78/40/39 77/15/38 79/40/40
f 80/39/41 78/40/39 79/40/40
f 78/40/39 80/39/41 81/39/42
f 82/41/43 83/42/44 84/11/45
f 84/11/45 83/42/44 85/17/46
f 86/34/47 87/42/48 82/41/20
f 87/42/48 86/34/47 88/43/49
f 89/42/48 90/18/50 85/17/51
f 90/18/50 89/42/48 91/44/52
f 92/42/48 88/43/53 93/45/54
f 92/42/48 93/45/54 91/44/52
f 94/45/54 95/45/55 96/44/56
f 96/44/56 95/45/55 97/44/57
f 98/18/58 96/44/56 97/44/57
f 96/44/56 98/18/58 99/18/50
f 100/46/59 101/21/24 102/20/60
f 100/46/59 102/20/60 103/47/61
f 104/48/62 105/49/63 106/50/64
f 106/50/64 107/8/63 108/7/65
f 107/8/63 106/50/64 105/49/63
f 105/49/63 109/11/66 107/8/63
f 109/11/66 105/49/63 110/51/67
f 105/49/63 104/48/62 111/52/68
f 111/52/68 110/51/67 105/49/63
f 110/51/67 111/52/68 112/53/69
f 113/54/70 112/53/69 111/52/68
f 112/53/69 113/54/70 114/28/71
f 115/55/72 116/52/68 104/48/73
f 116/52/68 115/55/72 117/54/74
f 118/3/75 119/56/76 120/57/75
f 118/3/75 120/57/75 121/58/75
f 122/57/75 123/59/75 121/58/75
f 123/59/75 122/57/75 124/60/75
f 125/6/75 126/57/75 127/56/75
f 126/57/75 125/6/75 128/61/76
f 129/62/75 130/57/75 128/61/75
f 130/57/75 129/62/75 131/60/75
f 132/62/75 133/60/75 134/60/75
f 133/60/75 132/62/75 135/62/75
f 134/60/75 133/60/75 136/59/75
f 137/59/75 136/59/75 133/60/75
