o Cube_025_Cube_045_126589845375906
v 0.5790049862898236 -0.7679231145982731 0.027268173288654718
v 0.5790049862898236 -0.7679231145982731 0.1927141715996975
v 0.5334019885248785 -0.7585523976809838 0.027268173288654718
v 0.5334019885248785 -0.7585523976809838 0.027268173288654718
v 0.5790049862898236 -0.7679231145982731 0.1927141715996975
v 0.5334019885248785 -0.7585523976809838 0.1927141715996975
v 0.38538498998054316 -0.1954466486044569 0.027268173288654718
v 0.38538498998054316 -0.1954466486044569 0.1927141715996975
v 0.43098798960813334 -0.20481736552174618 0.027268173288654718
v 0.43098798960813334 -0.20481736552174618 0.027268173288654718
v 0.38538498998054316 -0.1954466486044569 0.1927141715996975
v 0.43098798960813334 -0.20481736552174618 0.1927141715996975
v 0.24538399100669672 -0.16733171186639945 0.027268173288654718
v 0.24538399100669672 -0.16733171186639945 0.1927141715996975
v 0.2909879815615063 -0.1767024183100564 0.027268173288654718
v 0.2909879815615063 -0.1767024183100564 0.027268173288654718
v 0.24538399100669672 -0.16733171186639945 0.1927141715996975
v 0.2909879815615063 -0.1767024183100564 0.1927141715996975
v 0.2909879815615063 -0.7070078826635136 0.027268173288654718
v 0.2909879815615063 -0.7070078826635136 0.1927141715996975
v 0.24538399100669672 -0.6976357413322325 0.027268173288654718
v 0.24538399100669672 -0.6976357413322325 0.027268173288654718
v 0.2909879815615063 -0.7070078826635136 0.1927141715996975
v 0.24538399100669672 -0.6976357413322325 0.1927141715996975
v 0.43098798960813334 -0.7351227984543065 0.027268173288654718
v 0.43098798960813334 -0.7351227984543065 0.1927141715996975
v 0.38538498998054316 -0.7257506990175546 0.027268173288654718
v 0.38538498998054316 -0.7257506990175546 0.027268173288654718
v 0.43098798960813334 -0.7351227984543065 0.1927141715996975
v 0.38538498998054316 -0.7257506990175546 0.1927141715996975
v 0.5334019885248785 -0.228246943801159 0.027268173288654718
v 0.5334019885248785 -0.228246943801159 0.1927141715996975
v 0.5790049862898236 -0.23761906418517542 0.027268173288654718
v 0.5790049862898236 -0.23761906418517542 0.027268173288654718
v 0.5334019885248785 -0.228246943801159 0.1927141715996975
v 0.5790049862898236 -0.23761906418517542 0.1927141715996975
v 0.5790049862898236 -0.7679231145982731 0.027268173288654718
v 0.5790049862898236 -0.23761906418517542 0.027268173288654718
v 0.5790049862898236 -0.23761906418517542 0.1927141715996975
v 0.5790049862898236 -0.7679231145982731 0.027268173288654718
v 0.5790049862898236 -0.23761906418517542 0.1927141715996975
v 0.5790049862898236 -0.7679231145982731 0.1927141715996975
v 0.24538399100669672 -0.16733171186639945 0.027268173288654718
v 0.24538399100669672 -0.6976357413322325 0.027268173288654718
v 0.24538399100669672 -0.6976357413322325 0.1927141715996975
v 0.24538399100669672 -0.16733171186639945 0.027268173288654718
v 0.24538399100669672 -0.6976357413322325 0.1927141715996975
v 0.24538399100669672 -0.16733171186639945 0.1927141715996975
v 0.2909879815615063 -0.1767024183100564 0.027268173288654718
v 0.24538399100669672 -0.6976357413322325 0.027268173288654718
v 0.24538399100669672 -0.16733171186639945 0.027268173288654718
v 0.24538399100669672 -0.6976357413322325 0.027268173288654718
v 0.2909879815615063 -0.1767024183100564 0.027268173288654718
v 0.2909879815615063 -0.7070078826635136 0.027268173288654718
v 0.5334019885248785 -0.7585523976809838 0.1927141715996975
v 0.5790049862898236 -0.23761906418517542 0.1927141715996975
v 0.5334019885248785 -0.228246943801159 0.1927141715996975
v 0.5790049862898236 -0.23761906418517542 0.1927141715996975
v 0.5334019885248785 -0.7585523976809838 0.1927141715996975
v 0.5790049862898236 -0.7679231145982731 0.1927141715996975
v 0.5790049862898236 -0.23761906418517542 0.027268173288654718
v 0.5334019885248785 -0.7585523976809838 0.027268173288654718
v 0.5334019885248785 -0.228246943801159 0.027268173288654718
v 0.5334019885248785 -0.7585523976809838 0.027268173288654718
v 0.5790049862898236 -0.23761906418517542 0.027268173288654718
v 0.5790049862898236 -0.7679231145982731 0.027268173288654718
v 0.24538399100669672 -0.6976357413322325 0.1927141715996975
v 0.2909879815615063 -0.1767024183100564 0.1927141715996975
v 0.24538399100669672 -0.16733171186639945 0.1927141715996975
v 0.2909879815615063 -0.1767024183100564 0.1927141715996975
v 0.24538399100669672 -0.6976357413322325 0.1927141715996975
v 0.2909879815615063 -0.7070078826635136 0.1927141715996975
v 0.43098798960813334 -0.20481736552174618 0.027268173288654718
v 0.38538498998054316 -0.7257506990175546 0.027268173288654718
v 0.38538498998054316 -0.1954466486044569 0.027268173288654718
v 0.38538498998054316 -0.7257506990175546 0.027268173288654718
v 0.43098798960813334 -0.20481736552174618 0.027268173288654718
v 0.43098798960813334 -0.7351227984543065 0.027268173288654718
v 0.38538498998054316 -0.7257506990175546 0.1927141715996975
v 0.43098798960813334 -0.20481736552174618 0.1927141715996975
v 0.38538498998054316 -0.1954466486044569 0.1927141715996975
v 0.43098798960813334 -0.20481736552174618 0.1927141715996975
v 0.38538498998054316 -0.7257506990175546 0.1927141715996975
v 0.43098798960813334 -0.7351227984543065 0.1927141715996975
v 0.38538498998054316 -0.1954466486044569 0.027268173288654718
v 0.38538498998054316 -0.7257506990175546 0.027268173288654718
v 0.38538498998054316 -0.7257506990175546 0.1927141715996975
v 0.38538498998054316 -0.1954466486044569 0.027268173288654718
v 0.38538498998054316 -0.7257506990175546 0.1927141715996975
v 0.38538498998054316 -0.1954466486044569 0.1927141715996975
v 0.43098798960813334 -0.20481736552174618 0.1927141715996975
v 0.43098798960813334 -0.7351227984543065 0.1927141715996975
v 0.43098798960813334 -0.20481736552174618 0.027268173288654718
v 0.43098798960813334 -0.7351227984543065 0.027268173288654718
v 0.43098798960813334 -0.20481736552174618 0.027268173288654718
v 0.43098798960813334 -0.7351227984543065 0.1927141715996975
v 0.2909879815615063 -0.1767024183100564 0.1927141715996975
v 0.2909879815615063 -0.7070078826635136 0.1927141715996975
v 0.2909879815615063 -0.1767024183100564 0.027268173288654718
v 0.2909879815615063 -0.7070078826635136 0.027268173288654718
v 0.2909879815615063 -0.1767024183100564 0.027268173288654718
v 0.2909879815615063 -0.7070078826635136 0.1927141715996975
v 0.5334019885248785 -0.228246943801159 0.027268173288654718
v 0.5334019885248785 -0.7585523976809838 0.027268173288654718
v 0.5334019885248785 -0.7585523976809838 0.1927141715996975
v 0.5334019885248785 -0.228246943801159 0.027268173288654718
v 0.5334019885248785 -0.7585523976809838 0.1927141715996975
v 0.5334019885248785 -0.228246943801159 0.1927141715996975
vt 0.1875 0.75
vt 0.1875 0.5
vt 0.20833300054073334 0.75
vt 0.20833300054073334 0.75
vt 0.1875 0.5
vt 0.20833300054073334 0.5
vt 0.6875 0.75
vt 0.6875 0.5
vt 0.7083330154418945 0.75
vt 0.7083330154418945 0.75
vt 0.6875 0.5
vt 0.7083330154418945 0.5
vt 0.6875 0.75
vt 0.6875 0.5
vt 0.7083330154418945 0.75
vt 0.7083330154418945 0.75
vt 0.6875 0.5
vt 0.7083330154418945 0.5
vt 0.29166701436042786 0.75
vt 0.29166701436042786 0.5
vt 0.3125 0.75
vt 0.3125 0.75
vt 0.29166701436042786 0.5
vt 0.3125 0.5
vt 0.29166701436042786 0.75
vt 0.29166701436042786 0.5
vt 0.3125 0.75
vt 0.3125 0.75
vt 0.29166701436042786 0.5
vt 0.3125 0.5
vt 0.7916669845581055 0.75
vt 0.7916669845581055 0.5
vt 0.8125 0.75
vt 0.8125 0.75
vt 0.7916669845581055 0.5
vt 0.8125 0.5
vt 0.375 0.9375
vt 0.625 0.9375
vt 0.8125 0.5
vt 0.375 0.9375
vt 0.8125 0.5
vt 0.375 0.3125
vt 0.625 0.8125
vt 0.3125 0.75
vt 0.3125 0.5
vt 0.625 0.8125
vt 0.3125 0.5
vt 0.6875 0.5
vt 0.625 0.8333330154418945
vt 0.375 0.8125
vt 0.625 0.8125
vt 0.375 0.8125
vt 0.625 0.8333330154418945
vt 0.375 0.8333330154418945
vt 0.375 0.33333298563957214
vt 0.625 0.3125
vt 0.625 0.33333298563957214
vt 0.625 0.3125
vt 0.375 0.33333298563957214
vt 0.375 0.3125
vt 0.625 0.9375
vt 0.375 0.9166669845581055
vt 0.625 0.9166669845581055
vt 0.375 0.9166669845581055
vt 0.625 0.9375
vt 0.375 0.9375
vt 0.375 0.4375
vt 0.625 0.41666701436042786
vt 0.625 0.4375
vt 0.625 0.41666701436042786
vt 0.375 0.4375
vt 0.375 0.41666701436042786
vt 0.625 0.8333330154418945
vt 0.375 0.8125
vt 0.625 0.8125
vt 0.375 0.8125
vt 0.625 0.8333330154418945
vt 0.375 0.8333330154418945
vt 0.375 0.4375
vt 0.625 0.41666701436042786
vt 0.625 0.4375
vt 0.625 0.41666701436042786
vt 0.375 0.4375
vt 0.375 0.41666701436042786
vt 0.625 0.8125
vt 0.3125 0.75
vt 0.3125 0.5
vt 0.625 0.8125
vt 0.3125 0.5
vt 0.6875 0.5
vt 0.625 0.41666701436042786
vt 0.29166701436042786 0.5
vt 0.625 0.8333330154418945
vt 0.375 0.8333330154418945
vt 0.625 0.8333330154418945
vt 0.29166701436042786 0.5
vt 0.625 0.41666701436042786
vt 0.29166701436042786 0.5
vt 0.625 0.8333330154418945
vt 0.375 0.8333330154418945
vt 0.625 0.8333330154418945
vt 0.29166701436042786 0.5
vt 0.625 0.9166669845581055
vt 0.375 0.9166669845581055
vt 0.20833300054073334 0.5
vt 0.625 0.9166669845581055
vt 0.20833300054073334 0.5
vt 0.625 0.33333298563957214
vn -0.20177949962459477 -0.9794308161839893 0.0005566331043678664
vn -0.20177949962459477 -0.9794308161839893 0.0005566331043678664
vn -0.20177949962459477 -0.9794308161839893 0.0005566331043678664
vn -0.20177949962459477 -0.9794308161839893 0.0005566331043678664
vn -0.20177949962459477 -0.9794308161839893 0.0005566331043678664
vn -0.20177949962459477 -0.9794308161839893 0.0005566331043678664
vn 0.20191298871545751 0.9794033056739109 0.0005566174695109938
vn 0.20191297112121506 0.9794032203309158 0.0006957718268848144
vn 0.20191297112121506 0.9794032203309158 0.0006957718268848144
vn 0.20191297112121506 0.9794032203309158 0.0006957718268848144
vn 0.20191297112121506 0.9794032203309158 0.0006957718268848144
vn 0.20191298871545751 0.9794033056739109 0.0005566174695109938
vn 0.20191297112121506 0.9794032203309158 0.0006957718268848144
vn 0.20191297112121506 0.9794032203309158 0.0006957718268848144
vn 0.20177949962459477 0.9794308161839893 0.0005566331043678664
vn 0.20177949962459477 0.9794308161839893 0.0005566331043678664
vn 0.20191297112121506 0.9794032203309158 0.0006957718268848144
vn 0.20177949962459477 0.9794308161839893 0.0005566331043678664
vn -0.20204642743269313 -0.9793755888826677 0.0008349026368768311
vn -0.20204642743269313 -0.9793755888826677 0.0008349026368768311
vn -0.20191297112121506 -0.9794032203309158 0.0006957718268848144
vn -0.20191297112121506 -0.9794032203309158 0.0006957718268848144
vn -0.20204642743269313 -0.9793755888826677 0.0008349026368768311
vn -0.20191297112121506 -0.9794032203309158 0.0006957718268848144
vn -0.20204642743269313 -0.9793755888826677 0.0008349026368768311
vn -0.20177949962459477 -0.9794308161839893 0.0005566331043678664
vn -0.20177949962459477 -0.9794308161839893 0.0005566331043678664
vn -0.20177949962459477 -0.9794308161839893 0.0005566331043678664
vn -0.20177949962459477 -0.9794308161839893 0.0005566331043678664
vn -0.20204642743269313 -0.9793755888826677 0.0008349026368768311
vn 0.20177949962459477 0.9794308161839893 0.0005566331043678664
vn 0.20177949962459477 0.9794308161839893 0.0005566331043678664
vn 0.20191297112121506 0.9794032203309158 0.0006957718268848144
vn 0.20191297112121506 0.9794032203309158 0.0006957718268848144
vn 0.20177949962459477 0.9794308161839893 0.0005566331043678664
vn 0.20177949962459477 0.9794308161839893 0.0005566331043678664
vn 1 0 0
vn 0.9999998522281798 0.00021340962644011567 0.000499999949862812
vn 1 0 0
vn 1 0 0
vn 1 0 0
vn 0.9999998522281798 0.00021340962644011567 0.000499999949862812
vn -1 0 0
vn -0.9999998522281798 0.00021340962644011567 0.000499999949862812
vn -1 0 0
vn -1 0 0
vn -1 0 0
vn -0.9999998522281798 0.00021340962644011567 0.000499999949862812
vn 0.00029999999771298966 0.0001422730871234267 -0.9999999448791835
vn 0.00029999999771298966 0.0001422730871234267 -0.9999999448791835
vn 0.00029999999771298966 0.0001422730871234267 -0.9999999448791835
vn 0.00029999999771298966 0.0001422730871234267 -0.9999999448791835
vn 0.00029999999771298966 0.0001422730871234267 -0.9999999448791835
vn 0.00029999999771298966 0.0001422730871234267 -0.9999999448791835
vn 0.00029999999771298966 0.0001422730871234267 0.9999999448791835
vn 0.00029999999771298966 0.0001422730871234267 0.9999999448791835
vn 0.00029999999771298966 0.0001422730871234267 0.9999999448791835
vn 0.00029999999771298966 0.0001422730871234267 0.9999999448791835
vn 0.00029999999771298966 0.0001422730871234267 0.9999999448791835
vn 0.00029999999771298966 0.0001422730871234267 0.9999999448791835
vn 0.00029999999771298966 0.0001422730871234267 -0.9999999448791835
vn 0.00029999999771298966 0.0001422730871234267 -0.9999999448791835
vn 0.00029999999771298966 0.0001422730871234267 -0.9999999448791835
vn 0.00029999999771298966 0.0001422730871234267 -0.9999999448791835
vn 0.00029999999771298966 0.0001422730871234267 -0.9999999448791835
vn 0.00029999999771298966 0.0001422730871234267 -0.9999999448791835
vn 0.00029999999771298966 0.0001422730871234267 0.9999999448791835
vn 0.00029999999771298966 0.0001422730871234267 0.9999999448791835
vn 0.00029999999771298966 0.0001422730871234267 0.9999999448791835
vn 0.00029999999771298966 0.0001422730871234267 0.9999999448791835
vn 0.00029999999771298966 0.0001422730871234267 0.9999999448791835
vn 0.00029999999771298966 0.0001422730871234267 0.9999999448791835
vn 0.00029999999771298966 0.0001422730871234267 -0.9999999448791835
vn 0.00029999999771298966 0.0001422730871234267 -0.9999999448791835
vn 0.00029999999771298966 0.0001422730871234267 -0.9999999448791835
vn 0.00029999999771298966 0.0001422730871234267 -0.9999999448791835
vn 0.00029999999771298966 0.0001422730871234267 -0.9999999448791835
vn 0.0003999999538468308 0.00014227308214387064 -0.9999999098791995
vn 0.00029999999771298966 0.0001422730871234267 0.9999999448791835
vn 0.00029999999771298966 0.0001422730871234267 0.9999999448791835
vn 0.00029999999771298966 0.0001422730871234267 0.9999999448791835
vn 0.00029999999771298966 0.0001422730871234267 0.9999999448791835
vn 0.00029999999771298966 0.0001422730871234267 0.9999999448791835
vn 0.0003999999538468308 0.00014227308214387064 0.9999999098791995
vn -1 0 0
vn -0.9999999098791995 0.00014227308214387064 0.0003999999538468308
vn -1 0 0
vn -1 0 0
vn -1 0 0
vn -0.9999999098791995 0.00014227308214387064 0.0003999999538468308
vn 1 0 0
vn 1 0 0
vn 1 0 0
vn 1 0 0
vn 1 0 0
vn 1 0 0
vn 1 0 0
vn 1 0 0
vn 1 0 0
vn 1 0 0
vn 1 0 0
vn 1 0 0
vn -1 0 0
vn -1 0 0
vn -1 0 0
vn -1 0 0
vn -1 0 0
vn -1 0 0
f 1/1/1 2/2/2 3/3/3
f 4/4/4 5/5/5 6/6/6
f 7/7/7 8/8/8 9/9/9
f 10/10/10 11/11/11 12/12/12
f 13/13/13 14/14/14 15/15/15
f 16/16/16 17/17/17 18/18/18
f 19/19/19 20/20/20 21/21/21
f 22/22/22 23/23/23 24/24/24
f 25/25/25 26/26/26 27/27/27
f 28/28/28 29/29/29 30/30/30
f 31/31/31 32/32/32 33/33/33
f 34/34/34 35/35/35 36/36/36
f 37/37/37 38/38/38 39/39/39
f 40/40/40 41/41/41 42/42/42
f 43/43/43 44/44/44 45/45/45
f 46/46/46 47/47/47 48/48/48
f 49/49/49 50/50/50 51/51/51
f 52/52/52 53/53/53 54/54/54
f 55/55/55 56/56/56 57/57/57
f 58/58/58 59/59/59 60/60/60
f 61/61/61 62/62/62 63/63/63
f 64/64/64 65/65/65 66/66/66
f 67/67/67 68/68/68 69/69/69
f 70/70/70 71/71/71 72/72/72
f 73/73/73 74/74/74 75/75/75
f 76/76/76 77/77/77 78/78/78
f 79/79/79 80/80/80 81/81/81
f 82/82/82 83/83/83 84/84/84
f 85/85/85 86/86/86 87/87/87
f 88/88/88 89/89/89 90/90/90
f 91/91/91 92/92/92 93/93/93
f 94/94/94 95/95/95 96/96/96
f 97/97/97 98/98/98 99/99/99
f 100/100/100 101/101/101 102/102/102
f 103/103/103 104/104/104 105/105/105
f 106/106/106 107/107/107 108/108/108
o Cube_Cube_84400213566758
v 0.6786819827593212 -0.17649643361524148 0.03086917300159875
v 0.13144199371703913 -0.06403666571574698 0.03086917300159875
v 0.13144199371703913 -0.06403666571574698 0.18911317188675347
v 0.6786819827593212 -0.17649643361524148 0.03086917300159875
v 0.13144199371703913 -0.06403666571574698 0.18911317188675347
v 0.6786819827593212 -0.17649643361524148 0.18911317188675347
v 0.13144199371703913 -0.06403666571574698 0.03086917300159875
v 0.13144199371703913 -0.7068004840283392 0.03086917300159875
v 0.13144199371703913 -0.7068004840283392 0.18911317188675347
v 0.13144199371703913 -0.06403666571574698 0.03086917300159875
v 0.13144199371703913 -0.7068004840283392 0.18911317188675347
v 0.13144199371703913 -0.06403666571574698 0.18911317188675347
v 0.13144199371703913 -0.7068004840283392 0.18911317188675347
v 0.11758298993476679 -0.7405130954394844 0.026862168800186548
v 0.11758298993476679 -0.7405130954394844 0.19312017608816567
v 0.11758298993476679 -0.7405130954394844 0.026862168800186548
v 0.13144199371703913 -0.7068004840283392 0.18911317188675347
v 0.13144199371703913 -0.7068004840283392 0.03086917300159875
v 0.11758298993476679 -0.8185320621690871 0.026862168800186548
v 0.11758298993476679 -0.7405130954394844 0.19312017608816567
v 0.11758298993476679 -0.7405130954394844 0.026862168800186548
v 0.11758298993476679 -0.7405130954394844 0.19312017608816567
v 0.11758298993476679 -0.8185320621690871 0.026862168800186548
v 0.11758298993476679 -0.8185320621690871 0.19312017608816567
v 0.6786819827593212 -0.17649643361524148 0.18911317188675347
v 0.6786819827593212 -0.8192602309805691 0.03086917300159875
v 0.6786819827593212 -0.17649643361524148 0.03086917300159875
v 0.6786819827593212 -0.8192602309805691 0.03086917300159875
v 0.6786819827593212 -0.17649643361524148 0.18911317188675347
v 0.6786819827593212 -0.8192602309805691 0.18911317188675347
v 0.6786819827593212 -0.8192602309805691 0.03086917300159875
v 0.6786819827593212 -0.8192602309805691 0.18911317188675347
v 0.6925409865415936 -0.858668948261084 0.19312017608816567
v 0.6925409865415936 -0.858668948261084 0.19312017608816567
v 0.6925409865415936 -0.858668948261084 0.026862168800186548
v 0.6786819827593212 -0.8192602309805691 0.03086917300159875
v 0.6925409865415936 -0.858668948261084 0.026862168800186548
v 0.6925409865415936 -0.858668948261084 0.19312017608816567
v 0.6925409865415936 -0.9366879149906867 0.19312017608816567
v 0.6925409865415936 -0.9366879149906867 0.19312017608816567
v 0.6925409865415936 -0.9366879149906867 0.026862168800186548
v 0.6925409865415936 -0.858668948261084 0.026862168800186548
v 0.11758298993476679 -0.8185320621690871 0.026862168800186548
v 0.6925409865415936 -0.9366879149906867 0.026862168800186548
v 0.6925409865415936 -0.9366879149906867 0.19312017608816567
v 0.11758298993476679 -0.8185320621690871 0.026862168800186548
v 0.6925409865415936 -0.9366879149906867 0.19312017608816567
v 0.11758298993476679 -0.8185320621690871 0.19312017608816567
v 0.11758298993476679 -0.8185320621690871 0.19312017608816567
v 0.6925409865415936 -0.9366879149906867 0.19312017608816567
v 0.6925409865415936 -0.858668948261084 0.19312017608816567
v 0.11758298993476679 -0.8185320621690871 0.19312017608816567
v 0.6925409865415936 -0.858668948261084 0.19312017608816567
v 0.11758298993476679 -0.7405130954394844 0.19312017608816567
v 0.6925409865415936 -0.858668948261084 0.026862168800186548
v 0.11758298993476679 -0.8185320621690871 0.026862168800186548
v 0.11758298993476679 -0.7405130954394844 0.026862168800186548
v 0.11758298993476679 -0.8185320621690871 0.026862168800186548
v 0.6925409865415936 -0.858668948261084 0.026862168800186548
v 0.6925409865415936 -0.9366879149906867 0.026862168800186548
v 0.13144199371703913 -0.7068004840283392 0.18911317188675347
v 0.6786819827593212 -0.17649643361524148 0.18911317188675347
v 0.13144199371703913 -0.06403666571574698 0.18911317188675347
v 0.6786819827593212 -0.17649643361524148 0.18911317188675347
v 0.13144199371703913 -0.7068004840283392 0.18911317188675347
v 0.6786819827593212 -0.8192602309805691 0.18911317188675347
v 0.6786819827593212 -0.17649643361524148 0.03086917300159875
v 0.13144199371703913 -0.7068004840283392 0.03086917300159875
v 0.13144199371703913 -0.06403666571574698 0.03086917300159875
v 0.13144199371703913 -0.7068004840283392 0.03086917300159875
v 0.6786819827593212 -0.17649643361524148 0.03086917300159875
v 0.6786819827593212 -0.8192602309805691 0.03086917300159875
v 0.6786819827593212 -0.8192602309805691 0.03086917300159875
v 0.11758298993476679 -0.7405130954394844 0.026862168800186548
v 0.13144199371703913 -0.7068004840283392 0.03086917300159875
v 0.11758298993476679 -0.7405130954394844 0.026862168800186548
v 0.6786819827593212 -0.8192602309805691 0.03086917300159875
v 0.6925409865415936 -0.858668948261084 0.026862168800186548
v 0.11758298993476679 -0.7405130954394844 0.19312017608816567
v 0.6925409865415936 -0.858668948261084 0.19312017608816567
v 0.6786819827593212 -0.8192602309805691 0.18911317188675347
v 0.11758298993476679 -0.7405130954394844 0.19312017608816567
v 0.6786819827593212 -0.8192602309805691 0.18911317188675347
v 0.13144199371703913 -0.7068004840283392 0.18911317188675347
vt 0.875 0.75
vt 0.625 0.75
vt 0.625 0.5
vt 0.875 0.75
vt 0.625 0.5
vt 0.875 0.5
vt 0.625 0.75
vt 0.375 0.75
vt 0.375 0.5
vt 0.625 0.75
vt 0.375 0.5
vt 0.625 0.5
vt 0.375 0.5
vt 0.375 0.75
vt 0.375 0.5
vt 0.375 0.75
vt 0.375 0.5
vt 0.375 0.75
vt 0.375 0.75
vt 0.375 0.5
vt 0.375 0.75
vt 0.375 0.5
vt 0.375 0.75
vt 0.375 0.5
vt 0.625 0.25
vt 0.375 0
vt 0.625 0
vt 0.375 0
vt 0.625 0.25
vt 0.375 0.25
vt 0.375 0
vt 0.375 0.25
vt 0.375 0.25
vt 0.375 0.25
vt 0.375 0
vt 0.375 0
vt 0.375 0
vt 0.375 0.25
vt 0.375 0.25
vt 0.375 0.25
vt 0.375 0
vt 0.375 0
vt 0.375 0.75
vt 0.125 0.75
vt 0.125 0.5
vt 0.375 0.75
vt 0.125 0.5
vt 0.375 0.5
vt 0.375 0.5
vt 0.375 0.25
vt 0.375 0.25
vt 0.375 0.5
vt 0.375 0.25
vt 0.375 0.5
vt 0.375 1
vt 0.375 0.75
vt 0.375 0.75
vt 0.375 0.75
vt 0.375 1
vt 0.375 1
vt 0.375 0.5
vt 0.625 0.25
vt 0.625 0.5
vt 0.625 0.25
vt 0.375 0.5
vt 0.375 0.25
vt 0.625 1
vt 0.375 0.75
vt 0.625 0.75
vt 0.375 0.75
vt 0.625 1
vt 0.375 1
vt 0.375 1
vt 0.375 0.75
vt 0.375 0.75
vt 0.375 0.75
vt 0.375 1
vt 0.375 1
vt 0.375 0.5
vt 0.375 0.25
vt 0.375 0.25
vt 0.375 0.5
vt 0.375 0.25
vt 0.375 0.5
vn 0.20191297112121506 0.9794032203309158 0.0006957718268848144
vn 0.20191297112121506 0.9794032203309158 0.0006957718268848144
vn 0.20191297112121506 0.9794032203309158 0.0006957718268848144
vn 0.20191297112121506 0.9794032203309158 0.0006957718268848144
vn 0.20191297112121506 0.9794032203309158 0.0006957718268848144
vn 0.20191297112121506 0.9794032203309158 0.0006957718268848144
vn -1 0 0
vn -0.9793791228738653 0.2020303781620761 0.000509880874827517
vn -0.9793792501826512 0.20203040442385928 0
vn -1 0 0
vn -0.9793792501826512 0.20203040442385928 0
vn -1 0 0
vn -0.9793504062637648 0.2021695372397578 0.0005098659244881252
vn -0.9854159160499611 0.17016232056720532 0.0005070055223125599
vn -0.9854159160499611 0.17016232056720532 0.0005070055223125599
vn -0.9854159160499611 0.17016232056720532 0.0005070055223125599
vn -0.9793504062637648 0.2021695372397578 0.0005098659244881252
vn -0.9793504062637648 0.2021695372397578 0.0005098659244881252
vn -1 0 0
vn -0.985440097794071 0.17002222381911114 0.0005070179640415834
vn -0.985440097794071 0.17002222381911114 0.0005070179640415834
vn -0.985440097794071 0.17002222381911114 0.0005070179640415834
vn -1 0 0
vn -1 0 0
vn 1 0 0
vn 0.9845423803458744 0.17514651381880147 0
vn 1 0 0
vn 0.9845423803458744 0.17514651381880147 0
vn 1 0 0
vn 0.9845422535864612 0.17514649126876222 0.0005074437248554672
vn 0.9845298017023573 0.17521647202045929 0.0005074373070197389
vn 0.9845298017023573 0.17521647202045929 0.0005074373070197389
vn 0.9885939947966682 0.15060430904177616 0.0005055195489819486
vn 0.9885939947966682 0.15060430904177616 0.0005055195489819486
vn 0.9885939947966682 0.15060430904177616 0.0005055195489819486
vn 0.9845298017023573 0.17521647202045929 0.0005074373070197389
vn 0.9885939947966682 0.15060430904177616 0.0005055195489819486
vn 0.9885939947966682 0.15060430904177616 0.0005055195489819486
vn 1 0 0
vn 1 0 0
vn 1 0 0
vn 0.9885939947966682 0.15060430904177616 0.0005055195489819486
vn -0.20204642743269313 -0.9793755888826677 0.0008349026368768311
vn -0.20191297112121506 -0.9794032203309158 0.0006957718268848144
vn -0.20204642743269313 -0.9793755888826677 0.0008349026368768311
vn -0.20204642743269313 -0.9793755888826677 0.0008349026368768311
vn -0.20204642743269313 -0.9793755888826677 0.0008349026368768311
vn -0.20204642743269313 -0.9793755888826677 0.0008349026368768311
vn 0.00029999999771298966 0.0001422730871234267 0.9999999448791835
vn 0.00029999999771298966 0.0001422730871234267 0.9999999448791835
vn 0.008305808106899884 0.03915248115096444 0.9991987273667909
vn 0.00029999999771298966 0.0001422730871234267 0.9999999448791835
vn 0.008305808106899884 0.03915248115096444 0.9991987273667909
vn 0.010211795442447128 0.04885610301477448 0.9987536234888218
vn 0.008305808106899884 0.03915248115096444 -0.9991987273667909
vn 0.00029999999771298966 0.0001422730871234267 -0.9999999448791835
vn 0.010211795442447128 0.04885610301477448 -0.9987536234888218
vn 0.00029999999771298966 0.0001422730871234267 -0.9999999448791835
vn 0.008305808106899884 0.03915248115096444 -0.9991987273667909
vn 0.00029999999771298966 0.0001422730871234267 -0.9999999448791835
vn 0.011217966633478238 0.05721428753635122 0.9982988943829989
vn 0.00029999999771298966 0.0001422730871234267 0.9999999448791835
vn 0.00029999999771298966 0.0001422730871234267 0.9999999448791835
vn 0.00029999999771298966 0.0001422730871234267 0.9999999448791835
vn 0.011217966633478238 0.05721428753635122 0.9982988943829989
vn 0.01322653479706515 0.0649356692143089 0.9978017927629474
vn 0.00029999999771298966 0.0001422730871234267 -0.9999999448791835
vn 0.011217966633478238 0.05721428753635122 -0.9982988943829989
vn 0.00029999999771298966 0.0001422730871234267 -0.9999999448791835
vn 0.011217966633478238 0.05721428753635122 -0.9982988943829989
vn 0.00029999999771298966 0.0001422730871234267 -0.9999999448791835
vn 0.01322653479706515 0.0649356692143089 -0.9978017927629474
vn 0.01322653479706515 0.0649356692143089 -0.9978017927629474
vn 0.010311864409740834 0.04892710239721845 -0.9987491197009424
vn 0.011217966633478238 0.05721428753635122 -0.9982988943829989
vn 0.010311864409740834 0.04892710239721845 -0.9987491197009424
vn 0.01322653479706515 0.0649356692143089 -0.9978017927629474
vn 0.008305808106899884 0.03915248115096444 -0.9991987273667909
vn 0.010311864409740834 0.04892710239721845 0.9987491197009424
vn 0.008305808106899884 0.03915248115096444 0.9991987273667909
vn 0.01322653479706515 0.0649356692143089 0.9978017927629474
vn 0.010311864409740834 0.04892710239721845 0.9987491197009424
vn 0.01322653479706515 0.0649356692143089 0.9978017927629474
vn 0.011217920877249134 0.0572853004421532 0.9982948224870467
f 109/109/109 110/110/110 111/111/111
f 112/112/112 113/113/113 114/114/114
f 115/115/115 116/116/116 117/117/117
f 118/118/118 119/119/119 120/120/120
f 121/121/121 122/122/122 123/123/123
f 124/124/124 125/125/125 126/126/126
f 127/127/127 128/128/128 129/129/129
f 130/130/130 131/131/131 132/132/132
f 133/133/133 134/134/134 135/135/135
f 136/136/136 137/137/137 138/138/138
f 139/139/139 140/140/140 141/141/141
f 142/142/142 143/143/143 144/144/144
f 145/145/145 146/146/146 147/147/147
f 148/148/148 149/149/149 150/150/150
f 151/151/151 152/152/152 153/153/153
f 154/154/154 155/155/155 156/156/156
f 157/157/157 158/158/158 159/159/159
f 160/160/160 161/161/161 162/162/162
f 163/163/163 164/164/164 165/165/165
f 166/166/166 167/167/167 168/168/168
f 169/169/169 170/170/170 171/171/171
f 172/172/172 173/173/173 174/174/174
f 175/175/175 176/176/176 177/177/177
f 178/178/178 179/179/179 180/180/180
f 181/181/181 182/182/182 183/183/183
f 184/184/184 185/185/185 186/186/186
f 187/187/187 188/188/188 189/189/189
f 190/190/190 191/191/191 192/192/192
