# Blender 5.2.0 LTS
# www.blender.org
mtllib mag.mtl
o RenderMesh_71340445933820
v 0.144305 0.281229 -0.083285
v -0.165722 0.338382 0.077702
v 0.144305 0.281229 0.077702
v -0.165722 0.338382 -0.083285
v 0.144305 0.281229 0.077702
v 0.159605 0.160943 0.077702
v 0.159605 0.160943 -0.083285
v 0.144305 0.281229 -0.083285
v 0.163959 0.042675 -0.083285
v 0.163959 0.042675 0.077702
v 0.148688 -0.071975 -0.083285
v 0.148689 -0.071975 0.077702
v 0.113793 -0.183007 -0.083285
v 0.113793 -0.183007 0.077702
v 0.067953 -0.292022 -0.083285
v 0.067953 -0.292022 0.077702
v 0.093380 -0.338382 0.093801
v 0.093380 -0.338382 -0.099384
v -0.165722 0.338382 0.077702
v -0.165722 0.338382 -0.083285
v -0.150422 0.218096 0.077702
v -0.150422 0.218096 -0.083285
v -0.146067 0.099828 0.077702
v -0.146067 0.099828 -0.083285
v -0.161337 -0.014822 0.077702
v -0.161337 -0.014822 -0.083285
v -0.196232 -0.125854 0.077702
v -0.196232 -0.125854 -0.083285
v -0.242074 -0.234869 0.077702
v -0.242074 -0.234869 -0.083285
v -0.278651 -0.269799 -0.099384
v -0.278651 -0.269799 0.093801
v 0.144305 0.281229 0.077702
v -0.150422 0.218096 0.077702
v 0.159605 0.160943 0.077702
v -0.165722 0.338382 0.077702
v -0.146067 0.099828 0.077702
v 0.163959 0.042675 0.077702
v -0.161337 -0.014822 0.077702
v 0.148689 -0.071975 0.077702
v 0.113793 -0.183007 0.077702
v -0.196232 -0.125854 0.077702
v 0.067953 -0.292022 0.077702
v -0.242074 -0.234869 0.077702
v 0.093380 -0.338382 0.093801
v -0.278651 -0.269799 0.093801
v -0.165722 0.338382 -0.083285
v 0.144305 0.281229 -0.083285
v -0.150422 0.218096 -0.083285
v 0.159605 0.160943 -0.083285
v -0.146067 0.099828 -0.083285
v 0.163959 0.042675 -0.083285
v 0.148688 -0.071975 -0.083285
v -0.161337 -0.014822 -0.083285
v 0.113793 -0.183007 -0.083285
v -0.196232 -0.125854 -0.083285
v 0.067953 -0.292022 -0.083285
v -0.242074 -0.234869 -0.083285
v 0.093380 -0.338382 -0.099384
v -0.278651 -0.269799 -0.099384
vn 0.1813 0.9834 -0.0000
vn 0.9920 0.1262 -0.0000
vn 0.9967 0.0815 -0.0000
vn 0.9989 -0.0477 -0.0000
vn 0.9764 -0.2162 -0.0000
vn 0.9390 -0.3439 -0.0000
vn 0.9956 0.0942 -0.0000
vn 0.8768 0.4809 -0.0000
vn -0.9920 -0.1262 -0.0000
vn -0.9967 -0.0815 -0.0000
vn -0.9989 0.0477 -0.0000
vn -0.9764 0.2162 -0.0000
vn -0.9390 0.3439 -0.0000
vn -0.8160 0.5781 -0.0000
vn -0.6906 0.7232 -0.0000
vn -0.0000 -0.0000 1.0000
vn 0.0364 0.1975 0.9796
vn 0.0428 0.2320 0.9718
vn 0.0663 0.3596 0.9308
vn -0.0000 -0.0000 -1.0000
vn 0.0364 0.1975 -0.9796
vn 0.0428 0.2320 -0.9718
vn 0.0663 0.3596 -0.9308
vt 0.000000 0.000000
s 1
f 1/1/1 2/1/1 3/1/1
f 2/1/1 1/1/1 4/1/1
f 5/1/2 6/1/3 7/1/3
f 5/1/2 7/1/3 8/1/2
f 6/1/3 9/1/4 7/1/3
f 6/1/3 10/1/4 9/1/4
f 10/1/4 11/1/5 9/1/4
f 10/1/4 12/1/5 11/1/5
f 12/1/5 13/1/6 11/1/5
f 12/1/5 14/1/6 13/1/6
f 14/1/6 15/1/7 13/1/6
f 16/1/7 15/1/7 14/1/6
f 17/1/8 15/1/7 16/1/7
f 17/1/8 18/1/8 15/1/7
f 19/1/9 20/1/9 21/1/10
f 21/1/10 20/1/9 22/1/10
f 21/1/10 22/1/10 23/1/11
f 23/1/11 22/1/10 24/1/11
f 23/1/11 24/1/11 25/1/12
f 25/1/12 24/1/11 26/1/12
f 26/1/12 27/1/13 25/1/12
f 27/1/13 26/1/12 28/1/13
f 28/1/13 29/1/14 27/1/13
f 29/1/14 28/1/13 30/1/14
f 31/1/15 29/1/14 30/1/14
f 31/1/15 32/1/15 29/1/14
f 33/1/16 34/1/16 35/1/16
f 34/1/16 33/1/16 36/1/16
f 37/1/16 35/1/16 34/1/16
f 35/1/16 37/1/16 38/1/16
f 39/1/16 38/1/16 37/1/16
f 38/1/16 39/1/16 40/1/16
f 39/1/16 41/1/16 40/1/16
f 41/1/16 39/1/16 42/1/16
f 41/1/16 42/1/16 43/1/17
f 43/1/17 42/1/16 44/1/18
f 44/1/18 45/1/19 43/1/17
f 45/1/19 44/1/18 46/1/19
f 47/1/20 48/1/20 49/1/20
f 50/1/20 49/1/20 48/1/20
f 49/1/20 50/1/20 51/1/20
f 52/1/20 51/1/20 50/1/20
f 53/1/20 51/1/20 52/1/20
f 51/1/20 53/1/20 54/1/20
f 55/1/20 54/1/20 53/1/20
f 54/1/20 55/1/20 56/1/20
f 57/1/21 56/1/20 55/1/20
f 56/1/20 57/1/21 58/1/22
f 59/1/23 58/1/22 57/1/21
f 59/1/23 60/1/23 58/1/22
o RenderMesh_139173219299867
v -0.287216 -0.344768 -0.093800
v 0.084816 -0.413353 0.099384
v -0.287216 -0.344768 0.099384
v 0.084816 -0.413353 -0.093800
v -0.287216 -0.344768 -0.093800
v -0.287216 -0.344768 0.099384
v -0.279458 -0.268593 0.099384
v -0.279458 -0.268593 -0.093800
v 0.084816 -0.413353 0.099384
v 0.092573 -0.337176 -0.093800
v 0.092573 -0.337176 0.099384
v 0.084816 -0.413353 -0.093800
v 0.100932 0.010531 0.091298
v 0.126786 0.046676 0.091298
v 0.115233 0.055422 0.103888
v 0.132983 0.098648 0.103259
v 0.089380 0.017410 0.103634
v 0.145948 0.096159 0.091298
v 0.039204 -0.076567 0.091298
v 0.132102 0.141265 0.103229
v 0.030145 -0.064214 0.103638
v 0.144200 0.146227 0.091298
v 0.001795 -0.106568 0.103638
v 0.120507 0.182555 0.091298
v 0.013144 -0.116404 0.091298
v 0.112305 0.172600 0.102450
v -0.012165 -0.135717 0.103628
v 0.087414 0.196228 0.091298
v 0.001048 -0.142072 0.091298
v 0.086779 0.182137 0.102475
v -0.015191 -0.162873 0.103627
v 0.063393 0.191805 0.091298
v -0.000889 -0.162186 0.091298
v 0.066829 0.179230 0.102432
v -0.009060 -0.188688 0.103622
v 0.039377 0.162761 0.091298
v 0.003864 -0.181319 0.091298
v 0.049453 0.155933 0.102426
v 0.014133 -0.194071 0.091298
v 0.040000 0.115096 0.091298
v 0.007284 -0.209110 0.103607
v 0.049946 0.121794 0.102397
v 0.030022 -0.198051 0.091298
v 0.066337 0.108184 0.102405
v 0.032896 -0.212560 0.102133
v 0.066407 0.094675 0.091298
v 0.044013 -0.192580 0.091298
v 0.094987 0.109685 0.091298
v 0.088666 0.117585 0.100470
v 0.091617 0.147072 0.091298
v 0.051524 -0.202899 0.101059
v 0.053157 -0.177690 0.091298
v 0.063665 -0.181618 0.100761
v 0.057257 -0.161810 0.091298
v 0.066848 -0.159058 0.099609
v 0.050944 -0.145911 0.091298
v 0.057284 -0.137601 0.099282
v 0.044245 -0.140538 0.091298
v 0.044953 -0.129807 0.098817
v 0.038519 -0.141416 0.091298
v 0.033830 -0.134073 0.097889
v 0.018492 -0.148190 0.091298
v 0.126786 0.046676 -0.085716
v 0.100932 0.010531 -0.085716
v 0.115233 0.055422 -0.098305
v 0.089380 0.017410 -0.098051
v 0.132983 0.098648 -0.097676
v 0.039204 -0.076567 -0.085716
v 0.145948 0.096159 -0.085716
v 0.030145 -0.064214 -0.098055
v 0.132101 0.141265 -0.097646
v 0.001795 -0.106568 -0.098054
v 0.144200 0.146227 -0.085716
v 0.013144 -0.116404 -0.085715
v 0.120507 0.182555 -0.085716
v -0.012165 -0.135717 -0.098044
v 0.112305 0.172600 -0.096867
v 0.001048 -0.142072 -0.085715
v 0.087414 0.196228 -0.085716
v -0.015191 -0.162873 -0.098044
v 0.086779 0.182137 -0.096892
v -0.000889 -0.162186 -0.085715
v 0.063393 0.191805 -0.085716
v -0.009060 -0.188688 -0.098038
v 0.066829 0.179230 -0.096849
v 0.003864 -0.181319 -0.085715
v 0.039377 0.162761 -0.085716
v 0.014133 -0.194071 -0.085715
v 0.049453 0.155933 -0.096842
v 0.007284 -0.209110 -0.098024
v 0.040000 0.115096 -0.085716
v 0.030022 -0.198051 -0.085715
v 0.049946 0.121794 -0.096814
v 0.032896 -0.212560 -0.096549
v 0.066337 0.108184 -0.096822
v 0.044013 -0.192580 -0.085715
v 0.066407 0.094675 -0.085716
v 0.051524 -0.202899 -0.095477
v 0.094987 0.109685 -0.085716
v 0.088666 0.117585 -0.094888
v 0.091617 0.147072 -0.085716
v 0.053157 -0.177690 -0.085715
v 0.063664 -0.181618 -0.095178
v 0.057257 -0.161810 -0.085716
v 0.066848 -0.159058 -0.094025
v 0.050944 -0.145911 -0.085716
v 0.057284 -0.137601 -0.093699
v 0.044245 -0.140538 -0.085716
v 0.044953 -0.129807 -0.093233
v 0.038519 -0.141416 -0.085716
v 0.033830 -0.134073 -0.092306
v 0.018492 -0.148190 -0.085715
v -0.038749 0.065138 0.103888
v -0.021000 0.108366 0.103259
v -0.034823 0.110882 0.091298
v -0.051255 0.074510 0.091298
v -0.035446 0.145664 0.091298
v -0.064602 0.027128 0.103634
v -0.021881 0.150981 0.103230
v -0.076330 0.033262 0.091298
v -0.041678 0.182317 0.102450
v -0.123838 -0.054498 0.103638
v -0.050671 0.170387 0.091298
v -0.132962 -0.042123 0.091298
v -0.067203 0.191852 0.102475
v -0.163313 -0.087142 0.091298
v -0.068255 0.176153 0.091298
v -0.152189 -0.096851 0.103638
v -0.082042 0.174641 0.091298
v -0.178716 -0.119702 0.091298
v -0.087154 0.188946 0.102432
v -0.166147 -0.125999 0.103628
v -0.104530 0.165648 0.102426
v -0.182814 -0.153694 0.091298
v -0.092111 0.159296 0.091298
v -0.169173 -0.153155 0.103627
v -0.091850 0.139488 0.091298
v -0.175367 -0.185677 0.091298
v -0.104037 0.131509 0.102397
v -0.163043 -0.178971 0.103622
v -0.086304 0.133996 0.091298
v -0.153105 -0.213326 0.091298
v -0.087646 0.117900 0.102405
v -0.146699 -0.199393 0.103607
v -0.074046 0.136976 0.091298
v -0.065317 0.127301 0.100470
v -0.062366 0.156790 0.091298
v -0.118138 -0.216383 0.091298
v -0.121086 -0.202845 0.102132
v -0.102460 -0.193182 0.101059
v -0.095468 -0.202590 0.091298
v -0.090319 -0.171903 0.100761
v -0.080338 -0.175289 0.091298
v -0.087135 -0.149343 0.099609
v -0.078635 -0.146204 0.091298
v -0.096699 -0.127884 0.099282
v -0.091272 -0.120042 0.091298
v -0.109030 -0.120092 0.098817
v -0.108738 -0.110745 0.091298
v -0.124690 -0.117981 0.091298
v -0.120153 -0.124356 0.097889
v -0.135491 -0.138473 0.091298
v -0.021000 0.108366 -0.097676
v -0.038749 0.065138 -0.098305
v -0.034823 0.110882 -0.085715
v -0.051255 0.074510 -0.085715
v -0.035446 0.145664 -0.085715
v -0.064602 0.027128 -0.098050
v -0.021881 0.150981 -0.097646
v -0.076330 0.033262 -0.085715
v -0.041679 0.182317 -0.096867
v -0.123838 -0.054498 -0.098055
v -0.050671 0.170387 -0.085715
v -0.132962 -0.042123 -0.085715
v -0.067203 0.191852 -0.096892
v -0.163313 -0.087142 -0.085715
v -0.068255 0.176153 -0.085715
v -0.152189 -0.096851 -0.098054
v -0.082042 0.174641 -0.085715
v -0.178716 -0.119702 -0.085715
v -0.087154 0.188946 -0.096849
v -0.166147 -0.125999 -0.098044
v -0.104530 0.165648 -0.096842
v -0.182814 -0.153694 -0.085715
v -0.092111 0.159296 -0.085715
v -0.169173 -0.153155 -0.098044
v -0.091850 0.139488 -0.085715
v -0.175367 -0.185677 -0.085715
v -0.104037 0.131509 -0.096813
v -0.163043 -0.178971 -0.098038
v -0.086304 0.133996 -0.085715
v -0.153105 -0.213326 -0.085715
v -0.087646 0.117900 -0.096822
v -0.146699 -0.199393 -0.098024
v -0.074046 0.136976 -0.085715
v -0.065317 0.127301 -0.094888
v -0.062366 0.156790 -0.085715
v -0.118138 -0.216383 -0.085715
v -0.121086 -0.202845 -0.096549
v -0.102459 -0.193182 -0.095477
v -0.095468 -0.202590 -0.085715
v -0.090319 -0.171903 -0.095177
v -0.080339 -0.175289 -0.085715
v -0.087135 -0.149343 -0.094025
v -0.078635 -0.146204 -0.085715
v -0.096699 -0.127884 -0.093699
v -0.091272 -0.120042 -0.085715
v -0.109030 -0.120092 -0.093233
v -0.108738 -0.110745 -0.085715
v -0.124690 -0.117981 -0.085715
v -0.120153 -0.124356 -0.092306
v -0.135490 -0.138473 -0.085715
v -0.287216 -0.344768 -0.093800
v 0.092573 -0.337176 -0.093800
v 0.084816 -0.413353 -0.093800
v -0.279458 -0.268593 -0.093800
v 0.092573 -0.337176 0.099384
v -0.279458 -0.268593 0.099384
v -0.287216 -0.344768 0.099384
v 0.084816 -0.413353 0.099384
v -0.053051 0.020247 0.091298
v -0.027198 0.056392 0.091298
v -0.038749 0.065138 0.103888
v -0.021000 0.108366 0.103259
v -0.064602 0.027128 0.103634
v -0.008035 0.105875 0.091298
v -0.114779 -0.066851 0.091298
v -0.021881 0.150981 0.103230
v -0.123838 -0.054498 0.103638
v -0.009782 0.155943 0.091298
v -0.152189 -0.096851 0.103638
v -0.033475 0.192270 0.091298
v -0.140839 -0.106689 0.091298
v -0.041678 0.182317 0.102450
v -0.166147 -0.125999 0.103628
v -0.066569 0.205945 0.091298
v -0.152934 -0.132355 0.091298
v -0.067203 0.191852 0.102475
v -0.169173 -0.153155 0.103627
v -0.090590 0.201520 0.091298
v -0.154871 -0.152469 0.091298
v -0.087154 0.188946 0.102432
v -0.163043 -0.178971 0.103622
v -0.114605 0.172477 0.091298
v -0.150119 -0.171604 0.091298
v -0.104530 0.165648 0.102426
v -0.139850 -0.184356 0.091298
v -0.113983 0.124812 0.091298
v -0.146699 -0.199393 0.103607
v -0.104037 0.131509 0.102397
v -0.123960 -0.188334 0.091298
v -0.087646 0.117900 0.102405
v -0.121086 -0.202845 0.102132
v -0.087575 0.104391 0.091298
v -0.109971 -0.182865 0.091298
v -0.058996 0.119401 0.091298
v -0.065317 0.127301 0.100470
v -0.062366 0.156790 0.091298
v -0.102460 -0.193182 0.101059
v -0.100826 -0.167973 0.091298
v -0.090319 -0.171903 0.100761
v -0.096725 -0.152093 0.091298
v -0.087135 -0.149343 0.099609
v -0.103038 -0.136193 0.091298
v -0.096699 -0.127884 0.099282
v -0.109738 -0.130821 0.091298
v -0.109030 -0.120092 0.098817
v -0.115464 -0.131699 0.091298
v -0.120153 -0.124356 0.097889
v -0.135491 -0.138473 0.091298
v -0.027198 0.056392 -0.085715
v -0.053051 0.020247 -0.085715
v -0.038749 0.065138 -0.098305
v -0.064602 0.027128 -0.098050
v -0.021000 0.108366 -0.097676
v -0.114779 -0.066851 -0.085715
v -0.008035 0.105875 -0.085715
v -0.123838 -0.054498 -0.098055
v -0.021881 0.150981 -0.097646
v -0.152189 -0.096851 -0.098054
v -0.009782 0.155943 -0.085715
v -0.140839 -0.106689 -0.085715
v -0.033475 0.192270 -0.085715
v -0.166147 -0.125999 -0.098044
v -0.041679 0.182317 -0.096867
v -0.152934 -0.132355 -0.085715
v -0.066569 0.205945 -0.085715
v -0.169173 -0.153155 -0.098044
v -0.067203 0.191852 -0.096892
v -0.154871 -0.152469 -0.085715
v -0.090590 0.201520 -0.085715
v -0.163043 -0.178971 -0.098038
v -0.087154 0.188946 -0.096849
v -0.150119 -0.171604 -0.085715
v -0.114605 0.172477 -0.085715
v -0.139850 -0.184356 -0.085715
v -0.104530 0.165648 -0.096842
v -0.146699 -0.199393 -0.098024
v -0.113983 0.124812 -0.085715
v -0.123960 -0.188334 -0.085715
v -0.104037 0.131509 -0.096813
v -0.121086 -0.202845 -0.096549
v -0.087646 0.117900 -0.096822
v -0.109971 -0.182865 -0.085715
v -0.087575 0.104391 -0.085715
v -0.102459 -0.193182 -0.095477
v -0.058996 0.119401 -0.085715
v -0.065317 0.127301 -0.094888
v -0.062366 0.156790 -0.085715
v -0.100826 -0.167973 -0.085715
v -0.090319 -0.171903 -0.095177
v -0.096725 -0.152093 -0.085715
v -0.087135 -0.149343 -0.094025
v -0.103038 -0.136193 -0.085715
v -0.096699 -0.127884 -0.093699
v -0.109738 -0.130821 -0.085715
v -0.109030 -0.120092 -0.093233
v -0.115464 -0.131699 -0.085715
v -0.120153 -0.124356 -0.092306
v -0.135490 -0.138473 -0.085715
v 0.115233 0.055422 0.103888
v 0.132983 0.098648 0.103259
v 0.119159 0.101166 0.091298
v 0.102727 0.064794 0.091298
v 0.118536 0.135949 0.091298
v 0.089380 0.017410 0.103634
v 0.132102 0.141265 0.103229
v 0.077653 0.023546 0.091298
v 0.112305 0.172600 0.102450
v 0.030145 -0.064214 0.103638
v 0.103312 0.160672 0.091298
v 0.021021 -0.051839 0.091298
v 0.086779 0.182137 0.102475
v -0.009330 -0.096858 0.091298
v 0.085728 0.166436 0.091298
v 0.001795 -0.106568 0.103638
v 0.071941 0.164924 0.091298
v -0.024734 -0.129418 0.091298
v 0.066829 0.179230 0.102432
v -0.012165 -0.135717 0.103628
v 0.049453 0.155933 0.102426
v -0.028832 -0.163412 0.091298
v 0.061873 0.149580 0.091298
v -0.015191 -0.162873 0.103627
v 0.062134 0.129772 0.091298
v -0.021384 -0.195394 0.091298
v 0.049946 0.121794 0.102397
v -0.009060 -0.188688 0.103622
v 0.067679 0.124280 0.091298
v 0.000878 -0.223044 0.091298
v 0.066337 0.108184 0.102405
v 0.007284 -0.209110 0.103607
v 0.079937 0.127259 0.091298
v 0.088666 0.117585 0.100470
v 0.091617 0.147072 0.091298
v 0.035845 -0.226100 0.091298
v 0.032896 -0.212560 0.102133
v 0.051524 -0.202899 0.101059
v 0.058514 -0.212307 0.091298
v 0.063665 -0.181618 0.100761
v 0.073644 -0.185007 0.091298
v 0.066848 -0.159058 0.099609
v 0.075348 -0.155921 0.091298
v 0.057284 -0.137601 0.099282
v 0.062711 -0.129757 0.091298
v 0.044953 -0.129807 0.098817
v 0.045245 -0.120460 0.091298
v 0.029293 -0.127696 0.091298
v 0.033830 -0.134073 0.097889
v 0.018492 -0.148190 0.091298
v 0.132983 0.098648 -0.097676
v 0.115233 0.055422 -0.098305
v 0.119159 0.101166 -0.085716
v 0.102727 0.064794 -0.085716
v 0.118536 0.135949 -0.085716
v 0.089380 0.017410 -0.098051
v 0.132101 0.141265 -0.097646
v 0.077653 0.023546 -0.085716
v 0.112305 0.172600 -0.096867
v 0.030145 -0.064214 -0.098055
v 0.103312 0.160672 -0.085716
v 0.021021 -0.051839 -0.085715
v 0.086779 0.182137 -0.096892
v -0.009330 -0.096858 -0.085715
v 0.085728 0.166436 -0.085716
v 0.001795 -0.106568 -0.098054
v 0.071941 0.164924 -0.085716
v -0.024734 -0.129418 -0.085715
v 0.066829 0.179230 -0.096849
v -0.012165 -0.135717 -0.098044
v 0.049453 0.155933 -0.096842
v -0.028832 -0.163412 -0.085715
v 0.061873 0.149580 -0.085716
v -0.015191 -0.162873 -0.098044
v 0.062133 0.129772 -0.085716
v -0.021384 -0.195394 -0.085715
v 0.049946 0.121794 -0.096814
v -0.009060 -0.188688 -0.098038
v 0.067679 0.124280 -0.085716
v 0.000878 -0.223044 -0.085716
v 0.066337 0.108184 -0.096822
v 0.007284 -0.209110 -0.098024
v 0.079937 0.127259 -0.085716
v 0.088666 0.117585 -0.094888
v 0.091617 0.147072 -0.085716
v 0.035845 -0.226100 -0.085716
v 0.032896 -0.212560 -0.096549
v 0.051524 -0.202899 -0.095477
v 0.058514 -0.212307 -0.085716
v 0.063664 -0.181618 -0.095178
v 0.073644 -0.185007 -0.085716
v 0.066848 -0.159058 -0.094025
v 0.075348 -0.155921 -0.085716
v 0.057284 -0.137601 -0.093699
v 0.062711 -0.129757 -0.085716
v 0.044953 -0.129807 -0.093233
v 0.045245 -0.120460 -0.085716
v 0.029292 -0.127696 -0.085716
v 0.033830 -0.134073 -0.092306
v 0.018492 -0.148190 -0.085715
v 0.132983 0.098648 0.079340
v 0.126786 0.046676 0.091298
v 0.115233 0.055422 0.078709
v 0.100932 0.010531 0.091298
v 0.145948 0.096159 0.091298
v 0.089380 0.017410 0.078965
v 0.132102 0.141265 0.079368
v 0.039204 -0.076567 0.091298
v 0.144200 0.146227 0.091298
v 0.030145 -0.064214 0.078959
v 0.120507 0.182555 0.091298
v 0.001795 -0.106568 0.078961
v 0.112305 0.172600 0.080148
v 0.013144 -0.116404 0.091298
v 0.087414 0.196228 0.091298
v -0.012165 -0.135717 0.078969
v 0.086779 0.182135 0.080122
v 0.001048 -0.142072 0.091298
v 0.063393 0.191805 0.091298
v -0.015191 -0.162873 0.078971
v 0.066829 0.179230 0.080165
v -0.000889 -0.162186 0.091298
v 0.039377 0.162761 0.091298
v -0.009060 -0.188688 0.078977
v 0.049453 0.155933 0.080172
v 0.003864 -0.181319 0.091298
v 0.040000 0.115096 0.091298
v 0.014133 -0.194071 0.091298
v 0.049946 0.121794 0.080201
v 0.007284 -0.209110 0.078990
v 0.066337 0.108184 0.080192
v 0.030022 -0.198051 0.091298
v 0.066407 0.094675 0.091298
v 0.032896 -0.212560 0.080465
v 0.094987 0.109685 0.091298
v 0.088666 0.117585 0.082128
v 0.091617 0.147072 0.091298
v 0.044013 -0.192580 0.091298
v 0.051524 -0.202899 0.081538
v 0.053157 -0.177690 0.091298
v 0.063665 -0.181618 0.081838
v 0.057257 -0.161810 0.091298
v 0.066848 -0.159058 0.082991
v 0.050944 -0.145911 0.091298
v 0.057284 -0.137601 0.083314
v 0.044245 -0.140538 0.091298
v 0.044953 -0.129807 0.083783
v 0.038519 -0.141416 0.091298
v 0.033830 -0.134073 0.084708
v 0.018492 -0.148190 0.091298
v 0.126786 0.046676 -0.085716
v 0.132983 0.098648 -0.073756
v 0.115233 0.055422 -0.073126
v 0.145948 0.096159 -0.085716
v 0.100932 0.010531 -0.085716
v 0.132102 0.141265 -0.073784
v 0.089380 0.017410 -0.073381
v 0.144200 0.146227 -0.085716
v 0.039204 -0.076567 -0.085716
v 0.120507 0.182555 -0.085716
v 0.030145 -0.064214 -0.073377
v 0.112305 0.172600 -0.074565
v 0.001795 -0.106568 -0.073378
v 0.087414 0.196228 -0.085716
v 0.013144 -0.116404 -0.085715
v 0.086779 0.182135 -0.074539
v -0.012165 -0.135717 -0.073387
v 0.063393 0.191805 -0.085716
v 0.001048 -0.142072 -0.085715
v 0.066829 0.179230 -0.074582
v -0.015191 -0.162873 -0.073387
v 0.039377 0.162761 -0.085716
v -0.000889 -0.162186 -0.085715
v 0.049453 0.155933 -0.074589
v -0.009060 -0.188688 -0.073394
v 0.040000 0.115096 -0.085716
v 0.003864 -0.181319 -0.085715
v 0.049946 0.121794 -0.074617
v 0.014133 -0.194071 -0.085715
v 0.066337 0.108184 -0.074609
v 0.007284 -0.209110 -0.073409
v 0.066407 0.094675 -0.085716
v 0.030022 -0.198051 -0.085715
v 0.094987 0.109685 -0.085716
v 0.088666 0.117585 -0.076544
v 0.091617 0.147072 -0.085716
v 0.032896 -0.212560 -0.074882
v 0.044013 -0.192580 -0.085715
v 0.051524 -0.202899 -0.075955
v 0.053157 -0.177690 -0.085715
v 0.063664 -0.181618 -0.076255
v 0.057257 -0.161810 -0.085716
v 0.066848 -0.159058 -0.077407
v 0.050944 -0.145911 -0.085716
v 0.057284 -0.137601 -0.077732
v 0.044245 -0.140538 -0.085716
v 0.044953 -0.129807 -0.078199
v 0.038519 -0.141416 -0.085716
v 0.033830 -0.134073 -0.079126
v 0.018492 -0.148190 -0.085715
v -0.034823 0.110882 0.091298
v -0.038749 0.065138 0.078709
v -0.051255 0.074510 0.091298
v -0.064602 0.027128 0.078965
v -0.021000 0.108366 0.079340
v -0.076330 0.033262 0.091298
v -0.035446 0.145664 0.091298
v -0.123838 -0.054498 0.078959
v -0.021881 0.150981 0.079368
v -0.132962 -0.042123 0.091298
v -0.041678 0.182317 0.080148
v -0.163313 -0.087142 0.091298
v -0.050671 0.170387 0.091298
v -0.152189 -0.096851 0.078961
v -0.067203 0.191852 0.080122
v -0.178716 -0.119702 0.091298
v -0.068255 0.176153 0.091298
v -0.166147 -0.125999 0.078969
v -0.082042 0.174641 0.091298
v -0.182814 -0.153694 0.091298
v -0.087154 0.188946 0.080165
v -0.169173 -0.153155 0.078971
v -0.104530 0.165648 0.080172
v -0.175367 -0.185677 0.091298
v -0.092111 0.159296 0.091298
v -0.163043 -0.178971 0.078977
v -0.091850 0.139488 0.091298
v -0.153105 -0.213326 0.091298
v -0.104037 0.131509 0.080201
v -0.146699 -0.199393 0.078990
v -0.086304 0.133996 0.091298
v -0.118138 -0.216383 0.091298
v -0.087646 0.117900 0.080192
v -0.121086 -0.202845 0.080465
v -0.074046 0.136976 0.091298
v -0.065317 0.127301 0.082128
v -0.062366 0.156790 0.091298
v -0.102460 -0.193182 0.081538
v -0.095468 -0.202590 0.091298
v -0.090319 -0.171903 0.081838
v -0.080338 -0.175289 0.091298
v -0.087135 -0.149343 0.082991
v -0.078635 -0.146204 0.091298
v -0.096699 -0.127884 0.083314
v -0.091272 -0.120042 0.091298
v -0.109030 -0.120092 0.083783
v -0.108738 -0.110745 0.091298
v -0.124690 -0.117981 0.091298
v -0.120153 -0.124356 0.084708
v -0.135491 -0.138473 0.091298
v -0.034823 0.110882 -0.085715
v -0.038749 0.065138 -0.073126
v -0.021000 0.108366 -0.073756
v -0.051255 0.074510 -0.085715
v -0.035446 0.145664 -0.085715
v -0.064602 0.027128 -0.073381
v -0.021881 0.150981 -0.073784
v -0.076330 0.033262 -0.085715
v -0.041679 0.182317 -0.074565
v -0.123838 -0.054498 -0.073377
v -0.050671 0.170387 -0.085715
v -0.132962 -0.042123 -0.085715
v -0.067203 0.191852 -0.074539
v -0.163313 -0.087142 -0.085715
v -0.068255 0.176153 -0.085715
v -0.152189 -0.096851 -0.073378
v -0.082042 0.174641 -0.085715
v -0.178716 -0.119702 -0.085715
v -0.087154 0.188946 -0.074582
v -0.166147 -0.125999 -0.073387
v -0.104530 0.165648 -0.074589
v -0.182814 -0.153694 -0.085715
v -0.092111 0.159296 -0.085715
v -0.169173 -0.153155 -0.073387
v -0.091850 0.139488 -0.085715
v -0.175367 -0.185677 -0.085715
v -0.104037 0.131509 -0.074617
v -0.163043 -0.178971 -0.073394
v -0.086304 0.133996 -0.085715
v -0.153105 -0.213326 -0.085715
v -0.087646 0.117900 -0.074609
v -0.146699 -0.199393 -0.073409
v -0.074046 0.136976 -0.085715
v -0.065317 0.127301 -0.076544
v -0.062366 0.156790 -0.085715
v -0.118138 -0.216383 -0.085715
v -0.121086 -0.202845 -0.074882
v -0.102459 -0.193182 -0.075955
v -0.095468 -0.202590 -0.085715
v -0.090319 -0.171903 -0.076254
v -0.080339 -0.175289 -0.085715
v -0.087135 -0.149343 -0.077407
v -0.078635 -0.146204 -0.085715
v -0.096699 -0.127884 -0.077732
v -0.091272 -0.120042 -0.085715
v -0.109030 -0.120092 -0.078199
v -0.108738 -0.110745 -0.085715
v -0.124690 -0.117981 -0.085715
v -0.120153 -0.124356 -0.079126
v -0.135490 -0.138473 -0.085715
v -0.021000 0.108366 0.079340
v -0.027198 0.056392 0.091298
v -0.038749 0.065138 0.078709
v -0.053051 0.020247 0.091298
v -0.008035 0.105875 0.091298
v -0.064602 0.027128 0.078965
v -0.021881 0.150981 0.079368
v -0.114779 -0.066851 0.091298
v -0.009782 0.155943 0.091298
v -0.123838 -0.054498 0.078959
v -0.033475 0.192270 0.091298
v -0.152189 -0.096851 0.078961
v -0.041678 0.182317 0.080148
v -0.140839 -0.106689 0.091298
v -0.066569 0.205945 0.091298
v -0.166147 -0.125999 0.078969
v -0.067203 0.191852 0.080122
v -0.152934 -0.132355 0.091298
v -0.090590 0.201520 0.091298
v -0.169173 -0.153155 0.078971
v -0.087154 0.188946 0.080165
v -0.154871 -0.152469 0.091298
v -0.114605 0.172477 0.091298
v -0.163043 -0.178971 0.078977
v -0.104530 0.165648 0.080172
v -0.150119 -0.171604 0.091298
v -0.113983 0.124812 0.091298
v -0.139850 -0.184356 0.091298
v -0.104037 0.131509 0.080201
v -0.146699 -0.199393 0.078990
v -0.087646 0.117900 0.080192
v -0.123960 -0.188334 0.091298
v -0.087575 0.104391 0.091298
v -0.121086 -0.202845 0.080465
v -0.058996 0.119401 0.091298
v -0.065317 0.127301 0.082128
v -0.062366 0.156790 0.091298
v -0.109971 -0.182865 0.091298
v -0.102460 -0.193182 0.081538
v -0.100826 -0.167973 0.091298
v -0.090319 -0.171903 0.081838
v -0.096725 -0.152093 0.091298
v -0.087135 -0.149343 0.082991
v -0.103038 -0.136193 0.091298
v -0.096699 -0.127884 0.083314
v -0.109738 -0.130821 0.091298
v -0.109030 -0.120092 0.083783
v -0.115464 -0.131699 0.091298
v -0.120153 -0.124356 0.084708
v -0.135491 -0.138473 0.091298
v -0.027198 0.056392 -0.085715
v -0.021000 0.108366 -0.073756
v -0.038749 0.065138 -0.073126
v -0.008035 0.105875 -0.085715
v -0.053051 0.020247 -0.085715
v -0.021881 0.150981 -0.073784
v -0.064602 0.027128 -0.073381
v -0.009782 0.155943 -0.085715
v -0.114779 -0.066851 -0.085715
v -0.033475 0.192270 -0.085715
v -0.123838 -0.054498 -0.073377
v -0.041679 0.182317 -0.074565
v -0.152189 -0.096851 -0.073378
v -0.066569 0.205945 -0.085715
v -0.140839 -0.106689 -0.085715
v -0.067203 0.191852 -0.074539
v -0.166147 -0.125999 -0.073387
v -0.090590 0.201520 -0.085715
v -0.152934 -0.132355 -0.085715
v -0.087154 0.188946 -0.074582
v -0.169173 -0.153155 -0.073387
v -0.114605 0.172477 -0.085715
v -0.154871 -0.152469 -0.085715
v -0.104530 0.165648 -0.074589
v -0.163043 -0.178971 -0.073394
v -0.113983 0.124812 -0.085715
v -0.150119 -0.171604 -0.085715
v -0.104037 0.131509 -0.074617
v -0.139850 -0.184356 -0.085715
v -0.087646 0.117900 -0.074609
v -0.146699 -0.199393 -0.073409
v -0.087575 0.104391 -0.085715
v -0.123960 -0.188334 -0.085715
v -0.058996 0.119401 -0.085715
v -0.065317 0.127301 -0.076544
v -0.062366 0.156790 -0.085715
v -0.121086 -0.202845 -0.074882
v -0.109971 -0.182865 -0.085715
v -0.102459 -0.193182 -0.075955
v -0.100826 -0.167973 -0.085715
v -0.090319 -0.171903 -0.076254
v -0.096725 -0.152093 -0.085715
v -0.087135 -0.149343 -0.077407
v -0.103038 -0.136193 -0.085715
v -0.096699 -0.127884 -0.077732
v -0.109738 -0.130821 -0.085715
v -0.109030 -0.120092 -0.078199
v -0.115464 -0.131699 -0.085715
v -0.120153 -0.124356 -0.079126
v -0.135490 -0.138473 -0.085715
v 0.119159 0.101166 0.091298
v 0.115233 0.055422 0.078709
v 0.102727 0.064794 0.091298
v 0.089380 0.017410 0.078965
v 0.132983 0.098648 0.079340
v 0.077653 0.023546 0.091298
v 0.118536 0.135949 0.091298
v 0.030145 -0.064214 0.078959
v 0.132102 0.141265 0.079368
v 0.021021 -0.051839 0.091298
v 0.112305 0.172600 0.080148
v -0.009330 -0.096858 0.091298
v 0.103312 0.160672 0.091298
v 0.001795 -0.106568 0.078961
v 0.086779 0.182135 0.080122
v -0.024734 -0.129418 0.091298
v 0.085728 0.166436 0.091298
v -0.012165 -0.135717 0.078969
v 0.071941 0.164924 0.091298
v -0.028832 -0.163412 0.091298
v 0.066829 0.179230 0.080165
v -0.015191 -0.162873 0.078971
v 0.049453 0.155933 0.080172
v -0.021384 -0.195394 0.091298
v 0.061873 0.149580 0.091298
v -0.009060 -0.188688 0.078977
v 0.062134 0.129772 0.091298
v 0.000878 -0.223044 0.091298
v 0.049946 0.121794 0.080201
v 0.007284 -0.209110 0.078990
v 0.067679 0.124280 0.091298
v 0.035845 -0.226100 0.091298
v 0.066337 0.108184 0.080192
v 0.032896 -0.212560 0.080465
v 0.079937 0.127259 0.091298
v 0.088666 0.117585 0.082128
v 0.091617 0.147072 0.091298
v 0.051524 -0.202899 0.081538
v 0.058514 -0.212307 0.091298
v 0.063665 -0.181618 0.081838
v 0.073644 -0.185007 0.091298
v 0.066848 -0.159058 0.082991
v 0.075348 -0.155921 0.091298
v 0.057284 -0.137601 0.083314
v 0.062711 -0.129757 0.091298
v 0.044953 -0.129807 0.083783
v 0.045245 -0.120460 0.091298
v 0.029293 -0.127696 0.091298
v 0.033830 -0.134073 0.084708
v 0.018492 -0.148190 0.091298
v 0.119159 0.101166 -0.085716
v 0.115233 0.055422 -0.073126
v 0.132983 0.098648 -0.073756
v 0.102727 0.064794 -0.085716
v 0.118536 0.135949 -0.085716
v 0.089380 0.017410 -0.073381
v 0.132102 0.141265 -0.073784
v 0.077653 0.023546 -0.085716
v 0.112305 0.172600 -0.074565
v 0.030145 -0.064214 -0.073377
v 0.103312 0.160672 -0.085716
v 0.021021 -0.051839 -0.085715
v 0.086779 0.182135 -0.074539
v -0.009330 -0.096858 -0.085715
v 0.085728 0.166436 -0.085716
v 0.001795 -0.106568 -0.073378
v 0.071941 0.164924 -0.085716
v -0.024734 -0.129418 -0.085715
v 0.066829 0.179230 -0.074582
v -0.012165 -0.135717 -0.073387
v 0.049453 0.155933 -0.074589
v -0.028832 -0.163412 -0.085715
v 0.061873 0.149580 -0.085716
v -0.015191 -0.162873 -0.073387
v 0.062133 0.129772 -0.085716
v -0.021384 -0.195394 -0.085715
v 0.049946 0.121794 -0.074617
v -0.009060 -0.188688 -0.073394
v 0.067679 0.124280 -0.085716
v 0.000878 -0.223044 -0.085716
v 0.066337 0.108184 -0.074609
v 0.007284 -0.209110 -0.073409
v 0.079937 0.127259 -0.085716
v 0.088666 0.117585 -0.076544
v 0.091617 0.147072 -0.085716
v 0.035845 -0.226100 -0.085716
v 0.032896 -0.212560 -0.074882
v 0.051524 -0.202899 -0.075955
v 0.058514 -0.212307 -0.085716
v 0.063664 -0.181618 -0.076255
v 0.073644 -0.185007 -0.085716
v 0.066848 -0.159058 -0.077407
v 0.075348 -0.155921 -0.085716
v 0.057284 -0.137601 -0.077732
v 0.062711 -0.129757 -0.085716
v 0.044953 -0.129807 -0.078199
v 0.045245 -0.120460 -0.085716
v 0.029292 -0.127696 -0.085716
v 0.033830 -0.134073 -0.079126
v 0.018492 -0.148190 -0.085715
vn -0.1813 -0.9834 -0.0000
vn -0.9949 0.1013 -0.0000
vn 0.9949 -0.1013 -0.0000
vn 0.5447 -0.3831 0.7460
vn 0.6205 -0.2583 0.7404
vn 0.5621 -0.3574 0.7459
vn 0.6649 -0.1115 0.7386
vn 0.5385 -0.3853 0.7494
vn 0.6540 -0.1558 0.7402
vn 0.5378 -0.3821 0.7515
vn 0.5912 0.3160 0.7420
vn 0.5375 -0.3590 0.7630
vn 0.6845 0.0392 0.7280
vn 0.5791 -0.2854 0.7636
vn 0.5380 0.3970 0.7436
vn 0.5449 -0.3440 0.7647
vn 0.2911 0.5825 0.7589
vn 0.6303 -0.1580 0.7601
vn -0.0389 0.6335 0.7727
vn 0.6246 -0.1742 0.7613
vn 0.1678 0.6219 0.7649
vn 0.6575 -0.0526 0.7516
vn -0.5209 0.4535 0.7232
vn 0.6441 0.1119 0.7567
vn -0.1908 0.6064 0.7720
vn 0.6309 0.1694 0.7571
vn -0.6847 0.1751 0.7075
vn 0.5185 0.3745 0.7687
vn -0.6730 0.2037 0.7110
vn 0.2268 0.5609 0.7962
vn -0.7348 -0.0381 0.6773
vn 0.4375 0.4447 0.7816
vn -0.5255 -0.4531 0.7201
vn 0.0906 0.5993 0.7954
vn -0.3043 -0.5937 0.7449
vn -0.2011 0.5678 0.7983
vn 0.2085 -0.6177 0.7583
vn -0.2843 0.5320 0.7976
vn 0.7273 -0.1857 0.6607
vn 0.6932 -0.2365 0.6808
vn 0.8506 0.0767 0.5202
vn -0.5376 0.3458 0.7690
vn -0.5916 0.2653 0.7613
vn -0.6238 0.2033 0.7547
vn -0.6361 -0.0770 0.7677
vn -0.6505 0.1209 0.7498
vn -0.4072 -0.4658 0.7856
vn -0.5831 -0.2747 0.7645
vn -0.2625 -0.5335 0.8040
vn 0.0347 -0.5852 0.8102
vn 0.1407 -0.5902 0.7949
vn 0.1926 -0.5829 0.7894
vn 0.1969 -0.5822 0.7888
vn 0.6205 -0.2583 -0.7404
vn 0.5447 -0.3831 -0.7460
vn 0.5621 -0.3574 -0.7459
vn 0.5385 -0.3853 -0.7494
vn 0.6649 -0.1115 -0.7386
vn 0.5378 -0.3822 -0.7515
vn 0.6540 -0.1558 -0.7402
vn 0.5375 -0.3589 -0.7630
vn 0.5912 0.3160 -0.7420
vn 0.5791 -0.2854 -0.7636
vn 0.6845 0.0392 -0.7280
vn 0.5449 -0.3440 -0.7647
vn 0.5380 0.3970 -0.7436
vn 0.6303 -0.1580 -0.7601
vn 0.2911 0.5825 -0.7589
vn 0.6246 -0.1742 -0.7613
vn -0.0389 0.6335 -0.7727
vn 0.6575 -0.0526 -0.7516
vn 0.1678 0.6219 -0.7649
vn 0.6441 0.1119 -0.7567
vn -0.5209 0.4535 -0.7232
vn 0.6309 0.1694 -0.7571
vn -0.1908 0.6064 -0.7719
vn 0.5185 0.3745 -0.7687
vn -0.6847 0.1751 -0.7075
vn 0.2268 0.5609 -0.7962
vn -0.6730 0.2037 -0.7110
vn 0.4375 0.4446 -0.7816
vn -0.7347 -0.0381 -0.6773
vn 0.0906 0.5993 -0.7954
vn -0.5255 -0.4531 -0.7201
vn -0.2010 0.5678 -0.7982
vn -0.3043 -0.5937 -0.7449
vn -0.2843 0.5320 -0.7976
vn 0.2085 -0.6177 -0.7583
vn -0.5376 0.3458 -0.7690
vn 0.7273 -0.1857 -0.6607
vn 0.6932 -0.2365 -0.6808
vn 0.8506 0.0767 -0.5202
vn -0.5916 0.2653 -0.7613
vn -0.6238 0.2033 -0.7547
vn -0.6361 -0.0770 -0.7678
vn -0.6505 0.1209 -0.7498
vn -0.4072 -0.4658 -0.7856
vn -0.5831 -0.2746 -0.7645
vn -0.2625 -0.5335 -0.8040
vn 0.0347 -0.5852 -0.8102
vn 0.1407 -0.5902 -0.7949
vn 0.1927 -0.5829 -0.7894
vn 0.1969 -0.5822 -0.7888
vn -0.5890 0.2699 0.7617
vn -0.6229 0.1583 0.7661
vn -0.6311 0.1243 0.7656
vn -0.5589 0.3377 0.7574
vn -0.5639 -0.2802 0.7768
vn -0.5505 0.3559 0.7551
vn -0.6523 -0.0295 0.7574
vn -0.5363 0.3900 0.7485
vn -0.5132 -0.3534 0.7821
vn -0.5347 0.3906 0.7493
vn -0.2534 -0.5412 0.8018
vn -0.5364 0.3640 0.7614
vn 0.0195 -0.5883 0.8084
vn -0.5883 0.2903 0.7547
vn -0.1405 -0.5782 0.8037
vn -0.5456 0.3488 0.7620
vn 0.1566 -0.5616 0.8125
vn -0.6446 0.1635 0.7468
vn 0.5030 -0.3906 0.7710
vn -0.6375 0.1819 0.7486
vn 0.6225 -0.1564 0.7669
vn -0.6739 0.0610 0.7363
vn 0.6138 -0.1805 0.7685
vn -0.6636 -0.1069 0.7404
vn 0.4755 0.3981 0.7845
vn -0.6507 -0.1705 0.7400
vn 0.6618 0.0326 0.7490
vn -0.5385 -0.3882 0.7478
vn 0.2901 0.5190 0.8040
vn -0.4380 -0.4708 0.7658
vn -0.0392 0.5759 0.8166
vn -0.1691 -0.6007 0.7814
vn -0.2171 0.5466 0.8088
vn -0.4448 0.3671 0.8169
vn -0.5114 0.3015 0.8047
vn 0.2996 -0.5584 0.7736
vn -0.0004 -0.6332 0.7740
vn 0.3743 -0.5163 0.7702
vn 0.5767 -0.3406 0.7426
vn 0.6457 -0.1965 0.7378
vn 0.6561 -0.1678 0.7358
vn 0.6475 0.2024 0.7347
vn 0.6900 -0.0284 0.7233
vn 0.3768 0.5308 0.7591
vn 0.5918 0.3271 0.7368
vn 0.1909 0.5985 0.7780
vn -0.1800 0.6100 0.7717
vn -0.5924 0.3362 0.7321
vn -0.3149 0.5753 0.7549
vn -0.6071 0.3200 0.7274
vn -0.6229 0.1583 -0.7661
vn -0.5890 0.2699 -0.7618
vn -0.6311 0.1243 -0.7656
vn -0.5589 0.3377 -0.7574
vn -0.5639 -0.2802 -0.7769
vn -0.5505 0.3559 -0.7551
vn -0.6523 -0.0294 -0.7574
vn -0.5363 0.3900 -0.7485
vn -0.5132 -0.3534 -0.7821
vn -0.5347 0.3907 -0.7493
vn -0.2534 -0.5412 -0.8018
vn -0.5364 0.3640 -0.7614
vn 0.0194 -0.5883 -0.8084
vn -0.5883 0.2903 -0.7547
vn -0.1405 -0.5782 -0.8037
vn -0.5456 0.3488 -0.7620
vn 0.1566 -0.5616 -0.8125
vn -0.6446 0.1635 -0.7468
vn 0.5029 -0.3906 -0.7710
vn -0.6376 0.1819 -0.7486
vn 0.6225 -0.1564 -0.7669
vn -0.6739 0.0610 -0.7363
vn 0.6138 -0.1805 -0.7686
vn -0.6636 -0.1069 -0.7404
vn 0.4755 0.3981 -0.7845
vn -0.6507 -0.1705 -0.7400
vn 0.6618 0.0326 -0.7490
vn -0.5385 -0.3882 -0.7478
vn 0.2901 0.5190 -0.8040
vn -0.4380 -0.4708 -0.7659
vn -0.0392 0.5759 -0.8166
vn -0.1691 -0.6007 -0.7814
vn -0.2171 0.5466 -0.8088
vn -0.4448 0.3671 -0.8169
vn -0.5115 0.3015 -0.8047
vn 0.2996 -0.5584 -0.7736
vn -0.0004 -0.6332 -0.7740
vn 0.3743 -0.5163 -0.7702
vn 0.5767 -0.3406 -0.7425
vn 0.6457 -0.1965 -0.7378
vn 0.6561 -0.1678 -0.7358
vn 0.6475 0.2024 -0.7347
vn 0.6900 -0.0285 -0.7233
vn 0.3768 0.5308 -0.7591
vn 0.5918 0.3271 -0.7368
vn 0.1909 0.5986 -0.7780
vn -0.1800 0.6100 -0.7717
vn -0.5924 0.3362 -0.7321
vn -0.3149 0.5754 -0.7549
vn -0.6071 0.3200 -0.7274
vn -0.0000 -0.0000 -1.0000
vn -0.0000 -0.0000 1.0000
vn 0.5448 -0.3831 0.7460
vn 0.6205 -0.2584 0.7404
vn 0.5378 -0.3822 0.7515
vn 0.5375 -0.3589 0.7630
vn 0.5791 -0.2855 0.7636
vn -0.1907 0.6064 0.7720
vn -0.6847 0.1750 0.7075
vn -0.7348 -0.0381 0.6772
vn -0.2011 0.5677 0.7983
vn -0.5375 0.3458 0.7691
vn 0.6205 -0.2584 -0.7404
vn 0.5448 -0.3831 -0.7460
vn 0.6649 -0.1116 -0.7386
vn 0.5378 -0.3821 -0.7515
vn -0.0388 0.6335 -0.7727
vn 0.6441 0.1120 -0.7567
vn -0.1907 0.6064 -0.7719
vn 0.4375 0.4447 -0.7816
vn -0.7348 -0.0381 -0.6773
vn -0.2011 0.5677 -0.7983
vn -0.5375 0.3458 -0.7691
vn 0.0347 -0.5852 -0.8101
vn 0.1926 -0.5829 -0.7893
vn -0.5364 0.3900 0.7485
vn 0.0194 -0.5883 0.8084
vn -0.6375 0.1819 0.7487
vn 0.6138 -0.1806 0.7685
vn 0.6618 0.0325 0.7489
vn -0.5386 -0.3882 0.7478
vn 0.6458 -0.1965 0.7378
vn 0.6561 -0.1677 0.7358
vn 0.6900 -0.0285 0.7233
vn 0.3768 0.5307 0.7592
vn 0.1909 0.5986 0.7780
vn -0.3149 0.5753 0.7548
vn -0.6071 0.3199 0.7274
vn -0.5890 0.2699 -0.7617
vn -0.5364 0.3900 -0.7485
vn -0.5132 -0.3534 -0.7822
vn -0.5347 0.3906 -0.7493
vn 0.5030 -0.3906 -0.7710
vn -0.6375 0.1819 -0.7487
vn 0.6138 -0.1806 -0.7685
vn 0.4755 0.3980 -0.7845
vn 0.6618 0.0325 -0.7490
vn -0.5386 -0.3882 -0.7478
vn -0.4380 -0.4708 -0.7658
vn -0.2171 0.5466 -0.8087
vn -0.5114 0.3015 -0.8047
vn 0.3743 -0.5164 -0.7702
vn 0.3768 0.5307 -0.7592
vn -0.6070 0.3199 -0.7275
vn 0.5385 -0.3853 -0.7493
vn 0.6845 0.0392 -0.7279
vn 0.5379 0.3970 -0.7436
vn 0.5792 -0.2855 -0.7636
vn -0.1907 0.6064 -0.7720
vn -0.2011 0.5678 -0.7982
vn 0.8506 0.0767 -0.5203
vn 0.1406 -0.5902 -0.7949
vn 0.6649 -0.1116 0.7386
vn 0.6845 0.0392 0.7279
vn 0.5379 0.3970 0.7436
vn 0.5792 -0.2855 0.7636
vn 0.6441 0.1120 0.7567
vn 0.4375 0.4446 0.7816
vn 0.0907 0.5993 0.7954
vn -0.5376 0.3458 0.7691
vn -0.5831 -0.2746 0.7645
vn 0.0348 -0.5852 0.8102
vn 0.1927 -0.5829 0.7894
vn 0.1970 -0.5822 0.7888
vn -0.6523 -0.0295 -0.7574
vn -0.6446 0.1636 -0.7468
vn -0.6375 0.1819 -0.7486
vn 0.1567 -0.5616 -0.8124
vn -0.6739 0.0609 -0.7363
vn 0.4754 0.3981 -0.7845
vn -0.1690 -0.6007 -0.7814
vn -0.0393 0.5759 -0.8166
vn -0.2171 0.5467 -0.8087
vn -0.5114 0.3014 -0.8048
vn 0.3744 -0.5163 -0.7702
vn 0.6474 0.2024 -0.7347
vn 0.6900 -0.0284 -0.7233
vn -0.3149 0.5754 -0.7548
vn -0.6070 0.3199 -0.7274
vn -0.5890 0.2699 0.7618
vn -0.5347 0.3907 0.7493
vn -0.6446 0.1636 0.7468
vn 0.6138 -0.1805 0.7686
vn 0.4755 0.3980 0.7845
vn 0.6618 0.0326 0.7489
vn -0.0393 0.5759 0.8166
vn -0.1690 -0.6007 0.7814
vn -0.2171 0.5466 0.8087
vn -0.5114 0.3014 0.8048
vn -0.3149 0.5754 0.7548
vn -0.6070 0.3199 0.7275
vn 0.6540 -0.1559 -0.7402
vn 0.5791 -0.2855 -0.7636
vn -0.5255 -0.4530 -0.7201
vn 0.6540 -0.1559 0.7402
vn 0.8506 0.0767 0.5203
vn -0.5832 -0.2746 0.7645
vn -0.2626 -0.5335 0.8040
vn 0.1406 -0.5902 0.7949
vn 0.1969 -0.5821 0.7889
vn 0.1566 -0.5616 -0.8124
vn 0.4754 0.3980 -0.7845
vn -0.4449 0.3671 -0.8169
vn 0.3768 0.5308 -0.7592
vn 0.5917 0.3271 -0.7368
vn -0.3149 0.5753 -0.7549
vn -0.6523 -0.0294 0.7574
vn -0.5364 0.3639 0.7614
vn -0.6507 -0.1704 0.7400
vn 0.6618 0.0325 0.7490
vn 0.3743 -0.5164 0.7702
vn 0.5767 -0.3406 0.7425
vn -0.3149 0.5754 0.7549
vt 0.000000 0.000000
s 1
f 61/2/24 62/2/24 63/2/24
f 62/2/24 61/2/24 64/2/24
f 65/2/25 66/2/25 67/2/25
f 67/2/25 68/2/25 65/2/25
f 69/2/26 70/2/26 71/2/26
f 70/2/26 69/2/26 72/2/26
f 73/2/27 74/2/28 75/2/29
f 74/2/28 76/2/30 75/2/29
f 73/2/27 75/2/29 77/2/31
f 76/2/30 74/2/28 78/2/32
f 79/2/33 73/2/27 77/2/31
f 78/2/32 80/2/34 76/2/30
f 79/2/33 77/2/31 81/2/35
f 80/2/34 78/2/32 82/2/36
f 83/2/37 79/2/33 81/2/35
f 84/2/38 80/2/34 82/2/36
f 79/2/33 83/2/37 85/2/39
f 80/2/34 84/2/38 86/2/40
f 87/2/41 85/2/39 83/2/37
f 88/2/42 86/2/40 84/2/38
f 85/2/39 87/2/41 89/2/43
f 86/2/40 88/2/42 90/2/44
f 91/2/45 89/2/43 87/2/41
f 92/2/46 90/2/44 88/2/42
f 89/2/43 91/2/45 93/2/47
f 90/2/44 92/2/46 94/2/48
f 95/2/49 93/2/47 91/2/45
f 96/2/50 94/2/48 92/2/46
f 93/2/47 95/2/49 97/2/51
f 94/2/48 96/2/50 98/2/52
f 95/2/49 99/2/53 97/2/51
f 100/2/54 98/2/52 96/2/50
f 99/2/53 95/2/49 101/2/55
f 98/2/52 100/2/54 102/2/56
f 101/2/55 103/2/57 99/2/53
f 100/2/54 104/2/58 102/2/56
f 101/2/55 105/2/59 103/2/57
f 104/2/58 100/2/54 106/2/60
f 107/2/61 103/2/57 105/2/59
f 108/2/62 104/2/58 106/2/60
f 104/2/58 108/2/62 109/2/63
f 108/2/62 110/2/64 109/2/63
f 105/2/59 111/2/65 107/2/61
f 111/2/65 112/2/66 107/2/61
f 111/2/65 113/2/67 112/2/66
f 113/2/67 114/2/68 112/2/66
f 114/2/68 113/2/67 115/2/69
f 115/2/69 116/2/70 114/2/68
f 115/2/69 117/2/71 116/2/70
f 116/2/70 117/2/71 118/2/72
f 117/2/71 119/2/73 118/2/72
f 119/2/73 120/2/74 118/2/72
f 120/2/74 119/2/73 121/2/75
f 121/2/75 122/2/76 120/2/74
f 123/2/77 124/2/78 125/2/79
f 126/2/80 125/2/79 124/2/78
f 127/2/81 123/2/77 125/2/79
f 124/2/78 128/2/82 126/2/80
f 123/2/77 127/2/81 129/2/83
f 126/2/80 128/2/82 130/2/84
f 131/2/85 129/2/83 127/2/81
f 128/2/82 132/2/86 130/2/84
f 133/2/87 129/2/83 131/2/85
f 132/2/86 128/2/82 134/2/88
f 131/2/85 135/2/89 133/2/87
f 134/2/88 136/2/90 132/2/86
f 135/2/89 131/2/85 137/2/91
f 136/2/90 134/2/88 138/2/92
f 137/2/91 139/2/93 135/2/89
f 138/2/92 140/2/94 136/2/90
f 139/2/93 137/2/91 141/2/95
f 140/2/94 138/2/92 142/2/96
f 141/2/95 143/2/97 139/2/93
f 142/2/96 144/2/98 140/2/94
f 143/2/97 141/2/95 145/2/99
f 144/2/98 142/2/96 146/2/100
f 145/2/99 147/2/101 143/2/97
f 148/2/102 144/2/98 146/2/100
f 147/2/101 145/2/99 149/2/103
f 144/2/98 148/2/102 150/2/104
f 149/2/103 151/2/105 147/2/101
f 152/2/106 150/2/104 148/2/102
f 151/2/105 149/2/103 153/2/107
f 154/2/108 150/2/104 152/2/106
f 155/2/109 151/2/105 153/2/107
f 154/2/108 152/2/106 156/2/110
f 157/2/111 151/2/105 155/2/109
f 158/2/112 154/2/108 156/2/110
f 155/2/109 159/2/113 157/2/111
f 159/2/113 155/2/109 160/2/114
f 159/2/113 160/2/114 161/2/115
f 162/2/116 158/2/112 156/2/110
f 158/2/112 162/2/116 163/2/117
f 164/2/118 163/2/117 162/2/116
f 163/2/117 164/2/118 165/2/119
f 164/2/118 166/2/120 165/2/119
f 167/2/121 165/2/119 166/2/120
f 168/2/122 167/2/121 166/2/120
f 168/2/122 169/2/123 167/2/121
f 170/2/124 169/2/123 168/2/122
f 169/2/123 170/2/124 171/2/125
f 171/2/125 170/2/124 172/2/126
f 173/2/127 174/2/128 175/2/129
f 173/2/127 175/2/129 176/2/130
f 174/2/128 177/2/131 175/2/129
f 178/2/132 173/2/127 176/2/130
f 177/2/131 174/2/128 179/2/133
f 178/2/132 176/2/130 180/2/134
f 181/2/135 177/2/131 179/2/133
f 182/2/136 178/2/132 180/2/134
f 177/2/131 181/2/135 183/2/137
f 182/2/136 180/2/134 184/2/138
f 185/2/139 183/2/137 181/2/135
f 186/2/140 182/2/136 184/2/138
f 183/2/137 185/2/139 187/2/141
f 182/2/136 186/2/140 188/2/142
f 185/2/139 189/2/143 187/2/141
f 190/2/144 188/2/142 186/2/140
f 189/2/143 185/2/139 191/2/145
f 188/2/142 190/2/144 192/2/146
f 193/2/147 189/2/143 191/2/145
f 194/2/148 192/2/146 190/2/144
f 189/2/143 193/2/147 195/2/149
f 192/2/146 194/2/148 196/2/150
f 195/2/149 193/2/147 197/2/151
f 198/2/152 196/2/150 194/2/148
f 193/2/147 199/2/153 197/2/151
f 196/2/150 198/2/152 200/2/154
f 199/2/153 201/2/155 197/2/151
f 202/2/156 200/2/154 198/2/152
f 201/2/155 199/2/153 203/2/157
f 200/2/154 202/2/156 204/2/158
f 205/2/159 201/2/155 203/2/157
f 203/2/157 206/2/160 205/2/159
f 206/2/160 207/2/161 205/2/159
f 208/2/162 204/2/158 202/2/156
f 204/2/158 208/2/162 209/2/163
f 210/2/164 209/2/163 208/2/162
f 208/2/162 211/2/165 210/2/164
f 211/2/165 212/2/166 210/2/164
f 211/2/165 213/2/167 212/2/166
f 213/2/167 214/2/168 212/2/166
f 214/2/168 213/2/167 215/2/169
f 215/2/169 216/2/170 214/2/168
f 215/2/169 217/2/171 216/2/170
f 216/2/170 217/2/171 218/2/172
f 217/2/171 219/2/173 218/2/172
f 220/2/174 218/2/172 219/2/173
f 218/2/172 220/2/174 221/2/175
f 220/2/174 222/2/176 221/2/175
f 223/2/177 224/2/178 225/2/179
f 226/2/180 225/2/179 224/2/178
f 227/2/181 223/2/177 225/2/179
f 224/2/178 228/2/182 226/2/180
f 223/2/177 227/2/181 229/2/183
f 230/2/184 226/2/180 228/2/182
f 227/2/181 231/2/185 229/2/183
f 228/2/182 232/2/186 230/2/184
f 231/2/185 227/2/181 233/2/187
f 230/2/184 232/2/186 234/2/188
f 233/2/187 235/2/189 231/2/185
f 232/2/186 236/2/190 234/2/188
f 235/2/189 233/2/187 237/2/191
f 236/2/190 232/2/186 238/2/192
f 239/2/193 235/2/189 237/2/191
f 238/2/192 240/2/194 236/2/190
f 235/2/189 239/2/193 241/2/195
f 240/2/194 238/2/192 242/2/196
f 239/2/193 243/2/197 241/2/195
f 242/2/196 244/2/198 240/2/194
f 243/2/197 239/2/193 245/2/199
f 244/2/198 242/2/196 246/2/200
f 247/2/201 243/2/197 245/2/199
f 246/2/200 248/2/202 244/2/198
f 249/2/203 243/2/197 247/2/201
f 248/2/202 246/2/200 250/2/204
f 251/2/205 249/2/203 247/2/201
f 250/2/204 252/2/206 248/2/202
f 253/2/207 249/2/203 251/2/205
f 252/2/206 250/2/204 254/2/208
f 253/2/207 251/2/205 255/2/209
f 256/2/210 253/2/207 255/2/209
f 256/2/210 255/2/209 257/2/211
f 254/2/208 258/2/212 252/2/206
f 258/2/212 254/2/208 259/2/213
f 258/2/212 259/2/213 260/2/214
f 261/2/215 258/2/212 260/2/214
f 262/2/216 261/2/215 260/2/214
f 261/2/215 262/2/216 263/2/217
f 264/2/218 263/2/217 262/2/216
f 263/2/217 264/2/218 265/2/219
f 264/2/218 266/2/220 265/2/219
f 267/2/221 265/2/219 266/2/220
f 268/2/222 267/2/221 266/2/220
f 267/2/221 268/2/222 269/2/223
f 268/2/222 270/2/224 269/2/223
f 270/2/224 268/2/222 271/2/225
f 270/2/224 271/2/225 272/2/226
f 273/2/227 274/2/227 275/2/227
f 274/2/227 273/2/227 276/2/227
f 277/2/228 278/2/228 279/2/228
f 277/2/228 279/2/228 280/2/228
f 281/2/229 282/2/230 283/2/29
f 282/2/230 284/2/30 283/2/29
f 281/2/229 283/2/29 285/2/31
f 284/2/30 282/2/230 286/2/32
f 287/2/231 281/2/229 285/2/31
f 286/2/32 288/2/34 284/2/30
f 287/2/231 285/2/31 289/2/232
f 288/2/34 286/2/32 290/2/36
f 291/2/233 287/2/231 289/2/232
f 292/2/38 288/2/34 290/2/36
f 287/2/231 291/2/233 293/2/39
f 288/2/34 292/2/38 294/2/40
f 295/2/41 293/2/39 291/2/233
f 296/2/42 294/2/40 292/2/38
f 293/2/39 295/2/41 297/2/43
f 294/2/40 296/2/42 298/2/44
f 299/2/45 297/2/43 295/2/41
f 300/2/46 298/2/44 296/2/42
f 297/2/43 299/2/45 301/2/47
f 298/2/44 300/2/46 302/2/234
f 303/2/49 301/2/47 299/2/45
f 304/2/235 302/2/234 300/2/46
f 301/2/47 303/2/49 305/2/51
f 302/2/234 304/2/235 306/2/52
f 303/2/49 307/2/53 305/2/51
f 308/2/236 306/2/52 304/2/235
f 307/2/53 303/2/49 309/2/55
f 306/2/52 308/2/236 310/2/56
f 309/2/55 311/2/57 307/2/53
f 308/2/236 312/2/58 310/2/56
f 309/2/55 313/2/237 311/2/57
f 312/2/58 308/2/236 314/2/60
f 315/2/61 311/2/57 313/2/237
f 316/2/62 312/2/58 314/2/60
f 312/2/58 316/2/62 317/2/63
f 316/2/62 318/2/64 317/2/63
f 313/2/237 319/2/238 315/2/61
f 319/2/238 320/2/66 315/2/61
f 319/2/238 321/2/67 320/2/66
f 321/2/67 322/2/68 320/2/66
f 322/2/68 321/2/67 323/2/69
f 323/2/69 324/2/70 322/2/68
f 323/2/69 325/2/71 324/2/70
f 324/2/70 325/2/71 326/2/72
f 325/2/71 327/2/73 326/2/72
f 327/2/73 328/2/74 326/2/72
f 328/2/74 327/2/73 329/2/75
f 329/2/75 330/2/76 328/2/74
f 331/2/239 332/2/240 333/2/79
f 334/2/80 333/2/79 332/2/240
f 335/2/241 331/2/239 333/2/79
f 332/2/240 336/2/242 334/2/80
f 331/2/239 335/2/241 337/2/83
f 334/2/80 336/2/242 338/2/84
f 339/2/85 337/2/83 335/2/241
f 336/2/242 340/2/86 338/2/84
f 341/2/87 337/2/83 339/2/85
f 340/2/86 336/2/242 342/2/88
f 339/2/85 343/2/89 341/2/87
f 342/2/88 344/2/90 340/2/86
f 343/2/89 339/2/85 345/2/91
f 344/2/90 342/2/88 346/2/92
f 345/2/91 347/2/243 343/2/89
f 346/2/92 348/2/94 344/2/90
f 347/2/243 345/2/91 349/2/95
f 348/2/94 346/2/92 350/2/244
f 349/2/95 351/2/97 347/2/243
f 350/2/244 352/2/98 348/2/94
f 351/2/97 349/2/95 353/2/245
f 352/2/98 350/2/244 354/2/100
f 353/2/245 355/2/101 351/2/97
f 356/2/102 352/2/98 354/2/100
f 355/2/101 353/2/245 357/2/103
f 352/2/98 356/2/102 358/2/246
f 357/2/103 359/2/247 355/2/101
f 360/2/106 358/2/246 356/2/102
f 359/2/247 357/2/103 361/2/107
f 362/2/248 358/2/246 360/2/106
f 363/2/109 359/2/247 361/2/107
f 362/2/248 360/2/106 364/2/110
f 365/2/111 359/2/247 363/2/109
f 366/2/249 362/2/248 364/2/110
f 363/2/109 367/2/113 365/2/111
f 367/2/113 363/2/109 368/2/114
f 367/2/113 368/2/114 369/2/115
f 370/2/116 366/2/249 364/2/110
f 366/2/249 370/2/116 371/2/117
f 372/2/118 371/2/117 370/2/116
f 371/2/117 372/2/118 373/2/119
f 372/2/118 374/2/120 373/2/119
f 375/2/121 373/2/119 374/2/120
f 376/2/122 375/2/121 374/2/120
f 376/2/122 377/2/250 375/2/121
f 378/2/124 377/2/250 376/2/122
f 377/2/250 378/2/124 379/2/251
f 379/2/251 378/2/124 380/2/126
f 381/2/127 382/2/128 383/2/129
f 381/2/127 383/2/129 384/2/130
f 382/2/128 385/2/131 383/2/129
f 386/2/132 381/2/127 384/2/130
f 385/2/131 382/2/128 387/2/133
f 386/2/132 384/2/130 388/2/252
f 389/2/135 385/2/131 387/2/133
f 390/2/136 386/2/132 388/2/252
f 385/2/131 389/2/135 391/2/137
f 390/2/136 388/2/252 392/2/138
f 393/2/253 391/2/137 389/2/135
f 394/2/140 390/2/136 392/2/138
f 391/2/137 393/2/253 395/2/141
f 390/2/136 394/2/140 396/2/142
f 393/2/253 397/2/143 395/2/141
f 398/2/144 396/2/142 394/2/140
f 397/2/143 393/2/253 399/2/145
f 396/2/142 398/2/144 400/2/254
f 401/2/147 397/2/143 399/2/145
f 402/2/148 400/2/254 398/2/144
f 397/2/143 401/2/147 403/2/255
f 400/2/254 402/2/148 404/2/150
f 403/2/255 401/2/147 405/2/151
f 406/2/152 404/2/150 402/2/148
f 401/2/147 407/2/256 405/2/151
f 404/2/150 406/2/152 408/2/257
f 407/2/256 409/2/155 405/2/151
f 410/2/156 408/2/257 406/2/152
f 409/2/155 407/2/256 411/2/157
f 408/2/257 410/2/156 412/2/158
f 413/2/159 409/2/155 411/2/157
f 411/2/157 414/2/160 413/2/159
f 414/2/160 415/2/161 413/2/159
f 416/2/162 412/2/158 410/2/156
f 412/2/158 416/2/162 417/2/163
f 418/2/164 417/2/163 416/2/162
f 416/2/162 419/2/165 418/2/164
f 419/2/165 420/2/258 418/2/164
f 419/2/165 421/2/259 420/2/258
f 421/2/259 422/2/168 420/2/258
f 422/2/168 421/2/259 423/2/260
f 423/2/260 424/2/261 422/2/168
f 423/2/260 425/2/171 424/2/261
f 424/2/261 425/2/171 426/2/262
f 425/2/171 427/2/173 426/2/262
f 428/2/174 426/2/262 427/2/173
f 426/2/262 428/2/174 429/2/263
f 428/2/174 430/2/264 429/2/263
f 431/2/177 432/2/265 433/2/179
f 434/2/180 433/2/179 432/2/265
f 435/2/181 431/2/177 433/2/179
f 432/2/265 436/2/182 434/2/180
f 431/2/177 435/2/181 437/2/183
f 438/2/266 434/2/180 436/2/182
f 435/2/181 439/2/267 437/2/183
f 436/2/182 440/2/268 438/2/266
f 439/2/267 435/2/181 441/2/187
f 438/2/266 440/2/268 442/2/188
f 441/2/187 443/2/189 439/2/267
f 440/2/268 444/2/190 442/2/188
f 443/2/189 441/2/187 445/2/191
f 444/2/190 440/2/268 446/2/192
f 447/2/193 443/2/189 445/2/191
f 446/2/192 448/2/194 444/2/190
f 443/2/189 447/2/193 449/2/269
f 448/2/194 446/2/192 450/2/270
f 447/2/193 451/2/197 449/2/269
f 450/2/270 452/2/198 448/2/194
f 451/2/197 447/2/193 453/2/271
f 452/2/198 450/2/270 454/2/200
f 455/2/272 451/2/197 453/2/271
f 454/2/200 456/2/202 452/2/198
f 457/2/273 451/2/197 455/2/272
f 456/2/202 454/2/200 458/2/274
f 459/2/205 457/2/273 455/2/272
f 458/2/274 460/2/275 456/2/202
f 461/2/207 457/2/273 459/2/205
f 460/2/275 458/2/274 462/2/208
f 461/2/207 459/2/205 463/2/276
f 464/2/210 461/2/207 463/2/276
f 464/2/210 463/2/276 465/2/277
f 462/2/208 466/2/212 460/2/275
f 466/2/212 462/2/208 467/2/213
f 466/2/212 467/2/213 468/2/278
f 469/2/215 466/2/212 468/2/278
f 470/2/216 469/2/215 468/2/278
f 469/2/215 470/2/216 471/2/217
f 472/2/218 471/2/217 470/2/216
f 471/2/217 472/2/218 473/2/219
f 472/2/218 474/2/279 473/2/219
f 475/2/221 473/2/219 474/2/279
f 476/2/222 475/2/221 474/2/279
f 475/2/221 476/2/222 477/2/223
f 476/2/222 478/2/224 477/2/223
f 478/2/224 476/2/222 479/2/225
f 478/2/224 479/2/225 480/2/280
f 481/2/81 482/2/239 483/2/79
f 484/2/78 483/2/79 482/2/239
f 482/2/239 481/2/81 485/2/83
f 483/2/79 484/2/78 486/2/281
f 487/2/85 485/2/83 481/2/81
f 488/2/82 486/2/281 484/2/78
f 485/2/83 487/2/85 489/2/282
f 486/2/281 488/2/82 490/2/84
f 491/2/283 489/2/282 487/2/85
f 492/2/284 490/2/84 488/2/82
f 491/2/283 487/2/85 493/2/91
f 492/2/284 488/2/82 494/2/88
f 493/2/91 495/2/93 491/2/283
f 496/2/90 492/2/284 494/2/88
f 495/2/93 493/2/91 497/2/95
f 496/2/90 494/2/88 498/2/92
f 497/2/95 499/2/97 495/2/93
f 500/2/94 496/2/90 498/2/92
f 497/2/95 501/2/285 499/2/97
f 500/2/94 498/2/92 502/2/244
f 503/2/101 499/2/97 501/2/285
f 502/2/244 504/2/98 500/2/94
f 503/2/101 501/2/285 505/2/103
f 504/2/98 502/2/244 506/2/100
f 507/2/105 503/2/101 505/2/103
f 508/2/102 504/2/98 506/2/100
f 507/2/105 505/2/103 509/2/107
f 504/2/98 508/2/102 510/2/246
f 511/2/109 507/2/105 509/2/107
f 512/2/106 510/2/246 508/2/102
f 507/2/105 511/2/109 513/2/111
f 510/2/246 512/2/106 514/2/286
f 515/2/113 513/2/111 511/2/109
f 515/2/113 511/2/109 516/2/114
f 516/2/114 517/2/287 515/2/113
f 518/2/110 514/2/286 512/2/106
f 514/2/286 518/2/110 519/2/112
f 520/2/116 519/2/112 518/2/110
f 519/2/112 520/2/116 521/2/117
f 522/2/118 521/2/117 520/2/116
f 521/2/117 522/2/118 523/2/119
f 524/2/120 523/2/119 522/2/118
f 523/2/119 524/2/120 525/2/121
f 526/2/122 525/2/121 524/2/120
f 525/2/121 526/2/122 527/2/123
f 528/2/288 527/2/123 526/2/122
f 527/2/123 528/2/288 529/2/125
f 528/2/288 530/2/126 529/2/125
f 531/2/230 532/2/289 533/2/29
f 532/2/289 531/2/230 534/2/32
f 533/2/29 535/2/27 531/2/230
f 534/2/32 536/2/34 532/2/289
f 535/2/27 533/2/29 537/2/31
f 536/2/34 534/2/32 538/2/290
f 537/2/31 539/2/231 535/2/27
f 538/2/290 540/2/291 536/2/34
f 539/2/231 537/2/31 541/2/35
f 536/2/34 540/2/291 542/2/40
f 541/2/35 543/2/292 539/2/231
f 540/2/291 544/2/42 542/2/40
f 545/2/39 539/2/231 543/2/292
f 542/2/40 544/2/42 546/2/44
f 543/2/292 547/2/41 545/2/39
f 548/2/46 546/2/44 544/2/42
f 549/2/43 545/2/39 547/2/41
f 546/2/44 548/2/46 550/2/234
f 547/2/41 551/2/45 549/2/43
f 550/2/234 548/2/46 552/2/50
f 549/2/43 551/2/45 553/2/293
f 554/2/52 550/2/234 552/2/50
f 551/2/45 555/2/49 553/2/293
f 552/2/50 556/2/54 554/2/52
f 553/2/293 555/2/49 557/2/51
f 554/2/52 556/2/54 558/2/56
f 555/2/49 559/2/53 557/2/51
f 556/2/54 560/2/58 558/2/56
f 559/2/53 555/2/49 561/2/294
f 560/2/58 556/2/54 562/2/60
f 561/2/294 563/2/295 559/2/53
f 562/2/60 564/2/62 560/2/58
f 560/2/58 564/2/62 565/2/63
f 565/2/63 564/2/62 566/2/64
f 563/2/295 561/2/294 567/2/59
f 567/2/59 568/2/61 563/2/295
f 568/2/61 567/2/59 569/2/296
f 569/2/296 570/2/66 568/2/61
f 570/2/66 569/2/296 571/2/67
f 571/2/67 572/2/68 570/2/66
f 572/2/68 571/2/67 573/2/69
f 573/2/69 574/2/70 572/2/68
f 574/2/70 573/2/69 575/2/297
f 575/2/297 576/2/72 574/2/70
f 576/2/72 575/2/297 577/2/298
f 577/2/298 578/2/74 576/2/72
f 578/2/74 577/2/298 579/2/299
f 578/2/74 579/2/299 580/2/300
f 581/2/179 582/2/178 583/2/180
f 584/2/182 583/2/180 582/2/178
f 582/2/178 581/2/179 585/2/177
f 583/2/180 584/2/182 586/2/184
f 587/2/181 585/2/177 581/2/179
f 588/2/186 586/2/184 584/2/182
f 585/2/177 587/2/181 589/2/301
f 586/2/184 588/2/186 590/2/188
f 591/2/267 589/2/301 587/2/181
f 592/2/190 590/2/188 588/2/186
f 591/2/267 587/2/181 593/2/187
f 592/2/190 588/2/186 594/2/192
f 593/2/187 595/2/189 591/2/267
f 596/2/302 592/2/190 594/2/192
f 595/2/189 593/2/187 597/2/191
f 596/2/302 594/2/192 598/2/303
f 599/2/304 595/2/189 597/2/191
f 600/2/305 596/2/302 598/2/303
f 595/2/189 599/2/304 601/2/269
f 600/2/305 598/2/303 602/2/200
f 603/2/197 601/2/269 599/2/304
f 602/2/200 604/2/202 600/2/305
f 603/2/197 599/2/304 605/2/271
f 604/2/202 602/2/200 606/2/204
f 607/2/306 603/2/197 605/2/271
f 606/2/204 608/2/275 604/2/202
f 603/2/197 607/2/306 609/2/203
f 606/2/204 610/2/307 608/2/275
f 611/2/205 609/2/203 607/2/306
f 612/2/212 608/2/275 610/2/307
f 609/2/203 611/2/205 613/2/308
f 612/2/212 610/2/307 614/2/213
f 615/2/309 613/2/308 611/2/205
f 613/2/308 615/2/309 616/2/210
f 615/2/309 617/2/310 616/2/210
f 618/2/311 612/2/212 614/2/213
f 612/2/212 618/2/311 619/2/215
f 620/2/216 619/2/215 618/2/311
f 619/2/215 620/2/216 621/2/217
f 622/2/312 621/2/217 620/2/216
f 621/2/217 622/2/312 623/2/313
f 624/2/220 623/2/313 622/2/312
f 623/2/313 624/2/220 625/2/221
f 626/2/222 625/2/221 624/2/220
f 625/2/221 626/2/222 627/2/223
f 626/2/222 628/2/224 627/2/223
f 626/2/222 629/2/314 628/2/224
f 629/2/314 630/2/315 628/2/224
f 631/2/129 632/2/316 633/2/128
f 632/2/316 631/2/129 634/2/130
f 633/2/128 635/2/131 631/2/129
f 634/2/130 636/2/132 632/2/316
f 635/2/131 633/2/128 637/2/133
f 636/2/132 634/2/130 638/2/134
f 637/2/133 639/2/135 635/2/131
f 638/2/134 640/2/317 636/2/132
f 635/2/131 639/2/135 641/2/137
f 640/2/317 638/2/134 642/2/138
f 639/2/135 643/2/139 641/2/137
f 642/2/138 644/2/140 640/2/317
f 641/2/137 643/2/139 645/2/141
f 646/2/142 640/2/317 644/2/140
f 643/2/139 647/2/143 645/2/141
f 644/2/140 648/2/318 646/2/142
f 647/2/143 643/2/139 649/2/145
f 650/2/146 646/2/142 648/2/318
f 647/2/143 649/2/145 651/2/147
f 648/2/318 652/2/148 650/2/146
f 653/2/319 647/2/143 651/2/147
f 650/2/146 652/2/148 654/2/150
f 651/2/147 655/2/320 653/2/319
f 652/2/148 656/2/152 654/2/150
f 655/2/320 651/2/147 657/2/321
f 654/2/150 656/2/152 658/2/257
f 657/2/321 659/2/155 655/2/320
f 660/2/156 658/2/257 656/2/152
f 659/2/155 657/2/321 661/2/322
f 658/2/257 660/2/156 662/2/323
f 661/2/322 663/2/324 659/2/155
f 663/2/324 661/2/322 664/2/160
f 663/2/324 664/2/160 665/2/325
f 660/2/156 666/2/162 662/2/323
f 662/2/323 666/2/162 667/2/163
f 666/2/162 668/2/164 667/2/163
f 668/2/164 666/2/162 669/2/165
f 669/2/165 670/2/258 668/2/164
f 670/2/258 669/2/165 671/2/167
f 671/2/167 672/2/168 670/2/258
f 672/2/168 671/2/167 673/2/169
f 673/2/169 674/2/170 672/2/168
f 674/2/170 673/2/169 675/2/171
f 675/2/171 676/2/262 674/2/170
f 676/2/262 675/2/171 677/2/173
f 678/2/174 676/2/262 677/2/173
f 676/2/262 678/2/174 679/2/326
f 679/2/326 678/2/174 680/2/327
f 681/2/241 682/2/239 683/2/79
f 684/2/240 683/2/79 682/2/239
f 682/2/239 681/2/241 685/2/328
f 683/2/79 684/2/240 686/2/80
f 687/2/85 685/2/328 681/2/241
f 688/2/82 686/2/80 684/2/240
f 685/2/328 687/2/85 689/2/87
f 686/2/80 688/2/82 690/2/84
f 691/2/89 689/2/87 687/2/85
f 692/2/329 690/2/84 688/2/82
f 691/2/89 687/2/85 693/2/91
f 692/2/329 688/2/82 694/2/88
f 693/2/91 695/2/243 691/2/89
f 696/2/90 692/2/329 694/2/88
f 695/2/243 693/2/91 697/2/95
f 696/2/90 694/2/88 698/2/92
f 697/2/95 699/2/97 695/2/243
f 700/2/94 696/2/90 698/2/92
f 697/2/95 701/2/245 699/2/97
f 700/2/94 698/2/92 702/2/244
f 703/2/101 699/2/97 701/2/245
f 702/2/244 704/2/98 700/2/94
f 703/2/101 701/2/245 705/2/103
f 704/2/98 702/2/244 706/2/100
f 707/2/247 703/2/101 705/2/103
f 708/2/102 704/2/98 706/2/100
f 707/2/247 705/2/103 709/2/330
f 704/2/98 708/2/102 710/2/104
f 711/2/109 707/2/247 709/2/330
f 712/2/106 710/2/104 708/2/102
f 707/2/247 711/2/109 713/2/111
f 710/2/104 712/2/106 714/2/248
f 715/2/113 713/2/111 711/2/109
f 715/2/113 711/2/109 716/2/114
f 716/2/114 717/2/287 715/2/113
f 718/2/110 714/2/248 712/2/106
f 714/2/248 718/2/110 719/2/249
f 720/2/116 719/2/249 718/2/110
f 719/2/249 720/2/116 721/2/117
f 722/2/118 721/2/117 720/2/116
f 721/2/117 722/2/118 723/2/119
f 724/2/120 723/2/119 722/2/118
f 723/2/119 724/2/120 725/2/121
f 726/2/122 725/2/121 724/2/120
f 725/2/121 726/2/122 727/2/250
f 728/2/124 727/2/250 726/2/122
f 727/2/250 728/2/124 729/2/125
f 728/2/124 730/2/126 729/2/125
f 731/2/230 732/2/289 733/2/29
f 732/2/289 731/2/230 734/2/331
f 733/2/29 735/2/229 731/2/230
f 734/2/331 736/2/34 732/2/289
f 735/2/229 733/2/29 737/2/31
f 736/2/34 734/2/331 738/2/290
f 737/2/31 739/2/231 735/2/229
f 738/2/290 740/2/38 736/2/34
f 739/2/231 737/2/31 741/2/35
f 736/2/34 740/2/38 742/2/40
f 741/2/35 743/2/37 739/2/231
f 740/2/38 744/2/42 742/2/40
f 745/2/39 739/2/231 743/2/37
f 742/2/40 744/2/42 746/2/44
f 743/2/37 747/2/41 745/2/39
f 748/2/46 746/2/44 744/2/42
f 749/2/43 745/2/39 747/2/41
f 746/2/44 748/2/46 750/2/234
f 747/2/41 751/2/45 749/2/43
f 750/2/234 748/2/46 752/2/50
f 749/2/43 751/2/45 753/2/47
f 754/2/52 750/2/234 752/2/50
f 751/2/45 755/2/49 753/2/47
f 752/2/50 756/2/236 754/2/52
f 753/2/47 755/2/49 757/2/51
f 754/2/52 756/2/236 758/2/56
f 755/2/49 759/2/53 757/2/51
f 756/2/236 760/2/58 758/2/56
f 759/2/53 755/2/49 761/2/294
f 760/2/58 756/2/236 762/2/60
f 761/2/294 763/2/295 759/2/53
f 762/2/60 764/2/62 760/2/58
f 760/2/58 764/2/62 765/2/63
f 765/2/63 764/2/62 766/2/332
f 763/2/295 761/2/294 767/2/237
f 767/2/237 768/2/61 763/2/295
f 768/2/61 767/2/237 769/2/238
f 769/2/238 770/2/66 768/2/61
f 770/2/66 769/2/238 771/2/67
f 771/2/67 772/2/68 770/2/66
f 772/2/68 771/2/67 773/2/69
f 773/2/69 774/2/70 772/2/68
f 774/2/70 773/2/69 775/2/333
f 775/2/333 776/2/334 774/2/70
f 776/2/334 775/2/333 777/2/73
f 777/2/73 778/2/335 776/2/334
f 778/2/335 777/2/73 779/2/299
f 778/2/335 779/2/299 780/2/336
f 781/2/179 782/2/178 783/2/180
f 784/2/182 783/2/180 782/2/178
f 782/2/178 781/2/179 785/2/177
f 783/2/180 784/2/182 786/2/266
f 787/2/181 785/2/177 781/2/179
f 788/2/186 786/2/266 784/2/182
f 785/2/177 787/2/181 789/2/183
f 786/2/266 788/2/186 790/2/188
f 791/2/267 789/2/183 787/2/181
f 792/2/190 790/2/188 788/2/186
f 791/2/267 787/2/181 793/2/187
f 792/2/190 788/2/186 794/2/192
f 793/2/187 795/2/189 791/2/267
f 796/2/302 792/2/190 794/2/192
f 795/2/189 793/2/187 797/2/191
f 796/2/302 794/2/192 798/2/270
f 799/2/337 795/2/189 797/2/191
f 800/2/305 796/2/302 798/2/270
f 795/2/189 799/2/337 801/2/269
f 800/2/305 798/2/270 802/2/200
f 803/2/197 801/2/269 799/2/337
f 802/2/200 804/2/202 800/2/305
f 803/2/197 799/2/337 805/2/199
f 804/2/202 802/2/200 806/2/204
f 807/2/338 803/2/197 805/2/199
f 806/2/204 808/2/275 804/2/202
f 803/2/197 807/2/338 809/2/273
f 806/2/204 810/2/307 808/2/275
f 811/2/205 809/2/273 807/2/338
f 812/2/212 808/2/275 810/2/307
f 809/2/273 811/2/205 813/2/207
f 812/2/212 810/2/307 814/2/213
f 815/2/209 813/2/207 811/2/205
f 813/2/207 815/2/209 816/2/339
f 815/2/209 817/2/277 816/2/339
f 818/2/278 812/2/212 814/2/213
f 812/2/212 818/2/278 819/2/215
f 820/2/216 819/2/215 818/2/278
f 819/2/215 820/2/216 821/2/217
f 822/2/218 821/2/217 820/2/216
f 821/2/217 822/2/218 823/2/313
f 824/2/340 823/2/313 822/2/218
f 823/2/313 824/2/340 825/2/341
f 826/2/222 825/2/341 824/2/340
f 825/2/341 826/2/222 827/2/223
f 826/2/222 828/2/224 827/2/223
f 826/2/222 829/2/342 828/2/224
f 829/2/342 830/2/315 828/2/224
f 831/2/129 832/2/127 833/2/128
f 832/2/127 831/2/129 834/2/130
f 833/2/128 835/2/131 831/2/129
f 834/2/130 836/2/132 832/2/127
f 835/2/131 833/2/128 837/2/343
f 836/2/132 834/2/130 838/2/134
f 837/2/343 839/2/135 835/2/131
f 838/2/134 840/2/317 836/2/132
f 835/2/131 839/2/135 841/2/137
f 840/2/317 838/2/134 842/2/344
f 839/2/135 843/2/139 841/2/137
f 842/2/344 844/2/140 840/2/317
f 841/2/137 843/2/139 845/2/141
f 846/2/142 840/2/317 844/2/140
f 843/2/139 847/2/143 845/2/141
f 844/2/140 848/2/318 846/2/142
f 847/2/143 843/2/139 849/2/145
f 850/2/254 846/2/142 848/2/318
f 847/2/143 849/2/145 851/2/147
f 848/2/318 852/2/148 850/2/254
f 853/2/255 847/2/143 851/2/147
f 850/2/254 852/2/148 854/2/150
f 851/2/147 855/2/320 853/2/255
f 852/2/148 856/2/345 854/2/150
f 855/2/320 851/2/147 857/2/346
f 854/2/150 856/2/345 858/2/154
f 857/2/346 859/2/155 855/2/320
f 860/2/156 858/2/154 856/2/345
f 859/2/155 857/2/346 861/2/157
f 858/2/154 860/2/156 862/2/323
f 861/2/157 863/2/159 859/2/155
f 863/2/159 861/2/157 864/2/160
f 863/2/159 864/2/160 865/2/161
f 860/2/156 866/2/162 862/2/323
f 862/2/323 866/2/162 867/2/163
f 866/2/162 868/2/347 867/2/163
f 868/2/347 866/2/162 869/2/348
f 869/2/348 870/2/166 868/2/347
f 870/2/166 869/2/348 871/2/167
f 871/2/167 872/2/168 870/2/166
f 872/2/168 871/2/167 873/2/169
f 873/2/169 874/2/261 872/2/168
f 874/2/261 873/2/169 875/2/171
f 875/2/171 876/2/262 874/2/261
f 876/2/262 875/2/171 877/2/173
f 878/2/174 876/2/262 877/2/173
f 876/2/262 878/2/174 879/2/349
f 879/2/349 878/2/174 880/2/327
