# Blender 5.2.0 LTS
# www.blender.org
mtllib maggothy.mtl
o Glorious_Handgun.001
v 0.227090 -0.170195 -0.076693
v 0.229967 -0.175067 0.054656
v 0.207955 -0.209966 -0.069792
v 0.210486 -0.214249 0.045673
v 0.272005 0.140219 -0.055674
v 0.206315 -0.156988 0.045358
v 0.203894 -0.152894 -0.065054
v 0.274423 0.136124 0.054738
v 0.272005 0.140219 -0.055674
v 0.040035 0.134932 -0.050787
v 0.042454 0.130836 0.059625
v 0.274423 0.136124 0.054738
v -0.025217 -0.142048 0.050986
v -0.027638 -0.137952 -0.059426
v -0.048351 -0.152420 -0.069998
v -0.045474 -0.157293 0.061352
v 0.203894 -0.152894 -0.065054
v 0.229967 -0.175067 0.054656
v 0.227090 -0.170195 -0.076693
v 0.206315 -0.156988 0.045358
v 0.229967 -0.175067 0.054656
v -0.045474 -0.157293 0.061352
v 0.210486 -0.214249 0.045673
v -0.031643 -0.198625 0.051558
v 0.206315 -0.156988 0.045358
v 0.042454 0.130836 0.059625
v -0.025217 -0.142048 0.050986
v 0.274423 0.136124 0.054738
v 0.206315 -0.156988 0.045358
v -0.025217 -0.142048 0.050986
v -0.045474 -0.157293 0.061352
v 0.229967 -0.175067 0.054656
v -0.034174 -0.194342 -0.063906
v -0.045474 -0.157293 0.061352
v -0.048351 -0.152420 -0.069998
v -0.031643 -0.198625 0.051558
v -0.025217 -0.142048 0.050986
v 0.042454 0.130836 0.059625
v -0.027638 -0.137952 -0.059426
v 0.040035 0.134932 -0.050787
v -0.034174 -0.194342 -0.063906
v 0.207955 -0.209966 -0.069792
v 0.210486 -0.214249 0.045673
v -0.031643 -0.198625 0.051558
v -0.048351 -0.152420 -0.069998
v 0.207955 -0.209966 -0.069792
v -0.034174 -0.194342 -0.063906
v 0.227090 -0.170195 -0.076693
v 0.272005 0.140219 -0.055674
v 0.203894 -0.152894 -0.065054
v 0.040035 0.134932 -0.050787
v -0.027638 -0.137952 -0.059426
v -0.048351 -0.152420 -0.069998
v 0.203894 -0.152894 -0.065054
v 0.227090 -0.170195 -0.076693
v -0.027638 -0.137952 -0.059426
vn 0.8992 -0.4361 -0.0359
vn 0.8993 -0.4359 -0.0359
vn 0.8992 -0.4360 -0.0359
vn 0.8991 -0.4362 -0.0359
vn 0.9746 -0.2221 -0.0296
vn -0.0220 0.9991 0.0375
vn -0.5867 0.8087 0.0429
vn 0.6023 0.7981 0.0164
vn 0.6024 0.7980 0.0164
vn 0.6025 0.7980 0.0164
vn 0.0099 -0.2252 0.9743
vn 0.0219 -0.0371 0.9991
vn 0.0536 0.5110 0.8579
vn 0.0535 0.5109 0.8580
vn 0.0537 0.5112 0.8578
vn 0.0535 0.5108 0.8580
vn -0.9470 -0.3212 0.0088
vn -0.9470 -0.3211 0.0088
vn -0.9471 -0.3210 0.0088
vn -0.9711 0.2369 0.0301
vn -0.0645 -0.9973 -0.0356
vn -0.0644 -0.9973 -0.0356
vn -0.0331 -0.1524 -0.9878
vn -0.0219 0.0371 -0.9991
vn 0.0168 0.5730 -0.8194
vn 0.0168 0.5729 -0.8194
vt 0.111293 0.770705
vt -0.111293 0.770705
vt 0.097833 0.704587
vt -0.097833 0.704587
vt 0.093552 1.295410
vt -0.093552 0.801573
vt 0.093552 0.801573
vt -0.093552 1.295410
vt -0.276445 0.906448
vt 0.116477 0.906448
vt 0.116477 1.093550
vt -0.276445 1.093550
vt 0.241210 1.093550
vt 0.241210 0.906448
vt 0.276445 0.888707
vt 0.276445 1.111290
vt -0.150217 0.906448
vt -0.189214 1.111290
vt -0.189214 0.888707
vt -0.150217 1.093550
vt 0.189214 0.770705
vt -0.276445 0.811445
vt 0.155055 0.704587
vt -0.254286 0.740399
vt 0.150217 0.801573
vt -0.116477 1.295410
vt -0.241210 0.835819
vt 0.276445 1.295410
vt -0.097833 0.740399
vt 0.111293 0.811445
vt -0.111293 0.811445
vt 0.097833 0.740399
vt 0.093552 0.835819
vt -0.093552 0.835819
vt -0.254286 0.902167
vt 0.155055 0.902167
vt 0.155055 1.097830
vt -0.254286 1.097830
vt 0.276445 0.811445
vt -0.155055 0.704587
vt 0.254286 0.740399
vt -0.189214 0.770705
vt -0.276445 1.295410
vt -0.150217 0.801573
vt 0.116477 1.295410
vt 0.241210 0.835819
s 1
usemtl Meshpart2Mtl.001
f 1/1/1 2/2/2 3/3/3
f 3/3/3 2/2/2 4/4/4
f 5/5/5 6/6/5 7/7/5
f 6/6/5 5/5/5 8/8/5
f 9/9/6 10/10/6 11/11/6
f 9/9/6 11/11/6 12/12/6
f 13/13/7 14/14/7 15/15/7
f 15/15/7 16/16/7 13/13/7
f 17/17/8 18/18/9 19/19/10
f 18/18/9 17/17/8 20/20/9
f 21/21/11 22/22/11 23/23/11
f 23/23/11 22/22/11 24/24/11
f 25/25/12 26/26/12 27/27/12
f 26/26/12 25/25/12 28/28/12
f 29/25/13 30/27/14 31/22/15
f 31/22/15 32/21/16 29/25/13
f 33/29/17 34/30/18 35/31/19
f 34/30/18 33/29/17 36/32/18
f 37/33/20 38/5/20 39/34/20
f 40/8/20 39/34/20 38/5/20
f 41/35/21 42/36/22 43/37/21
f 41/35/21 43/37/21 44/38/21
f 45/39/23 46/40/23 47/41/23
f 46/40/23 45/39/23 48/42/23
f 49/43/24 50/44/24 51/45/24
f 50/44/24 52/46/24 51/45/24
f 53/39/25 54/44/26 55/42/25
f 54/44/26 53/39/25 56/46/25
