# Blender 5.2.0 LTS
# www.blender.org
mtllib ppine uzi.mtl
o RenderMesh_14653989624
v -0.678991 0.168510 0.026405
v -0.678991 0.167952 -0.000000
v -0.678991 0.157573 -0.000000
v -0.678991 0.168510 -0.026405
v -0.678991 0.175850 0.019065
v -0.678991 0.175850 -0.019066
v -0.678991 0.194915 0.026963
v -0.678991 0.194915 -0.037343
v -0.678991 0.194915 0.037342
v -0.678991 0.194915 -0.026963
v -0.678991 0.221320 0.026405
v -0.678991 0.221320 -0.026405
v -0.678991 0.213981 0.019065
v -0.678991 0.213981 -0.019066
v -0.678991 0.232257 -0.000000
v -0.678991 0.221878 -0.000000
v -0.596687 0.175850 -0.019066
v -0.678991 0.194915 -0.026963
v -0.678991 0.175850 -0.019066
v -0.596687 0.194915 -0.026964
v -0.678991 0.213981 -0.019066
v -0.596687 0.213981 -0.019066
v -0.596687 0.221878 -0.000001
v -0.678991 0.221878 -0.000000
v -0.596687 0.167952 -0.000001
v -0.678991 0.167952 -0.000000
v -0.596687 0.175850 0.019065
v -0.678991 0.175850 0.019065
v -0.596687 0.194915 0.026962
v -0.678991 0.194915 0.026963
v -0.596687 0.213981 0.019065
v -0.678991 0.213981 0.019065
v 0.110044 -0.390544 -0.094510
v 0.381612 -0.390544 -0.094512
v 0.381612 -0.390544 0.094511
v 0.110044 -0.390544 0.094512
v -0.513033 0.147564 -0.047351
v -0.513033 0.242266 -0.047351
v -0.513033 0.194915 -0.066965
v -0.513033 0.261879 -0.000000
v -0.513033 0.127951 -0.000000
v -0.513033 0.242266 0.047350
v -0.513033 0.147564 0.047350
v -0.513033 0.194915 0.066964
v 0.615034 0.333838 -0.015545
v 0.615034 0.330780 -0.000041
v 0.615034 0.316096 -0.015545
v 0.615034 0.316096 0.015464
v 0.615034 0.333838 0.015464
v 0.615034 0.375225 0.016397
v 0.615034 0.382017 -0.000000
v 0.615034 0.381083 0.022255
v 0.615034 0.358828 0.023189
v 0.615034 0.390302 -0.000000
v 0.615034 0.358828 0.031474
v 0.615034 0.381083 -0.022255
v 0.615034 0.336573 0.022255
v 0.615034 0.375225 -0.016397
v 0.615034 0.342431 0.016397
v 0.615034 0.358828 -0.023189
v 0.615034 0.335639 -0.000000
v 0.615034 0.358828 -0.031475
v 0.615034 0.327354 -0.000000
v 0.615034 0.336573 -0.022255
v 0.615034 0.342431 -0.016397
v -0.513033 0.147564 0.047350
v -0.430613 0.147564 0.047350
v -0.430613 0.194915 0.066964
v -0.513033 0.127951 -0.000000
v -0.513033 0.194915 0.066964
v -0.430613 0.127951 -0.000001
v -0.430613 0.242266 0.047350
v -0.513033 0.147564 -0.047351
v -0.513033 0.242266 0.047350
v -0.430613 0.147564 -0.047353
v -0.513033 0.261879 -0.000000
v -0.513033 0.194915 -0.066965
v -0.430613 0.261879 -0.000001
v -0.430613 0.194915 -0.066965
v -0.513033 0.242266 -0.047351
v -0.430613 0.242266 -0.047353
v -0.434354 0.308118 -0.069416
v -0.434354 0.040663 -0.069416
v -0.434352 0.040663 0.069424
v -0.434352 0.308118 0.069424
v -0.406679 0.322483 -0.026684
v -0.406679 0.379479 -0.026684
v -0.406679 0.322483 -0.047190
v -0.406679 0.379479 -0.047190
v -0.406679 0.306416 -0.026684
v -0.406679 0.306416 -0.047190
v -0.406679 0.322483 -0.000000
v -0.406679 0.306416 -0.000000
v -0.406679 0.306416 0.026683
v -0.406679 0.322483 0.026683
v -0.406679 0.322483 0.047189
v -0.406679 0.306416 0.047189
v -0.406679 0.379479 0.026683
v -0.406679 0.379479 0.047189
v 0.657234 0.326394 0.049867
v 0.668998 0.314804 -0.049868
v 0.657234 0.326394 -0.049868
v 0.668998 0.314804 0.049867
v -0.377686 0.360464 -0.001190
v -0.384780 0.321446 -0.008285
v -0.384780 0.321446 0.008283
v -0.377686 0.360464 0.001188
v 0.490954 0.152631 -0.094512
v 0.490955 0.152631 0.094511
v 0.509567 0.024175 -0.094512
v 0.509567 0.024175 0.094511
v 0.480573 -0.003824 0.094511
v 0.480573 -0.003824 -0.094512
v 0.388192 -0.003824 -0.094512
v 0.388192 -0.003824 0.094511
v -0.381278 0.186165 -0.082985
v -0.381278 0.025489 -0.082985
v -0.381278 0.025489 0.082990
v -0.381278 0.186165 0.082990
v 0.381612 -0.390544 -0.094512
v 0.423841 -0.250271 -0.094512
v 0.381612 -0.390544 0.094511
v 0.423842 -0.250271 0.094511
v 0.388192 -0.003824 -0.094512
v 0.388192 -0.003824 0.094511
v -0.127135 0.152631 -0.094510
v -0.150040 0.024175 -0.094510
v -0.150039 0.024175 0.094512
v -0.127135 0.152631 0.094512
v -0.121046 -0.003824 -0.094510
v -0.121044 -0.003824 0.094512
v 0.110044 -0.003824 -0.094510
v 0.110044 -0.003824 0.094512
v 0.633407 0.025489 -0.082986
v -0.381278 0.025489 0.082990
v -0.381278 0.025489 -0.082985
v 0.633407 0.025489 0.082989
v 0.678991 0.057766 -0.082986
v 0.678991 0.057766 0.082989
v 0.678991 0.318687 0.082989
v 0.678991 0.318687 -0.082986
v 0.542120 0.040663 -0.069417
v -0.434352 0.040663 0.069424
v -0.434354 0.040663 -0.069416
v 0.542120 0.040663 0.069422
v 0.668720 0.313940 0.036155
v 0.668720 0.361840 0.036155
v 0.668720 0.361840 0.057833
v 0.668720 0.313940 0.057833
v 0.644643 0.390544 0.057833
v 0.644643 0.390544 0.036155
v 0.575059 0.390544 0.057833
v 0.575059 0.390544 0.036155
v 0.550982 0.361840 0.057833
v 0.550982 0.361840 0.036155
v 0.550982 0.313940 0.057833
v 0.550982 0.313940 0.036155
v 0.668720 0.361840 -0.057836
v 0.668720 0.313940 -0.036160
v 0.668720 0.313940 -0.057836
v 0.668720 0.361840 -0.036160
v 0.644643 0.390544 -0.057836
v 0.644643 0.390544 -0.036160
v 0.575059 0.390544 -0.057836
v 0.575059 0.390544 -0.036160
v 0.550982 0.361840 -0.057836
v 0.550982 0.361840 -0.036160
v 0.550982 0.313940 -0.057836
v 0.550982 0.313940 -0.036160
v -0.375308 0.360464 -0.001190
v -0.377686 0.360464 -0.001190
v -0.377686 0.360464 0.001188
v -0.375308 0.360464 0.001188
v -0.127135 0.152631 0.094512
v -0.121044 -0.003824 0.094512
v 0.110044 -0.003824 0.094512
v -0.150039 0.024175 0.094512
v 0.490955 0.152631 0.094511
v 0.388192 -0.003824 0.094511
v 0.509567 0.024175 0.094511
v 0.480573 -0.003824 0.094511
v 0.423842 -0.250271 0.094511
v 0.110044 -0.390544 0.094512
v 0.381612 -0.390544 0.094511
v 0.509567 0.024175 -0.094512
v 0.388192 -0.003824 -0.094512
v 0.490954 0.152631 -0.094512
v 0.480573 -0.003824 -0.094512
v 0.110044 -0.003824 -0.094510
v -0.127135 0.152631 -0.094510
v 0.423841 -0.250271 -0.094512
v -0.121046 -0.003824 -0.094510
v -0.150040 0.024175 -0.094510
v 0.110044 -0.390544 -0.094510
v 0.381612 -0.390544 -0.094512
v 0.413232 0.186165 0.082989
v -0.381278 0.025489 0.082990
v 0.633407 0.025489 0.082989
v -0.381278 0.186165 0.082990
v 0.539921 0.318687 0.082989
v 0.678991 0.057766 0.082989
v 0.678991 0.318687 0.082989
v 0.615034 0.333838 -0.015545
v 0.603967 0.333838 -0.015545
v 0.603967 0.330780 -0.000041
v 0.615034 0.330780 -0.000041
v 0.615034 0.330780 -0.000041
v 0.603967 0.330780 -0.000041
v 0.603967 0.333838 0.015464
v 0.615034 0.333838 0.015464
v 0.566167 0.326394 -0.049868
v 0.657234 0.326394 0.049867
v 0.657234 0.326394 -0.049868
v 0.566167 0.326394 0.049867
v 0.633407 0.025489 -0.082986
v 0.539921 0.318687 -0.082986
v 0.678991 0.057766 -0.082986
v 0.678991 0.318687 -0.082986
v 0.413232 0.186165 -0.082986
v -0.381278 0.025489 -0.082985
v -0.381278 0.186165 -0.082985
v -0.406679 0.322483 -0.000000
v -0.345912 0.322483 -0.000001
v -0.406679 0.322483 -0.026684
v -0.345912 0.322483 -0.026684
v -0.345912 0.322483 0.026682
v -0.406679 0.322483 0.026683
v 0.678991 0.318687 -0.082986
v 0.539921 0.318687 -0.082986
v 0.539921 0.318687 0.082989
v 0.678991 0.318687 0.082989
v 0.542120 0.308118 0.069422
v -0.434352 0.308118 0.069424
v 0.542120 0.040663 0.069422
v -0.434352 0.040663 0.069424
v 0.542120 0.308118 -0.069417
v 0.259578 0.199533 -0.069417
v 0.259578 0.295863 -0.069417
v -0.067474 0.295863 -0.069417
v 0.542120 0.040663 -0.069417
v -0.434354 0.308118 -0.069416
v -0.067474 0.199533 -0.069417
v -0.434354 0.040663 -0.069416
v 0.542120 0.308118 -0.069417
v -0.434354 0.308118 -0.069416
v -0.434352 0.308118 0.069424
v 0.542120 0.308118 0.069422
v 0.668720 0.313940 0.057833
v 0.644643 0.390544 0.057833
v 0.550982 0.313940 0.057833
v 0.668720 0.361840 0.057833
v 0.575059 0.390544 0.057833
v 0.550982 0.361840 0.057833
v 0.550982 0.313940 -0.057836
v 0.644643 0.390544 -0.057836
v 0.668720 0.313940 -0.057836
v 0.668720 0.361840 -0.057836
v 0.575059 0.390544 -0.057836
v 0.550982 0.361840 -0.057836
v -0.406679 0.322483 0.047189
v -0.370910 0.379479 0.047189
v -0.406679 0.379479 0.047189
v -0.345912 0.347899 0.047189
v -0.345912 0.322483 0.047189
v -0.406679 0.306416 0.047189
v -0.345912 0.306416 0.047189
v -0.370910 0.379479 -0.047190
v -0.406679 0.322483 -0.047190
v -0.406679 0.379479 -0.047190
v -0.345912 0.347899 -0.047190
v -0.345912 0.322483 -0.047190
v -0.406679 0.306416 -0.047190
v -0.345912 0.306416 -0.047190
v -0.377686 0.360464 0.001188
v -0.384780 0.321446 0.008283
v -0.368212 0.321446 0.008283
v -0.375308 0.360464 0.001188
v -0.067474 0.295863 -0.023270
v 0.259578 0.295863 -0.023270
v 0.259578 0.199533 -0.023270
v -0.067474 0.199533 -0.023270
v -0.368212 0.321446 -0.008285
v -0.377686 0.360464 -0.001190
v -0.375308 0.360464 -0.001190
v -0.384780 0.321446 -0.008285
v -0.678991 0.221320 -0.026405
v -0.506292 0.232257 -0.000001
v -0.506292 0.221320 -0.026406
v -0.678991 0.232257 -0.000000
v -0.678991 0.194915 -0.037343
v -0.506292 0.221320 0.026404
v -0.506292 0.194915 -0.037343
v -0.678991 0.221320 0.026405
v -0.678991 0.168510 -0.026405
v -0.506292 0.194915 0.037342
v -0.506292 0.168510 -0.026406
v -0.678991 0.194915 0.037342
v -0.506292 0.157573 -0.000001
v -0.506292 0.168510 0.026404
v -0.678991 0.157573 -0.000000
v -0.678991 0.168510 0.026405
v 0.603967 0.316096 0.015464
v 0.615034 0.316096 0.015464
v 0.603967 0.333838 0.015464
v 0.615034 0.333838 0.015464
v 0.615034 0.333838 -0.015545
v 0.603967 0.316096 -0.015545
v 0.603967 0.333838 -0.015545
v 0.615034 0.316096 -0.015545
v 0.603967 0.358828 0.023189
v 0.615034 0.358828 0.023189
v 0.615034 0.342431 0.016397
v 0.603967 0.375225 0.016397
v 0.603967 0.342431 0.016397
v 0.615034 0.375225 0.016397
v 0.603967 0.335639 -0.000000
v 0.603967 0.382017 -0.000000
v 0.615034 0.335639 -0.000000
v 0.615034 0.382017 -0.000000
v 0.603967 0.342431 -0.016397
v 0.603967 0.375225 -0.016397
v 0.615034 0.342431 -0.016397
v 0.615034 0.375225 -0.016397
v 0.603967 0.358828 -0.023189
v 0.615034 0.358828 -0.023189
v 0.615034 0.336573 0.022255
v 0.615034 0.358828 0.031474
v 0.603967 0.336573 0.022255
v 0.603967 0.358828 0.031474
v 0.603967 0.327354 -0.000000
v 0.615034 0.381083 0.022255
v 0.615034 0.327354 -0.000000
v 0.603967 0.381083 0.022255
v 0.603967 0.336573 -0.022255
v 0.615034 0.390302 -0.000000
v 0.615034 0.336573 -0.022255
v 0.603967 0.390302 -0.000000
v 0.603967 0.358828 -0.031475
v 0.615034 0.381083 -0.022255
v 0.615034 0.358828 -0.031475
v 0.603967 0.381083 -0.022255
v -0.345912 0.347899 -0.026684
v -0.406679 0.322483 -0.026684
v -0.345912 0.322483 -0.026684
v -0.370910 0.379479 -0.026684
v -0.406679 0.379479 -0.026684
v -0.370910 0.379479 0.026683
v -0.406679 0.322483 0.026683
v -0.406679 0.379479 0.026683
v -0.345912 0.347899 0.026682
v -0.345912 0.322483 0.026682
v 0.550982 0.313940 -0.036160
v 0.668720 0.313940 -0.036160
v 0.644643 0.390544 -0.036160
v 0.668720 0.361840 -0.036160
v 0.575059 0.390544 -0.036160
v 0.550982 0.361840 -0.036160
v 0.644643 0.390544 0.036155
v 0.550982 0.313940 0.036155
v 0.575059 0.390544 0.036155
v 0.550982 0.361840 0.036155
v 0.668720 0.313940 0.036155
v 0.668720 0.361840 0.036155
v 0.110044 -0.003824 -0.094510
v 0.110044 -0.390544 -0.094510
v 0.110044 -0.390544 0.094512
v 0.110044 -0.003824 0.094512
v -0.067474 0.199533 -0.023270
v 0.259578 0.199533 -0.023270
v -0.067474 0.199533 -0.069417
v 0.259578 0.199533 -0.069417
v 0.259578 0.295863 -0.023270
v -0.067474 0.295863 -0.023270
v 0.259578 0.295863 -0.069417
v -0.067474 0.295863 -0.069417
v -0.381278 0.186165 -0.082985
v 0.413232 0.186165 0.082989
v 0.413232 0.186165 -0.082986
v -0.381278 0.186165 0.082990
v 0.490954 0.152631 -0.094512
v -0.127135 0.152631 -0.094510
v -0.127135 0.152631 0.094512
v 0.490955 0.152631 0.094511
v -0.067474 0.199533 -0.069417
v -0.067474 0.295863 -0.069417
v -0.067474 0.295863 -0.023270
v -0.067474 0.199533 -0.023270
v 0.259578 0.199533 -0.023270
v 0.259578 0.295863 -0.023270
v 0.259578 0.199533 -0.069417
v 0.259578 0.295863 -0.069417
v 0.539921 0.318687 -0.082986
v 0.413232 0.186165 -0.082986
v 0.413232 0.186165 0.082989
v 0.539921 0.318687 0.082989
v 0.554403 0.314804 -0.049868
v 0.554403 0.314804 0.049867
v 0.566167 0.326394 -0.049868
v 0.566167 0.326394 0.049867
v -0.370910 0.379479 -0.047190
v -0.345912 0.347899 -0.026684
v -0.345912 0.347899 -0.047190
v -0.370910 0.379479 -0.026684
v -0.406679 0.379479 -0.047190
v -0.406679 0.379479 -0.026684
v -0.345912 0.322483 -0.026684
v -0.345912 0.322483 -0.047190
v -0.345912 0.306416 -0.047190
v -0.345912 0.306416 -0.026684
v -0.345912 0.306416 -0.000001
v -0.345912 0.322483 -0.000001
v -0.345912 0.322483 0.026682
v -0.345912 0.306416 0.026682
v -0.345912 0.306416 0.047189
v -0.345912 0.322483 0.047189
v -0.345912 0.347899 0.047189
v -0.345912 0.347899 0.026682
v -0.370910 0.379479 0.026683
v -0.370910 0.379479 0.047189
v -0.406679 0.379479 0.047189
v -0.406679 0.379479 0.026683
v -0.375308 0.360464 0.001188
v -0.368212 0.321446 -0.008285
v -0.375308 0.360464 -0.001190
v -0.368212 0.321446 0.008283
v 0.603967 0.316096 -0.015545
v 0.603967 0.330780 -0.000041
v 0.603967 0.333838 -0.015545
v 0.603967 0.316096 0.015464
v 0.603967 0.333838 0.015464
v 0.603967 0.381083 -0.022255
v 0.603967 0.382017 -0.000000
v 0.603967 0.390302 -0.000000
v 0.603967 0.381083 0.022255
v 0.603967 0.375225 -0.016397
v 0.603967 0.375225 0.016397
v 0.603967 0.358828 -0.023189
v 0.603967 0.358828 0.023189
v 0.603967 0.358828 -0.031475
v 0.603967 0.358828 0.031474
v 0.603967 0.336573 -0.022255
v 0.603967 0.336573 0.022255
v 0.603967 0.342431 -0.016397
v 0.603967 0.342431 0.016397
v 0.603967 0.335639 -0.000000
v 0.603967 0.327354 -0.000000
vn -1.0000 -0.0000 -0.0000
vn -0.6303 0.5490 0.5490
vn -0.0000 -0.0000 1.0000
vn -0.0000 0.7071 0.7071
vn -0.6303 -0.0000 0.7764
vn -0.0000 -0.7071 0.7071
vn -0.6303 -0.5490 0.5490
vn -0.6303 -0.7764 -0.0000
vn -0.0000 -1.0000 -0.0000
vn -0.6303 0.7764 -0.0000
vn -0.0000 1.0000 -0.0000
vn -0.6303 0.5490 -0.5490
vn -0.0000 0.7071 -0.7071
vn -0.6303 -0.0000 -0.7764
vn -0.0000 -0.0000 -1.0000
vn -0.6303 -0.5490 -0.5490
vn -0.0000 -0.7071 -0.7071
vn 1.0000 -0.0000 -0.0000
vn 0.7018 0.7124 -0.0000
vn -0.9839 0.1789 -0.0000
vn 0.9897 0.1434 -0.0000
vn 0.9462 -0.3235 -0.0000
vn 0.9462 -0.3236 -0.0000
vn 0.3746 -0.9272 -0.0000
vn 0.9575 -0.2883 -0.0000
vn 0.9972 -0.0743 -0.0000
vn 0.9897 0.1432 -0.0000
vn -0.9845 0.1755 -0.0000
vn -0.9514 -0.3081 -0.0000
vn -0.3746 -0.9272 -0.0000
vn 0.3032 -0.9529 -0.0000
vn 0.8882 -0.4594 -0.0000
vn 0.9397 0.3419 -0.0000
vn 0.4227 0.9063 -0.0000
vn -0.4227 0.9063 -0.0000
vn -0.9397 0.3419 -0.0000
vn -0.0000 0.9811 0.1935
vn -0.0000 0.9811 -0.1935
vn -0.0000 0.1789 0.9839
vn -0.0000 0.1789 -0.9839
vn -0.7228 0.6910 -0.0000
vn -0.7018 0.7124 -0.0000
vn 0.4355 0.9002 -0.0000
vn 0.9445 0.3286 -0.0000
vn 0.9839 0.1789 -0.0000
vt 0.000000 0.000000
s 1
f 1/1/1 2/1/1 3/1/1
f 4/1/1 3/1/1 2/1/1
f 2/1/1 1/1/1 5/1/1
f 4/1/1 2/1/1 6/1/1
f 1/1/1 7/1/1 5/1/1
f 6/1/1 8/1/1 4/1/1
f 7/1/1 1/1/1 9/1/1
f 8/1/1 6/1/1 10/1/1
f 11/1/1 7/1/1 9/1/1
f 12/1/1 8/1/1 10/1/1
f 7/1/1 11/1/1 13/1/1
f 10/1/1 14/1/1 12/1/1
f 15/1/1 13/1/1 11/1/1
f 15/1/1 12/1/1 14/1/1
f 13/1/1 15/1/1 16/1/1
f 15/1/1 14/1/1 16/1/1
f 17/1/2 18/1/3 19/1/4
f 18/1/3 17/1/2 20/1/5
f 20/1/5 21/1/6 18/1/3
f 21/1/6 20/1/5 22/1/7
f 17/1/2 22/1/7 20/1/5
f 23/1/8 21/1/6 22/1/7
f 17/1/2 23/1/8 22/1/7
f 21/1/6 23/1/8 24/1/9
f 17/1/2 19/1/4 25/1/10
f 26/1/11 25/1/10 19/1/4
f 25/1/10 26/1/11 27/1/12
f 27/1/12 17/1/2 25/1/10
f 28/1/13 27/1/12 26/1/11
f 29/1/14 17/1/2 27/1/12
f 28/1/13 29/1/14 27/1/12
f 17/1/2 29/1/14 23/1/8
f 29/1/14 28/1/13 30/1/15
f 31/1/16 24/1/9 23/1/8
f 23/1/8 29/1/14 31/1/16
f 30/1/15 31/1/16 29/1/14
f 24/1/9 31/1/16 32/1/17
f 31/1/16 30/1/15 32/1/17
f 33/1/9 34/1/9 35/1/9
f 33/1/9 35/1/9 36/1/9
f 37/1/1 38/1/1 39/1/1
f 37/1/1 40/1/1 38/1/1
f 41/1/1 40/1/1 37/1/1
f 41/1/1 42/1/1 40/1/1
f 42/1/1 41/1/1 43/1/1
f 42/1/1 43/1/1 44/1/1
f 45/1/18 46/1/18 47/1/18
f 46/1/18 48/1/18 47/1/18
f 48/1/18 46/1/18 49/1/18
f 50/1/18 51/1/18 52/1/18
f 52/1/18 53/1/18 50/1/18
f 54/1/18 52/1/18 51/1/18
f 52/1/18 55/1/18 53/1/18
f 51/1/18 56/1/18 54/1/18
f 57/1/18 53/1/18 55/1/18
f 56/1/18 51/1/18 58/1/18
f 53/1/18 57/1/18 59/1/18
f 60/1/18 56/1/18 58/1/18
f 57/1/18 61/1/18 59/1/18
f 56/1/18 60/1/18 62/1/18
f 57/1/18 63/1/18 61/1/18
f 64/1/18 62/1/18 60/1/18
f 64/1/18 61/1/18 63/1/18
f 64/1/18 60/1/18 65/1/18
f 61/1/18 64/1/18 65/1/18
f 66/1/6 67/1/6 68/1/3
f 69/1/9 67/1/6 66/1/6
f 66/1/6 68/1/3 70/1/3
f 69/1/9 71/1/9 67/1/6
f 70/1/3 68/1/3 72/1/4
f 73/1/17 71/1/9 69/1/9
f 70/1/3 72/1/4 74/1/4
f 73/1/17 75/1/17 71/1/9
f 72/1/4 76/1/11 74/1/4
f 77/1/15 75/1/17 73/1/17
f 76/1/11 72/1/4 78/1/11
f 77/1/15 79/1/15 75/1/17
f 78/1/11 80/1/13 76/1/11
f 80/1/13 79/1/15 77/1/15
f 80/1/13 78/1/11 81/1/13
f 80/1/13 81/1/13 79/1/15
f 82/1/1 83/1/1 84/1/1
f 82/1/1 84/1/1 85/1/1
f 86/1/1 87/1/1 88/1/1
f 89/1/1 88/1/1 87/1/1
f 88/1/1 90/1/1 86/1/1
f 91/1/1 90/1/1 88/1/1
f 86/1/1 90/1/1 92/1/1
f 90/1/1 93/1/1 92/1/1
f 92/1/1 93/1/1 94/1/1
f 92/1/1 94/1/1 95/1/1
f 94/1/1 96/1/1 95/1/1
f 96/1/1 94/1/1 97/1/1
f 98/1/1 95/1/1 96/1/1
f 98/1/1 96/1/1 99/1/1
f 100/1/19 101/1/19 102/1/19
f 101/1/19 100/1/19 103/1/19
f 104/1/20 105/1/20 106/1/20
f 104/1/20 106/1/20 107/1/20
f 108/1/21 109/1/21 110/1/22
f 110/1/22 109/1/21 111/1/23
f 110/1/22 111/1/23 112/1/24
f 112/1/24 113/1/24 110/1/22
f 113/1/24 112/1/24 114/1/9
f 114/1/9 112/1/24 115/1/9
f 116/1/1 117/1/1 118/1/1
f 116/1/1 118/1/1 119/1/1
f 120/1/25 121/1/26 122/1/25
f 121/1/26 123/1/26 122/1/25
f 121/1/26 124/1/27 123/1/26
f 124/1/27 125/1/27 123/1/26
f 126/1/28 127/1/29 128/1/29
f 126/1/28 128/1/29 129/1/28
f 130/1/30 128/1/29 127/1/29
f 128/1/29 130/1/30 131/1/30
f 132/1/9 131/1/30 130/1/30
f 131/1/30 132/1/9 133/1/9
f 134/1/31 135/1/9 136/1/9
f 135/1/9 134/1/31 137/1/31
f 138/1/32 137/1/31 134/1/31
f 137/1/31 138/1/32 139/1/32
f 138/1/32 140/1/18 139/1/32
f 140/1/18 138/1/32 141/1/18
f 142/1/9 143/1/9 144/1/9
f 143/1/9 142/1/9 145/1/9
f 146/1/18 147/1/33 148/1/33
f 146/1/18 148/1/33 149/1/18
f 147/1/33 150/1/34 148/1/33
f 147/1/33 151/1/34 150/1/34
f 151/1/34 152/1/35 150/1/34
f 151/1/34 153/1/35 152/1/35
f 153/1/35 154/1/36 152/1/35
f 153/1/35 155/1/36 154/1/36
f 155/1/36 156/1/1 154/1/36
f 155/1/36 157/1/1 156/1/1
f 158/1/33 159/1/18 160/1/18
f 159/1/18 158/1/33 161/1/33
f 158/1/33 162/1/34 161/1/33
f 162/1/34 163/1/34 161/1/33
f 162/1/34 164/1/35 163/1/34
f 165/1/35 163/1/34 164/1/35
f 164/1/35 166/1/36 165/1/35
f 166/1/36 167/1/36 165/1/35
f 166/1/36 168/1/1 167/1/36
f 169/1/1 167/1/36 168/1/1
f 170/1/11 171/1/11 172/1/11
f 170/1/11 172/1/11 173/1/11
f 174/1/3 175/1/3 176/1/3
f 175/1/3 174/1/3 177/1/3
f 176/1/3 178/1/3 174/1/3
f 178/1/3 176/1/3 179/1/3
f 179/1/3 180/1/3 178/1/3
f 180/1/3 179/1/3 181/1/3
f 182/1/3 179/1/3 176/1/3
f 183/1/3 182/1/3 176/1/3
f 182/1/3 183/1/3 184/1/3
f 185/1/15 186/1/15 187/1/15
f 186/1/15 185/1/15 188/1/15
f 189/1/15 187/1/15 186/1/15
f 187/1/15 189/1/15 190/1/15
f 191/1/15 189/1/15 186/1/15
f 189/1/15 192/1/15 190/1/15
f 190/1/15 192/1/15 193/1/15
f 189/1/15 191/1/15 194/1/15
f 194/1/15 191/1/15 195/1/15
f 196/1/3 197/1/3 198/1/3
f 197/1/3 196/1/3 199/1/3
f 198/1/3 200/1/3 196/1/3
f 201/1/3 200/1/3 198/1/3
f 200/1/3 201/1/3 202/1/3
f 203/1/37 204/1/37 205/1/37
f 203/1/37 205/1/37 206/1/37
f 207/1/38 208/1/38 209/1/38
f 207/1/38 209/1/38 210/1/38
f 211/1/11 212/1/11 213/1/11
f 212/1/11 211/1/11 214/1/11
f 215/1/15 216/1/15 217/1/15
f 218/1/15 217/1/15 216/1/15
f 216/1/15 215/1/15 219/1/15
f 215/1/15 220/1/15 219/1/15
f 221/1/15 219/1/15 220/1/15
f 222/1/11 223/1/11 224/1/11
f 225/1/11 224/1/11 223/1/11
f 222/1/11 226/1/11 223/1/11
f 226/1/11 222/1/11 227/1/11
f 228/1/11 229/1/11 230/1/11
f 228/1/11 230/1/11 231/1/11
f 232/1/3 233/1/3 234/1/3
f 235/1/3 234/1/3 233/1/3
f 236/1/15 237/1/15 238/1/15
f 239/1/15 236/1/15 238/1/15
f 237/1/15 236/1/15 240/1/15
f 236/1/15 239/1/15 241/1/15
f 240/1/15 242/1/15 237/1/15
f 242/1/15 241/1/15 239/1/15
f 242/1/15 240/1/15 243/1/15
f 241/1/15 242/1/15 243/1/15
f 244/1/11 245/1/11 246/1/11
f 244/1/11 246/1/11 247/1/11
f 248/1/3 249/1/3 250/1/3
f 249/1/3 248/1/3 251/1/3
f 252/1/3 250/1/3 249/1/3
f 250/1/3 252/1/3 253/1/3
f 254/1/15 255/1/15 256/1/15
f 256/1/15 255/1/15 257/1/15
f 255/1/15 254/1/15 258/1/15
f 258/1/15 254/1/15 259/1/15
f 260/1/3 261/1/3 262/1/3
f 261/1/3 260/1/3 263/1/3
f 263/1/3 260/1/3 264/1/3
f 265/1/3 264/1/3 260/1/3
f 265/1/3 266/1/3 264/1/3
f 267/1/15 268/1/15 269/1/15
f 270/1/15 268/1/15 267/1/15
f 268/1/15 270/1/15 271/1/15
f 268/1/15 271/1/15 272/1/15
f 273/1/15 272/1/15 271/1/15
f 274/1/39 275/1/39 276/1/39
f 276/1/39 277/1/39 274/1/39
f 278/1/15 279/1/15 280/1/15
f 278/1/15 280/1/15 281/1/15
f 282/1/40 283/1/40 284/1/40
f 283/1/40 282/1/40 285/1/40
f 286/1/13 287/1/11 288/1/13
f 287/1/11 286/1/13 289/1/11
f 286/1/13 288/1/13 290/1/15
f 289/1/11 291/1/4 287/1/11
f 292/1/15 290/1/15 288/1/13
f 291/1/4 289/1/11 293/1/4
f 290/1/15 292/1/15 294/1/17
f 291/1/4 293/1/4 295/1/3
f 296/1/17 294/1/17 292/1/15
f 297/1/3 295/1/3 293/1/4
f 298/1/9 294/1/17 296/1/17
f 295/1/3 297/1/3 299/1/6
f 294/1/17 298/1/9 300/1/9
f 299/1/6 300/1/9 298/1/9
f 301/1/6 299/1/6 297/1/3
f 300/1/9 299/1/6 301/1/6
f 302/1/3 303/1/3 304/1/3
f 303/1/3 305/1/3 304/1/3
f 306/1/15 307/1/15 308/1/15
f 307/1/15 306/1/15 309/1/15
f 310/1/15 311/1/15 312/1/13
f 313/1/17 311/1/15 310/1/15
f 310/1/15 312/1/13 314/1/13
f 313/1/17 315/1/17 311/1/15
f 316/1/11 314/1/13 312/1/13
f 317/1/9 315/1/17 313/1/17
f 318/1/11 316/1/11 312/1/13
f 317/1/9 319/1/9 315/1/17
f 320/1/4 316/1/11 318/1/11
f 321/1/6 319/1/9 317/1/9
f 322/1/4 320/1/4 318/1/11
f 321/1/6 323/1/6 319/1/9
f 322/1/4 324/1/3 320/1/4
f 321/1/6 325/1/3 323/1/6
f 324/1/3 322/1/4 325/1/3
f 325/1/3 321/1/6 324/1/3
f 326/1/6 327/1/3 328/1/6
f 328/1/6 327/1/3 329/1/3
f 330/1/9 326/1/6 328/1/6
f 327/1/3 331/1/4 329/1/3
f 332/1/9 326/1/6 330/1/9
f 329/1/3 331/1/4 333/1/4
f 334/1/17 332/1/9 330/1/9
f 335/1/11 333/1/4 331/1/4
f 336/1/17 332/1/9 334/1/17
f 337/1/11 333/1/4 335/1/11
f 338/1/15 336/1/17 334/1/17
f 339/1/13 337/1/11 335/1/11
f 340/1/15 336/1/17 338/1/15
f 341/1/13 337/1/11 339/1/13
f 339/1/13 340/1/15 341/1/13
f 341/1/13 340/1/15 338/1/15
f 342/1/3 343/1/3 344/1/3
f 345/1/3 343/1/3 342/1/3
f 343/1/3 345/1/3 346/1/3
f 347/1/15 348/1/15 349/1/15
f 348/1/15 347/1/15 350/1/15
f 348/1/15 350/1/15 351/1/15
f 352/1/3 353/1/3 354/1/3
f 354/1/3 353/1/3 355/1/3
f 356/1/3 352/1/3 354/1/3
f 352/1/3 356/1/3 357/1/3
f 358/1/15 359/1/15 360/1/15
f 360/1/15 359/1/15 361/1/15
f 359/1/15 358/1/15 362/1/15
f 362/1/15 358/1/15 363/1/15
f 364/1/1 365/1/1 366/1/1
f 364/1/1 366/1/1 367/1/1
f 368/1/11 369/1/11 370/1/11
f 371/1/11 370/1/11 369/1/11
f 372/1/9 373/1/9 374/1/9
f 375/1/9 374/1/9 373/1/9
f 376/1/11 377/1/11 378/1/11
f 377/1/11 376/1/11 379/1/11
f 380/1/11 381/1/11 382/1/11
f 380/1/11 382/1/11 383/1/11
f 384/1/18 385/1/18 386/1/18
f 384/1/18 386/1/18 387/1/18
f 388/1/1 389/1/1 390/1/1
f 391/1/1 390/1/1 389/1/1
f 392/1/41 393/1/41 394/1/41
f 392/1/41 394/1/41 395/1/41
f 396/1/42 397/1/42 398/1/42
f 398/1/42 397/1/42 399/1/42
f 400/1/43 401/1/44 402/1/44
f 401/1/44 400/1/43 403/1/43
f 400/1/43 404/1/11 403/1/43
f 405/1/11 403/1/43 404/1/11
f 406/1/18 402/1/44 401/1/44
f 402/1/44 406/1/18 407/1/18
f 408/1/18 407/1/18 406/1/18
f 408/1/18 406/1/18 409/1/18
f 409/1/18 406/1/18 410/1/18
f 406/1/18 411/1/18 410/1/18
f 410/1/18 411/1/18 412/1/18
f 410/1/18 412/1/18 413/1/18
f 413/1/18 412/1/18 414/1/18
f 412/1/18 415/1/18 414/1/18
f 412/1/18 416/1/44 415/1/18
f 417/1/44 416/1/44 412/1/18
f 418/1/43 416/1/44 417/1/44
f 416/1/44 418/1/43 419/1/43
f 418/1/43 420/1/11 419/1/43
f 418/1/43 421/1/11 420/1/11
f 422/1/45 423/1/45 424/1/45
f 423/1/45 422/1/45 425/1/45
f 426/1/1 427/1/1 428/1/1
f 427/1/1 426/1/1 429/1/1
f 429/1/1 430/1/1 427/1/1
f 431/1/1 432/1/1 433/1/1
f 434/1/1 433/1/1 432/1/1
f 432/1/1 431/1/1 435/1/1
f 434/1/1 432/1/1 436/1/1
f 431/1/1 437/1/1 435/1/1
f 438/1/1 434/1/1 436/1/1
f 437/1/1 431/1/1 439/1/1
f 434/1/1 438/1/1 440/1/1
f 441/1/1 437/1/1 439/1/1
f 438/1/1 442/1/1 440/1/1
f 437/1/1 441/1/1 443/1/1
f 442/1/1 438/1/1 444/1/1
f 441/1/1 445/1/1 443/1/1
f 445/1/1 442/1/1 444/1/1
f 445/1/1 441/1/1 446/1/1
f 442/1/1 445/1/1 446/1/1
o RenderMesh_113119345786980
v -0.228863 0.298476 -0.163560
v -0.223886 0.316395 -0.136596
v -0.069398 0.316744 -0.179495
v -0.336288 0.277276 -0.117361
v -0.323105 0.301933 -0.084620
v -0.424653 0.249988 -0.040080
v -0.412947 0.268256 -0.017583
v -0.228863 0.298476 0.163560
v -0.069398 0.316744 0.179495
v -0.223886 0.316395 0.136596
v -0.336288 0.277276 0.117361
v -0.323105 0.301933 0.084620
v -0.424653 0.249988 0.040080
v -0.412947 0.268256 0.017583
v -0.283636 0.144002 -0.118214
v -0.360085 0.097791 -0.029141
v -0.373770 0.123296 -0.040932
v -0.267748 0.108213 -0.100312
v -0.174943 0.157233 -0.164412
v -0.167952 0.129300 -0.148797
v -0.014564 0.163707 -0.180347
v -0.283636 0.144002 0.118214
v -0.360085 0.097791 0.029141
v -0.267748 0.108213 0.100312
v -0.373770 0.123296 0.040932
v -0.174943 0.157233 0.164412
v -0.167952 0.129300 0.148797
v -0.014564 0.163707 0.180347
v -0.245241 0.207096 -0.055472
v -0.150342 0.283863 -0.072281
v -0.148176 0.258238 -0.107146
v -0.244554 0.226622 -0.030828
v -0.046696 0.323809 -0.096286
v -0.039954 0.306421 -0.123462
v 0.109924 0.362522 -0.096412
v -0.150342 0.283863 0.072281
v -0.245241 0.207096 0.055472
v -0.148176 0.258238 0.107146
v -0.244554 0.226622 0.030828
v -0.046696 0.323809 0.096286
v -0.039954 0.306421 0.123462
v 0.109924 0.362522 0.096412
v 0.004711 0.063604 -0.123483
v -0.091910 0.062179 -0.056153
v -0.105064 0.085853 -0.072141
v -0.010340 0.096666 -0.147091
v 0.101356 0.104478 -0.189078
v 0.107579 0.078851 -0.169308
v 0.263353 0.110194 -0.197246
v -0.010340 0.096666 0.147091
v -0.105064 0.085853 0.072141
v 0.004711 0.063604 0.123483
v -0.091910 0.062179 0.056153
v 0.101356 0.104478 0.189078
v 0.107579 0.078851 0.169308
v 0.263353 0.110194 0.197246
v 0.235125 0.007957 -0.099331
v 0.133139 0.006420 -0.040445
v 0.117890 0.021039 -0.063744
v 0.217220 0.028685 -0.132897
v 0.329804 0.046796 -0.168909
v 0.338193 0.030032 -0.141800
v 0.487923 0.083401 -0.169385
v 0.217220 0.028685 0.132897
v 0.117890 0.021039 0.063744
v 0.235125 0.007957 0.099331
v 0.133139 0.006420 0.040445
v 0.329804 0.046796 0.168909
v 0.338193 0.030032 0.141800
v 0.487923 0.083401 0.169385
v 0.614177 0.131467 -0.108381
v 0.534834 0.135863 -0.046276
v 0.532327 0.114991 -0.060928
v 0.615362 0.159741 -0.086560
v 0.695592 0.162420 -0.140001
v 0.692390 0.182785 -0.121899
v 0.812743 0.220153 -0.155754
v 0.534834 0.135863 0.046276
v 0.614177 0.131467 0.108381
v 0.532327 0.114991 0.060928
v 0.615362 0.159741 0.086560
v 0.695592 0.162420 0.140001
v 0.692390 0.182785 0.121899
v 0.812743 0.220153 0.155754
v -0.219835 0.271133 -0.147945
v -0.228863 0.298476 -0.163560
v -0.069398 0.316744 -0.179495
v -0.317808 0.242754 -0.099459
v -0.336288 0.277276 -0.117361
v -0.409126 0.225559 -0.028289
v -0.424653 0.249988 -0.040080
v -0.219835 0.271133 0.147945
v -0.069398 0.316744 0.179495
v -0.228863 0.298476 0.163560
v -0.317808 0.242754 0.099459
v -0.336288 0.277276 0.117361
v -0.409126 0.225559 0.028289
v -0.424653 0.249988 0.040080
v -0.373770 0.123296 -0.040932
v -0.268672 0.167621 -0.085472
v -0.283636 0.144002 -0.118214
v -0.360752 0.140653 -0.018435
v -0.168659 0.174736 -0.137448
v -0.174943 0.157233 -0.164412
v -0.014564 0.163707 -0.180347
v -0.268672 0.167621 0.085472
v -0.373770 0.123296 0.040932
v -0.283636 0.144002 0.118214
v -0.360752 0.140653 0.018435
v -0.168659 0.174736 0.137448
v -0.174943 0.157233 0.164412
v -0.014564 0.163707 0.180347
v 0.528805 0.224221 -0.073256
v 0.438260 0.179518 -0.019828
v 0.435963 0.155878 -0.040406
v 0.528157 0.192747 -0.103744
v 0.619948 0.244969 -0.145713
v 0.615758 0.266797 -0.120455
v 0.753886 0.332085 -0.168079
v 0.528157 0.192747 0.103744
v 0.435963 0.155878 0.040406
v 0.528805 0.224221 0.073256
v 0.438260 0.179518 0.019828
v 0.619948 0.244969 0.145713
v 0.615758 0.266797 0.120455
v 0.753886 0.332085 0.168079
v -0.147417 0.175099 -0.078965
v -0.043803 0.241159 -0.087989
v -0.048088 0.224644 -0.127811
v -0.141995 0.187855 -0.050735
v 0.062470 0.272427 -0.113340
v 0.064495 0.261410 -0.144338
v 0.222617 0.290118 -0.121624
v -0.043803 0.241159 0.087989
v -0.147417 0.175099 0.078965
v -0.048088 0.224644 0.127811
v -0.141995 0.187855 0.050735
v 0.062470 0.272427 0.113340
v 0.064495 0.261410 0.144338
v 0.222617 0.290118 0.121624
v 0.532327 0.114991 -0.060928
v 0.597611 0.150964 -0.132740
v 0.614177 0.131467 -0.108381
v 0.518522 0.128494 -0.077801
v 0.687138 0.178650 -0.159684
v 0.695592 0.162420 -0.140001
v 0.812743 0.220153 -0.155754
v 0.597611 0.150964 0.132740
v 0.532327 0.114991 0.060928
v 0.614177 0.131467 0.108381
v 0.518522 0.128494 0.077801
v 0.687138 0.178650 0.159684
v 0.695592 0.162420 0.140001
v 0.812743 0.220153 0.155754
v -0.132169 0.149061 -0.070102
v -0.048088 0.224644 -0.127811
v -0.030184 0.187389 -0.114833
v -0.147417 0.175099 -0.078965
v 0.064495 0.261410 -0.144338
v 0.072886 0.231303 -0.133871
v 0.222617 0.290118 -0.121624
v -0.048088 0.224644 0.127811
v -0.132169 0.149061 0.070102
v -0.030184 0.187389 0.114833
v -0.147417 0.175099 0.078965
v 0.064495 0.261410 0.144338
v 0.072886 0.231303 0.133871
v 0.222617 0.290118 0.121624
v 0.337547 0.110465 -0.067026
v 0.242650 0.094886 -0.006674
v 0.229468 0.077657 -0.029141
v 0.321906 0.087133 -0.100312
v 0.428915 0.124434 -0.121014
v 0.421913 0.107197 -0.148797
v 0.575647 0.140033 -0.180347
v 0.321906 0.087133 0.100312
v 0.229468 0.077657 0.029141
v 0.337547 0.110465 0.067026
v 0.242650 0.094886 0.006674
v 0.428915 0.124434 0.121014
v 0.421913 0.107197 0.148797
v 0.575647 0.140033 0.180347
v -0.055895 0.117509 -0.022022
v 0.025994 0.166895 -0.105498
v 0.044291 0.136148 -0.081069
v -0.071406 0.139119 -0.038798
v 0.137925 0.193667 -0.137973
v 0.146637 0.168918 -0.118023
v 0.296945 0.225698 -0.132588
v 0.025994 0.166895 0.105498
v -0.055895 0.117509 0.022022
v 0.044291 0.136148 0.081069
v -0.071406 0.139119 0.038798
v 0.137925 0.193667 0.137973
v 0.146637 0.168918 0.118023
v 0.296945 0.225698 0.132588
v -0.071406 0.139119 -0.038798
v 0.031974 0.196121 -0.074081
v 0.025994 0.166895 -0.105498
v -0.064780 0.160779 -0.016980
v 0.137217 0.214787 -0.112679
v 0.137925 0.193667 -0.137973
v 0.296945 0.225698 -0.132588
v 0.031974 0.196121 0.074081
v -0.071406 0.139119 0.038798
v 0.025994 0.166895 0.105498
v -0.064780 0.160779 0.016980
v 0.137217 0.214787 0.112679
v 0.137925 0.193667 0.137973
v 0.296945 0.225698 0.132588
v 0.435963 0.155878 -0.040406
v 0.502994 0.217553 -0.128812
v 0.528157 0.192747 -0.103744
v 0.415700 0.172759 -0.057538
v 0.605557 0.266221 -0.166391
v 0.619948 0.244969 -0.145713
v 0.753886 0.332085 -0.168079
v 0.502994 0.217553 0.128812
v 0.435963 0.155878 0.040406
v 0.528157 0.192747 0.103744
v 0.415700 0.172759 0.057538
v 0.605557 0.266221 0.166391
v 0.619948 0.244969 0.145713
v 0.753886 0.332085 0.168079
v 0.306387 0.123084 -0.118214
v 0.229468 0.077657 -0.029141
v 0.216045 0.103301 -0.040932
v 0.321906 0.087133 -0.100312
v 0.415210 0.135201 -0.164412
v 0.421913 0.107197 -0.148797
v 0.575647 0.140033 -0.180347
v 0.306387 0.123084 0.118214
v 0.229468 0.077657 0.029141
v 0.321906 0.087133 0.100312
v 0.216045 0.103301 0.040932
v 0.415210 0.135201 0.164412
v 0.421913 0.107197 0.148797
v 0.575647 0.140033 0.180347
v -0.105064 0.085853 -0.072141
v 0.002879 0.124853 -0.116962
v -0.010340 0.096666 -0.147091
v -0.093233 0.106369 -0.051449
v 0.106178 0.125695 -0.164321
v 0.101356 0.104478 -0.189078
v 0.263353 0.110194 -0.197246
v 0.002879 0.124853 0.116962
v -0.105064 0.085853 0.072141
v -0.010340 0.096666 0.147091
v -0.093233 0.106369 0.051449
v 0.106178 0.125695 0.164321
v 0.101356 0.104478 0.189078
v 0.263353 0.110194 0.197246
v 0.235125 0.007957 -0.099331
v 0.138551 0.034113 -0.026612
v 0.133139 0.006420 -0.040445
v 0.239752 0.046098 -0.078249
v 0.338193 0.030032 -0.141800
v 0.336567 0.058419 -0.123812
v 0.487923 0.083401 -0.169385
v 0.138551 0.034113 0.026612
v 0.235125 0.007957 0.099331
v 0.133139 0.006420 0.040445
v 0.239752 0.046098 0.078249
v 0.338193 0.030032 0.141800
v 0.336567 0.058419 0.123812
v 0.487923 0.083401 0.169385
v 0.300898 0.209289 -0.057790
v 0.381946 0.281455 -0.123639
v 0.400077 0.244256 -0.110816
v 0.285513 0.235349 -0.066350
v 0.493686 0.315489 -0.149250
v 0.502275 0.285546 -0.138477
v 0.653507 0.341736 -0.138722
v 0.381946 0.281455 0.123639
v 0.300898 0.209289 0.057790
v 0.400077 0.244256 0.110816
v 0.285513 0.235349 0.066350
v 0.493686 0.315489 0.149250
v 0.502275 0.285546 0.138477
v 0.653507 0.341736 0.138722
v 0.285513 0.235349 -0.066350
v 0.389361 0.299057 -0.084752
v 0.381946 0.281455 -0.123639
v 0.293165 0.248827 -0.038985
v 0.494077 0.327459 -0.118543
v 0.493686 0.315489 -0.149250
v 0.653507 0.341736 -0.138722
v 0.389361 0.299057 0.084752
v 0.285513 0.235349 0.066350
v 0.381946 0.281455 0.123639
v 0.293165 0.248827 0.038985
v 0.494077 0.327459 0.118543
v 0.493686 0.315489 0.149250
v 0.653507 0.341736 0.138722
v -0.150342 0.283863 -0.072281
v -0.227229 0.205838 -0.014844
v -0.129133 0.253598 -0.048725
v -0.244554 0.226622 -0.030828
v -0.046696 0.323809 -0.096286
v -0.035452 0.298402 -0.077311
v 0.109924 0.362522 -0.096412
v -0.244554 0.226622 0.030828
v -0.150342 0.283863 0.072281
v -0.227229 0.205838 0.014844
v -0.129133 0.253598 0.048725
v -0.046696 0.323809 0.096286
v -0.035452 0.298402 0.077311
v 0.109924 0.362522 0.096412
v 0.407871 0.261660 -0.071358
v 0.308539 0.222780 -0.030455
v 0.300898 0.209289 -0.057790
v 0.400077 0.244256 -0.110816
v 0.503119 0.297204 -0.106928
v 0.502275 0.285546 -0.138477
v 0.653507 0.341736 -0.138722
v 0.400077 0.244256 0.110816
v 0.300898 0.209289 0.057790
v 0.407871 0.261660 0.071358
v 0.308539 0.222780 0.030455
v 0.503119 0.297204 0.106928
v 0.502275 0.285546 0.138477
v 0.653507 0.341736 0.138722
v 0.389361 0.299057 -0.084752
v 0.308539 0.222780 -0.030455
v 0.407871 0.261660 -0.071358
v 0.293165 0.248827 -0.038985
v 0.494077 0.327459 -0.118543
v 0.503119 0.297204 -0.106928
v 0.653507 0.341736 -0.138722
v 0.293165 0.248827 0.038985
v 0.389361 0.299057 0.084752
v 0.308539 0.222780 0.030455
v 0.407871 0.261660 0.071358
v 0.494077 0.327459 0.118543
v 0.503119 0.297204 0.106928
v 0.653507 0.341736 0.138722
v -0.227907 0.186309 -0.039455
v -0.148176 0.258238 -0.107146
v -0.127269 0.227989 -0.084239
v -0.245241 0.207096 -0.055472
v -0.039954 0.306421 -0.123462
v -0.029049 0.281075 -0.105432
v 0.109924 0.362522 -0.096412
v -0.148176 0.258238 0.107146
v -0.227907 0.186309 0.039455
v -0.127269 0.227989 0.084239
v -0.245241 0.207096 0.055472
v -0.039954 0.306421 0.123462
v -0.029049 0.281075 0.105432
v 0.109924 0.362522 0.096412
v 0.123312 0.048741 -0.049879
v 0.221506 0.066615 -0.112406
v 0.217220 0.028685 -0.132897
v 0.117890 0.021039 -0.063744
v 0.329804 0.046796 -0.168909
v 0.327777 0.074895 -0.151800
v 0.487923 0.083401 -0.169385
v 0.217220 0.028685 0.132897
v 0.123312 0.048741 0.049879
v 0.117890 0.021039 0.063744
v 0.221506 0.066615 0.112406
v 0.329804 0.046796 0.168909
v 0.327777 0.074895 0.151800
v 0.487923 0.083401 0.169385
v 0.503272 0.248915 -0.098923
v 0.418008 0.196401 -0.036928
v 0.438260 0.179518 -0.019828
v 0.528805 0.224221 -0.073256
v 0.600915 0.287927 -0.142026
v 0.615758 0.266797 -0.120455
v 0.753886 0.332085 -0.168079
v 0.503272 0.248915 0.098923
v 0.438260 0.179518 0.019828
v 0.418008 0.196401 0.036928
v 0.528805 0.224221 0.073256
v 0.600915 0.287927 0.142026
v 0.615758 0.266797 0.120455
v 0.753886 0.332085 0.168079
v 0.321591 0.146548 -0.085472
v 0.242650 0.094886 -0.006674
v 0.337547 0.110465 -0.067026
v 0.229240 0.120524 -0.018435
v 0.421672 0.152639 -0.137448
v 0.428915 0.124434 -0.121014
v 0.575647 0.140033 -0.180347
v 0.229240 0.120524 0.018435
v 0.321591 0.146548 0.085472
v 0.242650 0.094886 0.006674
v 0.337547 0.110465 0.067026
v 0.421672 0.152639 0.137448
v 0.428915 0.124434 0.121014
v 0.575647 0.140033 0.180347
v 0.018340 0.091741 -0.092772
v -0.080094 0.082698 -0.035493
v -0.091910 0.062179 -0.056153
v 0.004711 0.063604 -0.123483
v 0.112898 0.099990 -0.143679
v 0.107579 0.078851 -0.169308
v 0.263353 0.110194 -0.197246
v 0.004711 0.063604 0.123483
v -0.091910 0.062179 0.056153
v 0.018340 0.091741 0.092772
v -0.080094 0.082698 0.035493
v 0.112898 0.099990 0.143679
v 0.107579 0.078851 0.169308
v 0.263353 0.110194 0.197246
v 0.216045 0.103301 -0.040932
v 0.321591 0.146548 -0.085472
v 0.306387 0.123084 -0.118214
v 0.229240 0.120524 -0.018435
v 0.421672 0.152639 -0.137448
v 0.415210 0.135201 -0.164412
v 0.575647 0.140033 -0.180347
v 0.321591 0.146548 0.085472
v 0.216045 0.103301 0.040932
v 0.306387 0.123084 0.118214
v 0.229240 0.120524 0.018435
v 0.421672 0.152639 0.137448
v 0.415210 0.135201 0.164412
v 0.575647 0.140033 0.180347
v 0.050636 0.165377 -0.049038
v -0.049279 0.139170 -0.000236
v -0.055895 0.117509 -0.022022
v 0.044291 0.136148 -0.081069
v 0.146361 0.190022 -0.091820
v 0.146637 0.168918 -0.118023
v 0.296945 0.225698 -0.132588
v 0.044291 0.136148 0.081069
v -0.055895 0.117509 0.022022
v 0.050636 0.165377 0.049038
v -0.049279 0.139170 0.000236
v 0.146361 0.190022 0.091820
v 0.146637 0.168918 0.118023
v 0.296945 0.225698 0.132588
v 0.031974 0.196121 -0.074081
v -0.049279 0.139170 -0.000236
v 0.050636 0.165377 -0.049038
v -0.064780 0.160779 -0.016980
v 0.137217 0.214787 -0.112679
v 0.146361 0.190022 -0.091820
v 0.296945 0.225698 -0.132588
v 0.598527 0.179118 -0.111421
v 0.521036 0.149370 -0.063122
v 0.534834 0.135863 -0.046276
v 0.615362 0.159741 -0.086560
v 0.683622 0.198864 -0.142326
v 0.692390 0.182785 -0.121899
v 0.812743 0.220153 -0.155754
v -0.064780 0.160779 0.016980
v 0.031974 0.196121 0.074081
v -0.049279 0.139170 0.000236
v 0.050636 0.165377 0.049038
v 0.137217 0.214787 0.112679
v 0.146361 0.190022 0.091820
v 0.296945 0.225698 0.132588
v 0.615362 0.159741 0.086560
v 0.534834 0.135863 0.046276
v 0.598527 0.179118 0.111421
v 0.521036 0.149370 0.063122
v 0.683622 0.198864 0.142326
v 0.692390 0.182785 0.121899
v 0.812743 0.220153 0.155754
v -0.043803 0.241159 -0.087989
v -0.126756 0.161829 -0.041903
v -0.025556 0.203695 -0.074419
v -0.141995 0.187855 -0.050735
v 0.062470 0.272427 -0.113340
v 0.071259 0.241990 -0.102010
v 0.222617 0.290118 -0.121624
v -0.141995 0.187855 0.050735
v -0.043803 0.241159 0.087989
v -0.126756 0.161829 0.041903
v -0.025556 0.203695 0.074419
v 0.062470 0.272427 0.113340
v 0.071259 0.241990 0.102010
v 0.222617 0.290118 0.121624
v 0.503272 0.248915 -0.098923
v 0.415700 0.172759 -0.057538
v 0.418008 0.196401 -0.036928
v 0.502994 0.217553 -0.128812
v 0.605557 0.266221 -0.166391
v 0.600915 0.287927 -0.142026
v 0.753886 0.332085 -0.168079
v 0.503272 0.248915 0.098923
v 0.415700 0.172759 0.057538
v 0.502994 0.217553 0.128812
v 0.418008 0.196401 0.036928
v 0.605557 0.266221 0.166391
v 0.600915 0.287927 0.142026
v 0.753886 0.332085 0.168079
v -0.025556 0.203695 -0.074419
v -0.126756 0.161829 -0.041903
v -0.132169 0.149061 -0.070102
v -0.030184 0.187389 -0.114833
v 0.071259 0.241990 -0.102010
v 0.072886 0.231303 -0.133871
v 0.222617 0.290118 -0.121624
v -0.025556 0.203695 0.074419
v -0.132169 0.149061 0.070102
v -0.126756 0.161829 0.041903
v -0.030184 0.187389 0.114833
v 0.071259 0.241990 0.102010
v 0.072886 0.231303 0.133871
v 0.222617 0.290118 0.121624
v 0.597611 0.150964 -0.132740
v 0.518522 0.128494 -0.077801
v 0.521036 0.149370 -0.063122
v 0.598527 0.179118 -0.111421
v 0.687138 0.178650 -0.159684
v 0.683622 0.198864 -0.142326
v 0.812743 0.220153 -0.155754
v 0.597611 0.150964 0.132740
v 0.521036 0.149370 0.063122
v 0.518522 0.128494 0.077801
v 0.598527 0.179118 0.111421
v 0.687138 0.178650 0.159684
v 0.683622 0.198864 0.142326
v 0.812743 0.220153 0.155754
v -0.252348 0.131703 -0.067026
v -0.347081 0.115154 -0.006674
v -0.360085 0.097791 -0.029141
v -0.267748 0.108213 -0.100312
v -0.161128 0.146607 -0.121014
v -0.167952 0.129300 -0.148797
v -0.014564 0.163707 -0.180347
v -0.267748 0.108213 0.100312
v -0.360085 0.097791 0.029141
v -0.252348 0.131703 0.067026
v -0.347081 0.115154 0.006674
v -0.161128 0.146607 0.121014
v -0.167952 0.129300 0.148797
v -0.014564 0.163707 0.180347
v -0.223886 0.316395 -0.136596
v -0.304178 0.267314 -0.066174
v -0.214305 0.288896 -0.120161
v -0.069398 0.316744 -0.179495
v -0.323105 0.301933 -0.084620
v -0.397437 0.243834 -0.005822
v -0.412947 0.268256 -0.017583
v -0.223886 0.316395 0.136596
v -0.304178 0.267314 0.066174
v -0.323105 0.301933 0.084620
v -0.397437 0.243834 0.005822
v -0.412947 0.268256 0.017583
v -0.214305 0.288896 0.120161
v -0.069398 0.316744 0.179495
v 0.221506 0.066615 -0.112406
v 0.123312 0.048741 -0.049879
v 0.138551 0.034113 -0.026612
v 0.239752 0.046098 -0.078249
v 0.327777 0.074895 -0.151800
v 0.336567 0.058419 -0.123812
v 0.487923 0.083401 -0.169385
v 0.239752 0.046098 0.078249
v 0.138551 0.034113 0.026612
v 0.221506 0.066615 0.112406
v 0.123312 0.048741 0.049879
v 0.327777 0.074895 0.151800
v 0.336567 0.058419 0.123812
v 0.487923 0.083401 0.169385
v 0.002879 0.124853 -0.116962
v -0.080094 0.082698 -0.035493
v 0.018340 0.091741 -0.092772
v -0.093233 0.106369 -0.051449
v 0.106178 0.125695 -0.164321
v 0.112898 0.099990 -0.143679
v 0.263353 0.110194 -0.197246
v -0.093233 0.106369 0.051449
v 0.002879 0.124853 0.116962
v -0.080094 0.082698 0.035493
v 0.018340 0.091741 0.092772
v 0.106178 0.125695 0.164321
v 0.112898 0.099990 0.143679
v 0.263353 0.110194 0.197246
v -0.129133 0.253598 -0.048725
v -0.227229 0.205838 -0.014844
v -0.227907 0.186309 -0.039455
v -0.127269 0.227989 -0.084239
v -0.035452 0.298402 -0.077311
v -0.029049 0.281075 -0.105432
v 0.109924 0.362522 -0.096412
v -0.129133 0.253598 0.048725
v -0.227907 0.186309 0.039455
v -0.227229 0.205838 0.014844
v -0.127269 0.227989 0.084239
v -0.035452 0.298402 0.077311
v -0.029049 0.281075 0.105432
v 0.109924 0.362522 0.096412
v -0.268672 0.167621 -0.085472
v -0.347081 0.115154 -0.006674
v -0.252348 0.131703 -0.067026
v -0.360752 0.140653 -0.018435
v -0.168659 0.174736 -0.137448
v -0.161128 0.146607 -0.121014
v -0.014564 0.163707 -0.180347
v -0.360752 0.140653 0.018435
v -0.268672 0.167621 0.085472
v -0.347081 0.115154 0.006674
v -0.252348 0.131703 0.067026
v -0.168659 0.174736 0.137448
v -0.161128 0.146607 0.121014
v -0.014564 0.163707 0.180347
v -0.214305 0.288896 -0.120161
v -0.219835 0.271133 -0.147945
v -0.069398 0.316744 -0.179495
v -0.317808 0.242754 -0.099459
v -0.304178 0.267314 -0.066174
v -0.409126 0.225559 -0.028289
v -0.397437 0.243834 -0.005822
v -0.214305 0.288896 0.120161
v -0.069398 0.316744 0.179495
v -0.219835 0.271133 0.147945
v -0.317808 0.242754 0.099459
v -0.304178 0.267314 0.066174
v -0.409126 0.225559 0.028289
v -0.397437 0.243834 0.005822
vn -0.2580 0.8268 -0.4998
vn -0.2645 0.8258 -0.4980
vn -0.1486 0.8360 -0.5282
vn -0.4534 0.7909 -0.4109
vn -0.4563 0.7902 -0.4092
vn -0.5435 0.7636 -0.3485
vn -0.2580 0.8268 0.4998
vn -0.1486 0.8360 0.5282
vn -0.2645 0.8259 0.4979
vn -0.4534 0.7909 0.4109
vn -0.4563 0.7902 0.4092
vn -0.5435 0.7636 0.3485
vn -0.3726 -0.5436 -0.7521
vn -0.4646 -0.5575 -0.6880
vn -0.3756 -0.5441 -0.7503
vn -0.1754 -0.5148 -0.8392
vn -0.1818 -0.5156 -0.8373
vn -0.0657 -0.4994 -0.8639
vn -0.3726 -0.5436 0.7521
vn -0.4646 -0.5575 0.6880
vn -0.3756 -0.5441 0.7503
vn -0.1754 -0.5148 0.8392
vn -0.1818 -0.5156 0.8373
vn -0.0657 -0.4994 0.8639
vn -0.5981 0.6312 -0.4938
vn -0.5069 0.6803 -0.5294
vn -0.5039 0.6818 -0.5304
vn -0.3128 0.7640 -0.5643
vn -0.3064 0.7665 -0.5645
vn -0.1988 0.8024 -0.5627
vn -0.5069 0.6802 0.5295
vn -0.5981 0.6312 0.4938
vn -0.5039 0.6818 0.5304
vn -0.3128 0.7640 0.5643
vn -0.3064 0.7665 0.5645
vn -0.1988 0.8024 0.5627
vn -0.3337 -0.6451 -0.6874
vn -0.4259 -0.6506 -0.6288
vn -0.3307 -0.6448 -0.6891
vn -0.1289 -0.6265 -0.7687
vn -0.1355 -0.6270 -0.7671
vn -0.0182 -0.6135 -0.7895
vn -0.3307 -0.6448 0.6891
vn -0.4259 -0.6506 0.6288
vn -0.3337 -0.6451 0.6874
vn -0.1290 -0.6264 0.7688
vn -0.1355 -0.6270 0.7671
vn -0.0182 -0.6135 0.7895
vn -0.1287 -0.8739 -0.4687
vn -0.2247 -0.8809 -0.4165
vn -0.1257 -0.8735 -0.4704
vn 0.0773 -0.8379 -0.5403
vn 0.0708 -0.8394 -0.5389
vn 0.1856 -0.8090 -0.5577
vn -0.1257 -0.8735 0.4703
vn -0.2247 -0.8809 0.4165
vn -0.1287 -0.8739 0.4687
vn 0.0773 -0.8379 0.5403
vn 0.0708 -0.8394 0.5389
vn 0.1856 -0.8090 0.5577
vn 0.4884 -0.5429 0.6831
vn 0.5000 -0.5400 0.6770
vn 0.4888 -0.5428 0.6830
vn 0.4314 -0.5630 0.7049
vn 0.4338 -0.5621 0.7042
vn 0.3824 -0.5796 0.7196
vn 0.5000 -0.5400 -0.6770
vn 0.4884 -0.5430 -0.6831
vn 0.4888 -0.5428 -0.6830
vn 0.4314 -0.5630 -0.7049
vn 0.4338 -0.5621 -0.7042
vn 0.3824 -0.5796 -0.7196
vn -0.1434 -0.5276 -0.8373
vn -0.1369 -0.5264 -0.8391
vn -0.0287 -0.5028 -0.8639
vn -0.3345 -0.5703 -0.7503
vn -0.3317 -0.5695 -0.7521
vn -0.4223 -0.5902 -0.6880
vn -0.1434 -0.5276 0.8373
vn -0.0287 -0.5028 0.8639
vn -0.1370 -0.5263 0.8392
vn -0.3345 -0.5703 0.7503
vn -0.3317 -0.5695 0.7521
vn -0.4223 -0.5902 0.6880
vn -0.4858 0.8016 -0.3485
vn -0.3968 0.8216 -0.4092
vn -0.3939 0.8222 -0.4109
vn -0.2030 0.8431 -0.4980
vn -0.1964 0.8436 -0.4998
vn -0.0866 0.8447 -0.5282
vn -0.3968 0.8217 0.4091
vn -0.4858 0.8016 0.3485
vn -0.3939 0.8222 0.4109
vn -0.2030 0.8431 0.4980
vn -0.1964 0.8436 0.4998
vn -0.0866 0.8447 0.5282
vn 0.5990 -0.5608 0.5716
vn 0.6094 -0.5562 0.5651
vn 0.5987 -0.5610 0.5717
vn 0.5461 -0.5891 0.5956
vn 0.5484 -0.5879 0.5947
vn 0.5004 -0.6123 0.6121
vn 0.5987 -0.5610 -0.5718
vn 0.6094 -0.5562 -0.5651
vn 0.5990 -0.5608 -0.5716
vn 0.5461 -0.5891 -0.5956
vn 0.5484 -0.5879 -0.5947
vn 0.5004 -0.6123 -0.6121
vn -0.5344 0.8015 -0.2685
vn -0.4399 0.8459 -0.3016
vn -0.4368 0.8471 -0.3026
vn -0.2388 0.9106 -0.3374
vn -0.2321 0.9122 -0.3376
vn -0.1206 0.9329 -0.3394
vn -0.4399 0.8459 0.3016
vn -0.5344 0.8015 0.2685
vn -0.4368 0.8472 0.3025
vn -0.2388 0.9106 0.3374
vn -0.2321 0.9122 0.3376
vn -0.1206 0.9329 0.3394
vn -0.1497 -0.8228 -0.5483
vn -0.0527 -0.7979 -0.6005
vn -0.0557 -0.7988 -0.5990
vn 0.1450 -0.7331 -0.6645
vn 0.1386 -0.7353 -0.6634
vn 0.2498 -0.6917 -0.6776
vn -0.0532 -0.7978 0.6006
vn -0.1497 -0.8228 0.5483
vn -0.0557 -0.7988 0.5990
vn 0.1450 -0.7331 0.6645
vn 0.1386 -0.7353 0.6634
vn 0.2498 -0.6917 0.6776
vn -0.2247 -0.4210 -0.8788
vn -0.1259 -0.3813 -0.9158
vn -0.1287 -0.3826 -0.9149
vn 0.0773 -0.3096 -0.9477
vn 0.0708 -0.3116 -0.9476
vn 0.1856 -0.2761 -0.9430
vn -0.1258 -0.3814 0.9158
vn -0.2247 -0.4210 0.8788
vn -0.1287 -0.3826 0.9149
vn 0.0773 -0.3096 0.9477
vn 0.0708 -0.3116 0.9476
vn 0.1856 -0.2761 0.9430
vn 0.3811 -0.8299 0.4075
vn 0.3918 -0.8285 0.4002
vn 0.3918 -0.8284 0.4002
vn 0.3807 -0.8299 0.4078
vn 0.3262 -0.8395 0.4346
vn 0.3237 -0.8399 0.4357
vn 0.2744 -0.8466 0.4561
vn 0.3807 -0.8299 -0.4078
vn 0.3918 -0.8284 -0.4002
vn 0.3811 -0.8299 -0.4075
vn 0.3918 -0.8285 -0.4002
vn 0.3262 -0.8395 -0.4346
vn 0.3237 -0.8399 -0.4357
vn 0.2744 -0.8466 -0.4561
vn -0.2622 -0.6957 -0.6688
vn -0.1647 -0.6731 -0.7210
vn -0.1678 -0.6739 -0.7195
vn 0.0372 -0.6205 -0.7833
vn 0.0306 -0.6222 -0.7823
vn 0.1456 -0.5893 -0.7947
vn -0.1648 -0.6730 0.7210
vn -0.2622 -0.6957 0.6688
vn -0.1678 -0.6739 0.7195
vn 0.0372 -0.6205 0.7833
vn 0.0306 -0.6222 0.7823
vn 0.1456 -0.5893 0.7947
vn -0.5422 0.6678 -0.5099
vn -0.4491 0.6963 -0.5599
vn -0.4461 0.6971 -0.5613
vn -0.2494 0.7409 -0.6236
vn -0.2427 0.7423 -0.6245
vn -0.1313 0.7591 -0.6375
vn -0.4491 0.6963 0.5599
vn -0.5422 0.6678 0.5099
vn -0.4461 0.6971 0.5613
vn -0.2494 0.7409 0.6236
vn -0.2427 0.7423 0.6245
vn -0.1313 0.7591 0.6375
vn -0.1216 -0.7684 -0.6283
vn -0.0327 -0.7280 -0.6848
vn -0.0353 -0.7294 -0.6832
vn 0.1513 -0.6362 -0.7565
vn 0.1453 -0.6392 -0.7552
vn 0.2500 -0.5829 -0.7731
vn -0.0328 -0.7279 0.6849
vn -0.1216 -0.7684 0.6283
vn -0.0353 -0.7294 0.6832
vn 0.1513 -0.6362 0.7565
vn 0.1453 -0.6392 0.7552
vn 0.2500 -0.5829 0.7731
vn -0.3781 -0.5398 -0.7521
vn -0.4703 -0.5527 -0.6880
vn -0.3811 -0.5402 -0.7503
vn -0.1805 -0.5132 -0.8391
vn -0.1871 -0.5137 -0.8373
vn -0.0708 -0.4987 -0.8639
vn -0.3782 -0.5398 0.7521
vn -0.4703 -0.5527 0.6880
vn -0.3811 -0.5403 0.7503
vn -0.1805 -0.5132 0.8391
vn -0.1871 -0.5137 0.8373
vn -0.0708 -0.4987 0.8639
vn -0.4676 0.7419 -0.4805
vn -0.3754 0.7544 -0.5384
vn -0.3725 0.7546 -0.5402
vn -0.1772 0.7653 -0.6189
vn -0.1706 0.7654 -0.6206
vn -0.0594 0.7637 -0.6429
vn -0.3755 0.7543 0.5385
vn -0.4676 0.7419 0.4805
vn -0.3725 0.7546 0.5402
vn -0.1772 0.7653 0.6189
vn -0.1706 0.7654 0.6205
vn -0.0594 0.7637 0.6429
vn 0.4335 -0.4725 0.7674
vn 0.4454 -0.4716 0.7611
vn 0.4339 -0.4724 0.7672
vn 0.3748 -0.4835 0.7910
vn 0.3773 -0.4830 0.7901
vn 0.3244 -0.4930 0.8073
vn 0.4454 -0.4716 -0.7611
vn 0.4335 -0.4725 -0.7674
vn 0.4339 -0.4724 -0.7672
vn 0.3748 -0.4835 -0.7910
vn 0.3773 -0.4830 -0.7901
vn 0.3244 -0.4930 -0.8073
vn -0.2944 -0.4423 -0.8472
vn -0.1978 -0.4057 -0.8923
vn -0.2006 -0.4070 -0.8911
vn 0.0039 -0.3392 -0.9407
vn -0.0027 -0.3409 -0.9401
vn 0.1128 -0.3076 -0.9448
vn -0.1976 -0.4058 0.8923
vn -0.2944 -0.4423 0.8472
vn -0.2006 -0.4070 0.8911
vn 0.0039 -0.3392 0.9407
vn -0.0027 -0.3409 0.9401
vn 0.1128 -0.3076 0.9448
vn -0.5381 0.8035 -0.2546
vn -0.4455 0.8450 -0.2957
vn -0.4424 0.8462 -0.2969
vn -0.2463 0.9047 -0.3476
vn -0.2397 0.9062 -0.3484
vn -0.1282 0.9246 -0.3588
vn -0.4455 0.8450 0.2957
vn -0.5381 0.8035 0.2546
vn -0.4424 0.8462 0.2969
vn -0.2463 0.9047 0.3476
vn -0.2397 0.9062 0.3484
vn -0.1282 0.9246 0.3588
vn -0.0288 0.5979 0.8011
vn -0.0176 0.6039 0.7969
vn -0.0285 0.5980 0.8010
vn -0.0176 0.6039 0.7968
vn -0.0869 0.5739 0.8143
vn -0.0844 0.5749 0.8139
vn -0.1361 0.5534 0.8217
vn -0.0176 0.6039 -0.7968
vn -0.0288 0.5979 -0.8011
vn -0.0176 0.6039 -0.7969
vn -0.0285 0.5980 -0.8010
vn -0.0869 0.5739 -0.8143
vn -0.0844 0.5749 -0.8139
vn -0.1361 0.5534 -0.8217
vn 0.4391 -0.8496 0.2922
vn 0.4503 -0.8455 0.2870
vn 0.4387 -0.8498 0.2923
vn 0.3831 -0.8709 0.3080
vn 0.3806 -0.8718 0.3085
vn 0.3305 -0.8881 0.3193
vn 0.4387 -0.8498 -0.2923
vn 0.4503 -0.8455 -0.2870
vn 0.4391 -0.8496 -0.2922
vn 0.3831 -0.8708 -0.3080
vn 0.3806 -0.8718 -0.3085
vn 0.3305 -0.8881 -0.3193
vn 0.1923 0.4101 0.8915
vn 0.2038 0.4152 0.8866
vn 0.1927 0.4103 0.8914
vn 0.1333 0.3927 0.9100
vn 0.1359 0.3934 0.9093
vn 0.0828 0.3786 0.9218
vn 0.2038 0.4152 -0.8866
vn 0.1923 0.4101 -0.8915
vn 0.1927 0.4103 -0.8914
vn 0.1333 0.3927 -0.9100
vn 0.1359 0.3934 -0.9093
vn 0.0828 0.3786 -0.9218
vn -0.0735 -0.6390 -0.7657
vn 0.0232 -0.5948 -0.8035
vn 0.0203 -0.5963 -0.8025
vn 0.2180 -0.5032 -0.8362
vn 0.2117 -0.5060 -0.8361
vn 0.3200 -0.4539 -0.8316
vn 0.0232 -0.5948 0.8035
vn -0.0735 -0.6390 0.7657
vn 0.0203 -0.5963 0.8025
vn 0.2180 -0.5032 0.8362
vn 0.2117 -0.5060 0.8361
vn 0.3200 -0.4539 0.8316
vn -0.5344 0.4527 -0.7138
vn -0.4399 0.4663 -0.7675
vn -0.4369 0.4666 -0.7690
vn -0.2321 0.4950 -0.8373
vn -0.2388 0.4938 -0.8361
vn -0.1206 0.5099 -0.8517
vn -0.4370 0.4665 0.7690
vn -0.5344 0.4527 0.7138
vn -0.4399 0.4663 0.7675
vn -0.2321 0.4950 0.8373
vn -0.2388 0.4938 0.8361
vn -0.1206 0.5099 0.8517
vn 0.0266 0.7303 0.6826
vn 0.0369 0.7360 0.6760
vn 0.0269 0.7305 0.6824
vn -0.0280 0.7068 0.7069
vn -0.0258 0.7079 0.7059
vn -0.0748 0.6861 0.7236
vn 0.0266 0.7303 -0.6826
vn 0.0369 0.7360 -0.6760
vn 0.0269 0.7305 -0.6824
vn -0.0280 0.7068 -0.7069
vn -0.0258 0.7079 -0.7059
vn -0.0748 0.6861 -0.7236
vn 0.3734 0.5445 0.7510
vn 0.3845 0.5469 0.7437
vn 0.3738 0.5446 0.7508
vn 0.3165 0.5395 0.7802
vn 0.3189 0.5398 0.7791
vn 0.2671 0.5354 0.8012
vn 0.3845 0.5469 -0.7437
vn 0.3734 0.5445 -0.7510
vn 0.3738 0.5446 -0.7508
vn 0.3165 0.5395 -0.7802
vn 0.3189 0.5398 -0.7791
vn 0.2671 0.5354 -0.8012
vn 0.3684 -0.7588 0.5371
vn 0.3794 -0.7583 0.5302
vn 0.3794 -0.7582 0.5302
vn 0.3680 -0.7589 0.5373
vn 0.3122 -0.7656 0.5624
vn 0.3097 -0.7660 0.5634
vn 0.2594 -0.7708 0.5819
vn 0.3680 -0.7589 -0.5373
vn 0.3794 -0.7582 -0.5302
vn 0.3684 -0.7588 -0.5371
vn 0.3794 -0.7583 -0.5302
vn 0.3122 -0.7657 -0.5624
vn 0.3097 -0.7659 -0.5634
vn 0.2594 -0.7708 -0.5819
vn -0.4775 0.8065 -0.3485
vn -0.3884 0.8257 -0.4092
vn -0.3855 0.8262 -0.4109
vn -0.1943 0.8452 -0.4979
vn -0.1878 0.8455 -0.4999
vn -0.0779 0.8456 -0.5282
vn -0.3884 0.8257 0.4092
vn -0.4775 0.8065 0.3485
vn -0.3855 0.8262 0.4109
vn -0.1943 0.8452 0.4979
vn -0.1878 0.8455 0.4998
vn -0.0779 0.8456 0.5282
vn 0.4429 -0.7019 0.5579
vn 0.4542 -0.6993 0.5519
vn 0.4542 -0.6993 0.5520
vn 0.4425 -0.7020 0.5580
vn 0.3868 -0.7183 0.5783
vn 0.3842 -0.7191 0.5791
vn 0.3341 -0.7323 0.5933
vn 0.4425 -0.7020 -0.5580
vn 0.4542 -0.6993 -0.5520
vn 0.4429 -0.7019 -0.5579
vn 0.4542 -0.6993 -0.5519
vn 0.3868 -0.7183 -0.5783
vn 0.3842 -0.7191 -0.5791
vn 0.3341 -0.7323 -0.5933
vn 0.1594 0.6768 0.7187
vn 0.1709 0.6803 0.7127
vn 0.1597 0.6769 0.7185
vn 0.1709 0.6804 0.7127
vn 0.1000 0.6648 0.7403
vn 0.1026 0.6653 0.7395
vn 0.0494 0.6540 0.7548
vn 0.0471 0.8005 0.5974
vn 0.0585 0.8044 0.5913
vn 0.0585 0.8043 0.5913
vn 0.0475 0.8007 0.5972
vn -0.0115 0.7854 0.6189
vn -0.0089 0.7860 0.6181
vn -0.0613 0.7713 0.6335
vn 0.1709 0.6804 -0.7127
vn 0.1594 0.6768 -0.7187
vn 0.1597 0.6769 -0.7185
vn 0.1000 0.6648 -0.7403
vn 0.1026 0.6653 -0.7395
vn 0.0494 0.6540 -0.7548
vn 0.0475 0.8007 -0.5972
vn 0.0585 0.8043 -0.5913
vn 0.0472 0.8005 -0.5974
vn 0.0585 0.8044 -0.5913
vn -0.0115 0.7854 -0.6189
vn -0.0089 0.7860 -0.6181
vn -0.0613 0.7713 -0.6335
vn 0.1204 0.3856 0.9148
vn 0.1321 0.3910 0.9108
vn 0.1208 0.3858 0.9146
vn 0.1321 0.3910 0.9109
vn 0.0606 0.3666 0.9284
vn 0.0632 0.3673 0.9279
vn 0.0096 0.3513 0.9362
vn 0.1321 0.3910 -0.9109
vn 0.1204 0.3856 -0.9148
vn 0.1208 0.3858 -0.9146
vn 0.0606 0.3666 -0.9284
vn 0.0632 0.3673 -0.9279
vn 0.0096 0.3513 -0.9362
vn -0.6039 0.5540 -0.5730
vn -0.6873 0.5085 -0.5187
vn -0.6012 0.5553 -0.5747
vn -0.4142 0.6402 -0.6470
vn -0.4204 0.6375 -0.6456
vn -0.3095 0.6800 -0.6647
vn -0.6039 0.5540 0.5730
vn -0.6873 0.5085 0.5187
vn -0.6012 0.5553 0.5747
vn -0.4142 0.6402 0.6470
vn -0.4204 0.6375 0.6456
vn -0.3095 0.6800 0.6647
vn 0.4339 -0.8504 0.2975
vn 0.4454 -0.8459 0.2933
vn 0.4335 -0.8506 0.2976
vn 0.3773 -0.8731 0.3087
vn 0.3748 -0.8741 0.3090
vn 0.3244 -0.8917 0.3157
vn 0.4339 -0.8504 -0.2975
vn 0.4454 -0.8459 -0.2933
vn 0.4335 -0.8506 -0.2976
vn 0.3773 -0.8731 -0.3087
vn 0.3748 -0.8741 -0.3090
vn 0.3244 -0.8917 -0.3157
vn -0.4913 0.5371 -0.6857
vn -0.5861 0.5058 -0.6330
vn -0.4942 0.5363 -0.6842
vn -0.2912 0.5948 -0.7493
vn -0.2977 0.5929 -0.7482
vn -0.1818 0.6222 -0.7614
vn -0.4912 0.5373 0.6856
vn -0.5861 0.5058 0.6330
vn -0.4942 0.5364 0.6842
vn -0.2912 0.5948 0.7493
vn -0.2977 0.5929 0.7482
vn -0.1818 0.6222 0.7614
vn 0.3895 -0.8260 0.4075
vn 0.4002 -0.8244 0.4002
vn 0.3892 -0.8260 0.4078
vn 0.3348 -0.8361 0.4347
vn 0.3323 -0.8365 0.4357
vn 0.2831 -0.8437 0.4561
vn 0.3892 -0.8260 -0.4078
vn 0.4002 -0.8244 -0.4002
vn 0.3895 -0.8260 -0.4075
vn 0.3348 -0.8361 -0.4346
vn 0.3323 -0.8365 -0.4357
vn 0.2831 -0.8437 -0.4561
vn 0.2701 0.5642 0.7802
vn 0.3268 0.5740 0.7508
vn 0.2725 0.5646 0.7791
vn 0.2212 0.5559 0.8012
vn 0.3264 0.5739 0.7510
vn 0.3372 0.5772 0.7437
vn 0.2701 0.5641 -0.7803
vn 0.3268 0.5740 -0.7508
vn 0.3264 0.5739 -0.7510
vn 0.3372 0.5772 -0.7437
vn 0.2725 0.5646 -0.7791
vn 0.2212 0.5559 -0.8012
vn 0.1204 0.8761 0.4668
vn 0.1321 0.8779 0.4603
vn 0.1208 0.8762 0.4666
vn 0.0606 0.8700 0.4893
vn 0.0632 0.8703 0.4885
vn 0.0096 0.8630 0.5050
vn 0.1208 0.8762 -0.4666
vn 0.1321 0.8779 -0.4603
vn 0.1204 0.8761 -0.4668
vn 0.0606 0.8700 -0.4893
vn 0.0632 0.8703 -0.4885
vn 0.0096 0.8630 -0.5050
vn 0.3259 0.6492 0.6872
vn 0.3373 0.6508 0.6802
vn 0.3262 0.6493 0.6870
vn 0.2674 0.6473 0.7138
vn 0.2700 0.6473 0.7128
vn 0.2171 0.6451 0.7326
vn 0.3373 0.6508 -0.6802
vn 0.3259 0.6492 -0.6872
vn 0.3262 0.6493 -0.6870
vn 0.2674 0.6473 -0.7138
vn 0.2700 0.6473 -0.7128
vn 0.2171 0.6451 -0.7326
vn 0.5020 -0.6865 0.5260
vn 0.5132 -0.6815 0.5217
vn 0.5016 -0.6867 0.5261
vn 0.4479 -0.7141 0.5380
vn 0.4454 -0.7154 0.5384
vn 0.3972 -0.7382 0.5453
vn 0.5020 -0.6865 -0.5260
vn 0.5132 -0.6815 -0.5217
vn 0.5016 -0.6867 -0.5262
vn 0.4479 -0.7141 -0.5380
vn 0.4454 -0.7154 -0.5384
vn 0.3972 -0.7382 -0.5453
vn 0.3678 0.5483 0.7510
vn 0.3788 0.5508 0.7437
vn 0.3682 0.5484 0.7508
vn 0.3108 0.5428 0.7802
vn 0.3133 0.5430 0.7791
vn 0.2616 0.5381 0.8012
vn 0.3788 0.5508 -0.7437
vn 0.3678 0.5483 -0.7510
vn 0.3682 0.5484 -0.7508
vn 0.3108 0.5428 -0.7802
vn 0.3133 0.5430 -0.7791
vn 0.2616 0.5381 -0.8012
vn 0.3954 -0.8092 0.4346
vn 0.3930 -0.8098 0.4357
vn 0.3444 -0.8206 0.4561
vn 0.4490 -0.7951 0.4077
vn 0.4493 -0.7950 0.4075
vn 0.4599 -0.7927 0.4002
vn 0.3954 -0.8092 -0.4346
vn 0.3444 -0.8206 -0.4561
vn 0.3930 -0.8098 -0.4357
vn 0.4490 -0.7951 -0.4077
vn 0.4493 -0.7950 -0.4075
vn 0.4599 -0.7927 -0.4002
vt 0.000000 0.000000
s 1
f 447/2/46 448/2/47 449/2/48
f 447/2/46 450/2/49 448/2/47
f 451/2/50 448/2/47 450/2/49
f 452/2/51 451/2/50 450/2/49
f 451/2/50 452/2/51 453/2/51
f 454/2/52 455/2/53 456/2/54
f 456/2/54 457/2/55 454/2/52
f 457/2/55 456/2/54 458/2/56
f 458/2/56 459/2/57 457/2/55
f 459/2/57 458/2/56 460/2/57
f 461/2/58 462/2/59 463/2/59
f 462/2/59 461/2/58 464/2/60
f 465/2/61 464/2/60 461/2/58
f 464/2/60 465/2/61 466/2/62
f 466/2/62 465/2/61 467/2/63
f 468/2/64 469/2/65 470/2/66
f 469/2/65 468/2/64 471/2/65
f 470/2/66 472/2/67 468/2/64
f 472/2/67 470/2/66 473/2/68
f 473/2/68 474/2/69 472/2/67
f 475/2/70 476/2/71 477/2/72
f 476/2/71 475/2/70 478/2/70
f 476/2/71 479/2/73 477/2/72
f 480/2/74 477/2/72 479/2/73
f 480/2/74 479/2/73 481/2/75
f 482/2/76 483/2/77 484/2/78
f 483/2/77 482/2/76 485/2/77
f 486/2/79 482/2/76 484/2/78
f 484/2/78 487/2/80 486/2/79
f 487/2/80 488/2/81 486/2/79
f 489/2/82 490/2/83 491/2/83
f 491/2/83 492/2/84 489/2/82
f 492/2/84 493/2/85 489/2/82
f 489/2/82 493/2/85 494/2/86
f 494/2/86 493/2/85 495/2/87
f 496/2/88 497/2/89 498/2/90
f 497/2/89 499/2/89 498/2/90
f 498/2/90 500/2/91 496/2/88
f 500/2/91 498/2/90 501/2/92
f 501/2/92 502/2/93 500/2/91
f 503/2/94 504/2/95 505/2/95
f 505/2/95 506/2/96 503/2/94
f 506/2/96 507/2/97 503/2/94
f 503/2/94 507/2/97 508/2/98
f 508/2/98 507/2/97 509/2/99
f 510/2/100 511/2/101 512/2/102
f 512/2/102 511/2/101 513/2/101
f 512/2/102 514/2/103 510/2/100
f 514/2/103 512/2/102 515/2/104
f 515/2/104 516/2/105 514/2/103
f 517/2/106 518/2/107 519/2/107
f 518/2/107 517/2/106 520/2/108
f 521/2/109 520/2/108 517/2/106
f 522/2/110 520/2/108 521/2/109
f 522/2/110 521/2/109 523/2/111
f 524/2/112 525/2/113 526/2/112
f 525/2/113 524/2/112 527/2/114
f 528/2/115 525/2/113 527/2/114
f 527/2/114 529/2/116 528/2/115
f 529/2/116 530/2/117 528/2/115
f 531/2/118 532/2/119 533/2/120
f 534/2/121 532/2/119 531/2/118
f 535/2/122 532/2/119 534/2/121
f 536/2/123 535/2/122 534/2/121
f 535/2/122 536/2/123 537/2/123
f 538/2/124 539/2/125 540/2/126
f 540/2/126 541/2/127 538/2/124
f 541/2/127 540/2/126 542/2/128
f 542/2/128 543/2/129 541/2/127
f 543/2/129 542/2/128 544/2/129
f 545/2/130 546/2/131 547/2/132
f 546/2/131 545/2/130 548/2/130
f 546/2/131 549/2/133 547/2/132
f 547/2/132 549/2/133 550/2/134
f 550/2/134 549/2/133 551/2/135
f 552/2/136 553/2/137 554/2/138
f 553/2/137 552/2/136 555/2/137
f 554/2/138 556/2/139 552/2/136
f 556/2/139 554/2/138 557/2/140
f 557/2/140 558/2/141 556/2/139
f 559/2/142 560/2/143 561/2/143
f 561/2/143 562/2/144 559/2/142
f 562/2/144 563/2/145 559/2/142
f 559/2/142 563/2/145 564/2/146
f 564/2/146 563/2/145 565/2/147
f 566/2/148 567/2/149 568/2/150
f 567/2/149 569/2/149 568/2/150
f 568/2/150 570/2/151 566/2/148
f 570/2/151 568/2/150 571/2/152
f 571/2/152 572/2/153 570/2/151
f 573/2/154 574/2/155 575/2/156
f 574/2/155 573/2/154 576/2/154
f 574/2/155 577/2/157 575/2/156
f 578/2/158 575/2/156 577/2/157
f 578/2/158 577/2/157 579/2/159
f 580/2/160 581/2/161 582/2/162
f 581/2/161 580/2/160 583/2/161
f 584/2/163 580/2/160 582/2/162
f 584/2/163 582/2/162 585/2/164
f 585/2/164 586/2/165 584/2/163
f 587/2/166 588/2/167 589/2/168
f 588/2/167 587/2/166 590/2/166
f 588/2/167 591/2/169 589/2/168
f 589/2/168 591/2/169 592/2/170
f 592/2/170 591/2/169 593/2/171
f 594/2/172 595/2/173 596/2/174
f 595/2/173 594/2/172 597/2/173
f 596/2/174 598/2/175 594/2/172
f 598/2/175 596/2/174 599/2/176
f 599/2/176 600/2/177 598/2/175
f 601/2/178 602/2/179 603/2/180
f 602/2/179 601/2/178 604/2/178
f 605/2/181 603/2/180 602/2/179
f 603/2/180 605/2/181 606/2/182
f 606/2/182 605/2/181 607/2/183
f 608/2/184 609/2/185 610/2/186
f 609/2/185 608/2/184 611/2/185
f 610/2/186 612/2/187 608/2/184
f 612/2/187 610/2/186 613/2/188
f 613/2/188 614/2/189 612/2/187
f 615/2/190 616/2/191 617/2/192
f 617/2/192 618/2/193 615/2/190
f 618/2/193 619/2/194 615/2/190
f 619/2/194 618/2/193 620/2/195
f 619/2/194 620/2/195 621/2/196
f 622/2/197 623/2/198 624/2/199
f 624/2/199 623/2/198 625/2/200
f 626/2/201 622/2/197 624/2/199
f 622/2/197 626/2/201 627/2/202
f 626/2/201 628/2/203 627/2/202
f 629/2/204 630/2/205 631/2/206
f 630/2/205 629/2/204 632/2/204
f 630/2/205 633/2/207 631/2/206
f 631/2/206 633/2/207 634/2/208
f 634/2/208 633/2/207 635/2/209
f 636/2/210 637/2/211 638/2/212
f 637/2/211 636/2/210 639/2/211
f 638/2/212 640/2/213 636/2/210
f 640/2/213 638/2/212 641/2/214
f 641/2/214 642/2/215 640/2/213
f 643/2/216 644/2/217 645/2/218
f 644/2/217 643/2/216 646/2/216
f 644/2/217 647/2/219 645/2/218
f 648/2/220 645/2/218 647/2/219
f 648/2/220 647/2/219 649/2/221
f 650/2/222 651/2/223 652/2/224
f 651/2/223 650/2/222 653/2/223
f 654/2/225 650/2/222 652/2/224
f 654/2/225 652/2/224 655/2/226
f 655/2/226 656/2/227 654/2/225
f 657/2/228 658/2/229 659/2/230
f 658/2/229 657/2/228 660/2/228
f 658/2/229 661/2/231 659/2/230
f 659/2/230 661/2/231 662/2/232
f 662/2/232 661/2/231 663/2/233
f 664/2/234 665/2/235 666/2/236
f 665/2/235 664/2/234 667/2/235
f 666/2/236 668/2/237 664/2/234
f 668/2/237 666/2/236 669/2/238
f 669/2/238 670/2/239 668/2/237
f 671/2/240 672/2/241 673/2/241
f 672/2/241 671/2/240 674/2/242
f 675/2/243 674/2/242 671/2/240
f 674/2/242 675/2/243 676/2/244
f 676/2/244 675/2/243 677/2/245
f 678/2/246 679/2/247 680/2/248
f 679/2/247 678/2/246 681/2/247
f 680/2/248 682/2/249 678/2/246
f 682/2/249 680/2/248 683/2/250
f 683/2/250 684/2/251 682/2/249
f 685/2/252 686/2/253 687/2/254
f 686/2/253 685/2/252 688/2/252
f 686/2/253 689/2/255 687/2/254
f 690/2/256 687/2/254 689/2/255
f 690/2/256 689/2/255 691/2/257
f 692/2/258 693/2/259 694/2/260
f 693/2/259 692/2/258 695/2/259
f 694/2/260 696/2/261 692/2/258
f 696/2/261 694/2/260 697/2/262
f 697/2/262 698/2/263 696/2/261
f 699/2/264 700/2/265 701/2/265
f 700/2/265 699/2/264 702/2/266
f 703/2/267 702/2/266 699/2/264
f 702/2/266 703/2/267 704/2/268
f 704/2/268 703/2/267 705/2/269
f 706/2/270 707/2/271 708/2/270
f 707/2/271 706/2/270 709/2/272
f 709/2/272 710/2/273 707/2/271
f 709/2/272 711/2/274 710/2/273
f 711/2/274 712/2/275 710/2/273
f 713/2/276 714/2/277 715/2/278
f 714/2/277 713/2/276 716/2/276
f 717/2/279 715/2/278 714/2/277
f 715/2/278 717/2/279 718/2/280
f 718/2/280 717/2/279 719/2/281
f 720/2/282 721/2/283 722/2/284
f 721/2/283 720/2/282 723/2/283
f 722/2/284 724/2/285 720/2/282
f 724/2/285 722/2/284 725/2/286
f 725/2/286 726/2/287 724/2/285
f 727/2/288 728/2/289 729/2/290
f 728/2/289 727/2/288 730/2/288
f 728/2/289 731/2/291 729/2/290
f 732/2/292 729/2/290 731/2/291
f 732/2/292 731/2/291 733/2/293
f 734/2/294 735/2/295 736/2/296
f 735/2/295 734/2/294 737/2/295
f 738/2/297 734/2/294 736/2/296
f 738/2/297 736/2/296 739/2/298
f 739/2/298 740/2/299 738/2/297
f 741/2/300 742/2/301 743/2/302
f 742/2/301 741/2/300 744/2/303
f 743/2/302 745/2/304 741/2/300
f 745/2/304 743/2/302 746/2/305
f 745/2/304 746/2/305 747/2/306
f 748/2/307 749/2/308 750/2/309
f 750/2/309 749/2/308 751/2/310
f 752/2/311 751/2/310 749/2/308
f 751/2/310 752/2/311 753/2/312
f 752/2/311 754/2/313 753/2/312
f 755/2/314 756/2/315 757/2/315
f 757/2/315 758/2/316 755/2/314
f 758/2/316 759/2/317 755/2/314
f 759/2/317 758/2/316 760/2/318
f 759/2/317 760/2/318 761/2/319
f 762/2/320 763/2/321 764/2/322
f 764/2/322 763/2/321 765/2/321
f 766/2/323 762/2/320 764/2/322
f 762/2/320 766/2/323 767/2/324
f 766/2/323 768/2/325 767/2/324
f 769/2/326 770/2/327 771/2/328
f 770/2/327 769/2/326 772/2/327
f 771/2/328 773/2/329 769/2/326
f 773/2/329 771/2/328 774/2/330
f 773/2/329 774/2/330 775/2/331
f 776/2/332 777/2/333 778/2/332
f 778/2/332 777/2/333 779/2/334
f 780/2/335 779/2/334 777/2/333
f 779/2/334 780/2/335 781/2/336
f 780/2/335 782/2/337 781/2/336
f 783/2/338 784/2/339 785/2/340
f 784/2/339 783/2/338 786/2/338
f 784/2/339 787/2/341 785/2/340
f 785/2/340 787/2/341 788/2/342
f 788/2/342 787/2/341 789/2/343
f 790/2/344 791/2/345 792/2/346
f 791/2/345 790/2/344 793/2/345
f 792/2/346 794/2/347 790/2/344
f 794/2/347 792/2/346 795/2/348
f 795/2/348 796/2/349 794/2/347
f 797/2/350 798/2/351 799/2/352
f 797/2/350 799/2/352 800/2/350
f 798/2/351 801/2/353 799/2/352
f 801/2/353 798/2/351 802/2/354
f 801/2/353 802/2/354 803/2/355
f 804/2/356 805/2/357 806/2/357
f 805/2/357 804/2/356 807/2/358
f 808/2/359 807/2/358 804/2/356
f 807/2/358 808/2/359 809/2/360
f 808/2/359 810/2/361 809/2/360
f 811/2/362 812/2/363 813/2/363
f 813/2/363 814/2/364 811/2/362
f 814/2/364 815/2/365 811/2/362
f 815/2/365 814/2/364 816/2/366
f 815/2/365 816/2/366 817/2/367
f 818/2/368 819/2/369 820/2/369
f 821/2/370 819/2/369 818/2/368
f 822/2/371 821/2/370 818/2/368
f 821/2/370 822/2/371 823/2/372
f 822/2/371 824/2/373 823/2/372
f 825/2/374 826/2/375 827/2/376
f 826/2/375 825/2/374 828/2/375
f 827/2/376 829/2/377 825/2/374
f 829/2/377 827/2/376 830/2/378
f 829/2/377 830/2/378 831/2/379
f 832/2/380 833/2/381 834/2/380
f 834/2/380 833/2/381 835/2/382
f 836/2/383 835/2/382 833/2/381
f 835/2/382 836/2/383 837/2/384
f 836/2/383 838/2/385 837/2/384
f 839/2/386 840/2/387 841/2/388
f 841/2/388 842/2/389 839/2/386
f 842/2/389 843/2/390 839/2/386
f 843/2/390 842/2/389 844/2/391
f 843/2/390 844/2/391 845/2/392
f 846/2/393 847/2/394 848/2/395
f 848/2/395 847/2/394 849/2/396
f 850/2/397 846/2/393 848/2/395
f 846/2/393 850/2/397 851/2/398
f 850/2/397 852/2/399 851/2/398
f 853/2/400 854/2/401 855/2/402
f 854/2/401 853/2/400 856/2/400
f 854/2/401 857/2/403 855/2/402
f 855/2/402 857/2/403 858/2/404
f 858/2/404 857/2/403 859/2/405
f 860/2/406 861/2/407 862/2/408
f 861/2/407 860/2/406 863/2/407
f 862/2/408 864/2/409 860/2/406
f 864/2/409 862/2/408 865/2/410
f 865/2/410 866/2/411 864/2/409
f 867/2/412 868/2/413 869/2/414
f 869/2/414 870/2/415 867/2/412
f 870/2/415 871/2/416 867/2/412
f 871/2/416 870/2/415 872/2/417
f 871/2/416 872/2/417 873/2/418
f 874/2/419 875/2/420 876/2/421
f 876/2/421 875/2/420 877/2/422
f 878/2/423 874/2/419 876/2/421
f 874/2/419 878/2/423 879/2/424
f 878/2/423 880/2/425 879/2/424
f 881/2/426 882/2/427 883/2/428
f 882/2/427 881/2/426 884/2/429
f 883/2/428 885/2/430 881/2/426
f 885/2/430 883/2/428 886/2/431
f 885/2/430 886/2/431 887/2/432
f 888/2/433 889/2/434 890/2/435
f 890/2/435 891/2/436 888/2/433
f 891/2/436 892/2/437 888/2/433
f 892/2/437 891/2/436 893/2/438
f 892/2/437 893/2/438 894/2/439
f 895/2/440 896/2/441 897/2/440
f 897/2/440 896/2/441 898/2/442
f 899/2/443 898/2/442 896/2/441
f 898/2/442 899/2/443 900/2/444
f 899/2/443 901/2/445 900/2/444
f 902/2/446 903/2/447 904/2/448
f 904/2/448 903/2/447 905/2/449
f 906/2/450 902/2/446 904/2/448
f 902/2/446 906/2/450 907/2/451
f 906/2/450 908/2/452 907/2/451
f 909/2/453 910/2/454 911/2/455
f 910/2/454 909/2/453 912/2/456
f 911/2/455 913/2/457 909/2/453
f 913/2/457 911/2/455 914/2/458
f 913/2/457 914/2/458 915/2/459
f 916/2/460 917/2/461 918/2/460
f 918/2/460 917/2/461 919/2/462
f 920/2/463 919/2/462 917/2/461
f 919/2/462 920/2/463 921/2/464
f 920/2/463 922/2/465 921/2/464
f 923/2/466 924/2/467 925/2/467
f 924/2/467 923/2/466 926/2/468
f 923/2/466 927/2/469 926/2/468
f 927/2/469 923/2/466 928/2/470
f 927/2/469 928/2/470 929/2/471
f 930/2/472 931/2/473 932/2/474
f 931/2/473 930/2/472 933/2/473
f 934/2/475 930/2/472 932/2/474
f 930/2/472 934/2/475 935/2/476
f 934/2/475 936/2/477 935/2/476
f 937/2/478 938/2/479 939/2/479
f 939/2/479 940/2/480 937/2/478
f 940/2/480 941/2/481 937/2/478
f 941/2/481 940/2/480 942/2/482
f 941/2/481 942/2/482 943/2/483
f 944/2/484 945/2/485 946/2/485
f 947/2/486 945/2/485 944/2/484
f 948/2/487 947/2/486 944/2/484
f 947/2/486 948/2/487 949/2/488
f 948/2/487 950/2/489 949/2/488
f 951/2/490 952/2/491 953/2/491
f 953/2/491 954/2/492 951/2/490
f 954/2/492 955/2/493 951/2/490
f 955/2/493 954/2/492 956/2/494
f 955/2/493 956/2/494 957/2/495
f 958/2/496 959/2/497 960/2/497
f 961/2/498 959/2/497 958/2/496
f 962/2/499 961/2/498 958/2/496
f 961/2/498 962/2/499 963/2/500
f 962/2/499 964/2/501 963/2/500
f 965/2/502 966/2/503 967/2/503
f 967/2/503 968/2/504 965/2/502
f 968/2/504 969/2/505 965/2/502
f 969/2/505 968/2/504 970/2/506
f 969/2/505 970/2/506 971/2/507
f 972/2/508 973/2/509 974/2/510
f 974/2/510 973/2/509 975/2/509
f 976/2/511 972/2/508 974/2/510
f 972/2/508 976/2/511 977/2/512
f 976/2/511 978/2/513 977/2/512
f 979/2/514 980/2/515 981/2/516
f 979/2/514 981/2/516 982/2/517
f 980/2/515 979/2/514 983/2/518
f 983/2/518 984/2/519 980/2/515
f 984/2/519 983/2/518 985/2/519
f 986/2/520 987/2/521 988/2/522
f 989/2/523 988/2/522 987/2/521
f 990/2/523 988/2/522 989/2/523
f 987/2/521 986/2/520 991/2/524
f 986/2/520 992/2/525 991/2/524
f 993/2/526 994/2/527 995/2/527
f 995/2/527 996/2/528 993/2/526
f 996/2/528 997/2/529 993/2/526
f 997/2/529 996/2/528 998/2/530
f 997/2/529 998/2/530 999/2/531
f 1000/2/532 1001/2/533 1002/2/534
f 1002/2/534 1001/2/533 1003/2/533
f 1004/2/535 1000/2/532 1002/2/534
f 1000/2/532 1004/2/535 1005/2/536
f 1004/2/535 1006/2/537 1005/2/536
f 1007/2/538 1008/2/539 1009/2/540
f 1008/2/539 1007/2/538 1010/2/539
f 1009/2/540 1011/2/541 1007/2/538
f 1011/2/541 1009/2/540 1012/2/542
f 1011/2/541 1012/2/542 1013/2/543
f 1014/2/544 1015/2/545 1016/2/544
f 1016/2/544 1015/2/545 1017/2/546
f 1018/2/547 1017/2/546 1015/2/545
f 1017/2/546 1018/2/547 1019/2/548
f 1018/2/547 1020/2/549 1019/2/548
f 1021/2/550 1022/2/551 1023/2/551
f 1023/2/551 1024/2/552 1021/2/550
f 1024/2/552 1025/2/553 1021/2/550
f 1025/2/553 1024/2/552 1026/2/554
f 1025/2/553 1026/2/554 1027/2/555
f 1028/2/556 1029/2/557 1030/2/557
f 1031/2/558 1029/2/557 1028/2/556
f 1032/2/559 1031/2/558 1028/2/556
f 1031/2/558 1032/2/559 1033/2/560
f 1032/2/559 1034/2/561 1033/2/560
f 1035/2/562 1036/2/563 1037/2/564
f 1036/2/563 1035/2/562 1038/2/563
f 1037/2/564 1039/2/565 1035/2/562
f 1039/2/565 1037/2/564 1040/2/566
f 1039/2/565 1040/2/566 1041/2/567
f 1042/2/568 1043/2/569 1044/2/568
f 1044/2/568 1043/2/569 1045/2/570
f 1046/2/571 1045/2/570 1043/2/569
f 1045/2/570 1046/2/571 1047/2/572
f 1046/2/571 1048/2/573 1047/2/572
f 1049/2/574 1050/2/575 1051/2/576
f 1049/2/574 1052/2/577 1050/2/575
f 1052/2/577 1049/2/574 1053/2/578
f 1054/2/579 1052/2/577 1053/2/578
f 1053/2/578 1055/2/579 1054/2/579
f 1056/2/580 1057/2/581 1058/2/582
f 1059/2/583 1056/2/580 1058/2/582
f 1056/2/580 1059/2/583 1060/2/584
f 1059/2/583 1061/2/585 1060/2/584
f 1060/2/584 1061/2/585 1062/2/585
