# Blender 5.2.0 LTS
# www.blender.org
mtllib right.mtl
o masunya.002
v -1.698255 -0.125705 -0.186316
v -1.684212 0.054599 -0.367169
v -1.597049 0.080026 -0.007105
v -1.583005 0.260329 -0.187958
v 1.565569 -0.320383 -0.506875
v -1.284475 -0.130599 -0.418393
v -1.521688 -0.027811 -0.411412
v -1.743963 0.039578 -0.343711
v -1.776709 -0.003037 -0.296751
v -1.752294 -0.067396 -0.236411
v -1.668167 0.061688 -0.030606
v -1.723576 0.012462 -0.077268
v -1.728213 -0.060371 -0.136932
v -1.707414 0.153520 -0.354360
v -1.701748 0.239563 -0.307948
v -1.647368 0.275580 -0.248034
v -1.627994 0.275318 -0.138359
v -1.653323 0.247776 -0.078268
v -1.636325 0.168343 -0.031059
v 1.664100 -0.102462 -0.066166
v -1.173639 0.046150 0.013263
v -1.424190 0.057169 -0.001742
v -1.461866 -0.221775 -0.201620
v -1.218740 -0.299190 -0.156465
v 1.678734 -0.467273 -0.239356
v -1.484012 0.251133 -0.211535
v -1.239374 0.214741 -0.248665
v 1.550935 0.044429 -0.333685
v 1.654620 -0.485362 -0.324290
v 1.623832 -0.462363 -0.405520
v 1.592736 -0.405035 -0.470584
v -1.244234 -0.308861 -0.239696
v -1.268563 -0.278244 -0.319228
v -1.280171 -0.216691 -0.382893
v -1.496260 -0.213596 -0.275274
v -1.528374 -0.170574 -0.341865
v -1.529270 -0.106564 -0.391041
v -1.827821 0.067617 -0.197593
v -1.860972 0.147678 -0.257994
v -1.818941 0.181626 -0.311949
v -1.831935 0.156149 -0.138043
v -1.866413 0.245199 -0.198488
v -1.822577 0.276283 -0.258541
v -1.763826 0.197704 -0.084275
v -1.793540 0.284753 -0.138589
v -1.754947 0.311712 -0.198631
v -1.516458 0.217736 -0.284318
v -1.543483 0.152075 -0.348630
v -1.537247 0.063811 -0.394613
v -1.263098 0.161026 -0.323994
v -1.282759 0.075356 -0.382664
v -1.287756 -0.027774 -0.416785
v 1.537801 -0.017620 -0.410515
v 1.535962 -0.110536 -0.470377
v 1.545804 -0.217119 -0.505225
v -1.461134 -0.182980 -0.127684
v -1.461856 -0.112595 -0.062362
v -1.440345 -0.029054 -0.017388
v -1.203490 -0.243889 -0.081022
v -1.192304 -0.156635 -0.022236
v -1.178833 -0.055090 0.011769
v 1.690804 -0.405334 -0.162446
v 1.691576 -0.312529 -0.102504
v 1.682801 -0.205834 -0.067736
v -1.448322 0.141320 -0.020961
v -1.476964 0.210054 -0.069127
v -1.481332 0.248352 -0.136727
v -1.186418 0.133828 -0.022122
v -1.206500 0.196965 -0.085672
v -1.222355 0.225997 -0.165320
v 1.635868 -0.017919 -0.102377
v 1.603707 0.039300 -0.167362
v 1.573984 0.062408 -0.248671
v -0.064184 -0.452476 -0.415237
v -0.033583 -0.477719 -0.335672
v -0.089232 -0.393517 -0.479191
v -0.108780 -0.308155 -0.514926
v -0.007004 -0.462150 -0.252446
v -0.128764 -0.100165 -0.478893
v -0.119422 -0.009437 -0.420283
v -0.123730 -0.205316 -0.513196
v -0.100900 0.050085 -0.344998
v 0.011237 -0.311997 -0.117830
v 0.006705 -0.402677 -0.176801
v 0.011015 -0.206798 -0.083888
v 0.000876 -0.103909 -0.082518
v -0.053344 0.040314 -0.181487
v -0.023483 -0.018597 -0.117892
v -0.079132 0.065605 -0.261411
v -0.648641 -0.363782 -0.348870
v -0.672489 -0.305366 -0.412270
v -0.690891 -0.220785 -0.447726
v -0.702397 0.075059 -0.353942
v -0.683086 0.134016 -0.279430
v -0.577466 -0.314413 -0.112753
v -0.607374 0.066012 -0.054425
v -0.617377 -0.388753 -0.270138
v -0.590093 -0.373302 -0.187766
v -0.712613 -0.014793 -0.411926
v -0.706663 -0.118925 -0.445957
v -0.573932 -0.224628 -0.054268
v -0.573199 -0.120428 -0.020738
v -0.582288 -0.018501 -0.019469
v -0.637904 0.124360 -0.117325
v -0.662484 0.149400 -0.196557
v 0.572462 -0.516491 -0.403978
v 0.597287 -0.498452 -0.319898
v 0.453972 -0.145252 -0.548632
v 0.464663 -0.250735 -0.583207
v 0.608148 -0.345375 -0.184164
v 0.600387 -0.239590 -0.149808
v 0.582791 -0.137077 -0.148339
v 0.521091 0.003196 -0.248421
v 0.492588 0.026166 -0.329038
v 0.541029 -0.493823 -0.484375
v 0.511164 -0.436925 -0.548884
v 0.485190 -0.352946 -0.584897
v 0.456737 -0.053128 -0.489396
v 0.470692 0.008430 -0.413338
v 0.608314 -0.437196 -0.243620
v 0.553886 -0.053400 -0.184131
v -0.325383 -0.428787 -0.313888
v -0.298450 -0.413277 -0.231088
v -0.420590 -0.053030 -0.456392
v -0.415099 -0.157672 -0.490559
v -0.281250 -0.263864 -0.097032
v -0.280994 -0.159163 -0.063295
v -0.290608 -0.056756 -0.061976
v -0.345526 0.086787 -0.160388
v -0.370711 0.111952 -0.239966
v -0.356315 -0.403679 -0.393036
v -0.380763 -0.344992 -0.456713
v -0.399737 -0.260021 -0.492308
v -0.410811 0.037260 -0.398095
v -0.391895 0.096500 -0.323196
v -0.285283 -0.354096 -0.155759
v -0.315331 0.028158 -0.097141
v -0.933752 -0.313641 -0.326652
v -0.953789 -0.255497 -0.391118
v -0.969816 -0.171306 -0.427486
v -0.986427 0.123102 -0.335017
v -0.970478 0.181776 -0.259785
v -0.874351 -0.264488 -0.087637
v -0.906988 0.114111 -0.031536
v -0.906140 -0.338477 -0.246499
v -0.882664 -0.323084 -0.162966
v -0.994165 0.033686 -0.393260
v -0.986065 -0.069937 -0.426704
v -0.874248 -0.175150 -0.029297
v -0.874712 -0.071449 0.004050
v -0.883325 0.029998 0.004735
v -0.934661 0.172179 -0.095905
v -0.954637 0.197091 -0.176156
v 0.246964 -0.478514 -0.441805
v 0.217716 -0.421830 -0.506037
v 0.192335 -0.338189 -0.541910
v 0.163541 -0.039843 -0.446838
v 0.177908 0.021470 -0.371167
v 0.314405 -0.422089 -0.202209
v 0.260230 -0.040102 -0.143011
v 0.278720 -0.501015 -0.361824
v 0.303901 -0.483003 -0.278171
v 0.160315 -0.131571 -0.505761
v 0.171430 -0.236503 -0.540201
v 0.313769 -0.330759 -0.142996
v 0.306516 -0.225429 -0.108847
v 0.289474 -0.123345 -0.107428
v 0.227120 0.016184 -0.206953
v 0.199226 0.039083 -0.287224
v 0.867073 -0.500814 -0.397213
v 0.891540 -0.482751 -0.312703
v 0.748499 -0.127768 -0.542589
v 0.758762 -0.233805 -0.577302
v 0.903399 -0.328833 -0.176406
v 0.895127 -0.222591 -0.141843
v 0.876975 -0.119644 -0.140323
v 0.815933 0.021378 -0.240966
v 0.786816 0.044418 -0.321931
v 0.835965 -0.477980 -0.478030
v 0.805481 -0.420864 -0.542818
v 0.778905 -0.336546 -0.578971
v 0.750797 -0.035246 -0.483038
v 0.764340 0.026559 -0.406591
v 0.903092 -0.421151 -0.236107
v 0.848409 -0.035531 -0.176326
vn -0.1312 -0.9910 -0.0268
vn -0.2106 -0.9763 -0.0505
vn -0.1965 -0.8464 -0.4949
vn -0.1489 -0.8713 -0.4677
vn -0.1458 -0.5552 -0.8189
vn -0.1295 -0.5807 -0.8038
vn -0.4059 -0.8877 -0.2174
vn -0.3920 -0.7138 -0.5804
vn -0.2928 -0.4162 -0.8608
vn -0.0737 -0.1712 -0.9825
vn -0.0799 -0.1886 -0.9788
vn -0.1593 -0.0561 -0.9856
vn -0.4893 -0.2126 -0.8458
vn -0.2862 -0.0080 -0.9581
vn -0.6957 -0.5086 -0.5072
vn -0.7051 -0.6995 -0.1164
vn -0.3693 -0.8843 0.2858
vn -0.5072 -0.8219 0.2592
vn -0.1832 -0.8963 0.4039
vn -0.0873 -0.8957 0.4361
vn -0.8908 -0.4014 0.2130
vn -0.7849 -0.0878 0.6134
vn -0.8757 0.4608 0.1440
vn -0.9319 -0.1364 -0.3362
vn -0.3682 0.7385 -0.5649
vn -0.4871 0.2440 -0.8386
vn -0.4537 0.2292 0.8612
vn -0.3535 0.7341 0.5797
vn -0.0819 0.9946 -0.0643
vn -0.5616 -0.6099 0.5592
vn -0.1584 0.3040 -0.9394
vn -0.0130 0.6345 -0.7728
vn 0.1638 0.8873 -0.4312
vn 0.1488 0.9529 0.2642
vn 0.2082 0.9717 -0.1119
vn -0.0428 0.6841 0.7282
vn -0.1530 0.3282 0.9321
vn -0.3411 -0.1815 0.9224
vn -0.1365 -0.0091 0.9906
vn -0.4937 -0.4049 0.7696
vn 0.1265 0.7827 -0.6095
vn 0.0616 0.6995 -0.7119
vn 0.0325 0.4616 -0.8865
vn 0.0593 0.5400 -0.8396
vn -0.0062 0.1900 -0.9818
vn -0.0602 0.2566 -0.9646
vn 0.0103 0.6572 -0.7536
vn 0.3858 0.6026 -0.6986
vn 0.3993 0.4158 -0.8171
vn 0.0343 0.4301 -0.9021
vn 0.4077 0.2205 -0.8861
vn 0.0536 0.1771 -0.9827
vn 0.1353 0.9598 -0.2460
vn 0.4291 -0.0371 -0.9025
vn 0.0777 -0.1619 -0.9837
vn -0.0120 0.8857 -0.4642
vn 0.3857 0.8030 -0.4544
vn 0.0928 0.9189 -0.3834
vn -0.3026 -0.7002 0.6466
vn -0.1431 -0.6868 0.7126
vn -0.1015 -0.4566 0.8838
vn -0.2494 -0.5152 0.8200
vn -0.0556 -0.1958 0.9791
vn -0.1630 -0.2977 0.9406
vn -0.0201 -0.6564 0.7541
vn 0.4344 -0.6125 0.6604
vn 0.4247 -0.3892 0.8174
vn -0.0298 -0.4289 0.9029
vn 0.4092 -0.1309 0.9030
vn -0.0422 -0.1702 0.9845
vn -0.0641 0.0361 0.9973
vn -0.0078 0.1436 0.9896
vn 0.4118 0.1936 0.8905
vn -0.0488 0.1722 0.9838
vn 0.0089 -0.8882 0.4594
vn 0.4665 -0.8222 0.3261
vn 0.0170 0.4272 0.9040
vn 0.0419 0.5263 0.8492
vn 0.0853 0.8339 0.5453
vn 0.0855 0.7425 0.6644
vn 0.1069 0.9889 0.1028
vn 0.1304 0.9675 0.2165
vn -0.0775 0.5956 0.7995
vn 0.4006 0.6238 0.6711
vn 0.4522 0.8181 0.3554
vn -0.0501 0.8670 0.4957
vn 0.4382 0.8979 -0.0407
vn -0.0307 0.9990 0.0331
vn 0.5455 -0.8353 -0.0686
vn 0.5497 -0.6982 -0.4586
vn 0.5086 -0.4468 -0.7360
vn 0.1352 0.2196 0.9662
vn 0.0864 0.1903 0.9779
vn 0.1345 0.5690 0.8113
vn 0.1826 0.6022 0.7772
vn 0.1412 0.9899 -0.0082
vn 0.1211 0.9925 0.0167
vn 0.0808 0.8965 -0.4357
vn 0.0806 0.8883 -0.4521
vn 0.1749 0.8874 0.4266
vn 0.1369 0.8780 0.4586
vn -0.0891 -0.8889 0.4494
vn -0.0780 -0.8911 0.4471
vn -0.0195 -0.6759 0.7368
vn -0.0179 -0.6716 0.7407
vn 0.0828 -0.1502 0.9852
vn 0.0498 -0.1647 0.9851
vn 0.0336 -0.4244 0.9049
vn 0.0149 -0.4309 0.9023
vn 0.0245 0.6584 -0.7523
vn 0.0087 0.6654 -0.7465
vn -0.0883 0.1564 -0.9837
vn -0.0666 0.1582 -0.9852
vn -0.1101 -0.1879 -0.9760
vn -0.1308 -0.1936 -0.9723
vn -0.0416 0.4259 -0.9038
vn -0.0208 0.4260 -0.9045
vn -0.0046 -0.9039 0.4277
vn -0.1163 -0.9928 0.0282
vn -0.0812 -0.9967 0.0057
vn -0.1378 -0.5793 -0.8034
vn -0.1260 -0.5986 -0.7910
vn -0.1431 -0.2133 -0.9664
vn -0.1152 -0.8697 -0.4799
vn -0.1279 -0.8839 -0.4498
vn 0.0631 0.6692 -0.7404
vn 0.0199 0.6669 -0.7449
vn -0.0326 0.4295 -0.9025
vn 0.0221 0.4317 -0.9017
vn -0.0859 0.1573 -0.9838
vn -0.0223 0.1646 -0.9861
vn -0.1440 -0.2013 -0.9689
vn 0.1056 0.8970 -0.4293
vn 0.0835 0.8979 -0.4322
vn -0.0374 -0.6642 0.7466
vn -0.0166 -0.6664 0.7454
vn 0.0390 -0.4327 0.9007
vn 0.0026 -0.4252 0.9051
vn 0.0873 -0.1665 0.9822
vn 0.0389 -0.1552 0.9871
vn 0.1369 0.1862 0.9729
vn 0.0796 0.2002 0.9765
vn -0.0875 -0.8881 0.4513
vn 0.1116 0.5923 0.7979
vn 0.1657 0.5927 0.7882
vn 0.1771 0.8683 0.4634
vn 0.1357 0.8694 0.4751
vn 0.1487 0.9883 0.0331
vn 0.1365 0.9899 0.0380
vn -0.1504 -0.9883 0.0247
vn -0.1629 -0.9866 -0.0054
vn -0.1784 -0.5642 -0.8061
vn -0.1754 -0.6007 -0.7800
vn -0.1857 -0.8588 -0.4774
vn -0.1786 -0.8822 -0.4357
vn 0.0364 -0.9943 -0.1000
vn 0.0227 -0.9987 -0.0450
vn -0.0216 -0.8992 -0.4370
vn 0.0307 -0.8599 -0.5095
vn -0.0434 -0.6198 -0.7835
vn 0.0406 -0.5532 -0.8321
vn -0.0578 -0.2224 -0.9732
vn 0.0404 -0.9080 0.4170
vn 0.1192 0.2244 0.9672
vn 0.0363 0.1907 0.9810
vn 0.0428 0.5681 0.8218
vn 0.1416 0.5994 0.7878
vn 0.0713 0.9974 0.0048
vn -0.0182 0.9998 0.0127
vn -0.0345 0.8953 -0.4441
vn 0.0220 0.8971 -0.4412
vn 0.1090 0.8917 0.4394
vn 0.0070 0.8842 0.4670
vn 0.0420 -0.6879 0.7246
vn 0.0517 -0.6671 0.7432
vn 0.1003 -0.1421 0.9848
vn 0.0449 -0.1668 0.9850
vn 0.0764 -0.4158 0.9063
vn 0.0441 -0.4349 0.8994
vn -0.0473 0.6526 -0.7562
vn -0.0407 0.6637 -0.7469
vn -0.1052 0.1415 -0.9843
vn -0.0695 0.1514 -0.9860
vn -0.0744 0.4210 -0.9040
vn -0.0623 0.4164 -0.9071
vt 0.575175 0.968310
vt 0.573157 0.968380
vt 0.572267 0.978060
vt 0.574309 0.978037
vt 0.572832 0.988004
vt 0.574849 0.988030
vt 0.558524 0.969532
vt 0.557140 0.978366
vt 0.558228 0.987427
vt 0.574381 0.996540
vt 0.576376 0.996608
vt 0.560288 0.995039
vt 0.547603 0.987259
vt 0.551444 0.993120
vt 0.545764 0.978845
vt 0.547879 0.970572
vt 0.560825 0.962610
vt 0.551910 0.964994
vt 0.574975 0.960645
vt 0.576973 0.960538
vt 0.071030 0.293332
vt 0.061804 0.292292
vt 0.060472 0.301584
vt 0.070251 0.302179
vt 0.060667 0.311080
vt 0.069950 0.311162
vt 0.053919 0.292396
vt 0.052220 0.301192
vt 0.052839 0.310225
vt 0.079350 0.288823
vt 0.073006 0.286337
vt 0.080011 0.294537
vt 0.080011 0.302891
vt 0.078998 0.311266
vt 0.071049 0.318648
vt 0.077642 0.317020
vt 0.626219 0.763795
vt 0.635132 0.766377
vt 0.635422 0.757825
vt 0.627036 0.756045
vt 0.644050 0.763933
vt 0.643768 0.756174
vt 0.979499 0.815502
vt 0.978185 0.824223
vt 0.984077 0.827402
vt 0.986717 0.822919
vt 0.970590 0.812884
vt 0.969765 0.822488
vt 0.961747 0.815052
vt 0.961529 0.823801
vt 0.601864 0.660433
vt 0.607744 0.663828
vt 0.610340 0.659904
vt 0.603121 0.652394
vt 0.593445 0.658653
vt 0.594210 0.649787
vt 0.585195 0.660205
vt 0.585356 0.652151
vt 0.644592 0.743592
vt 0.645635 0.727575
vt 0.635846 0.727693
vt 0.635660 0.744311
vt 0.625958 0.727423
vt 0.626649 0.743453
vt 0.646096 0.712591
vt 0.646162 0.710468
vt 0.635988 0.710354
vt 0.635970 0.712506
vt 0.625709 0.710310
vt 0.625740 0.712434
vt 0.649463 0.752804
vt 0.651751 0.742851
vt 0.619235 0.742600
vt 0.621262 0.752586
vt 0.617649 0.727297
vt 0.617077 0.710415
vt 0.617148 0.712510
vt 0.654373 0.712797
vt 0.654477 0.710704
vt 0.653641 0.727575
vt 0.584101 0.672947
vt 0.582921 0.689019
vt 0.592569 0.689033
vt 0.592906 0.672348
vt 0.602524 0.689287
vt 0.601976 0.673192
vt 0.582420 0.703995
vt 0.582349 0.706117
vt 0.592376 0.706367
vt 0.592400 0.704216
vt 0.602724 0.706396
vt 0.602700 0.704272
vt 0.579649 0.663444
vt 0.577241 0.673451
vt 0.609635 0.673894
vt 0.611114 0.689242
vt 0.611649 0.706114
vt 0.611582 0.704020
vt 0.574497 0.703513
vt 0.574389 0.705604
vt 0.575258 0.688752
vt 0.960400 0.836845
vt 0.959204 0.852923
vt 0.968831 0.853244
vt 0.969187 0.836530
vt 0.978792 0.853420
vt 0.978262 0.837298
vt 0.958697 0.867749
vt 0.958625 0.869850
vt 0.968631 0.870414
vt 0.968656 0.868283
vt 0.978986 0.870366
vt 0.978962 0.868263
vt 0.956003 0.826690
vt 0.953581 0.836757
vt 0.985951 0.837578
vt 0.987415 0.852902
vt 0.987945 0.869598
vt 0.987879 0.867526
vt 0.950821 0.866586
vt 0.950713 0.868654
vt 0.951586 0.851994
vt 0.589302 0.967817
vt 0.588606 0.977877
vt 0.588964 0.988214
vt 0.590961 0.959783
vt 0.951259 0.858241
vt 0.951150 0.860324
vt 0.958915 0.861386
vt 0.958987 0.859271
vt 0.978864 0.859775
vt 0.978889 0.861893
vt 0.987680 0.861250
vt 0.987614 0.859163
vt 0.968756 0.859683
vt 0.968731 0.861829
vt 0.574932 0.695071
vt 0.574823 0.697178
vt 0.582635 0.697568
vt 0.582707 0.695431
vt 0.602599 0.695703
vt 0.602624 0.697841
vt 0.611381 0.697678
vt 0.611315 0.695569
vt 0.592497 0.695534
vt 0.592472 0.697700
vt 0.653954 0.721248
vt 0.654059 0.719139
vt 0.645898 0.719022
vt 0.645832 0.721160
vt 0.625865 0.721006
vt 0.625834 0.718867
vt 0.617363 0.718856
vt 0.617435 0.720966
vt 0.635899 0.721191
vt 0.635917 0.719024
vt 0.584966 0.960106
vt 0.582968 0.960214
vt 0.581229 0.968099
vt 0.583247 0.968028
vt 0.582915 0.988136
vt 0.580898 0.988109
vt 0.582362 0.996811
vt 0.584358 0.996879
vt 0.582478 0.977945
vt 0.580436 0.977968
vt 0.645701 0.725437
vt 0.645766 0.723299
vt 0.635882 0.723358
vt 0.635864 0.725526
vt 0.625896 0.723145
vt 0.625927 0.725284
vt 0.617506 0.723076
vt 0.617578 0.725186
vt 0.653745 0.725466
vt 0.653850 0.723357
vt 0.582850 0.691156
vt 0.582778 0.693293
vt 0.592521 0.693367
vt 0.592545 0.691200
vt 0.602574 0.693564
vt 0.602549 0.691426
vt 0.611248 0.693460
vt 0.611181 0.691351
vt 0.575149 0.690858
vt 0.575041 0.692965
vt 0.959131 0.855039
vt 0.959059 0.857155
vt 0.968781 0.857536
vt 0.968806 0.855390
vt 0.978840 0.857656
vt 0.978816 0.855538
vt 0.987548 0.857076
vt 0.987482 0.854989
vt 0.951477 0.854076
vt 0.951368 0.856159
vt 0.580970 0.960322
vt 0.578971 0.960430
vt 0.577193 0.968239
vt 0.579211 0.968169
vt 0.578882 0.988083
vt 0.576865 0.988057
vt 0.578372 0.996675
vt 0.580367 0.996743
vt 0.578394 0.977991
vt 0.576351 0.978014
vt 0.587298 0.967887
vt 0.585265 0.967958
vt 0.584521 0.977923
vt 0.586578 0.977900
vt 0.584931 0.988162
vt 0.586962 0.988188
vt 0.586353 0.996947
vt 0.588363 0.997015
vt 0.588977 0.959890
vt 0.586964 0.959998
vt 0.951040 0.862406
vt 0.950931 0.864489
vt 0.958770 0.865618
vt 0.958842 0.863502
vt 0.978913 0.864011
vt 0.978937 0.866129
vt 0.987812 0.865424
vt 0.987746 0.863337
vt 0.968706 0.863975
vt 0.968681 0.866121
vt 0.574715 0.699284
vt 0.574606 0.701391
vt 0.582492 0.701842
vt 0.582564 0.699705
vt 0.602649 0.699980
vt 0.602674 0.702118
vt 0.611515 0.701896
vt 0.611448 0.699787
vt 0.592448 0.699867
vt 0.592424 0.702034
vt 0.654163 0.717030
vt 0.654268 0.714921
vt 0.646030 0.714745
vt 0.645964 0.716884
vt 0.625803 0.716728
vt 0.625771 0.714589
vt 0.617220 0.714635
vt 0.617291 0.716745
vt 0.635935 0.716856
vt 0.635953 0.714689
vt 0.590344 0.997082
s 1
usemtl Material.003
f 145/1/1 32/2/2 33/3/3 138/4/4
f 138/4/4 33/3/3 34/5/5 139/6/6
f 32/2/2 35/7/7 36/8/8 33/3/3
f 33/3/3 36/8/8 37/9/9 34/5/5
f 139/6/6 34/5/5 6/10/10 140/11/11
f 34/5/5 37/9/9 7/12/12 6/10/10
f 37/9/9 8/13/13 2/14/14 7/12/12
f 36/8/8 9/15/15 8/13/13 37/9/9
f 35/7/7 10/16/16 9/15/15 36/8/8
f 23/17/17 1/18/18 10/16/16 35/7/7
f 24/19/19 23/17/17 35/7/7 32/2/2
f 146/20/20 24/19/19 32/2/2 145/1/1
f 38/21/21 41/22/22 42/23/23 39/24/24
f 39/24/24 42/23/23 43/25/25 40/26/26
f 41/22/22 44/27/27 45/28/28 42/23/23
f 42/23/23 45/28/28 46/29/29 43/25/25
f 1/30/18 13/31/30 38/21/21 10/32/16
f 10/32/16 38/21/21 39/24/24 9/33/15
f 9/33/15 39/24/24 40/26/26 8/34/13
f 8/34/13 40/26/26 14/35/31 2/36/14
f 40/37/26 43/38/25 15/39/32 14/40/31
f 43/38/25 46/41/29 16/42/33 15/39/32
f 46/43/29 17/44/34 4/45/35 16/46/33
f 45/47/28 18/48/36 17/44/34 46/43/29
f 44/49/27 19/50/37 18/48/36 45/47/28
f 11/51/38 3/52/39 19/53/37 44/54/27
f 12/55/40 11/51/38 44/54/27 41/56/22
f 13/57/30 12/55/40 41/56/22 38/58/21
f 47/59/41 50/60/42 51/61/43 48/62/44
f 48/62/44 51/61/43 52/63/45 49/64/46
f 182/65/47 53/66/48 54/67/49 172/68/50
f 172/68/50 54/67/49 55/69/51 173/70/52
f 4/71/35 26/72/53 47/59/41 16/42/33
f 16/42/33 47/59/41 48/62/44 15/39/32
f 15/39/32 48/62/44 49/64/46 14/40/31
f 14/40/31 49/64/46 7/73/12 2/74/14
f 49/64/46 52/63/45 6/75/10 7/73/12
f 173/70/52 55/69/51 5/76/54 181/77/55
f 183/78/56 28/79/57 53/66/48 182/65/47
f 26/72/53 27/80/58 50/60/42 47/59/41
f 56/81/59 59/82/60 60/83/61 57/84/62
f 57/84/62 60/83/61 61/85/63 58/86/64
f 184/87/65 62/88/66 63/89/67 174/90/68
f 174/90/68 63/89/67 64/91/69 175/92/70
f 1/93/18 23/94/17 56/81/59 13/57/30
f 13/57/30 56/81/59 57/84/62 12/55/40
f 12/55/40 57/84/62 58/86/64 11/51/38
f 11/51/38 58/86/64 22/95/71 3/52/39
f 58/86/64 61/85/63 21/96/72 22/95/71
f 175/92/70 64/91/69 20/97/73 176/98/74
f 171/99/75 25/100/76 62/88/66 184/87/65
f 23/94/17 24/101/19 59/82/60 56/81/59
f 65/102/77 68/103/78 69/104/79 66/105/80
f 66/105/80 69/104/79 70/106/81 67/107/82
f 185/108/83 71/109/84 72/110/85 177/111/86
f 177/111/86 72/110/85 73/112/87 178/113/88
f 3/114/39 22/115/71 65/102/77 19/50/37
f 19/50/37 65/102/77 66/105/80 18/48/36
f 18/48/36 66/105/80 67/107/82 17/44/34
f 17/44/34 67/107/82 26/116/53 4/45/35
f 67/107/82 70/106/81 27/117/58 26/116/53
f 178/113/88 73/112/87 28/118/57 183/119/56
f 176/120/74 20/121/73 71/109/84 185/108/83
f 22/115/71 21/122/72 68/103/78 65/102/77
f 29/123/89 30/124/90 31/125/91 5/76/54 55/69/51 54/67/49 53/66/48 28/118/57 73/112/87 72/110/85 71/109/84 20/97/73 64/91/69 63/89/67 62/88/66 25/126/76
f 128/127/92 86/128/93 88/129/94 137/130/95
f 130/131/96 89/132/97 82/133/98 135/134/99
f 129/135/100 87/136/101 89/132/97 130/131/96
f 137/130/95 88/129/94 87/136/101 129/135/100
f 123/137/102 78/138/103 84/139/104 136/140/105
f 127/141/106 85/142/107 86/143/93 128/144/92
f 126/145/108 83/146/109 85/142/107 127/141/106
f 136/140/105 84/139/104 83/146/109 126/145/108
f 135/147/99 82/148/98 80/149/110 134/150/111
f 125/151/112 81/152/113 77/153/114 133/154/115
f 124/155/116 79/156/117 81/152/113 125/151/112
f 134/150/111 80/149/110 79/156/117 124/155/116
f 162/157/118 78/158/103 75/159/119 161/160/120
f 155/161/121 76/162/122 77/163/114 156/164/123
f 154/165/124 74/166/125 76/162/122 155/161/121
f 161/160/120 75/159/119 74/166/125 154/165/124
f 141/167/126 93/168/127 99/169/128 147/170/129
f 147/170/129 99/169/128 100/171/130 148/172/131
f 148/172/131 100/171/130 92/173/132 140/174/11
f 142/175/133 94/176/134 93/168/127 141/167/126
f 143/177/135 95/178/136 101/179/137 149/180/138
f 149/180/138 101/179/137 102/181/139 150/182/140
f 150/182/140 102/181/139 103/183/141 151/184/142
f 146/185/20 98/186/143 95/178/136 143/177/135
f 144/187/144 96/188/145 104/189/146 152/190/147
f 152/190/147 104/189/146 105/191/148 153/192/149
f 153/192/149 105/191/148 94/193/134 142/194/133
f 151/195/142 103/196/141 96/188/145 144/187/144
f 123/197/102 98/198/143 97/199/150 122/200/151
f 132/201/152 91/202/153 92/203/132 133/204/115
f 131/205/154 90/206/155 91/202/153 132/201/152
f 122/200/151 97/199/150 90/206/155 131/205/154
f 170/207/156 106/208/157 115/209/158 179/210/159
f 179/210/159 115/209/158 116/211/160 180/212/161
f 180/212/161 116/211/160 117/213/162 181/214/55
f 171/215/75 107/216/163 106/208/157 170/207/156
f 167/217/164 112/218/165 121/219/166 160/220/167
f 169/221/168 114/222/169 119/223/170 158/224/171
f 168/225/172 113/226/173 114/222/169 169/221/168
f 160/220/167 121/219/166 113/226/173 168/225/172
f 162/227/118 107/228/163 120/229/174 159/230/175
f 166/231/176 111/232/177 112/233/165 167/234/164
f 165/235/178 110/236/179 111/232/177 166/231/176
f 159/230/175 120/229/174 110/236/179 165/235/178
f 158/237/171 119/238/170 118/239/180 157/240/181
f 164/241/182 109/242/183 117/243/162 156/244/123
f 163/245/184 108/246/185 109/242/183 164/241/182
f 157/240/181 118/239/180 108/246/185 163/245/184
f 75/159/119 122/200/151 131/205/154 74/166/125
f 74/166/125 131/205/154 132/201/152 76/162/122
f 76/162/122 132/201/152 133/204/115 77/163/114
f 78/158/103 123/197/102 122/200/151 75/159/119
f 93/168/127 134/150/111 124/155/116 99/169/128
f 99/169/128 124/155/116 125/151/112 100/171/130
f 100/171/130 125/151/112 133/154/115 92/173/132
f 94/176/134 135/147/99 134/150/111 93/168/127
f 95/178/136 136/140/105 126/145/108 101/179/137
f 101/179/137 126/145/108 127/141/106 102/181/139
f 102/181/139 127/141/106 128/144/92 103/183/141
f 98/186/143 123/137/102 136/140/105 95/178/136
f 96/188/145 137/130/95 129/135/100 104/189/146
f 104/189/146 129/135/100 130/131/96 105/191/148
f 105/191/148 130/131/96 135/134/99 94/193/134
f 103/196/141 128/127/92 137/130/95 96/188/145
f 21/122/72 151/195/142 144/187/144 68/103/78
f 70/106/81 153/192/149 142/194/133 27/117/58
f 69/104/79 152/190/147 153/192/149 70/106/81
f 68/103/78 144/187/144 152/190/147 69/104/79
f 24/101/19 146/185/20 143/177/135 59/82/60
f 61/85/63 150/182/140 151/184/142 21/96/72
f 60/83/61 149/180/138 150/182/140 61/85/63
f 59/82/60 143/177/135 149/180/138 60/83/61
f 27/80/58 142/175/133 141/167/126 50/60/42
f 52/63/45 148/172/131 140/174/11 6/75/10
f 51/61/43 147/170/129 148/172/131 52/63/45
f 50/60/42 141/167/126 147/170/129 51/61/43
f 98/198/143 146/20/20 145/1/1 97/199/150
f 91/202/153 139/6/6 140/11/11 92/203/132
f 90/206/155 138/4/4 139/6/6 91/202/153
f 97/199/150 145/1/1 138/4/4 90/206/155
f 80/149/110 157/240/181 163/245/184 79/156/117
f 79/156/117 163/245/184 164/241/182 81/152/113
f 81/152/113 164/241/182 156/244/123 77/153/114
f 82/148/98 158/237/171 157/240/181 80/149/110
f 84/139/104 159/230/175 165/235/178 83/146/109
f 83/146/109 165/235/178 166/231/176 85/142/107
f 85/142/107 166/231/176 167/234/164 86/143/93
f 78/138/103 162/227/118 159/230/175 84/139/104
f 88/129/94 160/220/167 168/225/172 87/136/101
f 87/136/101 168/225/172 169/221/168 89/132/97
f 89/132/97 169/221/168 158/224/171 82/133/98
f 86/128/93 167/217/164 160/220/167 88/129/94
f 106/208/157 161/160/120 154/165/124 115/209/158
f 115/209/158 154/165/124 155/161/121 116/211/160
f 116/211/160 155/161/121 156/164/123 117/213/162
f 107/216/163 162/157/118 161/160/120 106/208/157
f 25/126/76 171/215/75 170/207/156 29/123/89
f 31/125/91 180/212/161 181/214/55 5/247/54
f 30/124/90 179/210/159 180/212/161 31/125/91
f 29/123/89 170/207/156 179/210/159 30/124/90
f 112/218/165 176/120/74 185/108/83 121/219/166
f 114/222/169 178/113/88 183/119/56 119/223/170
f 113/226/173 177/111/86 178/113/88 114/222/169
f 121/219/166 185/108/83 177/111/86 113/226/173
f 107/228/163 171/99/75 184/87/65 120/229/174
f 111/232/177 175/92/70 176/98/74 112/233/165
f 110/236/179 174/90/68 175/92/70 111/232/177
f 120/229/174 184/87/65 174/90/68 110/236/179
f 119/238/170 183/78/56 182/65/47 118/239/180
f 109/242/183 173/70/52 181/77/55 117/243/162
f 108/246/185 172/68/50 173/70/52 109/242/183
f 118/239/180 182/65/47 172/68/50 108/246/185
