# Blender 5.2.0 LTS
# www.blender.org
mtllib shaggy.mtl
o Sidesweep_Hair_19999424
v -0.104411 0.483333 -0.316091
v -0.022360 0.480675 -0.360346
v 0.020972 0.557910 -0.225073
v -0.021833 0.559320 -0.203337
v -0.169763 0.487922 -0.251276
v -0.055869 0.561760 -0.169460
v -0.212034 0.494017 -0.169394
v -0.077806 0.565000 -0.126716
v -0.227011 0.501030 -0.078326
v -0.085478 0.568720 -0.079253
v -0.213084 0.508285 0.013079
v -0.078093 0.572560 -0.031699
v -0.171464 0.515065 0.095839
v -0.056334 0.576145 0.011282
v -0.106119 0.520700 0.161739
v -0.022303 0.579120 0.045450
v -0.023429 0.524625 0.204171
v 0.020675 0.581185 0.067419
v 0.068370 0.582145 0.075003
v 0.068432 0.526450 0.218846
v 0.116076 0.581900 0.067440
v 0.160329 0.525980 0.204261
v 0.159079 0.580475 0.045482
v 0.243109 0.523270 0.161880
v 0.193144 0.578010 0.011308
v 0.308569 0.518595 0.095970
v 0.214930 0.574750 -0.031693
v 0.350283 0.512420 0.013140
v 0.222328 0.571020 -0.079275
v 0.364251 0.505365 -0.078368
v 0.214652 0.567180 -0.126766
v 0.349248 0.498121 -0.169537
v 0.192695 0.563615 -0.169523
v 0.306897 0.491401 -0.251474
v 0.158634 0.560665 -0.203395
v 0.241446 0.485852 -0.316280
v 0.115808 0.558615 -0.225107
v 0.159313 0.482005 -0.357933
v 0.068385 0.557665 -0.232571
v 0.068889 0.480202 -0.376381
v -0.022360 0.480675 -0.360346
v 0.020972 0.557910 -0.225073
v -0.136018 0.371841 -0.448177
v 0.018765 0.366116 -0.486658
v -0.259086 0.380597 -0.335246
v -0.325363 0.389470 -0.207122
v -0.346694 0.399006 -0.076924
v -0.327417 0.408876 0.051638
v -0.269115 0.418121 0.168216
v -0.177289 0.425817 0.261170
v -0.060890 0.431187 0.321092
v 0.068531 0.433679 0.341847
v 0.198020 0.433039 0.321277
v 0.314597 0.429330 0.261464
v 0.406644 0.422935 0.168497
v 0.465125 0.414506 0.051785
v 0.484400 0.404889 -0.077391
v 0.460905 0.393155 -0.204418
v 0.442762 0.348309 -0.401771
v 0.420814 0.350554 -0.446793
v 0.441440 0.325020 -0.461656
v 0.143517 0.370522 -0.495456
v 0.018765 0.366116 -0.486658
v -0.161884 0.246713 -0.540960
v 0.053373 0.254726 -0.579505
v -0.339060 0.252296 -0.407802
v -0.413007 0.265235 -0.242876
v -0.439343 0.276287 -0.075225
v -0.416009 0.286537 0.082154
v -0.344846 0.298458 0.225001
v -0.232513 0.307088 0.339014
v -0.089951 0.313664 0.412571
v 0.068654 0.316514 0.438078
v 0.227361 0.315816 0.412850
v 0.370182 0.311027 0.339458
v 0.482835 0.304045 0.225429
v 0.553675 0.294232 0.079266
v 0.572205 0.282771 -0.101691
v 0.534330 0.281969 -0.266651
v 0.499315 0.285599 -0.416784
v 0.302761 0.262100 -0.522525
v 0.467620 0.276719 -0.454493
v 0.053373 0.254726 -0.579505
v 0.043788 0.152486 -0.634060
v -0.200519 0.081120 -0.587580
v -0.389621 0.059130 -0.437730
v -0.474750 0.089497 -0.258116
v -0.504586 0.096007 -0.073259
v -0.478368 0.094514 0.104464
v -0.398129 0.106728 0.265815
v -0.271346 0.126393 0.394616
v -0.110363 0.126723 0.477790
v 0.068789 0.126887 0.506650
v 0.248062 0.144792 0.478082
v 0.409360 0.121875 0.395191
v 0.536530 0.121613 0.266313
v 0.617040 0.125665 0.104470
v 0.634620 0.106703 -0.117538
v 0.575190 0.150952 -0.333131
v 0.491240 0.198427 -0.470829
v 0.457370 0.188639 -0.518085
v 0.240110 0.187962 -0.617895
v 0.043788 0.152486 -0.634060
v -0.103418 0.020174 -0.608845
v -0.267571 -0.096153 -0.546745
v -0.398977 -0.150895 -0.409669
v -0.480693 -0.168627 -0.249009
v -0.510772 -0.183820 -0.070543
v -0.484219 -0.173279 0.108978
v -0.403109 -0.192274 0.272066
v -0.275009 -0.156070 0.402097
v -0.112390 -0.171512 0.486143
v 0.068563 -0.163046 0.515255
v 0.249635 -0.192366 0.486559
v 0.412563 -0.143286 0.402611
v 0.538605 -0.146407 0.269266
v 0.596975 -0.186213 0.063304
v 0.627175 -0.154567 -0.139400
v 0.583195 -0.038932 -0.328173
v 0.471770 0.109150 -0.491958
v 0.391341 0.118722 -0.558230
v 0.133489 0.114140 -0.644625
v -0.103418 0.020174 -0.608845
v -0.194447 -0.035593 -0.652555
v -0.324867 -0.208055 -0.512615
v -0.481185 -0.273515 -0.370487
v -0.558750 -0.335705 -0.261844
v -0.590570 -0.385839 -0.070904
v -0.565640 -0.365761 0.126436
v -0.464139 -0.382964 0.337456
v -0.310156 -0.354374 0.475416
v -0.130098 -0.330139 0.545575
v 0.069033 -0.366154 0.575285
v 0.268247 -0.394278 0.543715
v 0.447555 -0.361955 0.451502
v 0.576015 -0.366677 0.294201
v 0.630845 -0.415292 0.035099
v 0.678295 -0.337290 -0.159196
v 0.656540 -0.197591 -0.303199
v 0.503050 0.001641 -0.507250
v 0.308675 0.116131 -0.638955
v 0.064647 0.043416 -0.698960
v -0.194447 -0.035593 -0.652555
v -0.212363 -0.142331 -0.623860
v -0.334848 -0.329844 -0.530425
v -0.477611 -0.386961 -0.383965
v -0.540830 -0.456887 -0.171918
v -0.545850 -0.479883 -0.144154
v -0.498803 -0.521955 0.245880
v -0.517623 -0.515665 0.271375
v -0.317119 -0.527455 0.500575
v -0.133071 -0.507210 0.559580
v 0.168599 -0.559670 0.586130
v 0.175964 -0.546040 0.596555
v 0.453433 -0.543025 0.460972
v 0.591065 -0.533160 0.307018
v 0.667970 -0.508250 0.102209
v 0.723990 -0.389679 -0.149464
v 0.674335 -0.254766 -0.283986
v 0.561940 -0.122368 -0.456199
v 0.047297 0.028137 -0.730080
v 0.188342 0.092031 -0.671610
v -0.212363 -0.142331 -0.623860
v -0.444932 -0.252230 -0.652825
v -0.244772 -0.057590 -0.725775
v -0.224633 -0.085533 -0.705310
v -0.397566 -0.296001 -0.640125
v -0.549025 -0.357578 -0.491561
v -0.587665 -0.310223 -0.475170
v -0.663770 -0.347517 -0.270272
v -0.617670 -0.444375 -0.171794
v -0.653030 -0.436388 -0.153753
v -0.680685 -0.453768 -0.071163
v -0.637625 -0.496873 0.193908
v -0.683675 -0.437243 0.160144
v -0.594635 -0.497332 0.301854
v -0.537182 -0.448709 0.400319
v -0.350524 -0.504720 0.573815
v -0.352143 -0.460454 0.570360
v -0.141630 -0.447928 0.620670
v -0.150353 -0.372799 0.616570
v 0.069214 -0.428063 0.642400
v 0.170344 -0.503855 0.625440
v 0.190054 -0.488840 0.646250
v 0.288720 -0.447133 0.607635
v 0.476205 -0.493053 0.502825
v 0.486525 -0.438374 0.506425
v 0.623785 -0.504525 0.333167
v 0.635440 -0.454585 0.338250
v 0.667970 -0.508250 0.102209
v 0.700950 -0.469014 0.055235
v 0.723990 -0.389679 -0.149464
v 0.674335 -0.254766 -0.283986
v 0.677050 -0.246156 -0.286914
v 0.561940 -0.122368 -0.456199
v 0.564565 -0.111730 -0.458795
v 0.191894 0.103810 -0.675160
v 0.188342 0.092031 -0.671610
v 0.047297 0.028137 -0.730080
v 0.029563 0.044068 -0.718560
v -0.328819 -0.158540 -0.594775
v -0.182301 0.004123 -0.668430
v -0.212223 -0.052667 -0.665300
v -0.349385 -0.233335 -0.592250
v -0.499000 -0.229532 -0.448545
v -0.504584 -0.302711 -0.446836
v -0.567740 -0.290576 -0.265027
v -0.581775 -0.374522 -0.263407
v -0.600880 -0.350551 -0.069216
v -0.612155 -0.434094 -0.069888
v -0.588295 -0.414513 0.131466
v -0.573830 -0.343908 0.131373
v -0.471668 -0.375499 0.345702
v -0.478777 -0.434196 0.357060
v -0.314581 -0.355887 0.485996
v -0.318569 -0.433776 0.506345
v -0.133465 -0.363643 0.560760
v -0.132027 -0.332050 0.554430
v 0.069215 -0.373385 0.583600
v 0.069183 -0.423348 0.588025
v 0.270442 -0.399096 0.551795
v 0.271819 -0.441284 0.555935
v 0.454420 -0.428908 0.462489
v 0.451892 -0.366154 0.459083
v 0.596785 -0.429983 0.311388
v 0.583410 -0.362995 0.301416
v 0.639275 -0.403594 0.039784
v 0.666555 -0.444005 0.023184
v 0.689215 -0.315648 -0.159973
v 0.663735 -0.158273 -0.319123
v 0.518405 0.013883 -0.510120
v 0.099157 0.083837 -0.715180
v 0.325170 0.126267 -0.660490
v -0.269670 0.009288 -0.612445
v -0.024869 0.094352 -0.650000
v -0.426129 -0.055433 -0.437357
v -0.530422 -0.060702 -0.262359
v -0.559205 -0.094361 -0.067890
v -0.529414 -0.107593 0.126432
v -0.432496 -0.155729 0.296360
v -0.301064 -0.138180 0.441109
v -0.118418 -0.166692 0.508590
v 0.068849 -0.171288 0.535495
v 0.255300 -0.194638 0.506040
v 0.423500 -0.138798 0.420156
v 0.555770 -0.124905 0.284737
v 0.626825 -0.127738 0.083958
v 0.655320 -0.091222 -0.133386
v 0.600165 0.032417 -0.348159
v 0.494690 0.122855 -0.496364
v 0.193357 0.163104 -0.661780
v 0.399809 0.142428 -0.583285
v -0.202265 0.155435 -0.636220
v 0.063151 0.207699 -0.677885
v -0.426754 0.130276 -0.470210
v -0.519554 0.147619 -0.270404
v -0.547445 0.141454 -0.069225
v -0.517263 0.116997 0.121416
v -0.430416 0.112121 0.293860
v -0.296106 0.112880 0.433675
v -0.121338 0.100129 0.517400
v 0.069223 0.092864 0.547605
v 0.259784 0.111286 0.517360
v 0.435082 0.099488 0.434493
v 0.568115 0.112453 0.293340
v 0.656925 0.139770 0.121670
v 0.679010 0.134023 -0.115511
v 0.615570 0.191665 -0.346285
v 0.517455 0.219155 -0.474889
v 0.305046 0.221983 -0.631575
v 0.467975 0.215297 -0.547200
v -0.191774 0.277124 -0.621085
v 0.066514 0.285773 -0.650430
v -0.398308 0.283639 -0.466116
v -0.517695 0.290055 -0.277845
v -0.534867 0.282339 -0.069501
v -0.521073 0.280257 0.122694
v -0.434035 0.287798 0.295617
v -0.294783 0.281958 0.431752
v -0.122475 0.288122 0.523290
v 0.069971 0.271448 0.533745
v 0.255706 0.283346 0.503910
v 0.429215 0.273430 0.425590
v 0.552590 0.276648 0.281433
v 0.636385 0.281577 0.111290
v 0.651425 0.275126 -0.103295
v 0.598140 0.290082 -0.296459
v 0.518450 0.293168 -0.423464
v 0.342415 0.291928 -0.581535
v 0.479235 0.300762 -0.472869
v 0.034557 0.371363 -0.623085
v -0.179566 0.377259 -0.590640
v -0.358959 0.392496 -0.433048
v -0.469969 0.404181 -0.255406
v -0.489632 0.399175 -0.070978
v -0.469806 0.395120 0.106205
v -0.385554 0.393494 0.262316
v -0.254394 0.400043 0.377147
v -0.102206 0.392830 0.457314
v 0.069155 0.391326 0.491863
v 0.245761 0.395119 0.472107
v 0.398840 0.400975 0.381144
v 0.511340 0.396770 0.249793
v 0.594450 0.383370 0.099164
v 0.613185 0.379589 -0.087683
v 0.576700 0.381465 -0.252684
v 0.466670 0.369886 -0.419881
v 0.458975 0.344773 -0.490595
v 0.232653 0.375941 -0.573215
v -0.023995 0.460090 -0.545040
v -0.177481 0.464806 -0.491383
v -0.301172 0.469984 -0.360653
v -0.381774 0.474013 -0.219248
v -0.413440 0.473156 -0.069794
v -0.385441 0.468441 0.077972
v -0.315334 0.466383 0.209836
v -0.205244 0.470491 0.306192
v -0.073412 0.466424 0.365824
v 0.068270 0.471212 0.384548
v 0.214790 0.465200 0.377836
v 0.347253 0.479876 0.312970
v 0.440627 0.485893 0.199050
v 0.510685 0.466386 0.071989
v 0.539580 0.460809 -0.070608
v 0.513860 0.464363 -0.217218
v 0.435315 0.468549 -0.341388
v 0.362397 0.462083 -0.421949
v 0.447412 0.375248 -0.475670
v 0.279108 0.457903 -0.480563
v 0.137844 0.465278 -0.532590
v -0.045629 0.522820 -0.438707
v -0.153528 0.521275 -0.381132
v -0.220209 0.538670 -0.290882
v -0.272044 0.545515 -0.184293
v -0.294710 0.544240 -0.070395
v -0.279317 0.543385 0.043980
v -0.236155 0.538325 0.152863
v -0.158783 0.527795 0.243672
v -0.048839 0.523455 0.292046
v 0.066658 0.535565 0.286596
v 0.177408 0.539655 0.264858
v 0.278887 0.544710 0.218534
v 0.364313 0.554035 0.143007
v 0.422312 0.547920 0.042312
v 0.444963 0.532970 -0.072481
v 0.437288 0.525275 -0.190028
v 0.373414 0.535125 -0.288453
v 0.295600 0.537760 -0.357459
v 0.207312 0.537010 -0.409294
v 0.089541 0.538015 -0.442452
v -0.008835 0.593345 -0.317910
v -0.080880 0.591100 -0.279835
v -0.138292 0.591500 -0.222206
v -0.175892 0.591990 -0.149657
v -0.187713 0.592885 -0.068926
v -0.175051 0.592890 0.010860
v -0.138784 0.592635 0.082424
v -0.081453 0.592780 0.136845
v -0.009388 0.593765 0.170121
v 0.069296 0.594680 0.180237
v 0.147332 0.594970 0.167782
v 0.217174 0.595465 0.133125
v 0.275840 0.600310 0.079517
v 0.322655 0.602055 0.010217
v 0.334601 0.596110 -0.072691
v 0.319701 0.597100 -0.154741
v 0.284758 0.597140 -0.230557
v 0.225736 0.593485 -0.289935
v 0.150726 0.592170 -0.326766
v 0.070326 0.594675 -0.335056
v 0.025680 0.630355 -0.205963
v -0.009142 0.632940 -0.180975
v -0.038105 0.633885 -0.149376
v -0.060246 0.633035 -0.113051
v -0.067266 0.633365 -0.070648
v -0.061153 0.633110 -0.028091
v -0.042501 0.632690 0.010344
v -0.008813 0.634620 0.035004
v 0.029200 0.635865 0.049808
v 0.069316 0.636130 0.054780
v 0.110095 0.634790 0.052204
v 0.151801 0.631615 0.042379
v 0.184154 0.631285 0.013070
v 0.200928 0.633705 -0.027464
v 0.205922 0.635170 -0.071855
v 0.200086 0.634030 -0.115522
v 0.183440 0.630375 -0.155988
v 0.152996 0.629665 -0.188022
v 0.113246 0.629525 -0.208332
v 0.068724 0.629595 -0.215100
v 0.068354 0.593115 -0.079584
v 0.068663 0.644445 -0.071531
v 0.420814 0.350554 -0.446793
v 0.441440 0.325020 -0.461656
v 0.467620 0.276719 -0.454493
v 0.457370 0.188639 -0.518085
v 0.391341 0.118722 -0.558230
v 0.308675 0.116131 -0.638955
v 0.499315 0.285599 -0.416784
v 0.442762 0.348309 -0.401771
v 0.491240 0.198427 -0.470829
v 0.471770 0.109150 -0.491958
v 0.503050 0.001641 -0.507250
v 0.471330 0.290785 -0.448972
v 0.486625 0.291990 -0.433681
v 0.482500 0.289241 -0.462341
v 0.471330 0.290785 -0.448972
v 0.501095 0.289261 -0.443760
v 0.486625 0.291990 -0.433681
v 0.495750 0.207575 -0.487403
v 0.489995 0.207744 -0.492691
v 0.489995 0.207744 -0.492691
v 0.491785 0.207158 -0.501650
v 0.504885 0.205532 -0.489376
v 0.495750 0.207575 -0.487403
v 0.475535 0.137509 -0.514960
v 0.467840 0.139969 -0.521050
v 0.466050 0.140196 -0.515760
v 0.469920 0.139319 -0.512715
v 0.466050 0.140196 -0.515760
v 0.469920 0.139319 -0.512715
v 0.473515 0.086531 -0.526065
v 0.478955 0.082610 -0.520610
v 0.470410 0.087419 -0.522150
v 0.470410 0.087419 -0.522150
v 0.474725 0.084641 -0.517885
v 0.474725 0.084641 -0.517885
v 0.488115 0.003132 -0.535585
v 0.488115 0.003132 -0.535585
v -0.268099 -0.001656 -0.726740
v -0.468195 -0.180282 -0.649120
v -0.655110 -0.247563 -0.487490
v -0.662510 -0.254873 -0.267617
v -0.727405 -0.323300 -0.067263
v -0.655525 -0.359408 0.140500
v -0.522323 -0.397334 0.371226
v -0.346736 -0.366039 0.611430
v -0.151859 -0.302407 0.645285
v 0.076749 -0.384410 0.639630
v 0.296387 -0.370978 0.602110
v 0.467165 -0.381480 0.490160
v 0.657235 -0.411757 0.331142
v 0.729320 -0.425229 0.043543
v -0.370761 -0.366538 -0.650420
v -0.228228 -0.151915 -0.729845
v -0.212363 -0.142331 -0.623860
v -0.334848 -0.329844 -0.530425
v -0.273278 -0.081523 -0.766935
v -0.558700 -0.311868 -0.734305
v -0.423615 -0.292115 -0.675220
v -0.232075 -0.083137 -0.724695
v -0.520348 -0.433886 -0.503055
v -0.477611 -0.386961 -0.383965
v -0.695660 -0.358198 -0.518995
v -0.571680 -0.385832 -0.480352
v -0.645015 -0.506090 -0.209764
v -0.540830 -0.456887 -0.171918
v -0.731360 -0.402146 -0.185639
v -0.652875 -0.457719 -0.184700
v -0.690125 -0.549075 0.150931
v -0.672920 -0.521920 -0.129474
v -0.545850 -0.479883 -0.144154
v -0.498803 -0.521955 0.245880
v -0.768300 -0.415812 -0.109838
v -0.730985 -0.477940 0.174102
v -0.654495 -0.504970 0.189130
v -0.638985 -0.460284 -0.164854
v -0.577120 -0.547195 0.318568
v -0.517623 -0.515665 0.271375
v -0.317119 -0.527455 0.500575
v -0.358386 -0.560160 0.575720
v -0.638575 -0.484418 0.353175
v -0.394797 -0.485136 0.630275
v -0.372442 -0.524530 0.589000
v -0.605335 -0.508375 0.319921
v -0.154358 -0.518725 0.632480
v -0.133071 -0.507210 0.559580
v -0.169965 -0.408605 0.733160
v -0.159228 -0.457309 0.637870
v 0.135936 -0.560285 0.650485
v 0.168599 -0.559670 0.586130
v 0.162178 -0.468125 0.764430
v 0.170237 -0.500275 0.660720
v 0.235117 -0.529025 0.680405
v 0.175964 -0.546040 0.596555
v 0.453433 -0.543025 0.460972
v 0.499090 -0.562775 0.514085
v 0.240606 -0.458652 0.696160
v 0.546075 -0.467669 0.550805
v 0.490620 -0.490778 0.528345
v 0.196808 -0.492260 0.669720
v 0.591065 -0.533160 0.307018
v 0.674330 -0.554745 0.343612
v 0.714950 -0.446763 0.367080
v 0.650650 -0.475668 0.354456
v -0.540830 -0.456887 -0.171918
v -0.517623 -0.515665 0.271375
v 0.175964 -0.546040 0.596555
vn 0.2056 -0.8767 0.4348
vn 0.2055 -0.8768 0.4348
vn 0.1968 -0.8739 0.4445
vn 0.3042 -0.8783 0.3688
vn 0.3041 -0.8783 0.3688
vn 0.3839 -0.8847 0.2644
vn 0.4280 -0.8930 0.1388
vn 0.4280 -0.8931 0.1388
vn 0.4316 -0.9021 0.0062
vn 0.4315 -0.9021 0.0062
vn 0.3928 -0.9113 -0.1234
vn 0.3927 -0.9113 -0.1234
vn 0.3156 -0.9195 -0.2344
vn 0.3156 -0.9195 -0.2343
vn 0.2066 -0.9259 -0.3163
vn 0.0761 -0.9298 -0.3601
vn 0.0761 -0.9298 -0.3602
vn -0.0623 -0.9308 -0.3602
vn -0.0624 -0.9308 -0.3602
vn -0.1928 -0.9286 -0.3172
vn -0.1929 -0.9285 -0.3172
vn -0.3029 -0.9235 -0.2353
vn -0.3810 -0.9163 -0.1233
vn -0.3811 -0.9163 -0.1234
vn -0.4200 -0.9075 0.0063
vn -0.4168 -0.8982 0.1397
vn -0.3720 -0.8895 0.2653
vn -0.3721 -0.8895 0.2654
vn -0.2921 -0.8817 0.3705
vn -0.2922 -0.8817 0.3706
vn -0.1841 -0.8761 0.4457
vn -0.1851 -0.8763 0.4448
vn -0.0584 -0.8729 0.4844
vn -0.0788 -0.8776 0.4728
vn 0.2055 -0.8767 0.4348
vn 0.2056 -0.8768 0.4348
vn 0.1453 -0.7087 0.6904
vn 0.4261 -0.7390 0.5219
vn 0.5699 -0.7453 0.3462
vn 0.6402 -0.7513 0.1602
vn 0.6478 -0.7608 -0.0386
vn 0.5913 -0.7716 -0.2344
vn 0.4753 -0.7812 -0.4048
vn 0.3100 -0.7887 -0.5309
vn 0.1111 -0.7932 -0.5988
vn -0.0994 -0.7945 -0.5991
vn -0.2981 -0.7922 -0.5325
vn -0.4655 -0.7861 -0.4067
vn -0.5832 -0.7772 -0.2362
vn -0.6409 -0.7667 -0.0385
vn -0.6409 -0.7443 0.1874
vn -0.5728 -0.7864 0.2313
vn -0.4939 -0.8467 0.1981
vn 0.5943 0.0116 0.8041
vn -0.1870 -0.7523 0.6318
vn 0.1452 -0.7087 0.6904
vn 0.1629 -0.6015 0.7821
vn 0.1628 -0.6015 0.7821
vn 0.4753 -0.5854 0.6568
vn 0.6879 -0.6314 0.3580
vn 0.7836 -0.5995 0.1631
vn 0.7952 -0.6013 -0.0785
vn 0.7305 -0.6069 -0.3132
vn 0.5827 -0.6188 -0.5268
vn 0.3807 -0.6242 -0.6822
vn 0.1345 -0.6294 -0.7653
vn -0.1247 -0.6304 -0.7662
vn -0.3731 -0.6264 -0.6844
vn -0.5756 -0.6224 -0.5304
vn -0.7298 -0.6082 -0.3124
vn -0.8155 -0.5769 -0.0473
vn -0.7717 -0.6101 0.1797
vn -0.7158 -0.6819 0.1504
vn -0.3760 -0.0664 0.9242
vn -0.3761 -0.0664 0.9242
vn 0.1724 -0.4763 0.8622
vn 0.2659 -0.3185 0.9099
vn 0.6165 -0.2757 0.7375
vn 0.8447 -0.2904 0.4495
vn 0.9268 -0.3392 0.1612
vn 0.9306 -0.3382 -0.1400
vn 0.8566 -0.3246 -0.4011
vn 0.6974 -0.3293 -0.6366
vn 0.4306 -0.3488 -0.8324
vn 0.1501 -0.3402 -0.9283
vn -0.1150 -0.3382 -0.9340
vn -0.4676 -0.3372 -0.8171
vn -0.6685 -0.3441 -0.6593
vn -0.8270 -0.3732 -0.4204
vn -0.9427 -0.3303 -0.0463
vn -0.9111 -0.3733 0.1748
vn -0.8657 -0.2037 0.4572
vn -0.2795 -0.5408 0.7934
vn -0.3215 -0.6334 0.7039
vn 0.1959 -0.0304 0.9802
vn 0.2796 0.1139 0.9533
vn 0.7080 0.0621 0.7035
vn 0.8913 -0.0051 0.4533
vn 0.9862 -0.0206 0.1641
vn 0.9892 -0.0235 -0.1448
vn 0.8939 -0.0245 -0.4475
vn 0.7158 -0.0265 -0.6978
vn 0.4569 -0.0284 -0.8891
vn 0.1598 -0.0284 -0.9867
vn -0.1607 -0.0255 -0.9867
vn -0.4519 -0.0245 -0.8917
vn -0.7269 -0.0128 -0.6866
vn -0.9522 0.0992 -0.2891
vn -0.9892 0.0398 -0.1409
vn -0.9729 0.0086 0.2312
vn -0.8350 -0.0206 0.5499
vn -0.4139 -0.1268 0.9014
vn -0.3177 0.1178 0.9408
vn 0.1958 -0.0303 0.9802
vn 0.5525 -0.8283 -0.0931
vn 0.8558 -0.3120 0.4127
vn 0.7072 -0.2641 0.6559
vn 0.8352 -0.4182 0.3571
vn 0.9286 -0.3664 0.0589
vn 0.9271 -0.3662 -0.0795
vn 0.8106 -0.4044 -0.4234
vn 0.6469 -0.4239 -0.6339
vn 0.3801 -0.3792 -0.8436
vn 0.0916 -0.2816 -0.9551
vn -0.1891 -0.2837 -0.9401
vn -0.3976 -0.2837 -0.8726
vn -0.7619 -0.1989 -0.6163
vn -0.9754 -0.1220 -0.1838
vn -0.9550 -0.1074 -0.2764
vn -0.9606 -0.2574 -0.1048
vn -0.8798 -0.3577 0.3132
vn 0.0108 -0.9997 0.0209
vn -0.0194 -0.5971 0.8019
vn 0.5525 -0.8283 -0.0932
vn 0.6751 0.0836 0.7329
vn 0.7394 -0.1560 0.6550
vn 0.7259 -0.0586 0.6853
vn 0.8304 0.4062 0.3814
vn 0.9271 0.1888 0.3237
vn 0.9364 0.3428 -0.0756
vn 0.6102 -0.5362 0.5833
vn 0.7532 0.0242 -0.6573
vn 0.3166 -0.1492 -0.9368
vn 0.0858 -0.0118 -0.9962
vn -0.1832 -0.2223 -0.9576
vn -0.4383 -0.0459 -0.8976
vn -0.7426 -0.0586 -0.6672
vn -0.9258 -0.1113 -0.3612
vn -0.6889 -0.5848 -0.4283
vn -0.6507 -0.6431 -0.4039
vn -0.8685 -0.1074 0.4839
vn 0.2963 -0.9122 0.2830
vn 0.6751 0.0837 0.7329
vn 0.1735 -0.4971 -0.8502
vn 0.1735 -0.4970 -0.8502
vn -0.0097 -0.2886 -0.9574
vn -0.4003 -0.6275 -0.6678
vn -0.6809 -0.3294 -0.6542
vn -0.7769 -0.5021 -0.3798
vn -0.6828 -0.6548 -0.3240
vn -0.7364 -0.5691 -0.3659
vn -0.7364 -0.5691 -0.3658
vn 0.0945 -0.9800 -0.1749
vn -0.7998 -0.5993 0.0326
vn -0.8283 -0.4543 0.3278
vn -0.8537 -0.0420 0.5190
vn -0.6837 -0.4121 0.6023
vn -0.6751 0.0330 0.7370
vn -0.2356 0.0671 0.9695
vn -0.2338 0.0261 0.9719
vn -0.1062 0.0417 0.9935
vn -0.0691 -0.3050 0.9499
vn 0.1774 0.4092 0.8950
vn 0.1774 0.4092 0.8951
vn 0.4346 -0.2194 0.8735
vn 0.4561 -0.1443 0.8782
vn 0.7358 -0.1815 0.6524
vn 0.7164 -0.2341 0.6573
vn -0.9258 -0.1112 -0.3612
vn 0.8612 -0.4570 0.2225
vn -0.6889 -0.5847 -0.4283
vn -0.6507 -0.6431 -0.4038
vn 0.6284 -0.4209 -0.6542
vn 0.6526 -0.3273 -0.6833
vn 0.4970 -0.3841 -0.7781
vn 0.2962 -0.9122 0.2830
vn 0.0010 0.5863 -0.8101
vn -0.6885 0.3271 -0.6473
vn -0.6019 0.1391 -0.7864
vn -0.6810 0.1636 -0.7137
vn -0.6915 0.0360 -0.7215
vn -0.9415 0.0642 -0.3309
vn -0.9309 0.1489 -0.3336
vn -0.9800 0.1616 -0.1165
vn -0.9846 0.1333 -0.1135
vn -0.9858 0.1324 0.1037
vn -0.9720 0.1995 0.1241
vn -0.8775 0.1801 0.4446
vn -0.8762 0.1919 0.4420
vn -0.6649 0.2189 0.7141
vn -0.6652 0.2200 0.7135
vn -0.3596 0.2532 0.8981
vn -0.3664 0.1988 0.9090
vn -0.1003 0.1996 0.9747
vn -0.1072 0.0876 0.9904
vn 0.1666 0.0865 0.9822
vn 0.1647 0.1022 0.9810
vn 0.4474 0.1022 0.8885
vn 0.4442 0.0661 0.8935
vn 0.7265 0.0661 0.6840
vn 0.7424 0.2415 0.6249
vn 0.9609 0.2172 0.1719
vn 0.8482 0.4979 0.1808
vn 0.8089 0.4364 0.3941
vn 0.9894 0.1440 -0.0162
vn 0.8245 0.0740 -0.5610
vn 0.1491 -0.9785 0.1426
vn 0.1491 -0.9785 0.1427
vn -0.3428 0.7216 -0.6015
vn -0.7664 0.2063 -0.6083
vn -0.8040 0.3663 -0.4684
vn -0.9800 0.1606 -0.1174
vn -0.9693 0.1859 0.1612
vn -0.8352 0.1675 0.5238
vn -0.7391 0.1800 0.6490
vn -0.3099 0.2104 0.9272
vn -0.1305 0.2747 0.9526
vn 0.1793 0.2278 0.9571
vn 0.3909 0.2025 0.8979
vn 0.7024 0.1304 0.6998
vn 0.9353 0.1313 0.3287
vn 0.9800 0.1304 0.1504
vn 0.9497 0.3057 -0.0678
vn 0.8543 0.2434 -0.4593
vn 0.2476 0.8719 -0.4224
vn 0.2475 0.8719 -0.4225
vn -0.1257 -0.1434 -0.9817
vn -0.1256 -0.1433 -0.9817
vn -0.5992 0.1479 -0.7868
vn -0.9068 -0.0761 -0.4145
vn -0.9896 0.0466 -0.1360
vn -0.9855 0.0505 0.1621
vn -0.8910 0.0583 0.4503
vn -0.7209 0.0349 0.6922
vn -0.4295 0.0349 0.9024
vn -0.1577 -0.0342 0.9869
vn 0.1608 -0.0449 0.9860
vn 0.4219 -0.0751 0.9035
vn 0.7291 -0.0625 0.6816
vn 0.8869 -0.1609 0.4331
vn 0.9876 -0.1248 0.0949
vn 0.9544 -0.0887 -0.2850
vn 0.7891 -0.0498 -0.6123
vn 0.4598 0.0096 -0.8880
vn -0.1179 0.3341 -0.9351
vn -0.1178 0.3341 -0.9351
vn -0.5901 0.1499 -0.7933
vn -0.8445 -0.0167 -0.5353
vn -0.9966 0.0087 -0.0814
vn -0.9934 0.0885 0.0725
vn -0.8925 -0.0225 0.4506
vn -0.6994 -0.0215 0.7144
vn -0.4694 0.0135 0.8829
vn -0.0574 -0.0312 0.9979
vn 0.1530 0.0807 0.9849
vn 0.4142 0.0808 0.9066
vn 0.7531 0.1178 0.6472
vn 0.8837 0.1606 0.4397
vn 0.9869 0.1480 0.0647
vn 0.9472 0.2065 -0.2452
vn 0.7862 0.3847 -0.4837
vn 0.5079 0.5262 -0.6820
vn 0.5080 0.5262 -0.6820
vn -0.1178 0.2619 -0.9579
vn -0.1344 0.3028 -0.9435
vn -0.5776 0.4217 -0.6990
vn -0.7588 0.4159 -0.5012
vn -0.9293 0.3584 -0.0892
vn -0.9262 0.3603 0.1114
vn -0.7678 0.4842 0.4194
vn -0.5855 0.4968 0.6406
vn -0.3869 0.4931 0.7792
vn -0.1606 0.5483 0.8207
vn 0.1004 0.2806 0.9545
vn 0.4822 0.2795 0.8303
vn 0.7032 0.3973 0.5896
vn 0.8202 0.3914 0.4172
vn 0.9176 0.3885 0.0842
vn 0.9106 0.3632 -0.1973
vn 0.7432 0.4226 -0.5187
vn 0.6226 -0.0284 -0.7820
vn 0.3537 0.5376 -0.7654
vn -0.1013 0.6187 -0.7791
vn -0.2026 0.7364 -0.6455
vn -0.4519 0.7654 -0.4583
vn -0.5077 0.8029 -0.3124
vn -0.6887 0.7111 -0.1418
vn -0.6894 0.7079 0.1533
vn -0.5630 0.7656 0.3112
vn -0.4354 0.7714 0.4641
vn -0.2444 0.7675 0.5927
vn -0.1061 0.7910 0.6025
vn 0.0605 0.8009 0.5958
vn 0.2396 0.7195 0.6518
vn 0.5360 0.6966 0.4769
vn 0.6753 0.6878 0.2664
vn 0.6812 0.7239 0.1095
vn 0.7249 0.6799 -0.1107
vn 0.6471 0.6567 -0.3874
vn 0.5573 0.6185 -0.5539
vn 0.6560 0.7386 -0.1555
vn 0.3963 0.6844 -0.6120
vn 0.2953 0.6372 -0.7119
vn -0.1579 0.8358 -0.5258
vn -0.2280 0.8858 -0.4041
vn -0.3497 0.8377 -0.4195
vn -0.4608 0.8427 -0.2783
vn -0.5222 0.8476 -0.0941
vn -0.5573 0.8263 0.0813
vn -0.5073 0.8277 0.2400
vn -0.4034 0.8039 0.4370
vn -0.2112 0.8062 0.5526
vn -0.0613 0.8337 0.5488
vn 0.0760 0.8337 0.5469
vn 0.1715 0.8659 0.4699
vn 0.3489 0.7968 0.4934
vn 0.5320 0.8066 0.2576
vn 0.6713 0.7403 0.0364
vn 0.6050 0.7910 -0.0912
vn 0.5718 0.7656 -0.2948
vn 0.4339 0.7749 -0.4597
vn 0.3138 0.7766 -0.5463
vn 0.1657 0.8090 -0.5640
vn -0.2435 0.8679 -0.4331
vn -0.2503 0.8717 -0.4214
vn -0.3118 0.8956 -0.3173
vn -0.3681 0.9086 -0.1973
vn -0.4119 0.9085 -0.0707
vn -0.4140 0.9079 0.0657
vn -0.3710 0.9087 0.1913
vn -0.2883 0.9088 0.3015
vn -0.2132 0.8745 0.4357
vn -0.0720 0.8724 0.4834
vn 0.0732 0.8759 0.4769
vn 0.2096 0.8761 0.4341
vn 0.2494 0.9010 0.3550
vn 0.3128 0.9205 0.2342
vn 0.4755 0.8797 0.0053
vn 0.4950 0.8652 -0.0795
vn 0.4629 0.8604 -0.2130
vn 0.3263 0.8666 -0.3774
vn 0.2027 0.8729 -0.4439
vn 0.0741 0.8876 -0.4546
vn -0.1685 0.9501 -0.2627
vn -0.1421 0.9444 -0.2966
vn -0.2278 0.9446 -0.2362
vn -0.2884 0.9451 -0.1535
vn -0.3185 0.9460 -0.0600
vn -0.3175 0.9469 0.0511
vn -0.2833 0.9475 0.1484
vn -0.2231 0.9472 0.2304
vn -0.1421 0.9477 0.2858
vn -0.0447 0.9487 0.3131
vn 0.0507 0.9483 0.3133
vn 0.1385 0.9493 0.2821
vn 0.2134 0.9508 0.2245
vn 0.2183 0.9645 0.1485
vn 0.2904 0.9548 0.0637
vn 0.2757 0.9593 -0.0619
vn 0.2348 0.9547 -0.1828
vn 0.1774 0.9657 -0.1896
vn 0.1296 0.9567 -0.2607
vn 0.0439 0.9595 -0.2782
vn 0.0751 -0.9744 0.2118
vn -0.0009 0.9946 -0.1038
vn -0.4939 -0.8467 0.1982
vn -0.3762 -0.0664 0.9242
vn -0.2795 -0.5408 0.7933
vn -0.4139 -0.1268 0.9015
vn -0.5729 -0.7864 0.2312
vn -0.8349 -0.0206 0.5500
vn -0.8798 -0.3576 0.3132
vn -0.4869 -0.6858 0.5409
vn -0.6713 -0.5495 -0.4975
vn 0.6295 0.4548 -0.6300
vn -0.6038 -0.4734 0.6413
vn -0.6032 -0.4737 0.6417
vn -0.6032 -0.4737 0.6416
vn -0.9806 -0.0177 -0.1953
vn 0.6558 0.3848 -0.6495
vn -0.6038 -0.4735 0.6412
vn 0.6218 0.0048 -0.7831
vn 0.6218 0.0046 -0.7832
vn -0.8983 0.3886 -0.2052
vn -0.6769 -0.0167 0.7359
vn -0.8983 0.3886 -0.2051
vn 0.6412 0.1392 -0.7547
vn 0.7433 0.1138 -0.6592
vn -0.9471 -0.0401 -0.3183
vn -0.9472 -0.0402 -0.3182
vn -0.7376 -0.1278 0.6630
vn 0.7622 0.2035 -0.6146
vn 0.7622 0.2035 -0.6145
vn -0.1577 0.5364 0.8291
vn 0.1608 0.8311 0.5324
vn 0.7124 0.4979 0.4946
vn 0.6618 0.6811 0.3132
vn 0.6149 0.7745 -0.1487
vn 0.5887 0.7785 -0.2179
vn 0.4171 0.8107 -0.4109
vn -0.1520 0.7842 -0.6017
vn 0.2990 0.7400 -0.6024
vn -0.1714 0.5818 -0.7950
vn -0.4120 0.5396 -0.7342
vn -0.1578 0.9179 -0.3640
vn -0.2523 0.9616 -0.1076
vn 0.8185 -0.5701 -0.0707
vn 0.6751 0.0836 0.7330
vn -0.3943 0.5889 0.7054
vn -0.3944 0.5889 0.7055
vn -0.3943 0.5890 0.7054
vn -0.5435 0.6301 0.5546
vn 0.4988 -0.8593 0.1134
vn 0.1239 0.9511 0.2830
vn 0.1238 0.9511 0.2830
vn 0.6307 -0.7721 0.0783
vn 0.8304 0.4063 0.3814
vn 0.5417 0.7703 0.3364
vn 0.5417 0.7703 0.3365
vn 0.3060 -0.9492 -0.0737
vn 0.3060 -0.9492 -0.0736
vn 0.9271 0.1888 0.3238
vn 0.9363 0.3429 -0.0755
vn 0.2990 0.9397 0.1659
vn 0.2989 0.9397 0.1659
vn 0.3723 0.9187 0.1319
vn 0.2662 -0.9223 -0.2803
vn 0.6102 -0.5362 0.5832
vn 0.7533 0.0242 -0.6573
vn 0.2554 -0.9299 -0.2648
vn 0.5018 0.7453 -0.4390
vn 0.5019 0.7452 -0.4390
vn 0.3723 0.8884 -0.2684
vn 0.2611 -0.9294 -0.2607
vn 0.3166 -0.1492 -0.9367
vn -0.0896 0.8826 -0.4615
vn -0.0896 0.8827 -0.4614
vn -0.1276 -0.9734 -0.1905
vn 0.1432 0.9483 -0.2831
vn 0.1432 0.9484 -0.2830
vn 0.0809 -0.9863 0.1436
vn -0.1831 -0.2223 -0.9576
vn -0.4383 -0.0460 -0.8977
vn -0.2259 -0.9604 -0.1632
vn -0.1850 0.8768 -0.4439
vn -0.1850 0.8767 -0.4440
vn -0.1851 0.8768 -0.4439
vn -0.2707 0.7875 -0.5537
vn -0.7426 -0.0587 -0.6672
vn -0.1588 -0.9651 -0.2082
vn -0.3613 0.9038 -0.2295
vn 0.8303 0.4063 0.3815
vn -0.1832 -0.2224 -0.9576
vt 0.935307 0.067190
vt 0.932440 0.066248
vt 0.935755 0.061765
vt 0.937032 0.062665
vt 0.937885 0.067471
vt 0.938379 0.063127
vt 0.940209 0.067206
vt 0.939696 0.063209
vt 0.942260 0.066499
vt 0.940915 0.062967
vt 0.944012 0.065429
vt 0.941984 0.062454
vt 0.945437 0.064063
vt 0.942867 0.061723
vt 0.946509 0.062466
vt 0.943533 0.060821
vt 0.947203 0.060698
vt 0.943959 0.059800
vt 0.944129 0.058709
vt 0.947498 0.058824
vt 0.944032 0.057601
vt 0.947377 0.056911
vt 0.943665 0.056531
vt 0.946827 0.055029
vt 0.943032 0.055558
vt 0.945839 0.053254
vt 0.942148 0.054746
vt 0.944405 0.051677
vt 0.941039 0.054162
vt 0.942530 0.050402
vt 0.939756 0.053880
vt 0.940241 0.049567
vt 0.938375 0.053967
vt 0.937586 0.049357
vt 0.937016 0.054462
vt 0.934825 0.049920
vt 0.935809 0.055422
vt 0.932008 0.051632
vt 0.934936 0.056765
vt 0.929864 0.054173
vt 0.928743 0.057404
vt 0.934519 0.058364
vt 0.933292 0.071946
vt 0.928265 0.070993
vt 0.937750 0.071656
vt 0.941092 0.070832
vt 0.943766 0.069622
vt 0.946011 0.068041
vt 0.947843 0.066125
vt 0.949231 0.063939
vt 0.950149 0.061543
vt 0.950570 0.059008
vt 0.950469 0.056406
vt 0.949825 0.053814
vt 0.948616 0.051311
vt 0.946810 0.048991
vt 0.944369 0.046962
vt 0.941258 0.045401
vt 0.935835 0.041925
vt 0.934254 0.041880
vt 0.932505 0.037769
vt 0.926010 0.048603
vt 0.923619 0.052938
vt 0.932660 0.076278
vt 0.926020 0.075712
vt 0.938191 0.075665
vt 0.942049 0.074215
vt 0.945339 0.072503
vt 0.948006 0.070494
vt 0.950180 0.068075
vt 0.951864 0.065366
vt 0.952994 0.062396
vt 0.953549 0.059257
vt 0.953496 0.056019
vt 0.952813 0.052767
vt 0.951454 0.049585
vt 0.949328 0.046507
vt 0.945973 0.043394
vt 0.941631 0.041078
vt 0.936747 0.039034
vt 0.926166 0.040460
vt 0.931846 0.035602
vt 0.919199 0.048707
vt 0.926142 0.079452
vt 0.933374 0.080821
vt 0.939381 0.080293
vt 0.943649 0.078150
vt 0.947454 0.076130
vt 0.950783 0.073834
vt 0.953458 0.070808
vt 0.955361 0.067313
vt 0.956935 0.063653
vt 0.957757 0.059725
vt 0.957399 0.055644
vt 0.957089 0.051475
vt 0.955457 0.047460
vt 0.952819 0.043751
vt 0.948920 0.039094
vt 0.942380 0.036239
vt 0.936307 0.035197
vt 0.927654 0.033492
vt 0.920630 0.040122
vt 0.914900 0.046486
vt 0.930745 0.082974
vt 0.936151 0.085221
vt 0.941653 0.085465
vt 0.946597 0.084084
vt 0.951221 0.082174
vt 0.955246 0.079002
vt 0.959390 0.075748
vt 0.961683 0.070796
vt 0.964325 0.066073
vt 0.965322 0.060631
vt 0.966411 0.055090
vt 0.964101 0.049689
vt 0.962295 0.044198
vt 0.959797 0.037491
vt 0.954543 0.032563
vt 0.946453 0.030872
vt 0.936959 0.031485
vt 0.923664 0.033520
vt 0.914886 0.041420
vt 0.905835 0.048738
vt 0.931566 0.085924
vt 0.938692 0.088028
vt 0.944990 0.088327
vt 0.948838 0.088447
vt 0.954285 0.087465
vt 0.958798 0.083809
vt 0.964458 0.079528
vt 0.967528 0.073724
vt 0.969315 0.067772
vt 0.971978 0.061503
vt 0.973273 0.054810
vt 0.971316 0.048096
vt 0.969314 0.041279
vt 0.965991 0.032070
vt 0.959404 0.027261
vt 0.951666 0.027013
vt 0.939441 0.027759
vt 0.919000 0.033970
vt 0.909482 0.041327
vt 0.901214 0.049396
vt 0.933658 0.088384
vt 0.939883 0.091406
vt 0.945574 0.091253
vt 0.951743 0.091050
vt 0.953648 0.091663
vt 0.965290 0.085757
vt 0.965724 0.084744
vt 0.972794 0.076581
vt 0.975125 0.069807
vt 0.979652 0.059364
vt 0.978899 0.058542
vt 0.977831 0.046841
vt 0.975272 0.039119
vt 0.970595 0.031686
vt 0.961468 0.025418
vt 0.953746 0.025894
vt 0.944620 0.025371
vt 0.907334 0.040672
vt 0.912816 0.036485
vt 0.897362 0.048339
vt 0.596350 0.787614
vt 0.663521 0.745416
vt 0.670579 0.755880
vt 0.602946 0.800809
vt 0.544773 0.819141
vt 0.537274 0.804835
vt 0.475192 0.818953
vt 0.417361 0.873427
vt 0.387032 0.837951
vt 0.379891 0.818827
vt 0.285273 0.779408
vt 0.318771 0.770493
vt 0.232264 0.697715
vt 0.227721 0.643077
vt 0.173994 0.555394
vt 0.187844 0.551947
vt 0.170681 0.471090
vt 0.197802 0.472361
vt 0.178611 0.372169
vt 0.137519 0.301054
vt 0.154002 0.269161
vt 0.209971 0.247964
vt 0.269223 0.172331
vt 0.284236 0.187769
vt 0.339530 0.120592
vt 0.350034 0.135018
vt 0.411666 0.068429
vt 0.434039 0.075388
vt 0.515514 0.063977
vt 0.588961 0.081391
vt 0.595878 0.095312
vt 0.683835 0.098156
vt 0.687309 0.112793
vt 0.813171 0.640730
vt 0.814269 0.650350
vt 0.753275 0.689400
vt 0.741508 0.680793
vt 0.600337 0.720303
vt 0.661433 0.692395
vt 0.647834 0.707001
vt 0.590501 0.734296
vt 0.544387 0.722649
vt 0.537658 0.741629
vt 0.488978 0.721802
vt 0.478534 0.743620
vt 0.430088 0.712431
vt 0.420074 0.734838
vt 0.356025 0.704674
vt 0.371134 0.679488
vt 0.298658 0.610543
vt 0.275878 0.620385
vt 0.282926 0.534873
vt 0.255820 0.539908
vt 0.260324 0.464688
vt 0.272992 0.462981
vt 0.259517 0.377386
vt 0.238478 0.372332
vt 0.284187 0.295208
vt 0.268951 0.286798
vt 0.316618 0.221924
vt 0.336082 0.237254
vt 0.374983 0.165895
vt 0.391425 0.184605
vt 0.462254 0.122327
vt 0.458989 0.106456
vt 0.536428 0.093772
vt 0.620953 0.121518
vt 0.728972 0.147960
vt 0.767422 0.657935
vt 0.863645 0.597369
vt 0.630770 0.682925
vt 0.713037 0.653047
vt 0.565298 0.681427
vt 0.516479 0.665293
vt 0.467295 0.648268
vt 0.421331 0.616658
vt 0.372769 0.577537
vt 0.354714 0.519055
vt 0.335526 0.457768
vt 0.338823 0.394029
vt 0.352812 0.330604
vt 0.401694 0.287064
vt 0.447209 0.244976
vt 0.501788 0.201907
vt 0.572894 0.172441
vt 0.665587 0.182823
vt 0.748787 0.193055
vt 0.794148 0.601475
vt 0.901435 0.550780
vt 0.654061 0.641034
vt 0.733678 0.607611
vt 0.583929 0.640114
vt 0.538967 0.621202
vt 0.500210 0.600963
vt 0.464173 0.577014
vt 0.437563 0.542336
vt 0.420987 0.500940
vt 0.411922 0.456621
vt 0.414955 0.410847
vt 0.434273 0.368960
vt 0.457112 0.327723
vt 0.492858 0.295728
vt 0.537864 0.273068
vt 0.598999 0.244184
vt 0.682329 0.241414
vt 0.745107 0.234224
vt 0.826098 0.551127
vt 0.897591 0.484900
vt 0.652031 0.608048
vt 0.723270 0.581136
vt 0.593942 0.606674
vt 0.551819 0.594994
vt 0.517048 0.577249
vt 0.489269 0.554483
vt 0.469560 0.525170
vt 0.455379 0.492289
vt 0.451308 0.456520
vt 0.453077 0.419866
vt 0.468115 0.385686
vt 0.487256 0.352699
vt 0.517284 0.326152
vt 0.555261 0.304582
vt 0.608498 0.285525
vt 0.675526 0.281972
vt 0.747074 0.278155
vt 0.819749 0.505300
vt 0.874474 0.416136
vt 0.699053 0.560528
vt 0.647175 0.582928
vt 0.597039 0.582177
vt 0.559329 0.573182
vt 0.530418 0.558367
vt 0.506096 0.539501
vt 0.488427 0.514867
vt 0.479138 0.486250
vt 0.473996 0.456715
vt 0.476545 0.425845
vt 0.487578 0.396129
vt 0.507685 0.370554
vt 0.533794 0.348645
vt 0.565124 0.328502
vt 0.610321 0.316692
vt 0.663648 0.316685
vt 0.791262 0.343017
vt 0.847026 0.406635
vt 0.751343 0.509597
vt 0.666678 0.543227
vt 0.631836 0.558238
vt 0.595054 0.558431
vt 0.565348 0.552938
vt 0.540515 0.542654
vt 0.520615 0.526194
vt 0.505600 0.505584
vt 0.497845 0.481755
vt 0.495167 0.456825
vt 0.499448 0.432028
vt 0.506557 0.406790
vt 0.523577 0.385656
vt 0.547471 0.369942
vt 0.574237 0.354086
vt 0.608457 0.345989
vt 0.651293 0.351832
vt 0.698872 0.381226
vt 0.722543 0.423762
vt 0.824727 0.392516
vt 0.720244 0.464175
vt 0.696407 0.509629
vt 0.642845 0.525739
vt 0.617415 0.535958
vt 0.594562 0.533706
vt 0.572719 0.529556
vt 0.553301 0.522186
vt 0.537214 0.510187
vt 0.523595 0.495489
vt 0.513863 0.477531
vt 0.511957 0.456879
vt 0.519377 0.437825
vt 0.528452 0.419636
vt 0.541194 0.403341
vt 0.558981 0.390146
vt 0.581013 0.380412
vt 0.607925 0.375979
vt 0.639121 0.380165
vt 0.665223 0.404791
vt 0.676965 0.436114
vt 0.676737 0.467281
vt 0.664095 0.499121
vt 0.624091 0.499125
vt 0.608770 0.507533
vt 0.592791 0.510720
vt 0.577314 0.509450
vt 0.563458 0.503933
vt 0.551919 0.495355
vt 0.543282 0.484252
vt 0.538428 0.471315
vt 0.537468 0.457417
vt 0.540235 0.443600
vt 0.546421 0.430687
vt 0.555990 0.419723
vt 0.568892 0.411282
vt 0.584692 0.405109
vt 0.602915 0.405599
vt 0.620900 0.413223
vt 0.636885 0.426891
vt 0.645962 0.446609
vt 0.645738 0.467948
vt 0.637205 0.485906
vt 0.606592 0.479609
vt 0.598556 0.483416
vt 0.590287 0.485473
vt 0.582125 0.486003
vt 0.574446 0.483564
vt 0.567875 0.479157
vt 0.562898 0.473186
vt 0.561198 0.465811
vt 0.561254 0.458412
vt 0.562935 0.451217
vt 0.565827 0.444205
vt 0.569997 0.437201
vt 0.577258 0.432839
vt 0.585963 0.431984
vt 0.595027 0.433654
vt 0.603565 0.437613
vt 0.610908 0.443922
vt 0.615139 0.452896
vt 0.615678 0.462892
vt 0.612661 0.472368
vt 0.939837 0.058622
vt 0.585415 0.459921
vt 0.856844 0.374071
vt 0.865686 0.391864
vt 0.896043 0.411315
vt 0.924137 0.485832
vt 0.924084 0.560993
vt 0.870574 0.610278
vt 0.757566 0.274653
vt 0.801148 0.311140
vt 0.756091 0.226011
vt 0.758783 0.185782
vt 0.734146 0.140565
vt 0.935042 0.039539
vt 0.935720 0.039461
vt 0.859346 0.323144
vt 0.865601 0.331680
vt 0.847395 0.312183
vt 0.839147 0.308625
vt 0.934436 0.036624
vt 0.934008 0.036704
vt 0.896244 0.287666
vt 0.892315 0.280609
vt 0.884013 0.276714
vt 0.878431 0.272685
vt 0.920151 0.237672
vt 0.925877 0.243121
vt 0.930272 0.248383
vt 0.932804 0.034179
vt 0.932413 0.034313
vt 0.913697 0.234261
vt 0.958058 0.206053
vt 0.955102 0.199142
vt 0.962017 0.211782
vt 0.931939 0.031178
vt 0.932315 0.030935
vt 0.948575 0.197469
vt 0.986350 0.166123
vt 0.931582 0.027955
vt 0.656054 0.731811
vt 0.593825 0.768281
vt 0.534306 0.781625
vt 0.479907 0.788492
vt 0.408584 0.780156
vt 0.343823 0.742679
vt 0.256516 0.638255
vt 0.221434 0.532107
vt 0.220276 0.470824
vt 0.202953 0.372276
vt 0.241962 0.266048
vt 0.298318 0.209016
vt 0.363978 0.145331
vt 0.446280 0.087917
vt 0.645254 0.879409
vt 0.703227 0.806051
vt 0.742326 0.831555
vt 0.669853 0.922307
vt 0.680444 0.784504
vt 0.604650 0.842483
vt 0.607588 0.809841
vt 0.677255 0.766028
vt 0.594124 0.908121
vt 0.582746 0.947111
vt 0.540357 0.863141
vt 0.536254 0.831501
vt 0.493952 0.905310
vt 0.498227 0.949287
vt 0.533123 0.863535
vt 0.472165 0.865530
vt 0.301105 0.827974
vt 0.341171 0.855971
vt 0.389866 0.973699
vt 0.199810 0.791252
vt 0.329768 0.827082
vt 0.312567 0.821926
vt 0.296854 0.800616
vt 0.363750 0.835459
vt 0.176079 0.736200
vt 0.133247 0.756686
vt 0.059611 0.606329
vt 0.099739 0.585844
vt 0.180266 0.639040
vt 0.139919 0.566817
vt 0.163390 0.563211
vt 0.208918 0.679265
vt 0.062035 0.496993
vt 0.021377 0.499349
vt 0.123829 0.481084
vt 0.158637 0.481292
vt 0.069165 0.363928
vt 0.044747 0.335498
vt 0.104613 0.415998
vt 0.124901 0.360851
vt 0.115887 0.205750
vt 0.072388 0.164860
vt 0.206759 0.063113
vt 0.226705 0.095044
vt 0.164790 0.211811
vt 0.256596 0.134950
vt 0.259664 0.163032
vt 0.150792 0.247216
vt 0.309719 0.025588
vt 0.314520 0.063367
vt 0.320697 0.092416
vt 0.328075 0.110477
vt 0.432812 0.961177
vt 0.197623 0.778289
vt 0.080111 0.303334
s 1
f 1/1/1 2/2/1 3/3/2
f 3/3/2 4/4/3 1/1/1
f 5/5/4 1/1/1 4/4/3
f 4/4/3 6/6/5 5/5/4
f 7/7/6 5/5/4 6/6/5
f 6/6/5 8/8/6 7/7/6
f 9/9/7 7/7/6 8/8/6
f 8/8/6 10/10/8 9/9/7
f 11/11/9 9/9/7 10/10/8
f 10/10/8 12/12/10 11/11/9
f 13/13/11 11/11/9 12/12/10
f 12/12/10 14/14/12 13/13/11
f 15/15/13 13/13/11 14/14/12
f 14/14/12 16/16/14 15/15/13
f 17/17/15 15/15/13 16/16/14
f 16/16/14 18/18/15 17/17/15
f 17/17/15 18/18/15 19/19/16
f 19/19/16 20/20/17 17/17/15
f 20/20/17 19/19/16 21/21/18
f 21/21/18 22/22/19 20/20/17
f 22/22/19 21/21/18 23/23/20
f 23/23/20 24/24/21 22/22/19
f 24/24/21 23/23/20 25/25/22
f 25/25/22 26/26/22 24/24/21
f 26/26/22 25/25/22 27/27/23
f 27/27/23 28/28/24 26/26/22
f 28/28/24 27/27/23 29/29/25
f 29/29/25 30/30/25 28/28/24
f 30/30/25 29/29/25 31/31/26
f 31/31/26 32/32/26 30/30/25
f 32/32/26 31/31/26 33/33/27
f 33/33/27 34/34/28 32/32/26
f 34/34/28 33/33/27 35/35/29
f 35/35/29 36/36/30 34/34/28
f 36/36/30 35/35/29 37/37/31
f 37/37/31 38/38/32 36/36/30
f 38/38/32 37/37/31 39/39/33
f 39/39/33 40/40/34 38/38/32
f 41/41/35 40/40/34 39/39/33
f 39/39/33 42/42/36 41/41/35
f 43/43/37 44/44/37 2/2/1
f 2/2/1 1/1/1 43/43/37
f 45/45/38 43/43/37 1/1/1
f 1/1/1 5/5/4 45/45/38
f 46/46/39 45/45/38 5/5/4
f 5/5/4 7/7/6 46/46/39
f 47/47/40 46/46/39 7/7/6
f 7/7/6 9/9/7 47/47/40
f 48/48/41 47/47/40 9/9/7
f 9/9/7 11/11/9 48/48/41
f 49/49/42 48/48/41 11/11/9
f 11/11/9 13/13/11 49/49/42
f 50/50/43 49/49/42 13/13/11
f 13/13/11 15/15/13 50/50/43
f 51/51/44 50/50/43 15/15/13
f 15/15/13 17/17/15 51/51/44
f 52/52/45 51/51/44 17/17/15
f 17/17/15 20/20/17 52/52/45
f 52/52/45 20/20/17 22/22/19
f 22/22/19 53/53/46 52/52/45
f 53/53/46 22/22/19 24/24/21
f 24/24/21 54/54/47 53/53/46
f 54/54/47 24/24/21 26/26/22
f 26/26/22 55/55/48 54/54/47
f 55/55/48 26/26/22 28/28/24
f 28/28/24 56/56/49 55/55/48
f 56/56/49 28/28/24 30/30/25
f 30/30/25 57/57/50 56/56/49
f 57/57/50 30/30/25 32/32/26
f 32/32/26 58/58/51 57/57/50
f 58/58/51 32/32/26 34/34/28
f 34/34/28 59/59/52 58/58/51
f 59/59/52 34/34/28 36/36/30
f 36/36/30 60/60/53 59/59/52
f 61/61/54 60/60/53 36/36/30
f 36/36/30 38/38/32 61/61/54
f 62/62/55 61/61/54 38/38/32
f 38/38/32 40/40/34 62/62/55
f 63/63/56 62/62/55 40/40/34
f 40/40/34 41/41/35 63/63/56
f 64/64/57 65/65/58 44/44/37
f 44/44/37 43/43/37 64/64/57
f 66/66/59 64/64/57 43/43/37
f 43/43/37 45/45/38 66/66/59
f 67/67/60 66/66/59 45/45/38
f 45/45/38 46/46/39 67/67/60
f 68/68/61 67/67/60 46/46/39
f 46/46/39 47/47/40 68/68/61
f 69/69/62 68/68/61 47/47/40
f 47/47/40 48/48/41 69/69/62
f 70/70/63 69/69/62 48/48/41
f 48/48/41 49/49/42 70/70/63
f 71/71/64 70/70/63 49/49/42
f 49/49/42 50/50/43 71/71/64
f 72/72/65 71/71/64 50/50/43
f 50/50/43 51/51/44 72/72/65
f 73/73/66 72/72/65 51/51/44
f 51/51/44 52/52/45 73/73/66
f 73/73/66 52/52/45 53/53/46
f 53/53/46 74/74/67 73/73/66
f 74/74/67 53/53/46 54/54/47
f 54/54/47 75/75/68 74/74/67
f 75/75/68 54/54/47 55/55/48
f 55/55/48 76/76/69 75/75/68
f 76/76/69 55/55/48 56/56/49
f 56/56/49 77/77/70 76/76/69
f 77/77/70 56/56/49 57/57/50
f 57/57/50 78/78/71 77/77/70
f 78/78/71 57/57/50 58/58/51
f 58/58/51 79/79/72 78/78/71
f 79/79/72 58/58/51 59/59/52
f 59/59/52 80/80/73 79/79/72
f 81/81/74 82/82/75 61/61/54
f 61/61/54 62/62/55 81/81/74
f 83/83/58 81/81/74 62/62/55
f 62/62/55 63/63/56 83/83/58
f 84/84/76 65/65/58 64/64/57
f 64/64/57 85/85/77 84/84/76
f 85/85/77 64/64/57 66/66/59
f 66/66/59 86/86/78 85/85/77
f 87/87/79 86/86/78 66/66/59
f 66/66/59 67/67/60 87/87/79
f 88/88/80 87/87/79 67/67/60
f 67/67/60 68/68/61 88/88/80
f 89/89/81 88/88/80 68/68/61
f 68/68/61 69/69/62 89/89/81
f 90/90/82 89/89/81 69/69/62
f 69/69/62 70/70/63 90/90/82
f 91/91/83 90/90/82 70/70/63
f 70/70/63 71/71/64 91/91/83
f 92/92/84 91/91/83 71/71/64
f 71/71/64 72/72/65 92/92/84
f 93/93/85 92/92/84 72/72/65
f 72/72/65 73/73/66 93/93/85
f 94/94/86 93/93/85 73/73/66
f 73/73/66 74/74/67 94/94/86
f 94/94/86 74/74/67 75/75/68
f 75/75/68 95/95/87 94/94/86
f 95/95/87 75/75/68 76/76/69
f 76/76/69 96/96/88 95/95/87
f 96/96/88 76/76/69 77/77/70
f 77/77/70 97/97/89 96/96/88
f 97/97/89 77/77/70 78/78/71
f 78/78/71 98/98/90 97/97/89
f 98/98/90 78/78/71 79/79/72
f 79/79/72 99/99/91 98/98/90
f 99/99/91 79/79/72 80/80/73
f 80/80/73 100/100/92 99/99/91
f 101/101/93 82/82/75 81/81/74
f 81/81/74 102/102/94 101/101/93
f 102/102/94 81/81/74 83/83/58
f 83/83/58 103/103/76 102/102/94
f 104/104/95 84/84/76 85/85/77
f 85/85/77 105/105/96 104/104/95
f 105/105/96 85/85/77 86/86/78
f 86/86/78 106/106/97 105/105/96
f 106/106/97 86/86/78 87/87/79
f 87/87/79 107/107/98 106/106/97
f 107/107/98 87/87/79 88/88/80
f 88/88/80 108/108/99 107/107/98
f 109/109/100 108/108/99 88/88/80
f 88/88/80 89/89/81 109/109/100
f 109/109/100 89/89/81 90/90/82
f 90/90/82 110/110/101 109/109/100
f 111/111/102 110/110/101 90/90/82
f 90/90/82 91/91/83 111/111/102
f 111/111/102 91/91/83 92/92/84
f 92/92/84 112/112/103 111/111/102
f 113/113/104 112/112/103 92/92/84
f 92/92/84 93/93/85 113/113/104
f 113/113/104 93/93/85 94/94/86
f 94/94/86 114/114/105 113/113/104
f 115/115/106 114/114/105 94/94/86
f 94/94/86 95/95/87 115/115/106
f 115/115/106 95/95/87 96/96/88
f 96/96/88 116/116/107 115/115/106
f 116/116/107 96/96/88 97/97/89
f 97/97/89 117/117/108 116/116/107
f 117/117/108 97/97/89 98/98/90
f 98/98/90 118/118/109 117/117/108
f 119/119/110 118/118/109 98/98/90
f 98/98/90 99/99/91 119/119/110
f 120/120/111 119/119/110 99/99/91
f 99/99/91 100/100/92 120/120/111
f 121/121/112 101/101/93 102/102/94
f 102/102/94 122/122/113 121/121/112
f 122/122/113 102/102/94 103/103/76
f 103/103/76 123/123/114 122/122/113
f 124/124/115 104/104/95 105/105/96
f 105/105/96 125/125/116 124/124/115
f 125/125/116 105/105/96 106/106/97
f 106/106/97 126/126/117 125/125/116
f 126/126/117 106/106/97 107/107/98
f 107/107/98 127/127/118 126/126/117
f 127/127/118 107/107/98 108/108/99
f 108/108/99 128/128/119 127/127/118
f 129/129/120 128/128/119 108/108/99
f 108/108/99 109/109/100 129/129/120
f 129/129/120 109/109/100 110/110/101
f 110/110/101 130/130/121 129/129/120
f 131/131/122 130/130/121 110/110/101
f 110/110/101 111/111/102 131/131/122
f 132/132/123 131/131/122 111/111/102
f 111/111/102 112/112/103 132/132/123
f 132/132/123 112/112/103 113/113/104
f 113/113/104 133/133/124 132/132/123
f 133/133/124 113/113/104 114/114/105
f 114/114/105 134/134/125 133/133/124
f 135/135/126 134/134/125 114/114/105
f 114/114/105 115/115/106 135/135/126
f 135/135/126 115/115/106 116/116/107
f 116/116/107 136/136/127 135/135/126
f 136/136/127 116/116/107 117/117/108
f 117/117/108 137/137/128 136/136/127
f 138/138/129 137/137/128 117/117/108
f 117/117/108 118/118/109 138/138/129
f 139/139/130 138/138/129 118/118/109
f 118/118/109 119/119/110 139/139/130
f 140/140/131 139/139/130 119/119/110
f 119/119/110 120/120/111 140/140/131
f 141/141/132 121/121/112 122/122/113
f 122/122/113 142/142/133 141/141/132
f 142/142/133 122/122/113 123/123/114
f 123/123/114 143/143/134 142/142/133
f 144/144/135 124/124/115 125/125/116
f 125/125/116 145/145/136 144/144/135
f 145/145/136 125/125/116 126/126/117
f 126/126/117 146/146/137 145/145/136
f 146/146/137 126/126/117 127/127/118
f 127/127/118 147/147/138 146/146/137
f 147/147/138 127/127/118 128/128/119
f 128/128/119 148/148/139 147/147/138
f 148/148/139 128/128/119 129/129/120
f 129/129/120 149/149/140 148/148/139
f 149/149/140 129/129/120 130/130/121
f 130/130/121 150/150/141 149/149/140
f 151/151/142 150/150/141 130/130/121
f 130/130/121 131/131/122 151/151/142
f 152/152/143 151/151/142 131/131/122
f 131/131/122 132/132/123 152/152/143
f 152/152/143 132/132/123 133/133/124
f 133/133/124 153/153/144 152/152/143
f 133/133/124 134/134/125 154/154/145
f 154/154/145 153/153/144 133/133/124
f 155/155/146 154/154/145 134/134/125
f 134/134/125 135/135/126 155/155/146
f 156/156/147 155/155/146 135/135/126
f 135/135/126 136/136/127 156/156/147
f 157/157/148 156/156/147 136/136/127
f 136/136/127 137/137/128 157/157/148
f 158/158/149 157/157/148 137/137/128
f 137/137/128 138/138/129 158/158/149
f 159/159/150 158/158/149 138/138/129
f 138/138/129 139/139/130 159/159/150
f 160/160/151 159/159/150 139/139/130
f 139/139/130 140/140/131 160/160/151
f 142/142/133 161/161/152 162/162/152
f 162/162/152 141/141/132 142/142/133
f 161/161/152 142/142/133 143/143/134
f 143/143/134 163/163/153 161/161/152
f 164/164/154 165/165/155 166/166/155
f 166/166/155 167/167/156 164/164/154
f 164/164/154 167/167/156 168/168/157
f 168/168/157 169/169/158 164/164/154
f 170/170/159 169/169/158 168/168/157
f 168/168/157 171/171/160 170/170/159
f 172/172/161 173/173/162 170/170/159
f 170/170/159 171/171/160 172/172/161
f 173/173/162 172/172/161 174/174/163
f 174/174/163 175/175/164 173/173/162
f 175/175/164 174/174/163 176/176/165
f 176/176/165 177/177/166 175/175/164
f 177/177/166 176/176/165 178/178/167
f 178/178/167 179/179/168 177/177/166
f 179/179/168 178/178/167 180/180/169
f 180/180/169 181/181/170 179/179/168
f 182/182/171 181/181/170 180/180/169
f 180/180/169 183/183/172 182/182/171
f 184/184/173 185/185/174 182/182/171
f 182/182/171 183/183/172 184/184/173
f 185/185/174 184/184/173 186/186/175
f 186/186/175 187/187/176 185/185/174
f 187/187/176 186/186/175 188/188/177
f 188/188/177 189/189/178 187/187/176
f 189/189/178 188/188/177 190/190/179
f 190/190/179 191/191/180 189/189/178
f 190/190/179 192/192/181 191/191/180
f 192/192/181 193/193/182 194/194/183
f 194/194/183 193/193/182 195/195/151
f 195/195/151 196/196/184 194/194/183
f 197/197/185 198/198/186 199/199/152
f 199/199/152 200/200/187 197/197/185
f 200/200/187 199/199/152 166/166/155
f 166/166/155 165/165/155 200/200/187
f 201/201/188 202/202/188 203/203/188
f 203/203/188 204/204/189 201/201/188
f 205/205/190 201/201/188 204/204/189
f 204/204/189 206/206/191 205/205/190
f 207/207/192 205/205/190 206/206/191
f 206/206/191 208/208/193 207/207/192
f 209/209/194 207/207/192 208/208/193
f 208/208/193 210/210/195 209/209/194
f 209/209/194 210/210/195 211/211/196
f 211/211/196 212/212/197 209/209/194
f 213/213/198 212/212/197 211/211/196
f 211/211/196 214/214/199 213/213/198
f 215/215/200 213/213/198 214/214/199
f 214/214/199 216/216/201 215/215/200
f 215/215/200 216/216/201 217/217/202
f 217/217/202 218/218/203 215/215/200
f 219/219/204 218/218/203 217/217/202
f 217/217/202 220/220/205 219/219/204
f 221/221/206 219/219/204 220/220/205
f 220/220/205 222/222/207 221/221/206
f 221/221/206 222/222/207 223/223/208
f 223/223/208 224/224/209 221/221/206
f 224/224/209 223/223/208 225/225/210
f 225/225/210 226/226/211 224/224/209
f 227/227/212 226/226/211 225/225/210
f 225/225/210 228/228/213 227/227/212
f 227/227/212 228/228/213 192/192/181
f 192/192/181 229/229/214 227/227/212
f 229/229/214 192/192/181 194/194/183
f 194/194/183 230/230/215 229/229/214
f 230/230/215 194/194/183 196/196/184
f 196/196/184 231/231/216 230/230/215
f 232/232/217 233/233/218 197/197/185
f 197/197/185 200/200/187 232/232/217
f 202/202/188 232/232/217 200/200/187
f 200/200/187 203/203/188 202/202/188
f 234/234/219 235/235/219 202/202/188
f 202/202/188 201/201/188 234/234/219
f 236/236/220 234/234/219 201/201/188
f 201/201/188 205/205/190 236/236/220
f 237/237/221 236/236/220 205/205/190
f 205/205/190 207/207/192 237/237/221
f 238/238/222 237/237/221 207/207/192
f 207/207/192 209/209/194 238/238/222
f 238/238/222 209/209/194 212/212/197
f 212/212/197 239/239/223 238/238/222
f 240/240/224 239/239/223 212/212/197
f 212/212/197 213/213/198 240/240/224
f 240/240/224 213/213/198 215/215/200
f 215/215/200 241/241/225 240/240/224
f 242/242/226 241/241/225 215/215/200
f 215/215/200 218/218/203 242/242/226
f 243/243/227 242/242/226 218/218/203
f 218/218/203 219/219/204 243/243/227
f 244/244/228 243/243/227 219/219/204
f 219/219/204 221/221/206 244/244/228
f 244/244/228 221/221/206 224/224/209
f 224/224/209 245/245/229 244/244/228
f 245/245/229 224/224/209 226/226/211
f 226/226/211 246/246/230 245/245/229
f 247/247/231 246/246/230 226/226/211
f 226/226/211 227/227/212 247/247/231
f 247/247/231 227/227/212 229/229/214
f 229/229/214 248/248/232 247/247/231
f 248/248/232 229/229/214 230/230/215
f 230/230/215 249/249/233 248/248/232
f 249/249/233 230/230/215 231/231/216
f 231/231/216 250/250/234 249/249/233
f 251/251/235 252/252/236 233/233/218
f 233/233/218 232/232/217 251/251/235
f 235/235/219 251/251/235 232/232/217
f 232/232/217 202/202/188 235/235/219
f 253/253/237 254/254/238 235/235/219
f 235/235/219 234/234/219 253/253/237
f 255/255/239 253/253/237 234/234/219
f 234/234/219 236/236/220 255/255/239
f 256/256/240 255/255/239 236/236/220
f 236/236/220 237/237/221 256/256/240
f 257/257/241 256/256/240 237/237/221
f 237/237/221 238/238/222 257/257/241
f 258/258/242 257/257/241 238/238/222
f 238/238/222 239/239/223 258/258/242
f 259/259/243 258/258/242 239/239/223
f 239/239/223 240/240/224 259/259/243
f 259/259/243 240/240/224 241/241/225
f 241/241/225 260/260/244 259/259/243
f 261/261/245 260/260/244 241/241/225
f 241/241/225 242/242/226 261/261/245
f 262/262/246 261/261/245 242/242/226
f 242/242/226 243/243/227 262/262/246
f 263/263/247 262/262/246 243/243/227
f 243/243/227 244/244/228 263/263/247
f 263/263/247 244/244/228 245/245/229
f 245/245/229 264/264/248 263/263/247
f 264/264/248 245/245/229 246/246/230
f 246/246/230 265/265/249 264/264/248
f 265/265/249 246/246/230 247/247/231
f 247/247/231 266/266/250 265/265/249
f 267/267/251 266/266/250 247/247/231
f 247/247/231 248/248/232 267/267/251
f 267/267/251 248/248/232 249/249/233
f 249/249/233 268/268/252 267/267/251
f 268/268/252 249/249/233 250/250/234
f 250/250/234 269/269/253 268/268/252
f 270/270/254 271/271/254 252/252/236
f 252/252/236 251/251/235 270/270/254
f 254/254/238 270/270/254 251/251/235
f 251/251/235 235/235/219 254/254/238
f 272/272/255 273/273/256 254/254/238
f 254/254/238 253/253/237 272/272/255
f 274/274/257 272/272/255 253/253/237
f 253/253/237 255/255/239 274/274/257
f 274/274/257 255/255/239 256/256/240
f 256/256/240 275/275/258 274/274/257
f 276/276/259 275/275/258 256/256/240
f 256/256/240 257/257/241 276/276/259
f 277/277/260 276/276/259 257/257/241
f 257/257/241 258/258/242 277/277/260
f 277/277/260 258/258/242 259/259/243
f 259/259/243 278/278/261 277/277/260
f 279/279/262 278/278/261 259/259/243
f 259/259/243 260/260/244 279/279/262
f 280/280/263 279/279/262 260/260/244
f 260/260/244 261/261/245 280/280/263
f 281/281/264 280/280/263 261/261/245
f 261/261/245 262/262/246 281/281/264
f 281/281/264 262/262/246 263/263/247
f 263/263/247 282/282/265 281/281/264
f 283/283/266 282/282/265 263/263/247
f 263/263/247 264/264/248 283/283/266
f 283/283/266 264/264/248 265/265/249
f 265/265/249 284/284/267 283/283/266
f 284/284/267 265/265/249 266/266/250
f 266/266/250 285/285/268 284/284/267
f 286/286/269 285/285/268 266/266/250
f 266/266/250 267/267/251 286/286/269
f 287/287/270 286/286/269 267/267/251
f 267/267/251 268/268/252 287/287/270
f 288/288/271 287/287/270 268/268/252
f 268/268/252 269/269/253 288/288/271
f 289/289/272 290/290/273 271/271/254
f 271/271/254 270/270/254 289/289/272
f 273/273/256 289/289/272 270/270/254
f 270/270/254 254/254/238 273/273/256
f 291/291/274 273/273/256 272/272/255
f 272/272/255 292/292/275 291/291/274
f 292/292/275 272/272/255 274/274/257
f 274/274/257 293/293/276 292/292/275
f 293/293/276 274/274/257 275/275/258
f 275/275/258 294/294/277 293/293/276
f 294/294/277 275/275/258 276/276/259
f 276/276/259 295/295/278 294/294/277
f 296/296/279 295/295/278 276/276/259
f 276/276/259 277/277/260 296/296/279
f 296/296/279 277/277/260 278/278/261
f 278/278/261 297/297/280 296/296/279
f 297/297/280 278/278/261 279/279/262
f 279/279/262 298/298/281 297/297/280
f 299/299/282 298/298/281 279/279/262
f 279/279/262 280/280/263 299/299/282
f 300/300/283 299/299/282 280/280/263
f 280/280/263 281/281/264 300/300/283
f 300/300/283 281/281/264 282/282/265
f 282/282/265 301/301/284 300/300/283
f 302/302/285 301/301/284 282/282/265
f 282/282/265 283/283/266 302/302/285
f 302/302/285 283/283/266 284/284/267
f 284/284/267 303/303/286 302/302/285
f 304/304/287 303/303/286 284/284/267
f 284/284/267 285/285/268 304/304/287
f 305/305/288 304/304/287 285/285/268
f 285/285/268 286/286/269 305/305/288
f 306/306/289 305/305/288 286/286/269
f 286/286/269 287/287/270 306/306/289
f 307/307/290 306/306/289 287/287/270
f 287/287/270 288/288/271 307/307/290
f 308/308/291 290/290/273 289/289/272
f 289/289/272 309/309/292 308/308/291
f 309/309/292 289/289/272 273/273/256
f 273/273/256 291/291/274 309/309/292
f 310/310/293 291/291/274 292/292/275
f 292/292/275 311/311/294 310/310/293
f 311/311/294 292/292/275 293/293/276
f 293/293/276 312/312/295 311/311/294
f 312/312/295 293/293/276 294/294/277
f 294/294/277 313/313/296 312/312/295
f 313/313/296 294/294/277 295/295/278
f 295/295/278 314/314/297 313/313/296
f 315/315/298 314/314/297 295/295/278
f 295/295/278 296/296/279 315/315/298
f 315/315/298 296/296/279 297/297/280
f 297/297/280 316/316/299 315/315/298
f 316/316/299 297/297/280 298/298/281
f 298/298/281 317/317/300 316/316/299
f 318/318/301 317/317/300 298/298/281
f 298/298/281 299/299/282 318/318/301
f 319/319/302 318/318/301 299/299/282
f 299/299/282 300/300/283 319/319/302
f 320/320/303 319/319/302 300/300/283
f 300/300/283 301/301/284 320/320/303
f 320/320/303 301/301/284 302/302/285
f 302/302/285 321/321/304 320/320/303
f 321/321/304 302/302/285 303/303/286
f 303/303/286 322/322/305 321/321/304
f 323/323/306 322/322/305 303/303/286
f 303/303/286 304/304/287 323/323/306
f 324/324/307 323/323/306 304/304/287
f 304/304/287 305/305/288 324/324/307
f 325/325/308 324/324/307 305/305/288
f 305/305/288 306/306/289 325/325/308
f 326/326/309 325/325/308 306/306/289
f 306/306/289 307/307/290 326/326/309
f 327/327/310 326/326/309 307/307/290
f 307/307/290 328/328/311 327/327/310
f 327/327/310 328/328/311 308/308/291
f 308/308/291 329/329/312 327/327/310
f 329/329/312 308/308/291 309/309/292
f 309/309/292 330/330/313 329/329/312
f 330/330/313 309/309/292 291/291/274
f 291/291/274 310/310/293 330/330/313
f 331/331/314 310/310/293 311/311/294
f 311/311/294 332/332/315 331/331/314
f 332/332/315 311/311/294 312/312/295
f 312/312/295 333/333/316 332/332/315
f 333/333/316 312/312/295 313/313/296
f 313/313/296 334/334/317 333/333/316
f 335/335/318 334/334/317 313/313/296
f 313/313/296 314/314/297 335/335/318
f 335/335/318 314/314/297 315/315/298
f 315/315/298 336/336/319 335/335/318
f 337/337/320 336/336/319 315/315/298
f 315/315/298 316/316/299 337/337/320
f 337/337/320 316/316/299 317/317/300
f 317/317/300 338/338/321 337/337/320
f 338/338/321 317/317/300 318/318/301
f 318/318/301 339/339/322 338/338/321
f 339/339/322 318/318/301 319/319/302
f 319/319/302 340/340/323 339/339/322
f 341/341/324 340/340/323 319/319/302
f 319/319/302 320/320/303 341/341/324
f 341/341/324 320/320/303 321/321/304
f 321/321/304 342/342/325 341/341/324
f 342/342/325 321/321/304 322/322/305
f 322/322/305 343/343/326 342/342/325
f 344/344/327 343/343/326 322/322/305
f 322/322/305 323/323/306 344/344/327
f 345/345/328 344/344/327 323/323/306
f 323/323/306 324/324/307 345/345/328
f 346/346/329 345/345/328 324/324/307
f 324/324/307 325/325/308 346/346/329
f 346/346/329 325/325/308 326/326/309
f 326/326/309 347/347/330 346/346/329
f 347/347/330 326/326/309 327/327/310
f 327/327/310 348/348/331 347/347/330
f 348/348/331 327/327/310 329/329/312
f 329/329/312 349/349/332 348/348/331
f 349/349/332 329/329/312 330/330/313
f 330/330/313 350/350/333 349/349/332
f 350/350/333 330/330/313 310/310/293
f 310/310/293 331/331/314 350/350/333
f 351/351/334 331/331/314 332/332/315
f 332/332/315 352/352/335 351/351/334
f 352/352/335 332/332/315 333/333/316
f 333/333/316 353/353/336 352/352/335
f 353/353/336 333/333/316 334/334/317
f 334/334/317 354/354/337 353/353/336
f 354/354/337 334/334/317 335/335/318
f 335/335/318 355/355/338 354/354/337
f 356/356/339 355/355/338 335/335/318
f 335/335/318 336/336/319 356/356/339
f 357/357/340 356/356/339 336/336/319
f 336/336/319 337/337/320 357/357/340
f 358/358/341 357/357/340 337/337/320
f 337/337/320 338/338/321 358/358/341
f 358/358/341 338/338/321 339/339/322
f 339/339/322 359/359/342 358/358/341
f 359/359/342 339/339/322 340/340/323
f 340/340/323 360/360/343 359/359/342
f 360/360/343 340/340/323 341/341/324
f 341/341/324 361/361/344 360/360/343
f 362/362/345 361/361/344 341/341/324
f 341/341/324 342/342/325 362/362/345
f 363/363/346 362/362/345 342/342/325
f 342/342/325 343/343/326 363/363/346
f 364/364/347 363/363/346 343/343/326
f 343/343/326 344/344/327 364/364/347
f 365/365/348 364/364/347 344/344/327
f 344/344/327 345/345/328 365/365/348
f 366/366/349 365/365/348 345/345/328
f 345/345/328 346/346/329 366/366/349
f 366/366/349 346/346/329 347/347/330
f 347/347/330 367/367/350 366/366/349
f 367/367/350 347/347/330 348/348/331
f 348/348/331 368/368/351 367/367/350
f 368/368/351 348/348/331 349/349/332
f 349/349/332 369/369/352 368/368/351
f 369/369/352 349/349/332 350/350/333
f 350/350/333 370/370/353 369/369/352
f 351/351/334 370/370/353 350/350/333
f 350/350/333 331/331/314 351/351/334
f 371/371/354 351/351/334 352/352/335
f 352/352/335 372/372/355 371/371/354
f 372/372/355 352/352/335 353/353/336
f 353/353/336 373/373/356 372/372/355
f 374/374/357 373/373/356 353/353/336
f 353/353/336 354/354/337 374/374/357
f 374/374/357 354/354/337 355/355/338
f 355/355/338 375/375/358 374/374/357
f 376/376/359 375/375/358 355/355/338
f 355/355/338 356/356/339 376/376/359
f 377/377/360 376/376/359 356/356/339
f 356/356/339 357/357/340 377/377/360
f 377/377/360 357/357/340 358/358/341
f 358/358/341 378/378/361 377/377/360
f 378/378/361 358/358/341 359/359/342
f 359/359/342 379/379/362 378/378/361
f 379/379/362 359/359/342 360/360/343
f 360/360/343 380/380/363 379/379/362
f 381/381/364 380/380/363 360/360/343
f 360/360/343 361/361/344 381/381/364
f 382/382/365 381/381/364 361/361/344
f 361/361/344 362/362/345 382/382/365
f 383/383/366 382/382/365 362/362/345
f 362/362/345 363/363/346 383/383/366
f 384/384/367 383/383/366 363/363/346
f 363/363/346 364/364/347 384/384/367
f 384/384/367 364/364/347 365/365/348
f 365/365/348 385/385/368 384/384/367
f 385/385/368 365/365/348 366/366/349
f 366/366/349 386/386/369 385/385/368
f 387/387/370 386/386/369 366/366/349
f 366/366/349 367/367/350 387/387/370
f 388/388/371 387/387/370 367/367/350
f 367/367/350 368/368/351 388/388/371
f 388/388/371 368/368/351 369/369/352
f 369/369/352 389/389/372 388/388/371
f 389/389/372 369/369/352 370/370/353
f 370/370/353 390/390/373 389/389/372
f 390/390/373 370/370/353 351/351/334
f 351/351/334 371/371/354 390/390/373
f 4/4/3 3/3/2 391/391/374
f 6/6/5 4/4/3 391/391/374
f 8/8/6 6/6/5 391/391/374
f 10/10/8 8/8/6 391/391/374
f 12/12/10 10/10/8 391/391/374
f 14/14/12 12/12/10 391/391/374
f 16/16/14 14/14/12 391/391/374
f 18/18/15 16/16/14 391/391/374
f 19/19/16 18/18/15 391/391/374
f 21/21/18 19/19/16 391/391/374
f 23/23/20 21/21/18 391/391/374
f 25/25/22 23/23/20 391/391/374
f 27/27/23 25/25/22 391/391/374
f 29/29/25 27/27/23 391/391/374
f 31/31/26 29/29/25 391/391/374
f 33/33/27 31/31/26 391/391/374
f 35/35/29 33/33/27 391/391/374
f 37/37/31 35/35/29 391/391/374
f 39/39/33 37/37/31 391/391/374
f 42/42/36 39/39/33 391/391/374
f 372/372/355 392/392/375 371/371/354
f 373/373/356 392/392/375 372/372/355
f 374/374/357 392/392/375 373/373/356
f 375/375/358 392/392/375 374/374/357
f 376/376/359 392/392/375 375/375/358
f 377/377/360 392/392/375 376/376/359
f 378/378/361 392/392/375 377/377/360
f 379/379/362 392/392/375 378/378/361
f 380/380/363 392/392/375 379/379/362
f 381/381/364 392/392/375 380/380/363
f 382/382/365 392/392/375 381/381/364
f 383/383/366 392/392/375 382/382/365
f 384/384/367 392/392/375 383/383/366
f 385/385/368 392/392/375 384/384/367
f 386/386/369 392/392/375 385/385/368
f 387/387/370 392/392/375 386/386/369
f 388/388/371 392/392/375 387/387/370
f 389/389/372 392/392/375 388/388/371
f 390/390/373 392/392/375 389/389/372
f 371/371/354 392/392/375 390/390/373
f 328/328/311 393/393/376 394/394/54
f 394/394/54 308/308/291 328/328/311
f 290/290/273 308/308/291 394/394/54
f 394/394/54 395/395/377 290/290/273
f 271/271/254 290/290/273 395/395/377
f 395/395/377 396/396/378 271/271/254
f 252/252/236 271/271/254 396/396/378
f 396/396/378 397/397/379 252/252/236
f 252/252/236 397/397/379 398/398/132
f 398/398/132 233/233/218 252/252/236
f 197/197/185 233/233/218 398/398/132
f 398/398/132 198/198/186 197/197/185
f 399/399/73 400/400/380 307/307/290
f 307/307/290 288/288/271 399/399/73
f 399/399/73 288/288/271 269/269/253
f 269/269/253 401/401/92 399/399/73
f 401/401/92 269/269/253 250/250/234
f 250/250/234 402/402/381 401/401/92
f 402/402/381 250/250/234 231/231/216
f 231/231/216 403/403/382 402/402/381
f 403/403/382 231/231/216 196/196/184
f 196/196/184 195/195/151 403/403/382
f 404/404/383 405/405/383 59/59/52
f 59/59/52 60/60/53 404/404/383
f 406/406/384 407/407/383 393/393/376
f 393/393/376 328/328/311 406/406/384
f 406/406/384 328/328/311 307/307/290
f 307/307/290 408/408/385 406/406/384
f 409/409/383 408/408/385 307/307/290
f 307/307/290 400/400/380 409/409/383
f 410/410/386 405/405/383 404/404/383
f 404/404/383 411/411/387 410/410/386
f 412/412/388 407/407/383 406/406/384
f 406/406/384 413/413/389 412/412/388
f 414/414/390 413/413/389 406/406/384
f 406/406/384 408/408/385 414/414/390
f 415/415/391 414/414/390 408/408/385
f 408/408/385 409/409/383 415/415/391
f 416/416/392 417/417/393 413/413/389
f 413/413/389 414/414/390 416/416/392
f 418/418/394 412/412/388 413/413/389
f 413/413/389 417/417/393 418/418/394
f 419/419/395 410/410/386 411/411/387
f 411/411/387 420/420/396 419/419/395
f 416/416/392 414/414/390 415/415/391
f 415/415/391 421/421/395 416/416/392
f 422/422/397 417/417/393 416/416/392
f 416/416/392 423/423/398 422/422/397
f 424/424/399 418/418/394 417/417/393
f 417/417/393 422/422/397 424/424/399
f 425/425/400 426/426/401 419/419/395
f 419/419/395 420/420/396 425/425/400
f 427/427/401 423/423/398 416/416/392
f 416/416/392 421/421/395 427/427/401
f 422/422/397 423/423/398 428/428/402
f 424/424/399 422/422/397 428/428/402
f 426/426/401 425/425/400 429/429/403
f 423/423/398 427/427/401 428/428/402
f 430/430/404 431/431/404 204/204/189
f 204/204/189 203/203/188 430/430/404
f 431/431/404 430/430/404 165/165/155
f 165/165/155 164/164/154 431/431/404
f 431/431/404 432/432/405 206/206/191
f 206/206/191 204/204/189 431/431/404
f 431/431/404 164/164/154 169/169/158
f 169/169/158 432/432/405 431/431/404
f 433/433/406 208/208/193 206/206/191
f 206/206/191 432/432/405 433/433/406
f 433/433/406 432/432/405 169/169/158
f 169/169/158 170/170/159 433/433/406
f 434/434/407 210/210/195 208/208/193
f 208/208/193 433/433/406 434/434/407
f 434/434/407 433/433/406 170/170/159
f 170/170/159 173/173/162 434/434/407
f 435/435/408 211/211/196 210/210/195
f 210/210/195 434/434/407 435/435/408
f 435/435/408 434/434/407 173/173/162
f 173/173/162 175/175/164 435/435/408
f 436/436/409 214/214/199 211/211/196
f 211/211/196 435/435/408 436/436/409
f 436/436/409 435/435/408 175/175/164
f 175/175/164 177/177/166 436/436/409
f 436/436/409 437/437/410 216/216/201
f 216/216/201 214/214/199 436/436/409
f 436/436/409 177/177/166 179/179/168
f 179/179/168 437/437/410 436/436/409
f 437/437/410 438/438/411 217/217/202
f 217/217/202 216/216/201 437/437/410
f 437/437/410 179/179/168 181/181/170
f 181/181/170 438/438/411 437/437/410
f 439/439/412 220/220/205 217/217/202
f 217/217/202 438/438/411 439/439/412
f 439/439/412 438/438/411 181/181/170
f 181/181/170 182/182/171 439/439/412
f 439/439/412 440/440/413 222/222/207
f 222/222/207 220/220/205 439/439/412
f 439/439/412 182/182/171 185/185/174
f 185/185/174 440/440/413 439/439/412
f 441/441/414 223/223/208 222/222/207
f 222/222/207 440/440/413 441/441/414
f 440/440/413 185/185/174 187/187/176
f 187/187/176 441/441/414 440/440/413
f 441/441/414 442/442/415 225/225/210
f 225/225/210 223/223/208 441/441/414
f 441/441/414 187/187/176 189/189/178
f 189/189/178 442/442/415 441/441/414
f 443/443/416 228/228/213 225/225/210
f 225/225/210 442/442/415 443/443/416
f 442/442/415 189/189/178 191/191/180
f 191/191/180 443/443/416 442/442/415
f 192/192/181 228/228/213 443/443/416
f 191/191/180 192/192/181 443/443/416
f 203/203/188 200/200/187 430/430/404
f 200/200/187 165/165/155 430/430/404
f 444/444/417 445/445/417 446/446/418
f 446/446/418 447/447/136 444/444/417
f 448/448/419 449/449/420 450/450/421
f 450/450/421 451/451/422 448/448/419
f 452/452/423 444/444/417 447/447/136
f 447/447/136 453/453/137 452/452/423
f 449/449/420 454/454/424 455/455/425
f 455/455/425 450/450/421 449/449/420
f 456/456/426 452/452/423 453/453/137
f 453/453/137 457/457/427 456/456/426
f 458/458/428 459/459/429 455/455/425
f 455/455/425 454/454/424 458/458/428
f 460/460/430 461/461/431 462/462/432
f 462/462/432 463/463/433 460/460/430
f 464/464/434 465/465/434 466/466/435
f 466/466/435 467/467/436 464/464/434
f 468/468/437 469/469/438 470/470/439
f 470/470/439 471/471/440 468/468/437
f 472/472/441 473/473/442 474/474/442
f 474/474/442 475/475/443 472/472/441
f 476/476/444 471/471/440 470/470/439
f 470/470/439 477/477/445 476/476/444
f 473/473/442 478/478/446 479/479/447
f 479/479/447 474/474/442 473/473/442
f 480/480/448 476/476/444 477/477/445
f 477/477/445 481/481/144 480/480/448
f 482/482/449 483/483/450 479/479/447
f 479/479/447 478/478/446 482/482/449
f 484/484/451 485/485/452 486/486/453
f 486/486/453 487/487/454 484/484/451
f 488/488/455 489/489/456 490/490/457
f 490/490/457 491/491/458 488/488/455
f 487/487/454 486/486/453 492/492/459
f 492/492/459 493/493/460 487/487/454
f 489/489/456 494/494/461 495/495/461
f 495/495/461 490/490/457 489/489/456
f 492/492/459 190/190/179 493/493/460
f 190/190/179 495/495/461 494/494/461
f 199/199/152 446/446/418 445/445/417
f 451/451/422 199/199/152 448/448/419
f 451/451/422 450/450/421 167/167/156
f 167/167/156 166/166/155 451/451/422
f 448/448/419 445/445/417 444/444/417
f 444/444/417 449/449/420 448/448/419
f 450/450/421 455/455/425 168/168/157
f 168/168/157 167/167/156 450/450/421
f 449/449/420 444/444/417 452/452/423
f 452/452/423 454/454/424 449/449/420
f 455/455/425 459/459/429 171/171/160
f 171/171/160 168/168/157 455/455/425
f 454/454/424 452/452/423 456/456/426
f 456/456/426 458/458/428 454/454/424
f 466/466/435 174/174/163 172/172/161
f 172/172/161 467/467/436 466/466/435
f 464/464/434 461/461/431 460/460/430
f 460/460/430 465/465/434 464/464/434
f 475/475/443 474/474/442 178/178/167
f 178/178/167 176/176/165 475/475/443
f 472/472/441 468/468/437 471/471/440
f 471/471/440 473/473/442 472/472/441
f 479/479/447 180/180/169 178/178/167
f 178/178/167 474/474/442 479/479/447
f 473/473/442 471/471/440 476/476/444
f 476/476/444 478/478/446 473/473/442
f 483/483/450 183/183/172 180/180/169
f 180/180/169 479/479/447 483/483/450
f 482/482/449 478/478/446 476/476/444
f 476/476/444 480/480/448 482/482/449
f 490/490/457 186/186/175 184/184/173
f 184/184/173 491/491/458 490/490/457
f 488/488/455 484/484/451 487/487/454
f 487/487/454 489/489/456 488/488/455
f 495/495/461 188/188/177 186/186/175
f 186/186/175 490/490/457 495/495/461
f 489/489/456 487/487/454 493/493/460
f 493/493/460 494/494/461 489/489/456
f 190/190/179 188/188/177 495/495/461
f 493/493/460 190/190/179 494/494/461
f 166/166/155 199/199/152 451/451/422
f 199/199/152 445/445/417 448/448/419
f 171/171/160 496/496/462 462/462/432
f 462/462/432 172/172/161 171/171/160
f 456/456/426 496/496/462 171/171/160
f 456/456/426 171/171/160 459/459/429
f 459/459/429 458/458/428 456/456/426
f 464/464/434 467/467/436 461/461/431
f 462/462/432 461/461/431 467/467/436
f 467/467/436 172/172/161 462/462/432
f 466/466/435 465/465/434 460/460/430
f 174/174/163 466/466/435 460/460/430
f 460/460/430 463/463/433 174/174/163
f 176/176/165 174/174/163 463/463/433
f 463/463/433 497/497/438 176/176/165
f 472/472/441 475/475/443 468/468/437
f 468/468/437 475/475/443 176/176/165
f 176/176/165 497/497/438 468/468/437
f 488/488/455 491/491/458 484/484/451
f 184/184/173 498/498/463 484/484/451
f 484/484/451 491/491/458 184/184/173
f 183/183/172 481/481/144 498/498/463
f 498/498/463 184/184/173 183/183/172
f 483/483/450 482/482/449 480/480/448
f 183/183/172 483/483/450 480/480/448
f 480/480/448 481/481/144 183/183/172
