# Blender 5.2.0 LTS
# www.blender.org
mtllib snow shovel.mtl
o RenderMesh_133897199186264
v -0.432045 0.463031 0.024996
v -0.432045 0.514646 0.111674
v -0.402587 0.462231 0.017189
v -0.371449 0.512999 0.111674
v -0.371449 0.461384 0.024996
v 0.402587 0.462231 0.017189
v 0.432045 0.514646 0.111674
v 0.432045 0.463031 0.024996
v 0.371449 0.512999 0.111674
v 0.371449 0.461384 0.024996
v 0.012558 0.319748 0.100483
v -0.012557 0.319748 0.100483
v 0.000000 0.319748 0.105685
v -0.012557 0.319748 0.075368
v -0.017759 0.319748 0.087926
v 0.012558 0.319748 0.075368
v 0.000000 0.319748 0.070166
v 0.017760 0.319748 0.087926
v -0.033442 -1.060138 -0.043943
v -0.033442 -1.060138 0.022942
v -0.047295 -1.060138 -0.010501
v 0.000000 -1.060138 0.036794
v 0.047295 -1.060138 -0.010501
v 0.033443 -1.060138 0.022942
v 0.033443 -1.060138 -0.043943
v 0.000000 -1.060138 -0.057796
v -0.059383 -1.045178 -0.010501
v -0.033442 -1.060138 0.022942
v -0.041990 -1.045178 0.031490
v 0.000000 -1.045178 0.048882
v 0.000000 -1.060138 0.036794
v -0.047295 -1.060138 -0.010501
v -0.033442 -1.060138 -0.043943
v -0.041990 -1.045178 -0.052491
v 0.000000 -1.045178 -0.069884
v 0.000000 -1.060138 -0.057796
v 0.033443 -1.060138 -0.043943
v 0.041990 -1.045178 -0.052491
v 0.059383 -1.045178 -0.010501
v 0.047295 -1.060138 -0.010501
v 0.033443 -1.060138 0.022942
v 0.041990 -1.045178 0.031490
v 0.000000 -1.045178 0.048882
v 0.000000 -1.060138 0.036794
v -0.044618 -1.249745 -0.046235
v 0.000000 -1.264546 -0.010501
v -0.044618 -1.264546 -0.010501
v -0.085855 -1.245345 -0.041835
v -0.085855 -1.258324 -0.010501
v 0.000000 -1.249745 -0.046235
v 0.044619 -1.264546 -0.010501
v 0.044619 -1.249745 -0.046235
v 0.085856 -1.245345 -0.041835
v 0.085856 -1.258324 -0.010501
v -0.044618 -1.214010 -0.061037
v -0.044618 -1.249745 -0.046235
v -0.085855 -1.245345 -0.041835
v -0.085855 -1.214010 -0.054814
v 0.000000 -1.214010 -0.061037
v 0.044619 -1.249745 -0.046235
v 0.044619 -1.214010 -0.061037
v 0.085856 -1.245345 -0.041835
v 0.085856 -1.214010 -0.054814
v -0.085855 -1.245345 0.020834
v -0.044618 -1.249745 0.025234
v -0.044618 -1.214010 0.040035
v -0.085855 -1.214010 0.033813
v 0.000000 -1.214010 0.040035
v 0.000000 -1.249745 0.025234
v 0.044619 -1.214010 0.040035
v 0.044619 -1.249745 0.025234
v 0.085856 -1.245345 0.020834
v 0.085856 -1.214010 0.033813
v -0.044618 -1.264546 -0.010501
v -0.044618 -1.249745 0.025234
v -0.085855 -1.245345 0.020834
v -0.085855 -1.258324 -0.010501
v 0.044619 -1.249745 0.025234
v 0.044619 -1.264546 -0.010501
v 0.085856 -1.245345 0.020834
v 0.085856 -1.258324 -0.010501
v 0.000000 0.512999 0.111778
v -0.371449 0.463626 0.076884
v -0.371449 0.512999 0.111778
v 0.000000 0.462934 0.076935
v 0.000000 0.512999 0.111778
v 0.371449 0.512999 0.111778
v 0.371449 0.463626 0.076884
v 0.000000 0.462934 0.076935
v -0.422404 0.423753 0.111674
v -0.432045 0.463031 0.024996
v -0.422404 0.423753 0.024996
v -0.432045 0.514646 0.111674
v -0.422404 0.423753 0.024996
v -0.404501 0.254952 0.111674
v -0.404501 0.254952 0.006607
v -0.376958 -0.004743 0.058929
v -0.404501 0.254952 0.111674
v -0.376958 -0.004743 -0.085268
v 0.432045 0.463031 0.024996
v 0.422405 0.423753 0.111674
v 0.422405 0.423753 0.024996
v 0.432045 0.514646 0.111674
v 0.404501 0.254952 0.111674
v 0.422405 0.423753 0.024996
v 0.404501 0.254952 0.006607
v 0.376957 -0.004743 0.058929
v 0.376957 -0.004743 -0.085268
v 0.404501 0.254952 0.111674
v 0.000000 -0.079847 -0.103970
v 0.212993 -0.078485 0.024087
v 0.212993 -0.078485 -0.103970
v 0.000000 -0.079847 0.024087
v 0.000000 -0.079847 -0.103970
v -0.212992 -0.078485 -0.103970
v -0.212992 -0.078485 0.024087
v 0.000000 -0.079847 0.024087
v -0.252613 -0.070726 -0.103970
v -0.252613 -0.070726 0.024087
v -0.289612 -0.051776 -0.103970
v -0.289612 -0.051776 0.024087
v -0.376958 -0.004743 -0.085268
v -0.404501 0.254952 0.006607
v -0.375059 0.254151 -0.001201
v -0.347534 -0.005543 -0.093075
v -0.343810 -0.078927 -0.103970
v -0.347534 -0.005543 -0.093075
v -0.316923 -0.065458 -0.111778
v 0.347533 -0.005543 -0.093075
v 0.343810 -0.078927 -0.103970
v 0.316922 -0.065458 -0.111778
v 0.375059 0.254151 -0.001201
v 0.376957 -0.004743 -0.085268
v 0.347533 -0.005543 -0.093075
v 0.392951 0.422952 0.017189
v 0.404501 0.254952 0.006607
v 0.404501 0.254952 0.006607
v 0.376957 -0.004743 -0.085268
v 0.375059 0.254151 -0.001201
v 0.422405 0.423753 0.024996
v 0.392951 0.422952 0.017189
v -0.343810 -0.078927 -0.103970
v -0.376958 -0.004743 -0.085268
v -0.347534 -0.005543 -0.093075
v 0.376957 -0.004743 -0.085268
v 0.343810 -0.078927 -0.103970
v 0.347533 -0.005543 -0.093075
v 0.252613 -0.070726 -0.103970
v 0.252613 -0.070726 0.024087
v 0.289613 -0.051776 -0.103970
v 0.289613 -0.051776 0.024087
v 0.212993 -0.078485 0.024087
v 0.212993 -0.078485 -0.103970
v 0.029121 0.268107 0.048608
v 0.058737 -0.106203 -0.003658
v 0.041533 -0.106203 -0.045191
v 0.069120 -0.209696 -0.010501
v 0.048875 -0.209696 -0.059375
v 0.048875 -0.209696 0.038374
v 0.000000 -0.209696 -0.079620
v 0.041533 -0.106203 0.037875
v 0.000000 -0.209696 0.058619
v 0.000000 -0.106203 0.037875
v -0.041533 -0.106203 0.037875
v -0.048874 -0.209696 0.038374
v 0.041184 0.268107 0.077729
v 0.029121 0.268107 0.106850
v 0.017760 0.319748 0.087926
v 0.012558 0.319748 0.100483
v 0.012558 0.319748 0.075368
v 0.000000 0.268107 0.036546
v 0.000000 0.319748 0.070166
v -0.012557 0.319748 0.075368
v 0.000000 -0.106203 -0.062394
v -0.029121 0.268107 0.048608
v -0.041533 -0.106203 -0.045191
v -0.048874 -0.209696 -0.059375
v -0.069119 -0.209696 -0.010501
v -0.058736 -0.106203 -0.003658
v -0.041183 0.268107 0.077729
v -0.029121 0.268107 0.106850
v -0.017759 0.319748 0.087926
v -0.012557 0.319748 0.100483
v -0.376958 -0.004743 -0.085268
v -0.343810 -0.078927 0.058929
v -0.376958 -0.004743 0.058929
v -0.343810 -0.078927 -0.103970
v 0.376957 -0.004743 -0.085268
v 0.343810 -0.078927 0.058929
v 0.343810 -0.078927 -0.103970
v 0.376957 -0.004743 0.058929
v -0.316923 -0.065458 -0.111778
v -0.347534 -0.005543 -0.093075
v -0.316363 -0.006390 -0.085268
v -0.289612 -0.051776 -0.103970
v 0.347533 -0.005543 -0.093075
v 0.316922 -0.065458 -0.111778
v 0.316363 -0.006390 -0.085268
v 0.289613 -0.051776 -0.103970
v 0.000000 -0.110443 -0.111778
v -0.212992 -0.078485 -0.103970
v 0.000000 -0.079847 -0.103970
v -0.215956 -0.107998 -0.111778
v 0.215956 -0.107998 -0.111778
v 0.000000 -0.110443 -0.111778
v 0.212993 -0.078485 -0.103970
v 0.000000 -0.079847 -0.103970
v -0.252613 -0.070726 -0.103970
v -0.212992 -0.078485 -0.103970
v -0.215956 -0.107998 -0.111778
v 0.252613 -0.070726 -0.103970
v 0.215956 -0.107998 -0.111778
v 0.212993 -0.078485 -0.103970
v -0.215956 -0.107998 -0.111778
v -0.267187 -0.096630 -0.111778
v -0.252613 -0.070726 -0.103970
v 0.215956 -0.107998 -0.111778
v 0.252613 -0.070726 -0.103970
v 0.267187 -0.096630 -0.111778
v -0.404501 0.254952 0.006607
v -0.422404 0.423753 0.024996
v -0.392953 0.422952 0.017189
v -0.392953 0.422952 0.017189
v -0.375059 0.254151 -0.001201
v -0.404501 0.254952 0.006607
v -0.252613 -0.070726 -0.103970
v -0.267187 -0.096630 -0.111778
v -0.289612 -0.051776 -0.103970
v -0.316923 -0.065458 -0.111778
v 0.252613 -0.070726 -0.103970
v 0.289613 -0.051776 -0.103970
v 0.267187 -0.096630 -0.111778
v 0.316922 -0.065458 -0.111778
v -0.347534 -0.005543 -0.093075
v -0.375059 0.254151 -0.001201
v -0.343906 0.253304 0.006607
v -0.343906 0.253304 0.006607
v -0.316363 -0.006390 -0.085268
v -0.347534 -0.005543 -0.093075
v 0.375059 0.254151 -0.001201
v 0.347533 -0.005543 -0.093075
v 0.343906 0.253304 0.006607
v 0.343906 0.253304 0.006607
v 0.347533 -0.005543 -0.093075
v 0.316363 -0.006390 -0.085268
v -0.048793 -0.266669 -0.059294
v 0.000000 -0.255753 -0.064166
v 0.000000 -0.266669 -0.079505
v 0.037948 -0.255753 -0.048448
v -0.037947 -0.255753 -0.048448
v 0.048794 -0.266669 -0.059294
v -0.053665 -0.255753 -0.010501
v 0.053666 -0.255753 -0.010501
v -0.069004 -0.266669 -0.010501
v 0.069005 -0.266669 -0.010501
v -0.037947 -0.255753 0.027447
v 0.037948 -0.255753 0.027447
v -0.048793 -0.266669 0.038293
v 0.000000 -0.255753 0.043165
v 0.000000 -0.266669 0.058504
v 0.048794 -0.266669 0.038293
v 0.000000 -0.266669 0.058504
v 0.000000 -0.255753 0.043165
v -0.055829 -0.492392 -0.010501
v 0.055830 -0.492392 -0.010501
v 0.000000 -0.492392 0.045329
v 0.039478 -0.492392 0.028977
v -0.039477 -0.492392 0.028977
v 0.000000 -0.492392 -0.066330
v -0.039477 -0.492392 -0.049978
v 0.039478 -0.492392 -0.049978
v -0.361808 0.422106 0.111726
v 0.000000 0.512999 0.111778
v -0.371449 0.512999 0.111778
v 0.000000 0.422106 0.111778
v 0.361808 0.422106 0.111726
v 0.371449 0.512999 0.111778
v 0.000000 -0.466484 -0.079505
v -0.039477 -0.492392 -0.049978
v -0.048793 -0.466484 -0.059294
v -0.069004 -0.466484 -0.010501
v 0.000000 -0.492392 -0.066330
v -0.055829 -0.492392 -0.010501
v 0.039478 -0.492392 -0.049978
v -0.039477 -0.492392 0.028977
v 0.048794 -0.466484 -0.059294
v -0.048793 -0.466484 0.038293
v 0.000000 -0.466484 0.058504
v 0.000000 -0.492392 0.045329
v 0.069005 -0.466484 -0.010501
v 0.055830 -0.492392 -0.010501
v 0.039478 -0.492392 0.028977
v 0.048794 -0.466484 0.038293
v 0.000000 -0.466484 0.058504
v 0.000000 -0.492392 0.045329
v -0.096867 -1.253223 -0.010501
v -0.096867 -1.174798 -0.010501
v -0.096867 -1.214010 -0.049713
v -0.096867 -1.186283 -0.038228
v -0.096867 -1.241738 -0.038228
v -0.096867 -1.214010 0.028712
v -0.096867 -1.241738 0.017227
v -0.096867 -1.186283 0.017227
v 0.096868 -1.253223 -0.010501
v 0.096867 -1.174798 -0.010501
v 0.096867 -1.214010 0.028712
v 0.096867 -1.186283 0.017227
v 0.096867 -1.241738 0.017227
v 0.096867 -1.214010 -0.049713
v 0.096867 -1.241738 -0.038228
v 0.096867 -1.186283 -0.038228
v 0.085856 -1.258324 -0.010501
v 0.096867 -1.241738 0.017227
v 0.085856 -1.245345 0.020834
v 0.085856 -1.214010 0.033813
v 0.096867 -1.214010 0.028712
v 0.096868 -1.253223 -0.010501
v 0.096867 -1.241738 -0.038228
v 0.085856 -1.245345 -0.041835
v 0.085856 -1.214010 -0.054814
v 0.096867 -1.214010 -0.049713
v 0.096867 -1.186283 -0.038228
v 0.085856 -1.182676 -0.041835
v 0.085856 -1.169697 -0.010501
v 0.096867 -1.174798 -0.010501
v 0.096867 -1.186283 0.017227
v 0.085856 -1.182676 0.020834
v 0.085856 -1.214010 0.033813
v 0.096867 -1.214010 0.028712
v -0.096867 -1.241738 -0.038228
v -0.096867 -1.214010 -0.049713
v -0.085855 -1.214010 -0.054814
v -0.096867 -1.186283 -0.038228
v -0.085855 -1.245345 -0.041835
v -0.085855 -1.182676 -0.041835
v -0.085855 -1.258324 -0.010501
v -0.085855 -1.169697 -0.010501
v -0.096867 -1.253223 -0.010501
v -0.096867 -1.174798 -0.010501
v -0.096867 -1.241738 0.017227
v -0.096867 -1.186283 0.017227
v -0.085855 -1.245345 0.020834
v -0.085855 -1.214010 0.033813
v -0.096867 -1.214010 0.028712
v -0.085855 -1.182676 0.020834
v -0.085855 -1.214010 0.033813
v -0.096867 -1.214010 0.028712
v -0.282337 -0.123556 -0.103970
v -0.316923 -0.065458 -0.111778
v -0.267187 -0.096630 -0.111778
v 0.282337 -0.123556 -0.103970
v 0.267187 -0.096630 -0.111778
v 0.316922 -0.065458 -0.111778
v -0.267187 -0.096630 -0.111778
v -0.219049 -0.138800 -0.103970
v -0.282337 -0.123556 -0.103970
v -0.343810 -0.078927 -0.103970
v -0.316923 -0.065458 -0.111778
v 0.267187 -0.096630 -0.111778
v 0.282337 -0.123556 -0.103970
v 0.219049 -0.138800 -0.103970
v 0.316922 -0.065458 -0.111778
v 0.343810 -0.078927 -0.103970
v -0.219049 -0.138800 -0.103970
v -0.267187 -0.096630 -0.111778
v -0.215956 -0.107998 -0.111778
v 0.215956 -0.107998 -0.111778
v 0.267187 -0.096630 -0.111778
v 0.219049 -0.138800 -0.103970
v 0.000000 -0.079847 0.058929
v -0.212992 -0.078485 0.058929
v 0.000000 -0.141373 0.058929
v -0.219049 -0.138800 0.058929
v 0.212993 -0.078485 0.058929
v 0.000000 -0.141373 0.058929
v 0.219049 -0.138800 0.058929
v 0.000000 -0.079847 0.058929
v -0.215956 -0.107998 -0.111778
v 0.000000 -0.110443 -0.111778
v 0.000000 -0.141373 -0.103970
v -0.219049 -0.138800 -0.103970
v 0.215956 -0.107998 -0.111778
v 0.000000 -0.141373 -0.103970
v 0.000000 -0.110443 -0.111778
v 0.219049 -0.138800 -0.103970
v -0.422404 0.423753 0.024996
v -0.432045 0.463031 0.024996
v -0.402587 0.462231 0.017189
v -0.402587 0.462231 0.017189
v -0.392953 0.422952 0.017189
v -0.422404 0.423753 0.024996
v 0.432045 0.463031 0.024996
v 0.422405 0.423753 0.024996
v 0.402587 0.462231 0.017189
v 0.402587 0.462231 0.017189
v 0.422405 0.423753 0.024996
v 0.392951 0.422952 0.017189
v -0.252613 -0.070726 0.058929
v -0.282337 -0.123556 0.058929
v -0.219049 -0.138800 0.058929
v -0.212992 -0.078485 0.058929
v -0.289612 -0.051776 0.058929
v -0.343810 -0.078927 0.058929
v 0.000000 -0.070726 0.058929
v 0.000000 -0.079847 0.058929
v 0.212993 -0.078485 0.058929
v 0.000000 -0.051776 0.058929
v 0.252613 -0.070726 0.058929
v 0.219049 -0.138800 0.058929
v 0.282337 -0.123556 0.058929
v 0.289613 -0.051776 0.058929
v 0.343810 -0.078927 0.058929
v 0.000000 -0.006390 0.058929
v 0.316363 -0.006390 0.058929
v 0.376957 -0.004743 0.058929
v -0.316363 -0.006390 0.058929
v -0.376958 -0.004743 0.058929
v 0.000000 0.253304 0.111674
v -0.343906 0.253304 0.111674
v -0.404501 0.254952 0.111674
v -0.361808 0.422106 0.111726
v -0.422404 0.423753 0.111674
v -0.371449 0.512999 0.111674
v -0.432045 0.514646 0.111674
v 0.000000 0.422106 0.111674
v 0.343906 0.253304 0.111674
v 0.361808 0.422106 0.111726
v 0.404501 0.254952 0.111674
v 0.422405 0.423753 0.111674
v 0.371449 0.512999 0.111674
v 0.432045 0.514646 0.111674
v -0.289612 -0.051776 0.024087
v 0.000000 -0.051776 0.024087
v -0.252613 -0.070726 0.024087
v 0.000000 -0.070726 0.024087
v -0.212992 -0.078485 0.024087
v 0.000000 -0.079847 0.024087
v 0.212993 -0.078485 0.024087
v 0.252613 -0.070726 0.024087
v 0.289613 -0.051776 0.024087
v 0.000000 -0.006390 0.024087
v -0.316363 -0.006390 0.024087
v 0.316363 -0.006390 0.024087
v 0.000000 0.253304 0.076832
v -0.343906 0.253304 0.076832
v 0.343906 0.253304 0.076832
v 0.000000 0.422106 0.076832
v -0.361808 0.422106 0.076884
v 0.361808 0.422106 0.076884
v -0.041990 -0.813505 0.031490
v -0.041990 -1.045178 0.031490
v 0.000000 -1.045178 0.048882
v 0.000000 -0.813505 0.048882
v -0.059383 -0.813505 -0.010501
v -0.059383 -1.045178 -0.010501
v -0.041990 -0.813505 -0.052491
v -0.041990 -1.045178 -0.052491
v 0.000000 -0.813505 -0.069884
v 0.000000 -1.045178 -0.069884
v 0.041990 -0.813505 -0.052491
v 0.041990 -1.045178 -0.052491
v 0.059383 -0.813505 -0.010501
v 0.059383 -1.045178 -0.010501
v 0.041990 -0.813505 0.031490
v 0.041990 -1.045178 0.031490
v 0.000000 -0.813505 0.048882
v 0.000000 -1.045178 0.048882
v -0.048793 -0.266669 0.038293
v -0.048793 -0.466484 0.038293
v 0.000000 -0.466484 0.058504
v 0.000000 -0.266669 0.058504
v -0.069004 -0.266669 -0.010501
v -0.069004 -0.466484 -0.010501
v -0.048793 -0.266669 -0.059294
v -0.048793 -0.466484 -0.059294
v 0.000000 -0.266669 -0.079505
v 0.000000 -0.466484 -0.079505
v 0.048794 -0.266669 -0.059294
v 0.048794 -0.466484 -0.059294
v 0.069005 -0.266669 -0.010501
v 0.069005 -0.466484 -0.010501
v 0.048794 -0.266669 0.038293
v 0.048794 -0.466484 0.038293
v 0.000000 -0.266669 0.058504
v 0.000000 -0.466484 0.058504
v -0.375059 0.254151 -0.001201
v -0.392953 0.422952 0.017189
v -0.361808 0.422106 0.024996
v -0.343906 0.253304 0.006607
v 0.392951 0.422952 0.017189
v 0.375059 0.254151 -0.001201
v 0.361808 0.422106 0.024996
v 0.343906 0.253304 0.006607
v -0.392953 0.422952 0.017189
v -0.402587 0.462231 0.017189
v -0.371449 0.461384 0.024996
v -0.361808 0.422106 0.024996
v 0.402587 0.462231 0.017189
v 0.392951 0.422952 0.017189
v 0.371449 0.461384 0.024996
v 0.361808 0.422106 0.024996
v 0.000000 0.462934 0.076935
v -0.361808 0.422106 0.076884
v -0.371449 0.463626 0.076884
v 0.000000 0.422106 0.076935
v 0.361808 0.422106 0.076884
v 0.371449 0.463626 0.076884
v -0.316363 -0.006390 -0.085268
v -0.289612 -0.051776 0.024087
v -0.289612 -0.051776 -0.103970
v -0.316363 -0.006390 0.024087
v 0.289613 -0.051776 -0.103970
v 0.289613 -0.051776 0.024087
v 0.316363 -0.006390 -0.085268
v 0.316363 -0.006390 0.024087
v 0.343810 -0.078927 -0.103970
v 0.343810 -0.078927 0.058929
v 0.282337 -0.123556 -0.103970
v 0.282337 -0.123556 0.058929
v 0.219049 -0.138800 -0.103970
v 0.219049 -0.138800 0.058929
v 0.069120 -0.209696 -0.010501
v 0.048875 -0.209696 0.038374
v 0.037948 -0.223413 0.027447
v 0.000000 -0.209696 0.058619
v 0.000000 -0.223413 0.043165
v 0.053666 -0.223413 -0.010501
v 0.048875 -0.209696 -0.059375
v 0.037948 -0.223413 -0.048448
v 0.000000 -0.209696 -0.079620
v 0.000000 -0.223413 -0.064166
v -0.048874 -0.209696 -0.059375
v -0.037947 -0.223413 -0.048448
v -0.053665 -0.223413 -0.010501
v -0.069119 -0.209696 -0.010501
v -0.037947 -0.223413 0.027447
v -0.048874 -0.209696 0.038374
v 0.000000 -0.223413 0.043165
v 0.000000 -0.209696 0.058619
v -0.371449 0.461384 0.024996
v -0.361808 0.422106 0.076884
v -0.361808 0.422106 0.024996
v -0.371449 0.463626 0.076884
v 0.371449 0.461384 0.024996
v 0.361808 0.422106 0.024996
v 0.361808 0.422106 0.076884
v 0.371449 0.463626 0.076884
v -0.343810 -0.078927 0.058929
v -0.343810 -0.078927 -0.103970
v -0.282337 -0.123556 -0.103970
v -0.282337 -0.123556 0.058929
v -0.219049 -0.138800 -0.103970
v -0.219049 -0.138800 0.058929
v 0.000000 -0.141373 0.058929
v 0.000000 -0.141373 -0.103970
v 0.219049 -0.138800 -0.103970
v 0.000000 -0.141373 0.058929
v 0.000000 -0.141373 -0.103970
v 0.219049 -0.138800 0.058929
v -0.343906 0.253304 0.006607
v -0.316363 -0.006390 0.024087
v -0.316363 -0.006390 -0.085268
v -0.343906 0.253304 0.076832
v -0.361808 0.422106 0.024996
v -0.361808 0.422106 0.076884
v 0.343906 0.253304 0.006607
v 0.316363 -0.006390 -0.085268
v 0.316363 -0.006390 0.024087
v 0.343906 0.253304 0.076832
v 0.361808 0.422106 0.024996
v 0.361808 0.422106 0.076884
v 0.000000 -0.079847 0.024087
v -0.212992 -0.078485 0.058929
v -0.212992 -0.078485 0.024087
v 0.000000 -0.079847 0.058929
v 0.212993 -0.078485 0.058929
v 0.212993 -0.078485 0.024087
v -0.371449 0.512999 0.111674
v -0.371449 0.463626 0.076884
v -0.371449 0.461384 0.024996
v 0.371449 0.512999 0.111674
v 0.371449 0.461384 0.024996
v 0.371449 0.463626 0.076884
v -0.031956 -0.800024 -0.042456
v 0.031956 -0.800024 -0.042456
v 0.000000 -0.800024 -0.055693
v -0.045192 -0.800024 -0.010501
v 0.031956 -0.800024 0.021455
v 0.045193 -0.800024 -0.010501
v -0.031956 -0.800024 0.021455
v 0.000000 -0.800024 0.034692
v -0.059383 -0.813505 -0.010501
v -0.041990 -0.813505 0.031490
v -0.031956 -0.800024 0.021455
v 0.000000 -0.800024 0.034692
v 0.000000 -0.813505 0.048882
v -0.045192 -0.800024 -0.010501
v -0.031956 -0.800024 -0.042456
v -0.041990 -0.813505 -0.052491
v 0.000000 -0.800024 -0.055693
v 0.000000 -0.813505 -0.069884
v 0.041990 -0.813505 -0.052491
v 0.031956 -0.800024 -0.042456
v 0.059383 -0.813505 -0.010501
v 0.045193 -0.800024 -0.010501
v 0.031956 -0.800024 0.021455
v 0.041990 -0.813505 0.031490
v 0.000000 -0.800024 0.034692
v 0.000000 -0.813505 0.048882
v -0.044618 -1.178276 -0.046235
v -0.044618 -1.214010 -0.061037
v -0.085855 -1.182676 -0.041835
v -0.085855 -1.214010 -0.054814
v 0.000000 -1.178276 -0.046235
v 0.044619 -1.214010 -0.061037
v 0.044619 -1.178276 -0.046235
v 0.085856 -1.182676 -0.041835
v 0.085856 -1.214010 -0.054814
v -0.044618 -1.178276 -0.046235
v -0.044618 -1.163474 -0.010501
v -0.085855 -1.182676 -0.041835
v -0.085855 -1.169697 -0.010501
v 0.000000 -1.163474 -0.010501
v 0.044619 -1.178276 -0.046235
v 0.044619 -1.163474 -0.010501
v 0.085856 -1.182676 -0.041835
v 0.085856 -1.169697 -0.010501
v -0.044618 -1.163474 -0.010501
v -0.044618 -1.178276 0.025234
v -0.085855 -1.182676 0.020834
v -0.085855 -1.169697 -0.010501
v 0.000000 -1.178276 0.025234
v 0.044619 -1.163474 -0.010501
v 0.044619 -1.178276 0.025234
v 0.085856 -1.182676 0.020834
v 0.085856 -1.169697 -0.010501
v -0.044618 -1.214010 0.040035
v -0.044618 -1.178276 0.025234
v -0.085855 -1.182676 0.020834
v -0.085855 -1.214010 0.033813
v 0.000000 -1.214010 0.040035
v 0.044619 -1.178276 0.025234
v 0.044619 -1.214010 0.040035
v 0.085856 -1.182676 0.020834
v 0.085856 -1.214010 0.033813
vn 0.0239 0.8687 -0.4947
vn 0.0239 0.8688 -0.4947
vn 0.0240 0.8687 -0.4947
vn -0.0239 0.8688 -0.4947
vn -0.0239 0.8687 -0.4947
vn -0.0240 0.8688 -0.4947
vn -0.0240 0.8687 -0.4947
vn 0.0005 1.0000 0.0005
vn 0.0002 -1.0000 0.0002
vn 0.0005 -1.0000 0.0005
vn -0.7778 -0.6285 -0.0000
vn -0.5500 -0.6285 0.5500
vn 0.0005 -0.6284 0.7779
vn 0.0004 -0.6284 0.7779
vn -0.5500 -0.6285 -0.5500
vn -0.0000 -0.6285 -0.7778
vn 0.5499 -0.6287 -0.5498
vn 0.5500 -0.6285 -0.5500
vn 0.7779 -0.6284 0.0005
vn 0.7778 -0.6285 -0.0000
vn 0.5500 -0.6285 0.5500
vn 0.0005 -0.6285 0.7778
vn 0.0006 -0.6284 0.7779
vn -0.0738 -0.7052 -0.7052
vn -0.0738 -0.9973 0.0004
vn -0.1490 -0.6992 -0.6992
vn -0.1490 -0.9888 0.0005
vn 0.0005 -0.7071 -0.7071
vn 0.0738 -0.9973 0.0005
vn 0.0738 -0.7052 -0.7051
vn 0.1490 -0.6992 -0.6992
vn 0.1489 -0.9888 0.0005
vn -0.0738 0.0005 -0.9973
vn -0.1489 0.0003 -0.9889
vn 0.0005 0.0003 -1.0000
vn 0.0738 -0.7052 -0.7052
vn 0.0738 0.0004 -0.9973
vn 0.1490 -0.6992 -0.6993
vn 0.1489 0.0003 -0.9888
vn -0.1490 -0.6992 0.6992
vn -0.0738 -0.7051 0.7052
vn -0.0738 0.0005 0.9973
vn -0.1490 0.0004 0.9888
vn 0.0005 0.0005 1.0000
vn 0.0005 -0.7071 0.7071
vn 0.0738 0.0005 0.9973
vn 0.0738 -0.7052 0.7052
vn 0.1490 -0.6992 0.6992
vn 0.1489 0.0004 0.9888
vn -0.0738 -0.9973 0.0005
vn -0.0738 -0.7052 0.7052
vn -0.1489 -0.9888 0.0005
vn 0.0738 -0.7052 0.7051
vn 0.1490 -0.9888 0.0005
vn 0.0005 0.5742 -0.8187
vn 0.0005 0.5743 -0.8187
vn 0.0005 0.5744 -0.8186
vn -0.0005 0.5744 -0.8186
vn -0.0005 0.5743 -0.8187
vn -0.9918 -0.1255 0.0220
vn -0.9883 -0.1461 0.0435
vn -0.9919 -0.1256 0.0210
vn -0.9883 -0.1460 0.0435
vn -0.9919 -0.1255 0.0210
vn -0.9945 -0.1051 0.0003
vn -0.9945 -0.1049 0.0006
vn -0.9944 -0.1053 0.0003
vn -0.9681 -0.2507 0.0005
vn -0.9944 -0.1055 -0.0000
vn -0.9575 -0.2885 0.0005
vn 0.9883 -0.1461 0.0435
vn 0.9918 -0.1255 0.0220
vn 0.9919 -0.1255 0.0210
vn 0.9944 -0.1053 0.0003
vn 0.9945 -0.1051 0.0003
vn 0.9681 -0.2507 0.0005
vn 0.9575 -0.2885 0.0005
vn -0.1001 0.9950 0.0005
vn -0.1001 0.9950 -0.0000
vn 0.1002 0.9950 0.0005
vn 0.3269 0.9451 0.0003
vn 0.3270 0.9450 0.0003
vn 0.6597 0.7515 0.0005
vn 0.6862 0.7274 -0.0000
vn -0.2585 0.2360 -0.9367
vn -0.2477 0.1784 -0.9523
vn -0.0015 0.2263 -0.9741
vn -0.0622 0.2829 -0.9571
vn -0.2369 -0.0161 -0.9714
vn -0.0621 0.2828 -0.9572
vn -0.0640 0.1001 -0.9929
vn 0.0621 0.2829 -0.9571
vn 0.2369 -0.0161 -0.9714
vn 0.0640 0.1001 -0.9929
vn 0.0016 0.2263 -0.9741
vn 0.2585 0.2360 -0.9367
vn 0.0622 0.2829 -0.9571
vn -0.0052 0.0582 -0.9983
vn 0.2477 0.1783 -0.9523
vn 0.2477 0.1784 -0.9523
vn 0.0015 0.2263 -0.9741
vn 0.2564 -0.0015 -0.9666
vn -0.0053 0.0581 -0.9983
vn -0.2585 0.2360 -0.9368
vn -0.0621 0.2829 -0.9571
vn -0.3269 0.9451 0.0004
vn -0.3268 0.9451 0.0004
vn -0.6597 0.7515 -0.0000
vn -0.6863 0.7273 0.0005
vn -0.1002 0.9950 -0.0000
vn -0.1002 0.9950 0.0005
vn 0.6719 0.3437 -0.6560
vn 0.9968 0.0787 -0.0166
vn 0.6895 0.1722 -0.7035
vn 0.9948 0.1008 -0.0154
vn 0.6920 0.1460 -0.7070
vn 0.6522 0.0972 0.7518
vn 0.0004 0.1645 -0.9864
vn 0.7652 0.0474 0.6421
vn 0.0005 0.1099 0.9939
vn -0.7651 0.0474 0.6421
vn -0.6522 0.0972 0.7518
vn 0.9751 0.2214 0.0118
vn 0.9124 0.1568 0.3780
vn 0.9131 0.4050 0.0464
vn 0.8737 0.3249 0.3620
vn 0.6309 0.5068 -0.5875
vn 0.0004 0.3923 -0.9199
vn -0.0000 0.5456 -0.8380
vn -0.6309 0.5068 -0.5875
vn 0.0003 0.2077 -0.9782
vn -0.6719 0.3437 -0.6560
vn -0.6892 0.1724 -0.7038
vn -0.6920 0.1460 -0.7070
vn -0.9948 0.1011 -0.0152
vn -0.9968 0.0786 -0.0163
vn -0.9752 0.2212 0.0122
vn -0.9125 0.1568 0.3779
vn -0.9131 0.4050 0.0464
vn -0.8737 0.3249 0.3620
vn -0.9574 -0.2886 0.0005
vn -0.7767 -0.6299 0.0005
vn -0.7633 -0.6460 0.0005
vn 0.9574 -0.2886 0.0005
vn 0.7767 -0.6299 0.0005
vn 0.7633 -0.6460 0.0005
vn -0.0640 0.1002 -0.9929
vn -0.0620 0.2829 -0.9571
vn 0.1890 0.3785 -0.9061
vn 0.1432 0.3074 -0.9407
vn 0.0620 0.2829 -0.9571
vn -0.1890 0.3785 -0.9061
vn -0.1432 0.3074 -0.9407
vn 0.0005 0.0016 -1.0000
vn 0.0279 0.2536 -0.9669
vn 0.0005 0.2516 -0.9678
vn -0.0034 -0.0121 -0.9999
vn 0.0034 -0.0121 -0.9999
vn -0.0279 0.2536 -0.9669
vn 0.0904 0.2467 -0.9649
vn -0.0904 0.2467 -0.9649
vn -0.0034 -0.0122 -0.9999
vn -0.0112 -0.0189 -0.9998
vn 0.0112 -0.0189 -0.9998
vn -0.2477 0.1783 -0.9523
vn -0.2564 -0.0015 -0.9666
vn 0.0052 0.0582 -0.9983
vn -0.0015 0.2262 -0.9741
vn -0.0112 -0.0190 -0.9998
vn -0.0639 0.1001 -0.9929
vn 0.0112 -0.0190 -0.9998
vn 0.0639 0.1002 -0.9929
vn -0.0620 0.2830 -0.9571
vn -0.0013 0.2263 -0.9741
vn 0.2419 0.2449 -0.9389
vn 0.1890 0.3786 -0.9061
vn 0.0013 0.2263 -0.9741
vn -0.2419 0.2449 -0.9389
vn -0.4100 0.8147 -0.4100
vn 0.0005 0.8146 -0.5801
vn -0.0000 0.8147 -0.5798
vn 0.4100 0.8147 -0.4100
vn -0.5799 0.8147 0.0003
vn 0.5800 0.8146 0.0004
vn -0.5800 0.8146 0.0003
vn 0.5798 0.8147 -0.0000
vn -0.4100 0.8147 0.4100
vn 0.4100 0.8147 0.4100
vn 0.0003 0.8146 0.5800
vn 0.0006 0.8146 0.5801
vn 0.0007 0.8146 0.5800
vn -0.0005 -0.0005 1.0000
vn 0.0002 -0.0003 1.0000
vn -0.0000 -0.0006 1.0000
vn 0.0005 -0.0005 1.0000
vn 0.0003 -0.0005 1.0000
vn 0.0005 -0.4529 -0.8916
vn -0.6305 -0.4528 -0.6305
vn -0.8916 -0.4529 0.0004
vn 0.0005 -0.4528 -0.8916
vn -0.8916 -0.4528 0.0005
vn 0.6305 -0.4528 -0.6305
vn -0.6305 -0.4527 0.6305
vn 0.6305 -0.4527 -0.6305
vn -0.6305 -0.4526 0.6305
vn 0.0004 -0.4529 0.8916
vn 0.8916 -0.4529 0.0004
vn 0.8915 -0.4530 0.0003
vn 0.6305 -0.4527 0.6305
vn 0.0005 -0.4529 0.8916
vn -1.0000 0.0005 0.0005
vn 1.0000 0.0005 0.0005
vn 1.0000 0.0005 0.0004
vn 1.0000 0.0004 0.0004
vn 0.4207 -0.9072 0.0005
vn 0.4208 -0.6415 0.6415
vn 0.4206 0.0005 0.9072
vn 0.4207 0.0005 0.9072
vn 0.4207 -0.9072 0.0006
vn 0.4207 -0.6415 -0.6415
vn 0.4207 0.0005 -0.9072
vn 0.4204 0.6416 -0.6416
vn 0.4206 0.9072 0.0004
vn 0.4206 0.9073 0.0004
vn 0.4209 0.6414 0.6415
vn 0.4207 0.6415 0.6415
vn -0.4208 -0.6415 -0.6415
vn -0.4206 0.0004 -0.9073
vn -0.4203 0.6416 -0.6416
vn -0.4206 -0.6415 -0.6415
vn -0.4206 -0.9073 0.0004
vn -0.4206 0.9073 0.0004
vn -0.4207 -0.9072 0.0006
vn -0.4205 0.9073 0.0003
vn -0.4203 -0.6416 0.6416
vn -0.4203 0.6416 0.6416
vn -0.4208 -0.6415 0.6415
vn -0.4206 0.0005 0.9072
vn -0.4206 0.0006 0.9072
vn -0.1050 -0.2310 -0.9673
vn -0.0113 -0.0191 -0.9998
vn 0.1050 -0.2310 -0.9673
vn 0.0113 -0.0191 -0.9998
vn -0.0289 -0.2449 -0.9691
vn -0.1050 -0.2309 -0.9673
vn -0.2369 -0.0162 -0.9714
vn 0.0112 -0.0192 -0.9998
vn 0.0289 -0.2448 -0.9691
vn 0.2369 -0.0162 -0.9714
vn -0.0289 -0.2448 -0.9691
vn -0.0112 -0.0192 -0.9998
vn 0.0034 -0.0122 -0.9999
vn 0.0005 0.0014 -1.0000
vn 0.0005 -0.2447 -0.9696
vn -0.0288 -0.2448 -0.9691
vn 0.0288 -0.2448 -0.9691
vn -0.2573 -0.0631 -0.9643
vn -0.0494 -0.0122 -0.9987
vn 0.0053 0.0581 -0.9983
vn 0.2573 -0.0631 -0.9643
vn 0.0494 -0.0122 -0.9987
vn 0.0495 -0.0122 -0.9987
vn -0.0054 0.0581 -0.9983
vn 0.0002 0.0002 1.0000
vn -0.0000 -0.1000 0.9950
vn 0.0013 -0.0993 0.9951
vn 0.0033 -0.1208 0.9927
vn -0.0013 -0.0993 0.9951
vn -0.0033 -0.1208 0.9927
vn -0.0015 -0.1012 0.9949
vn -0.0026 -0.0921 0.9958
vn -0.0005 0.0005 1.0000
vn -0.0007 0.0001 1.0000
vn 0.0015 -0.1012 0.9949
vn 0.0026 -0.0921 0.9958
vn 0.0007 0.0001 1.0000
vn 0.0005 0.0005 -1.0000
vn 0.0002 0.0002 -1.0000
vn -0.0000 0.1000 -0.9950
vn -0.0000 0.1234 -0.9924
vn 0.0004 0.0933 -0.9956
vn 0.0004 0.0934 -0.9956
vn 0.0002 0.0003 -1.0000
vn -0.0001 0.0003 -1.0000
vn 0.0001 0.0003 -1.0000
vn -0.7071 -0.0000 0.7071
vn -0.7071 -0.0000 -0.7071
vn -0.7071 0.0003 -0.7071
vn 0.7071 0.0003 -0.7071
vn 0.7071 0.0005 -0.7071
vn 0.7071 -0.0000 0.7071
vn 0.0004 0.0005 1.0000
vn 0.7071 -0.0000 -0.7071
vn 0.7071 0.0003 0.7071
vn -0.0014 0.2263 -0.9741
vn 0.0054 0.0582 -0.9983
vn 0.2447 0.0992 -0.9645
vn -0.0054 0.0582 -0.9983
vn 0.0014 0.2263 -0.9741
vn -0.2447 0.0992 -0.9645
vn 0.0055 0.0582 -0.9983
vn -0.0493 -0.0122 -0.9987
vn 0.2446 0.0600 -0.9678
vn 0.2447 0.0991 -0.9645
vn 0.0493 -0.0122 -0.9987
vn -0.2443 0.0599 -0.9679
vn -0.2447 0.0991 -0.9645
vn 0.0004 0.0005 -1.0000
vn -0.0005 0.0005 -1.0000
vn -0.0004 0.0005 -1.0000
vn 0.9336 0.3582 0.0005
vn 0.6864 0.7273 0.0005
vn 0.9534 0.3017 -0.0000
vn -0.6597 0.7515 0.0005
vn -0.6863 0.7273 -0.0000
vn -0.9337 0.3581 0.0005
vn -0.9534 0.3016 0.0005
vn 0.7632 -0.6461 0.0005
vn 0.7766 -0.6300 0.0005
vn 0.4188 -0.9081 -0.0000
vn 0.1236 -0.9923 0.0005
vn 0.6638 -0.7479 -0.0000
vn 0.4694 -0.7479 0.4694
vn 0.0005 -0.7479 0.6638
vn 0.0005 -0.7478 0.6639
vn 0.4694 -0.7479 -0.4694
vn 0.0005 -0.7479 -0.6638
vn -0.0000 -0.7479 -0.6638
vn -0.4694 -0.7479 -0.4694
vn -0.6638 -0.7479 0.0005
vn -0.6638 -0.7479 0.0003
vn -0.4694 -0.7479 0.4694
vn 0.0004 -0.7479 0.6638
vn 0.0004 -0.7479 0.6639
vn 0.9840 0.1783 -0.0034
vn 0.9855 0.1696 -0.0024
vn 0.9860 0.1666 -0.0024
vn 0.9954 0.0953 -0.0024
vn -0.9840 0.1783 -0.0034
vn -0.9860 0.1666 -0.0024
vn -0.9855 0.1696 -0.0024
vn -0.9954 0.0953 -0.0024
vn -0.7766 -0.6300 0.0005
vn -0.7632 -0.6461 0.0005
vn -0.4188 -0.9081 -0.0000
vn -0.1236 -0.9923 0.0006
vn -0.1237 -0.9923 -0.0000
vn 0.9944 0.1055 -0.0000
vn 0.9535 0.3014 0.0005
vn 0.9337 0.3580 0.0005
vn 0.9944 0.1052 0.0002
vn 0.9860 0.1665 -0.0024
vn 0.9855 0.1695 -0.0024
vn -0.9944 0.1055 -0.0000
vn -0.9337 0.3580 0.0005
vn -0.9535 0.3014 0.0005
vn -0.9944 0.1052 0.0002
vn -0.9860 0.1665 -0.0024
vn -0.9855 0.1695 -0.0024
vn -0.0064 -1.0000 0.0003
vn -0.0063 -1.0000 0.0007
vn 0.0064 -1.0000 0.0003
vn 0.9840 0.1782 -0.0034
vn -0.9840 0.1782 -0.0034
vn -0.6883 0.7254 0.0004
vn -0.4870 0.7250 0.4870
vn 0.0003 0.7254 0.6883
vn -0.4870 0.7250 -0.4870
vn 0.0003 0.7253 -0.6884
vn 0.4870 0.7250 -0.4870
vn 0.6884 0.7253 0.0003
vn 0.6883 0.7254 0.0004
vn 0.4870 0.7250 0.4870
vn 0.0005 0.7254 0.6883
vn -0.0738 0.7052 -0.7052
vn -0.1490 0.6992 -0.6992
vn -0.1489 0.0005 -0.9888
vn 0.0005 0.7071 -0.7071
vn 0.0738 0.0005 -0.9973
vn 0.0738 0.7052 -0.7052
vn 0.1490 0.6992 -0.6992
vn 0.1489 0.0005 -0.9889
vn -0.0738 0.9973 0.0003
vn -0.1489 0.9889 0.0005
vn 0.0738 0.7052 -0.7051
vn 0.0738 0.9973 0.0005
vn 0.1489 0.9888 0.0005
vn -0.0738 0.9973 0.0006
vn -0.0738 0.7052 0.7052
vn -0.1490 0.6993 0.6992
vn -0.1489 0.9888 0.0005
vn 0.0005 0.7071 0.7071
vn 0.0738 0.7052 0.7052
vn 0.1490 0.6993 0.6992
vn 0.1489 0.9889 0.0005
vn -0.0738 0.7051 0.7052
vn -0.1490 0.6992 0.6993
vn -0.1489 0.0005 0.9888
vn 0.0005 0.0006 1.0000
vn 0.1490 0.6992 0.6992
vn 0.1490 0.0005 0.9888
vt 0.375000 0.669052
vt 0.375000 0.500000
vt 0.467365 0.750000
vt 0.625000 0.500000
vt 0.625000 0.669052
vt 0.125000 1.000000
vt 0.875000 1.000000
vt 1.000000 1.000000
vt 0.625000 1.000000
vt 0.750000 1.000000
vt 0.375000 1.000000
vt 0.500000 1.000000
vt 0.250000 1.000000
vt 0.919706 0.080294
vt 0.919706 0.419706
vt 0.990000 0.250000
vt 0.750000 0.490000
vt 0.510000 0.250000
vt 0.580294 0.419706
vt 0.580294 0.080294
vt 0.750000 0.010000
vt 0.750000 0.500000
vt 0.875000 0.500000
vt 1.000000 0.500000
vt 0.500000 0.500000
vt 0.250000 0.500000
vt 0.125000 0.500000
vt 0.000000 0.500000
vt 0.625000 0.875000
vt 0.750000 0.750000
vt 0.750000 0.875000
vt 0.625000 0.750000
vt 0.750000 0.625000
vt 0.625000 0.625000
vt 0.500000 0.875000
vt 0.500000 0.750000
vt 0.500000 0.625000
vt 0.875000 0.875000
vt 1.000000 0.875000
vt 1.000000 0.750000
vt 0.875000 0.750000
vt 1.000000 0.625000
vt 0.875000 0.625000
vt 0.625000 0.584526
vt 0.750000 0.669052
vt 0.750000 0.584526
vt 0.467579 0.750000
vt 0.467793 0.750000
vt 0.459802 0.750000
vt 0.467440 0.750000
vt 0.000000 1.000000
vt 0.538244 0.750000
vt 0.525003 0.750000
vt 0.554771 0.875000
vt 0.554924 0.750000
vt 0.552912 0.750000
vt 0.525356 0.750000
vt 0.490000 0.250000
vt 0.010000 0.250000
vt 0.250000 0.010000
vt 0.080294 0.080294
vt 0.419706 0.080294
vt 0.250000 0.490000
vt 0.419706 0.419706
vt 0.080294 0.419706
vt 0.451929 0.750000
vt 0.450422 0.750000
vt 0.625000 0.375000
vt 0.375000 0.375000
vt 0.374079 0.750000
vt 0.250122 0.750000
vt 0.250000 0.669052
vt 0.525585 0.750000
vt 0.525708 0.750000
vt 0.375000 0.875000
vt 0.375000 0.750000
vt 0.375000 0.625000
vt 0.250000 0.875000
vt 0.250000 0.750000
vt 0.250000 0.625000
vt 0.125000 0.875000
vt 0.125000 0.750000
vt 0.125000 0.625000
vt 0.000000 0.875000
vt 0.000000 0.750000
vt 0.000000 0.625000
s 1
f 1/1/1 2/2/1 3/3/2
f 4/4/3 3/3/2 2/2/1
f 3/3/2 4/4/3 5/5/3
f 6/3/4 7/2/5 8/1/5
f 6/3/4 9/4/6 7/2/5
f 9/4/6 6/3/4 10/5/7
f 11/6/8 12/7/8 13/8/8
f 11/6/8 14/9/8 12/7/8
f 12/7/8 14/9/8 15/10/8
f 11/6/8 16/11/8 14/9/8
f 14/9/8 16/11/8 17/12/8
f 16/11/8 11/6/8 18/13/8
f 19/14/9 20/15/10 21/16/10
f 19/14/9 22/17/10 20/15/10
f 19/14/9 23/18/10 22/17/10
f 22/17/10 23/18/10 24/19/10
f 23/18/10 19/14/9 25/20/10
f 25/20/10 19/14/9 26/21/10
f 27/22/11 28/23/12 29/23/12
f 30/24/13 29/23/12 28/23/12
f 28/23/12 31/24/14 30/24/13
f 28/23/12 27/22/11 32/22/11
f 27/22/11 33/4/15 32/22/11
f 33/4/15 27/22/11 34/4/15
f 35/25/16 33/4/15 34/4/15
f 33/4/15 35/25/16 36/25/16
f 35/25/16 37/2/17 36/25/16
f 35/25/16 38/2/18 37/2/17
f 39/26/19 37/2/17 38/2/18
f 37/2/17 39/26/19 40/26/20
f 41/27/21 40/26/20 39/26/19
f 39/26/19 42/27/21 41/27/21
f 43/28/22 41/27/21 42/27/21
f 41/27/21 43/28/22 44/28/23
f 45/29/24 46/30/10 47/31/25
f 48/9/26 45/29/24 47/31/25
f 48/9/26 47/31/25 49/10/27
f 45/29/24 50/32/28 46/30/10
f 50/32/28 51/33/29 46/30/10
f 50/32/28 52/34/30 51/33/29
f 53/4/31 51/33/29 52/34/30
f 51/33/29 53/4/31 54/22/32
f 55/35/33 50/32/28 56/29/24
f 57/9/26 55/35/33 56/29/24
f 55/35/33 57/9/26 58/12/34
f 55/35/33 59/36/35 50/32/28
f 59/36/35 60/34/36 50/32/28
f 59/36/35 61/37/37 60/34/36
f 61/37/37 62/4/38 60/34/36
f 61/37/37 63/25/39 62/4/38
f 64/7/40 65/38/41 66/39/42
f 64/7/40 66/39/42 67/8/43
f 65/38/41 68/40/44 66/39/42
f 65/38/41 69/41/45 68/40/44
f 69/41/45 70/42/46 68/40/44
f 69/41/45 71/43/47 70/42/46
f 72/23/48 70/42/46 71/43/47
f 70/42/46 72/23/48 73/24/49
f 74/31/50 69/41/45 75/38/51
f 76/7/40 74/31/50 75/38/51
f 74/31/50 76/7/40 77/10/52
f 74/31/50 46/30/10 69/41/45
f 46/30/10 78/43/53 69/41/45
f 46/30/10 79/33/29 78/43/53
f 79/33/29 80/23/48 78/43/53
f 79/33/29 81/22/54 80/23/48
f 82/4/55 83/44/56 84/4/57
f 83/44/56 82/4/55 85/44/55
f 86/4/55 87/4/58 88/44/59
f 86/4/55 88/44/59 89/44/56
f 90/2/60 91/1/61 92/1/62
f 91/1/61 90/2/60 93/2/63
f 94/1/64 95/2/65 90/2/60
f 95/2/65 94/1/64 96/1/66
f 96/1/67 97/2/68 98/2/69
f 97/2/68 96/1/67 99/1/70
f 100/1/71 101/2/72 102/1/73
f 101/2/72 100/1/71 103/2/71
f 104/2/74 105/1/73 101/2/72
f 105/1/73 104/2/74 106/1/75
f 106/1/75 107/2/76 108/1/77
f 107/2/76 106/1/75 109/2/75
f 110/45/8 111/44/78 112/5/79
f 111/44/78 110/45/8 113/46/8
f 114/45/8 115/5/80 116/44/80
f 114/45/8 116/44/80 117/46/8
f 118/5/81 116/44/80 115/5/80
f 116/44/80 118/5/81 119/44/82
f 120/5/83 119/44/82 118/5/81
f 119/44/82 120/5/83 121/44/84
f 122/1/85 123/1/86 124/47/87
f 124/47/87 125/48/88 122/1/85
f 126/1/89 127/48/90 128/49/91
f 129/48/92 130/1/93 131/49/94
f 132/47/95 133/1/96 134/48/97
f 135/50/98 136/1/99 132/47/95
f 137/1/100 138/1/96 139/47/101
f 140/1/102 137/1/99 141/50/103
f 142/1/89 143/1/104 144/48/105
f 145/1/96 146/1/93 147/48/92
f 148/5/106 149/44/107 150/5/108
f 150/5/108 149/44/107 151/44/109
f 148/5/106 152/44/110 149/44/107
f 153/5/111 152/44/110 148/5/106
f 154/11/112 155/13/113 156/11/114
f 157/13/115 156/11/114 155/13/113
f 156/11/114 157/13/115 158/11/116
f 155/13/113 159/6/117 157/13/115
f 160/12/118 156/11/114 158/11/116
f 159/6/117 155/13/113 161/6/119
f 159/6/117 161/6/119 162/51/120
f 162/51/120 161/6/119 163/12/120
f 164/7/121 162/51/120 163/12/120
f 162/51/120 164/7/121 165/7/122
f 166/13/123 161/6/119 155/13/113
f 166/13/123 155/13/113 154/11/112
f 167/6/124 161/6/119 166/13/123
f 168/13/125 167/6/124 166/13/123
f 167/6/124 168/13/125 169/6/126
f 166/13/123 170/11/127 168/13/125
f 170/11/127 166/13/123 154/11/112
f 171/12/128 170/11/127 154/11/112
f 170/11/127 171/12/128 172/12/129
f 172/12/129 171/12/128 173/9/130
f 154/11/112 174/12/131 171/12/128
f 174/12/131 154/11/112 156/11/114
f 156/11/114 160/12/118 174/12/131
f 171/12/128 174/12/131 175/9/132
f 171/12/128 175/9/132 173/9/130
f 174/12/131 160/12/118 176/9/133
f 174/12/131 176/9/133 175/9/132
f 176/9/133 160/12/118 177/9/134
f 178/10/135 176/9/133 177/9/134
f 176/9/133 178/10/135 179/10/136
f 179/10/136 175/9/132 176/9/133
f 165/7/122 179/10/136 178/10/135
f 179/10/136 165/7/122 164/7/121
f 175/9/132 179/10/136 180/10/137
f 164/7/121 180/10/137 179/10/136
f 180/10/137 173/9/130 175/9/132
f 180/10/137 164/7/121 181/7/138
f 173/9/130 180/10/137 182/10/139
f 181/7/138 182/10/139 180/10/137
f 182/10/139 181/7/138 183/7/140
f 184/1/141 185/2/142 186/2/68
f 185/2/142 184/1/141 187/1/143
f 188/1/144 189/2/145 190/1/146
f 189/2/145 188/1/144 191/2/76
f 192/52/147 193/53/148 194/5/149
f 192/52/147 194/5/149 195/5/150
f 196/53/151 197/52/94 198/5/152
f 198/5/152 197/52/94 199/5/153
f 200/54/154 201/32/155 202/29/156
f 201/32/155 200/54/154 203/55/157
f 204/55/158 205/54/154 206/32/159
f 207/29/156 206/32/159 205/54/154
f 208/5/160 209/5/155 210/55/157
f 211/5/161 212/55/158 213/5/159
f 214/55/162 215/56/163 216/5/160
f 217/55/158 218/5/161 219/56/164
f 220/1/165 221/1/166 222/50/167
f 223/50/167 224/47/168 225/1/165
f 226/5/160 227/56/169 228/5/150
f 227/56/169 229/52/170 228/5/150
f 230/5/161 231/5/153 232/56/171
f 233/52/172 232/56/171 231/5/153
f 234/53/173 235/57/174 236/5/175
f 237/5/175 238/5/176 239/53/148
f 240/57/177 241/53/151 242/5/178
f 243/5/178 244/53/151 245/5/152
f 246/9/179 247/12/180 248/12/181
f 249/11/182 248/12/181 247/12/180
f 247/12/180 246/9/179 250/9/179
f 248/12/181 249/11/182 251/11/182
f 246/9/179 252/10/183 250/9/179
f 253/13/184 251/11/182 249/11/182
f 246/9/179 254/10/185 252/10/183
f 251/11/182 253/13/184 255/13/186
f 254/10/185 256/7/187 252/10/183
f 257/6/188 255/13/186 253/13/184
f 254/10/185 258/7/187 256/7/187
f 258/7/187 259/8/189 256/7/187
f 259/8/189 258/7/187 260/8/189
f 255/13/186 257/6/188 261/6/188
f 262/51/190 261/6/188 257/6/188
f 257/6/188 263/51/191 262/51/190
f 264/16/10 265/18/10 266/17/10
f 266/17/10 265/18/10 267/19/10
f 264/16/10 266/17/10 268/15/10
f 265/18/10 264/16/10 269/21/10
f 269/21/10 264/16/10 270/14/10
f 265/18/10 269/21/10 271/20/10
f 272/4/192 273/4/193 274/4/194
f 273/4/193 272/4/192 275/4/195
f 276/4/195 273/4/193 275/4/195
f 273/4/193 276/4/195 277/4/196
f 278/25/197 279/4/198 280/4/198
f 279/4/198 281/22/199 280/4/198
f 279/4/198 278/25/197 282/25/200
f 281/22/199 279/4/198 283/22/201
f 278/25/197 284/2/202 282/25/200
f 285/23/203 281/22/199 283/22/201
f 286/2/204 284/2/202 278/25/197
f 281/22/199 285/23/203 287/23/205
f 288/24/206 287/23/205 285/23/203
f 285/23/203 289/24/206 288/24/206
f 290/26/207 284/2/202 286/2/204
f 284/2/202 290/26/207 291/26/208
f 291/26/208 290/26/207 292/27/209
f 290/26/207 293/27/209 292/27/209
f 294/28/210 292/27/209 293/27/209
f 292/27/209 294/28/210 295/28/210
f 296/58/211 297/59/211 298/60/211
f 298/60/211 297/59/211 299/61/211
f 296/58/211 298/60/211 300/62/211
f 297/59/211 296/58/211 301/63/211
f 301/63/211 296/58/211 302/64/211
f 297/59/211 301/63/211 303/65/211
f 304/16/212 305/18/212 306/17/212
f 306/17/212 305/18/212 307/19/212
f 304/16/212 306/17/212 308/15/213
f 305/18/212 304/16/212 309/21/212
f 309/21/212 304/16/212 310/14/214
f 305/18/212 309/21/212 311/20/212
f 312/22/215 313/23/216 314/23/216
f 313/23/216 315/24/217 314/23/216
f 315/24/217 313/23/216 316/24/218
f 313/23/216 312/22/215 317/22/219
f 312/22/215 318/4/220 317/22/219
f 318/4/220 312/22/215 319/4/220
f 320/25/221 318/4/220 319/4/220
f 318/4/220 320/25/221 321/25/221
f 320/25/221 322/2/222 321/25/221
f 322/2/222 320/25/221 323/2/222
f 324/26/223 322/2/222 323/2/222
f 322/2/222 324/26/223 325/26/224
f 326/27/225 325/26/224 324/26/223
f 324/26/223 327/27/226 326/27/225
f 328/28/217 326/27/225 327/27/226
f 326/27/225 328/28/217 329/28/217
f 330/9/227 331/12/228 332/12/228
f 333/11/229 332/12/228 331/12/228
f 332/12/228 334/9/230 330/9/227
f 332/12/228 333/11/229 335/11/229
f 336/10/231 330/9/227 334/9/230
f 333/11/229 337/13/232 335/11/229
f 330/9/227 336/10/231 338/10/233
f 337/13/232 333/11/229 339/13/234
f 340/7/235 338/10/233 336/10/231
f 341/6/236 337/13/232 339/13/234
f 336/10/231 342/7/237 340/7/235
f 343/8/238 340/7/235 342/7/237
f 340/7/235 343/8/238 344/8/238
f 337/13/232 341/6/236 345/6/236
f 346/51/239 345/6/236 341/6/236
f 341/6/236 347/51/239 346/51/239
f 348/1/240 349/49/91 350/66/241
f 351/1/242 352/66/243 353/49/94
f 354/66/241 355/1/244 356/1/240
f 356/1/245 357/1/246 358/49/91
f 359/66/247 360/1/242 361/1/248
f 360/1/242 362/49/94 363/1/249
f 364/1/250 365/66/251 366/67/162
f 367/67/252 368/66/247 369/1/248
f 370/68/44 371/4/44 372/69/44
f 373/2/44 372/69/44 371/4/44
f 374/4/44 375/69/44 376/2/44
f 375/69/44 374/4/44 377/68/44
f 378/70/162 379/71/253 380/72/254
f 378/70/162 380/72/254 381/1/255
f 382/70/252 383/72/254 384/71/253
f 383/72/254 382/70/252 385/1/256
f 386/1/166 387/1/257 388/3/258
f 389/3/258 390/50/259 391/1/166
f 392/1/260 393/1/102 394/3/261
f 395/3/262 396/1/102 397/50/263
f 398/4/264 399/2/44 400/2/44
f 400/2/44 401/4/44 398/4/264
f 402/4/264 399/2/44 398/4/264
f 399/2/44 402/4/264 403/2/44
f 404/4/264 398/4/264 401/4/44
f 401/4/44 405/4/44 404/4/264
f 406/4/44 404/4/264 405/4/44
f 407/4/264 398/4/264 404/4/264
f 398/4/264 407/4/264 402/4/264
f 408/4/264 404/4/264 406/4/44
f 408/4/264 407/4/264 404/4/264
f 409/2/44 408/4/264 406/4/44
f 408/4/264 409/2/44 410/2/44
f 410/2/44 411/4/264 408/4/264
f 407/4/264 408/4/264 411/4/264
f 411/4/264 410/2/44 412/2/44
f 413/4/265 402/4/264 407/4/264
f 411/4/264 413/4/265 407/4/264
f 414/4/266 411/4/264 412/2/44
f 413/4/265 411/4/264 414/4/266
f 412/2/44 415/2/267 414/4/266
f 402/4/264 413/4/265 416/4/268
f 416/4/268 403/2/44 402/4/264
f 403/2/44 416/4/268 417/2/269
f 418/4/265 416/4/268 413/4/265
f 414/4/266 418/4/265 413/4/265
f 416/4/268 419/4/270 417/2/269
f 416/4/268 418/4/265 419/4/270
f 417/2/269 419/4/270 420/2/271
f 419/4/270 421/4/272 420/2/271
f 420/2/271 421/4/272 422/2/273
f 421/4/272 423/4/272 422/2/273
f 422/2/273 423/4/272 424/2/272
f 419/4/270 425/4/193 421/4/272
f 425/4/193 419/4/270 418/4/265
f 426/4/274 425/4/193 418/4/265
f 418/4/265 414/4/266 426/4/274
f 426/4/274 414/4/266 415/2/267
f 425/4/193 426/4/274 427/4/44
f 415/2/267 428/2/275 426/4/274
f 427/4/44 426/4/274 428/2/275
f 428/2/275 429/2/276 427/4/44
f 430/4/44 427/4/44 429/2/276
f 429/2/276 431/2/44 430/4/44
f 432/44/277 433/44/278 434/44/277
f 434/44/277 433/44/278 435/44/278
f 434/44/277 435/44/278 436/44/277
f 436/44/277 435/44/278 437/44/277
f 435/44/278 438/44/277 437/44/277
f 435/44/278 439/44/277 438/44/277
f 433/44/278 439/44/277 435/44/278
f 433/44/278 440/44/277 439/44/277
f 432/44/277 441/44/279 433/44/278
f 441/44/279 440/44/277 433/44/278
f 442/44/280 441/44/279 432/44/277
f 441/44/279 443/44/280 440/44/277
f 442/44/280 444/44/279 441/44/279
f 444/44/279 443/44/280 441/44/279
f 444/44/279 442/44/280 445/44/281
f 444/44/279 446/44/282 443/44/280
f 445/44/281 447/44/283 444/44/279
f 447/44/283 446/44/282 444/44/279
f 447/44/283 445/44/281 448/44/284
f 447/44/283 449/44/285 446/44/282
f 450/7/286 451/23/286 452/24/44
f 452/24/44 453/8/44 450/7/286
f 454/10/211 451/23/286 450/7/286
f 454/10/211 455/22/211 451/23/286
f 456/9/287 455/22/211 454/10/211
f 456/9/287 457/4/288 455/22/211
f 458/12/277 457/4/288 456/9/287
f 457/4/288 458/12/277 459/25/277
f 460/11/289 459/25/277 458/12/277
f 459/25/277 460/11/289 461/2/290
f 461/2/290 460/11/289 462/13/212
f 461/2/290 462/13/212 463/26/212
f 463/26/212 462/13/212 464/6/291
f 463/26/212 464/6/291 465/27/291
f 465/27/291 464/6/291 466/51/44
f 466/51/44 467/28/44 465/27/291
f 468/7/286 469/23/286 470/24/292
f 470/24/292 471/8/292 468/7/286
f 472/10/211 469/23/286 468/7/286
f 472/10/211 473/22/211 469/23/286
f 474/9/287 473/22/211 472/10/211
f 474/9/287 475/4/288 473/22/211
f 476/12/277 475/4/288 474/9/287
f 475/4/288 476/12/277 477/25/277
f 478/11/293 477/25/277 476/12/277
f 477/25/277 478/11/293 479/2/293
f 480/13/212 479/2/293 478/11/293
f 479/2/293 480/13/212 481/26/212
f 482/6/291 481/26/212 480/13/212
f 481/26/212 482/6/291 483/27/294
f 483/27/294 482/6/291 484/51/44
f 484/51/44 485/28/44 483/27/294
f 486/57/295 487/73/296 488/5/297
f 488/5/297 489/5/175 486/57/295
f 490/73/298 491/57/299 492/5/300
f 492/5/300 491/57/299 493/5/178
f 494/73/301 495/74/302 496/5/303
f 496/5/303 497/5/304 494/73/301
f 498/74/305 499/73/298 500/5/306
f 500/5/306 499/73/298 501/5/307
f 502/44/277 503/44/277 504/44/308
f 503/44/277 502/44/277 505/44/277
f 502/44/277 506/44/309 505/44/277
f 502/44/277 507/44/310 506/44/309
f 508/5/311 509/44/312 510/5/83
f 509/44/312 508/5/311 511/44/313
f 512/5/314 513/44/315 514/5/316
f 514/5/316 513/44/315 515/44/317
f 516/1/318 517/2/319 518/1/320
f 518/1/320 517/2/319 519/2/320
f 518/1/320 519/2/320 520/1/321
f 520/1/321 519/2/320 521/2/321
f 522/13/322 523/6/323 524/6/323
f 525/51/324 524/6/323 523/6/323
f 524/6/323 525/51/324 526/51/325
f 522/13/322 524/6/323 527/13/322
f 527/13/322 528/11/326 522/13/322
f 528/11/326 527/13/322 529/11/326
f 530/12/327 528/11/326 529/11/326
f 530/12/327 529/11/326 531/12/328
f 532/9/329 530/12/327 531/12/328
f 532/9/329 531/12/328 533/9/329
f 534/10/330 532/9/329 533/9/329
f 532/9/329 534/10/330 535/10/331
f 536/7/332 535/10/331 534/10/330
f 535/10/331 536/7/332 537/7/332
f 538/8/333 537/7/332 536/7/332
f 537/7/332 538/8/333 539/8/334
f 540/5/335 541/44/336 542/5/337
f 541/44/336 540/5/335 543/44/338
f 544/5/339 545/5/340 546/44/341
f 544/5/339 546/44/341 547/44/342
f 548/2/343 549/1/344 550/1/345
f 550/1/345 551/2/345 548/2/343
f 551/2/345 550/1/345 552/1/346
f 552/1/346 553/2/347 551/2/345
f 552/1/346 554/26/10 553/2/347
f 552/1/346 555/72/10 554/26/10
f 556/1/321 557/26/10 558/72/10
f 557/26/10 556/1/321 559/2/321
f 560/5/348 561/44/349 562/5/350
f 561/44/349 560/5/348 563/44/351
f 564/5/352 563/44/351 560/5/348
f 563/44/351 564/5/352 565/44/353
f 566/5/354 567/5/355 568/44/356
f 566/5/354 568/44/356 569/44/357
f 570/5/358 566/5/354 569/44/357
f 570/5/358 569/44/357 571/44/359
f 572/44/10 573/4/360 574/44/361
f 573/4/360 572/44/10 575/4/10
f 572/44/10 576/4/362 575/4/10
f 572/44/10 577/44/362 576/4/362
f 578/4/212 579/44/338 580/5/363
f 581/4/211 582/5/364 583/44/342
f 584/62/8 585/61/8 586/60/8
f 587/58/8 585/61/8 584/62/8
f 587/58/8 588/65/8 585/61/8
f 585/61/8 588/65/8 589/59/8
f 588/65/8 587/58/8 590/64/8
f 588/65/8 590/64/8 591/63/8
f 592/10/365 593/7/366 594/7/366
f 593/7/366 595/8/367 594/7/366
f 595/8/367 593/7/366 596/8/367
f 592/10/365 594/7/366 597/10/365
f 598/9/368 592/10/365 597/10/365
f 592/10/365 598/9/368 599/9/368
f 600/12/369 599/9/368 598/9/368
f 599/9/368 600/12/369 601/12/369
f 602/11/370 601/12/369 600/12/369
f 600/12/369 603/11/370 602/11/370
f 604/13/371 602/11/370 603/11/370
f 604/13/371 603/11/370 605/13/372
f 606/6/373 604/13/371 605/13/372
f 604/13/371 606/6/373 607/6/373
f 608/51/374 607/6/373 606/6/373
f 607/6/373 608/51/374 609/51/374
f 610/75/375 59/36/277 611/35/33
f 612/11/376 610/75/375 611/35/33
f 612/11/376 611/35/33 613/12/377
f 610/75/375 614/76/378 59/36/277
f 614/76/378 615/37/379 59/36/277
f 614/76/378 616/77/380 615/37/379
f 617/2/381 615/37/379 616/77/380
f 615/37/379 617/2/381 618/25/382
f 619/75/375 620/78/383 614/76/378
f 621/11/376 620/78/383 619/75/375
f 620/78/383 621/11/376 622/13/384
f 614/76/378 620/78/383 623/79/8
f 623/79/8 624/77/385 614/76/378
f 624/77/385 623/79/8 625/80/386
f 624/77/385 625/80/386 626/2/381
f 626/2/381 625/80/386 627/26/387
f 628/78/388 629/81/389 623/79/8
f 628/78/388 630/6/390 629/81/389
f 631/13/391 630/6/390 628/78/388
f 623/79/8 629/81/389 632/82/392
f 623/79/8 632/82/392 633/80/386
f 633/80/386 632/82/392 634/83/393
f 635/27/394 633/80/386 634/83/393
f 633/80/386 635/27/394 636/26/395
f 637/84/42 632/82/392 638/81/396
f 639/6/397 637/84/42 638/81/396
f 637/84/42 639/6/397 640/51/398
f 637/84/42 641/85/399 632/82/392
f 641/85/399 642/83/393 632/82/392
f 641/85/399 643/86/46 642/83/393
f 643/86/46 644/27/400 642/83/393
f 643/86/46 645/28/401 644/27/400
o RenderMesh_89945152098107
v -0.033325 -0.480178 -0.040822
v 0.033326 -0.480178 -0.040822
v 0.000000 -0.480178 -0.054626
v -0.033325 -0.480178 0.025829
v -0.047129 -0.480178 -0.007497
v 0.033326 -0.480178 0.025829
v 0.000000 -0.480178 0.039633
v 0.047130 -0.480178 -0.007497
v 0.000000 -1.245628 0.020423
v -0.118311 -1.211754 0.031988
v -0.128419 -1.237779 0.020423
v -0.153468 -1.181693 0.031988
v 0.000000 -1.257193 -0.007497
v 0.000000 -1.217709 0.031988
v -0.178808 -1.193414 0.020423
v -0.128127 -1.169972 0.020423
v -0.132606 -1.248559 -0.007497
v -0.189304 -1.198270 -0.007497
v -0.187283 -1.134321 0.020423
v -0.198823 -1.133565 -0.007497
v -0.159423 -1.136152 0.031988
v -0.149696 -1.059604 0.020423
v -0.131563 -1.137982 0.020423
v -0.178808 -1.193414 -0.035417
v -0.128419 -1.237779 -0.035417
v -0.187283 -1.134321 -0.035417
v -0.153468 -1.181693 -0.046982
v -0.149696 -1.059604 -0.035417
v -0.159423 -1.136152 -0.046982
v -0.118311 -1.211754 -0.046982
v -0.128127 -1.169972 -0.035417
v 0.000000 -1.245628 -0.035417
v -0.108204 -1.185728 -0.035417
v 0.000000 -1.217709 -0.046982
v -0.131563 -1.137982 -0.035417
v 0.118312 -1.211754 -0.046982
v 0.128420 -1.237779 -0.035417
v -0.117631 -1.165117 -0.007497
v 0.000000 -1.189790 -0.035417
v 0.108205 -1.185728 -0.035417
v -0.104017 -1.174947 -0.007497
v 0.000000 -1.178224 -0.007497
v 0.104018 -1.174947 -0.007497
v 0.000000 -1.189790 0.020423
v -0.108204 -1.185728 0.020423
v 0.108205 -1.185728 0.020423
v 0.118312 -1.211754 0.031988
v 0.117632 -1.165117 -0.007497
v 0.128128 -1.169972 0.020423
v 0.128420 -1.237779 0.020423
v 0.153468 -1.181693 0.031988
v 0.132607 -1.248559 -0.007497
v 0.178809 -1.193414 0.020423
v 0.189305 -1.198270 -0.007497
v 0.178809 -1.193414 -0.035417
v 0.153468 -1.181693 -0.046982
v 0.198823 -1.133565 -0.007497
v 0.187284 -1.134321 -0.035417
v 0.128128 -1.169972 -0.035417
v 0.159424 -1.136152 -0.046982
v 0.131564 -1.137982 -0.035417
v 0.149697 -1.059604 -0.035417
v 0.127545 -1.076598 -0.046982
v 0.120024 -1.138739 -0.007497
v 0.131564 -1.137982 0.020423
v 0.096217 -1.100631 -0.007497
v 0.105393 -1.093592 -0.035417
v 0.159424 -1.136152 0.031988
v 0.105393 -1.093592 0.020423
v 0.187284 -1.134321 0.020423
v 0.149697 -1.059604 0.020423
v 0.127545 -1.076598 0.031988
v 0.052858 -1.019361 -0.007497
v 0.059500 -1.010942 0.020423
v 0.075538 -0.990615 0.031988
v 0.158873 -1.052565 -0.007497
v 0.091575 -0.970288 0.020423
v 0.013608 -0.978535 0.020423
v 0.023531 -0.954876 0.031988
v 0.033454 -0.931217 0.020423
v 0.098218 -0.961869 -0.007497
v 0.009498 -0.988335 -0.007497
v 0.037564 -0.921417 -0.007497
v 0.091575 -0.970288 -0.035417
v 0.033454 -0.931217 -0.035417
v 0.013608 -0.978535 -0.035417
v 0.023531 -0.954876 -0.046982
v 0.075538 -0.990615 -0.046982
v 0.059500 -1.010942 -0.035417
v -0.037947 -0.223081 -0.045445
v -0.037947 -0.255421 -0.045445
v -0.053665 -0.223081 -0.007497
v -0.053665 -0.255421 -0.007497
v 0.000000 -0.255421 -0.061163
v -0.037947 -0.223081 0.030450
v 0.000000 -0.223081 -0.061163
v -0.037947 -0.255421 0.030450
v 0.037948 -0.255421 -0.045445
v 0.000000 -0.223081 0.046169
v 0.037948 -0.223081 -0.045445
v 0.000000 -0.255421 0.046169
v 0.053666 -0.255421 -0.007497
v 0.037948 -0.223081 0.030450
v 0.053666 -0.223081 -0.007497
v 0.037948 -0.255421 0.030450
v -0.033325 -0.480178 0.025829
v -0.033325 -0.837242 0.025829
v 0.000000 -0.837242 0.039633
v -0.047129 -0.480178 -0.007497
v 0.000000 -0.480178 0.039633
v -0.047129 -0.837242 -0.007497
v 0.033326 -0.837242 0.025829
v -0.033325 -0.480178 -0.040822
v 0.033326 -0.480178 0.025829
v -0.033325 -0.837242 -0.040822
v 0.047130 -0.837242 -0.007497
v 0.000000 -0.480178 -0.054626
v 0.047130 -0.480178 -0.007497
v 0.000000 -0.837242 -0.054626
v 0.033326 -0.837242 -0.040822
v 0.033326 -0.480178 -0.040822
v -0.120023 -1.138739 -0.007497
v -0.096216 -1.100631 -0.007497
v -0.105392 -1.093592 -0.035417
v -0.105392 -1.093592 0.020423
v -0.127544 -1.076598 -0.046982
v -0.052857 -1.019361 -0.007497
v -0.059500 -1.010942 -0.035417
v -0.075537 -0.990615 -0.046982
v -0.091575 -0.970288 -0.035417
v -0.013607 -0.978535 -0.035417
v -0.023530 -0.954876 -0.046982
v -0.033453 -0.931217 -0.035417
v -0.009497 -0.988335 -0.007497
v -0.037563 -0.921417 -0.007497
v -0.098218 -0.961869 -0.007497
v -0.158872 -1.052565 -0.007497
v -0.091575 -0.970288 0.020423
v -0.033453 -0.931217 0.020423
v -0.013607 -0.978535 0.020423
v -0.023530 -0.954876 0.031988
v -0.075537 -0.990615 0.031988
v -0.059500 -1.010942 0.020423
v -0.127544 -1.076598 0.031988
v -0.033325 -0.837242 -0.040822
v -0.033325 -0.837242 0.025829
v -0.047129 -0.837242 -0.007497
v 0.033326 -0.837242 -0.040822
v 0.000000 -0.837242 -0.054626
v 0.033326 -0.837242 0.025829
v 0.000000 -0.837242 0.039633
v 0.047130 -0.837242 -0.007497
vn 0.0005 1.0000 0.0005
vn 0.0005 -0.5897 0.8076
vn 0.0620 -0.0025 0.9981
vn -0.2731 -0.5088 0.8165
vn 0.1275 -0.0357 0.9912
vn 0.0002 -1.0000 0.0002
vn 0.0005 -0.0005 1.0000
vn -0.5604 -0.1393 0.8164
vn 0.6716 0.1881 0.7166
vn -0.4556 -0.8902 0.0005
vn -0.9738 -0.2273 0.0005
vn -0.7916 0.0152 0.6109
vn -0.9999 0.0132 -0.0000
vn -0.2449 0.0249 0.9692
vn -0.5231 0.2926 0.8005
vn 0.5448 -0.0337 0.8379
vn -0.5604 -0.1393 -0.8164
vn -0.2731 -0.5088 -0.8165
vn -0.7916 0.0152 -0.6109
vn 0.1275 -0.0357 -0.9912
vn -0.5231 0.2926 -0.8005
vn -0.2449 0.0249 -0.9692
vn 0.0620 -0.0025 -0.9981
vn 0.6716 0.1881 -0.7166
vn 0.0005 -0.5897 -0.8076
vn 0.1921 0.5528 -0.8109
vn 0.0005 -0.0005 -1.0000
vn 0.5448 -0.0337 -0.8379
vn -0.0620 -0.0025 -0.9981
vn 0.2731 -0.5087 -0.8164
vn 0.9683 0.2496 0.0005
vn -0.0000 0.5897 -0.8076
vn -0.1921 0.5528 -0.8109
vn 0.3425 0.9395 0.0005
vn -0.3425 0.9395 0.0005
vn 0.0005 0.5897 0.8076
vn 0.1921 0.5528 0.8109
vn -0.1921 0.5528 0.8109
vn -0.0620 -0.0025 0.9981
vn -0.9683 0.2496 -0.0000
vn -0.6720 0.1887 0.7161
vn 0.2731 -0.5088 0.8165
vn -0.1275 -0.0356 0.9912
vn 0.4556 -0.8902 0.0005
vn 0.5604 -0.1392 0.8164
vn 0.9738 -0.2273 0.0005
vn 0.5604 -0.1393 -0.8164
vn -0.1275 -0.0357 -0.9912
vn 0.9999 0.0132 -0.0000
vn 0.7916 0.0152 -0.6109
vn -0.6716 0.1881 -0.7166
vn 0.2449 0.0249 -0.9692
vn -0.5448 -0.0337 -0.8379
vn 0.5231 0.2926 -0.8005
vn -0.0122 0.0015 -0.9999
vn -0.9994 -0.0339 0.0005
vn -0.5448 -0.0337 0.8379
vn -0.8696 -0.4937 0.0005
vn -0.5309 -0.3072 -0.7898
vn 0.2449 0.0249 0.9692
vn -0.5309 -0.3072 0.7898
vn 0.7916 0.0152 0.6109
vn 0.5231 0.2926 0.8005
vn -0.0122 0.0015 0.9999
vn -0.7655 -0.6434 0.0005
vn -0.4755 -0.4208 0.7726
vn -0.0835 0.0064 0.9965
vn 0.8754 0.4834 0.0005
vn 0.4490 0.3718 0.8125
vn -0.9298 -0.0054 0.3680
vn -0.4657 0.0073 0.8849
vn -0.3698 0.6377 0.6757
vn 0.7556 0.6550 0.0005
vn -1.0000 -0.0064 0.0005
vn -0.5743 0.8187 0.0005
vn 0.4490 0.3718 -0.8125
vn -0.3698 0.6377 -0.6757
vn -0.9298 -0.0054 -0.3679
vn -0.4657 0.0073 -0.8849
vn -0.0835 0.0064 -0.9965
vn -0.4755 -0.4208 -0.7726
vn -0.7071 -0.0000 -0.7071
vn -1.0000 0.0005 0.0005
vn 0.0005 0.0005 -1.0000
vn -0.7071 -0.0000 0.7071
vn 0.7071 0.0005 -0.7071
vn 0.0005 0.0005 1.0000
vn 0.7071 -0.0000 -0.7071
vn 1.0000 0.0005 0.0005
vn 0.7071 -0.0000 0.7071
vn 0.7071 0.0003 0.7071
vn 0.9994 -0.0339 0.0005
vn 0.8696 -0.4938 0.0003
vn 0.5309 -0.3072 -0.7898
vn 0.5309 -0.3072 0.7898
vn 0.0122 0.0015 -0.9999
vn 0.7655 -0.6434 0.0005
vn 0.4755 -0.4208 -0.7726
vn 0.0835 0.0064 -0.9965
vn -0.4490 0.3718 -0.8125
vn 0.9298 -0.0054 -0.3680
vn 0.4657 0.0073 -0.8849
vn 0.3698 0.6377 -0.6757
vn 1.0000 -0.0064 0.0005
vn 0.5743 0.8187 0.0005
vn -0.7556 0.6550 0.0005
vn -0.8754 0.4834 0.0005
vn -0.4490 0.3718 0.8125
vn 0.3698 0.6377 0.6757
vn 0.9298 -0.0054 0.3679
vn 0.4657 0.0073 0.8849
vn 0.0835 0.0064 0.9965
vn 0.4755 -0.4208 0.7726
vn 0.0122 0.0015 0.9999
vn 0.0005 -1.0000 0.0005
vt 0.000000 0.000000
s 1
f 646/87/402 647/87/402 648/87/402
f 647/87/402 646/87/402 649/87/402
f 649/87/402 646/87/402 650/87/402
f 647/87/402 649/87/402 651/87/402
f 651/87/402 649/87/402 652/87/402
f 647/87/402 651/87/402 653/87/402
f 654/87/403 655/87/404 656/87/405
f 657/87/406 656/87/405 655/87/404
f 656/87/405 658/87/407 654/87/403
f 655/87/404 654/87/403 659/87/408
f 656/87/405 657/87/406 660/87/409
f 655/87/404 661/87/410 657/87/406
f 658/87/407 656/87/405 662/87/411
f 662/87/411 656/87/405 660/87/409
f 663/87/412 662/87/411 660/87/409
f 657/87/406 664/87/413 660/87/409
f 660/87/409 665/87/414 663/87/412
f 665/87/414 660/87/409 664/87/413
f 664/87/413 657/87/406 666/87/415
f 661/87/410 666/87/415 657/87/406
f 666/87/415 667/87/416 664/87/413
f 664/87/413 667/87/416 665/87/414
f 666/87/415 661/87/410 668/87/417
f 669/87/418 662/87/411 663/87/412
f 663/87/412 665/87/414 669/87/418
f 662/87/411 669/87/418 670/87/419
f 670/87/419 658/87/407 662/87/411
f 671/87/420 669/87/418 665/87/414
f 672/87/421 670/87/419 669/87/418
f 671/87/420 672/87/421 669/87/418
f 665/87/414 673/87/422 671/87/420
f 672/87/421 671/87/420 674/87/423
f 671/87/420 673/87/422 674/87/423
f 670/87/419 672/87/421 675/87/424
f 674/87/423 676/87/425 672/87/421
f 676/87/425 675/87/424 672/87/421
f 677/87/426 670/87/419 675/87/424
f 670/87/419 677/87/426 658/87/407
f 675/87/424 676/87/425 678/87/427
f 675/87/424 679/87/428 677/87/426
f 679/87/428 675/87/424 678/87/427
f 674/87/423 680/87/429 676/87/425
f 681/87/430 677/87/426 679/87/428
f 682/87/431 658/87/407 677/87/426
f 677/87/426 681/87/430 682/87/431
f 683/87/432 678/87/427 676/87/425
f 680/87/429 683/87/432 676/87/425
f 678/87/427 684/87/433 679/87/428
f 679/87/428 685/87/434 681/87/430
f 685/87/434 679/87/428 684/87/433
f 684/87/433 678/87/427 686/87/435
f 678/87/427 683/87/432 686/87/435
f 684/87/433 686/87/435 687/87/402
f 685/87/434 684/87/433 688/87/436
f 687/87/402 688/87/436 684/87/433
f 686/87/435 689/87/437 687/87/402
f 689/87/437 688/87/436 687/87/402
f 689/87/437 686/87/435 690/87/438
f 683/87/432 690/87/438 686/87/435
f 688/87/436 689/87/437 691/87/439
f 690/87/438 683/87/432 661/87/410
f 661/87/410 655/87/404 690/87/438
f 659/87/408 690/87/438 655/87/404
f 690/87/438 659/87/408 689/87/437
f 659/87/408 691/87/439 689/87/437
f 683/87/432 668/87/417 661/87/410
f 691/87/439 659/87/408 692/87/440
f 654/87/403 692/87/440 659/87/408
f 688/87/436 691/87/439 693/87/441
f 693/87/441 685/87/434 688/87/436
f 692/87/440 694/87/442 691/87/439
f 691/87/439 694/87/442 693/87/441
f 692/87/440 654/87/403 695/87/443
f 658/87/407 695/87/443 654/87/403
f 694/87/442 692/87/440 696/87/444
f 695/87/443 696/87/444 692/87/440
f 695/87/443 658/87/407 697/87/445
f 658/87/407 682/87/431 697/87/445
f 696/87/444 695/87/443 698/87/446
f 697/87/445 698/87/446 695/87/443
f 699/87/447 698/87/446 697/87/445
f 700/87/448 697/87/445 682/87/431
f 697/87/445 700/87/448 699/87/447
f 682/87/431 701/87/449 700/87/448
f 701/87/449 682/87/431 681/87/430
f 700/87/448 702/87/450 699/87/447
f 702/87/450 698/87/446 699/87/447
f 703/87/451 700/87/448 701/87/449
f 700/87/448 703/87/451 702/87/450
f 681/87/430 704/87/452 701/87/449
f 704/87/452 681/87/430 685/87/434
f 685/87/434 693/87/441 704/87/452
f 705/87/453 701/87/449 704/87/452
f 703/87/451 701/87/449 705/87/453
f 706/87/454 704/87/452 693/87/441
f 705/87/453 704/87/452 706/87/454
f 705/87/453 707/87/455 703/87/451
f 707/87/455 702/87/450 703/87/451
f 706/87/454 708/87/456 705/87/453
f 707/87/455 705/87/453 708/87/456
f 706/87/454 693/87/441 709/87/457
f 693/87/441 710/87/458 709/87/457
f 710/87/458 693/87/441 694/87/442
f 711/87/459 706/87/454 709/87/457
f 711/87/459 709/87/457 710/87/458
f 706/87/454 712/87/460 708/87/456
f 706/87/454 711/87/459 712/87/460
f 694/87/442 713/87/461 710/87/458
f 713/87/461 694/87/442 696/87/444
f 710/87/458 714/87/462 711/87/459
f 696/87/444 715/87/463 713/87/461
f 715/87/463 696/87/444 698/87/446
f 698/87/446 702/87/450 715/87/463
f 716/87/464 713/87/461 715/87/463
f 702/87/450 716/87/464 715/87/463
f 717/87/465 710/87/458 713/87/461
f 710/87/458 717/87/465 714/87/462
f 713/87/461 716/87/464 717/87/465
f 718/87/466 711/87/459 714/87/462
f 718/87/466 712/87/460 711/87/459
f 717/87/465 719/87/467 714/87/462
f 714/87/462 719/87/467 718/87/466
f 716/87/464 720/87/468 717/87/465
f 719/87/467 717/87/465 720/87/468
f 702/87/450 721/87/469 716/87/464
f 702/87/450 707/87/455 721/87/469
f 720/87/468 716/87/464 722/87/470
f 721/87/469 722/87/470 716/87/464
f 720/87/468 723/87/471 719/87/467
f 723/87/471 718/87/466 719/87/467
f 723/87/471 720/87/468 724/87/472
f 722/87/470 724/87/472 720/87/468
f 723/87/471 724/87/472 725/87/473
f 724/87/472 722/87/470 725/87/473
f 721/87/469 726/87/474 722/87/470
f 725/87/473 727/87/475 723/87/471
f 718/87/466 723/87/471 727/87/475
f 722/87/470 728/87/476 725/87/473
f 728/87/476 722/87/470 726/87/474
f 728/87/476 727/87/475 725/87/473
f 721/87/469 729/87/477 726/87/474
f 729/87/477 728/87/476 726/87/474
f 729/87/477 721/87/469 707/87/455
f 727/87/475 728/87/476 730/87/478
f 729/87/477 730/87/478 728/87/476
f 731/87/479 718/87/466 727/87/475
f 730/87/478 731/87/479 727/87/475
f 729/87/477 732/87/480 730/87/478
f 731/87/479 730/87/478 732/87/480
f 707/87/455 733/87/481 729/87/477
f 732/87/480 729/87/477 733/87/481
f 733/87/481 731/87/479 732/87/480
f 733/87/481 707/87/455 708/87/456
f 731/87/479 734/87/482 718/87/466
f 731/87/479 733/87/481 734/87/482
f 708/87/456 734/87/482 733/87/481
f 712/87/460 718/87/466 734/87/482
f 734/87/482 708/87/456 712/87/460
f 735/87/483 736/87/483 737/87/484
f 736/87/483 738/87/484 737/87/484
f 735/87/483 739/87/485 736/87/483
f 737/87/484 738/87/484 740/87/486
f 735/87/483 741/87/485 739/87/485
f 738/87/484 742/87/486 740/87/486
f 741/87/485 743/87/487 739/87/485
f 742/87/486 744/87/488 740/87/486
f 741/87/485 745/87/489 743/87/487
f 746/87/488 744/87/488 742/87/486
f 745/87/489 747/87/490 743/87/487
f 746/87/488 748/87/491 744/87/488
f 747/87/490 745/87/489 749/87/490
f 748/87/491 746/87/488 750/87/491
f 749/87/490 750/87/491 747/87/490
f 750/87/491 749/87/490 748/87/491
f 751/87/486 752/87/486 753/87/488
f 754/87/484 752/87/486 751/87/486
f 753/87/488 755/87/488 751/87/486
f 754/87/484 756/87/484 752/87/486
f 755/87/488 753/87/488 757/87/492
f 758/87/483 756/87/484 754/87/484
f 757/87/492 759/87/492 755/87/488
f 758/87/483 760/87/483 756/87/484
f 761/87/490 759/87/492 757/87/492
f 762/87/485 760/87/483 758/87/483
f 759/87/492 761/87/490 763/87/490
f 760/87/483 762/87/485 764/87/485
f 765/87/489 763/87/490 761/87/490
f 766/87/489 764/87/485 762/87/485
f 763/87/490 765/87/489 766/87/489
f 764/87/485 766/87/489 765/87/489
f 683/87/432 680/87/429 767/87/493
f 668/87/417 683/87/432 767/87/493
f 680/87/429 768/87/494 767/87/493
f 768/87/494 668/87/417 767/87/493
f 768/87/494 680/87/429 769/87/495
f 668/87/417 768/87/494 770/87/496
f 769/87/495 680/87/429 771/87/497
f 674/87/423 771/87/497 680/87/429
f 771/87/497 674/87/423 673/87/422
f 769/87/495 772/87/498 768/87/494
f 772/87/498 770/87/496 768/87/494
f 771/87/497 773/87/499 769/87/495
f 772/87/498 769/87/495 773/87/499
f 673/87/422 774/87/500 771/87/497
f 773/87/499 771/87/497 774/87/500
f 774/87/500 673/87/422 775/87/501
f 774/87/500 776/87/502 773/87/499
f 776/87/502 772/87/498 773/87/499
f 776/87/502 774/87/500 777/87/503
f 775/87/501 777/87/503 774/87/500
f 778/87/504 776/87/502 777/87/503
f 777/87/503 775/87/501 778/87/504
f 778/87/504 779/87/505 776/87/502
f 772/87/498 776/87/502 779/87/505
f 778/87/504 775/87/501 780/87/506
f 780/87/506 779/87/505 778/87/504
f 781/87/507 780/87/506 775/87/501
f 782/87/508 775/87/501 673/87/422
f 775/87/501 782/87/508 781/87/507
f 673/87/422 665/87/414 782/87/508
f 782/87/508 665/87/414 667/87/416
f 781/87/507 782/87/508 783/87/509
f 783/87/509 780/87/506 781/87/507
f 667/87/416 783/87/509 782/87/508
f 779/87/505 780/87/506 784/87/510
f 780/87/506 783/87/509 784/87/510
f 779/87/505 784/87/510 785/87/511
f 785/87/511 772/87/498 779/87/505
f 784/87/510 783/87/509 786/87/512
f 785/87/511 784/87/510 786/87/512
f 786/87/512 783/87/509 787/87/513
f 786/87/512 787/87/513 785/87/511
f 783/87/509 667/87/416 787/87/513
f 772/87/498 785/87/511 788/87/514
f 787/87/513 788/87/514 785/87/511
f 770/87/496 772/87/498 788/87/514
f 789/87/515 787/87/513 667/87/416
f 787/87/513 789/87/515 788/87/514
f 770/87/496 788/87/514 789/87/515
f 667/87/416 666/87/415 789/87/515
f 789/87/515 668/87/417 770/87/496
f 668/87/417 789/87/515 666/87/415
f 790/87/516 791/87/516 792/87/516
f 791/87/516 790/87/516 793/87/516
f 793/87/516 790/87/516 794/87/516
f 795/87/516 791/87/516 793/87/516
f 791/87/516 795/87/516 796/87/516
f 795/87/516 793/87/516 797/87/516
