# Blender 5.2.0 LTS
# www.blender.org
mtllib warp handgun slidee.mtl
o RenderMesh_100760723336125_81f305d2fd7ff9bc
v -0.000518 -0.087983 -0.073674
v -0.006375 -0.076609 0.078160
v -0.006375 -0.076609 -0.078160
v -0.000518 -0.087983 0.073674
v -0.006375 -0.076609 -0.078160
v -0.000518 -0.065235 0.073674
v -0.000518 -0.065235 -0.073674
v -0.006375 -0.076609 0.078160
v 0.066490 -0.076609 0.078160
v -0.006375 -0.076609 0.078160
v -0.000518 -0.087983 0.073674
v 0.060633 -0.087983 0.073674
v -0.000518 -0.065235 0.073674
v 0.060633 -0.065235 0.073674
v 0.066490 -0.076609 -0.078160
v -0.000518 -0.087983 -0.073674
v -0.006375 -0.076609 -0.078160
v 0.060633 -0.087983 -0.073674
v -0.000518 -0.065235 -0.073674
v 0.060633 -0.065235 -0.073674
v 0.331516 -0.061523 0.015171
v 0.362513 -0.057730 0.018964
v 0.362513 -0.076694 0.026819
v 0.362513 -0.049875 -0.000000
v 0.331516 -0.076694 0.021455
v 0.331516 -0.055239 -0.000000
v 0.331516 -0.091865 0.015171
v 0.331516 -0.061523 -0.015171
v 0.362513 -0.095658 0.018964
v 0.362513 -0.057730 -0.018964
v 0.362513 -0.103513 0.000000
v 0.362514 -0.076694 -0.026819
v 0.331516 -0.098149 0.000000
v 0.331516 -0.076694 -0.021455
v 0.331516 -0.091865 -0.015171
v 0.362514 -0.095658 -0.018964
v -0.000518 -0.065235 -0.073674
v 0.060633 -0.065235 0.073674
v 0.060633 -0.065235 -0.073674
v -0.000518 -0.065235 0.073674
v 0.060633 -0.087983 -0.073674
v -0.000518 -0.087983 0.073674
v -0.000518 -0.087983 -0.073674
v 0.060633 -0.087983 0.073674
v 0.331516 -0.055239 -0.000000
v 0.331516 -0.076694 0.021455
v 0.331516 -0.076694 -0.021455
v 0.331516 -0.061523 0.015171
v 0.331516 -0.061523 -0.015171
v 0.331516 -0.098149 0.000000
v 0.331516 -0.091865 -0.015171
v 0.331516 -0.091865 0.015171
v 0.060633 -0.087983 0.073674
v 0.060633 -0.087983 -0.073674
v 0.066490 -0.076609 -0.078160
v 0.066490 -0.076609 0.078160
v 0.066490 -0.076609 0.078160
v 0.066490 -0.076609 -0.078160
v 0.060633 -0.065235 -0.073674
v 0.060633 -0.065235 0.073674
v 0.555961 -0.076694 -0.025960
v 0.586958 -0.076694 -0.020768
v 0.586958 -0.062008 -0.014686
v 0.586958 -0.091379 -0.014686
v 0.555961 -0.058337 -0.018357
v 0.555961 -0.095051 -0.018357
v 0.555961 -0.050734 -0.000000
v 0.555961 -0.102654 0.000000
v 0.586958 -0.055926 -0.000000
v 0.586958 -0.097462 0.000000
v 0.586958 -0.062008 0.014686
v 0.586958 -0.091379 0.014686
v 0.555961 -0.058337 0.018357
v 0.555961 -0.095051 0.018357
v 0.555961 -0.076694 0.025960
v 0.586958 -0.076694 0.020768
v 0.586958 -0.055926 -0.000000
v 0.586958 -0.076694 0.020768
v 0.586958 -0.062008 0.014686
v 0.586958 -0.097462 0.000000
v 0.586958 -0.091379 0.014686
v 0.586958 -0.076694 -0.020768
v 0.586958 -0.091379 -0.014686
v 0.586958 -0.062008 -0.014686
vn -0.8890 -0.4578 -0.0000
vn -0.8890 -0.4579 0.0005
vn -0.8890 0.4579 0.0003
vn -0.8890 0.4578 -0.0000
vn -0.8890 0.4579 0.0005
vn 0.0005 0.0005 1.0000
vn -0.0000 -0.3669 0.9303
vn 0.0010 -0.3668 0.9303
vn 0.0005 0.3667 0.9303
vn 0.0005 0.3668 0.9303
vn 0.0005 0.0005 -1.0000
vn 0.0005 -0.3668 -0.9303
vn -0.0000 -0.3669 -0.9303
vn 0.0003 0.3668 -0.9303
vn 0.0005 0.3668 -0.9303
vn 0.1705 -0.6968 -0.6968
vn 0.1705 0.0005 -0.9854
vn 0.1705 -0.9854 0.0003
vn 0.1705 -0.0000 -0.9854
vn 0.1705 -0.9854 0.0005
vn 0.1698 0.6968 -0.6968
vn 0.1705 -0.6968 0.6968
vn 0.1705 0.6968 -0.6968
vn 0.1705 -0.6967 0.6968
vn 0.1705 0.9854 -0.0000
vn 0.1705 -0.0000 0.9854
vn 0.1705 0.9854 0.0008
vn 0.1705 0.6968 0.6968
vn 0.1705 0.6967 0.6968
vn 0.0005 1.0000 0.0005
vn 0.0005 -1.0000 0.0005
vn 1.0000 0.0005 0.0005
vn 0.8890 -0.4579 0.0005
vn 0.8891 -0.4578 -0.0000
vn 0.8890 -0.4579 0.0006
vn 0.8891 0.4578 -0.0000
vn 0.8890 0.4578 -0.0000
vn 0.8890 0.4579 0.0005
vn 0.8890 0.4579 0.0003
vn -0.1657 0.0006 0.9862
vn -0.1656 0.0005 0.9862
vn -0.1652 -0.6974 0.6974
vn -0.1657 0.6973 0.6973
vn -0.1657 -0.6973 0.6973
vn -0.1657 -0.9862 0.0006
vn -0.1656 0.9862 0.0005
vn -0.1652 -0.9863 -0.0000
vn -0.1652 0.9863 -0.0000
vn -0.1660 -0.6973 -0.6973
vn -0.1652 0.6974 -0.6974
vn -0.1659 -0.6973 -0.6973
vn -0.1657 0.6973 -0.6973
vn -0.1656 0.0005 -0.9862
vn -1.0000 0.0005 0.0005
vt 0.000000 0.000000
s 1
f 1/1/1 2/1/2 3/1/1
f 2/1/2 1/1/1 4/1/2
f 5/1/3 6/1/3 7/1/4
f 5/1/3 8/1/5 6/1/3
f 9/1/6 10/1/6 11/1/7
f 9/1/6 11/1/7 12/1/8
f 9/1/6 13/1/9 10/1/6
f 13/1/9 9/1/6 14/1/10
f 15/1/11 16/1/12 17/1/11
f 16/1/12 15/1/11 18/1/13
f 19/1/14 15/1/11 17/1/11
f 19/1/14 20/1/15 15/1/11
f 21/1/16 22/1/16 23/1/17
f 21/1/16 24/1/18 22/1/16
f 21/1/16 23/1/17 25/1/19
f 24/1/18 21/1/16 26/1/20
f 23/1/17 27/1/21 25/1/19
f 28/1/22 24/1/18 26/1/20
f 27/1/21 23/1/17 29/1/23
f 28/1/22 30/1/24 24/1/18
f 31/1/25 27/1/21 29/1/23
f 28/1/22 32/1/26 30/1/24
f 31/1/25 33/1/27 27/1/21
f 32/1/26 28/1/22 34/1/26
f 31/1/25 35/1/28 33/1/27
f 35/1/28 32/1/26 34/1/26
f 35/1/28 31/1/25 36/1/29
f 35/1/28 36/1/29 32/1/26
f 37/1/30 38/1/30 39/1/30
f 38/1/30 37/1/30 40/1/30
f 41/1/31 42/1/31 43/1/31
f 42/1/31 41/1/31 44/1/31
f 45/1/32 46/1/32 47/1/32
f 46/1/32 45/1/32 48/1/32
f 45/1/32 47/1/32 49/1/32
f 46/1/32 50/1/32 47/1/32
f 47/1/32 50/1/32 51/1/32
f 50/1/32 46/1/32 52/1/32
f 53/1/33 54/1/34 55/1/35
f 55/1/35 56/1/33 53/1/33
f 57/1/36 58/1/37 59/1/38
f 57/1/36 59/1/38 60/1/39
f 61/1/40 62/1/41 63/1/42
f 61/1/40 64/1/43 62/1/41
f 61/1/40 63/1/42 65/1/44
f 64/1/43 61/1/40 66/1/43
f 63/1/42 67/1/45 65/1/44
f 64/1/43 66/1/43 68/1/46
f 67/1/45 63/1/42 69/1/47
f 64/1/43 68/1/46 70/1/48
f 67/1/45 69/1/47 71/1/49
f 68/1/46 72/1/50 70/1/48
f 67/1/45 71/1/49 73/1/51
f 72/1/50 68/1/46 74/1/52
f 71/1/49 75/1/53 73/1/51
f 75/1/53 72/1/50 74/1/52
f 75/1/53 71/1/49 76/1/53
f 75/1/53 76/1/53 72/1/50
f 77/1/54 78/1/54 79/1/54
f 80/1/54 78/1/54 77/1/54
f 78/1/54 80/1/54 81/1/54
f 77/1/54 82/1/54 80/1/54
f 80/1/54 82/1/54 83/1/54
f 82/1/54 77/1/54 84/1/54
o RenderMesh_102404438643136_59223335dc1ea71b
v 0.560970 -0.034845 -0.000000
v 0.560970 -0.129269 0.000000
v 0.560970 -0.048672 0.033384
v 0.560970 -0.115442 0.033384
v 0.560970 -0.082058 0.047213
v 0.560970 -0.082058 -0.047213
v 0.560970 -0.048672 -0.033385
v 0.560970 -0.115442 -0.033385
v 0.921605 -0.048672 0.033384
v 0.927454 -0.058783 0.023274
v 0.921605 -0.041759 0.016692
v 0.927454 -0.053963 0.011637
v 0.921605 -0.082058 0.047213
v 0.927454 -0.082058 0.032914
v 0.927454 -0.105331 0.023274
v 0.921605 -0.115442 0.033384
v 0.921605 -0.122356 0.016692
v 0.927454 -0.110151 0.011637
v 0.927454 -0.058783 -0.023274
v 0.921605 -0.082058 -0.047213
v 0.921605 -0.048672 -0.033385
v 0.921605 -0.041759 -0.016692
v 0.927454 -0.053963 -0.011637
v 0.927454 -0.082058 -0.032914
v 0.927454 -0.105331 -0.023274
v 0.921605 -0.115442 -0.033385
v 0.921605 -0.122356 -0.016692
v 0.927454 -0.110151 -0.011637
v 0.914561 -0.113499 0.000000
v 0.912311 -0.122356 -0.014045
v 0.914561 -0.108894 -0.009354
v 0.912311 -0.129269 0.000000
v 0.912311 -0.122356 0.014045
v 0.914561 -0.108894 0.009354
v 0.912311 -0.041759 0.014045
v 0.914561 -0.050616 -0.000000
v 0.912311 -0.034845 -0.000000
v 0.914561 -0.055220 0.009354
v 0.912311 -0.041759 -0.014045
v 0.914561 -0.055220 -0.009354
v 0.904864 -0.063221 -0.018837
v 0.914561 -0.055220 -0.009354
v 0.904864 -0.055419 -0.000000
v 0.914561 -0.050616 -0.000000
v 0.914561 -0.055220 0.009354
v 0.927454 -0.058783 -0.023274
v 0.927454 -0.053963 -0.011637
v 0.927454 -0.082058 -0.032914
v 0.904864 -0.082058 -0.026639
v 0.904864 -0.100893 -0.018837
v 0.904864 -0.063221 0.018837
v 0.927454 -0.105331 -0.023274
v 0.914561 -0.108894 -0.009354
v 0.927454 -0.110151 -0.011637
v 0.904864 -0.108695 0.000000
v 0.914561 -0.113499 0.000000
v 0.914561 -0.108894 0.009354
v 0.904864 -0.100893 0.018837
v 0.927454 -0.105331 0.023274
v 0.927454 -0.110151 0.011637
v 0.927454 -0.082058 0.032914
v 0.904864 -0.082058 0.026639
v 0.927454 -0.058783 0.023274
v 0.927454 -0.053963 0.011637
v 0.904864 -0.100893 -0.018837
v 0.904864 -0.055419 -0.000000
v 0.904864 -0.108695 0.000000
v 0.904864 -0.100893 0.018837
v 0.904864 -0.063221 -0.018837
v 0.904864 -0.082058 -0.026639
v 0.904864 -0.063221 0.018837
v 0.904864 -0.082058 0.026639
v 0.921605 -0.041759 0.016692
v 0.914561 -0.055220 0.009354
v 0.912311 -0.041759 0.014045
v 0.927454 -0.053963 0.011637
v 0.921605 -0.041759 -0.016692
v 0.914561 -0.055220 -0.009354
v 0.927454 -0.053963 -0.011637
v 0.912311 -0.041759 -0.014045
v 0.921605 -0.122356 -0.016692
v 0.914561 -0.108894 -0.009354
v 0.912311 -0.122356 -0.014045
v 0.927454 -0.110151 -0.011637
v 0.921605 -0.122356 0.016692
v 0.914561 -0.108894 0.009354
v 0.927454 -0.110151 0.011637
v 0.912311 -0.122356 0.014045
v 0.921605 -0.082058 0.047213
v 0.560970 -0.048672 0.033384
v 0.560970 -0.082058 0.047213
v 0.921605 -0.115442 0.033384
v 0.921605 -0.048672 0.033384
v 0.560970 -0.115442 0.033384
v 0.912311 -0.041759 0.014045
v 0.921605 -0.041759 0.016692
v 0.560970 -0.034845 -0.000000
v 0.912311 -0.034845 -0.000000
v 0.912311 -0.041759 -0.014045
v 0.912311 -0.122356 0.014045
v 0.921605 -0.122356 0.016692
v 0.560970 -0.129269 0.000000
v 0.912311 -0.129269 0.000000
v 0.912311 -0.122356 -0.014045
v 0.560970 -0.048672 -0.033385
v 0.560970 -0.115442 -0.033385
v 0.921605 -0.048672 -0.033385
v 0.921605 -0.041759 -0.016692
v 0.560970 -0.082058 -0.047213
v 0.921605 -0.082058 -0.047213
v 0.921605 -0.115442 -0.033385
v 0.921605 -0.122356 -0.016692
vn -1.0000 -0.0005 0.0005
vn 0.9257 0.2674 0.2674
vn 0.9258 0.2673 0.2673
vn 0.9144 0.3741 0.1549
vn 0.9146 0.3736 0.1549
vn 0.9256 -0.0006 0.3785
vn 0.9256 -0.0005 0.3785
vn 0.9258 -0.2673 0.2673
vn 0.9144 -0.3740 0.1549
vn 0.9257 0.2674 -0.2674
vn 0.9256 -0.0000 -0.3786
vn 0.9258 0.2673 -0.2673
vn 0.9144 0.3741 -0.1549
vn 0.9256 -0.0005 -0.3785
vn 0.9258 -0.2673 -0.2673
vn 0.9258 -0.2674 -0.2674
vn 0.9144 -0.3740 -0.1549
vn 0.9900 -0.1412 -0.0000
vn 0.9900 -0.1411 0.0004
vn 0.9900 -0.1411 0.0005
vn 0.9900 -0.1412 0.0003
vn 0.9900 0.1411 0.0005
vn 0.9900 0.1412 -0.0000
vn 0.9900 0.1411 0.0003
vn 0.9900 0.1411 0.0004
vn 0.2857 -0.6598 0.6950
vn 0.2867 -0.8669 0.4078
vn 0.3143 -0.9493 0.0005
vn 0.3142 -0.9493 0.0005
vn 0.2867 -0.8669 -0.4078
vn 0.2672 -0.0005 0.9636
vn 0.2671 -0.0007 0.9637
vn 0.2857 0.6598 0.6950
vn 0.2857 -0.6598 -0.6950
vn 0.2867 0.8669 0.4078
vn 0.3142 0.9494 0.0005
vn 0.3142 0.9493 0.0005
vn 0.2867 0.8669 -0.4078
vn 0.2857 0.6598 -0.6950
vn 0.2672 -0.0005 -0.9636
vn 0.2671 -0.0007 -0.9637
vn 1.0000 -0.0005 0.0005
vn 0.1773 0.3980 -0.9001
vn 0.1773 0.3980 0.9001
vn 0.1773 -0.3980 0.9001
vn 0.1773 -0.3980 -0.9001
vn 0.0005 -0.0005 1.0000
vn 0.0006 0.7072 0.7070
vn 0.0005 -0.7071 0.7071
vn 0.0005 0.7071 0.7071
vn 0.0006 -0.7071 0.7071
vn 0.0005 0.9239 0.3826
vn 0.0005 1.0000 0.0005
vn 0.0005 0.9239 -0.3826
vn 0.0005 -0.9239 0.3826
vn 0.0005 -1.0000 0.0005
vn 0.0005 -0.9239 -0.3826
vn 0.0006 0.7072 -0.7070
vn 0.0005 -0.7071 -0.7071
vn 0.0005 0.7071 -0.7071
vn 0.0005 -0.0005 -1.0000
vt 0.000000 0.000000
s 1
f 85/2/55 86/2/55 87/2/55
f 88/2/55 87/2/55 86/2/55
f 87/2/55 88/2/55 89/2/55
f 86/2/55 85/2/55 90/2/55
f 90/2/55 85/2/55 91/2/55
f 86/2/55 90/2/55 92/2/55
f 93/2/56 94/2/57 95/2/58
f 95/2/58 94/2/57 96/2/59
f 97/2/60 94/2/57 93/2/56
f 94/2/57 97/2/60 98/2/61
f 99/2/62 98/2/61 97/2/60
f 97/2/60 100/2/62 99/2/62
f 101/2/63 99/2/62 100/2/62
f 99/2/62 101/2/63 102/2/63
f 103/2/64 104/2/65 105/2/66
f 106/2/67 103/2/64 105/2/66
f 103/2/64 106/2/67 107/2/67
f 104/2/65 103/2/64 108/2/68
f 109/2/69 104/2/65 108/2/68
f 104/2/65 109/2/69 110/2/70
f 111/2/71 110/2/70 109/2/69
f 109/2/69 112/2/71 111/2/71
f 113/2/72 114/2/73 115/2/74
f 114/2/73 113/2/72 116/2/75
f 116/2/75 113/2/72 117/2/74
f 117/2/74 113/2/72 118/2/74
f 119/2/76 120/2/77 121/2/78
f 120/2/77 119/2/76 122/2/76
f 120/2/77 123/2/76 121/2/78
f 123/2/76 120/2/77 124/2/79
f 125/2/80 126/2/81 127/2/82
f 126/2/81 128/2/83 127/2/82
f 129/2/84 127/2/82 128/2/83
f 130/2/80 126/2/81 125/2/80
f 126/2/81 130/2/80 131/2/81
f 132/2/85 130/2/80 125/2/80
f 133/2/86 132/2/85 125/2/80
f 134/2/87 132/2/85 133/2/86
f 135/2/88 127/2/82 129/2/84
f 132/2/85 134/2/87 136/2/87
f 136/2/87 134/2/87 137/2/89
f 136/2/87 137/2/89 138/2/89
f 137/2/89 134/2/87 139/2/90
f 139/2/90 140/2/91 137/2/89
f 139/2/90 141/2/92 140/2/91
f 139/2/90 142/2/93 141/2/92
f 143/2/93 141/2/92 142/2/93
f 141/2/92 143/2/93 144/2/92
f 145/2/94 143/2/93 142/2/93
f 146/2/95 145/2/94 142/2/93
f 135/2/88 145/2/94 146/2/95
f 145/2/94 135/2/88 147/2/88
f 129/2/84 147/2/88 135/2/88
f 147/2/88 129/2/84 148/2/84
f 149/2/96 150/2/96 151/2/96
f 151/2/96 150/2/96 152/2/96
f 150/2/96 149/2/96 153/2/96
f 153/2/96 149/2/96 154/2/96
f 155/2/96 152/2/96 150/2/96
f 152/2/96 155/2/96 156/2/96
f 157/2/97 158/2/97 159/2/97
f 158/2/97 157/2/97 160/2/97
f 161/2/98 162/2/98 163/2/98
f 162/2/98 161/2/98 164/2/98
f 165/2/99 166/2/99 167/2/99
f 166/2/99 165/2/99 168/2/99
f 169/2/100 170/2/100 171/2/100
f 170/2/100 169/2/100 172/2/100
f 173/2/101 174/2/102 175/2/101
f 175/2/101 176/2/103 173/2/101
f 174/2/102 173/2/101 177/2/104
f 176/2/103 175/2/101 178/2/105
f 177/2/104 179/2/106 174/2/102
f 179/2/106 177/2/104 180/2/106
f 174/2/102 179/2/106 181/2/107
f 182/2/107 181/2/107 179/2/106
f 183/2/108 181/2/107 182/2/107
f 184/2/109 176/2/103 178/2/105
f 176/2/103 184/2/109 185/2/109
f 186/2/110 184/2/109 178/2/105
f 184/2/109 186/2/110 187/2/110
f 186/2/110 188/2/111 187/2/110
f 181/2/107 183/2/108 189/2/112
f 190/2/113 188/2/111 186/2/110
f 191/2/114 189/2/112 183/2/108
f 191/2/114 183/2/108 192/2/108
f 191/2/114 193/2/115 189/2/112
f 193/2/115 191/2/114 194/2/115
f 194/2/115 190/2/113 193/2/115
f 190/2/113 194/2/115 195/2/113
f 195/2/113 188/2/111 190/2/113
f 188/2/111 195/2/113 196/2/111
o RenderMesh_116069560918732_fce505bbe51f84ea
v 0.915034 -0.010884 -0.000000
v 0.915034 -0.078490 -0.067606
v 0.915034 -0.030685 -0.047805
v 0.915034 -0.146096 0.000000
v 0.915034 -0.126295 -0.047805
v 0.915034 -0.126295 0.047805
v 0.915034 -0.078490 0.067606
v 0.915034 -0.030685 0.047805
v 0.915034 -0.030685 0.047805
v 0.915034 -0.010884 -0.000000
v 0.899529 -0.006378 -0.000000
v 0.915034 -0.030685 -0.047805
v 0.899528 -0.027499 0.050991
v 0.899529 -0.027499 -0.050990
v 0.899528 -0.078490 0.072112
v 0.899529 -0.078490 -0.072112
v 0.915034 -0.078490 0.067606
v 0.915034 -0.078490 -0.067606
v 0.915034 -0.126295 0.047805
v 0.915034 -0.126295 -0.047805
v 0.899528 -0.129482 0.050991
v 0.899529 -0.129482 -0.050990
v 0.899529 -0.150602 0.000000
v 0.915034 -0.146096 0.000000
v -0.026956 -0.017912 -0.000000
v -0.026956 -0.078490 -0.060578
v -0.026956 -0.121325 -0.042835
v -0.026956 -0.035655 -0.042835
v -0.026956 -0.121325 0.042835
v -0.026956 -0.139068 0.000000
v -0.026956 -0.078490 0.060578
v -0.026956 -0.035655 0.042835
v -0.026956 -0.121325 0.042835
v -0.010956 -0.078490 0.075722
v -0.026956 -0.078490 0.060578
v -0.026956 -0.035655 0.042835
v -0.010956 -0.132033 0.053543
v -0.010956 -0.024946 0.053543
v -0.010956 -0.154211 0.000000
v -0.010956 -0.002767 -0.000000
v -0.026956 -0.139068 0.000000
v -0.026956 -0.017912 -0.000000
v -0.026956 -0.121325 -0.042835
v -0.026956 -0.035655 -0.042835
v -0.010956 -0.132033 -0.053543
v -0.010956 -0.024946 -0.053543
v -0.010956 -0.078490 -0.075722
v -0.026956 -0.078490 -0.060578
v 0.564306 -0.028189 -0.000000
v 0.564306 -0.046731 -0.044765
v 0.564306 -0.033725 -0.044765
v 0.564306 -0.015183 -0.000000
v 0.564306 -0.033725 0.044765
v 0.564306 -0.046731 0.044765
v 0.564306 -0.127906 0.000000
v 0.564306 -0.122370 0.044765
v 0.564306 -0.140913 0.000000
v 0.564306 -0.109363 0.044765
v 0.564306 -0.122370 -0.044765
v 0.564306 -0.109363 -0.044765
v 0.236775 -0.123109 0.044620
v 0.236775 -0.141591 0.000000
v 0.250159 -0.154680 0.000000
v 0.236775 -0.123109 -0.044620
v 0.250159 -0.132365 0.053875
v 0.250159 -0.132365 -0.053875
v 0.250158 -0.078490 0.076191
v 0.250159 -0.078490 -0.076191
v 0.236774 -0.078490 0.063102
v 0.236775 -0.078490 -0.063102
v 0.236775 -0.033870 0.044620
v 0.236775 -0.033870 -0.044620
v 0.250158 -0.024615 0.053875
v 0.250159 -0.024615 -0.053875
v 0.250159 -0.002299 -0.000000
v 0.236775 -0.015388 -0.000000
v 0.564306 -0.015183 -0.000000
v 0.353563 -0.015183 -0.000000
v 0.353563 -0.033725 0.044765
v 0.564306 -0.033725 0.044765
v 0.564306 -0.033725 -0.044765
v 0.353563 -0.033725 -0.044765
v 0.564306 -0.140913 0.000000
v 0.353563 -0.122370 -0.044765
v 0.564306 -0.122370 -0.044765
v 0.353563 -0.140913 0.000000
v 0.564306 -0.122370 0.044765
v 0.353563 -0.122370 0.044765
v 0.353563 -0.046731 0.044765
v 0.564306 -0.046731 0.044765
v 0.564306 -0.033725 0.044765
v 0.353563 -0.033725 0.044765
v 0.353563 -0.033725 -0.044765
v 0.564306 -0.033725 -0.044765
v 0.564306 -0.046731 -0.044765
v 0.353563 -0.046731 -0.044765
v 0.353563 -0.109363 -0.044765
v 0.564306 -0.109363 -0.044765
v 0.564306 -0.122370 -0.044765
v 0.353563 -0.122370 -0.044765
v 0.353563 -0.122370 0.044765
v 0.564306 -0.122370 0.044765
v 0.564306 -0.109363 0.044765
v 0.353563 -0.109363 0.044765
v 0.353563 -0.028189 -0.000000
v 0.353563 -0.033725 -0.044765
v 0.353563 -0.046731 -0.044765
v 0.353563 -0.015183 -0.000000
v 0.353563 -0.033725 0.044765
v 0.353563 -0.046731 0.044765
v 0.353563 -0.122370 0.044765
v 0.353563 -0.127906 0.000000
v 0.353563 -0.140913 0.000000
v 0.353563 -0.109363 0.044765
v 0.353563 -0.122370 -0.044765
v 0.353563 -0.109363 -0.044765
v 0.250159 -0.132365 0.053875
v 0.349308 -0.132365 0.053875
v 0.349308 -0.078490 0.076191
v 0.349308 -0.154680 0.000000
v 0.250158 -0.078490 0.076191
v 0.250159 -0.154680 0.000000
v 0.349308 -0.024615 0.053875
v 0.250159 -0.132365 -0.053875
v 0.250158 -0.024615 0.053875
v 0.349309 -0.132365 -0.053875
v 0.250159 -0.002299 -0.000000
v 0.250159 -0.078490 -0.076191
v 0.349308 -0.002299 -0.000000
v 0.349309 -0.078490 -0.076191
v 0.250159 -0.024615 -0.053875
v 0.349308 -0.024615 -0.053875
v -0.010956 -0.078490 -0.075722
v 0.072078 -0.078490 -0.075722
v -0.010956 -0.132033 -0.053543
v 0.072078 -0.132033 -0.053543
v 0.072078 -0.024946 -0.053543
v -0.010956 -0.154211 0.000000
v -0.010956 -0.024946 -0.053543
v 0.072078 -0.154211 0.000000
v 0.072078 -0.002767 -0.000000
v -0.010956 -0.132033 0.053543
v -0.010956 -0.002767 -0.000000
v 0.072078 -0.132033 0.053543
v 0.072077 -0.024946 0.053543
v -0.010956 -0.078490 0.075722
v -0.010956 -0.024946 0.053543
v 0.072078 -0.078490 0.075722
v 0.580140 -0.006378 -0.000000
v 0.899528 -0.027499 0.050991
v 0.899529 -0.006378 -0.000000
v 0.580140 -0.027499 0.050991
v 0.580140 -0.027499 -0.050990
v 0.899528 -0.078490 0.072112
v 0.899529 -0.027499 -0.050990
v 0.580140 -0.078490 0.072112
v 0.580140 -0.078490 -0.072112
v 0.899528 -0.129482 0.050991
v 0.899529 -0.078490 -0.072112
v 0.580140 -0.129482 0.050991
v 0.580140 -0.129482 -0.050990
v 0.580140 -0.150602 0.000000
v 0.899529 -0.129482 -0.050990
v 0.899529 -0.150602 0.000000
v 0.236775 -0.123109 -0.044620
v 0.088078 -0.123109 -0.044620
v 0.236775 -0.078490 -0.063102
v 0.088078 -0.078490 -0.063102
v 0.088078 -0.141591 0.000000
v 0.236775 -0.033870 -0.044620
v 0.236775 -0.141591 0.000000
v 0.088078 -0.033870 -0.044620
v 0.088078 -0.123109 0.044620
v 0.236775 -0.015388 -0.000000
v 0.236775 -0.123109 0.044620
v 0.088078 -0.015388 -0.000000
v 0.236774 -0.078490 0.063102
v 0.236775 -0.033870 0.044620
v 0.088077 -0.078490 0.063102
v 0.088077 -0.033870 0.044620
v 0.362692 -0.011442 -0.000000
v 0.362692 -0.059526 0.018964
v 0.362692 -0.051671 -0.000000
v 0.362692 -0.059526 -0.018964
v 0.362692 -0.031079 0.047410
v 0.362692 -0.031079 -0.047410
v 0.362692 -0.078490 0.067048
v 0.362693 -0.078490 -0.067048
v 0.362692 -0.078490 0.026819
v 0.362693 -0.078490 -0.026819
v 0.362692 -0.125899 0.047410
v 0.362693 -0.125899 -0.047410
v 0.362692 -0.097454 0.018964
v 0.362693 -0.097454 -0.018964
v 0.362692 -0.145539 0.000000
v 0.362692 -0.105309 0.000000
v 0.362692 -0.031079 0.047410
v 0.362692 -0.011442 -0.000000
v 0.349308 -0.002299 -0.000000
v 0.362692 -0.031079 -0.047410
v 0.349308 -0.024615 0.053875
v 0.349308 -0.024615 -0.053875
v 0.349308 -0.078490 0.076191
v 0.349309 -0.078490 -0.076191
v 0.362692 -0.078490 0.067048
v 0.362693 -0.078490 -0.067048
v 0.362692 -0.125899 0.047410
v 0.362693 -0.125899 -0.047410
v 0.349308 -0.132365 0.053875
v 0.349309 -0.132365 -0.053875
v 0.349308 -0.154680 0.000000
v 0.362692 -0.145539 0.000000
v 0.353563 -0.109363 0.044765
v 0.564306 -0.109363 0.044765
v 0.353563 -0.127906 0.000000
v 0.564306 -0.127906 0.000000
v 0.353563 -0.109363 -0.044765
v 0.564306 -0.109363 -0.044765
v 0.564306 -0.046731 -0.044765
v 0.353563 -0.028189 -0.000000
v 0.353563 -0.046731 -0.044765
v 0.564306 -0.028189 -0.000000
v 0.353563 -0.046731 0.044765
v 0.564306 -0.046731 0.044765
v 0.556140 -0.060133 -0.018357
v 0.556140 -0.032598 -0.045892
v 0.556140 -0.078490 -0.064901
v 0.556140 -0.013590 -0.000000
v 0.556140 -0.078490 -0.025960
v 0.556140 -0.052530 -0.000000
v 0.556140 -0.096847 -0.018357
v 0.556140 -0.060133 0.018357
v 0.556140 -0.124382 -0.045892
v 0.556140 -0.032598 0.045892
v 0.556140 -0.143391 0.000000
v 0.556140 -0.078490 0.064901
v 0.556140 -0.104450 0.000000
v 0.556140 -0.078490 0.025960
v 0.556140 -0.096847 0.018357
v 0.556140 -0.124382 0.045892
v 0.556140 -0.124382 0.045892
v 0.580140 -0.078490 0.072112
v 0.556140 -0.078490 0.064901
v 0.556140 -0.032598 0.045892
v 0.580140 -0.129482 0.050991
v 0.580140 -0.027499 0.050991
v 0.580140 -0.150602 0.000000
v 0.580140 -0.006378 -0.000000
v 0.556140 -0.143391 0.000000
v 0.556140 -0.013590 -0.000000
v 0.556140 -0.124382 -0.045892
v 0.556140 -0.032598 -0.045892
v 0.580140 -0.129482 -0.050990
v 0.580140 -0.027499 -0.050990
v 0.580140 -0.078490 -0.072112
v 0.556140 -0.078490 -0.064901
v 0.072078 -0.154211 0.000000
v 0.088078 -0.123109 0.044620
v 0.072078 -0.132033 0.053543
v 0.072078 -0.078490 0.075722
v 0.088078 -0.141591 0.000000
v 0.088077 -0.078490 0.063102
v 0.088078 -0.123109 -0.044620
v 0.088077 -0.033870 0.044620
v 0.072078 -0.132033 -0.053543
v 0.072077 -0.024946 0.053543
v 0.072078 -0.078490 -0.075722
v 0.072078 -0.002767 -0.000000
v 0.088078 -0.078490 -0.063102
v 0.088078 -0.015388 -0.000000
v 0.088078 -0.033870 -0.044620
v 0.072078 -0.024946 -0.053543
vn 1.0000 0.0005 0.0005
vn 0.2790 0.6790 0.6790
vn 0.2791 0.9603 -0.0000
vn 0.2790 0.9603 0.0005
vn 0.2790 0.6790 -0.6790
vn 0.2791 -0.0000 0.9603
vn 0.2791 -0.0000 -0.9603
vn 0.2790 0.0003 0.9603
vn 0.2791 -0.6790 0.6790
vn 0.2791 -0.6790 -0.6790
vn 0.2791 -0.9603 -0.0000
vn -1.0000 -0.0000 -0.0000
vn -1.0000 0.0005 0.0005
vn -0.6874 -0.5136 0.5136
vn -0.6873 0.0005 0.7264
vn -0.6874 -0.0000 0.7263
vn -0.6874 0.5135 0.5136
vn -0.6874 0.5135 0.5135
vn -0.6873 -0.7264 0.0009
vn -0.6873 0.7264 0.0007
vn -0.6873 -0.7263 0.0003
vn -0.6874 -0.5136 -0.5136
vn -0.6874 0.5135 -0.5136
vn -0.6874 0.5135 -0.5135
vn -0.6873 0.0005 -0.7264
vn -0.6874 -0.0000 -0.7263
vn -0.6992 -0.5055 0.5055
vn -0.6992 -0.7149 0.0005
vn -0.6988 -0.5058 -0.5058
vn -0.6992 -0.5055 -0.5055
vn -0.6992 0.0003 0.7149
vn -0.6992 -0.0000 -0.7149
vn -0.6992 -0.0000 0.7149
vn -0.6992 0.5055 0.5055
vn -0.6992 0.5055 -0.5055
vn -0.6992 0.7149 0.0005
vn 0.0005 1.0000 0.0005
vn -0.0000 0.9239 0.3827
vn 0.0005 0.9239 0.3826
vn -0.0000 0.9239 -0.3827
vn 0.0007 0.9239 -0.3826
vn 0.0005 -1.0000 0.0005
vn 0.0006 -0.9239 -0.3826
vn -0.0000 -0.9239 -0.3827
vn 0.0006 -0.9239 0.3826
vn -0.0000 -0.9239 0.3827
vn 0.0005 0.0005 1.0000
vn 0.0005 0.0005 -1.0000
vn 0.0005 -0.7071 0.7071
vn -0.0000 0.7071 0.7071
vn -0.0000 -0.7071 -0.7071
vn -0.0000 0.7071 -0.7071
vn -0.0000 -0.7071 0.7071
vn 0.0007 -0.7071 0.7071
vn 0.5640 0.5839 0.5839
vn 0.5641 0.8257 -0.0000
vn 0.5639 0.8258 0.0005
vn 0.5643 0.5838 -0.5838
vn 0.5640 0.5839 -0.5839
vn 0.5640 0.0007 0.8258
vn 0.5641 -0.0000 -0.8257
vn 0.5641 -0.5839 0.5839
vn 0.5641 -0.5839 -0.5839
vn 0.5641 -0.5839 -0.5838
vn 0.5640 -0.8258 -0.0000
vn 0.5640 -0.8258 0.0006
vn 0.0005 0.9239 -0.3826
vn 0.0007 0.9239 0.3826
vn 0.0003 0.9239 0.3826
vn 0.0005 -0.9239 0.3826
vn 0.0007 -0.9239 -0.3826
vn 0.0005 -0.9239 -0.3826
vn -0.2878 -0.6772 0.6772
vn -0.2877 0.0005 0.9577
vn -0.2878 0.6772 0.6772
vn -0.2878 -0.9577 -0.0000
vn -0.2877 0.9577 0.0008
vn -0.2877 -0.9577 0.0006
vn -0.2877 0.9577 0.0005
vn -0.2878 -0.6772 -0.6772
vn -0.2877 0.6772 -0.6772
vn -0.2877 -0.0000 -0.9577
vn -0.2877 0.0005 -0.9577
vn 0.6192 -0.7853 0.0005
vn 0.6193 -0.5552 0.5552
vn 0.6193 -0.0000 0.7851
vn 0.6193 -0.7852 -0.0000
vn 0.6193 -0.5552 -0.5552
vn 0.6193 0.5552 0.5552
vn 0.6193 -0.0000 -0.7852
vn 0.6191 0.7853 0.0007
vn 0.6192 0.7853 0.0004
vn 0.6190 0.5553 -0.5553
vn 0.6193 0.5552 -0.5552
vt 0.000000 0.000000
s 1
f 197/3/116 198/3/116 199/3/116
f 198/3/116 200/3/116 201/3/116
f 198/3/116 202/3/116 200/3/116
f 198/3/116 197/3/116 202/3/116
f 197/3/116 203/3/116 202/3/116
f 203/3/116 197/3/116 204/3/116
f 205/3/117 206/3/118 207/3/119
f 208/3/120 207/3/119 206/3/118
f 207/3/119 209/3/117 205/3/117
f 207/3/119 208/3/120 210/3/120
f 211/3/121 205/3/117 209/3/117
f 208/3/120 212/3/122 210/3/120
f 205/3/117 211/3/121 213/3/123
f 212/3/122 208/3/120 214/3/122
f 211/3/121 215/3/124 213/3/123
f 216/3/125 212/3/122 214/3/122
f 215/3/124 211/3/121 217/3/124
f 212/3/122 216/3/125 218/3/125
f 219/3/126 215/3/124 217/3/124
f 216/3/125 219/3/126 218/3/125
f 215/3/124 219/3/126 220/3/126
f 219/3/126 216/3/125 220/3/126
f 221/3/127 222/3/128 223/3/128
f 222/3/128 221/3/127 224/3/128
f 225/3/128 221/3/127 223/3/128
f 225/3/128 223/3/128 226/3/128
f 221/3/127 225/3/128 227/3/128
f 221/3/127 227/3/128 228/3/128
f 229/3/129 230/3/130 231/3/131
f 232/3/132 231/3/131 230/3/130
f 230/3/130 229/3/129 233/3/129
f 230/3/130 234/3/133 232/3/132
f 235/3/134 233/3/129 229/3/129
f 236/3/135 232/3/132 234/3/133
f 229/3/129 237/3/136 235/3/134
f 232/3/132 236/3/135 238/3/135
f 239/3/137 235/3/134 237/3/136
f 236/3/135 240/3/138 238/3/135
f 235/3/134 239/3/137 241/3/137
f 240/3/138 236/3/135 242/3/139
f 243/3/140 241/3/137 239/3/137
f 243/3/140 240/3/138 242/3/139
f 239/3/137 244/3/141 243/3/140
f 240/3/138 243/3/140 244/3/141
f 245/3/116 246/3/116 247/3/116
f 247/3/116 248/3/116 245/3/116
f 249/3/116 245/3/116 248/3/116
f 245/3/116 249/3/116 250/3/116
f 251/3/116 252/3/116 253/3/116
f 252/3/116 251/3/116 254/3/116
f 255/3/116 251/3/116 253/3/116
f 251/3/116 255/3/116 256/3/116
f 257/3/142 258/3/143 259/3/143
f 260/3/144 259/3/143 258/3/143
f 259/3/143 261/3/142 257/3/142
f 259/3/143 260/3/144 262/3/145
f 263/3/146 257/3/142 261/3/142
f 264/3/147 262/3/145 260/3/144
f 257/3/142 263/3/146 265/3/148
f 260/3/144 266/3/147 264/3/147
f 267/3/149 265/3/148 263/3/146
f 268/3/150 264/3/147 266/3/147
f 263/3/146 269/3/149 267/3/149
f 264/3/147 268/3/150 270/3/150
f 271/3/151 267/3/149 269/3/149
f 268/3/150 271/3/151 270/3/150
f 267/3/149 271/3/151 272/3/151
f 271/3/151 268/3/150 272/3/151
f 273/3/152 274/3/152 275/3/153
f 273/3/152 275/3/153 276/3/154
f 277/3/155 274/3/152 273/3/152
f 277/3/155 278/3/156 274/3/152
f 279/3/157 280/3/158 281/3/159
f 280/3/158 279/3/157 282/3/157
f 283/3/160 282/3/157 279/3/157
f 282/3/157 283/3/160 284/3/161
f 285/3/162 286/3/162 287/3/162
f 285/3/162 287/3/162 288/3/162
f 289/3/163 290/3/163 291/3/163
f 289/3/163 291/3/163 292/3/163
f 293/3/163 294/3/163 295/3/163
f 293/3/163 295/3/163 296/3/163
f 297/3/162 298/3/162 299/3/162
f 297/3/162 299/3/162 300/3/162
f 301/3/128 302/3/128 303/3/128
f 302/3/128 301/3/128 304/3/128
f 301/3/128 305/3/128 304/3/128
f 305/3/128 301/3/128 306/3/128
f 307/3/128 308/3/128 309/3/128
f 308/3/128 307/3/128 310/3/128
f 311/3/128 309/3/128 308/3/128
f 308/3/128 312/3/128 311/3/128
f 313/3/164 314/3/164 315/3/162
f 314/3/164 313/3/164 316/3/157
f 313/3/164 315/3/162 317/3/162
f 318/3/157 316/3/157 313/3/164
f 317/3/162 315/3/162 319/3/165
f 320/3/166 316/3/157 318/3/157
f 317/3/162 319/3/165 321/3/165
f 320/3/166 322/3/166 316/3/157
f 319/3/165 323/3/152 321/3/165
f 324/3/163 322/3/166 320/3/166
f 323/3/152 319/3/165 325/3/152
f 324/3/163 326/3/163 322/3/166
f 325/3/152 327/3/167 323/3/152
f 324/3/163 328/3/167 326/3/163
f 327/3/167 325/3/152 328/3/167
f 328/3/167 324/3/163 327/3/167
f 329/3/163 330/3/163 331/3/166
f 330/3/163 332/3/166 331/3/166
f 333/3/167 330/3/163 329/3/163
f 331/3/166 332/3/166 334/3/157
f 335/3/167 333/3/167 329/3/163
f 332/3/166 336/3/157 334/3/157
f 335/3/167 337/3/152 333/3/167
f 334/3/157 336/3/157 338/3/168
f 337/3/152 335/3/167 339/3/152
f 336/3/157 340/3/168 338/3/168
f 339/3/152 341/3/165 337/3/152
f 338/3/168 340/3/168 342/3/162
f 341/3/165 339/3/152 343/3/165
f 342/3/162 341/3/165 343/3/165
f 340/3/168 344/3/162 342/3/162
f 341/3/165 342/3/162 344/3/162
f 345/3/152 346/3/165 347/3/152
f 346/3/165 345/3/152 348/3/165
f 347/3/152 349/3/167 345/3/152
f 346/3/165 348/3/165 350/3/162
f 349/3/167 347/3/152 351/3/167
f 352/3/162 350/3/162 348/3/165
f 349/3/167 351/3/167 353/3/163
f 350/3/162 352/3/162 354/3/169
f 355/3/163 353/3/163 351/3/167
f 356/3/164 354/3/169 352/3/162
f 353/3/163 355/3/163 357/3/166
f 358/3/157 354/3/169 356/3/164
f 359/3/166 357/3/166 355/3/163
f 357/3/166 359/3/166 358/3/157
f 354/3/169 358/3/157 360/3/157
f 360/3/157 358/3/157 359/3/166
f 361/3/166 362/3/166 363/3/163
f 364/3/163 363/3/163 362/3/166
f 362/3/166 361/3/166 365/3/157
f 363/3/163 364/3/163 366/3/167
f 367/3/157 365/3/157 361/3/166
f 368/3/167 366/3/167 364/3/163
f 365/3/157 367/3/157 369/3/168
f 368/3/167 370/3/152 366/3/167
f 371/3/168 369/3/168 367/3/157
f 370/3/152 368/3/167 372/3/152
f 373/3/162 369/3/168 371/3/168
f 372/3/152 374/3/165 370/3/152
f 369/3/168 373/3/162 375/3/162
f 374/3/165 372/3/152 376/3/165
f 375/3/162 373/3/162 376/3/165
f 374/3/165 376/3/165 373/3/162
f 377/3/116 378/3/116 379/3/116
f 380/3/116 377/3/116 379/3/116
f 378/3/116 377/3/116 381/3/116
f 377/3/116 380/3/116 382/3/116
f 383/3/116 378/3/116 381/3/116
f 380/3/116 384/3/116 382/3/116
f 378/3/116 383/3/116 385/3/116
f 384/3/116 380/3/116 386/3/116
f 387/3/116 385/3/116 383/3/116
f 386/3/116 388/3/116 384/3/116
f 385/3/116 387/3/116 389/3/116
f 388/3/116 386/3/116 390/3/116
f 387/3/116 391/3/116 389/3/116
f 390/3/116 391/3/116 388/3/116
f 389/3/116 391/3/116 392/3/116
f 391/3/116 390/3/116 392/3/116
f 393/3/170 394/3/171 395/3/172
f 396/3/173 395/3/172 394/3/171
f 395/3/172 397/3/170 393/3/170
f 395/3/172 396/3/173 398/3/174
f 399/3/175 393/3/170 397/3/170
f 396/3/173 400/3/176 398/3/174
f 393/3/170 399/3/175 401/3/175
f 400/3/176 396/3/173 402/3/176
f 399/3/175 403/3/177 401/3/175
f 404/3/178 400/3/176 402/3/176
f 403/3/177 399/3/175 405/3/177
f 400/3/176 404/3/178 406/3/179
f 407/3/180 403/3/177 405/3/177
f 404/3/178 407/3/180 406/3/179
f 403/3/177 407/3/180 408/3/181
f 407/3/180 404/3/178 408/3/181
f 409/3/155 410/3/182 411/3/152
f 412/3/152 411/3/152 410/3/182
f 411/3/152 412/3/152 413/3/183
f 414/3/184 413/3/183 412/3/152
f 415/3/185 416/3/157 417/3/161
f 416/3/157 415/3/185 418/3/157
f 418/3/157 419/3/186 416/3/157
f 419/3/186 418/3/157 420/3/187
f 421/3/128 422/3/128 423/3/128
f 421/3/128 424/3/128 422/3/128
f 421/3/128 423/3/128 425/3/128
f 424/3/128 421/3/128 426/3/128
f 423/3/128 427/3/128 425/3/128
f 428/3/128 424/3/128 426/3/128
f 427/3/128 423/3/128 429/3/128
f 430/3/128 424/3/128 428/3/128
f 431/3/128 427/3/128 429/3/128
f 428/3/128 432/3/128 430/3/128
f 427/3/128 431/3/128 433/3/128
f 432/3/128 428/3/128 434/3/128
f 431/3/128 435/3/128 433/3/128
f 435/3/128 432/3/128 434/3/128
f 435/3/128 431/3/128 436/3/128
f 432/3/128 435/3/128 436/3/128
f 437/3/188 438/3/189 439/3/189
f 440/3/190 439/3/189 438/3/189
f 438/3/189 437/3/188 441/3/188
f 438/3/189 442/3/190 440/3/190
f 443/3/191 441/3/188 437/3/188
f 444/3/192 440/3/190 442/3/190
f 437/3/188 445/3/193 443/3/191
f 440/3/190 444/3/192 446/3/194
f 447/3/195 443/3/191 445/3/193
f 444/3/192 448/3/196 446/3/194
f 443/3/191 447/3/195 449/3/195
f 448/3/196 444/3/192 450/3/196
f 451/3/197 449/3/195 447/3/195
f 451/3/197 448/3/196 450/3/196
f 447/3/195 452/3/198 451/3/197
f 448/3/196 451/3/197 452/3/198
f 453/3/199 454/3/200 455/3/200
f 456/3/201 455/3/200 454/3/200
f 454/3/200 453/3/199 457/3/202
f 454/3/200 458/3/201 456/3/201
f 459/3/203 457/3/202 453/3/199
f 460/3/204 456/3/201 458/3/201
f 453/3/199 461/3/203 459/3/203
f 456/3/201 460/3/204 462/3/204
f 463/3/205 459/3/203 461/3/203
f 464/3/206 462/3/204 460/3/204
f 459/3/203 463/3/205 465/3/205
f 464/3/206 460/3/204 466/3/207
f 467/3/208 465/3/205 463/3/205
f 467/3/208 464/3/206 466/3/207
f 463/3/205 468/3/209 467/3/208
f 464/3/206 467/3/208 468/3/209
o RenderMesh_131023252186281_7a3e992fd8917175
v 0.335384 -0.041952 0.041616
v -0.027065 -0.083568 0.058854
v -0.027065 -0.041952 0.041616
v 0.335384 -0.083568 0.058854
v 0.335384 -0.024714 -0.000000
v -0.027065 -0.125184 0.041616
v -0.027065 -0.024714 -0.000000
v 0.335384 -0.125184 0.041616
v 0.335384 -0.041952 -0.041616
v -0.027065 -0.142421 0.000000
v -0.027065 -0.041952 -0.041616
v 0.335384 -0.142421 0.000000
v 0.335384 -0.083568 -0.058854
v -0.027065 -0.125184 -0.041616
v -0.027065 -0.083568 -0.058854
v 0.335384 -0.125184 -0.041616
vn -0.0000 -0.7071 -0.7071
vn -0.0000 0.0005 -1.0000
vn -0.0000 -1.0000 0.0005
vn -0.0000 0.7071 -0.7071
vn -0.0000 -0.7071 0.7071
vn -0.0000 1.0000 0.0005
vn -0.0000 0.0005 1.0000
vn -0.0000 0.7071 0.7071
vt 0.000000 0.000000
s 1
f 469/4/210 470/4/211 471/4/210
f 470/4/211 469/4/210 472/4/211
f 471/4/210 473/4/212 469/4/210
f 472/4/211 474/4/213 470/4/211
f 473/4/212 471/4/210 475/4/212
f 474/4/213 472/4/211 476/4/213
f 475/4/212 477/4/214 473/4/212
f 474/4/213 476/4/213 478/4/215
f 477/4/214 475/4/212 479/4/214
f 480/4/215 478/4/215 476/4/213
f 479/4/214 481/4/216 477/4/214
f 478/4/215 480/4/215 482/4/217
f 481/4/216 479/4/214 483/4/216
f 484/4/217 482/4/217 480/4/215
f 483/4/216 484/4/217 481/4/216
f 484/4/217 483/4/216 482/4/217
o RenderMesh_138871468910177_834f651311a4271d
v 0.097801 0.007612 -0.044959
v 0.097801 -0.038948 -0.044959
v 0.097801 -0.038948 -0.020402
v 0.097801 0.007612 -0.020402
v 0.097801 -0.038948 0.016691
v 0.110106 0.040574 -0.020402
v 0.110106 0.040574 -0.044959
v 0.097801 0.007612 0.016691
v 0.097801 -0.038948 0.041249
v 0.097801 0.007612 0.041249
v 0.110106 0.040574 0.041249
v 0.110106 0.040574 0.016691
v 0.890257 0.023943 0.000942
v 0.904063 -0.022813 -0.024462
v 0.890257 0.023943 -0.004653
v 0.904063 -0.022813 0.020750
v 0.835334 -0.038023 0.055252
v 0.823616 -0.081036 -0.078235
v 0.835334 -0.038023 -0.058963
v 0.823616 -0.081036 0.074525
v 0.811898 -0.124050 0.055252
v 0.823616 -0.081036 0.074525
v 0.811898 -0.124050 -0.058963
v 0.780650 -0.038023 0.055252
v 0.768933 -0.081036 -0.078235
v 0.780650 -0.038023 -0.058963
v 0.768933 -0.081036 0.074525
v 0.757215 -0.124050 0.055252
v 0.768933 -0.081036 0.074525
v 0.757215 -0.124050 -0.058963
v 0.725967 -0.038023 0.055252
v 0.714250 -0.081036 -0.078235
v 0.725967 -0.038023 -0.058963
v 0.714250 -0.081036 0.074525
v 0.702532 -0.124050 0.055252
v 0.714250 -0.081036 0.074525
v 0.702532 -0.124050 -0.058963
v 0.682964 -0.081036 0.074525
v 0.671246 -0.124050 0.055252
v 0.702532 -0.124050 0.055252
v 0.714250 -0.081036 0.074525
v 0.737646 -0.081036 0.074525
v 0.725929 -0.124050 0.055252
v 0.757215 -0.124050 0.055252
v 0.768933 -0.081036 0.074525
v 0.792330 -0.081036 0.074525
v 0.780612 -0.124050 0.055252
v 0.811898 -0.124050 0.055252
v 0.823616 -0.081036 0.074525
v 0.702532 -0.124050 -0.058963
v 0.682963 -0.081036 -0.078235
v 0.714250 -0.081036 -0.078235
v 0.671246 -0.124050 -0.058963
v 0.757215 -0.124050 -0.058963
v 0.737646 -0.081036 -0.078235
v 0.768933 -0.081036 -0.078235
v 0.725929 -0.124050 -0.058963
v 0.811898 -0.124050 -0.058963
v 0.792330 -0.081036 -0.078235
v 0.823616 -0.081036 -0.078235
v 0.780612 -0.124050 -0.058963
v 0.757215 -0.124050 -0.058963
v 0.757215 -0.124050 0.055252
v 0.725929 -0.124050 -0.058963
v 0.725929 -0.124050 0.055252
v 0.811898 -0.124050 0.055252
v 0.780612 -0.124050 -0.058963
v 0.811898 -0.124050 -0.058963
v 0.780612 -0.124050 0.055252
v 0.702532 -0.124050 -0.058963
v 0.702532 -0.124050 0.055252
v 0.671246 -0.124050 -0.058963
v 0.671246 -0.124050 0.055252
v 0.890257 0.023943 -0.004653
v 0.842894 0.023943 -0.004653
v 0.842894 0.023943 0.000942
v 0.890257 0.023943 0.000942
v 0.749365 -0.038023 0.055252
v 0.737646 -0.081036 0.074525
v 0.768933 -0.081036 0.074525
v 0.780650 -0.038023 0.055252
v 0.804048 -0.038023 0.055252
v 0.792330 -0.081036 0.074525
v 0.823616 -0.081036 0.074525
v 0.835334 -0.038023 0.055252
v 0.694682 -0.038023 0.055252
v 0.682964 -0.081036 0.074525
v 0.714250 -0.081036 0.074525
v 0.725967 -0.038023 0.055252
v 0.768933 -0.081036 -0.078235
v 0.749365 -0.038023 -0.058963
v 0.780650 -0.038023 -0.058963
v 0.737646 -0.081036 -0.078235
v 0.823616 -0.081036 -0.078235
v 0.804048 -0.038023 -0.058963
v 0.835334 -0.038023 -0.058963
v 0.792330 -0.081036 -0.078235
v 0.714250 -0.081036 -0.078235
v 0.694682 -0.038023 -0.058963
v 0.725967 -0.038023 -0.058963
v 0.682963 -0.081036 -0.078235
v 0.097801 0.007612 0.016691
v 0.230774 0.007612 -0.020402
v 0.097801 0.007612 -0.020402
v 0.230774 0.007612 0.016691
v 0.230774 0.007612 0.041249
v 0.097801 0.007612 0.041249
v 0.230774 -0.038948 0.041249
v 0.097801 -0.038948 0.041249
v 0.218468 0.027389 0.041249
v 0.110106 0.040574 0.041249
v 0.230774 0.007612 0.041249
v 0.230774 0.007612 -0.044959
v 0.097801 -0.038948 -0.044959
v 0.097801 0.007612 -0.044959
v 0.230774 -0.038948 -0.044959
v 0.218468 0.027389 -0.044959
v 0.110106 0.040574 -0.044959
v 0.230774 0.007612 -0.044959
v 0.760171 -0.022813 0.020750
v 0.904063 -0.022813 0.020750
v 0.842894 0.023943 0.000942
v 0.890257 0.023943 0.000942
v 0.218468 0.027389 0.016691
v 0.110106 0.040574 0.016691
v 0.110106 0.040574 0.041249
v 0.218468 0.027389 0.041249
v 0.218468 0.027389 -0.044959
v 0.110106 0.040574 -0.044959
v 0.110106 0.040574 -0.020402
v 0.218468 0.027389 -0.020402
v 0.904063 -0.022813 -0.024462
v 0.842894 0.023943 -0.004653
v 0.890257 0.023943 -0.004653
v 0.760171 -0.022813 -0.024462
v 0.749365 -0.038023 0.055252
v 0.780650 -0.038023 -0.058963
v 0.749365 -0.038023 -0.058963
v 0.780650 -0.038023 0.055252
v 0.804048 -0.038023 0.055252
v 0.835334 -0.038023 -0.058963
v 0.804048 -0.038023 -0.058963
v 0.835334 -0.038023 0.055252
v 0.694682 -0.038023 0.055252
v 0.725967 -0.038023 -0.058963
v 0.694682 -0.038023 -0.058963
v 0.725967 -0.038023 0.055252
v 0.097801 0.007612 -0.020402
v 0.230774 0.007612 -0.020402
v 0.218468 0.027389 -0.020402
v 0.110106 0.040574 -0.020402
v 0.097801 0.007612 0.016691
v 0.218468 0.027389 0.016691
v 0.230774 0.007612 0.016691
v 0.110106 0.040574 0.016691
v 0.760171 -0.022813 -0.024462
v 0.904063 -0.022813 -0.024462
v 0.904063 -0.022813 0.020750
v 0.760171 -0.022813 0.020750
v 0.760171 -0.022813 -0.024462
v 0.842894 0.023943 0.000942
v 0.842894 0.023943 -0.004653
v 0.760171 -0.022813 0.020750
v 0.682963 -0.081036 -0.078235
v 0.694682 -0.038023 0.055252
v 0.694682 -0.038023 -0.058963
v 0.682964 -0.081036 0.074525
v 0.671246 -0.124050 0.055252
v 0.682964 -0.081036 0.074525
v 0.671246 -0.124050 -0.058963
v 0.737646 -0.081036 -0.078235
v 0.749365 -0.038023 0.055252
v 0.749365 -0.038023 -0.058963
v 0.737646 -0.081036 0.074525
v 0.725929 -0.124050 0.055252
v 0.737646 -0.081036 0.074525
v 0.725929 -0.124050 -0.058963
v 0.792330 -0.081036 -0.078235
v 0.804048 -0.038023 0.055252
v 0.804048 -0.038023 -0.058963
v 0.792330 -0.081036 0.074525
v 0.780612 -0.124050 0.055252
v 0.792330 -0.081036 0.074525
v 0.780612 -0.124050 -0.058963
v 0.230774 -0.038948 0.016691
v 0.230774 0.007612 0.016691
v 0.230774 0.007612 0.041249
v 0.230774 -0.038948 0.041249
v 0.230774 -0.038948 -0.020402
v 0.218468 0.027389 0.016691
v 0.218468 0.027389 0.041249
v 0.230774 0.007612 -0.020402
v 0.230774 -0.038948 -0.044959
v 0.230774 0.007612 -0.044959
v 0.218468 0.027389 -0.044959
v 0.218468 0.027389 -0.020402
vn -0.9831 0.1832 0.0005
vn -1.0000 0.0005 0.0005
vn -0.9923 0.1236 0.0005
vn -0.9368 0.3497 -0.0000
vn -0.9366 0.3505 0.0006
vn -0.9366 0.3503 0.0004
vn 0.9591 0.2832 -0.0000
vn 0.9591 0.2830 0.0003
vn 0.9649 -0.2625 0.0004
vn 0.9648 -0.2629 -0.0000
vn 0.9650 -0.2624 0.0005
vn 0.9650 -0.2624 0.0004
vn 0.9648 -0.2628 -0.0000
vn 0.9649 -0.2626 0.0002
vn 0.9649 -0.2625 0.0003
vn 0.0005 -0.0122 0.9999
vn -0.0000 -0.4089 0.9126
vn 0.0005 0.0122 0.9999
vn 0.0005 -0.4087 -0.9127
vn 0.0005 -0.0123 -0.9999
vn 0.0005 0.0122 -0.9999
vn -0.0000 -0.4089 -0.9126
vn 0.0005 -1.0000 0.0005
vn 0.0005 1.0000 0.0005
vn -0.0000 0.4089 0.9126
vn 0.0004 0.0122 0.9999
vn -0.0000 0.4089 -0.9126
vn 0.0005 -0.0122 -0.9999
vn 0.0005 0.0123 -0.9999
vn 0.0005 0.4087 -0.9127
vn 0.0005 0.0005 1.0000
vn 0.0005 0.0005 -1.0000
vn 0.0005 0.3903 0.9207
vn -0.0000 0.3901 0.9208
vn 0.0005 0.3902 0.9207
vn 0.1208 0.9927 -0.0000
vn -0.0000 0.3901 -0.9208
vn 0.0005 0.3902 -0.9207
vn -0.4919 0.8707 0.0003
vn -0.4918 0.8707 0.0004
vn -0.4921 0.8706 -0.0000
vn -0.9649 0.2625 0.0004
vn -0.9649 0.2626 0.0003
vn -0.9650 0.2624 0.0005
vn -0.9650 0.2623 0.0004
vn -0.9650 0.2624 0.0004
vn -0.9648 0.2629 -0.0000
vn -0.9649 0.2627 0.0003
vn -0.9650 0.2623 0.0005
vn -0.9649 0.2625 0.0003
vn -0.9648 0.2628 -0.0000
vn -0.9650 0.2622 0.0007
vn 1.0000 0.0005 0.0005
vn 0.9792 0.2027 0.0005
vn 0.9550 0.2965 0.0005
vn 0.8491 0.5283 -0.0000
vn 0.8493 0.5279 0.0005
vt 0.625000 0.250000
vt 0.375000 0.250000
vt 0.375000 0.166667
vt 0.625000 0.166667
vt 0.375000 0.083333
vt 0.625000 0.083333
vt 0.375000 0.000000
vt 0.625000 0.000000
vt 0.625000 0.750000
vt 0.500000 0.500000
vt 0.625000 0.500000
vt 0.500000 0.750000
vt 0.375000 0.750000
vt 0.375000 0.500000
vt 0.500000 1.000000
vt 0.375000 1.000000
vt 0.500000 0.250000
vt 0.125000 0.500000
vt 0.125000 0.750000
vt 0.875000 0.750000
vt 0.875000 0.500000
vt 0.625000 1.000000
vt 0.875000 0.666667
vt 0.625000 0.583333
vt 0.875000 0.583333
vt 0.625000 0.666667
vt 0.500000 0.000000
vt 0.375000 0.666667
vt 0.375000 0.583333
s 1
f 485/5/218 486/6/219 487/7/219
f 485/5/218 487/7/219 488/8/220
f 488/8/220 487/7/219 489/9/219
f 485/5/218 488/8/220 490/8/221
f 491/5/222 485/5/218 490/8/221
f 488/8/220 489/9/219 492/10/220
f 492/10/220 489/9/219 493/11/219
f 492/10/220 493/11/219 494/12/218
f 492/10/220 494/12/218 495/12/221
f 496/10/223 492/10/220 495/12/221
f 497/5/224 498/11/224 499/12/224
f 498/11/224 497/5/224 500/6/225
f 501/13/226 502/14/227 503/15/228
f 504/16/229 502/14/227 501/13/226
f 505/17/228 502/14/230 506/16/231
f 502/14/230 505/17/228 507/18/229
f 508/13/232 509/14/226 510/15/232
f 511/16/232 509/14/226 508/13/232
f 512/17/230 509/14/232 513/16/229
f 509/14/232 512/17/230 514/18/230
f 515/13/230 516/14/228 517/15/226
f 518/16/226 516/14/228 515/13/230
f 519/17/226 516/14/232 520/16/231
f 516/14/232 519/17/226 521/18/229
f 522/19/233 523/20/234 524/17/234
f 524/17/234 525/16/235 522/19/233
f 526/19/233 527/20/234 528/17/234
f 528/17/234 529/16/235 526/19/233
f 530/19/233 531/20/234 532/17/234
f 532/17/234 533/16/235 530/19/233
f 534/18/236 535/21/237 536/14/238
f 535/21/237 534/18/236 537/6/239
f 538/18/239 539/21/237 540/14/238
f 539/21/237 538/18/239 541/6/239
f 542/18/239 543/21/237 544/14/238
f 543/21/237 542/18/239 545/6/239
f 546/18/240 547/17/240 548/22/240
f 548/22/240 547/17/240 549/23/240
f 550/17/240 551/22/240 552/18/240
f 551/22/240 550/17/240 553/23/240
f 554/18/240 555/17/240 556/22/240
f 556/22/240 555/17/240 557/23/240
f 558/24/241 559/13/241 560/15/241
f 558/24/241 560/15/241 561/25/241
f 562/26/242 563/19/233 564/16/243
f 564/16/243 565/13/242 562/26/242
f 566/26/242 567/19/233 568/16/243
f 568/16/243 569/13/242 566/26/242
f 570/26/242 571/19/233 572/16/243
f 572/16/243 573/13/242 570/26/242
f 574/14/238 575/5/244 576/15/244
f 575/5/244 574/14/238 577/21/245
f 578/14/246 579/5/247 580/15/244
f 579/5/247 578/14/246 581/21/245
f 582/14/246 583/5/244 584/15/244
f 583/5/244 582/14/246 585/21/245
f 586/27/241 587/28/241 588/29/241
f 587/28/241 586/27/241 589/30/241
f 590/13/248 591/26/248 592/17/248
f 593/20/248 592/17/248 591/26/248
f 591/26/248 594/13/248 595/26/248
f 591/26/248 596/13/248 594/13/248
f 597/15/249 598/6/249 599/5/249
f 598/6/249 597/15/249 600/18/249
f 601/15/249 599/5/249 602/5/249
f 599/5/249 601/15/249 603/15/249
f 604/18/250 605/6/251 606/15/251
f 605/6/251 607/5/252 606/15/251
f 608/30/253 609/27/253 610/24/253
f 608/30/253 610/24/253 611/13/253
f 612/15/253 613/25/253 614/29/253
f 612/15/253 614/29/253 615/28/253
f 616/20/254 617/13/254 618/26/255
f 617/13/254 616/20/254 619/17/254
f 620/24/241 621/15/241 622/25/241
f 621/15/241 620/24/241 623/13/241
f 624/24/241 625/15/241 626/25/241
f 625/15/241 624/24/241 627/13/241
f 628/24/241 629/15/241 630/25/241
f 629/15/241 628/24/241 631/13/241
f 632/29/248 633/28/248 634/28/248
f 632/29/248 634/28/248 635/29/248
f 636/27/249 637/30/249 638/30/249
f 637/30/249 636/27/249 639/27/249
f 640/17/240 641/23/240 642/22/240
f 640/17/240 642/22/240 643/18/240
f 644/17/256 645/15/257 646/13/256
f 645/15/257 644/17/256 647/18/258
f 648/21/259 649/12/259 650/5/259
f 649/12/259 648/21/259 651/31/260
f 648/21/261 652/11/259 653/31/262
f 654/6/263 652/11/259 648/21/261
f 655/21/264 656/12/265 657/5/264
f 656/12/265 655/21/264 658/31/266
f 655/21/267 659/11/268 660/31/266
f 661/6/267 659/11/268 655/21/267
f 662/21/269 663/12/259 664/5/263
f 663/12/259 662/21/269 665/31/263
f 662/21/263 666/11/259 667/31/259
f 668/6/267 666/11/259 662/21/263
f 669/32/270 670/30/271 671/13/272
f 669/32/270 671/13/272 672/17/270
f 673/33/270 670/30/271 669/32/270
f 674/30/273 671/13/272 670/30/271
f 671/13/272 674/30/273 675/13/274
f 676/28/271 670/30/271 673/33/270
f 677/18/270 676/28/271 673/33/270
f 677/18/270 678/15/272 676/28/271
f 679/15/273 676/28/271 678/15/272
f 676/28/271 679/15/273 680/28/273
