# Blender 5.2.0 LTS
# www.blender.org
mtllib warp handgun magazine.mtl
o RenderMesh_92176646335348_96be2f987861b0c2
v 0.290141 0.252289 -0.040414
v 0.054388 0.252289 -0.040414
v 0.054388 0.252289 0.040414
v 0.290141 0.252289 0.040414
v -0.028298 -0.080720 -0.042264
v -0.041594 -0.038092 0.048078
v -0.041594 -0.038092 -0.048078
v -0.028298 -0.080720 0.042264
v 0.237802 -0.062536 -0.048078
v 0.237802 -0.062536 0.048078
v 0.217307 -0.102207 -0.042264
v 0.217307 -0.102207 0.042264
v -0.020452 -0.023468 0.040414
v 0.054388 0.252289 0.040414
v -0.020452 -0.023468 -0.040414
v 0.054388 0.252289 -0.040414
v 0.290141 0.252289 -0.040414
v 0.214404 -0.044015 0.040414
v 0.214404 -0.044015 -0.040414
v 0.290141 0.252289 0.040414
v 0.217307 -0.102207 0.042264
v -0.028298 -0.080720 -0.042264
v 0.217307 -0.102207 -0.042264
v -0.028298 -0.080720 0.042264
v -0.041594 -0.038092 -0.048078
v 0.217307 -0.102207 -0.042264
v -0.028298 -0.080720 -0.042264
v 0.237802 -0.062536 -0.048078
v 0.237802 -0.062536 0.048078
v -0.041594 -0.038092 0.048078
v 0.217307 -0.102207 0.042264
v -0.028298 -0.080720 0.042264
v -0.020452 -0.023468 0.040414
v -0.020452 -0.023468 -0.040414
v -0.041594 -0.038092 -0.048078
v -0.041594 -0.038092 0.048078
v 0.290141 0.252289 -0.040414
v 0.214404 -0.044015 -0.040414
v 0.054388 0.252289 -0.040414
v -0.020452 -0.023468 -0.040414
v 0.214404 -0.044015 0.040414
v 0.054388 0.252289 0.040414
v -0.020452 -0.023468 0.040414
v 0.290141 0.252289 0.040414
v 0.214404 -0.044015 -0.040414
v 0.237802 -0.062536 0.048078
v 0.237802 -0.062536 -0.048078
v 0.214404 -0.044015 0.040414
v -0.041594 -0.038092 -0.048078
v 0.214404 -0.044015 -0.040414
v 0.237802 -0.062536 -0.048078
v -0.020452 -0.023468 -0.040414
v 0.214404 -0.044015 0.040414
v -0.020452 -0.023468 0.040414
v -0.041594 -0.038092 0.048078
v 0.237802 -0.062536 0.048078
vn -0.0000 1.0000 -0.0000
vn -0.9546 -0.2978 -0.0000
vn -0.9547 -0.2977 0.0003
vn 0.8885 -0.4588 0.0005
vn 0.8884 -0.4590 -0.0000
vn -0.9650 0.2622 0.0004
vn -0.9651 0.2619 -0.0000
vn -0.9650 0.2622 0.0005
vn 0.9689 -0.2476 -0.0000
vn -0.0872 -0.9962 -0.0000
vn -0.0123 -0.1391 -0.9902
vn -0.0125 -0.1393 -0.9902
vn -0.0124 -0.1393 -0.9902
vn -0.0125 -0.1393 0.9902
vn -0.0123 -0.1391 0.9902
vn -0.5689 0.8224 -0.0000
vn -0.0000 -0.0000 -1.0000
vn -0.0000 -0.0000 1.0000
vn 0.6207 0.7841 0.0005
vn 0.6207 0.7840 0.0005
vn 0.6207 0.7841 -0.0000
vn 0.6207 0.7841 0.0003
vn 0.0369 0.4215 -0.9061
vn 0.0369 0.4215 0.9061
vt 0.000000 0.000000
s 1
f 1/1/1 2/1/1 3/1/1
f 1/1/1 3/1/1 4/1/1
f 5/1/2 6/1/2 7/1/2
f 6/1/2 5/1/2 8/1/3
f 9/1/4 10/1/5 11/1/5
f 11/1/5 10/1/5 12/1/5
f 13/1/6 14/1/7 15/1/7
f 16/1/8 15/1/7 14/1/7
f 17/1/9 18/1/9 19/1/9
f 18/1/9 17/1/9 20/1/9
f 21/1/10 22/1/10 23/1/10
f 22/1/10 21/1/10 24/1/10
f 25/1/11 26/1/12 27/1/13
f 26/1/12 25/1/11 28/1/12
f 29/1/14 30/1/15 31/1/14
f 31/1/14 30/1/15 32/1/14
f 33/1/16 34/1/16 35/1/16
f 35/1/16 36/1/16 33/1/16
f 37/1/17 38/1/17 39/1/17
f 38/1/17 40/1/17 39/1/17
f 41/1/18 42/1/18 43/1/18
f 42/1/18 41/1/18 44/1/18
f 45/1/19 46/1/20 47/1/21
f 46/1/20 45/1/19 48/1/22
f 49/1/23 50/1/23 51/1/23
f 50/1/23 49/1/23 52/1/23
f 53/1/24 54/1/24 55/1/24
f 55/1/24 56/1/24 53/1/24
